G04 #@! TF.GenerationSoftware,KiCad,Pcbnew,6.0.1-79c1e3a40b~116~ubuntu20.04.1*
G04 #@! TF.CreationDate,2022-01-27T14:59:17+02:00*
G04 #@! TF.ProjectId,opm-inline,6f706d2d-696e-46c6-996e-652e6b696361,rev?*
G04 #@! TF.SameCoordinates,Original*
G04 #@! TF.FileFunction,Copper,L4,Bot*
G04 #@! TF.FilePolarity,Positive*
%FSLAX46Y46*%
G04 Gerber Fmt 4.6, Leading zero omitted, Abs format (unit mm)*
G04 Created by KiCad (PCBNEW 6.0.1-79c1e3a40b~116~ubuntu20.04.1) date 2022-01-27 14:59:17*
%MOMM*%
%LPD*%
G01*
G04 APERTURE LIST*
G04 Aperture macros list*
%AMRoundRect*
0 Rectangle with rounded corners*
0 $1 Rounding radius*
0 $2 $3 $4 $5 $6 $7 $8 $9 X,Y pos of 4 corners*
0 Add a 4 corners polygon primitive as box body*
4,1,4,$2,$3,$4,$5,$6,$7,$8,$9,$2,$3,0*
0 Add four circle primitives for the rounded corners*
1,1,$1+$1,$2,$3*
1,1,$1+$1,$4,$5*
1,1,$1+$1,$6,$7*
1,1,$1+$1,$8,$9*
0 Add four rect primitives between the rounded corners*
20,1,$1+$1,$2,$3,$4,$5,0*
20,1,$1+$1,$4,$5,$6,$7,0*
20,1,$1+$1,$6,$7,$8,$9,0*
20,1,$1+$1,$8,$9,$2,$3,0*%
G04 Aperture macros list end*
G04 #@! TA.AperFunction,ComponentPad*
%ADD10C,1.600000*%
G04 #@! TD*
G04 #@! TA.AperFunction,ComponentPad*
%ADD11RoundRect,0.250000X-0.625000X0.350000X-0.625000X-0.350000X0.625000X-0.350000X0.625000X0.350000X0*%
G04 #@! TD*
G04 #@! TA.AperFunction,ComponentPad*
%ADD12O,1.750000X1.200000*%
G04 #@! TD*
G04 #@! TA.AperFunction,ComponentPad*
%ADD13RoundRect,0.250000X-0.350000X-0.625000X0.350000X-0.625000X0.350000X0.625000X-0.350000X0.625000X0*%
G04 #@! TD*
G04 #@! TA.AperFunction,ComponentPad*
%ADD14O,1.200000X1.750000*%
G04 #@! TD*
G04 #@! TA.AperFunction,ComponentPad*
%ADD15R,3.000000X3.000000*%
G04 #@! TD*
G04 #@! TA.AperFunction,ComponentPad*
%ADD16C,3.000000*%
G04 #@! TD*
G04 #@! TA.AperFunction,ComponentPad*
%ADD17C,0.700000*%
G04 #@! TD*
G04 #@! TA.AperFunction,ComponentPad*
%ADD18C,4.400000*%
G04 #@! TD*
G04 #@! TA.AperFunction,ViaPad*
%ADD19C,0.600000*%
G04 #@! TD*
G04 #@! TA.AperFunction,Conductor*
%ADD20C,4.000000*%
G04 #@! TD*
G04 #@! TA.AperFunction,Conductor*
%ADD21C,0.200000*%
G04 #@! TD*
G04 APERTURE END LIST*
D10*
G04 #@! TO.P,C15,1*
G04 #@! TO.N,/+VM*
X162918000Y-73660000D03*
G04 #@! TO.P,C15,2*
G04 #@! TO.N,GND*
X162918000Y-68660000D03*
G04 #@! TD*
G04 #@! TO.P,C16,1*
G04 #@! TO.N,/+VM*
X152330000Y-73660000D03*
G04 #@! TO.P,C16,2*
G04 #@! TO.N,GND*
X152330000Y-68660000D03*
G04 #@! TD*
D11*
G04 #@! TO.P,J2,1,Pin_1*
G04 #@! TO.N,/+VCC_IO*
X132715000Y-79883000D03*
D12*
G04 #@! TO.P,J2,2,Pin_2*
G04 #@! TO.N,GND*
X132715000Y-81883000D03*
G04 #@! TD*
D13*
G04 #@! TO.P,J6,1,Pin_1*
G04 #@! TO.N,/ADC_I_w*
X140494000Y-74168000D03*
D14*
G04 #@! TO.P,J6,2,Pin_2*
G04 #@! TO.N,/ADC_I_v*
X142494000Y-74168000D03*
G04 #@! TO.P,J6,3,Pin_3*
G04 #@! TO.N,/ADC_I_u*
X144494000Y-74168000D03*
G04 #@! TD*
D13*
G04 #@! TO.P,J3,1,Pin_1*
G04 #@! TO.N,/WL*
X131880000Y-68580000D03*
D14*
G04 #@! TO.P,J3,2,Pin_2*
G04 #@! TO.N,/WH*
X133880000Y-68580000D03*
G04 #@! TO.P,J3,3,Pin_3*
G04 #@! TO.N,/VL*
X135880000Y-68580000D03*
G04 #@! TO.P,J3,4,Pin_4*
G04 #@! TO.N,/VH*
X137880000Y-68580000D03*
G04 #@! TO.P,J3,5,Pin_5*
G04 #@! TO.N,/UL*
X139880000Y-68580000D03*
G04 #@! TO.P,J3,6,Pin_6*
G04 #@! TO.N,/UH*
X141880000Y-68580000D03*
G04 #@! TD*
D15*
G04 #@! TO.P,U2,1*
G04 #@! TO.N,GND*
X185547000Y-69850000D03*
D16*
G04 #@! TO.P,U2,2*
G04 #@! TO.N,Net-(D6-Pad2)*
X180467000Y-69850000D03*
G04 #@! TD*
D15*
G04 #@! TO.P,U3,1*
G04 #@! TO.N,/W*
X185420000Y-96520000D03*
D16*
G04 #@! TO.P,U3,2*
G04 #@! TO.N,/V*
X185420000Y-91440000D03*
G04 #@! TO.P,U3,3*
G04 #@! TO.N,/U*
X185420000Y-86360000D03*
G04 #@! TD*
D11*
G04 #@! TO.P,J4,1,Pin_1*
G04 #@! TO.N,/+VCC_IO*
X133350000Y-95250000D03*
D12*
G04 #@! TO.P,J4,2,Pin_2*
G04 #@! TO.N,GND*
X133350000Y-97250000D03*
G04 #@! TD*
D13*
G04 #@! TO.P,J1,1,Pin_1*
G04 #@! TO.N,/DRV_EN*
X131880000Y-74110000D03*
D14*
G04 #@! TO.P,J1,2,Pin_2*
G04 #@! TO.N,/TEMP_PCB*
X133880000Y-74110000D03*
G04 #@! TO.P,J1,3,Pin_3*
G04 #@! TO.N,/FAULT*
X135880000Y-74110000D03*
G04 #@! TD*
D17*
G04 #@! TO.P,H201,1,1*
G04 #@! TO.N,GND*
X134873000Y-103251000D03*
D18*
X133223000Y-103251000D03*
D17*
X133223000Y-104901000D03*
X134389726Y-102084274D03*
X131573000Y-103251000D03*
X132056274Y-104417726D03*
X132056274Y-102084274D03*
X134389726Y-104417726D03*
X133223000Y-101601000D03*
G04 #@! TD*
G04 #@! TO.P,H202,1,1*
G04 #@! TO.N,GND*
X134873000Y-88519000D03*
X134389726Y-89685726D03*
D18*
X133223000Y-88519000D03*
D17*
X133223000Y-90169000D03*
X133223000Y-86869000D03*
X132056274Y-87352274D03*
X132056274Y-89685726D03*
X134389726Y-87352274D03*
X131573000Y-88519000D03*
G04 #@! TD*
D19*
G04 #@! TO.N,/+VM*
X159385000Y-87630000D03*
X161925000Y-84963000D03*
X166497000Y-84455000D03*
X161290000Y-87630000D03*
X160655000Y-86106000D03*
X159512000Y-85090000D03*
X164084000Y-84455000D03*
X162560000Y-86360000D03*
X173990000Y-94580000D03*
X168910000Y-98290000D03*
X167640000Y-97790000D03*
X171069000Y-98298000D03*
X169926000Y-97536000D03*
X175006000Y-94580000D03*
X176149000Y-94580000D03*
X166370000Y-98290000D03*
X166497000Y-72390000D03*
X166751000Y-70104000D03*
X164846000Y-71628000D03*
X168275000Y-69088000D03*
X169545000Y-68072000D03*
X157480000Y-74430000D03*
X170180000Y-77978000D03*
X167132000Y-78105000D03*
X160020000Y-74430000D03*
X154940000Y-74430000D03*
X157510000Y-99830000D03*
X171450000Y-78740000D03*
X156440000Y-101100000D03*
X152654000Y-77343000D03*
X161290000Y-73160000D03*
X158750000Y-73160000D03*
X157510000Y-101100000D03*
X155470000Y-101100000D03*
X171577000Y-76962000D03*
X156210000Y-73160000D03*
X168656000Y-77978000D03*
G04 #@! TO.N,GND*
X151470000Y-91540000D03*
X152740000Y-91540000D03*
X154010000Y-91540000D03*
X154010000Y-92810000D03*
X152740000Y-92810000D03*
X151470000Y-92810000D03*
X150200000Y-92810000D03*
X167005000Y-103251000D03*
X151470000Y-89000000D03*
X169545000Y-103251000D03*
X164592000Y-101854000D03*
X162306000Y-93853000D03*
X182753000Y-102870000D03*
X155602000Y-97255000D03*
X133223000Y-78740000D03*
X150200000Y-90270000D03*
X154010000Y-89000000D03*
X167259000Y-75184000D03*
X167386000Y-82550000D03*
X162941000Y-94869000D03*
X150200000Y-89000000D03*
X165608000Y-103251000D03*
X160782000Y-92837000D03*
X168529000Y-82423000D03*
X151470000Y-90270000D03*
X152740000Y-89000000D03*
X163068000Y-93091000D03*
X146812000Y-87757000D03*
X161925000Y-92837000D03*
X145415000Y-82550000D03*
X148844000Y-79756000D03*
X168275000Y-103251000D03*
X144018000Y-82550000D03*
X170815000Y-82804000D03*
X135636000Y-85090000D03*
X171450000Y-83566000D03*
X139065000Y-82169000D03*
X179959000Y-89027000D03*
X170815000Y-103251000D03*
X142748000Y-79502000D03*
X150200000Y-91540000D03*
X166116000Y-82550000D03*
X154010000Y-90270000D03*
X182499000Y-79629000D03*
X153416000Y-81026000D03*
X152740000Y-90270000D03*
G04 #@! TO.N,Net-(C4-Pad1)*
X179760000Y-86360000D03*
X179760000Y-81280000D03*
X173609000Y-85852000D03*
X179800000Y-78740000D03*
X157861000Y-82169000D03*
X181030000Y-77470000D03*
X181030000Y-82550000D03*
X179760000Y-83820000D03*
X181030000Y-80010000D03*
X181030000Y-85090000D03*
G04 #@! TO.N,Net-(C5-Pad2)*
X179470000Y-105410000D03*
X179470000Y-97790000D03*
X179470000Y-102870000D03*
X160020000Y-99060000D03*
X180930000Y-98933000D03*
X157480000Y-94234000D03*
X180930000Y-101981000D03*
X180930000Y-104140000D03*
X162573000Y-101333000D03*
X179470000Y-99949000D03*
X180930000Y-96520000D03*
X173717000Y-103270000D03*
G04 #@! TO.N,Net-(C6-Pad2)*
X161671000Y-97663000D03*
X157480000Y-90297000D03*
G04 #@! TO.N,Net-(C6-Pad1)*
X169100000Y-91070000D03*
X170370000Y-91070000D03*
X167830000Y-91070000D03*
X166560000Y-91070000D03*
X171440000Y-92710000D03*
X171440000Y-88900000D03*
X171440000Y-91440000D03*
X164338000Y-98552000D03*
X157480000Y-91186000D03*
X171440000Y-90170000D03*
G04 #@! TO.N,/W*
X186690000Y-102870000D03*
X186690000Y-105410000D03*
X164084000Y-99822000D03*
X184023000Y-100838000D03*
X186690000Y-100330000D03*
X186690000Y-104140000D03*
X186690000Y-101600000D03*
G04 #@! TO.N,/V*
X162052000Y-96520000D03*
X182880000Y-92710000D03*
X180594000Y-90805000D03*
X178308000Y-91313000D03*
X180594000Y-92329000D03*
X174625000Y-92456000D03*
X182880000Y-90170000D03*
G04 #@! TO.N,/U*
X186690000Y-77470000D03*
X164211000Y-79502000D03*
X186690000Y-78740000D03*
X186690000Y-82550000D03*
X186690000Y-81280000D03*
X186690000Y-80010000D03*
G04 #@! TO.N,Net-(D1-Pad2)*
X147701000Y-68834000D03*
X156591000Y-77978000D03*
G04 #@! TO.N,Net-(D2-Pad2)*
X156464000Y-76835000D03*
X147701000Y-67691000D03*
G04 #@! TO.N,Net-(IC1-Pad3)*
X154686000Y-85471000D03*
X159004000Y-101092000D03*
G04 #@! TO.N,Net-(IC1-Pad4)*
X159639000Y-93726000D03*
X154813000Y-84328000D03*
G04 #@! TO.N,Net-(IC1-Pad5)*
X160528000Y-80518000D03*
X153162000Y-85046736D03*
G04 #@! TO.N,/UH*
X141605000Y-78232000D03*
X145415000Y-87884000D03*
G04 #@! TO.N,/UL*
X145450000Y-89770000D03*
X141478000Y-81661000D03*
G04 #@! TO.N,/VH*
X146484300Y-91567000D03*
X140716000Y-80264000D03*
G04 #@! TO.N,/VL*
X145415000Y-91567000D03*
X139827000Y-81407000D03*
X139700000Y-80264000D03*
G04 #@! TO.N,/WH*
X146050000Y-92837000D03*
X139065000Y-77216000D03*
X138303000Y-77851000D03*
G04 #@! TO.N,/WL*
X146050000Y-93980000D03*
X137922000Y-81407000D03*
G04 #@! TO.N,/DRV_EN*
X136652000Y-80264000D03*
X150360000Y-97536000D03*
G04 #@! TO.N,Net-(IC1-Pad37)*
X177673000Y-94107000D03*
X156337000Y-94361000D03*
G04 #@! TO.N,Net-(IC1-Pad39)*
X160020000Y-97790000D03*
X157680000Y-93164000D03*
G04 #@! TO.N,Net-(IC1-Pad43)*
X160274000Y-81915000D03*
X156400500Y-85788500D03*
G04 #@! TO.N,Net-(IC1-Pad46)*
X160528000Y-79629000D03*
G04 #@! TO.N,Net-(IC1-Pad48)*
X156337000Y-87249000D03*
X158877000Y-81661000D03*
G04 #@! TO.N,Net-(Q1-Pad4)*
X164211000Y-78232000D03*
X178308000Y-76962000D03*
G04 #@! TO.N,Net-(Q2-Pad4)*
X171464000Y-86854000D03*
X164222500Y-81522500D03*
G04 #@! TO.N,Net-(Q5-Pad4)*
X164211000Y-82423000D03*
X169164000Y-84455000D03*
G04 #@! TO.N,/+VCC_IO*
X151765000Y-81280000D03*
X148075751Y-87001249D03*
G04 #@! TO.N,/TEMP_PCB*
X146939000Y-77724000D03*
G04 #@! TO.N,/FAULT*
X133858000Y-78232000D03*
X160147000Y-76835000D03*
X133477000Y-77470000D03*
X149860000Y-96393000D03*
G04 #@! TD*
D20*
G04 #@! TO.N,/+VM*
X152400000Y-73660000D02*
X163830000Y-73660000D01*
D21*
G04 #@! TO.N,Net-(C4-Pad1)*
X157861000Y-81788998D02*
X157861000Y-82169000D01*
X167916501Y-80922499D02*
X163425501Y-80922499D01*
X172285998Y-85852000D02*
X169129001Y-82695003D01*
X169129001Y-82695003D02*
X169129001Y-82134999D01*
X159604001Y-81314999D02*
X159350001Y-81060999D01*
X159350001Y-81060999D02*
X158588999Y-81060999D01*
X173609000Y-85852000D02*
X172285998Y-85852000D01*
X163425501Y-80922499D02*
X163033001Y-81314999D01*
X163033001Y-81314999D02*
X159604001Y-81314999D01*
X169129001Y-82134999D02*
X167916501Y-80922499D01*
X158588999Y-81060999D02*
X157861000Y-81788998D01*
G04 #@! TO.N,Net-(C5-Pad2)*
X171519302Y-104521000D02*
X173149002Y-104521000D01*
X170649312Y-105390990D02*
X171519302Y-104521000D01*
X162573000Y-103391000D02*
X164572990Y-105390990D01*
X157580000Y-94334000D02*
X157480000Y-94234000D01*
X173717000Y-103953002D02*
X173717000Y-103270000D01*
X157580000Y-96620000D02*
X157580000Y-94334000D01*
X164572990Y-105390990D02*
X170649312Y-105390990D01*
X173149002Y-104521000D02*
X173717000Y-103953002D01*
X157580000Y-96620000D02*
X160020000Y-99060000D01*
X162573000Y-101333000D02*
X162573000Y-103391000D01*
G04 #@! TO.N,Net-(C6-Pad2)*
X161671000Y-97155000D02*
X161671000Y-97663000D01*
X159038999Y-94522999D02*
X161671000Y-97155000D01*
X159038999Y-91855999D02*
X159038999Y-94522999D01*
X157480000Y-90297000D02*
X159038999Y-91855999D01*
G04 #@! TO.N,Net-(C6-Pad1)*
X158580011Y-92286011D02*
X157480000Y-91186000D01*
X158580011Y-95460013D02*
X158580011Y-92286011D01*
X164338000Y-98552000D02*
X161671998Y-98552000D01*
X161671998Y-98552000D02*
X158580011Y-95460013D01*
G04 #@! TO.N,/W*
X165192001Y-100930001D02*
X164084000Y-99822000D01*
X183930999Y-100930001D02*
X165192001Y-100930001D01*
X184023000Y-100838000D02*
X183930999Y-100930001D01*
G04 #@! TO.N,/V*
X174625000Y-92456000D02*
X170561000Y-96520000D01*
X162052000Y-96520000D02*
X170561000Y-96520000D01*
G04 #@! TO.N,/U*
X186690000Y-77470000D02*
X185581999Y-76361999D01*
X163610999Y-78901999D02*
X164211000Y-79502000D01*
X163610999Y-77943999D02*
X163610999Y-78901999D01*
X185581999Y-76361999D02*
X165192999Y-76361999D01*
X165192999Y-76361999D02*
X163610999Y-77943999D01*
G04 #@! TO.N,Net-(D1-Pad2)*
X151349001Y-76673001D02*
X147701000Y-73025000D01*
X147701000Y-73025000D02*
X147701000Y-68834000D01*
X156591000Y-77978000D02*
X156590002Y-77978000D01*
X156590002Y-77978000D02*
X155285003Y-76673001D01*
X155285003Y-76673001D02*
X151349001Y-76673001D01*
G04 #@! TO.N,Net-(D2-Pad2)*
X155901991Y-76272991D02*
X151760286Y-76272991D01*
X148301001Y-72813706D02*
X148301001Y-68291001D01*
X148301001Y-68291001D02*
X147701000Y-67691000D01*
X156464000Y-76835000D02*
X155901991Y-76272991D01*
X151760286Y-76272991D02*
X148301001Y-72813706D01*
G04 #@! TO.N,Net-(IC1-Pad3)*
X154686000Y-95179700D02*
X154686000Y-85471000D01*
X159004000Y-101092000D02*
X159004000Y-99497700D01*
X159004000Y-99497700D02*
X154686000Y-95179700D01*
G04 #@! TO.N,Net-(IC1-Pad4)*
X159639000Y-93726000D02*
X159639000Y-91439002D01*
X155286001Y-87086003D02*
X159639000Y-91439002D01*
X155286001Y-84801001D02*
X154813000Y-84328000D01*
X155286001Y-87086003D02*
X155286001Y-84801001D01*
G04 #@! TO.N,Net-(IC1-Pad5)*
X153162000Y-85046736D02*
X157690736Y-80518000D01*
X157690736Y-80518000D02*
X160528000Y-80518000D01*
G04 #@! TO.N,/UH*
X142367000Y-80390002D02*
X142367000Y-84836000D01*
X141605000Y-78232000D02*
X141605000Y-79628002D01*
X141605000Y-79628002D02*
X142367000Y-80390002D01*
X145415000Y-87884000D02*
X142367000Y-84836000D01*
G04 #@! TO.N,/UL*
X141732000Y-86052000D02*
X141759000Y-86079000D01*
X141478000Y-82550000D02*
X141732000Y-82804000D01*
X141732000Y-82804000D02*
X141732000Y-86052000D01*
X141478000Y-81661000D02*
X141478000Y-82550000D01*
X145450000Y-89770000D02*
X141759000Y-86079000D01*
G04 #@! TO.N,/VH*
X140716000Y-85921700D02*
X146484300Y-91690000D01*
X146484300Y-91690000D02*
X146300000Y-91690000D01*
X140716000Y-80391000D02*
X140716000Y-85921700D01*
X146300000Y-91690000D02*
X146300000Y-91571998D01*
G04 #@! TO.N,/VL*
X139700000Y-75816496D02*
X139700000Y-80264000D01*
X139827000Y-85979000D02*
X145415000Y-91567000D01*
X135880000Y-71996496D02*
X139700000Y-75816496D01*
X135880000Y-68580000D02*
X135880000Y-71996496D01*
X139827000Y-81407000D02*
X139827000Y-85979000D01*
G04 #@! TO.N,/WH*
X138464999Y-81752003D02*
X138464999Y-85676263D01*
X138464999Y-85676263D02*
X145625736Y-92837000D01*
X133880000Y-70562194D02*
X139065000Y-75747194D01*
X133880000Y-70562194D02*
X133880000Y-68580000D01*
X138602999Y-78150999D02*
X138602999Y-81614003D01*
X138303000Y-77851000D02*
X138602999Y-78150999D01*
X145625736Y-92837000D02*
X146050000Y-92837000D01*
X138602999Y-81614003D02*
X138464999Y-81752003D01*
X139065000Y-77216000D02*
X139065000Y-75747194D01*
G04 #@! TO.N,/WL*
X137922000Y-85852000D02*
X146050000Y-93980000D01*
X137922000Y-81407000D02*
X137922000Y-85852000D01*
G04 #@! TO.N,/DRV_EN*
X136652000Y-88282002D02*
X144889998Y-96520000D01*
X148209000Y-96520000D02*
X149225000Y-97536000D01*
X150360000Y-97536000D02*
X149225000Y-97536000D01*
X144889998Y-96520000D02*
X148209000Y-96520000D01*
X136652000Y-80264000D02*
X136652000Y-88282002D01*
G04 #@! TO.N,Net-(IC1-Pad37)*
X177673000Y-94531264D02*
X177673000Y-94107000D01*
X159731999Y-99660001D02*
X160308001Y-99660001D01*
X160308001Y-99660001D02*
X160746003Y-99221999D01*
X156337000Y-94361000D02*
X156337000Y-96265002D01*
X160746003Y-99221999D02*
X172982265Y-99221999D01*
X156337000Y-96265002D02*
X159731999Y-99660001D01*
X172982265Y-99221999D02*
X177673000Y-94531264D01*
G04 #@! TO.N,Net-(IC1-Pad39)*
X158180001Y-96654303D02*
X158180001Y-93664001D01*
X158180001Y-96654303D02*
X159315698Y-97790000D01*
X158180001Y-93664001D02*
X157680000Y-93164000D01*
X159315698Y-97790000D02*
X160020000Y-97790000D01*
G04 #@! TO.N,Net-(IC1-Pad43)*
X156400500Y-85788500D02*
X160274000Y-81915000D01*
G04 #@! TO.N,Net-(IC1-Pad48)*
X155800499Y-85161765D02*
X155800499Y-86712499D01*
X158877000Y-81661000D02*
X158877000Y-82085264D01*
X155800499Y-86712499D02*
X156337000Y-87249000D01*
X158877000Y-82085264D02*
X155800499Y-85161765D01*
G04 #@! TO.N,Net-(Q1-Pad4)*
X171288999Y-77562001D02*
X177707999Y-77562001D01*
X177707999Y-77562001D02*
X178308000Y-76962000D01*
X164211000Y-78232000D02*
X165573001Y-76869999D01*
X170596997Y-76869999D02*
X171288999Y-77562001D01*
X165573001Y-76869999D02*
X170596997Y-76869999D01*
G04 #@! TO.N,Net-(Q2-Pad4)*
X169132002Y-83312000D02*
X166012000Y-83312000D01*
X171464000Y-86854000D02*
X171464000Y-85643998D01*
X171464000Y-85643998D02*
X169132002Y-83312000D01*
X166012000Y-83312000D02*
X164222500Y-81522500D01*
G04 #@! TO.N,Net-(Q5-Pad4)*
X164211000Y-82423000D02*
X165507999Y-83719999D01*
X168883001Y-83719999D02*
X169164000Y-84000998D01*
X169164000Y-84000998D02*
X169164000Y-84455000D01*
X165507999Y-83719999D02*
X168883001Y-83719999D01*
G04 #@! TO.N,/+VCC_IO*
X151892000Y-81407000D02*
X151892000Y-87884000D01*
X151892000Y-87884000D02*
X148958502Y-87884000D01*
X148958502Y-87884000D02*
X148075751Y-87001249D01*
X151892000Y-81407000D02*
X151765000Y-81280000D01*
G04 #@! TO.N,/FAULT*
X152292010Y-83673990D02*
X159131000Y-76835000D01*
X135508002Y-78232000D02*
X137252001Y-79975999D01*
X149560001Y-96093001D02*
X147274999Y-96093001D01*
X149560001Y-88751997D02*
X150027988Y-88284010D01*
X135821000Y-74110000D02*
X133477000Y-76454000D01*
X135880000Y-74110000D02*
X135821000Y-74110000D01*
X152057689Y-88284010D02*
X152292010Y-88049689D01*
X152292010Y-88049689D02*
X152292010Y-83673990D01*
X137252001Y-86070003D02*
X137252001Y-79975999D01*
X149860000Y-96393000D02*
X149560001Y-96093001D01*
X149560001Y-96093001D02*
X149560001Y-88751997D01*
X147274999Y-96093001D02*
X137252001Y-86070003D01*
X133858000Y-78232000D02*
X135508002Y-78232000D01*
X159131000Y-76835000D02*
X160147000Y-76835000D01*
X150027988Y-88284010D02*
X152057689Y-88284010D01*
X133477000Y-76454000D02*
X133477000Y-77470000D01*
G04 #@! TD*
G04 #@! TA.AperFunction,Conductor*
G04 #@! TO.N,Net-(C6-Pad1)*
G36*
X170805793Y-86361551D02*
G01*
X170899895Y-86376455D01*
X170937389Y-86388638D01*
X170983737Y-86412254D01*
X171035352Y-86461002D01*
X171052417Y-86529917D01*
X171040588Y-86578068D01*
X170980447Y-86706163D01*
X170958391Y-86847823D01*
X170976980Y-86989979D01*
X171034720Y-87121203D01*
X171126970Y-87230948D01*
X171246313Y-87310390D01*
X171383157Y-87353142D01*
X171392129Y-87353306D01*
X171392132Y-87353307D01*
X171457463Y-87354504D01*
X171526499Y-87355770D01*
X171625687Y-87328728D01*
X171696670Y-87330108D01*
X171755639Y-87369645D01*
X171763594Y-87380289D01*
X171792908Y-87424160D01*
X171811722Y-87469581D01*
X171828579Y-87554329D01*
X171831000Y-87578910D01*
X171831000Y-88900000D01*
X173199083Y-88900000D01*
X173218793Y-88901551D01*
X173312895Y-88916455D01*
X173350388Y-88928637D01*
X173426335Y-88967334D01*
X173458227Y-88990506D01*
X173518494Y-89050773D01*
X173541666Y-89082665D01*
X173580363Y-89158612D01*
X173592545Y-89196105D01*
X173607449Y-89290207D01*
X173609000Y-89309917D01*
X173609000Y-92994839D01*
X173588998Y-93062960D01*
X173572095Y-93083934D01*
X173093934Y-93562095D01*
X173031622Y-93596121D01*
X173004839Y-93599000D01*
X171323000Y-93599000D01*
X171323000Y-95280839D01*
X171302998Y-95348960D01*
X171286095Y-95369934D01*
X170553934Y-96102095D01*
X170491622Y-96136121D01*
X170464839Y-96139000D01*
X166144917Y-96139000D01*
X166125207Y-96137449D01*
X166031105Y-96122545D01*
X165993612Y-96110363D01*
X165917665Y-96071666D01*
X165885773Y-96048494D01*
X165825506Y-95988227D01*
X165802334Y-95956335D01*
X165763637Y-95880388D01*
X165751455Y-95842895D01*
X165736551Y-95748793D01*
X165735000Y-95729083D01*
X165735000Y-90960917D01*
X165736551Y-90941207D01*
X165751455Y-90847105D01*
X165763637Y-90809612D01*
X165802334Y-90733665D01*
X165825506Y-90701773D01*
X165885773Y-90641506D01*
X165917665Y-90618334D01*
X165993612Y-90579637D01*
X166031105Y-90567455D01*
X166125207Y-90552551D01*
X166144917Y-90551000D01*
X169545000Y-90551000D01*
X169545000Y-86769917D01*
X169546551Y-86750207D01*
X169561455Y-86656105D01*
X169573637Y-86618612D01*
X169612334Y-86542665D01*
X169635506Y-86510773D01*
X169695773Y-86450506D01*
X169727665Y-86427334D01*
X169803612Y-86388637D01*
X169841105Y-86376455D01*
X169935207Y-86361551D01*
X169954917Y-86360000D01*
X170786083Y-86360000D01*
X170805793Y-86361551D01*
G37*
G04 #@! TD.AperFunction*
G04 #@! TD*
G04 #@! TA.AperFunction,Conductor*
G04 #@! TO.N,/+VM*
G36*
X165198960Y-83840002D02*
G01*
X165219934Y-83856905D01*
X165258480Y-83895451D01*
X165260236Y-83897485D01*
X165262574Y-83902268D01*
X165271103Y-83910180D01*
X165271104Y-83910181D01*
X165298476Y-83935572D01*
X165301881Y-83938852D01*
X165315276Y-83952247D01*
X165319246Y-83954971D01*
X165321894Y-83957296D01*
X165344645Y-83978400D01*
X165355452Y-83982712D01*
X165359437Y-83985231D01*
X165370246Y-83991003D01*
X165374551Y-83992910D01*
X165384145Y-83999492D01*
X165408098Y-84005176D01*
X165408135Y-84005185D01*
X165425731Y-84010750D01*
X165448621Y-84019882D01*
X165454914Y-84020499D01*
X165457996Y-84020499D01*
X165461066Y-84020649D01*
X165461055Y-84020865D01*
X165472430Y-84022197D01*
X165481744Y-84022652D01*
X165493065Y-84025339D01*
X165504594Y-84023770D01*
X165504595Y-84023770D01*
X165520172Y-84021650D01*
X165537163Y-84020499D01*
X168616683Y-84020499D01*
X168684804Y-84040501D01*
X168731297Y-84094157D01*
X168741401Y-84164431D01*
X168730738Y-84200048D01*
X168680447Y-84307163D01*
X168658391Y-84448823D01*
X168676980Y-84590979D01*
X168734720Y-84722203D01*
X168826970Y-84831948D01*
X168946313Y-84911390D01*
X169083157Y-84954142D01*
X169092133Y-84954307D01*
X169094148Y-84954633D01*
X169158194Y-84985271D01*
X169195509Y-85045670D01*
X169200000Y-85079012D01*
X169200000Y-89760083D01*
X169198449Y-89779793D01*
X169183545Y-89873895D01*
X169171363Y-89911388D01*
X169132666Y-89987335D01*
X169109494Y-90019227D01*
X169049227Y-90079494D01*
X169017335Y-90102666D01*
X168941388Y-90141363D01*
X168903895Y-90153545D01*
X168809793Y-90168449D01*
X168790083Y-90170000D01*
X158847159Y-90170000D01*
X158779038Y-90149998D01*
X158758064Y-90133095D01*
X157516905Y-88891936D01*
X157482879Y-88829624D01*
X157480000Y-88802841D01*
X157480000Y-85186161D01*
X157500002Y-85118040D01*
X157516905Y-85097066D01*
X158757067Y-83856905D01*
X158819379Y-83822879D01*
X158846162Y-83820000D01*
X165130839Y-83820000D01*
X165198960Y-83840002D01*
G37*
G04 #@! TD.AperFunction*
G04 #@! TD*
G04 #@! TA.AperFunction,Conductor*
G04 #@! TO.N,/+VM*
G36*
X176232758Y-93958320D02*
G01*
X176764534Y-93970687D01*
X176783916Y-93972644D01*
X176876316Y-93989268D01*
X176913027Y-94001956D01*
X176987238Y-94041302D01*
X177018341Y-94064569D01*
X177039468Y-94086193D01*
X177077043Y-94124653D01*
X177099579Y-94156284D01*
X177137192Y-94231394D01*
X177149023Y-94268392D01*
X177163494Y-94361153D01*
X177165000Y-94380574D01*
X177165000Y-94562103D01*
X177144998Y-94630224D01*
X177128095Y-94651198D01*
X172894699Y-98884594D01*
X172832387Y-98918620D01*
X172805604Y-98921499D01*
X165226000Y-98921499D01*
X165157879Y-98901497D01*
X165111386Y-98847841D01*
X165100000Y-98795499D01*
X165100000Y-97176175D01*
X165101514Y-97156703D01*
X165116060Y-97063709D01*
X165127949Y-97026631D01*
X165165750Y-96951370D01*
X165188392Y-96919697D01*
X165247373Y-96859572D01*
X165278628Y-96836315D01*
X165281129Y-96834998D01*
X165339807Y-96820500D01*
X170508634Y-96820500D01*
X170511307Y-96820696D01*
X170516342Y-96822425D01*
X170527964Y-96821989D01*
X170527966Y-96821989D01*
X170565255Y-96820589D01*
X170569981Y-96820500D01*
X170588948Y-96820500D01*
X170593683Y-96819618D01*
X170597209Y-96819390D01*
X170600949Y-96819249D01*
X170628208Y-96818226D01*
X170638893Y-96813636D01*
X170643493Y-96812599D01*
X170655214Y-96809038D01*
X170659617Y-96807339D01*
X170671053Y-96805209D01*
X170692041Y-96792272D01*
X170708411Y-96783769D01*
X170722888Y-96777549D01*
X170722892Y-96777547D01*
X170731063Y-96774036D01*
X170735949Y-96770022D01*
X170738134Y-96767837D01*
X170740397Y-96765785D01*
X170740542Y-96765945D01*
X170749549Y-96758825D01*
X170756444Y-96752573D01*
X170766348Y-96746468D01*
X170782916Y-96724680D01*
X170794110Y-96711861D01*
X170806496Y-96699475D01*
X170868808Y-96665449D01*
X170893168Y-96662593D01*
X170959350Y-96661320D01*
X171704000Y-96647000D01*
X171704000Y-95854161D01*
X171724002Y-95786040D01*
X171740905Y-95765066D01*
X173570552Y-93935419D01*
X173632864Y-93901393D01*
X173662571Y-93898548D01*
X176232758Y-93958320D01*
G37*
G04 #@! TD.AperFunction*
G04 #@! TD*
G04 #@! TA.AperFunction,Conductor*
G04 #@! TO.N,GND*
G36*
X169021963Y-66949002D02*
G01*
X169068456Y-67002658D01*
X169078560Y-67072932D01*
X169049066Y-67137512D01*
X169007963Y-67168784D01*
X168957208Y-67192925D01*
X168957164Y-67192947D01*
X168956119Y-67193444D01*
X168943002Y-67200289D01*
X168926830Y-67209505D01*
X168914254Y-67217302D01*
X168913312Y-67217935D01*
X168913308Y-67217938D01*
X164480264Y-70198778D01*
X162637231Y-71438060D01*
X162566923Y-71459500D01*
X152325849Y-71459500D01*
X152323757Y-71459639D01*
X152323755Y-71459639D01*
X152264811Y-71463554D01*
X152108318Y-71473948D01*
X152104224Y-71474773D01*
X152104220Y-71474774D01*
X151966905Y-71502462D01*
X151821761Y-71531728D01*
X151545363Y-71626900D01*
X151541630Y-71628769D01*
X151541626Y-71628771D01*
X151287724Y-71755916D01*
X151283980Y-71757791D01*
X151280515Y-71760146D01*
X151061586Y-71908930D01*
X151042205Y-71922101D01*
X150824284Y-72116945D01*
X150634047Y-72338898D01*
X150474836Y-72584062D01*
X150349448Y-72848129D01*
X150260086Y-73126459D01*
X150244660Y-73212190D01*
X150211120Y-73398599D01*
X150208319Y-73414164D01*
X150202653Y-73538951D01*
X150198112Y-73638961D01*
X150195059Y-73706187D01*
X150195422Y-73710335D01*
X150195422Y-73710340D01*
X150196401Y-73721527D01*
X150218773Y-73977241D01*
X150220170Y-73993211D01*
X150206181Y-74062815D01*
X150156781Y-74113808D01*
X150087655Y-74129998D01*
X150020750Y-74106245D01*
X150005554Y-74093287D01*
X148638406Y-72726140D01*
X148604381Y-72663828D01*
X148601501Y-72637045D01*
X148601501Y-68343373D01*
X148601698Y-68340696D01*
X148603427Y-68335659D01*
X148601590Y-68286730D01*
X148601501Y-68282004D01*
X148601501Y-68263053D01*
X148600619Y-68258320D01*
X148600391Y-68254793D01*
X148599664Y-68235421D01*
X148599663Y-68235419D01*
X148599227Y-68223793D01*
X148594633Y-68213101D01*
X148593596Y-68208498D01*
X148590039Y-68196788D01*
X148588340Y-68192385D01*
X148586210Y-68180948D01*
X148580107Y-68171047D01*
X148580106Y-68171044D01*
X148573272Y-68159957D01*
X148564768Y-68143586D01*
X148558547Y-68129107D01*
X148558545Y-68129104D01*
X148555037Y-68120939D01*
X148551024Y-68116052D01*
X148548829Y-68113857D01*
X148546771Y-68111587D01*
X148546933Y-68111440D01*
X148539836Y-68102462D01*
X148533572Y-68095554D01*
X148527469Y-68085653D01*
X148518210Y-68078613D01*
X148518209Y-68078611D01*
X148505693Y-68069094D01*
X148492865Y-68057893D01*
X148242204Y-67807232D01*
X148208178Y-67744920D01*
X148205830Y-67707312D01*
X148206496Y-67703354D01*
X148206647Y-67691000D01*
X148190889Y-67580963D01*
X148187596Y-67557968D01*
X148187595Y-67557965D01*
X148186323Y-67549082D01*
X148126984Y-67418572D01*
X148091356Y-67377224D01*
X148039260Y-67316763D01*
X148039257Y-67316760D01*
X148033400Y-67309963D01*
X147913095Y-67231985D01*
X147775739Y-67190907D01*
X147766763Y-67190852D01*
X147766762Y-67190852D01*
X147706555Y-67190484D01*
X147632376Y-67190031D01*
X147494529Y-67229428D01*
X147373280Y-67305930D01*
X147367338Y-67312658D01*
X147367337Y-67312659D01*
X147325828Y-67359659D01*
X147278377Y-67413388D01*
X147217447Y-67543163D01*
X147211930Y-67578598D01*
X147197167Y-67673418D01*
X147195391Y-67684823D01*
X147196555Y-67693725D01*
X147196555Y-67693728D01*
X147204005Y-67750699D01*
X147213980Y-67826979D01*
X147217597Y-67835199D01*
X147264103Y-67940891D01*
X147271720Y-67958203D01*
X147363970Y-68067948D01*
X147371447Y-68072925D01*
X147443577Y-68120939D01*
X147483313Y-68147390D01*
X147489897Y-68149447D01*
X147541993Y-68196129D01*
X147560858Y-68264573D01*
X147539724Y-68332351D01*
X147493759Y-68371207D01*
X147494529Y-68372428D01*
X147373280Y-68448930D01*
X147278377Y-68556388D01*
X147217447Y-68686163D01*
X147195391Y-68827823D01*
X147213980Y-68969979D01*
X147271720Y-69101203D01*
X147277497Y-69108076D01*
X147277498Y-69108077D01*
X147284043Y-69115863D01*
X147358689Y-69204665D01*
X147363970Y-69210948D01*
X147363063Y-69211710D01*
X147395934Y-69264653D01*
X147400500Y-69298265D01*
X147400500Y-72972634D01*
X147400304Y-72975307D01*
X147398575Y-72980342D01*
X147399011Y-72991964D01*
X147399011Y-72991966D01*
X147400411Y-73029255D01*
X147400500Y-73033981D01*
X147400500Y-73052948D01*
X147401382Y-73057683D01*
X147401610Y-73061209D01*
X147402774Y-73092208D01*
X147407364Y-73102893D01*
X147408401Y-73107493D01*
X147411962Y-73119214D01*
X147413661Y-73123617D01*
X147415791Y-73135053D01*
X147428727Y-73156039D01*
X147437231Y-73172411D01*
X147443451Y-73186888D01*
X147443453Y-73186892D01*
X147446964Y-73195063D01*
X147450978Y-73199949D01*
X147453163Y-73202134D01*
X147455215Y-73204397D01*
X147455055Y-73204542D01*
X147462175Y-73213549D01*
X147468427Y-73220444D01*
X147474532Y-73230348D01*
X147496320Y-73246916D01*
X147509139Y-73258110D01*
X151099482Y-76848453D01*
X151101238Y-76850487D01*
X151103576Y-76855270D01*
X151112105Y-76863182D01*
X151112106Y-76863183D01*
X151139478Y-76888574D01*
X151142883Y-76891854D01*
X151156277Y-76905248D01*
X151160246Y-76907970D01*
X151162890Y-76910292D01*
X151177116Y-76923489D01*
X151177119Y-76923491D01*
X151185647Y-76931402D01*
X151196454Y-76935714D01*
X151200444Y-76938236D01*
X151211228Y-76943995D01*
X151215553Y-76945912D01*
X151225147Y-76952493D01*
X151236466Y-76955179D01*
X151236468Y-76955180D01*
X151249128Y-76958184D01*
X151266725Y-76963749D01*
X151281363Y-76969589D01*
X151281366Y-76969590D01*
X151289623Y-76972884D01*
X151295916Y-76973501D01*
X151298995Y-76973501D01*
X151302068Y-76973651D01*
X151302057Y-76973867D01*
X151313432Y-76975199D01*
X151322747Y-76975655D01*
X151334067Y-76978341D01*
X151345596Y-76976772D01*
X151345597Y-76976772D01*
X151361174Y-76974652D01*
X151378165Y-76973501D01*
X152076164Y-76973501D01*
X152144285Y-76993503D01*
X152190778Y-77047159D01*
X152200882Y-77117433D01*
X152190219Y-77153050D01*
X152170447Y-77195163D01*
X152162819Y-77244157D01*
X152150674Y-77322163D01*
X152148391Y-77336823D01*
X152149555Y-77345725D01*
X152149555Y-77345728D01*
X152154562Y-77384018D01*
X152166980Y-77478979D01*
X152184583Y-77518985D01*
X152212097Y-77581514D01*
X152224720Y-77610203D01*
X152230497Y-77617076D01*
X152230498Y-77617077D01*
X152307725Y-77708950D01*
X152316970Y-77719948D01*
X152328006Y-77727294D01*
X152426804Y-77793060D01*
X152436313Y-77799390D01*
X152573157Y-77842142D01*
X152582129Y-77842306D01*
X152582132Y-77842307D01*
X152647463Y-77843504D01*
X152716499Y-77844770D01*
X152725533Y-77842307D01*
X152846158Y-77809421D01*
X152846160Y-77809420D01*
X152854817Y-77807060D01*
X152976991Y-77732045D01*
X153003134Y-77703163D01*
X153067178Y-77632407D01*
X153073200Y-77625754D01*
X153135710Y-77496733D01*
X153159496Y-77355354D01*
X153159647Y-77343000D01*
X153151473Y-77285924D01*
X153140596Y-77209968D01*
X153140595Y-77209965D01*
X153139323Y-77201082D01*
X153135609Y-77192913D01*
X153135608Y-77192910D01*
X153116849Y-77151651D01*
X153106863Y-77081361D01*
X153136464Y-77016829D01*
X153196254Y-76978546D01*
X153231550Y-76973501D01*
X155108341Y-76973501D01*
X155176462Y-76993503D01*
X155197437Y-77010406D01*
X156050039Y-77863009D01*
X156084064Y-77925321D01*
X156084919Y-77953952D01*
X156086882Y-77953976D01*
X156086772Y-77962951D01*
X156085391Y-77971823D01*
X156086555Y-77980725D01*
X156086555Y-77980728D01*
X156091685Y-78019955D01*
X156103980Y-78113979D01*
X156107597Y-78122199D01*
X156158049Y-78236859D01*
X156161720Y-78245203D01*
X156167497Y-78252076D01*
X156167498Y-78252077D01*
X156209810Y-78302413D01*
X156253970Y-78354948D01*
X156373313Y-78434390D01*
X156510157Y-78477142D01*
X156519129Y-78477306D01*
X156519132Y-78477307D01*
X156584463Y-78478504D01*
X156653499Y-78479770D01*
X156663139Y-78477142D01*
X156756425Y-78451709D01*
X156827408Y-78453089D01*
X156886377Y-78492626D01*
X156914609Y-78557767D01*
X156903142Y-78627832D01*
X156878662Y-78662367D01*
X152407595Y-83133434D01*
X152345283Y-83167460D01*
X152274468Y-83162395D01*
X152217632Y-83119848D01*
X152192821Y-83053328D01*
X152192500Y-83044339D01*
X152192500Y-81574538D01*
X152205108Y-81519600D01*
X152242795Y-81441814D01*
X152242795Y-81441813D01*
X152246710Y-81433733D01*
X152270496Y-81292354D01*
X152270647Y-81280000D01*
X152256790Y-81183241D01*
X152251596Y-81146968D01*
X152251595Y-81146965D01*
X152250323Y-81138082D01*
X152190984Y-81007572D01*
X152165153Y-80977594D01*
X152103260Y-80905763D01*
X152103257Y-80905760D01*
X152097400Y-80898963D01*
X151977095Y-80820985D01*
X151839739Y-80779907D01*
X151830763Y-80779852D01*
X151830762Y-80779852D01*
X151770555Y-80779484D01*
X151696376Y-80779031D01*
X151558529Y-80818428D01*
X151437280Y-80894930D01*
X151342377Y-81002388D01*
X151281447Y-81132163D01*
X151276980Y-81160852D01*
X151261674Y-81259163D01*
X151259391Y-81273823D01*
X151260555Y-81282725D01*
X151260555Y-81282728D01*
X151265452Y-81320173D01*
X151277980Y-81415979D01*
X151335720Y-81547203D01*
X151341497Y-81554076D01*
X151341498Y-81554077D01*
X151422190Y-81650072D01*
X151427970Y-81656948D01*
X151477253Y-81689754D01*
X151535319Y-81728406D01*
X151580942Y-81782804D01*
X151591500Y-81833293D01*
X151591500Y-87457500D01*
X151571498Y-87525621D01*
X151517842Y-87572114D01*
X151465500Y-87583500D01*
X149135163Y-87583500D01*
X149067042Y-87563498D01*
X149046068Y-87546595D01*
X148616955Y-87117482D01*
X148582929Y-87055170D01*
X148580581Y-87017562D01*
X148581247Y-87013603D01*
X148581398Y-87001249D01*
X148563284Y-86874763D01*
X148562347Y-86868217D01*
X148562346Y-86868214D01*
X148561074Y-86859331D01*
X148556461Y-86849184D01*
X148529544Y-86789985D01*
X148501735Y-86728821D01*
X148480273Y-86703913D01*
X148414011Y-86627012D01*
X148414008Y-86627009D01*
X148408151Y-86620212D01*
X148287846Y-86542234D01*
X148150490Y-86501156D01*
X148141514Y-86501101D01*
X148141513Y-86501101D01*
X148081306Y-86500733D01*
X148007127Y-86500280D01*
X147869280Y-86539677D01*
X147748031Y-86616179D01*
X147653128Y-86723637D01*
X147592198Y-86853412D01*
X147588874Y-86874763D01*
X147571750Y-86984746D01*
X147570142Y-86995072D01*
X147571306Y-87003974D01*
X147571306Y-87003977D01*
X147572565Y-87013603D01*
X147588731Y-87137228D01*
X147592348Y-87145448D01*
X147638315Y-87249915D01*
X147646471Y-87268452D01*
X147652248Y-87275325D01*
X147652249Y-87275326D01*
X147711992Y-87346399D01*
X147738721Y-87378197D01*
X147747299Y-87383907D01*
X147842896Y-87447542D01*
X147858064Y-87457639D01*
X147994908Y-87500391D01*
X148003880Y-87500555D01*
X148003883Y-87500556D01*
X148083242Y-87502010D01*
X148101984Y-87502354D01*
X148169726Y-87523601D01*
X148188769Y-87539238D01*
X148708983Y-88059452D01*
X148710739Y-88061486D01*
X148713077Y-88066269D01*
X148721606Y-88074181D01*
X148721607Y-88074182D01*
X148748979Y-88099573D01*
X148752384Y-88102853D01*
X148765778Y-88116247D01*
X148769747Y-88118969D01*
X148772391Y-88121291D01*
X148786617Y-88134488D01*
X148786620Y-88134490D01*
X148795148Y-88142401D01*
X148805955Y-88146713D01*
X148809945Y-88149235D01*
X148820729Y-88154994D01*
X148825054Y-88156911D01*
X148834648Y-88163492D01*
X148845967Y-88166178D01*
X148845969Y-88166179D01*
X148858629Y-88169183D01*
X148876226Y-88174748D01*
X148890864Y-88180588D01*
X148890867Y-88180589D01*
X148899124Y-88183883D01*
X148905417Y-88184500D01*
X148908496Y-88184500D01*
X148911569Y-88184650D01*
X148911558Y-88184866D01*
X148922933Y-88186198D01*
X148932248Y-88186654D01*
X148943568Y-88189340D01*
X148955097Y-88187771D01*
X148955098Y-88187771D01*
X148970675Y-88185651D01*
X148987666Y-88184500D01*
X149398336Y-88184500D01*
X149466457Y-88204502D01*
X149512950Y-88258158D01*
X149523054Y-88328432D01*
X149493560Y-88393012D01*
X149487431Y-88399595D01*
X149384545Y-88502481D01*
X149382514Y-88504235D01*
X149377732Y-88506572D01*
X149369820Y-88515101D01*
X149369819Y-88515102D01*
X149344428Y-88542474D01*
X149341148Y-88545879D01*
X149327753Y-88559274D01*
X149325029Y-88563244D01*
X149322704Y-88565892D01*
X149309509Y-88580116D01*
X149309507Y-88580119D01*
X149301600Y-88588643D01*
X149297290Y-88599447D01*
X149294768Y-88603436D01*
X149289007Y-88614224D01*
X149287090Y-88618549D01*
X149280509Y-88628143D01*
X149277823Y-88639462D01*
X149277822Y-88639464D01*
X149274818Y-88652124D01*
X149269253Y-88669721D01*
X149260118Y-88692619D01*
X149259501Y-88698912D01*
X149259501Y-88701991D01*
X149259351Y-88705064D01*
X149259135Y-88705053D01*
X149257803Y-88716428D01*
X149257347Y-88725743D01*
X149254661Y-88737063D01*
X149256230Y-88748592D01*
X149256230Y-88748593D01*
X149258350Y-88764170D01*
X149259501Y-88781161D01*
X149259501Y-95666501D01*
X149239499Y-95734622D01*
X149185843Y-95781115D01*
X149133501Y-95792501D01*
X147451661Y-95792501D01*
X147383540Y-95772499D01*
X147362566Y-95755596D01*
X146239949Y-94632979D01*
X146205923Y-94570667D01*
X146210988Y-94499852D01*
X146253535Y-94443016D01*
X146263115Y-94436509D01*
X146324973Y-94398528D01*
X146372991Y-94369045D01*
X146469200Y-94262754D01*
X146531710Y-94133733D01*
X146555496Y-93992354D01*
X146555647Y-93980000D01*
X146539477Y-93867086D01*
X146536596Y-93846968D01*
X146536595Y-93846965D01*
X146535323Y-93838082D01*
X146475984Y-93707572D01*
X146439965Y-93665770D01*
X146388260Y-93605763D01*
X146388257Y-93605760D01*
X146382400Y-93598963D01*
X146262095Y-93520985D01*
X146260623Y-93520545D01*
X146209993Y-93476275D01*
X146190296Y-93408065D01*
X146210603Y-93340035D01*
X146252835Y-93304347D01*
X146250817Y-93301060D01*
X146252578Y-93299979D01*
X146372991Y-93226045D01*
X146469200Y-93119754D01*
X146531710Y-92990733D01*
X146555496Y-92849354D01*
X146555647Y-92837000D01*
X146537061Y-92707217D01*
X146536596Y-92703968D01*
X146536595Y-92703965D01*
X146535323Y-92695082D01*
X146475984Y-92564572D01*
X146404843Y-92482009D01*
X146388260Y-92462763D01*
X146388257Y-92462760D01*
X146382400Y-92455963D01*
X146262095Y-92377985D01*
X146124739Y-92336907D01*
X146115763Y-92336852D01*
X146115762Y-92336852D01*
X146055555Y-92336484D01*
X145981376Y-92336031D01*
X145843529Y-92375428D01*
X145827092Y-92385799D01*
X145772692Y-92420122D01*
X145704406Y-92439556D01*
X145636455Y-92418986D01*
X145616362Y-92402655D01*
X145477799Y-92264092D01*
X145443773Y-92201780D01*
X145448838Y-92130965D01*
X145491385Y-92074129D01*
X145533751Y-92053434D01*
X145577648Y-92041466D01*
X145615817Y-92031060D01*
X145737991Y-91956045D01*
X145770318Y-91920331D01*
X145828180Y-91856405D01*
X145828180Y-91856404D01*
X145834200Y-91849754D01*
X145835425Y-91847226D01*
X145887712Y-91803915D01*
X145958193Y-91795375D01*
X146022103Y-91826295D01*
X146042055Y-91852836D01*
X146042532Y-91852481D01*
X146049467Y-91861820D01*
X146054575Y-91872269D01*
X146063101Y-91880178D01*
X146065134Y-91882916D01*
X146067428Y-91885446D01*
X146073532Y-91895348D01*
X146082788Y-91902387D01*
X146082793Y-91902392D01*
X146101487Y-91916607D01*
X146110908Y-91924526D01*
X146136646Y-91948401D01*
X146147449Y-91952711D01*
X146150328Y-91954531D01*
X146153381Y-91956067D01*
X146162641Y-91963108D01*
X146173816Y-91966344D01*
X146184206Y-91971570D01*
X146183939Y-91972101D01*
X146202524Y-91980729D01*
X146266613Y-92023390D01*
X146403457Y-92066142D01*
X146412429Y-92066306D01*
X146412432Y-92066307D01*
X146477763Y-92067504D01*
X146546799Y-92068770D01*
X146555833Y-92066307D01*
X146676458Y-92033421D01*
X146676460Y-92033420D01*
X146685117Y-92031060D01*
X146807291Y-91956045D01*
X146839618Y-91920331D01*
X146897478Y-91856407D01*
X146903500Y-91849754D01*
X146943064Y-91768094D01*
X146962095Y-91728814D01*
X146962095Y-91728813D01*
X146966010Y-91720733D01*
X146989796Y-91579354D01*
X146989947Y-91567000D01*
X146974635Y-91460077D01*
X146970896Y-91433968D01*
X146970895Y-91433965D01*
X146969623Y-91425082D01*
X146959489Y-91402792D01*
X146933122Y-91344802D01*
X146910284Y-91294572D01*
X146880154Y-91259605D01*
X146822560Y-91192763D01*
X146822557Y-91192760D01*
X146816700Y-91185963D01*
X146696395Y-91107985D01*
X146559039Y-91066907D01*
X146550063Y-91066852D01*
X146550062Y-91066852D01*
X146489855Y-91066484D01*
X146415676Y-91066031D01*
X146385571Y-91074635D01*
X146314578Y-91074123D01*
X146261852Y-91042581D01*
X145641375Y-90422104D01*
X145607349Y-90359792D01*
X145612414Y-90288977D01*
X145654961Y-90232141D01*
X145664541Y-90225634D01*
X145717731Y-90192975D01*
X145772991Y-90159045D01*
X145869200Y-90052754D01*
X145931710Y-89923733D01*
X145955496Y-89782354D01*
X145955647Y-89770000D01*
X145935323Y-89628082D01*
X145926708Y-89609133D01*
X145879700Y-89505746D01*
X145875984Y-89497572D01*
X145857598Y-89476234D01*
X145788260Y-89395763D01*
X145788257Y-89395760D01*
X145782400Y-89388963D01*
X145662095Y-89310985D01*
X145524739Y-89269907D01*
X145515763Y-89269852D01*
X145515762Y-89269852D01*
X145476987Y-89269615D01*
X145425694Y-89269302D01*
X145357698Y-89248884D01*
X145337370Y-89232399D01*
X142069405Y-85964434D01*
X142035379Y-85902122D01*
X142032500Y-85875339D01*
X142032500Y-85230661D01*
X142052502Y-85162540D01*
X142106158Y-85116047D01*
X142176432Y-85105943D01*
X142241012Y-85135437D01*
X142247595Y-85141566D01*
X144874173Y-87768144D01*
X144908199Y-87830456D01*
X144909080Y-87859956D01*
X144910882Y-87859978D01*
X144910772Y-87868951D01*
X144909391Y-87877823D01*
X144910555Y-87886725D01*
X144910555Y-87886728D01*
X144916799Y-87934477D01*
X144927980Y-88019979D01*
X144985720Y-88151203D01*
X144991497Y-88158076D01*
X144991498Y-88158077D01*
X145061157Y-88240947D01*
X145077970Y-88260948D01*
X145085447Y-88265925D01*
X145187735Y-88334014D01*
X145197313Y-88340390D01*
X145334157Y-88383142D01*
X145343129Y-88383306D01*
X145343132Y-88383307D01*
X145408463Y-88384504D01*
X145477499Y-88385770D01*
X145486533Y-88383307D01*
X145607158Y-88350421D01*
X145607160Y-88350420D01*
X145615817Y-88348060D01*
X145737991Y-88273045D01*
X145752549Y-88256962D01*
X145815170Y-88187778D01*
X145834200Y-88166754D01*
X145881970Y-88068157D01*
X145892795Y-88045814D01*
X145892795Y-88045813D01*
X145896710Y-88037733D01*
X145920496Y-87896354D01*
X145920647Y-87884000D01*
X145904157Y-87768852D01*
X145901596Y-87750968D01*
X145901595Y-87750965D01*
X145900323Y-87742082D01*
X145890334Y-87720111D01*
X145881179Y-87699977D01*
X145840984Y-87611572D01*
X145822598Y-87590234D01*
X145753260Y-87509763D01*
X145753257Y-87509760D01*
X145747400Y-87502963D01*
X145627095Y-87424985D01*
X145489739Y-87383907D01*
X145480763Y-87383852D01*
X145480762Y-87383852D01*
X145441987Y-87383615D01*
X145390694Y-87383302D01*
X145322698Y-87362884D01*
X145302370Y-87346399D01*
X142704405Y-84748434D01*
X142670379Y-84686122D01*
X142667500Y-84659339D01*
X142667500Y-80442372D01*
X142667696Y-80439697D01*
X142669426Y-80434660D01*
X142667589Y-80385731D01*
X142667500Y-80381005D01*
X142667500Y-80362054D01*
X142666618Y-80357321D01*
X142666390Y-80353794D01*
X142665663Y-80334422D01*
X142665662Y-80334420D01*
X142665226Y-80322794D01*
X142660632Y-80312102D01*
X142659595Y-80307499D01*
X142656038Y-80295788D01*
X142654339Y-80291385D01*
X142652209Y-80279949D01*
X142639272Y-80258961D01*
X142630769Y-80242591D01*
X142624548Y-80228111D01*
X142624545Y-80228106D01*
X142621036Y-80219939D01*
X142617023Y-80215053D01*
X142614840Y-80212870D01*
X142612776Y-80210594D01*
X142612937Y-80210448D01*
X142605835Y-80201463D01*
X142599571Y-80194556D01*
X142593468Y-80184654D01*
X142571689Y-80168093D01*
X142558868Y-80156898D01*
X142250820Y-79848850D01*
X141942405Y-79540436D01*
X141908380Y-79478123D01*
X141905500Y-79451340D01*
X141905500Y-78694449D01*
X141925502Y-78626328D01*
X141938085Y-78609894D01*
X142018176Y-78521411D01*
X142018181Y-78521404D01*
X142024200Y-78514754D01*
X142086710Y-78385733D01*
X142110496Y-78244354D01*
X142110647Y-78232000D01*
X142099412Y-78153546D01*
X142091596Y-78098968D01*
X142091595Y-78098965D01*
X142090323Y-78090082D01*
X142080509Y-78068496D01*
X142050995Y-78003584D01*
X142030984Y-77959572D01*
X142006877Y-77931595D01*
X141943260Y-77857763D01*
X141943257Y-77857760D01*
X141937400Y-77850963D01*
X141817095Y-77772985D01*
X141679739Y-77731907D01*
X141670763Y-77731852D01*
X141670762Y-77731852D01*
X141610555Y-77731484D01*
X141536376Y-77731031D01*
X141398529Y-77770428D01*
X141277280Y-77846930D01*
X141271338Y-77853658D01*
X141271337Y-77853659D01*
X141262775Y-77863354D01*
X141182377Y-77954388D01*
X141121447Y-78084163D01*
X141116356Y-78116863D01*
X141102887Y-78203371D01*
X141099391Y-78225823D01*
X141100555Y-78234725D01*
X141100555Y-78234728D01*
X141104014Y-78261175D01*
X141117980Y-78367979D01*
X141121597Y-78376199D01*
X141166086Y-78477307D01*
X141175720Y-78499203D01*
X141181497Y-78506076D01*
X141181498Y-78506077D01*
X141188792Y-78514754D01*
X141262689Y-78602665D01*
X141267970Y-78608948D01*
X141267063Y-78609710D01*
X141299934Y-78662653D01*
X141304500Y-78696265D01*
X141304500Y-79575636D01*
X141304304Y-79578309D01*
X141302575Y-79583344D01*
X141303011Y-79594966D01*
X141303011Y-79594968D01*
X141304411Y-79632257D01*
X141304500Y-79636983D01*
X141304500Y-79655950D01*
X141305382Y-79660685D01*
X141305610Y-79664211D01*
X141306774Y-79695210D01*
X141311364Y-79705895D01*
X141312401Y-79710495D01*
X141315962Y-79722216D01*
X141317661Y-79726619D01*
X141319791Y-79738055D01*
X141325895Y-79747957D01*
X141332727Y-79759041D01*
X141341231Y-79775413D01*
X141347451Y-79789890D01*
X141347453Y-79789894D01*
X141350964Y-79798065D01*
X141354978Y-79802951D01*
X141357163Y-79805136D01*
X141359215Y-79807399D01*
X141359055Y-79807544D01*
X141366175Y-79816551D01*
X141372427Y-79823446D01*
X141378532Y-79833350D01*
X141400320Y-79849918D01*
X141413139Y-79861112D01*
X142029595Y-80477568D01*
X142063621Y-80539880D01*
X142066500Y-80566663D01*
X142066500Y-81237925D01*
X142046498Y-81306046D01*
X141992842Y-81352539D01*
X141922568Y-81362643D01*
X141857988Y-81333149D01*
X141845047Y-81320173D01*
X141832875Y-81306046D01*
X141810400Y-81279963D01*
X141690095Y-81201985D01*
X141552739Y-81160907D01*
X141543763Y-81160852D01*
X141543762Y-81160852D01*
X141483555Y-81160484D01*
X141409376Y-81160031D01*
X141271529Y-81199428D01*
X141263942Y-81204215D01*
X141263940Y-81204216D01*
X141209735Y-81238417D01*
X141141450Y-81257851D01*
X141073499Y-81237282D01*
X141027454Y-81183241D01*
X141016500Y-81131855D01*
X141016500Y-80726449D01*
X141036502Y-80658328D01*
X141049085Y-80641894D01*
X141129176Y-80553411D01*
X141129181Y-80553404D01*
X141135200Y-80546754D01*
X141185773Y-80442372D01*
X141193795Y-80425814D01*
X141193795Y-80425813D01*
X141197710Y-80417733D01*
X141221496Y-80276354D01*
X141221647Y-80264000D01*
X141209276Y-80177615D01*
X141202596Y-80130968D01*
X141202595Y-80130965D01*
X141201323Y-80122082D01*
X141186534Y-80089554D01*
X141164221Y-80040481D01*
X141141984Y-79991572D01*
X141115701Y-79961069D01*
X141054260Y-79889763D01*
X141054257Y-79889760D01*
X141048400Y-79882963D01*
X140928095Y-79804985D01*
X140790739Y-79763907D01*
X140781763Y-79763852D01*
X140781762Y-79763852D01*
X140721555Y-79763484D01*
X140647376Y-79763031D01*
X140509529Y-79802428D01*
X140388280Y-79878930D01*
X140382339Y-79885657D01*
X140382333Y-79885662D01*
X140301999Y-79976624D01*
X140241914Y-80014443D01*
X140170920Y-80013773D01*
X140112105Y-79975465D01*
X140106036Y-79968421D01*
X140032400Y-79882963D01*
X140034932Y-79880781D01*
X140005491Y-79834645D01*
X140000500Y-79799535D01*
X140000500Y-77717823D01*
X146433391Y-77717823D01*
X146434555Y-77726725D01*
X146434555Y-77726728D01*
X146441606Y-77780645D01*
X146451980Y-77859979D01*
X146459188Y-77876361D01*
X146506049Y-77982859D01*
X146509720Y-77991203D01*
X146515497Y-77998076D01*
X146515498Y-77998077D01*
X146564648Y-78056548D01*
X146601970Y-78100948D01*
X146721313Y-78180390D01*
X146858157Y-78223142D01*
X146867129Y-78223306D01*
X146867132Y-78223307D01*
X146932463Y-78224504D01*
X147001499Y-78225770D01*
X147010533Y-78223307D01*
X147131158Y-78190421D01*
X147131160Y-78190420D01*
X147139817Y-78188060D01*
X147261991Y-78113045D01*
X147288134Y-78084163D01*
X147346251Y-78019955D01*
X147358200Y-78006754D01*
X147394733Y-77931350D01*
X147416795Y-77885814D01*
X147416795Y-77885813D01*
X147420710Y-77877733D01*
X147444496Y-77736354D01*
X147444647Y-77724000D01*
X147430577Y-77625754D01*
X147425596Y-77590968D01*
X147425595Y-77590965D01*
X147424323Y-77582082D01*
X147364984Y-77451572D01*
X147315564Y-77394217D01*
X147277260Y-77349763D01*
X147277257Y-77349760D01*
X147271400Y-77342963D01*
X147151095Y-77264985D01*
X147013739Y-77223907D01*
X147004763Y-77223852D01*
X147004762Y-77223852D01*
X146944555Y-77223484D01*
X146870376Y-77223031D01*
X146732529Y-77262428D01*
X146611280Y-77338930D01*
X146605338Y-77345658D01*
X146605337Y-77345659D01*
X146599297Y-77352498D01*
X146516377Y-77446388D01*
X146455447Y-77576163D01*
X146448041Y-77623733D01*
X146435060Y-77707104D01*
X146433391Y-77717823D01*
X140000500Y-77717823D01*
X140000500Y-75868862D01*
X140000696Y-75866189D01*
X140002425Y-75861154D01*
X140001435Y-75834761D01*
X140000589Y-75812241D01*
X140000500Y-75807515D01*
X140000500Y-75788548D01*
X139999618Y-75783813D01*
X139999390Y-75780287D01*
X139998662Y-75760911D01*
X139998226Y-75749288D01*
X139993636Y-75738603D01*
X139992599Y-75734003D01*
X139989038Y-75722282D01*
X139987339Y-75717879D01*
X139985209Y-75706443D01*
X139972272Y-75685455D01*
X139963769Y-75669085D01*
X139957549Y-75654608D01*
X139957547Y-75654604D01*
X139954036Y-75646433D01*
X139950022Y-75641547D01*
X139947837Y-75639362D01*
X139945785Y-75637099D01*
X139945945Y-75636954D01*
X139938825Y-75627947D01*
X139932573Y-75621052D01*
X139926468Y-75611148D01*
X139904680Y-75594580D01*
X139891861Y-75583386D01*
X139155309Y-74846834D01*
X139693500Y-74846834D01*
X139696481Y-74878369D01*
X139741366Y-75006184D01*
X139746958Y-75013754D01*
X139746959Y-75013757D01*
X139809335Y-75098206D01*
X139821850Y-75115150D01*
X139829421Y-75120742D01*
X139923243Y-75190041D01*
X139923246Y-75190042D01*
X139930816Y-75195634D01*
X140058631Y-75240519D01*
X140066277Y-75241242D01*
X140066278Y-75241242D01*
X140072248Y-75241806D01*
X140090166Y-75243500D01*
X140897834Y-75243500D01*
X140915752Y-75241806D01*
X140921722Y-75241242D01*
X140921723Y-75241242D01*
X140929369Y-75240519D01*
X141057184Y-75195634D01*
X141064754Y-75190042D01*
X141064757Y-75190041D01*
X141158579Y-75120742D01*
X141166150Y-75115150D01*
X141178665Y-75098206D01*
X141241041Y-75013757D01*
X141241042Y-75013754D01*
X141246634Y-75006184D01*
X141291519Y-74878369D01*
X141294500Y-74846834D01*
X141294500Y-74488155D01*
X141693500Y-74488155D01*
X141708454Y-74621472D01*
X141767515Y-74791073D01*
X141771248Y-74797047D01*
X141771249Y-74797049D01*
X141829565Y-74890373D01*
X141862684Y-74943375D01*
X141876287Y-74957073D01*
X141984267Y-75065810D01*
X141984271Y-75065813D01*
X141989230Y-75070807D01*
X141995176Y-75074581D01*
X141995178Y-75074582D01*
X142043516Y-75105258D01*
X142140864Y-75167037D01*
X142170648Y-75177643D01*
X142303414Y-75224919D01*
X142303419Y-75224920D01*
X142310049Y-75227281D01*
X142317035Y-75228114D01*
X142317039Y-75228115D01*
X142443727Y-75243221D01*
X142488376Y-75248545D01*
X142495379Y-75247809D01*
X142495380Y-75247809D01*
X142659975Y-75230510D01*
X142659979Y-75230509D01*
X142666983Y-75229773D01*
X142782215Y-75190545D01*
X142830323Y-75174168D01*
X142830326Y-75174167D01*
X142836993Y-75171897D01*
X142851036Y-75163258D01*
X142929234Y-75115150D01*
X142989955Y-75077794D01*
X142994986Y-75072868D01*
X142994989Y-75072865D01*
X143057117Y-75012024D01*
X143118268Y-74952141D01*
X143123918Y-74943375D01*
X143211735Y-74807109D01*
X143215554Y-74801183D01*
X143221128Y-74785871D01*
X143274570Y-74639039D01*
X143274571Y-74639036D01*
X143276978Y-74632422D01*
X143294500Y-74493717D01*
X143294500Y-74488155D01*
X143693500Y-74488155D01*
X143708454Y-74621472D01*
X143767515Y-74791073D01*
X143771248Y-74797047D01*
X143771249Y-74797049D01*
X143829565Y-74890373D01*
X143862684Y-74943375D01*
X143876287Y-74957073D01*
X143984267Y-75065810D01*
X143984271Y-75065813D01*
X143989230Y-75070807D01*
X143995176Y-75074581D01*
X143995178Y-75074582D01*
X144043516Y-75105258D01*
X144140864Y-75167037D01*
X144170648Y-75177643D01*
X144303414Y-75224919D01*
X144303419Y-75224920D01*
X144310049Y-75227281D01*
X144317035Y-75228114D01*
X144317039Y-75228115D01*
X144443727Y-75243221D01*
X144488376Y-75248545D01*
X144495379Y-75247809D01*
X144495380Y-75247809D01*
X144659975Y-75230510D01*
X144659979Y-75230509D01*
X144666983Y-75229773D01*
X144782215Y-75190545D01*
X144830323Y-75174168D01*
X144830326Y-75174167D01*
X144836993Y-75171897D01*
X144851036Y-75163258D01*
X144929234Y-75115150D01*
X144989955Y-75077794D01*
X144994986Y-75072868D01*
X144994989Y-75072865D01*
X145057117Y-75012024D01*
X145118268Y-74952141D01*
X145123918Y-74943375D01*
X145211735Y-74807109D01*
X145215554Y-74801183D01*
X145221128Y-74785871D01*
X145274570Y-74639039D01*
X145274571Y-74639036D01*
X145276978Y-74632422D01*
X145294500Y-74493717D01*
X145294500Y-73847845D01*
X145279546Y-73714528D01*
X145276642Y-73706187D01*
X145222803Y-73551584D01*
X145220485Y-73544927D01*
X145183800Y-73486218D01*
X145129049Y-73398599D01*
X145125316Y-73392625D01*
X145055423Y-73322243D01*
X145003733Y-73270190D01*
X145003729Y-73270187D01*
X144998770Y-73265193D01*
X144987761Y-73258206D01*
X144915251Y-73212190D01*
X144847136Y-73168963D01*
X144810841Y-73156039D01*
X144684586Y-73111081D01*
X144684581Y-73111080D01*
X144677951Y-73108719D01*
X144670965Y-73107886D01*
X144670961Y-73107885D01*
X144539484Y-73092208D01*
X144499624Y-73087455D01*
X144492621Y-73088191D01*
X144492620Y-73088191D01*
X144328025Y-73105490D01*
X144328021Y-73105491D01*
X144321017Y-73106227D01*
X144314346Y-73108498D01*
X144157677Y-73161832D01*
X144157674Y-73161833D01*
X144151007Y-73164103D01*
X144145009Y-73167793D01*
X144145007Y-73167794D01*
X144080965Y-73207193D01*
X143998045Y-73258206D01*
X143993014Y-73263132D01*
X143993011Y-73263135D01*
X143933996Y-73320927D01*
X143869732Y-73383859D01*
X143865913Y-73389784D01*
X143865912Y-73389786D01*
X143799019Y-73493584D01*
X143772446Y-73534817D01*
X143770037Y-73541437D01*
X143770035Y-73541440D01*
X143725599Y-73663527D01*
X143711022Y-73703578D01*
X143693500Y-73842283D01*
X143693500Y-74488155D01*
X143294500Y-74488155D01*
X143294500Y-73847845D01*
X143279546Y-73714528D01*
X143276642Y-73706187D01*
X143222803Y-73551584D01*
X143220485Y-73544927D01*
X143183800Y-73486218D01*
X143129049Y-73398599D01*
X143125316Y-73392625D01*
X143055423Y-73322243D01*
X143003733Y-73270190D01*
X143003729Y-73270187D01*
X142998770Y-73265193D01*
X142987761Y-73258206D01*
X142915251Y-73212190D01*
X142847136Y-73168963D01*
X142810841Y-73156039D01*
X142684586Y-73111081D01*
X142684581Y-73111080D01*
X142677951Y-73108719D01*
X142670965Y-73107886D01*
X142670961Y-73107885D01*
X142539484Y-73092208D01*
X142499624Y-73087455D01*
X142492621Y-73088191D01*
X142492620Y-73088191D01*
X142328025Y-73105490D01*
X142328021Y-73105491D01*
X142321017Y-73106227D01*
X142314346Y-73108498D01*
X142157677Y-73161832D01*
X142157674Y-73161833D01*
X142151007Y-73164103D01*
X142145009Y-73167793D01*
X142145007Y-73167794D01*
X142080965Y-73207193D01*
X141998045Y-73258206D01*
X141993014Y-73263132D01*
X141993011Y-73263135D01*
X141933996Y-73320927D01*
X141869732Y-73383859D01*
X141865913Y-73389784D01*
X141865912Y-73389786D01*
X141799019Y-73493584D01*
X141772446Y-73534817D01*
X141770037Y-73541437D01*
X141770035Y-73541440D01*
X141725599Y-73663527D01*
X141711022Y-73703578D01*
X141693500Y-73842283D01*
X141693500Y-74488155D01*
X141294500Y-74488155D01*
X141294500Y-73489166D01*
X141291519Y-73457631D01*
X141246634Y-73329816D01*
X141241042Y-73322246D01*
X141241041Y-73322243D01*
X141171742Y-73228421D01*
X141166150Y-73220850D01*
X141138850Y-73200686D01*
X141064757Y-73145959D01*
X141064754Y-73145958D01*
X141057184Y-73140366D01*
X140929369Y-73095481D01*
X140921723Y-73094758D01*
X140921722Y-73094758D01*
X140915752Y-73094194D01*
X140897834Y-73092500D01*
X140090166Y-73092500D01*
X140072248Y-73094194D01*
X140066278Y-73094758D01*
X140066277Y-73094758D01*
X140058631Y-73095481D01*
X139930816Y-73140366D01*
X139923246Y-73145958D01*
X139923243Y-73145959D01*
X139849150Y-73200686D01*
X139821850Y-73220850D01*
X139816258Y-73228421D01*
X139746959Y-73322243D01*
X139746958Y-73322246D01*
X139741366Y-73329816D01*
X139696481Y-73457631D01*
X139693500Y-73489166D01*
X139693500Y-74846834D01*
X139155309Y-74846834D01*
X136217405Y-71908930D01*
X136183379Y-71846618D01*
X136180500Y-71819835D01*
X136180500Y-69680458D01*
X136200502Y-69612337D01*
X136240478Y-69573140D01*
X136375955Y-69489794D01*
X136380986Y-69484868D01*
X136380989Y-69484865D01*
X136458152Y-69409301D01*
X136504268Y-69364141D01*
X136509918Y-69355375D01*
X136597735Y-69219109D01*
X136601554Y-69213183D01*
X136604655Y-69204665D01*
X136660570Y-69051039D01*
X136660571Y-69051036D01*
X136662978Y-69044422D01*
X136680500Y-68905717D01*
X136680500Y-68900155D01*
X137079500Y-68900155D01*
X137094454Y-69033472D01*
X137096771Y-69040125D01*
X137096771Y-69040126D01*
X137109203Y-69075825D01*
X137153515Y-69203073D01*
X137157248Y-69209047D01*
X137157249Y-69209049D01*
X137203285Y-69282722D01*
X137248684Y-69355375D01*
X137262287Y-69369073D01*
X137370267Y-69477810D01*
X137370271Y-69477813D01*
X137375230Y-69482807D01*
X137381176Y-69486581D01*
X137381178Y-69486582D01*
X137433140Y-69519558D01*
X137526864Y-69579037D01*
X137546890Y-69586168D01*
X137689414Y-69636919D01*
X137689419Y-69636920D01*
X137696049Y-69639281D01*
X137703035Y-69640114D01*
X137703039Y-69640115D01*
X137829727Y-69655221D01*
X137874376Y-69660545D01*
X137881379Y-69659809D01*
X137881380Y-69659809D01*
X138045975Y-69642510D01*
X138045979Y-69642509D01*
X138052983Y-69641773D01*
X138153266Y-69607634D01*
X138216323Y-69586168D01*
X138216326Y-69586167D01*
X138222993Y-69583897D01*
X138236929Y-69575324D01*
X138369955Y-69493485D01*
X138375955Y-69489794D01*
X138380986Y-69484868D01*
X138380989Y-69484865D01*
X138458152Y-69409301D01*
X138504268Y-69364141D01*
X138509918Y-69355375D01*
X138597735Y-69219109D01*
X138601554Y-69213183D01*
X138604655Y-69204665D01*
X138660570Y-69051039D01*
X138660571Y-69051036D01*
X138662978Y-69044422D01*
X138680500Y-68905717D01*
X138680500Y-68900155D01*
X139079500Y-68900155D01*
X139094454Y-69033472D01*
X139096771Y-69040125D01*
X139096771Y-69040126D01*
X139109203Y-69075825D01*
X139153515Y-69203073D01*
X139157248Y-69209047D01*
X139157249Y-69209049D01*
X139203285Y-69282722D01*
X139248684Y-69355375D01*
X139262287Y-69369073D01*
X139370267Y-69477810D01*
X139370271Y-69477813D01*
X139375230Y-69482807D01*
X139381176Y-69486581D01*
X139381178Y-69486582D01*
X139433140Y-69519558D01*
X139526864Y-69579037D01*
X139546890Y-69586168D01*
X139689414Y-69636919D01*
X139689419Y-69636920D01*
X139696049Y-69639281D01*
X139703035Y-69640114D01*
X139703039Y-69640115D01*
X139829727Y-69655221D01*
X139874376Y-69660545D01*
X139881379Y-69659809D01*
X139881380Y-69659809D01*
X140045975Y-69642510D01*
X140045979Y-69642509D01*
X140052983Y-69641773D01*
X140153266Y-69607634D01*
X140216323Y-69586168D01*
X140216326Y-69586167D01*
X140222993Y-69583897D01*
X140236929Y-69575324D01*
X140369955Y-69493485D01*
X140375955Y-69489794D01*
X140380986Y-69484868D01*
X140380989Y-69484865D01*
X140458152Y-69409301D01*
X140504268Y-69364141D01*
X140509918Y-69355375D01*
X140597735Y-69219109D01*
X140601554Y-69213183D01*
X140604655Y-69204665D01*
X140660570Y-69051039D01*
X140660571Y-69051036D01*
X140662978Y-69044422D01*
X140680500Y-68905717D01*
X140680500Y-68900155D01*
X141079500Y-68900155D01*
X141094454Y-69033472D01*
X141096771Y-69040125D01*
X141096771Y-69040126D01*
X141109203Y-69075825D01*
X141153515Y-69203073D01*
X141157248Y-69209047D01*
X141157249Y-69209049D01*
X141203285Y-69282722D01*
X141248684Y-69355375D01*
X141262287Y-69369073D01*
X141370267Y-69477810D01*
X141370271Y-69477813D01*
X141375230Y-69482807D01*
X141381176Y-69486581D01*
X141381178Y-69486582D01*
X141433140Y-69519558D01*
X141526864Y-69579037D01*
X141546890Y-69586168D01*
X141689414Y-69636919D01*
X141689419Y-69636920D01*
X141696049Y-69639281D01*
X141703035Y-69640114D01*
X141703039Y-69640115D01*
X141829727Y-69655221D01*
X141874376Y-69660545D01*
X141881379Y-69659809D01*
X141881380Y-69659809D01*
X142045975Y-69642510D01*
X142045979Y-69642509D01*
X142052983Y-69641773D01*
X142153266Y-69607634D01*
X142216323Y-69586168D01*
X142216326Y-69586167D01*
X142222993Y-69583897D01*
X142236929Y-69575324D01*
X142369955Y-69493485D01*
X142375955Y-69489794D01*
X142380986Y-69484868D01*
X142380989Y-69484865D01*
X142458152Y-69409301D01*
X142504268Y-69364141D01*
X142509918Y-69355375D01*
X142597735Y-69219109D01*
X142601554Y-69213183D01*
X142604655Y-69204665D01*
X142660570Y-69051039D01*
X142660571Y-69051036D01*
X142662978Y-69044422D01*
X142680500Y-68905717D01*
X142680500Y-68259845D01*
X142665546Y-68126528D01*
X142661645Y-68115324D01*
X142608803Y-67963584D01*
X142606485Y-67956927D01*
X142569800Y-67898218D01*
X142515049Y-67810599D01*
X142511316Y-67804625D01*
X142441423Y-67734243D01*
X142389733Y-67682190D01*
X142389729Y-67682187D01*
X142384770Y-67677193D01*
X142373761Y-67670206D01*
X142306085Y-67627258D01*
X142233136Y-67580963D01*
X142203352Y-67570357D01*
X142070586Y-67523081D01*
X142070581Y-67523080D01*
X142063951Y-67520719D01*
X142056965Y-67519886D01*
X142056961Y-67519885D01*
X141927933Y-67504500D01*
X141885624Y-67499455D01*
X141878621Y-67500191D01*
X141878620Y-67500191D01*
X141714025Y-67517490D01*
X141714021Y-67517491D01*
X141707017Y-67518227D01*
X141700346Y-67520498D01*
X141543677Y-67573832D01*
X141543674Y-67573833D01*
X141537007Y-67576103D01*
X141531009Y-67579793D01*
X141531007Y-67579794D01*
X141460526Y-67623155D01*
X141384045Y-67670206D01*
X141379014Y-67675132D01*
X141379011Y-67675135D01*
X141332006Y-67721166D01*
X141255732Y-67795859D01*
X141251913Y-67801784D01*
X141251912Y-67801786D01*
X141162265Y-67940891D01*
X141158446Y-67946817D01*
X141156037Y-67953437D01*
X141156035Y-67953440D01*
X141099430Y-68108961D01*
X141097022Y-68115578D01*
X141079500Y-68254283D01*
X141079500Y-68900155D01*
X140680500Y-68900155D01*
X140680500Y-68259845D01*
X140665546Y-68126528D01*
X140661645Y-68115324D01*
X140608803Y-67963584D01*
X140606485Y-67956927D01*
X140569800Y-67898218D01*
X140515049Y-67810599D01*
X140511316Y-67804625D01*
X140441423Y-67734243D01*
X140389733Y-67682190D01*
X140389729Y-67682187D01*
X140384770Y-67677193D01*
X140373761Y-67670206D01*
X140306085Y-67627258D01*
X140233136Y-67580963D01*
X140203352Y-67570357D01*
X140070586Y-67523081D01*
X140070581Y-67523080D01*
X140063951Y-67520719D01*
X140056965Y-67519886D01*
X140056961Y-67519885D01*
X139927933Y-67504500D01*
X139885624Y-67499455D01*
X139878621Y-67500191D01*
X139878620Y-67500191D01*
X139714025Y-67517490D01*
X139714021Y-67517491D01*
X139707017Y-67518227D01*
X139700346Y-67520498D01*
X139543677Y-67573832D01*
X139543674Y-67573833D01*
X139537007Y-67576103D01*
X139531009Y-67579793D01*
X139531007Y-67579794D01*
X139460526Y-67623155D01*
X139384045Y-67670206D01*
X139379014Y-67675132D01*
X139379011Y-67675135D01*
X139332006Y-67721166D01*
X139255732Y-67795859D01*
X139251913Y-67801784D01*
X139251912Y-67801786D01*
X139162265Y-67940891D01*
X139158446Y-67946817D01*
X139156037Y-67953437D01*
X139156035Y-67953440D01*
X139099430Y-68108961D01*
X139097022Y-68115578D01*
X139079500Y-68254283D01*
X139079500Y-68900155D01*
X138680500Y-68900155D01*
X138680500Y-68259845D01*
X138665546Y-68126528D01*
X138661645Y-68115324D01*
X138608803Y-67963584D01*
X138606485Y-67956927D01*
X138569800Y-67898218D01*
X138515049Y-67810599D01*
X138511316Y-67804625D01*
X138441423Y-67734243D01*
X138389733Y-67682190D01*
X138389729Y-67682187D01*
X138384770Y-67677193D01*
X138373761Y-67670206D01*
X138306085Y-67627258D01*
X138233136Y-67580963D01*
X138203352Y-67570357D01*
X138070586Y-67523081D01*
X138070581Y-67523080D01*
X138063951Y-67520719D01*
X138056965Y-67519886D01*
X138056961Y-67519885D01*
X137927933Y-67504500D01*
X137885624Y-67499455D01*
X137878621Y-67500191D01*
X137878620Y-67500191D01*
X137714025Y-67517490D01*
X137714021Y-67517491D01*
X137707017Y-67518227D01*
X137700346Y-67520498D01*
X137543677Y-67573832D01*
X137543674Y-67573833D01*
X137537007Y-67576103D01*
X137531009Y-67579793D01*
X137531007Y-67579794D01*
X137460526Y-67623155D01*
X137384045Y-67670206D01*
X137379014Y-67675132D01*
X137379011Y-67675135D01*
X137332006Y-67721166D01*
X137255732Y-67795859D01*
X137251913Y-67801784D01*
X137251912Y-67801786D01*
X137162265Y-67940891D01*
X137158446Y-67946817D01*
X137156037Y-67953437D01*
X137156035Y-67953440D01*
X137099430Y-68108961D01*
X137097022Y-68115578D01*
X137079500Y-68254283D01*
X137079500Y-68900155D01*
X136680500Y-68900155D01*
X136680500Y-68259845D01*
X136665546Y-68126528D01*
X136661645Y-68115324D01*
X136608803Y-67963584D01*
X136606485Y-67956927D01*
X136569800Y-67898218D01*
X136515049Y-67810599D01*
X136511316Y-67804625D01*
X136441423Y-67734243D01*
X136389733Y-67682190D01*
X136389729Y-67682187D01*
X136384770Y-67677193D01*
X136373761Y-67670206D01*
X136306085Y-67627258D01*
X136233136Y-67580963D01*
X136203352Y-67570357D01*
X136070586Y-67523081D01*
X136070581Y-67523080D01*
X136063951Y-67520719D01*
X136056965Y-67519886D01*
X136056961Y-67519885D01*
X135927933Y-67504500D01*
X135885624Y-67499455D01*
X135878621Y-67500191D01*
X135878620Y-67500191D01*
X135714025Y-67517490D01*
X135714021Y-67517491D01*
X135707017Y-67518227D01*
X135700346Y-67520498D01*
X135543677Y-67573832D01*
X135543674Y-67573833D01*
X135537007Y-67576103D01*
X135531009Y-67579793D01*
X135531007Y-67579794D01*
X135460526Y-67623155D01*
X135384045Y-67670206D01*
X135379014Y-67675132D01*
X135379011Y-67675135D01*
X135332006Y-67721166D01*
X135255732Y-67795859D01*
X135251913Y-67801784D01*
X135251912Y-67801786D01*
X135162265Y-67940891D01*
X135158446Y-67946817D01*
X135156037Y-67953437D01*
X135156035Y-67953440D01*
X135099430Y-68108961D01*
X135097022Y-68115578D01*
X135079500Y-68254283D01*
X135079500Y-68900155D01*
X135094454Y-69033472D01*
X135096771Y-69040125D01*
X135096771Y-69040126D01*
X135109203Y-69075825D01*
X135153515Y-69203073D01*
X135157248Y-69209047D01*
X135157249Y-69209049D01*
X135203285Y-69282722D01*
X135248684Y-69355375D01*
X135262287Y-69369073D01*
X135370267Y-69477810D01*
X135370271Y-69477813D01*
X135375230Y-69482807D01*
X135381176Y-69486581D01*
X135381178Y-69486582D01*
X135433144Y-69519561D01*
X135521015Y-69575325D01*
X135567813Y-69628713D01*
X135579500Y-69681709D01*
X135579500Y-71532533D01*
X135559498Y-71600654D01*
X135505842Y-71647147D01*
X135435568Y-71657251D01*
X135370988Y-71627757D01*
X135364405Y-71621628D01*
X134217405Y-70474628D01*
X134183379Y-70412316D01*
X134180500Y-70385533D01*
X134180500Y-69680458D01*
X134200502Y-69612337D01*
X134240478Y-69573140D01*
X134375955Y-69489794D01*
X134380986Y-69484868D01*
X134380989Y-69484865D01*
X134458152Y-69409301D01*
X134504268Y-69364141D01*
X134509918Y-69355375D01*
X134597735Y-69219109D01*
X134601554Y-69213183D01*
X134604655Y-69204665D01*
X134660570Y-69051039D01*
X134660571Y-69051036D01*
X134662978Y-69044422D01*
X134680500Y-68905717D01*
X134680500Y-68259845D01*
X134665546Y-68126528D01*
X134661645Y-68115324D01*
X134608803Y-67963584D01*
X134606485Y-67956927D01*
X134569800Y-67898218D01*
X134515049Y-67810599D01*
X134511316Y-67804625D01*
X134441423Y-67734243D01*
X134389733Y-67682190D01*
X134389729Y-67682187D01*
X134384770Y-67677193D01*
X134373761Y-67670206D01*
X134306085Y-67627258D01*
X134233136Y-67580963D01*
X134203352Y-67570357D01*
X134070586Y-67523081D01*
X134070581Y-67523080D01*
X134063951Y-67520719D01*
X134056965Y-67519886D01*
X134056961Y-67519885D01*
X133927933Y-67504500D01*
X133885624Y-67499455D01*
X133878621Y-67500191D01*
X133878620Y-67500191D01*
X133714025Y-67517490D01*
X133714021Y-67517491D01*
X133707017Y-67518227D01*
X133700346Y-67520498D01*
X133543677Y-67573832D01*
X133543674Y-67573833D01*
X133537007Y-67576103D01*
X133531009Y-67579793D01*
X133531007Y-67579794D01*
X133460526Y-67623155D01*
X133384045Y-67670206D01*
X133379014Y-67675132D01*
X133379011Y-67675135D01*
X133332006Y-67721166D01*
X133255732Y-67795859D01*
X133251913Y-67801784D01*
X133251912Y-67801786D01*
X133162265Y-67940891D01*
X133158446Y-67946817D01*
X133156037Y-67953437D01*
X133156035Y-67953440D01*
X133099430Y-68108961D01*
X133097022Y-68115578D01*
X133079500Y-68254283D01*
X133079500Y-68900155D01*
X133094454Y-69033472D01*
X133096771Y-69040125D01*
X133096771Y-69040126D01*
X133109203Y-69075825D01*
X133153515Y-69203073D01*
X133157248Y-69209047D01*
X133157249Y-69209049D01*
X133203285Y-69282722D01*
X133248684Y-69355375D01*
X133262287Y-69369073D01*
X133370267Y-69477810D01*
X133370271Y-69477813D01*
X133375230Y-69482807D01*
X133381176Y-69486581D01*
X133381178Y-69486582D01*
X133433144Y-69519561D01*
X133521015Y-69575325D01*
X133567813Y-69628713D01*
X133579500Y-69681709D01*
X133579500Y-70509828D01*
X133579304Y-70512501D01*
X133577575Y-70517536D01*
X133578011Y-70529158D01*
X133578011Y-70529160D01*
X133579411Y-70566449D01*
X133579500Y-70571175D01*
X133579500Y-70590142D01*
X133580382Y-70594877D01*
X133580610Y-70598403D01*
X133581774Y-70629402D01*
X133586364Y-70640087D01*
X133587401Y-70644687D01*
X133590962Y-70656408D01*
X133592661Y-70660811D01*
X133594791Y-70672247D01*
X133600895Y-70682149D01*
X133607727Y-70693233D01*
X133616231Y-70709605D01*
X133622451Y-70724082D01*
X133622453Y-70724086D01*
X133625964Y-70732257D01*
X133629978Y-70737143D01*
X133632163Y-70739328D01*
X133634215Y-70741591D01*
X133634055Y-70741736D01*
X133641175Y-70750743D01*
X133647427Y-70757638D01*
X133653532Y-70767542D01*
X133675320Y-70784110D01*
X133688139Y-70795304D01*
X135738484Y-72845649D01*
X135772510Y-72907961D01*
X135767445Y-72978776D01*
X135724898Y-73035612D01*
X135689994Y-73054022D01*
X135543677Y-73103832D01*
X135543674Y-73103833D01*
X135537007Y-73106103D01*
X135531009Y-73109793D01*
X135531007Y-73109794D01*
X135486383Y-73137247D01*
X135384045Y-73200206D01*
X135379014Y-73205132D01*
X135379011Y-73205135D01*
X135353265Y-73230348D01*
X135255732Y-73325859D01*
X135251913Y-73331784D01*
X135251912Y-73331786D01*
X135165882Y-73465278D01*
X135158446Y-73476817D01*
X135156037Y-73483437D01*
X135156035Y-73483440D01*
X135135831Y-73538951D01*
X135097022Y-73645578D01*
X135079500Y-73784283D01*
X135079500Y-74374338D01*
X135059498Y-74442459D01*
X135042595Y-74463433D01*
X134884362Y-74621666D01*
X134822050Y-74655692D01*
X134751235Y-74650627D01*
X134694399Y-74608080D01*
X134669588Y-74541560D01*
X134670260Y-74516780D01*
X134680004Y-74439647D01*
X134680004Y-74439640D01*
X134680500Y-74435717D01*
X134680500Y-73789845D01*
X134665546Y-73656528D01*
X134606485Y-73486927D01*
X134583651Y-73450384D01*
X134515049Y-73340599D01*
X134511316Y-73334625D01*
X134414753Y-73237386D01*
X134389733Y-73212190D01*
X134389729Y-73212187D01*
X134384770Y-73207193D01*
X134373761Y-73200206D01*
X134314897Y-73162850D01*
X134233136Y-73110963D01*
X134196805Y-73098026D01*
X134070586Y-73053081D01*
X134070581Y-73053080D01*
X134063951Y-73050719D01*
X134056965Y-73049886D01*
X134056961Y-73049885D01*
X133927254Y-73034419D01*
X133885624Y-73029455D01*
X133878621Y-73030191D01*
X133878620Y-73030191D01*
X133714025Y-73047490D01*
X133714021Y-73047491D01*
X133707017Y-73048227D01*
X133700346Y-73050498D01*
X133543677Y-73103832D01*
X133543674Y-73103833D01*
X133537007Y-73106103D01*
X133531009Y-73109793D01*
X133531007Y-73109794D01*
X133486383Y-73137247D01*
X133384045Y-73200206D01*
X133379014Y-73205132D01*
X133379011Y-73205135D01*
X133353265Y-73230348D01*
X133255732Y-73325859D01*
X133251913Y-73331784D01*
X133251912Y-73331786D01*
X133165882Y-73465278D01*
X133158446Y-73476817D01*
X133156037Y-73483437D01*
X133156035Y-73483440D01*
X133135831Y-73538951D01*
X133097022Y-73645578D01*
X133079500Y-73784283D01*
X133079500Y-74430155D01*
X133094454Y-74563472D01*
X133153515Y-74733073D01*
X133157248Y-74739047D01*
X133157249Y-74739049D01*
X133191936Y-74794560D01*
X133248684Y-74885375D01*
X133262287Y-74899073D01*
X133370267Y-75007810D01*
X133370271Y-75007813D01*
X133375230Y-75012807D01*
X133381176Y-75016581D01*
X133381178Y-75016582D01*
X133433140Y-75049558D01*
X133526864Y-75109037D01*
X133544031Y-75115150D01*
X133689414Y-75166919D01*
X133689419Y-75166920D01*
X133696049Y-75169281D01*
X133703035Y-75170114D01*
X133703039Y-75170115D01*
X133829727Y-75185221D01*
X133874376Y-75190545D01*
X134013428Y-75175930D01*
X134083266Y-75188702D01*
X134135112Y-75237204D01*
X134152507Y-75306037D01*
X134129926Y-75373347D01*
X134115696Y-75390332D01*
X133301542Y-76204487D01*
X133299516Y-76206236D01*
X133294731Y-76208575D01*
X133286819Y-76217104D01*
X133286818Y-76217105D01*
X133261427Y-76244477D01*
X133258147Y-76247882D01*
X133244752Y-76261277D01*
X133242028Y-76265247D01*
X133239703Y-76267895D01*
X133226508Y-76282119D01*
X133226506Y-76282122D01*
X133218599Y-76290646D01*
X133214289Y-76301450D01*
X133211767Y-76305439D01*
X133206006Y-76316227D01*
X133204089Y-76320552D01*
X133197508Y-76330146D01*
X133194822Y-76341465D01*
X133194821Y-76341467D01*
X133191817Y-76354127D01*
X133186252Y-76371724D01*
X133183662Y-76378217D01*
X133177117Y-76394622D01*
X133176500Y-76400915D01*
X133176500Y-76403994D01*
X133176350Y-76407067D01*
X133176134Y-76407056D01*
X133174802Y-76418431D01*
X133174346Y-76427746D01*
X133171660Y-76439066D01*
X133173229Y-76450595D01*
X133173229Y-76450596D01*
X133175349Y-76466173D01*
X133176500Y-76483164D01*
X133176500Y-77006435D01*
X133156498Y-77074556D01*
X133144943Y-77089841D01*
X133054377Y-77192388D01*
X132993447Y-77322163D01*
X132989036Y-77350493D01*
X132974106Y-77446388D01*
X132971391Y-77463823D01*
X132972555Y-77472725D01*
X132972555Y-77472728D01*
X132976102Y-77499850D01*
X132989980Y-77605979D01*
X132993597Y-77614199D01*
X133044049Y-77728859D01*
X133047720Y-77737203D01*
X133053497Y-77744076D01*
X133053498Y-77744077D01*
X133113987Y-77816037D01*
X133139970Y-77846948D01*
X133162166Y-77861723D01*
X133215261Y-77897066D01*
X133259313Y-77926390D01*
X133290120Y-77936014D01*
X133349175Y-77975419D01*
X133377553Y-78040498D01*
X133373817Y-78084065D01*
X133374447Y-78084163D01*
X133355887Y-78203371D01*
X133352391Y-78225823D01*
X133353555Y-78234725D01*
X133353555Y-78234728D01*
X133357014Y-78261175D01*
X133370980Y-78367979D01*
X133374597Y-78376199D01*
X133419086Y-78477307D01*
X133428720Y-78499203D01*
X133434497Y-78506076D01*
X133434498Y-78506077D01*
X133441792Y-78514754D01*
X133520970Y-78608948D01*
X133549339Y-78627832D01*
X133601220Y-78662367D01*
X133640313Y-78688390D01*
X133777157Y-78731142D01*
X133786129Y-78731306D01*
X133786132Y-78731307D01*
X133851463Y-78732504D01*
X133920499Y-78733770D01*
X133929533Y-78731307D01*
X134050158Y-78698421D01*
X134050160Y-78698420D01*
X134058817Y-78696060D01*
X134180991Y-78621045D01*
X134187436Y-78613925D01*
X134223623Y-78573946D01*
X134284166Y-78536864D01*
X134317039Y-78532500D01*
X135331341Y-78532500D01*
X135399462Y-78552502D01*
X135420436Y-78569405D01*
X136461511Y-79610480D01*
X136495537Y-79672792D01*
X136490472Y-79743607D01*
X136447925Y-79800443D01*
X136439656Y-79806134D01*
X136324280Y-79878930D01*
X136318338Y-79885658D01*
X136318337Y-79885659D01*
X136295291Y-79911754D01*
X136229377Y-79986388D01*
X136168447Y-80116163D01*
X136165209Y-80136963D01*
X136148763Y-80242591D01*
X136146391Y-80257823D01*
X136147555Y-80266725D01*
X136147555Y-80266728D01*
X136150570Y-80289782D01*
X136164980Y-80399979D01*
X136168597Y-80408199D01*
X136219049Y-80522859D01*
X136222720Y-80531203D01*
X136228497Y-80538076D01*
X136228498Y-80538077D01*
X136230014Y-80539880D01*
X136309689Y-80634665D01*
X136314970Y-80640948D01*
X136314063Y-80641710D01*
X136346934Y-80694653D01*
X136351500Y-80728265D01*
X136351500Y-88229636D01*
X136351304Y-88232309D01*
X136349575Y-88237344D01*
X136350011Y-88248966D01*
X136350011Y-88248968D01*
X136351411Y-88286257D01*
X136351500Y-88290983D01*
X136351500Y-88309950D01*
X136352382Y-88314685D01*
X136352610Y-88318211D01*
X136352751Y-88321951D01*
X136353774Y-88349210D01*
X136358364Y-88359895D01*
X136359401Y-88364495D01*
X136362962Y-88376216D01*
X136364661Y-88380619D01*
X136366791Y-88392055D01*
X136379727Y-88413041D01*
X136388231Y-88429413D01*
X136394451Y-88443890D01*
X136394453Y-88443894D01*
X136397964Y-88452065D01*
X136401978Y-88456951D01*
X136404163Y-88459136D01*
X136406215Y-88461399D01*
X136406055Y-88461544D01*
X136413175Y-88470551D01*
X136419427Y-88477446D01*
X136425532Y-88487350D01*
X136447320Y-88503918D01*
X136460139Y-88515112D01*
X144640479Y-96695452D01*
X144642235Y-96697486D01*
X144644573Y-96702269D01*
X144653102Y-96710181D01*
X144653103Y-96710182D01*
X144680475Y-96735573D01*
X144683880Y-96738853D01*
X144697274Y-96752247D01*
X144701243Y-96754969D01*
X144703887Y-96757291D01*
X144718113Y-96770488D01*
X144718116Y-96770490D01*
X144726644Y-96778401D01*
X144737451Y-96782713D01*
X144741441Y-96785235D01*
X144752225Y-96790994D01*
X144756550Y-96792911D01*
X144766144Y-96799492D01*
X144777463Y-96802178D01*
X144777465Y-96802179D01*
X144790125Y-96805183D01*
X144807722Y-96810748D01*
X144822360Y-96816588D01*
X144822363Y-96816589D01*
X144830620Y-96819883D01*
X144836913Y-96820500D01*
X144839992Y-96820500D01*
X144843065Y-96820650D01*
X144843054Y-96820866D01*
X144854429Y-96822198D01*
X144863744Y-96822654D01*
X144875064Y-96825340D01*
X144886593Y-96823771D01*
X144886594Y-96823771D01*
X144902171Y-96821651D01*
X144919162Y-96820500D01*
X148032339Y-96820500D01*
X148100460Y-96840502D01*
X148121434Y-96857405D01*
X148975481Y-97711452D01*
X148977237Y-97713486D01*
X148979575Y-97718269D01*
X148988104Y-97726181D01*
X148988105Y-97726182D01*
X149015477Y-97751573D01*
X149018882Y-97754853D01*
X149032277Y-97768248D01*
X149036247Y-97770972D01*
X149038895Y-97773297D01*
X149053119Y-97786492D01*
X149053122Y-97786494D01*
X149061646Y-97794401D01*
X149072450Y-97798711D01*
X149076439Y-97801233D01*
X149087227Y-97806994D01*
X149091552Y-97808911D01*
X149101146Y-97815492D01*
X149112465Y-97818178D01*
X149112467Y-97818179D01*
X149125127Y-97821183D01*
X149142724Y-97826748D01*
X149157362Y-97832588D01*
X149157365Y-97832589D01*
X149165622Y-97835883D01*
X149171915Y-97836500D01*
X149174994Y-97836500D01*
X149178067Y-97836650D01*
X149178056Y-97836866D01*
X149189431Y-97838198D01*
X149198746Y-97838654D01*
X149210066Y-97841340D01*
X149221595Y-97839771D01*
X149221596Y-97839771D01*
X149237173Y-97837651D01*
X149254164Y-97836500D01*
X149900021Y-97836500D01*
X149968142Y-97856502D01*
X149996470Y-97881422D01*
X150022970Y-97912948D01*
X150142313Y-97992390D01*
X150279157Y-98035142D01*
X150288129Y-98035306D01*
X150288132Y-98035307D01*
X150353463Y-98036504D01*
X150422499Y-98037770D01*
X150431533Y-98035307D01*
X150552158Y-98002421D01*
X150552160Y-98002420D01*
X150560817Y-98000060D01*
X150682991Y-97925045D01*
X150779200Y-97818754D01*
X150824419Y-97725421D01*
X150837795Y-97697814D01*
X150837795Y-97697813D01*
X150841710Y-97689733D01*
X150865496Y-97548354D01*
X150865647Y-97536000D01*
X150852888Y-97446907D01*
X150846596Y-97402968D01*
X150846595Y-97402965D01*
X150845323Y-97394082D01*
X150785984Y-97263572D01*
X150767598Y-97242234D01*
X150698260Y-97161763D01*
X150698257Y-97161760D01*
X150692400Y-97154963D01*
X150572095Y-97076985D01*
X150434739Y-97035907D01*
X150425763Y-97035852D01*
X150425762Y-97035852D01*
X150365555Y-97035484D01*
X150291376Y-97035031D01*
X150202192Y-97060520D01*
X150150559Y-97060148D01*
X150117677Y-97097049D01*
X150032280Y-97150930D01*
X150006117Y-97180555D01*
X149995208Y-97192907D01*
X149935123Y-97230725D01*
X149900766Y-97235500D01*
X149401661Y-97235500D01*
X149333540Y-97215498D01*
X149312566Y-97198595D01*
X148722567Y-96608596D01*
X148688541Y-96546284D01*
X148693606Y-96475469D01*
X148736153Y-96418633D01*
X148802673Y-96393822D01*
X148811662Y-96393501D01*
X149244668Y-96393501D01*
X149312789Y-96413503D01*
X149359282Y-96467159D01*
X149369604Y-96503163D01*
X149372980Y-96528979D01*
X149430720Y-96660203D01*
X149436497Y-96667076D01*
X149436498Y-96667077D01*
X149496832Y-96738853D01*
X149522970Y-96769948D01*
X149530447Y-96774925D01*
X149620786Y-96835060D01*
X149642313Y-96849390D01*
X149779157Y-96892142D01*
X149788129Y-96892306D01*
X149788132Y-96892307D01*
X149853463Y-96893504D01*
X149922499Y-96894770D01*
X150017300Y-96868924D01*
X150067856Y-96869906D01*
X150101638Y-96831996D01*
X150126732Y-96816588D01*
X150182991Y-96782045D01*
X150279200Y-96675754D01*
X150341710Y-96546733D01*
X150365496Y-96405354D01*
X150365647Y-96393000D01*
X150356225Y-96327209D01*
X150346596Y-96259968D01*
X150346595Y-96259965D01*
X150345323Y-96251082D01*
X150285984Y-96120572D01*
X150240431Y-96067705D01*
X150198260Y-96018763D01*
X150198257Y-96018760D01*
X150192400Y-96011963D01*
X150072095Y-95933985D01*
X150063493Y-95931413D01*
X150063490Y-95931411D01*
X149950399Y-95897590D01*
X149890865Y-95858908D01*
X149861695Y-95794181D01*
X149860501Y-95776873D01*
X149860501Y-88928658D01*
X149880503Y-88860537D01*
X149897406Y-88839563D01*
X150115554Y-88621415D01*
X150177866Y-88587389D01*
X150204649Y-88584510D01*
X152005323Y-88584510D01*
X152007996Y-88584706D01*
X152013031Y-88586435D01*
X152024653Y-88585999D01*
X152024655Y-88585999D01*
X152061944Y-88584599D01*
X152066670Y-88584510D01*
X152085637Y-88584510D01*
X152090372Y-88583628D01*
X152093898Y-88583400D01*
X152097638Y-88583259D01*
X152124897Y-88582236D01*
X152135582Y-88577646D01*
X152140182Y-88576609D01*
X152151903Y-88573048D01*
X152156306Y-88571349D01*
X152167742Y-88569219D01*
X152188730Y-88556282D01*
X152205100Y-88547779D01*
X152219577Y-88541559D01*
X152219581Y-88541557D01*
X152227752Y-88538046D01*
X152232638Y-88534032D01*
X152234823Y-88531847D01*
X152237086Y-88529795D01*
X152237231Y-88529955D01*
X152246238Y-88522835D01*
X152253133Y-88516583D01*
X152263037Y-88510478D01*
X152279605Y-88488690D01*
X152290799Y-88475871D01*
X152467462Y-88299208D01*
X152469496Y-88297452D01*
X152474279Y-88295114D01*
X152500924Y-88266391D01*
X152507583Y-88259212D01*
X152510863Y-88255807D01*
X152524258Y-88242412D01*
X152526982Y-88238442D01*
X152529307Y-88235794D01*
X152542502Y-88221570D01*
X152542504Y-88221567D01*
X152550411Y-88213043D01*
X152554721Y-88202239D01*
X152557243Y-88198250D01*
X152563004Y-88187462D01*
X152564921Y-88183137D01*
X152571502Y-88173543D01*
X152575058Y-88158561D01*
X152577193Y-88149562D01*
X152582758Y-88131965D01*
X152588598Y-88117327D01*
X152588599Y-88117324D01*
X152591893Y-88109067D01*
X152592510Y-88102774D01*
X152592510Y-88099695D01*
X152592660Y-88096622D01*
X152592876Y-88096633D01*
X152594208Y-88085258D01*
X152594664Y-88075943D01*
X152597350Y-88064623D01*
X152593691Y-88037733D01*
X152593661Y-88037516D01*
X152592510Y-88020525D01*
X152592510Y-85492852D01*
X152612512Y-85424731D01*
X152666168Y-85378238D01*
X152736442Y-85368134D01*
X152801022Y-85397628D01*
X152814960Y-85411776D01*
X152824970Y-85423684D01*
X152944313Y-85503126D01*
X153081157Y-85545878D01*
X153090129Y-85546042D01*
X153090132Y-85546043D01*
X153155463Y-85547240D01*
X153224499Y-85548506D01*
X153233533Y-85546043D01*
X153354158Y-85513157D01*
X153354160Y-85513156D01*
X153362817Y-85510796D01*
X153484991Y-85435781D01*
X153526421Y-85390010D01*
X153575178Y-85336143D01*
X153581200Y-85329490D01*
X153643710Y-85200469D01*
X153667496Y-85059090D01*
X153667647Y-85046736D01*
X153666958Y-85041922D01*
X153666957Y-85041913D01*
X153666475Y-85038546D01*
X153666656Y-85037292D01*
X153666641Y-85037059D01*
X153666690Y-85037056D01*
X153676623Y-84968279D01*
X153702109Y-84931598D01*
X154147993Y-84485714D01*
X154210305Y-84451688D01*
X154281120Y-84456753D01*
X154337956Y-84499300D01*
X154352417Y-84524062D01*
X154383720Y-84595203D01*
X154389497Y-84602076D01*
X154389498Y-84602077D01*
X154401886Y-84616814D01*
X154475970Y-84704948D01*
X154525253Y-84737754D01*
X154570057Y-84767578D01*
X154615679Y-84821976D01*
X154624649Y-84892404D01*
X154594120Y-84956501D01*
X154534861Y-84993614D01*
X154488159Y-85006961D01*
X154488156Y-85006962D01*
X154479529Y-85009428D01*
X154358280Y-85085930D01*
X154263377Y-85193388D01*
X154202447Y-85323163D01*
X154197980Y-85351852D01*
X154184182Y-85440477D01*
X154180391Y-85464823D01*
X154181555Y-85473725D01*
X154181555Y-85473728D01*
X154187620Y-85520105D01*
X154198980Y-85606979D01*
X154256720Y-85738203D01*
X154343689Y-85841665D01*
X154348970Y-85847948D01*
X154348063Y-85848710D01*
X154380934Y-85901653D01*
X154385500Y-85935265D01*
X154385500Y-95127334D01*
X154385304Y-95130007D01*
X154383575Y-95135042D01*
X154384011Y-95146664D01*
X154384011Y-95146666D01*
X154385411Y-95183955D01*
X154385500Y-95188681D01*
X154385500Y-95207648D01*
X154386382Y-95212383D01*
X154386610Y-95215909D01*
X154387774Y-95246908D01*
X154392364Y-95257593D01*
X154393401Y-95262193D01*
X154396962Y-95273914D01*
X154398661Y-95278317D01*
X154400791Y-95289753D01*
X154406895Y-95299655D01*
X154413727Y-95310739D01*
X154422231Y-95327111D01*
X154428451Y-95341588D01*
X154428453Y-95341592D01*
X154431964Y-95349763D01*
X154435978Y-95354649D01*
X154438163Y-95356834D01*
X154440215Y-95359097D01*
X154440055Y-95359242D01*
X154447175Y-95368249D01*
X154453427Y-95375144D01*
X154459532Y-95385048D01*
X154481320Y-95401616D01*
X154494139Y-95412810D01*
X158666595Y-99585266D01*
X158700621Y-99647578D01*
X158703500Y-99674361D01*
X158703500Y-100628435D01*
X158683498Y-100696556D01*
X158671943Y-100711841D01*
X158581377Y-100814388D01*
X158520447Y-100944163D01*
X158511210Y-101003490D01*
X158501050Y-101068746D01*
X158498391Y-101085823D01*
X158499555Y-101094725D01*
X158499555Y-101094728D01*
X158502884Y-101120183D01*
X158516980Y-101227979D01*
X158520597Y-101236199D01*
X158561290Y-101328680D01*
X158574720Y-101359203D01*
X158580497Y-101366076D01*
X158580498Y-101366077D01*
X158600109Y-101389407D01*
X158666970Y-101468948D01*
X158786313Y-101548390D01*
X158923157Y-101591142D01*
X158932129Y-101591306D01*
X158932132Y-101591307D01*
X158997463Y-101592504D01*
X159066499Y-101593770D01*
X159075533Y-101591307D01*
X159196158Y-101558421D01*
X159196160Y-101558420D01*
X159204817Y-101556060D01*
X159326991Y-101481045D01*
X159423200Y-101374754D01*
X159485710Y-101245733D01*
X159509496Y-101104354D01*
X159509647Y-101092000D01*
X159501473Y-101034924D01*
X159490596Y-100958968D01*
X159490595Y-100958965D01*
X159489323Y-100950082D01*
X159429984Y-100819572D01*
X159336400Y-100710963D01*
X159338932Y-100708781D01*
X159309491Y-100662645D01*
X159304500Y-100627535D01*
X159304500Y-99962118D01*
X159324502Y-99893997D01*
X159378158Y-99847504D01*
X159448432Y-99837400D01*
X159516189Y-99869742D01*
X159522475Y-99875573D01*
X159525881Y-99878854D01*
X159539276Y-99892249D01*
X159543246Y-99894973D01*
X159545894Y-99897298D01*
X159553427Y-99904286D01*
X159568645Y-99918402D01*
X159579452Y-99922714D01*
X159583437Y-99925233D01*
X159594246Y-99931005D01*
X159598551Y-99932912D01*
X159608145Y-99939494D01*
X159632098Y-99945178D01*
X159632135Y-99945187D01*
X159649731Y-99950752D01*
X159672621Y-99959884D01*
X159678914Y-99960501D01*
X159681996Y-99960501D01*
X159685066Y-99960651D01*
X159685055Y-99960867D01*
X159696430Y-99962199D01*
X159705744Y-99962654D01*
X159717065Y-99965341D01*
X159728594Y-99963772D01*
X159728595Y-99963772D01*
X159744172Y-99961652D01*
X159761163Y-99960501D01*
X160255635Y-99960501D01*
X160258308Y-99960697D01*
X160263343Y-99962426D01*
X160274965Y-99961990D01*
X160274967Y-99961990D01*
X160312256Y-99960590D01*
X160316982Y-99960501D01*
X160335949Y-99960501D01*
X160340684Y-99959619D01*
X160344210Y-99959391D01*
X160347950Y-99959250D01*
X160375209Y-99958227D01*
X160385894Y-99953637D01*
X160390494Y-99952600D01*
X160402215Y-99949039D01*
X160406618Y-99947340D01*
X160418054Y-99945210D01*
X160439042Y-99932273D01*
X160455412Y-99923770D01*
X160469889Y-99917550D01*
X160469893Y-99917548D01*
X160478064Y-99914037D01*
X160482950Y-99910023D01*
X160485135Y-99907838D01*
X160487398Y-99905786D01*
X160487543Y-99905946D01*
X160496550Y-99898826D01*
X160503445Y-99892574D01*
X160513349Y-99886469D01*
X160529907Y-99864694D01*
X160541108Y-99851865D01*
X160833571Y-99559403D01*
X160895883Y-99525378D01*
X160922666Y-99522499D01*
X163477867Y-99522499D01*
X163545988Y-99542501D01*
X163592481Y-99596157D01*
X163602585Y-99666431D01*
X163601230Y-99672494D01*
X163600447Y-99674163D01*
X163578391Y-99815823D01*
X163579555Y-99824725D01*
X163579555Y-99824728D01*
X163585442Y-99869742D01*
X163596980Y-99957979D01*
X163625789Y-100023453D01*
X163643091Y-100062773D01*
X163654720Y-100089203D01*
X163660497Y-100096076D01*
X163660498Y-100096077D01*
X163680109Y-100119407D01*
X163746970Y-100198948D01*
X163866313Y-100278390D01*
X164003157Y-100321142D01*
X164012129Y-100321306D01*
X164012132Y-100321307D01*
X164091491Y-100322761D01*
X164110233Y-100323105D01*
X164177975Y-100344352D01*
X164197018Y-100359989D01*
X164942482Y-101105453D01*
X164944238Y-101107487D01*
X164946576Y-101112270D01*
X164955105Y-101120182D01*
X164955106Y-101120183D01*
X164982478Y-101145574D01*
X164985883Y-101148854D01*
X164999278Y-101162249D01*
X165003248Y-101164973D01*
X165005896Y-101167298D01*
X165020120Y-101180493D01*
X165020123Y-101180495D01*
X165028647Y-101188402D01*
X165039451Y-101192712D01*
X165043440Y-101195234D01*
X165054228Y-101200995D01*
X165058553Y-101202912D01*
X165068147Y-101209493D01*
X165079466Y-101212179D01*
X165079468Y-101212180D01*
X165092128Y-101215184D01*
X165109725Y-101220749D01*
X165124363Y-101226589D01*
X165124366Y-101226590D01*
X165132623Y-101229884D01*
X165138916Y-101230501D01*
X165141995Y-101230501D01*
X165145068Y-101230651D01*
X165145057Y-101230867D01*
X165156432Y-101232199D01*
X165165747Y-101232655D01*
X165177067Y-101235341D01*
X165188596Y-101233772D01*
X165188597Y-101233772D01*
X165204174Y-101231652D01*
X165221165Y-101230501D01*
X173664000Y-101230501D01*
X173732121Y-101250503D01*
X173778614Y-101304159D01*
X173790000Y-101356501D01*
X173790000Y-102643124D01*
X173769998Y-102711245D01*
X173716342Y-102757738D01*
X173663229Y-102769122D01*
X173648376Y-102769031D01*
X173510529Y-102808428D01*
X173389280Y-102884930D01*
X173294377Y-102992388D01*
X173233447Y-103122163D01*
X173225994Y-103170032D01*
X173213820Y-103248223D01*
X173211391Y-103263823D01*
X173212555Y-103272725D01*
X173212555Y-103272728D01*
X173217260Y-103308705D01*
X173229980Y-103405979D01*
X173287720Y-103537203D01*
X173293497Y-103544076D01*
X173293498Y-103544077D01*
X173307776Y-103561063D01*
X173374689Y-103640665D01*
X173379970Y-103646948D01*
X173379063Y-103647710D01*
X173411934Y-103700653D01*
X173416500Y-103734265D01*
X173416500Y-103776341D01*
X173396498Y-103844462D01*
X173379595Y-103865436D01*
X173061436Y-104183595D01*
X172999124Y-104217621D01*
X172972341Y-104220500D01*
X171571674Y-104220500D01*
X171568997Y-104220303D01*
X171563960Y-104218574D01*
X171552339Y-104219010D01*
X171552337Y-104219010D01*
X171515032Y-104220411D01*
X171510305Y-104220500D01*
X171491354Y-104220500D01*
X171486621Y-104221382D01*
X171483094Y-104221610D01*
X171463722Y-104222337D01*
X171463720Y-104222338D01*
X171452094Y-104222774D01*
X171441402Y-104227368D01*
X171436799Y-104228405D01*
X171425089Y-104231962D01*
X171420686Y-104233661D01*
X171409249Y-104235791D01*
X171399348Y-104241894D01*
X171399345Y-104241895D01*
X171388258Y-104248729D01*
X171371887Y-104257233D01*
X171357408Y-104263454D01*
X171357405Y-104263456D01*
X171349240Y-104266964D01*
X171344353Y-104270977D01*
X171342158Y-104273172D01*
X171339888Y-104275230D01*
X171339741Y-104275068D01*
X171330762Y-104282166D01*
X171323855Y-104288429D01*
X171313954Y-104294532D01*
X171306915Y-104303789D01*
X171306913Y-104303791D01*
X171297395Y-104316309D01*
X171286192Y-104329139D01*
X170561746Y-105053585D01*
X170499434Y-105087611D01*
X170472651Y-105090490D01*
X164749651Y-105090490D01*
X164681530Y-105070488D01*
X164660556Y-105053585D01*
X162910405Y-103303434D01*
X162876379Y-103241122D01*
X162873500Y-103214339D01*
X162873500Y-101795449D01*
X162893502Y-101727328D01*
X162906085Y-101710894D01*
X162986176Y-101622411D01*
X162986181Y-101622404D01*
X162992200Y-101615754D01*
X163054710Y-101486733D01*
X163078496Y-101345354D01*
X163078647Y-101333000D01*
X163070473Y-101275924D01*
X163059596Y-101199968D01*
X163059595Y-101199965D01*
X163058323Y-101191082D01*
X163053509Y-101180493D01*
X163022528Y-101112354D01*
X162998984Y-101060572D01*
X162980598Y-101039234D01*
X162911260Y-100958763D01*
X162911257Y-100958760D01*
X162905400Y-100951963D01*
X162785095Y-100873985D01*
X162647739Y-100832907D01*
X162638763Y-100832852D01*
X162638762Y-100832852D01*
X162578555Y-100832484D01*
X162504376Y-100832031D01*
X162366529Y-100871428D01*
X162245280Y-100947930D01*
X162239338Y-100954658D01*
X162239337Y-100954659D01*
X162233706Y-100961035D01*
X162150377Y-101055388D01*
X162089447Y-101185163D01*
X162081535Y-101235979D01*
X162070920Y-101304159D01*
X162067391Y-101326823D01*
X162068555Y-101335725D01*
X162068555Y-101335728D01*
X162073659Y-101374754D01*
X162085980Y-101468979D01*
X162093792Y-101486733D01*
X162128856Y-101566421D01*
X162143720Y-101600203D01*
X162149497Y-101607076D01*
X162149498Y-101607077D01*
X162156792Y-101615754D01*
X162230689Y-101703665D01*
X162235970Y-101709948D01*
X162235063Y-101710710D01*
X162267934Y-101763653D01*
X162272500Y-101797265D01*
X162272500Y-103338634D01*
X162272304Y-103341307D01*
X162270575Y-103346342D01*
X162271011Y-103357964D01*
X162271011Y-103357966D01*
X162272411Y-103395255D01*
X162272500Y-103399981D01*
X162272500Y-103418948D01*
X162273382Y-103423683D01*
X162273610Y-103427209D01*
X162274774Y-103458208D01*
X162279364Y-103468893D01*
X162280401Y-103473493D01*
X162283962Y-103485214D01*
X162285661Y-103489617D01*
X162287791Y-103501053D01*
X162293895Y-103510955D01*
X162300727Y-103522039D01*
X162309231Y-103538411D01*
X162315451Y-103552888D01*
X162315453Y-103552892D01*
X162318964Y-103561063D01*
X162322978Y-103565949D01*
X162325163Y-103568134D01*
X162327215Y-103570397D01*
X162327055Y-103570542D01*
X162334175Y-103579549D01*
X162340427Y-103586444D01*
X162346532Y-103596348D01*
X162368320Y-103612916D01*
X162381139Y-103624110D01*
X164323471Y-105566442D01*
X164325227Y-105568476D01*
X164327565Y-105573259D01*
X164336094Y-105581171D01*
X164336095Y-105581172D01*
X164363467Y-105606563D01*
X164366872Y-105609843D01*
X164380267Y-105623238D01*
X164384237Y-105625962D01*
X164386885Y-105628287D01*
X164401109Y-105641482D01*
X164401112Y-105641484D01*
X164409636Y-105649391D01*
X164420440Y-105653701D01*
X164424429Y-105656223D01*
X164435217Y-105661984D01*
X164439542Y-105663901D01*
X164449136Y-105670482D01*
X164460455Y-105673168D01*
X164460457Y-105673169D01*
X164473117Y-105676173D01*
X164490714Y-105681738D01*
X164505352Y-105687578D01*
X164505355Y-105687579D01*
X164513612Y-105690873D01*
X164519905Y-105691490D01*
X164522984Y-105691490D01*
X164526057Y-105691640D01*
X164526046Y-105691856D01*
X164537421Y-105693188D01*
X164546736Y-105693644D01*
X164558056Y-105696330D01*
X164569585Y-105694761D01*
X164569586Y-105694761D01*
X164585163Y-105692641D01*
X164602154Y-105691490D01*
X170596946Y-105691490D01*
X170599619Y-105691686D01*
X170604654Y-105693415D01*
X170616276Y-105692979D01*
X170616278Y-105692979D01*
X170653567Y-105691579D01*
X170658293Y-105691490D01*
X170677260Y-105691490D01*
X170681995Y-105690608D01*
X170685521Y-105690380D01*
X170689261Y-105690239D01*
X170716520Y-105689216D01*
X170727205Y-105684626D01*
X170731805Y-105683589D01*
X170743526Y-105680028D01*
X170747929Y-105678329D01*
X170759365Y-105676199D01*
X170780353Y-105663262D01*
X170796723Y-105654759D01*
X170811200Y-105648539D01*
X170811204Y-105648537D01*
X170819375Y-105645026D01*
X170824261Y-105641012D01*
X170826446Y-105638827D01*
X170828709Y-105636775D01*
X170828854Y-105636935D01*
X170837861Y-105629815D01*
X170844756Y-105623563D01*
X170854660Y-105617458D01*
X170871228Y-105595670D01*
X170882422Y-105582851D01*
X171606868Y-104858405D01*
X171669180Y-104824379D01*
X171695963Y-104821500D01*
X173096636Y-104821500D01*
X173099309Y-104821696D01*
X173104344Y-104823425D01*
X173115966Y-104822989D01*
X173115968Y-104822989D01*
X173153257Y-104821589D01*
X173157983Y-104821500D01*
X173176950Y-104821500D01*
X173181685Y-104820618D01*
X173185211Y-104820390D01*
X173188951Y-104820249D01*
X173216210Y-104819226D01*
X173226895Y-104814636D01*
X173231495Y-104813599D01*
X173243216Y-104810038D01*
X173247619Y-104808339D01*
X173259055Y-104806209D01*
X173280043Y-104793272D01*
X173296413Y-104784769D01*
X173310890Y-104778549D01*
X173310894Y-104778547D01*
X173319065Y-104775036D01*
X173323951Y-104771022D01*
X173326136Y-104768837D01*
X173328399Y-104766785D01*
X173328544Y-104766945D01*
X173337551Y-104759825D01*
X173344446Y-104753573D01*
X173354350Y-104747468D01*
X173370918Y-104725680D01*
X173382112Y-104712861D01*
X173574905Y-104520068D01*
X173637217Y-104486042D01*
X173708032Y-104491107D01*
X173764868Y-104533654D01*
X173789679Y-104600174D01*
X173790000Y-104609163D01*
X173790000Y-105889083D01*
X173790616Y-105904773D01*
X173792167Y-105924483D01*
X173794013Y-105940079D01*
X173808917Y-106034181D01*
X173816243Y-106064697D01*
X173828425Y-106102190D01*
X173829366Y-106104463D01*
X173829368Y-106104467D01*
X173837783Y-106124782D01*
X173845372Y-106195372D01*
X173813592Y-106258859D01*
X173752534Y-106295086D01*
X173721374Y-106299000D01*
X130549917Y-106299000D01*
X130530207Y-106297449D01*
X130436105Y-106282545D01*
X130398612Y-106270363D01*
X130322665Y-106231666D01*
X130290773Y-106208494D01*
X130246905Y-106164626D01*
X130212879Y-106102314D01*
X130210000Y-106075531D01*
X130210000Y-101093823D01*
X154964391Y-101093823D01*
X154965555Y-101102725D01*
X154965555Y-101102728D01*
X154966395Y-101109149D01*
X154982980Y-101235979D01*
X155040720Y-101367203D01*
X155046497Y-101374076D01*
X155046498Y-101374077D01*
X155081924Y-101416221D01*
X155132970Y-101476948D01*
X155192642Y-101516669D01*
X155244763Y-101551364D01*
X155252313Y-101556390D01*
X155389157Y-101599142D01*
X155398129Y-101599306D01*
X155398132Y-101599307D01*
X155463463Y-101600504D01*
X155532499Y-101601770D01*
X155541533Y-101599307D01*
X155662158Y-101566421D01*
X155662160Y-101566420D01*
X155670817Y-101564060D01*
X155792991Y-101489045D01*
X155862058Y-101412741D01*
X155922600Y-101375660D01*
X155993580Y-101377197D01*
X156051924Y-101416221D01*
X156102970Y-101476948D01*
X156162642Y-101516669D01*
X156214763Y-101551364D01*
X156222313Y-101556390D01*
X156359157Y-101599142D01*
X156368129Y-101599306D01*
X156368132Y-101599307D01*
X156433463Y-101600504D01*
X156502499Y-101601770D01*
X156511533Y-101599307D01*
X156632158Y-101566421D01*
X156632160Y-101566420D01*
X156640817Y-101564060D01*
X156762991Y-101489045D01*
X156773714Y-101477199D01*
X156853178Y-101389407D01*
X156859200Y-101382754D01*
X156863114Y-101374676D01*
X156868132Y-101367236D01*
X156870118Y-101368576D01*
X156909134Y-101325572D01*
X156977693Y-101307129D01*
X157045340Y-101328680D01*
X157079262Y-101363891D01*
X157080720Y-101367203D01*
X157172970Y-101476948D01*
X157232642Y-101516669D01*
X157284763Y-101551364D01*
X157292313Y-101556390D01*
X157429157Y-101599142D01*
X157438129Y-101599306D01*
X157438132Y-101599307D01*
X157503463Y-101600504D01*
X157572499Y-101601770D01*
X157581533Y-101599307D01*
X157702158Y-101566421D01*
X157702160Y-101566420D01*
X157710817Y-101564060D01*
X157832991Y-101489045D01*
X157843714Y-101477199D01*
X157923178Y-101389407D01*
X157929200Y-101382754D01*
X157991710Y-101253733D01*
X158015496Y-101112354D01*
X158015572Y-101106136D01*
X158015588Y-101104859D01*
X158015588Y-101104854D01*
X158015647Y-101100000D01*
X157995323Y-100958082D01*
X157988995Y-100944163D01*
X157976179Y-100915977D01*
X157935984Y-100827572D01*
X157900387Y-100786260D01*
X157848260Y-100725763D01*
X157848257Y-100725760D01*
X157842400Y-100718963D01*
X157722095Y-100640985D01*
X157584739Y-100599907D01*
X157575763Y-100599852D01*
X157575762Y-100599852D01*
X157515555Y-100599484D01*
X157441376Y-100599031D01*
X157303529Y-100638428D01*
X157182280Y-100714930D01*
X157087377Y-100822388D01*
X157083564Y-100830509D01*
X157080231Y-100835583D01*
X157026114Y-100881537D01*
X156955742Y-100890938D01*
X156891459Y-100860801D01*
X156869343Y-100834961D01*
X156865984Y-100827572D01*
X156819192Y-100773268D01*
X156778260Y-100725763D01*
X156778257Y-100725760D01*
X156772400Y-100718963D01*
X156652095Y-100640985D01*
X156514739Y-100599907D01*
X156505763Y-100599852D01*
X156505762Y-100599852D01*
X156445555Y-100599484D01*
X156371376Y-100599031D01*
X156233529Y-100638428D01*
X156112280Y-100714930D01*
X156106338Y-100721658D01*
X156106337Y-100721659D01*
X156049284Y-100786260D01*
X155989198Y-100824079D01*
X155918204Y-100823409D01*
X155859389Y-100785101D01*
X155808260Y-100725763D01*
X155808257Y-100725760D01*
X155802400Y-100718963D01*
X155682095Y-100640985D01*
X155544739Y-100599907D01*
X155535763Y-100599852D01*
X155535762Y-100599852D01*
X155475555Y-100599484D01*
X155401376Y-100599031D01*
X155263529Y-100638428D01*
X155142280Y-100714930D01*
X155047377Y-100822388D01*
X154986447Y-100952163D01*
X154964391Y-101093823D01*
X130210000Y-101093823D01*
X130210000Y-99823823D01*
X157004391Y-99823823D01*
X157005555Y-99832725D01*
X157005555Y-99832728D01*
X157011368Y-99877176D01*
X157022980Y-99965979D01*
X157080720Y-100097203D01*
X157086497Y-100104076D01*
X157086498Y-100104077D01*
X157088225Y-100106131D01*
X157172970Y-100206948D01*
X157292313Y-100286390D01*
X157429157Y-100329142D01*
X157438129Y-100329306D01*
X157438132Y-100329307D01*
X157503463Y-100330504D01*
X157572499Y-100331770D01*
X157581533Y-100329307D01*
X157702158Y-100296421D01*
X157702160Y-100296420D01*
X157710817Y-100294060D01*
X157832991Y-100219045D01*
X157859287Y-100189994D01*
X157923178Y-100119407D01*
X157929200Y-100112754D01*
X157991710Y-99983733D01*
X158015496Y-99842354D01*
X158015647Y-99830000D01*
X157995323Y-99688082D01*
X157989085Y-99674361D01*
X157965355Y-99622171D01*
X157935984Y-99557572D01*
X157907084Y-99524032D01*
X157848260Y-99455763D01*
X157848257Y-99455760D01*
X157842400Y-99448963D01*
X157722095Y-99370985D01*
X157584739Y-99329907D01*
X157575763Y-99329852D01*
X157575762Y-99329852D01*
X157515555Y-99329484D01*
X157441376Y-99329031D01*
X157303529Y-99368428D01*
X157182280Y-99444930D01*
X157087377Y-99552388D01*
X157026447Y-99682163D01*
X157004391Y-99823823D01*
X130210000Y-99823823D01*
X130210000Y-95653834D01*
X132274500Y-95653834D01*
X132277481Y-95685369D01*
X132322366Y-95813184D01*
X132327958Y-95820754D01*
X132327959Y-95820757D01*
X132356138Y-95858908D01*
X132402850Y-95922150D01*
X132410421Y-95927742D01*
X132504243Y-95997041D01*
X132504246Y-95997042D01*
X132511816Y-96002634D01*
X132639631Y-96047519D01*
X132647277Y-96048242D01*
X132647278Y-96048242D01*
X132653248Y-96048806D01*
X132671166Y-96050500D01*
X134028834Y-96050500D01*
X134046752Y-96048806D01*
X134052722Y-96048242D01*
X134052723Y-96048242D01*
X134060369Y-96047519D01*
X134188184Y-96002634D01*
X134195754Y-95997042D01*
X134195757Y-95997041D01*
X134289579Y-95927742D01*
X134297150Y-95922150D01*
X134343862Y-95858908D01*
X134372041Y-95820757D01*
X134372042Y-95820754D01*
X134377634Y-95813184D01*
X134422519Y-95685369D01*
X134425500Y-95653834D01*
X134425500Y-94846166D01*
X134422519Y-94814631D01*
X134377634Y-94686816D01*
X134372042Y-94679246D01*
X134372041Y-94679243D01*
X134302742Y-94585421D01*
X134297150Y-94577850D01*
X134211697Y-94514733D01*
X134195757Y-94502959D01*
X134195754Y-94502958D01*
X134188184Y-94497366D01*
X134060369Y-94452481D01*
X134052723Y-94451758D01*
X134052722Y-94451758D01*
X134046752Y-94451194D01*
X134028834Y-94449500D01*
X132671166Y-94449500D01*
X132653248Y-94451194D01*
X132647278Y-94451758D01*
X132647277Y-94451758D01*
X132639631Y-94452481D01*
X132511816Y-94497366D01*
X132504246Y-94502958D01*
X132504243Y-94502959D01*
X132488303Y-94514733D01*
X132402850Y-94577850D01*
X132397258Y-94585421D01*
X132327959Y-94679243D01*
X132327958Y-94679246D01*
X132322366Y-94686816D01*
X132277481Y-94814631D01*
X132274500Y-94846166D01*
X132274500Y-95653834D01*
X130210000Y-95653834D01*
X130210000Y-80286834D01*
X131639500Y-80286834D01*
X131642481Y-80318369D01*
X131687366Y-80446184D01*
X131692958Y-80453754D01*
X131692959Y-80453757D01*
X131740410Y-80518000D01*
X131767850Y-80555150D01*
X131775421Y-80560742D01*
X131869243Y-80630041D01*
X131869246Y-80630042D01*
X131876816Y-80635634D01*
X132004631Y-80680519D01*
X132012277Y-80681242D01*
X132012278Y-80681242D01*
X132018248Y-80681806D01*
X132036166Y-80683500D01*
X133393834Y-80683500D01*
X133411752Y-80681806D01*
X133417722Y-80681242D01*
X133417723Y-80681242D01*
X133425369Y-80680519D01*
X133553184Y-80635634D01*
X133560754Y-80630042D01*
X133560757Y-80630041D01*
X133654579Y-80560742D01*
X133662150Y-80555150D01*
X133689590Y-80518000D01*
X133737041Y-80453757D01*
X133737042Y-80453754D01*
X133742634Y-80446184D01*
X133787519Y-80318369D01*
X133790500Y-80286834D01*
X133790500Y-79479166D01*
X133787519Y-79447631D01*
X133742634Y-79319816D01*
X133737042Y-79312246D01*
X133737041Y-79312243D01*
X133667742Y-79218421D01*
X133662150Y-79210850D01*
X133613439Y-79174871D01*
X133560757Y-79135959D01*
X133560754Y-79135958D01*
X133553184Y-79130366D01*
X133425369Y-79085481D01*
X133417723Y-79084758D01*
X133417722Y-79084758D01*
X133411752Y-79084194D01*
X133393834Y-79082500D01*
X132036166Y-79082500D01*
X132018248Y-79084194D01*
X132012278Y-79084758D01*
X132012277Y-79084758D01*
X132004631Y-79085481D01*
X131876816Y-79130366D01*
X131869246Y-79135958D01*
X131869243Y-79135959D01*
X131816561Y-79174871D01*
X131767850Y-79210850D01*
X131762258Y-79218421D01*
X131692959Y-79312243D01*
X131692958Y-79312246D01*
X131687366Y-79319816D01*
X131642481Y-79447631D01*
X131639500Y-79479166D01*
X131639500Y-80286834D01*
X130210000Y-80286834D01*
X130210000Y-74788834D01*
X131079500Y-74788834D01*
X131082481Y-74820369D01*
X131127366Y-74948184D01*
X131132958Y-74955754D01*
X131132959Y-74955757D01*
X131193492Y-75037711D01*
X131207850Y-75057150D01*
X131215421Y-75062742D01*
X131309243Y-75132041D01*
X131309246Y-75132042D01*
X131316816Y-75137634D01*
X131444631Y-75182519D01*
X131452277Y-75183242D01*
X131452278Y-75183242D01*
X131458248Y-75183806D01*
X131476166Y-75185500D01*
X132283834Y-75185500D01*
X132301752Y-75183806D01*
X132307722Y-75183242D01*
X132307723Y-75183242D01*
X132315369Y-75182519D01*
X132443184Y-75137634D01*
X132450754Y-75132042D01*
X132450757Y-75132041D01*
X132544579Y-75062742D01*
X132552150Y-75057150D01*
X132566508Y-75037711D01*
X132627041Y-74955757D01*
X132627042Y-74955754D01*
X132632634Y-74948184D01*
X132677519Y-74820369D01*
X132680500Y-74788834D01*
X132680500Y-73431166D01*
X132677519Y-73399631D01*
X132632634Y-73271816D01*
X132627042Y-73264246D01*
X132627041Y-73264243D01*
X132557742Y-73170421D01*
X132552150Y-73162850D01*
X132502881Y-73126459D01*
X132450757Y-73087959D01*
X132450754Y-73087958D01*
X132443184Y-73082366D01*
X132315369Y-73037481D01*
X132307723Y-73036758D01*
X132307722Y-73036758D01*
X132301752Y-73036194D01*
X132283834Y-73034500D01*
X131476166Y-73034500D01*
X131458248Y-73036194D01*
X131452278Y-73036758D01*
X131452277Y-73036758D01*
X131444631Y-73037481D01*
X131316816Y-73082366D01*
X131309246Y-73087958D01*
X131309243Y-73087959D01*
X131257119Y-73126459D01*
X131207850Y-73162850D01*
X131202258Y-73170421D01*
X131132959Y-73264243D01*
X131132958Y-73264246D01*
X131127366Y-73271816D01*
X131082481Y-73399631D01*
X131079500Y-73431166D01*
X131079500Y-74788834D01*
X130210000Y-74788834D01*
X130210000Y-69258834D01*
X131079500Y-69258834D01*
X131082481Y-69290369D01*
X131127366Y-69418184D01*
X131132958Y-69425754D01*
X131132959Y-69425757D01*
X131195335Y-69510206D01*
X131207850Y-69527150D01*
X131215421Y-69532742D01*
X131309243Y-69602041D01*
X131309246Y-69602042D01*
X131316816Y-69607634D01*
X131444631Y-69652519D01*
X131452277Y-69653242D01*
X131452278Y-69653242D01*
X131458248Y-69653806D01*
X131476166Y-69655500D01*
X132283834Y-69655500D01*
X132301752Y-69653806D01*
X132307722Y-69653242D01*
X132307723Y-69653242D01*
X132315369Y-69652519D01*
X132443184Y-69607634D01*
X132450754Y-69602042D01*
X132450757Y-69602041D01*
X132544579Y-69532742D01*
X132552150Y-69527150D01*
X132564665Y-69510206D01*
X132627041Y-69425757D01*
X132627042Y-69425754D01*
X132632634Y-69418184D01*
X132677519Y-69290369D01*
X132680500Y-69258834D01*
X132680500Y-67901166D01*
X132677519Y-67869631D01*
X132632634Y-67741816D01*
X132627042Y-67734246D01*
X132627041Y-67734243D01*
X132557742Y-67640421D01*
X132552150Y-67632850D01*
X132535206Y-67620335D01*
X132450757Y-67557959D01*
X132450754Y-67557958D01*
X132443184Y-67552366D01*
X132315369Y-67507481D01*
X132307723Y-67506758D01*
X132307722Y-67506758D01*
X132301752Y-67506194D01*
X132283834Y-67504500D01*
X131476166Y-67504500D01*
X131458248Y-67506194D01*
X131452278Y-67506758D01*
X131452277Y-67506758D01*
X131444631Y-67507481D01*
X131316816Y-67552366D01*
X131309246Y-67557958D01*
X131309243Y-67557959D01*
X131224794Y-67620335D01*
X131207850Y-67632850D01*
X131202258Y-67640421D01*
X131132959Y-67734243D01*
X131132958Y-67734246D01*
X131127366Y-67741816D01*
X131082481Y-67869631D01*
X131079500Y-67901166D01*
X131079500Y-69258834D01*
X130210000Y-69258834D01*
X130210000Y-67152469D01*
X130230002Y-67084348D01*
X130246905Y-67063374D01*
X130290773Y-67019506D01*
X130322665Y-66996334D01*
X130398612Y-66957637D01*
X130436105Y-66945455D01*
X130454809Y-66942493D01*
X130530207Y-66930551D01*
X130549917Y-66929000D01*
X168953842Y-66929000D01*
X169021963Y-66949002D01*
G37*
G04 #@! TD.AperFunction*
G04 #@! TA.AperFunction,Conductor*
G36*
X183368342Y-102503242D02*
G01*
X183421998Y-102549735D01*
X183442000Y-102617856D01*
X183442000Y-103120706D01*
X183421998Y-103188827D01*
X183368342Y-103235320D01*
X183298068Y-103245424D01*
X183237482Y-103219250D01*
X183179106Y-103172735D01*
X183172729Y-103169667D01*
X183116860Y-103142789D01*
X183116853Y-103142786D01*
X183115128Y-103141956D01*
X183113359Y-103141235D01*
X183113351Y-103141231D01*
X183107583Y-103138879D01*
X183092476Y-103132718D01*
X183083514Y-103131804D01*
X183083513Y-103131804D01*
X183024172Y-103125754D01*
X183003926Y-103123690D01*
X182996901Y-103124557D01*
X182996900Y-103124557D01*
X182941459Y-103131399D01*
X182941457Y-103131400D01*
X182934760Y-103132226D01*
X182918199Y-103138023D01*
X182901274Y-103141355D01*
X182901205Y-103141104D01*
X182892549Y-103143464D01*
X182807936Y-103166532D01*
X182772484Y-103170948D01*
X182750137Y-103170538D01*
X182750127Y-103170538D01*
X182722503Y-103170032D01*
X182687243Y-103164321D01*
X182639514Y-103149411D01*
X182607267Y-103134029D01*
X182565655Y-103106328D01*
X182539027Y-103082519D01*
X182506858Y-103044250D01*
X182487979Y-103013922D01*
X182467845Y-102968164D01*
X182458238Y-102933755D01*
X182451756Y-102884179D01*
X182452193Y-102848460D01*
X182459884Y-102799063D01*
X182470329Y-102764899D01*
X182491574Y-102719648D01*
X182511188Y-102689789D01*
X182544282Y-102652317D01*
X182571488Y-102629162D01*
X182589407Y-102617856D01*
X182613770Y-102602484D01*
X182646377Y-102587899D01*
X182694446Y-102574161D01*
X182729838Y-102569312D01*
X182756265Y-102569473D01*
X182757332Y-102569480D01*
X182757333Y-102569480D01*
X182758085Y-102569485D01*
X182779833Y-102569618D01*
X182815161Y-102574899D01*
X182902550Y-102601033D01*
X182907790Y-102602600D01*
X182909316Y-102602875D01*
X182911760Y-102603527D01*
X182933302Y-102609904D01*
X182940068Y-102610395D01*
X182940072Y-102610396D01*
X182979608Y-102613267D01*
X183018531Y-102616093D01*
X183025248Y-102615127D01*
X183025253Y-102615127D01*
X183074978Y-102607977D01*
X183088805Y-102605989D01*
X183090681Y-102605601D01*
X183090692Y-102605599D01*
X183096543Y-102604388D01*
X183112762Y-102601033D01*
X183191314Y-102559175D01*
X183196656Y-102554546D01*
X183196662Y-102554542D01*
X183233488Y-102522632D01*
X183298068Y-102493139D01*
X183368342Y-102503242D01*
G37*
G04 #@! TD.AperFunction*
G04 #@! TA.AperFunction,Conductor*
G36*
X165641466Y-90390002D02*
G01*
X165687959Y-90443658D01*
X165698063Y-90513932D01*
X165669151Y-90577836D01*
X165665323Y-90582317D01*
X165665316Y-90582326D01*
X165663705Y-90584212D01*
X165640533Y-90616104D01*
X165624133Y-90642867D01*
X165585436Y-90718814D01*
X165573425Y-90747810D01*
X165561243Y-90785303D01*
X165553917Y-90815819D01*
X165539013Y-90909921D01*
X165537167Y-90925517D01*
X165535616Y-90945227D01*
X165535000Y-90960917D01*
X165535000Y-95729083D01*
X165535616Y-95744773D01*
X165535710Y-95745963D01*
X165535711Y-95745986D01*
X165537073Y-95763293D01*
X165537167Y-95764483D01*
X165539013Y-95780079D01*
X165553917Y-95874181D01*
X165561243Y-95904697D01*
X165562010Y-95907059D01*
X165562011Y-95907061D01*
X165572620Y-95939711D01*
X165573425Y-95942190D01*
X165574365Y-95944460D01*
X165574369Y-95944470D01*
X165582623Y-95964395D01*
X165585436Y-95971186D01*
X165600408Y-96000569D01*
X165618612Y-96036297D01*
X165631716Y-96106074D01*
X165605016Y-96171858D01*
X165546989Y-96212765D01*
X165506345Y-96219500D01*
X162511549Y-96219500D01*
X162443428Y-96199498D01*
X162416096Y-96175748D01*
X162390259Y-96145763D01*
X162384400Y-96138963D01*
X162264095Y-96060985D01*
X162126739Y-96019907D01*
X162117763Y-96019852D01*
X162117762Y-96019852D01*
X162057555Y-96019484D01*
X161983376Y-96019031D01*
X161845529Y-96058428D01*
X161724280Y-96134930D01*
X161718338Y-96141658D01*
X161718337Y-96141659D01*
X161688231Y-96175748D01*
X161629377Y-96242388D01*
X161568447Y-96372163D01*
X161568390Y-96372136D01*
X161531949Y-96427477D01*
X161467044Y-96456249D01*
X161396887Y-96445364D01*
X161361406Y-96420435D01*
X159376404Y-94435433D01*
X159342378Y-94373121D01*
X159339499Y-94346338D01*
X159339499Y-94328200D01*
X159359501Y-94260079D01*
X159413157Y-94213586D01*
X159483431Y-94203482D01*
X159503064Y-94207930D01*
X159558157Y-94225142D01*
X159567129Y-94225306D01*
X159567132Y-94225307D01*
X159632463Y-94226504D01*
X159701499Y-94227770D01*
X159710533Y-94225307D01*
X159831158Y-94192421D01*
X159831160Y-94192420D01*
X159839817Y-94190060D01*
X159961991Y-94115045D01*
X159988134Y-94086163D01*
X160052178Y-94015407D01*
X160058200Y-94008754D01*
X160120710Y-93879733D01*
X160144496Y-93738354D01*
X160144647Y-93726000D01*
X160136473Y-93668924D01*
X160125596Y-93592968D01*
X160125595Y-93592965D01*
X160124323Y-93584082D01*
X160064984Y-93453572D01*
X159971400Y-93344963D01*
X159973932Y-93342781D01*
X159944491Y-93296645D01*
X159939500Y-93261535D01*
X159939500Y-93068100D01*
X160401000Y-93345000D01*
X160401000Y-93980000D01*
X161544000Y-93980000D01*
X161925000Y-94361000D01*
X161925000Y-95250000D01*
X165227000Y-95250000D01*
X165227000Y-90678000D01*
X159302969Y-90678000D01*
X159210064Y-90585095D01*
X159176038Y-90522783D01*
X159181103Y-90451968D01*
X159223650Y-90395132D01*
X159290170Y-90370321D01*
X159299159Y-90370000D01*
X165573345Y-90370000D01*
X165641466Y-90390002D01*
G37*
G04 #@! TD.AperFunction*
G04 #@! TA.AperFunction,Conductor*
G36*
X180360589Y-88358002D02*
G01*
X180407082Y-88411658D01*
X180417186Y-88481932D01*
X180387692Y-88546512D01*
X180360407Y-88570115D01*
X180352948Y-88574890D01*
X180351376Y-88576038D01*
X180340686Y-88583844D01*
X180333189Y-88589318D01*
X180314078Y-88614224D01*
X180283312Y-88654318D01*
X180283310Y-88654321D01*
X180279004Y-88659933D01*
X180276053Y-88666366D01*
X180251946Y-88718917D01*
X180249401Y-88724464D01*
X180240580Y-88747281D01*
X180239830Y-88756264D01*
X180234410Y-88821173D01*
X180233173Y-88835981D01*
X180234167Y-88842979D01*
X180234167Y-88842982D01*
X180241690Y-88895945D01*
X180241410Y-88895985D01*
X180245376Y-88911958D01*
X180246125Y-88924420D01*
X180248111Y-88931214D01*
X180249162Y-88937251D01*
X180250908Y-88945313D01*
X180260357Y-89011292D01*
X180259884Y-89050059D01*
X180251227Y-89101513D01*
X180240366Y-89135544D01*
X180218567Y-89180537D01*
X180198592Y-89210151D01*
X180165039Y-89247220D01*
X180137556Y-89270037D01*
X180094953Y-89296196D01*
X180062170Y-89310382D01*
X180013936Y-89323532D01*
X179978483Y-89327948D01*
X179956137Y-89327538D01*
X179956127Y-89327538D01*
X179928503Y-89327032D01*
X179893243Y-89321321D01*
X179845514Y-89306411D01*
X179813267Y-89291029D01*
X179771655Y-89263328D01*
X179745027Y-89239519D01*
X179712859Y-89201251D01*
X179693980Y-89170921D01*
X179673845Y-89125161D01*
X179664239Y-89090756D01*
X179657756Y-89041179D01*
X179658193Y-89005463D01*
X179668113Y-88941748D01*
X179672119Y-88924293D01*
X179672679Y-88922461D01*
X179672687Y-88922433D01*
X179673030Y-88921311D01*
X179676959Y-88906437D01*
X179681182Y-88887531D01*
X179683956Y-88815469D01*
X179673852Y-88745195D01*
X179672452Y-88738425D01*
X179670722Y-88730067D01*
X179668896Y-88721238D01*
X179627038Y-88642686D01*
X179580545Y-88589030D01*
X179563423Y-88571555D01*
X179555555Y-88567154D01*
X179551553Y-88564094D01*
X179509588Y-88506827D01*
X179505245Y-88435964D01*
X179539903Y-88374001D01*
X179602559Y-88340613D01*
X179628086Y-88338000D01*
X180292468Y-88338000D01*
X180360589Y-88358002D01*
G37*
G04 #@! TD.AperFunction*
G04 #@! TA.AperFunction,Conductor*
G36*
X139311341Y-77688381D02*
G01*
X139370310Y-77727918D01*
X139398542Y-77793060D01*
X139399500Y-77808564D01*
X139399500Y-79800435D01*
X139379498Y-79868556D01*
X139367943Y-79883841D01*
X139277377Y-79986388D01*
X139216447Y-80116163D01*
X139213209Y-80136963D01*
X139196763Y-80242591D01*
X139194391Y-80257823D01*
X139195555Y-80266725D01*
X139195555Y-80266728D01*
X139198570Y-80289782D01*
X139212980Y-80399979D01*
X139216597Y-80408199D01*
X139267049Y-80522859D01*
X139270720Y-80531203D01*
X139276497Y-80538076D01*
X139276498Y-80538077D01*
X139357190Y-80634072D01*
X139362970Y-80640948D01*
X139399027Y-80664950D01*
X139452821Y-80700758D01*
X139482313Y-80720390D01*
X139553021Y-80742480D01*
X139612076Y-80781884D01*
X139640453Y-80846962D01*
X139629142Y-80917052D01*
X139582681Y-80969308D01*
X139543783Y-80993851D01*
X139499280Y-81021930D01*
X139404377Y-81129388D01*
X139343447Y-81259163D01*
X139335008Y-81313364D01*
X139323159Y-81389470D01*
X139321391Y-81400823D01*
X139322555Y-81409725D01*
X139322555Y-81409728D01*
X139324537Y-81424881D01*
X139339980Y-81542979D01*
X139343597Y-81551199D01*
X139392318Y-81661925D01*
X139397720Y-81674203D01*
X139403497Y-81681076D01*
X139403498Y-81681077D01*
X139420894Y-81701772D01*
X139487898Y-81781483D01*
X139489970Y-81783948D01*
X139489063Y-81784710D01*
X139521934Y-81837653D01*
X139526500Y-81871265D01*
X139526500Y-85926634D01*
X139526304Y-85929307D01*
X139524575Y-85934342D01*
X139525011Y-85945964D01*
X139525011Y-85945966D01*
X139526411Y-85983255D01*
X139526500Y-85987981D01*
X139526500Y-86006948D01*
X139524225Y-86006948D01*
X139512470Y-86066877D01*
X139463307Y-86118098D01*
X139394257Y-86134608D01*
X139327242Y-86111166D01*
X139311573Y-86097866D01*
X138802404Y-85588697D01*
X138768378Y-85526385D01*
X138765499Y-85499602D01*
X138765499Y-81930181D01*
X138785501Y-81862060D01*
X138799119Y-81844497D01*
X138818596Y-81823500D01*
X138821852Y-81820121D01*
X138835246Y-81806727D01*
X138837968Y-81802758D01*
X138840290Y-81800114D01*
X138853487Y-81785888D01*
X138853489Y-81785885D01*
X138861400Y-81777357D01*
X138865712Y-81766550D01*
X138868234Y-81762560D01*
X138873993Y-81751776D01*
X138875910Y-81747451D01*
X138882491Y-81737857D01*
X138888182Y-81713876D01*
X138893747Y-81696279D01*
X138899587Y-81681641D01*
X138899588Y-81681638D01*
X138902882Y-81673381D01*
X138903499Y-81667088D01*
X138903499Y-81664009D01*
X138903649Y-81660936D01*
X138903865Y-81660947D01*
X138905197Y-81649572D01*
X138905653Y-81640257D01*
X138908339Y-81628937D01*
X138906731Y-81617117D01*
X138904650Y-81601830D01*
X138903499Y-81584839D01*
X138903499Y-78203371D01*
X138903696Y-78200694D01*
X138905425Y-78195657D01*
X138904964Y-78183364D01*
X138903588Y-78146729D01*
X138903499Y-78142002D01*
X138903499Y-78123051D01*
X138902617Y-78118318D01*
X138902389Y-78114791D01*
X138901662Y-78095419D01*
X138901661Y-78095417D01*
X138901225Y-78083791D01*
X138896631Y-78073099D01*
X138895594Y-78068496D01*
X138892037Y-78056786D01*
X138890338Y-78052383D01*
X138888208Y-78040946D01*
X138882105Y-78031045D01*
X138882104Y-78031042D01*
X138875270Y-78019955D01*
X138866766Y-78003584D01*
X138860545Y-77989105D01*
X138860543Y-77989102D01*
X138857035Y-77980937D01*
X138853022Y-77976050D01*
X138850827Y-77973855D01*
X138848769Y-77971585D01*
X138848931Y-77971438D01*
X138841830Y-77962455D01*
X138840147Y-77960599D01*
X138839806Y-77959895D01*
X138832729Y-77950942D01*
X138829467Y-77945650D01*
X138832119Y-77944016D01*
X138809211Y-77896697D01*
X138808047Y-77866025D01*
X138808496Y-77863354D01*
X138808647Y-77851000D01*
X138807958Y-77846186D01*
X138807641Y-77841329D01*
X138809498Y-77841208D01*
X138818518Y-77778774D01*
X138865048Y-77725150D01*
X138933182Y-77705195D01*
X138970666Y-77710927D01*
X138984157Y-77715142D01*
X138993129Y-77715306D01*
X138993132Y-77715307D01*
X139058463Y-77716504D01*
X139127499Y-77717770D01*
X139137139Y-77715142D01*
X139240358Y-77687001D01*
X139311341Y-77688381D01*
G37*
G04 #@! TD.AperFunction*
G04 #@! TA.AperFunction,Conductor*
G36*
X186899793Y-66930551D02*
G01*
X186975191Y-66942493D01*
X186993895Y-66945455D01*
X187031388Y-66957637D01*
X187107335Y-66996334D01*
X187139227Y-67019506D01*
X187199494Y-67079773D01*
X187222666Y-67111665D01*
X187261363Y-67187612D01*
X187273545Y-67225105D01*
X187288449Y-67319207D01*
X187290000Y-67338917D01*
X187290000Y-75477216D01*
X187269998Y-75545337D01*
X187216342Y-75591830D01*
X187164510Y-75603215D01*
X187051807Y-75603671D01*
X187049310Y-75603681D01*
X183732673Y-75617091D01*
X183732668Y-75617091D01*
X183669684Y-75617346D01*
X183669681Y-75617346D01*
X183668462Y-75617351D01*
X183667268Y-75617403D01*
X183667250Y-75617403D01*
X183654032Y-75617974D01*
X183654017Y-75617975D01*
X183652812Y-75618027D01*
X183651611Y-75618126D01*
X183651598Y-75618127D01*
X183645304Y-75618647D01*
X183633158Y-75619650D01*
X183631937Y-75619799D01*
X183631919Y-75619801D01*
X183626338Y-75620483D01*
X183617613Y-75621549D01*
X183616382Y-75621749D01*
X183616379Y-75621749D01*
X183526239Y-75636362D01*
X183526233Y-75636363D01*
X183523804Y-75636757D01*
X183521411Y-75637340D01*
X183521407Y-75637341D01*
X183507173Y-75640810D01*
X183493394Y-75644168D01*
X183491042Y-75644941D01*
X183491037Y-75644942D01*
X183461611Y-75654608D01*
X183456043Y-75656437D01*
X183427155Y-75668506D01*
X183402566Y-75681123D01*
X183353691Y-75706200D01*
X183353684Y-75706204D01*
X183351503Y-75707323D01*
X183324854Y-75723750D01*
X183322866Y-75725202D01*
X183302404Y-75740145D01*
X183293106Y-75746935D01*
X183269351Y-75767316D01*
X183209353Y-75827557D01*
X183207743Y-75829449D01*
X183190668Y-75849514D01*
X183190659Y-75849526D01*
X183189069Y-75851394D01*
X183166007Y-75883243D01*
X183164719Y-75885351D01*
X183164712Y-75885362D01*
X183150975Y-75907850D01*
X183150969Y-75907860D01*
X183149686Y-75909961D01*
X183111180Y-75985762D01*
X183110243Y-75988031D01*
X183110201Y-75988122D01*
X183063577Y-76041664D01*
X182995716Y-76061499D01*
X165245365Y-76061499D01*
X165242692Y-76061303D01*
X165237657Y-76059574D01*
X165226035Y-76060010D01*
X165226033Y-76060010D01*
X165188744Y-76061410D01*
X165184018Y-76061499D01*
X165165051Y-76061499D01*
X165160316Y-76062381D01*
X165156790Y-76062609D01*
X165153050Y-76062750D01*
X165125791Y-76063773D01*
X165115106Y-76068363D01*
X165110506Y-76069400D01*
X165098785Y-76072961D01*
X165094382Y-76074660D01*
X165082946Y-76076790D01*
X165071947Y-76083570D01*
X165061960Y-76089726D01*
X165045588Y-76098230D01*
X165031111Y-76104450D01*
X165031107Y-76104452D01*
X165022936Y-76107963D01*
X165018050Y-76111977D01*
X165015865Y-76114162D01*
X165013602Y-76116214D01*
X165013457Y-76116054D01*
X165004450Y-76123174D01*
X164997555Y-76129426D01*
X164987651Y-76135531D01*
X164971083Y-76157319D01*
X164959889Y-76170138D01*
X163435547Y-77694480D01*
X163433513Y-77696236D01*
X163428730Y-77698574D01*
X163420818Y-77707103D01*
X163420817Y-77707104D01*
X163395426Y-77734476D01*
X163392146Y-77737881D01*
X163378751Y-77751276D01*
X163376027Y-77755246D01*
X163373702Y-77757894D01*
X163360507Y-77772118D01*
X163360505Y-77772121D01*
X163352598Y-77780645D01*
X163348288Y-77791449D01*
X163345766Y-77795438D01*
X163340005Y-77806226D01*
X163338088Y-77810551D01*
X163331507Y-77820145D01*
X163328821Y-77831464D01*
X163328820Y-77831466D01*
X163325816Y-77844126D01*
X163320251Y-77861723D01*
X163314411Y-77876361D01*
X163311116Y-77884621D01*
X163310499Y-77890914D01*
X163310499Y-77893993D01*
X163310349Y-77897066D01*
X163310133Y-77897055D01*
X163308801Y-77908430D01*
X163308345Y-77917745D01*
X163305659Y-77929065D01*
X163307228Y-77940594D01*
X163307228Y-77940595D01*
X163309348Y-77956172D01*
X163310499Y-77973163D01*
X163310499Y-78849633D01*
X163310303Y-78852306D01*
X163308574Y-78857341D01*
X163309010Y-78868963D01*
X163309010Y-78868965D01*
X163310410Y-78906254D01*
X163310499Y-78910980D01*
X163310499Y-78929947D01*
X163311381Y-78934682D01*
X163311609Y-78938208D01*
X163312773Y-78969207D01*
X163317363Y-78979892D01*
X163318400Y-78984492D01*
X163321961Y-78996213D01*
X163323660Y-79000616D01*
X163325790Y-79012052D01*
X163331894Y-79021954D01*
X163338726Y-79033038D01*
X163347230Y-79049410D01*
X163353450Y-79063887D01*
X163353452Y-79063891D01*
X163356963Y-79072062D01*
X163360977Y-79076948D01*
X163363162Y-79079133D01*
X163365214Y-79081396D01*
X163365054Y-79081541D01*
X163372174Y-79090548D01*
X163378426Y-79097443D01*
X163384531Y-79107347D01*
X163406319Y-79123915D01*
X163419138Y-79135109D01*
X163670173Y-79386144D01*
X163704199Y-79448456D01*
X163705080Y-79477956D01*
X163706882Y-79477978D01*
X163706772Y-79486951D01*
X163705391Y-79495823D01*
X163706555Y-79504725D01*
X163706555Y-79504728D01*
X163709954Y-79530721D01*
X163723980Y-79637979D01*
X163735522Y-79664211D01*
X163775071Y-79754091D01*
X163781720Y-79769203D01*
X163787497Y-79776076D01*
X163787498Y-79776077D01*
X163854717Y-79856044D01*
X163873970Y-79878948D01*
X163895840Y-79893506D01*
X163950586Y-79929948D01*
X163993313Y-79958390D01*
X164130157Y-80001142D01*
X164139129Y-80001306D01*
X164139132Y-80001307D01*
X164204463Y-80002504D01*
X164273499Y-80003770D01*
X164282533Y-80001307D01*
X164403158Y-79968421D01*
X164403160Y-79968420D01*
X164411817Y-79966060D01*
X164533991Y-79891045D01*
X164541307Y-79882963D01*
X164616117Y-79800313D01*
X164630200Y-79784754D01*
X164692710Y-79655733D01*
X164694198Y-79646886D01*
X164696672Y-79639136D01*
X164736439Y-79580322D01*
X164797255Y-79554247D01*
X164784466Y-79552654D01*
X164729942Y-79507183D01*
X164709907Y-79454935D01*
X164701723Y-79397791D01*
X164696323Y-79360082D01*
X164692584Y-79351857D01*
X164673153Y-79309123D01*
X164636984Y-79229572D01*
X164599976Y-79186622D01*
X164549260Y-79127763D01*
X164549257Y-79127760D01*
X164543400Y-79120963D01*
X164423095Y-79042985D01*
X164285739Y-79001907D01*
X164276763Y-79001852D01*
X164276762Y-79001852D01*
X164237987Y-79001615D01*
X164186694Y-79001302D01*
X164118698Y-78980884D01*
X164098370Y-78964399D01*
X164080961Y-78946990D01*
X164046935Y-78884678D01*
X164052000Y-78813863D01*
X164094547Y-78757027D01*
X164161067Y-78732216D01*
X164172365Y-78731916D01*
X164198801Y-78732401D01*
X164273499Y-78733770D01*
X164282533Y-78731307D01*
X164403158Y-78698421D01*
X164403160Y-78698420D01*
X164411817Y-78696060D01*
X164533991Y-78621045D01*
X164550925Y-78602337D01*
X164624178Y-78521407D01*
X164630200Y-78514754D01*
X164692710Y-78385733D01*
X164716496Y-78244354D01*
X164716571Y-78238234D01*
X164716588Y-78236864D01*
X164716588Y-78236858D01*
X164716647Y-78232000D01*
X164715957Y-78227180D01*
X164715956Y-78227169D01*
X164715476Y-78223813D01*
X164715657Y-78222562D01*
X164715641Y-78222323D01*
X164715692Y-78222320D01*
X164725622Y-78153546D01*
X164751109Y-78116863D01*
X165660568Y-77207404D01*
X165722880Y-77173378D01*
X165749663Y-77170499D01*
X166758778Y-77170499D01*
X166826899Y-77190501D01*
X166873392Y-77244157D01*
X166883496Y-77314431D01*
X166849423Y-77384017D01*
X165109910Y-79185655D01*
X165098821Y-79198144D01*
X165085531Y-79214434D01*
X165084755Y-79215471D01*
X165079292Y-79222769D01*
X165075524Y-79227802D01*
X165018302Y-79311298D01*
X165001799Y-79340303D01*
X165000692Y-79342693D01*
X164990478Y-79364746D01*
X164984189Y-79378323D01*
X164983287Y-79380793D01*
X164974775Y-79404097D01*
X164972740Y-79409667D01*
X164972048Y-79412201D01*
X164972047Y-79412203D01*
X164956179Y-79470281D01*
X164918930Y-79530721D01*
X164855162Y-79561312D01*
X164871710Y-79564087D01*
X164924265Y-79611819D01*
X164942420Y-79668964D01*
X164944189Y-79695183D01*
X164949205Y-79728171D01*
X164958936Y-79768920D01*
X164969368Y-79800619D01*
X165004745Y-79883953D01*
X165020304Y-79913478D01*
X165042860Y-79948783D01*
X165063109Y-79975306D01*
X165123853Y-80042427D01*
X165148231Y-80065216D01*
X165181121Y-80091176D01*
X165208948Y-80109593D01*
X165211242Y-80110850D01*
X165211246Y-80110852D01*
X165247969Y-80130968D01*
X165288343Y-80153084D01*
X165290741Y-80154148D01*
X165290749Y-80154152D01*
X165316432Y-80165548D01*
X165318846Y-80166619D01*
X165321329Y-80167481D01*
X165321342Y-80167486D01*
X165340806Y-80174241D01*
X165358428Y-80180358D01*
X165375214Y-80184654D01*
X165388201Y-80187978D01*
X165388205Y-80187979D01*
X165390757Y-80188632D01*
X165393354Y-80189070D01*
X165393364Y-80189072D01*
X165483782Y-80204317D01*
X165483795Y-80204320D01*
X165490560Y-80205461D01*
X165491866Y-80205626D01*
X165491883Y-80205628D01*
X165502802Y-80207003D01*
X165507137Y-80207549D01*
X165528087Y-80209303D01*
X165529420Y-80209359D01*
X165529425Y-80209359D01*
X165543473Y-80209946D01*
X165543487Y-80209946D01*
X165544773Y-80210000D01*
X171505000Y-80210000D01*
X171573121Y-80230002D01*
X171619614Y-80283658D01*
X171631000Y-80336000D01*
X171631000Y-82394083D01*
X171631616Y-82409773D01*
X171631710Y-82410963D01*
X171631711Y-82410986D01*
X171633049Y-82427983D01*
X171633167Y-82429483D01*
X171635013Y-82445079D01*
X171649917Y-82539181D01*
X171657243Y-82569697D01*
X171658010Y-82572059D01*
X171658011Y-82572061D01*
X171661673Y-82583330D01*
X171669425Y-82607190D01*
X171670365Y-82609460D01*
X171670369Y-82609470D01*
X171674902Y-82620413D01*
X171681436Y-82636186D01*
X171720133Y-82712133D01*
X171736533Y-82738896D01*
X171737998Y-82740912D01*
X171748487Y-82755348D01*
X171759705Y-82770788D01*
X171780085Y-82794648D01*
X171840352Y-82854915D01*
X171864212Y-82875295D01*
X171866221Y-82876755D01*
X171866229Y-82876761D01*
X171881522Y-82887872D01*
X171896104Y-82898467D01*
X171922867Y-82914867D01*
X171998814Y-82953564D01*
X172001098Y-82954510D01*
X172025530Y-82964631D01*
X172025540Y-82964635D01*
X172027810Y-82965575D01*
X172065303Y-82977757D01*
X172095819Y-82985083D01*
X172189921Y-82999987D01*
X172199147Y-83001079D01*
X172204333Y-83001693D01*
X172204340Y-83001694D01*
X172205517Y-83001833D01*
X172206689Y-83001925D01*
X172206707Y-83001927D01*
X172224014Y-83003289D01*
X172224037Y-83003290D01*
X172225227Y-83003384D01*
X172240917Y-83004000D01*
X177009083Y-83004000D01*
X177024773Y-83003384D01*
X177025963Y-83003290D01*
X177025986Y-83003289D01*
X177043293Y-83001927D01*
X177043311Y-83001925D01*
X177044483Y-83001833D01*
X177045660Y-83001694D01*
X177045667Y-83001693D01*
X177050853Y-83001079D01*
X177060079Y-82999987D01*
X177154181Y-82985083D01*
X177184697Y-82977757D01*
X177222190Y-82965575D01*
X177224460Y-82964635D01*
X177224470Y-82964631D01*
X177248902Y-82954510D01*
X177251186Y-82953564D01*
X177327133Y-82914867D01*
X177353896Y-82898467D01*
X177368478Y-82887872D01*
X177383771Y-82876761D01*
X177383779Y-82876755D01*
X177385788Y-82875295D01*
X177387680Y-82873679D01*
X177387683Y-82873677D01*
X177392164Y-82869849D01*
X177456952Y-82840814D01*
X177527152Y-82851415D01*
X177580478Y-82898286D01*
X177600000Y-82965655D01*
X177600000Y-83626922D01*
X177579998Y-83695043D01*
X177526342Y-83741536D01*
X177476309Y-83752901D01*
X177403803Y-83754230D01*
X177403785Y-83754230D01*
X177403683Y-83754232D01*
X177398806Y-83754321D01*
X177398788Y-83754323D01*
X177398775Y-83754323D01*
X175320810Y-83792417D01*
X174572747Y-83806131D01*
X174571536Y-83806200D01*
X174571531Y-83806200D01*
X174558608Y-83806934D01*
X174558592Y-83806935D01*
X174557399Y-83807003D01*
X174556214Y-83807116D01*
X174556190Y-83807118D01*
X174546876Y-83808008D01*
X174538143Y-83808842D01*
X174522918Y-83810889D01*
X174521751Y-83811092D01*
X174521730Y-83811095D01*
X174474730Y-83819262D01*
X174431027Y-83826856D01*
X174426892Y-83827907D01*
X174403623Y-83833820D01*
X174403611Y-83833823D01*
X174401264Y-83834420D01*
X174364710Y-83846767D01*
X174336446Y-83858804D01*
X174262407Y-83897302D01*
X174260351Y-83898580D01*
X174260345Y-83898584D01*
X174238375Y-83912247D01*
X174236325Y-83913522D01*
X174234382Y-83914949D01*
X174234378Y-83914951D01*
X174207182Y-83934914D01*
X174207173Y-83934921D01*
X174205221Y-83936354D01*
X174181931Y-83956376D01*
X174123015Y-84015473D01*
X174103064Y-84038825D01*
X174080327Y-84070000D01*
X174072809Y-84082173D01*
X174065456Y-84094077D01*
X174065450Y-84094088D01*
X174064188Y-84096131D01*
X174063087Y-84098264D01*
X174063081Y-84098275D01*
X174027031Y-84168130D01*
X174025920Y-84170283D01*
X174013972Y-84198577D01*
X174001736Y-84235168D01*
X173994261Y-84264956D01*
X173993856Y-84267328D01*
X173993855Y-84267334D01*
X173982226Y-84335493D01*
X173978574Y-84356894D01*
X173976573Y-84372136D01*
X173974793Y-84391405D01*
X173973968Y-84406748D01*
X173973950Y-84407953D01*
X173973949Y-84407970D01*
X173967547Y-84827142D01*
X173962745Y-85141566D01*
X173960821Y-85267505D01*
X173939781Y-85335313D01*
X173885422Y-85380981D01*
X173815002Y-85390010D01*
X173798739Y-85386299D01*
X173683739Y-85351907D01*
X173674763Y-85351852D01*
X173674762Y-85351852D01*
X173614555Y-85351484D01*
X173540376Y-85351031D01*
X173402529Y-85390428D01*
X173281280Y-85466930D01*
X173246948Y-85505805D01*
X173244208Y-85508907D01*
X173184123Y-85546725D01*
X173149766Y-85551500D01*
X172462659Y-85551500D01*
X172394538Y-85531498D01*
X172373564Y-85514595D01*
X169466406Y-82607437D01*
X169432380Y-82545125D01*
X169429501Y-82518342D01*
X169429501Y-82187365D01*
X169429697Y-82184692D01*
X169431426Y-82179657D01*
X169429876Y-82138349D01*
X169429590Y-82130744D01*
X169429501Y-82126018D01*
X169429501Y-82107051D01*
X169428619Y-82102316D01*
X169428391Y-82098790D01*
X169427663Y-82079414D01*
X169427227Y-82067791D01*
X169422637Y-82057106D01*
X169421600Y-82052506D01*
X169418039Y-82040785D01*
X169416340Y-82036382D01*
X169414210Y-82024946D01*
X169401273Y-82003958D01*
X169392770Y-81987588D01*
X169386550Y-81973111D01*
X169386548Y-81973107D01*
X169383037Y-81964936D01*
X169379023Y-81960050D01*
X169376838Y-81957865D01*
X169374786Y-81955602D01*
X169374946Y-81955457D01*
X169367826Y-81946450D01*
X169361574Y-81939555D01*
X169355469Y-81929651D01*
X169333681Y-81913083D01*
X169320862Y-81901889D01*
X168166020Y-80747047D01*
X168164264Y-80745013D01*
X168161926Y-80740230D01*
X168126024Y-80706926D01*
X168122619Y-80703646D01*
X168109224Y-80690251D01*
X168105254Y-80687527D01*
X168102606Y-80685202D01*
X168088382Y-80672007D01*
X168088379Y-80672005D01*
X168079855Y-80664098D01*
X168069051Y-80659788D01*
X168065062Y-80657266D01*
X168054274Y-80651505D01*
X168049949Y-80649588D01*
X168040355Y-80643007D01*
X168029036Y-80640321D01*
X168029034Y-80640320D01*
X168016374Y-80637316D01*
X167998777Y-80631751D01*
X167984139Y-80625911D01*
X167984136Y-80625910D01*
X167975879Y-80622616D01*
X167969586Y-80621999D01*
X167966507Y-80621999D01*
X167963434Y-80621849D01*
X167963445Y-80621633D01*
X167952070Y-80620301D01*
X167942755Y-80619845D01*
X167931435Y-80617159D01*
X167919906Y-80618728D01*
X167919905Y-80618728D01*
X167904328Y-80620848D01*
X167887337Y-80621999D01*
X163477867Y-80621999D01*
X163475194Y-80621803D01*
X163470159Y-80620074D01*
X163458537Y-80620510D01*
X163458535Y-80620510D01*
X163421246Y-80621910D01*
X163416520Y-80621999D01*
X163397553Y-80621999D01*
X163392818Y-80622881D01*
X163389292Y-80623109D01*
X163385552Y-80623250D01*
X163358293Y-80624273D01*
X163347608Y-80628863D01*
X163343008Y-80629900D01*
X163331287Y-80633461D01*
X163326884Y-80635160D01*
X163315448Y-80637290D01*
X163294462Y-80650226D01*
X163278090Y-80658730D01*
X163263613Y-80664950D01*
X163263609Y-80664952D01*
X163255438Y-80668463D01*
X163250552Y-80672477D01*
X163248367Y-80674662D01*
X163246104Y-80676714D01*
X163245959Y-80676554D01*
X163236952Y-80683674D01*
X163230057Y-80689926D01*
X163220153Y-80696031D01*
X163203585Y-80717819D01*
X163192391Y-80730638D01*
X162945435Y-80977594D01*
X162883123Y-81011620D01*
X162856340Y-81014499D01*
X161037729Y-81014499D01*
X160969608Y-80994497D01*
X160923115Y-80940841D01*
X160913011Y-80870567D01*
X160938456Y-80816405D01*
X160936156Y-80814853D01*
X160941178Y-80807407D01*
X160947200Y-80800754D01*
X160997938Y-80696031D01*
X161005795Y-80679814D01*
X161005795Y-80679813D01*
X161009710Y-80671733D01*
X161033496Y-80530354D01*
X161033647Y-80518000D01*
X161018020Y-80408881D01*
X161014596Y-80384968D01*
X161014595Y-80384965D01*
X161013323Y-80376082D01*
X160953984Y-80245572D01*
X160930369Y-80218166D01*
X160875956Y-80155016D01*
X160846642Y-80090353D01*
X160856941Y-80020108D01*
X160877994Y-79988213D01*
X160941176Y-79918411D01*
X160941181Y-79918404D01*
X160947200Y-79911754D01*
X160985186Y-79833350D01*
X161005795Y-79790814D01*
X161005795Y-79790813D01*
X161009710Y-79782733D01*
X161033496Y-79641354D01*
X161033647Y-79629000D01*
X161015679Y-79503531D01*
X161014596Y-79495968D01*
X161014595Y-79495965D01*
X161013323Y-79487082D01*
X161009489Y-79478648D01*
X160977681Y-79408692D01*
X160953984Y-79356572D01*
X160929778Y-79328480D01*
X160866260Y-79254763D01*
X160866257Y-79254760D01*
X160860400Y-79247963D01*
X160740095Y-79169985D01*
X160602739Y-79128907D01*
X160593763Y-79128852D01*
X160593762Y-79128852D01*
X160533555Y-79128484D01*
X160459376Y-79128031D01*
X160321529Y-79167428D01*
X160200280Y-79243930D01*
X160105377Y-79351388D01*
X160044447Y-79481163D01*
X160039279Y-79514354D01*
X160024313Y-79610480D01*
X160022391Y-79622823D01*
X160023555Y-79631725D01*
X160023555Y-79631728D01*
X160027803Y-79664211D01*
X160040980Y-79764979D01*
X160055538Y-79798065D01*
X160094081Y-79885659D01*
X160098720Y-79896203D01*
X160104497Y-79903076D01*
X160104498Y-79903077D01*
X160180339Y-79993301D01*
X160208860Y-80058317D01*
X160197704Y-80128431D01*
X160178333Y-80157779D01*
X160163211Y-80174903D01*
X160103127Y-80212724D01*
X160068766Y-80217500D01*
X157743102Y-80217500D01*
X157740429Y-80217304D01*
X157735394Y-80215575D01*
X157723772Y-80216011D01*
X157723770Y-80216011D01*
X157686481Y-80217411D01*
X157681755Y-80217500D01*
X157662788Y-80217500D01*
X157658053Y-80218382D01*
X157654527Y-80218610D01*
X157650787Y-80218751D01*
X157623528Y-80219774D01*
X157612843Y-80224364D01*
X157608243Y-80225401D01*
X157596522Y-80228962D01*
X157592119Y-80230661D01*
X157580683Y-80232791D01*
X157559948Y-80245572D01*
X157559697Y-80245727D01*
X157543325Y-80254231D01*
X157528848Y-80260451D01*
X157528844Y-80260453D01*
X157520673Y-80263964D01*
X157515787Y-80267978D01*
X157513602Y-80270163D01*
X157511339Y-80272215D01*
X157511194Y-80272055D01*
X157502187Y-80279175D01*
X157495292Y-80285427D01*
X157485388Y-80291532D01*
X157468820Y-80313320D01*
X157457626Y-80326139D01*
X153274344Y-84509421D01*
X153212032Y-84543447D01*
X153184482Y-84546324D01*
X153093376Y-84545767D01*
X152955529Y-84585164D01*
X152834280Y-84661666D01*
X152828340Y-84668392D01*
X152828334Y-84668397D01*
X152812952Y-84685815D01*
X152752867Y-84723634D01*
X152681874Y-84722965D01*
X152622512Y-84684020D01*
X152593629Y-84619164D01*
X152592510Y-84602409D01*
X152592510Y-83850651D01*
X152612512Y-83782530D01*
X152629415Y-83761556D01*
X159218567Y-77172405D01*
X159280879Y-77138379D01*
X159307662Y-77135500D01*
X159687021Y-77135500D01*
X159755142Y-77155502D01*
X159783470Y-77180422D01*
X159809970Y-77211948D01*
X159859253Y-77244754D01*
X159899821Y-77271758D01*
X159929313Y-77291390D01*
X160066157Y-77334142D01*
X160075129Y-77334306D01*
X160075132Y-77334307D01*
X160140463Y-77335504D01*
X160209499Y-77336770D01*
X160218533Y-77334307D01*
X160339158Y-77301421D01*
X160339160Y-77301420D01*
X160347817Y-77299060D01*
X160469991Y-77224045D01*
X160496134Y-77195163D01*
X160560178Y-77124407D01*
X160566200Y-77117754D01*
X160618210Y-77010406D01*
X160624795Y-76996814D01*
X160624795Y-76996813D01*
X160628710Y-76988733D01*
X160652496Y-76847354D01*
X160652647Y-76835000D01*
X160632323Y-76693082D01*
X160572984Y-76562572D01*
X160549369Y-76535166D01*
X160485260Y-76460763D01*
X160485257Y-76460760D01*
X160479400Y-76453963D01*
X160359095Y-76375985D01*
X160221739Y-76334907D01*
X160212763Y-76334852D01*
X160212762Y-76334852D01*
X160152555Y-76334484D01*
X160078376Y-76334031D01*
X159940529Y-76373428D01*
X159819280Y-76449930D01*
X159813338Y-76456658D01*
X159782208Y-76491907D01*
X159722123Y-76529725D01*
X159687766Y-76534500D01*
X159183366Y-76534500D01*
X159180693Y-76534304D01*
X159175658Y-76532575D01*
X159164036Y-76533011D01*
X159164034Y-76533011D01*
X159126744Y-76534411D01*
X159122018Y-76534500D01*
X159103052Y-76534500D01*
X159098317Y-76535381D01*
X159094790Y-76535610D01*
X159090254Y-76535780D01*
X159063791Y-76536774D01*
X159053104Y-76541366D01*
X159048492Y-76542405D01*
X159036800Y-76545957D01*
X159032383Y-76547661D01*
X159020947Y-76549791D01*
X159000264Y-76562540D01*
X158999961Y-76562727D01*
X158983589Y-76571231D01*
X158969112Y-76577451D01*
X158969108Y-76577453D01*
X158960937Y-76580964D01*
X158956051Y-76584978D01*
X158953866Y-76587163D01*
X158951603Y-76589215D01*
X158951458Y-76589055D01*
X158942451Y-76596175D01*
X158935556Y-76602427D01*
X158925652Y-76608532D01*
X158909084Y-76630320D01*
X158897890Y-76643139D01*
X157279854Y-78261175D01*
X157217542Y-78295201D01*
X157146727Y-78290136D01*
X157089891Y-78247589D01*
X157065080Y-78181069D01*
X157070398Y-78136506D01*
X157072710Y-78131733D01*
X157096496Y-77990354D01*
X157096647Y-77978000D01*
X157086659Y-77908258D01*
X157077596Y-77844968D01*
X157077595Y-77844965D01*
X157076323Y-77836082D01*
X157071635Y-77825770D01*
X157049856Y-77777871D01*
X157016984Y-77705572D01*
X156995001Y-77680060D01*
X156929260Y-77603763D01*
X156929257Y-77603760D01*
X156923400Y-77596963D01*
X156803095Y-77518985D01*
X156794491Y-77516412D01*
X156794489Y-77516411D01*
X156755710Y-77504814D01*
X156739110Y-77499850D01*
X156679577Y-77461169D01*
X156650407Y-77396442D01*
X156660861Y-77326219D01*
X156709283Y-77271758D01*
X156728494Y-77259962D01*
X156786991Y-77224045D01*
X156813134Y-77195163D01*
X156877178Y-77124407D01*
X156883200Y-77117754D01*
X156935210Y-77010406D01*
X156941795Y-76996814D01*
X156941795Y-76996813D01*
X156945710Y-76988733D01*
X156969496Y-76847354D01*
X156969647Y-76835000D01*
X156949323Y-76693082D01*
X156889984Y-76562572D01*
X156866369Y-76535166D01*
X156802260Y-76460763D01*
X156802257Y-76460760D01*
X156796400Y-76453963D01*
X156676095Y-76375985D01*
X156538739Y-76334907D01*
X156529763Y-76334852D01*
X156529762Y-76334852D01*
X156490987Y-76334615D01*
X156439694Y-76334302D01*
X156371698Y-76313884D01*
X156351370Y-76297399D01*
X156151510Y-76097539D01*
X156149754Y-76095505D01*
X156147416Y-76090722D01*
X156134644Y-76078874D01*
X156098306Y-76017882D01*
X156100711Y-75946926D01*
X156141096Y-75888535D01*
X156206639Y-75861247D01*
X156220335Y-75860500D01*
X163904151Y-75860500D01*
X163906243Y-75860361D01*
X163906245Y-75860361D01*
X164117511Y-75846329D01*
X164121682Y-75846052D01*
X164125776Y-75845227D01*
X164125780Y-75845226D01*
X164297410Y-75810619D01*
X164408239Y-75788272D01*
X164684637Y-75693100D01*
X164688370Y-75691231D01*
X164688374Y-75691229D01*
X164942276Y-75564084D01*
X164942278Y-75564083D01*
X164946020Y-75562209D01*
X165125112Y-75440498D01*
X165125114Y-75440498D01*
X165125509Y-75440229D01*
X165125586Y-75440343D01*
X165125775Y-75440281D01*
X165125667Y-75440121D01*
X165184336Y-75400250D01*
X165184339Y-75400248D01*
X165187795Y-75397899D01*
X165282529Y-75313197D01*
X165286328Y-75309934D01*
X166694542Y-74148158D01*
X167241447Y-73696961D01*
X169933756Y-71475807D01*
X169999030Y-71447885D01*
X170013939Y-71447000D01*
X171518903Y-71447000D01*
X171534593Y-71446384D01*
X171535783Y-71446290D01*
X171535806Y-71446289D01*
X171553113Y-71444927D01*
X171553131Y-71444925D01*
X171554303Y-71444833D01*
X171555480Y-71444694D01*
X171555487Y-71444693D01*
X171559883Y-71444172D01*
X171569899Y-71442987D01*
X171664001Y-71428083D01*
X171694517Y-71420757D01*
X171696881Y-71419989D01*
X171729662Y-71409338D01*
X171729664Y-71409337D01*
X171732010Y-71408575D01*
X171734280Y-71407635D01*
X171734290Y-71407631D01*
X171758722Y-71397510D01*
X171761006Y-71396564D01*
X171836953Y-71357867D01*
X171863716Y-71341467D01*
X171874328Y-71333756D01*
X171893591Y-71319761D01*
X171893599Y-71319755D01*
X171895608Y-71318295D01*
X171919468Y-71297915D01*
X171979735Y-71237648D01*
X172000115Y-71213788D01*
X172023287Y-71181896D01*
X172039687Y-71155133D01*
X172078384Y-71079186D01*
X172090395Y-71050190D01*
X172102577Y-71012697D01*
X172109903Y-70982181D01*
X172124807Y-70888079D01*
X172126653Y-70872483D01*
X172128204Y-70852773D01*
X172128820Y-70837083D01*
X172128820Y-69805361D01*
X178762316Y-69805361D01*
X178774443Y-70057820D01*
X178823752Y-70305713D01*
X178825331Y-70310111D01*
X178825333Y-70310118D01*
X178871148Y-70437723D01*
X178909160Y-70543595D01*
X179028792Y-70766240D01*
X179031587Y-70769984D01*
X179031589Y-70769986D01*
X179177226Y-70965018D01*
X179177231Y-70965024D01*
X179180018Y-70968756D01*
X179183327Y-70972036D01*
X179183332Y-70972042D01*
X179356200Y-71143408D01*
X179359517Y-71146696D01*
X179363279Y-71149454D01*
X179363282Y-71149457D01*
X179559575Y-71293384D01*
X179563346Y-71296149D01*
X179567481Y-71298325D01*
X179567485Y-71298327D01*
X179649481Y-71341467D01*
X179787026Y-71413833D01*
X179881862Y-71446951D01*
X179964493Y-71475807D01*
X180025644Y-71497162D01*
X180030237Y-71498034D01*
X180269369Y-71543435D01*
X180269372Y-71543435D01*
X180273958Y-71544306D01*
X180394081Y-71549026D01*
X180521845Y-71554046D01*
X180521850Y-71554046D01*
X180526513Y-71554229D01*
X180604657Y-71545671D01*
X180773107Y-71527223D01*
X180773112Y-71527222D01*
X180777760Y-71526713D01*
X180971117Y-71475807D01*
X181017658Y-71463554D01*
X181017661Y-71463553D01*
X181022181Y-71462363D01*
X181254405Y-71362591D01*
X181358255Y-71298327D01*
X181465358Y-71232050D01*
X181465362Y-71232047D01*
X181469331Y-71229591D01*
X181563989Y-71149457D01*
X181658672Y-71069302D01*
X181658673Y-71069301D01*
X181662238Y-71066283D01*
X181711348Y-71010284D01*
X181825806Y-70879771D01*
X181825810Y-70879766D01*
X181828888Y-70876256D01*
X181831418Y-70872323D01*
X181963094Y-70667610D01*
X181963096Y-70667607D01*
X181965619Y-70663684D01*
X182069428Y-70433236D01*
X182138034Y-70189976D01*
X182154263Y-70062409D01*
X182169533Y-69942378D01*
X182169533Y-69942372D01*
X182169931Y-69939247D01*
X182172268Y-69850000D01*
X182158189Y-69660545D01*
X182153883Y-69602597D01*
X182153882Y-69602593D01*
X182153537Y-69597945D01*
X182097756Y-69351428D01*
X182043423Y-69211710D01*
X182007843Y-69120216D01*
X182007842Y-69120214D01*
X182006150Y-69115863D01*
X181880731Y-68896426D01*
X181724255Y-68697938D01*
X181540160Y-68524758D01*
X181392432Y-68422275D01*
X181336331Y-68383356D01*
X181336328Y-68383354D01*
X181332489Y-68380691D01*
X181328296Y-68378623D01*
X181109993Y-68270968D01*
X181109990Y-68270967D01*
X181105805Y-68268903D01*
X181083141Y-68261648D01*
X181001207Y-68235421D01*
X180865087Y-68191849D01*
X180860480Y-68191099D01*
X180860477Y-68191098D01*
X180620235Y-68151972D01*
X180620236Y-68151972D01*
X180615624Y-68151221D01*
X180493026Y-68149616D01*
X180367573Y-68147974D01*
X180367570Y-68147974D01*
X180362896Y-68147913D01*
X180112455Y-68181996D01*
X180107965Y-68183305D01*
X180107959Y-68183306D01*
X180021531Y-68208498D01*
X179869803Y-68252723D01*
X179865556Y-68254681D01*
X179865553Y-68254682D01*
X179801177Y-68284360D01*
X179640270Y-68358539D01*
X179636361Y-68361102D01*
X179432812Y-68494554D01*
X179432807Y-68494558D01*
X179428899Y-68497120D01*
X179240333Y-68665421D01*
X179078715Y-68859746D01*
X178947595Y-69075825D01*
X178945786Y-69080139D01*
X178945785Y-69080141D01*
X178869617Y-69261782D01*
X178849854Y-69308911D01*
X178848703Y-69313443D01*
X178848702Y-69313446D01*
X178836784Y-69360373D01*
X178787639Y-69553883D01*
X178762316Y-69805361D01*
X172128820Y-69805361D01*
X172128820Y-67719917D01*
X172128204Y-67704227D01*
X172127164Y-67691000D01*
X172126747Y-67685707D01*
X172126745Y-67685689D01*
X172126653Y-67684517D01*
X172124807Y-67668921D01*
X172109903Y-67574819D01*
X172102577Y-67544303D01*
X172094914Y-67520719D01*
X172091158Y-67509158D01*
X172091157Y-67509156D01*
X172090395Y-67506810D01*
X172089439Y-67504500D01*
X172079330Y-67480098D01*
X172078384Y-67477814D01*
X172039687Y-67401867D01*
X172023287Y-67375104D01*
X172000115Y-67343212D01*
X171979735Y-67319352D01*
X171919468Y-67259085D01*
X171895608Y-67238705D01*
X171893599Y-67237245D01*
X171893591Y-67237239D01*
X171867026Y-67217938D01*
X171863716Y-67215533D01*
X171836953Y-67199133D01*
X171774414Y-67167267D01*
X171722798Y-67118518D01*
X171705732Y-67049603D01*
X171728633Y-66982402D01*
X171784231Y-66938250D01*
X171831616Y-66929000D01*
X186880083Y-66929000D01*
X186899793Y-66930551D01*
G37*
G04 #@! TD.AperFunction*
G04 #@! TA.AperFunction,Conductor*
G36*
X167807961Y-81243001D02*
G01*
X167828935Y-81259904D01*
X168791596Y-82222565D01*
X168825622Y-82284877D01*
X168828501Y-82311660D01*
X168828501Y-82642637D01*
X168828305Y-82645310D01*
X168826576Y-82650345D01*
X168827012Y-82661967D01*
X168827012Y-82661969D01*
X168828412Y-82699258D01*
X168828501Y-82703975D01*
X168828501Y-82722951D01*
X168829383Y-82727686D01*
X168829611Y-82731212D01*
X168830775Y-82762211D01*
X168835365Y-82772896D01*
X168836402Y-82777496D01*
X168839963Y-82789217D01*
X168841662Y-82793620D01*
X168843792Y-82805056D01*
X168849896Y-82814958D01*
X168852626Y-82819387D01*
X168871342Y-82887872D01*
X168850061Y-82955604D01*
X168795539Y-83001079D01*
X168745364Y-83011500D01*
X166188661Y-83011500D01*
X166120540Y-82991498D01*
X166099566Y-82974595D01*
X164763704Y-81638733D01*
X164729678Y-81576421D01*
X164727330Y-81538813D01*
X164727996Y-81534854D01*
X164728147Y-81522500D01*
X164707823Y-81380582D01*
X164707607Y-81380106D01*
X164707682Y-81313364D01*
X164746133Y-81253681D01*
X164810747Y-81224261D01*
X164828538Y-81222999D01*
X167739840Y-81222999D01*
X167807961Y-81243001D01*
G37*
G04 #@! TD.AperFunction*
G04 #@! TA.AperFunction,Conductor*
G36*
X182502265Y-79328473D02*
G01*
X182503332Y-79328480D01*
X182503333Y-79328480D01*
X182504061Y-79328484D01*
X182525831Y-79328618D01*
X182561158Y-79333898D01*
X182609060Y-79348223D01*
X182641493Y-79363209D01*
X182668622Y-79380793D01*
X182695548Y-79398246D01*
X182699846Y-79401032D01*
X182700577Y-79401574D01*
X182700851Y-79401684D01*
X182703602Y-79403467D01*
X182703449Y-79403703D01*
X182703980Y-79404097D01*
X182704083Y-79403950D01*
X182704698Y-79404382D01*
X182704584Y-79404544D01*
X182705631Y-79405320D01*
X182705800Y-79405490D01*
X182709844Y-79409017D01*
X182710148Y-79408668D01*
X182710180Y-79408692D01*
X182710399Y-79408380D01*
X182762031Y-79444595D01*
X182767115Y-79446950D01*
X182767117Y-79446951D01*
X182771085Y-79448789D01*
X182826453Y-79474435D01*
X182828236Y-79475132D01*
X182828241Y-79475134D01*
X182840846Y-79480061D01*
X182840849Y-79480062D01*
X182849242Y-79483342D01*
X182858222Y-79484125D01*
X182858223Y-79484125D01*
X182883025Y-79486287D01*
X182932411Y-79490592D01*
X182932414Y-79490593D01*
X182937914Y-79491072D01*
X182937830Y-79492035D01*
X183000420Y-79508707D01*
X183048254Y-79561171D01*
X183061000Y-79616393D01*
X183061000Y-79646171D01*
X183040998Y-79714292D01*
X182987342Y-79760785D01*
X182932272Y-79772141D01*
X182897560Y-79771389D01*
X182897518Y-79771389D01*
X182895605Y-79771348D01*
X182886624Y-79771704D01*
X182880168Y-79771959D01*
X182880166Y-79771959D01*
X182871158Y-79772316D01*
X182862617Y-79775195D01*
X182862614Y-79775196D01*
X182819030Y-79789890D01*
X182786814Y-79800751D01*
X182780778Y-79804448D01*
X182780774Y-79804450D01*
X182730549Y-79835214D01*
X182730531Y-79835185D01*
X182729760Y-79835737D01*
X182729742Y-79835708D01*
X182726307Y-79837811D01*
X182722843Y-79840683D01*
X182722835Y-79840689D01*
X182718028Y-79844675D01*
X182711054Y-79849833D01*
X182707087Y-79851843D01*
X182706335Y-79852468D01*
X182706774Y-79852997D01*
X182695734Y-79860250D01*
X182695365Y-79859688D01*
X182691279Y-79863611D01*
X182634952Y-79898196D01*
X182602175Y-79912381D01*
X182553930Y-79925534D01*
X182518483Y-79929948D01*
X182496137Y-79929538D01*
X182496127Y-79929538D01*
X182468503Y-79929032D01*
X182433243Y-79923321D01*
X182385514Y-79908411D01*
X182353267Y-79893029D01*
X182311655Y-79865328D01*
X182285027Y-79841519D01*
X182252858Y-79803250D01*
X182233979Y-79772922D01*
X182213845Y-79727164D01*
X182204238Y-79692755D01*
X182204213Y-79692559D01*
X182197756Y-79643179D01*
X182198193Y-79607460D01*
X182205884Y-79558063D01*
X182216329Y-79523899D01*
X182237574Y-79478648D01*
X182257188Y-79448789D01*
X182290282Y-79411317D01*
X182317488Y-79388162D01*
X182359770Y-79361484D01*
X182392377Y-79346899D01*
X182440446Y-79333161D01*
X182475838Y-79328312D01*
X182502265Y-79328473D01*
G37*
G04 #@! TD.AperFunction*
G04 #@! TD*
G04 #@! TA.AperFunction,Conductor*
G04 #@! TO.N,/+VM*
G36*
X171538613Y-67311551D02*
G01*
X171632715Y-67326455D01*
X171670208Y-67338637D01*
X171746155Y-67377334D01*
X171778047Y-67400506D01*
X171838314Y-67460773D01*
X171861486Y-67492665D01*
X171900183Y-67568612D01*
X171912365Y-67606105D01*
X171927269Y-67700207D01*
X171928820Y-67719917D01*
X171928820Y-70837083D01*
X171927269Y-70856793D01*
X171912365Y-70950895D01*
X171900183Y-70988388D01*
X171861486Y-71064335D01*
X171838314Y-71096227D01*
X171778047Y-71156494D01*
X171746155Y-71179666D01*
X171670208Y-71218363D01*
X171632715Y-71230545D01*
X171538613Y-71245449D01*
X171518903Y-71247000D01*
X169896820Y-71247000D01*
X166567265Y-73993883D01*
X165024543Y-75266628D01*
X165009762Y-75277130D01*
X164934911Y-75322572D01*
X164901583Y-75336719D01*
X164825800Y-75356656D01*
X164789826Y-75360741D01*
X164742997Y-75359284D01*
X164711507Y-75358305D01*
X164675852Y-75351990D01*
X164592728Y-75324492D01*
X164575952Y-75317566D01*
X162445960Y-74252570D01*
X162430672Y-74243526D01*
X162360171Y-74194802D01*
X162334146Y-74170759D01*
X162285679Y-74111298D01*
X162267378Y-74080957D01*
X162233870Y-74002076D01*
X162228094Y-73985278D01*
X161844874Y-72548202D01*
X161841323Y-72529027D01*
X161831410Y-72435567D01*
X161833324Y-72396729D01*
X161850375Y-72314381D01*
X161864042Y-72277975D01*
X161905387Y-72204756D01*
X161929503Y-72174251D01*
X161998474Y-72110397D01*
X162013766Y-72098296D01*
X164591864Y-70364746D01*
X169025854Y-67383270D01*
X169042026Y-67374054D01*
X169123159Y-67335463D01*
X169158700Y-67324625D01*
X169246393Y-67311551D01*
X169247561Y-67311377D01*
X169266140Y-67310000D01*
X171518903Y-67310000D01*
X171538613Y-67311551D01*
G37*
G04 #@! TD.AperFunction*
G04 #@! TD*
G04 #@! TA.AperFunction,Conductor*
G04 #@! TO.N,/+VM*
G36*
X170488457Y-77190501D02*
G01*
X170509431Y-77207404D01*
X171039480Y-77737453D01*
X171041236Y-77739487D01*
X171043574Y-77744270D01*
X171052103Y-77752182D01*
X171052104Y-77752183D01*
X171079476Y-77777574D01*
X171082881Y-77780854D01*
X171096276Y-77794249D01*
X171100246Y-77796973D01*
X171102894Y-77799298D01*
X171110427Y-77806286D01*
X171125645Y-77820402D01*
X171136452Y-77824714D01*
X171140437Y-77827233D01*
X171151246Y-77833005D01*
X171155551Y-77834912D01*
X171165145Y-77841494D01*
X171189098Y-77847178D01*
X171189135Y-77847187D01*
X171206731Y-77852752D01*
X171229621Y-77861884D01*
X171235914Y-77862501D01*
X171238996Y-77862501D01*
X171242066Y-77862651D01*
X171242055Y-77862867D01*
X171253430Y-77864199D01*
X171262744Y-77864654D01*
X171274065Y-77867341D01*
X171285594Y-77865772D01*
X171285595Y-77865772D01*
X171301172Y-77863652D01*
X171318163Y-77862501D01*
X177293000Y-77862501D01*
X177361121Y-77882503D01*
X177407614Y-77936159D01*
X177419000Y-77988501D01*
X177419000Y-82394083D01*
X177417449Y-82413793D01*
X177402545Y-82507895D01*
X177390363Y-82545388D01*
X177351666Y-82621335D01*
X177328494Y-82653227D01*
X177268227Y-82713494D01*
X177236335Y-82736666D01*
X177160388Y-82775363D01*
X177122895Y-82787545D01*
X177028793Y-82802449D01*
X177009083Y-82804000D01*
X172240917Y-82804000D01*
X172221207Y-82802449D01*
X172127105Y-82787545D01*
X172089612Y-82775363D01*
X172013665Y-82736666D01*
X171981773Y-82713494D01*
X171921506Y-82653227D01*
X171898334Y-82621335D01*
X171859637Y-82545388D01*
X171847455Y-82507895D01*
X171832551Y-82413793D01*
X171831000Y-82394083D01*
X171831000Y-80010000D01*
X165544773Y-80010000D01*
X165523823Y-80008246D01*
X165517058Y-80007105D01*
X165424010Y-79991416D01*
X165384428Y-79977677D01*
X165305033Y-79934186D01*
X165272143Y-79908226D01*
X165211399Y-79841105D01*
X165188843Y-79805800D01*
X165153466Y-79722466D01*
X165143735Y-79681717D01*
X165137640Y-79591396D01*
X165141809Y-79549704D01*
X165165668Y-79462380D01*
X165183278Y-79424360D01*
X165240500Y-79340864D01*
X165253790Y-79324574D01*
X167256717Y-77250115D01*
X167296433Y-77208980D01*
X167358139Y-77173867D01*
X167387078Y-77170499D01*
X170420336Y-77170499D01*
X170488457Y-77190501D01*
G37*
G04 #@! TD.AperFunction*
G04 #@! TA.AperFunction,Conductor*
G36*
X177350150Y-76682501D02*
G01*
X177396643Y-76736157D01*
X177406505Y-76768960D01*
X177417476Y-76838851D01*
X177419000Y-76858390D01*
X177419000Y-77135501D01*
X177398998Y-77203622D01*
X177345342Y-77250115D01*
X177293000Y-77261501D01*
X171465662Y-77261501D01*
X171397541Y-77241499D01*
X171376567Y-77224597D01*
X171029564Y-76877595D01*
X170995539Y-76815282D01*
X171000603Y-76744467D01*
X171043150Y-76687631D01*
X171109670Y-76662820D01*
X171118659Y-76662499D01*
X177282029Y-76662499D01*
X177350150Y-76682501D01*
G37*
G04 #@! TD.AperFunction*
G04 #@! TD*
G04 #@! TA.AperFunction,Conductor*
G04 #@! TO.N,Net-(C4-Pad1)*
G36*
X183007414Y-76682501D02*
G01*
X183053907Y-76736157D01*
X183063834Y-76769383D01*
X183066335Y-76785679D01*
X183067790Y-76805459D01*
X183055111Y-79169014D01*
X183034744Y-79237026D01*
X182980840Y-79283231D01*
X182910513Y-79292958D01*
X182846091Y-79263118D01*
X182841302Y-79258289D01*
X182837258Y-79254762D01*
X182831400Y-79247963D01*
X182711095Y-79169985D01*
X182573739Y-79128907D01*
X182564763Y-79128852D01*
X182564762Y-79128852D01*
X182504555Y-79128484D01*
X182430376Y-79128031D01*
X182292529Y-79167428D01*
X182171280Y-79243930D01*
X182165338Y-79250658D01*
X182165337Y-79250659D01*
X182154334Y-79263118D01*
X182076377Y-79351388D01*
X182015447Y-79481163D01*
X181993391Y-79622823D01*
X182011980Y-79764979D01*
X182069720Y-79896203D01*
X182161970Y-80005948D01*
X182281313Y-80085390D01*
X182418157Y-80128142D01*
X182427129Y-80128306D01*
X182427132Y-80128307D01*
X182492463Y-80129504D01*
X182561499Y-80130770D01*
X182570533Y-80128307D01*
X182691158Y-80095421D01*
X182691160Y-80095420D01*
X182699817Y-80093060D01*
X182821991Y-80018045D01*
X182830736Y-80008383D01*
X182834171Y-80006280D01*
X182834923Y-80005655D01*
X182835013Y-80005764D01*
X182891278Y-79971301D01*
X182962258Y-79972837D01*
X183021140Y-80012503D01*
X183049229Y-80077707D01*
X183050151Y-80093613D01*
X183009187Y-87730264D01*
X183007541Y-87749899D01*
X182992235Y-87843609D01*
X182979934Y-87880922D01*
X182941083Y-87956468D01*
X182917889Y-87988177D01*
X182857659Y-88048086D01*
X182825826Y-88071110D01*
X182750069Y-88109557D01*
X182712694Y-88121656D01*
X182669406Y-88128488D01*
X182618902Y-88136459D01*
X182599259Y-88138000D01*
X174533167Y-88138000D01*
X174513266Y-88136418D01*
X174418289Y-88121226D01*
X174380473Y-88108811D01*
X174303986Y-88069396D01*
X174271931Y-88045806D01*
X174211552Y-87984499D01*
X174188452Y-87952085D01*
X174150209Y-87875002D01*
X174138373Y-87837001D01*
X174124633Y-87741799D01*
X174123356Y-87721877D01*
X174173945Y-84409802D01*
X174175725Y-84390533D01*
X174191412Y-84298595D01*
X174203648Y-84262004D01*
X174241916Y-84187852D01*
X174264653Y-84156677D01*
X174323569Y-84097580D01*
X174354673Y-84074748D01*
X174428712Y-84036250D01*
X174465266Y-84023903D01*
X174557157Y-84007936D01*
X174576413Y-84006097D01*
X175324476Y-83992383D01*
X177402449Y-83954289D01*
X177402455Y-83954288D01*
X177407332Y-83954199D01*
X177407334Y-83954199D01*
X177800000Y-83947000D01*
X177800000Y-79295800D01*
X177801642Y-79275525D01*
X177817410Y-79178813D01*
X177830290Y-79140364D01*
X177871144Y-79062814D01*
X177895571Y-79030447D01*
X177958939Y-78969894D01*
X177992381Y-78946962D01*
X178071708Y-78909671D01*
X178110701Y-78898551D01*
X178208029Y-78887191D01*
X178228352Y-78886471D01*
X178483971Y-78898090D01*
X178539504Y-78900614D01*
X179260000Y-78933364D01*
X179260000Y-76803281D01*
X179261551Y-76783572D01*
X179263892Y-76768790D01*
X179294303Y-76704637D01*
X179354571Y-76667109D01*
X179388341Y-76662499D01*
X182939293Y-76662499D01*
X183007414Y-76682501D01*
G37*
G04 #@! TD.AperFunction*
G04 #@! TD*
G04 #@! TA.AperFunction,Conductor*
G04 #@! TO.N,/U*
G36*
X187568203Y-75803143D02*
G01*
X187619353Y-75811053D01*
X187653258Y-75816297D01*
X187717521Y-75846476D01*
X187755267Y-75906608D01*
X187760000Y-75940817D01*
X187760000Y-88362232D01*
X187739998Y-88430353D01*
X187686342Y-88476846D01*
X187654164Y-88486608D01*
X187595565Y-88496108D01*
X187571382Y-88500028D01*
X187551728Y-88501651D01*
X187487518Y-88501911D01*
X184170881Y-88515321D01*
X183672557Y-88517336D01*
X183652797Y-88515857D01*
X183558395Y-88501258D01*
X183520769Y-88489166D01*
X183444527Y-88450590D01*
X183412497Y-88427437D01*
X183351950Y-88367134D01*
X183328669Y-88335200D01*
X183310004Y-88298678D01*
X183289783Y-88259112D01*
X183277539Y-88221534D01*
X183262559Y-88127196D01*
X183261000Y-88107436D01*
X183261000Y-78072033D01*
X183261002Y-78071357D01*
X183267780Y-76807775D01*
X183267787Y-76806532D01*
X183267251Y-76790787D01*
X183265796Y-76771007D01*
X183264020Y-76755340D01*
X183262458Y-76745161D01*
X183261000Y-76726048D01*
X183261000Y-76227280D01*
X183262543Y-76207620D01*
X183277372Y-76113748D01*
X183289492Y-76076342D01*
X183327998Y-76000541D01*
X183351060Y-75968692D01*
X183411058Y-75908451D01*
X183442806Y-75885266D01*
X183518458Y-75846449D01*
X183555809Y-75834180D01*
X183649618Y-75818972D01*
X183669272Y-75817349D01*
X183733482Y-75817089D01*
X187050119Y-75803679D01*
X187548443Y-75801664D01*
X187568203Y-75803143D01*
G37*
G04 #@! TD.AperFunction*
G04 #@! TD*
G04 #@! TA.AperFunction,Conductor*
G04 #@! TO.N,/V*
G36*
X179429395Y-88720002D02*
G01*
X179475888Y-88773658D01*
X179485992Y-88843932D01*
X179481769Y-88862838D01*
X179479263Y-88871035D01*
X179475447Y-88879163D01*
X179474066Y-88888035D01*
X179458227Y-88989764D01*
X179453391Y-89020823D01*
X179454555Y-89029725D01*
X179454555Y-89029728D01*
X179455814Y-89039354D01*
X179471980Y-89162979D01*
X179475597Y-89171199D01*
X179521582Y-89275707D01*
X179529720Y-89294203D01*
X179535497Y-89301076D01*
X179535498Y-89301077D01*
X179541880Y-89308669D01*
X179621970Y-89403948D01*
X179741313Y-89483390D01*
X179878157Y-89526142D01*
X179887129Y-89526306D01*
X179887132Y-89526307D01*
X179952463Y-89527504D01*
X180021499Y-89528770D01*
X180030533Y-89526307D01*
X180151158Y-89493421D01*
X180151160Y-89493420D01*
X180159817Y-89491060D01*
X180281991Y-89416045D01*
X180378200Y-89309754D01*
X180440710Y-89180733D01*
X180464496Y-89039354D01*
X180464647Y-89027000D01*
X180444323Y-88885082D01*
X180440609Y-88876914D01*
X180438088Y-88868292D01*
X180439703Y-88867820D01*
X180431186Y-88807856D01*
X180460789Y-88743325D01*
X180520581Y-88705043D01*
X180555873Y-88700000D01*
X183525203Y-88700000D01*
X183544460Y-88701480D01*
X183621040Y-88713323D01*
X183621049Y-88713324D01*
X183622231Y-88713507D01*
X183637869Y-88715299D01*
X183639055Y-88715388D01*
X183639068Y-88715389D01*
X183654128Y-88716516D01*
X183657629Y-88716778D01*
X183658887Y-88716822D01*
X183658897Y-88716823D01*
X183663304Y-88716979D01*
X183673366Y-88717334D01*
X184171690Y-88715319D01*
X187488327Y-88701909D01*
X187488331Y-88701909D01*
X187494800Y-88701883D01*
X187552538Y-88701649D01*
X187553947Y-88701588D01*
X187553980Y-88701590D01*
X187554990Y-88701566D01*
X187554992Y-88701648D01*
X187579080Y-88703022D01*
X187644120Y-88713323D01*
X187653711Y-88714842D01*
X187717864Y-88745254D01*
X187755391Y-88805523D01*
X187760000Y-88839291D01*
X187760000Y-93640709D01*
X187739998Y-93708830D01*
X187686342Y-93755323D01*
X187653711Y-93765158D01*
X187569792Y-93778449D01*
X187550083Y-93780000D01*
X178109715Y-93780000D01*
X178041594Y-93759998D01*
X178014261Y-93736247D01*
X178011258Y-93732762D01*
X178005400Y-93725963D01*
X177885095Y-93647985D01*
X177747739Y-93606907D01*
X177738763Y-93606852D01*
X177738762Y-93606852D01*
X177678555Y-93606484D01*
X177604376Y-93606031D01*
X177466529Y-93645428D01*
X177345280Y-93721930D01*
X177339337Y-93728659D01*
X177339336Y-93728660D01*
X177331610Y-93737408D01*
X177271524Y-93775226D01*
X177237169Y-93780000D01*
X176853897Y-93780000D01*
X176831586Y-93778009D01*
X176820526Y-93776019D01*
X176820517Y-93776018D01*
X176819330Y-93775804D01*
X176814525Y-93775130D01*
X176805208Y-93773824D01*
X176805196Y-93773823D01*
X176804008Y-93773656D01*
X176784626Y-93771699D01*
X176783429Y-93771625D01*
X176783420Y-93771624D01*
X176777856Y-93771279D01*
X176769184Y-93770741D01*
X176767989Y-93770713D01*
X176767984Y-93770713D01*
X176237408Y-93758374D01*
X173669074Y-93698645D01*
X173669071Y-93698645D01*
X173667221Y-93698602D01*
X173643505Y-93699459D01*
X173641656Y-93699636D01*
X173641642Y-93699637D01*
X173620145Y-93701696D01*
X173620143Y-93701696D01*
X173613798Y-93702304D01*
X173607705Y-93704173D01*
X173607700Y-93704174D01*
X173553747Y-93720724D01*
X173482756Y-93721579D01*
X173422572Y-93683916D01*
X173392304Y-93619695D01*
X173401562Y-93549305D01*
X173427702Y-93511169D01*
X173713516Y-93225355D01*
X173727819Y-93209433D01*
X173744722Y-93188459D01*
X173780897Y-93119306D01*
X173800899Y-93051185D01*
X173809000Y-92994839D01*
X173809000Y-89309917D01*
X173808384Y-89294227D01*
X173807736Y-89285983D01*
X173806927Y-89275707D01*
X173806925Y-89275689D01*
X173806833Y-89274517D01*
X173804987Y-89258921D01*
X173790083Y-89164819D01*
X173782757Y-89134303D01*
X173770575Y-89096810D01*
X173758564Y-89067814D01*
X173719867Y-88991867D01*
X173703467Y-88965104D01*
X173680295Y-88933212D01*
X173659915Y-88909352D01*
X173660475Y-88908873D01*
X173630241Y-88847919D01*
X173638088Y-88777357D01*
X173682838Y-88722239D01*
X173754320Y-88700000D01*
X179361274Y-88700000D01*
X179429395Y-88720002D01*
G37*
G04 #@! TD.AperFunction*
G04 #@! TD*
G04 #@! TA.AperFunction,Conductor*
G04 #@! TO.N,Net-(C5-Pad2)*
G36*
X183076121Y-101250503D02*
G01*
X183122614Y-101304159D01*
X183134000Y-101356501D01*
X183134000Y-102293411D01*
X183113998Y-102361532D01*
X183060342Y-102408025D01*
X182990068Y-102418129D01*
X182965163Y-102410757D01*
X182965095Y-102410985D01*
X182827739Y-102369907D01*
X182818763Y-102369852D01*
X182818762Y-102369852D01*
X182758555Y-102369484D01*
X182684376Y-102369031D01*
X182546529Y-102408428D01*
X182425280Y-102484930D01*
X182330377Y-102592388D01*
X182269447Y-102722163D01*
X182247391Y-102863823D01*
X182265980Y-103005979D01*
X182323720Y-103137203D01*
X182415970Y-103246948D01*
X182535313Y-103326390D01*
X182672157Y-103369142D01*
X182681129Y-103369306D01*
X182681132Y-103369307D01*
X182746463Y-103370504D01*
X182815499Y-103371770D01*
X182824533Y-103369307D01*
X182945155Y-103336422D01*
X182945158Y-103336421D01*
X182953817Y-103334060D01*
X182959257Y-103330720D01*
X183028423Y-103322184D01*
X183092401Y-103352963D01*
X183129582Y-103413445D01*
X183134000Y-103446518D01*
X183134000Y-105889083D01*
X183132449Y-105908793D01*
X183117545Y-106002895D01*
X183105363Y-106040388D01*
X183066666Y-106116335D01*
X183043494Y-106148227D01*
X182983227Y-106208494D01*
X182951335Y-106231666D01*
X182875388Y-106270363D01*
X182837895Y-106282545D01*
X182743793Y-106297449D01*
X182724083Y-106299000D01*
X174399917Y-106299000D01*
X174380207Y-106297449D01*
X174286105Y-106282545D01*
X174248612Y-106270363D01*
X174172665Y-106231666D01*
X174140773Y-106208494D01*
X174080506Y-106148227D01*
X174057334Y-106116335D01*
X174018637Y-106040388D01*
X174006455Y-106002895D01*
X173991551Y-105908793D01*
X173990000Y-105889083D01*
X173990000Y-101356501D01*
X174010002Y-101288380D01*
X174063658Y-101241887D01*
X174116000Y-101230501D01*
X183008000Y-101230501D01*
X183076121Y-101250503D01*
G37*
G04 #@! TD.AperFunction*
G04 #@! TA.AperFunction,Conductor*
G36*
X182743793Y-93981551D02*
G01*
X182837895Y-93996455D01*
X182875388Y-94008637D01*
X182951335Y-94047334D01*
X182983227Y-94070506D01*
X183043494Y-94130773D01*
X183066666Y-94162665D01*
X183105363Y-94238612D01*
X183117545Y-94276105D01*
X183132449Y-94370207D01*
X183134000Y-94389917D01*
X183134000Y-100503501D01*
X183113998Y-100571622D01*
X183060342Y-100618115D01*
X183008000Y-100629501D01*
X177917197Y-100629501D01*
X177849076Y-100609499D01*
X177802583Y-100555843D01*
X177800000Y-100536920D01*
X177800000Y-96548917D01*
X177801551Y-96529207D01*
X177816455Y-96435105D01*
X177828637Y-96397612D01*
X177867334Y-96321665D01*
X177890506Y-96289773D01*
X177950773Y-96229506D01*
X177982665Y-96206334D01*
X178058612Y-96167637D01*
X178096105Y-96155455D01*
X178190207Y-96140551D01*
X178209917Y-96139000D01*
X179197000Y-96139000D01*
X179197000Y-94389917D01*
X179198551Y-94370207D01*
X179213455Y-94276105D01*
X179225637Y-94238612D01*
X179264334Y-94162665D01*
X179287506Y-94130773D01*
X179347773Y-94070506D01*
X179379665Y-94047334D01*
X179455612Y-94008637D01*
X179493105Y-93996455D01*
X179587207Y-93981551D01*
X179606917Y-93980000D01*
X182724083Y-93980000D01*
X182743793Y-93981551D01*
G37*
G04 #@! TD.AperFunction*
G04 #@! TD*
G04 #@! TA.AperFunction,Conductor*
G04 #@! TO.N,/W*
G36*
X187569792Y-93981551D02*
G01*
X187653711Y-93994842D01*
X187717864Y-94025254D01*
X187755391Y-94085522D01*
X187760000Y-94119291D01*
X187760000Y-106304000D01*
X187739998Y-106372121D01*
X187686342Y-106418614D01*
X187634000Y-106430000D01*
X183781291Y-106430000D01*
X183713170Y-106409998D01*
X183666677Y-106356342D01*
X183656842Y-106323711D01*
X183643551Y-106239794D01*
X183642000Y-106220083D01*
X183642000Y-94389917D01*
X183643551Y-94370207D01*
X183658455Y-94276105D01*
X183670637Y-94238612D01*
X183709334Y-94162665D01*
X183732506Y-94130773D01*
X183792773Y-94070506D01*
X183824665Y-94047334D01*
X183900612Y-94008637D01*
X183938105Y-93996455D01*
X184032207Y-93981551D01*
X184051917Y-93980000D01*
X187550083Y-93980000D01*
X187569792Y-93981551D01*
G37*
G04 #@! TD.AperFunction*
G04 #@! TD*
G04 #@! TA.AperFunction,Conductor*
G04 #@! TO.N,GND*
G36*
X165227000Y-95250000D02*
G01*
X161925000Y-95250000D01*
X161925000Y-94361000D01*
X161544000Y-93980000D01*
X160401000Y-93980000D01*
X160401000Y-93345000D01*
X159939500Y-93068100D01*
X159939500Y-91491368D01*
X159939696Y-91488695D01*
X159941425Y-91483660D01*
X159939589Y-91434746D01*
X159939500Y-91430020D01*
X159939500Y-91411054D01*
X159938619Y-91406319D01*
X159938390Y-91402792D01*
X159937662Y-91383417D01*
X159937226Y-91371793D01*
X159932634Y-91361106D01*
X159931595Y-91356494D01*
X159928043Y-91344802D01*
X159926339Y-91340385D01*
X159924209Y-91328949D01*
X159911272Y-91307961D01*
X159902769Y-91291591D01*
X159896549Y-91277114D01*
X159896547Y-91277110D01*
X159893036Y-91268939D01*
X159889022Y-91264053D01*
X159886837Y-91261868D01*
X159884785Y-91259605D01*
X159884945Y-91259460D01*
X159877825Y-91250453D01*
X159871573Y-91243558D01*
X159865468Y-91233654D01*
X159843680Y-91217086D01*
X159830861Y-91205892D01*
X159302969Y-90678000D01*
X165227000Y-90678000D01*
X165227000Y-95250000D01*
G37*
G04 #@! TD.AperFunction*
G04 #@! TD*
M02*
