G04 #@! TF.GenerationSoftware,KiCad,Pcbnew,5.1.12-84ad8e8a86~92~ubuntu20.04.1*
G04 #@! TF.CreationDate,2022-01-19T08:39:14+02:00*
G04 #@! TF.ProjectId,opm-inline,6f706d2d-696e-46c6-996e-652e6b696361,rev?*
G04 #@! TF.SameCoordinates,Original*
G04 #@! TF.FileFunction,Legend,Top*
G04 #@! TF.FilePolarity,Positive*
%FSLAX46Y46*%
G04 Gerber Fmt 4.6, Leading zero omitted, Abs format (unit mm)*
G04 Created by KiCad (PCBNEW 5.1.12-84ad8e8a86~92~ubuntu20.04.1) date 2022-01-19 08:39:14*
%MOMM*%
%LPD*%
G01*
G04 APERTURE LIST*
%ADD10C,0.300000*%
%ADD11C,0.127000*%
%ADD12C,0.200000*%
%ADD13C,0.120000*%
%ADD14C,0.100000*%
%ADD15C,0.150000*%
%ADD16C,0.249999*%
%ADD17C,0.010000*%
G04 APERTURE END LIST*
D10*
X160718571Y-74275142D02*
X161861428Y-74275142D01*
X161290000Y-74846571D02*
X161290000Y-73703714D01*
X150050571Y-74275142D02*
X151193428Y-74275142D01*
X150622000Y-74846571D02*
X150622000Y-73703714D01*
D11*
G04 #@! TO.C,Q6*
X170390000Y-91520000D02*
X170390000Y-91405000D01*
X170390000Y-91405000D02*
X164490000Y-91405000D01*
X164490000Y-91405000D02*
X164490000Y-91520000D01*
X164490000Y-96440000D02*
X164490000Y-96555000D01*
X164490000Y-96555000D02*
X170390000Y-96555000D01*
X170390000Y-96555000D02*
X170390000Y-96440000D01*
D12*
X163640000Y-91980000D02*
G75*
G03*
X163640000Y-91980000I-100000J0D01*
G01*
G04 #@! TO.C,Q5*
X171430000Y-89630000D02*
G75*
G03*
X171430000Y-89630000I-100000J0D01*
G01*
D11*
X164480000Y-85055000D02*
X164480000Y-85170000D01*
X170380000Y-85055000D02*
X164480000Y-85055000D01*
X170380000Y-85170000D02*
X170380000Y-85055000D01*
X170380000Y-90205000D02*
X170380000Y-90090000D01*
X164480000Y-90205000D02*
X170380000Y-90205000D01*
X164480000Y-90090000D02*
X164480000Y-90205000D01*
D13*
G04 #@! TO.C,U3*
X189230000Y-99060000D02*
X181610000Y-99060000D01*
X189230000Y-83820000D02*
X181610000Y-83820000D01*
X187960000Y-99060000D02*
X187960000Y-83820000D01*
X181610000Y-99060000D02*
X181610000Y-83820000D01*
X189230000Y-99060000D02*
X189230000Y-83820000D01*
G04 #@! TO.C,U2*
X188087000Y-66040000D02*
X177927000Y-66040000D01*
X188087000Y-73660000D02*
X188087000Y-66040000D01*
X177927000Y-73660000D02*
X188087000Y-73660000D01*
X177927000Y-66040000D02*
X177927000Y-73660000D01*
X177927000Y-67310000D02*
X188087000Y-67310000D01*
D12*
G04 #@! TO.C,Q4*
X171650000Y-101270000D02*
G75*
G03*
X171650000Y-101270000I-100000J0D01*
G01*
D11*
X178400000Y-105845000D02*
X178400000Y-105730000D01*
X172500000Y-105845000D02*
X178400000Y-105845000D01*
X172500000Y-105730000D02*
X172500000Y-105845000D01*
X172500000Y-100695000D02*
X172500000Y-100810000D01*
X178400000Y-100695000D02*
X172500000Y-100695000D01*
X178400000Y-100810000D02*
X178400000Y-100695000D01*
D12*
G04 #@! TO.C,Q3*
X179450000Y-99420000D02*
G75*
G03*
X179450000Y-99420000I-100000J0D01*
G01*
D11*
X172500000Y-94845000D02*
X172500000Y-94960000D01*
X178400000Y-94845000D02*
X172500000Y-94845000D01*
X178400000Y-94960000D02*
X178400000Y-94845000D01*
X178400000Y-99995000D02*
X178400000Y-99880000D01*
X172500000Y-99995000D02*
X178400000Y-99995000D01*
X172500000Y-99880000D02*
X172500000Y-99995000D01*
D12*
G04 #@! TO.C,Q2*
X171650000Y-83860000D02*
G75*
G03*
X171650000Y-83860000I-100000J0D01*
G01*
D11*
X178400000Y-88435000D02*
X178400000Y-88320000D01*
X172500000Y-88435000D02*
X178400000Y-88435000D01*
X172500000Y-88320000D02*
X172500000Y-88435000D01*
X172500000Y-83285000D02*
X172500000Y-83400000D01*
X178400000Y-83285000D02*
X172500000Y-83285000D01*
X178400000Y-83400000D02*
X178400000Y-83285000D01*
D12*
G04 #@! TO.C,Q1*
X179450000Y-82110000D02*
G75*
G03*
X179450000Y-82110000I-100000J0D01*
G01*
D11*
X172500000Y-77535000D02*
X172500000Y-77650000D01*
X178400000Y-77535000D02*
X172500000Y-77535000D01*
X178400000Y-77650000D02*
X178400000Y-77535000D01*
X178400000Y-82685000D02*
X178400000Y-82570000D01*
X172500000Y-82685000D02*
X178400000Y-82685000D01*
X172500000Y-82570000D02*
X172500000Y-82685000D01*
D13*
G04 #@! TO.C,J3*
X129520000Y-66470000D02*
X129520000Y-67720000D01*
X130770000Y-66470000D02*
X129520000Y-66470000D01*
X140880000Y-70880000D02*
X140880000Y-70380000D01*
X140980000Y-70380000D02*
X140980000Y-70880000D01*
X140780000Y-70380000D02*
X140980000Y-70380000D01*
X140780000Y-70880000D02*
X140780000Y-70380000D01*
X138880000Y-70880000D02*
X138880000Y-70380000D01*
X138980000Y-70380000D02*
X138980000Y-70880000D01*
X138780000Y-70380000D02*
X138980000Y-70380000D01*
X138780000Y-70880000D02*
X138780000Y-70380000D01*
X136880000Y-70880000D02*
X136880000Y-70380000D01*
X136980000Y-70380000D02*
X136980000Y-70880000D01*
X136780000Y-70380000D02*
X136980000Y-70380000D01*
X136780000Y-70880000D02*
X136780000Y-70380000D01*
X134880000Y-70880000D02*
X134880000Y-70380000D01*
X134980000Y-70380000D02*
X134980000Y-70880000D01*
X134780000Y-70380000D02*
X134980000Y-70380000D01*
X134780000Y-70880000D02*
X134780000Y-70380000D01*
X132880000Y-70880000D02*
X132880000Y-70380000D01*
X132980000Y-70380000D02*
X132980000Y-70880000D01*
X132780000Y-70380000D02*
X132980000Y-70380000D01*
X132780000Y-70880000D02*
X132780000Y-70380000D01*
X143940000Y-69380000D02*
X143330000Y-69380000D01*
X143940000Y-68080000D02*
X143330000Y-68080000D01*
X129820000Y-69380000D02*
X130430000Y-69380000D01*
X129820000Y-68080000D02*
X130430000Y-68080000D01*
X141380000Y-67380000D02*
X141380000Y-66770000D01*
X143330000Y-67380000D02*
X141380000Y-67380000D01*
X143330000Y-70880000D02*
X143330000Y-67380000D01*
X130430000Y-70880000D02*
X143330000Y-70880000D01*
X130430000Y-67380000D02*
X130430000Y-70880000D01*
X132380000Y-67380000D02*
X130430000Y-67380000D01*
X132380000Y-66770000D02*
X132380000Y-67380000D01*
X131580000Y-66670000D02*
X131280000Y-66670000D01*
X131280000Y-66570000D02*
X131280000Y-66770000D01*
X131580000Y-66570000D02*
X131280000Y-66570000D01*
X131580000Y-66770000D02*
X131580000Y-66570000D01*
X143940000Y-66770000D02*
X129820000Y-66770000D01*
X143940000Y-71490000D02*
X143940000Y-66770000D01*
X129820000Y-71490000D02*
X143940000Y-71490000D01*
X129820000Y-66770000D02*
X129820000Y-71490000D01*
G04 #@! TO.C,R15*
X175099064Y-91600000D02*
X173644936Y-91600000D01*
X175099064Y-93420000D02*
X173644936Y-93420000D01*
G04 #@! TO.C,R14*
X175099064Y-89260000D02*
X173644936Y-89260000D01*
X175099064Y-91080000D02*
X173644936Y-91080000D01*
G04 #@! TO.C,R10*
X184567064Y-104000000D02*
X183112936Y-104000000D01*
X184567064Y-105820000D02*
X183112936Y-105820000D01*
G04 #@! TO.C,R9*
X184567064Y-99920000D02*
X183112936Y-99920000D01*
X184567064Y-101740000D02*
X183112936Y-101740000D01*
G04 #@! TO.C,R8*
X184489064Y-80870000D02*
X183034936Y-80870000D01*
X184489064Y-82690000D02*
X183034936Y-82690000D01*
G04 #@! TO.C,R7*
X184489064Y-76560000D02*
X183034936Y-76560000D01*
X184489064Y-78380000D02*
X183034936Y-78380000D01*
G04 #@! TO.C,R26*
X144827742Y-99282500D02*
X145302258Y-99282500D01*
X144827742Y-98237500D02*
X145302258Y-98237500D01*
G04 #@! TO.C,R25*
X153176500Y-79358258D02*
X153176500Y-78883742D01*
X152131500Y-79358258D02*
X152131500Y-78883742D01*
G04 #@! TO.C,C20*
X144532000Y-84841580D02*
X144532000Y-84560420D01*
X143512000Y-84841580D02*
X143512000Y-84560420D01*
G04 #@! TO.C,C19*
X154151000Y-83319252D02*
X154151000Y-82796748D01*
X152681000Y-83319252D02*
X152681000Y-82796748D01*
G04 #@! TO.C,C18*
X149293252Y-98833000D02*
X148770748Y-98833000D01*
X149293252Y-100303000D02*
X148770748Y-100303000D01*
G04 #@! TO.C,C13*
X155167000Y-79194252D02*
X155167000Y-78671748D01*
X153697000Y-79194252D02*
X153697000Y-78671748D01*
G04 #@! TO.C,C16*
X157450000Y-71160000D02*
G75*
G03*
X157450000Y-71160000I-5120000J0D01*
G01*
G04 #@! TO.C,C15*
X168038000Y-71160000D02*
G75*
G03*
X168038000Y-71160000I-5120000J0D01*
G01*
G04 #@! TO.C,R24*
X147812742Y-98312500D02*
X148287258Y-98312500D01*
X147812742Y-97267500D02*
X148287258Y-97267500D01*
G04 #@! TO.C,R23*
X144859742Y-100598500D02*
X145334258Y-100598500D01*
X144859742Y-99553500D02*
X145334258Y-99553500D01*
G04 #@! TO.C,R22*
X141494742Y-84342500D02*
X141969258Y-84342500D01*
X141494742Y-83297500D02*
X141969258Y-83297500D01*
G04 #@! TO.C,R21*
X141969258Y-84821500D02*
X141494742Y-84821500D01*
X141969258Y-85866500D02*
X141494742Y-85866500D01*
G04 #@! TO.C,R20*
X158067742Y-77357500D02*
X158542258Y-77357500D01*
X158067742Y-76312500D02*
X158542258Y-76312500D01*
G04 #@! TO.C,R19*
X158067742Y-79008500D02*
X158542258Y-79008500D01*
X158067742Y-77963500D02*
X158542258Y-77963500D01*
G04 #@! TO.C,R18*
X151652500Y-78188258D02*
X151652500Y-77713742D01*
X150607500Y-78188258D02*
X150607500Y-77713742D01*
G04 #@! TO.C,R17*
X150128500Y-78124258D02*
X150128500Y-77649742D01*
X149083500Y-78124258D02*
X149083500Y-77649742D01*
G04 #@! TO.C,R16*
X151398500Y-81199258D02*
X151398500Y-80724742D01*
X150353500Y-81199258D02*
X150353500Y-80724742D01*
G04 #@! TO.C,R13*
X160447258Y-94346500D02*
X159972742Y-94346500D01*
X160447258Y-95391500D02*
X159972742Y-95391500D01*
G04 #@! TO.C,R12*
X160447258Y-95870500D02*
X159972742Y-95870500D01*
X160447258Y-96915500D02*
X159972742Y-96915500D01*
G04 #@! TO.C,R11*
X162622258Y-81457500D02*
X162147742Y-81457500D01*
X162622258Y-82502500D02*
X162147742Y-82502500D01*
G04 #@! TO.C,R6*
X161002258Y-101527500D02*
X160527742Y-101527500D01*
X161002258Y-102572500D02*
X160527742Y-102572500D01*
G04 #@! TO.C,R5*
X162352258Y-98507500D02*
X161877742Y-98507500D01*
X162352258Y-99552500D02*
X161877742Y-99552500D01*
G04 #@! TO.C,R4*
X178427258Y-92657500D02*
X177952742Y-92657500D01*
X178427258Y-93702500D02*
X177952742Y-93702500D01*
G04 #@! TO.C,R3*
X162622258Y-79987500D02*
X162147742Y-79987500D01*
X162622258Y-81032500D02*
X162147742Y-81032500D01*
G04 #@! TO.C,R2*
X162622258Y-78517500D02*
X162147742Y-78517500D01*
X162622258Y-79562500D02*
X162147742Y-79562500D01*
G04 #@! TO.C,R1*
X162606258Y-76947500D02*
X162131742Y-76947500D01*
X162606258Y-77992500D02*
X162131742Y-77992500D01*
D14*
G04 #@! TO.C,IC1*
G36*
X157195400Y-91999500D02*
G01*
X157449400Y-91999500D01*
X157449400Y-92380500D01*
X157195400Y-92380500D01*
X157195400Y-91999500D01*
G37*
X157195400Y-91999500D02*
X157449400Y-91999500D01*
X157449400Y-92380500D01*
X157195400Y-92380500D01*
X157195400Y-91999500D01*
G36*
X152030501Y-96299400D02*
G01*
X151649500Y-96299400D01*
X151649500Y-96045400D01*
X152030501Y-96045400D01*
X152030501Y-96299400D01*
G37*
X152030501Y-96299400D02*
X151649500Y-96299400D01*
X151649500Y-96045400D01*
X152030501Y-96045400D01*
X152030501Y-96299400D01*
G36*
X146984600Y-91499501D02*
G01*
X146730600Y-91499501D01*
X146730600Y-91880501D01*
X146984600Y-91880501D01*
X146984600Y-91499501D01*
G37*
X146984600Y-91499501D02*
X146730600Y-91499501D01*
X146730600Y-91880501D01*
X146984600Y-91880501D01*
X146984600Y-91499501D01*
G36*
X150530501Y-85580600D02*
G01*
X150149501Y-85580600D01*
X150149501Y-85834600D01*
X150530501Y-85834600D01*
X150530501Y-85580600D01*
G37*
X150530501Y-85580600D02*
X150149501Y-85580600D01*
X150149501Y-85834600D01*
X150530501Y-85834600D01*
X150530501Y-85580600D01*
D13*
X155722200Y-87717560D02*
X155722200Y-87307800D01*
X155312440Y-94572200D02*
X155722200Y-94572200D01*
X148457800Y-94162440D02*
X148457800Y-94572200D01*
X148867560Y-87307800D02*
X148457800Y-87307800D01*
X155722200Y-87307800D02*
X155312440Y-87307800D01*
X155722200Y-94572200D02*
X155722200Y-94162440D01*
X148457800Y-94572200D02*
X148867560Y-94572200D01*
X148457800Y-87307800D02*
X148457800Y-87717560D01*
G04 #@! TO.C,D2*
X147293000Y-69785500D02*
X147293000Y-67500500D01*
X145823000Y-69785500D02*
X147293000Y-69785500D01*
X145823000Y-67500500D02*
X145823000Y-69785500D01*
G04 #@! TO.C,D1*
X145769000Y-69811000D02*
X145769000Y-67526000D01*
X144299000Y-69811000D02*
X145769000Y-69811000D01*
X144299000Y-67526000D02*
X144299000Y-69811000D01*
G04 #@! TO.C,C17*
X147572000Y-77723420D02*
X147572000Y-78004580D01*
X148592000Y-77723420D02*
X148592000Y-78004580D01*
G04 #@! TO.C,C14*
X184480580Y-80120000D02*
X184199420Y-80120000D01*
X184480580Y-79100000D02*
X184199420Y-79100000D01*
G04 #@! TO.C,C12*
X178040420Y-89968000D02*
X178321580Y-89968000D01*
X178040420Y-88948000D02*
X178321580Y-88948000D01*
G04 #@! TO.C,C11*
X184685580Y-102360000D02*
X184404420Y-102360000D01*
X184685580Y-103380000D02*
X184404420Y-103380000D01*
G04 #@! TO.C,C10*
X146052000Y-84836580D02*
X146052000Y-84555420D01*
X145032000Y-84836580D02*
X145032000Y-84555420D01*
G04 #@! TO.C,C6*
X163716580Y-97049000D02*
X163435420Y-97049000D01*
X163716580Y-98069000D02*
X163435420Y-98069000D01*
G04 #@! TO.C,C5*
X160654420Y-100020000D02*
X160935580Y-100020000D01*
X160654420Y-101040000D02*
X160935580Y-101040000D01*
G04 #@! TO.C,C4*
X156109580Y-81532000D02*
X155828420Y-81532000D01*
X156109580Y-82552000D02*
X155828420Y-82552000D01*
G04 #@! TO.C,C3*
X156680000Y-99195580D02*
X156680000Y-98914420D01*
X155660000Y-99195580D02*
X155660000Y-98914420D01*
G04 #@! TO.C,C2*
X155110000Y-99195580D02*
X155110000Y-98914420D01*
X154090000Y-99195580D02*
X154090000Y-98914420D01*
G04 #@! TO.C,C1*
X153140000Y-99195580D02*
X153140000Y-98914420D01*
X152120000Y-99195580D02*
X152120000Y-98914420D01*
G04 #@! TO.C,J2*
X134825000Y-77523000D02*
X133575000Y-77523000D01*
X134825000Y-78773000D02*
X134825000Y-77523000D01*
X130415000Y-80883000D02*
X130915000Y-80883000D01*
X130915000Y-80983000D02*
X130415000Y-80983000D01*
X130915000Y-80783000D02*
X130915000Y-80983000D01*
X130415000Y-80783000D02*
X130915000Y-80783000D01*
X131915000Y-83943000D02*
X131915000Y-83333000D01*
X133215000Y-83943000D02*
X133215000Y-83333000D01*
X131915000Y-77823000D02*
X131915000Y-78433000D01*
X133215000Y-77823000D02*
X133215000Y-78433000D01*
X133915000Y-81383000D02*
X134525000Y-81383000D01*
X133915000Y-83333000D02*
X133915000Y-81383000D01*
X130415000Y-83333000D02*
X133915000Y-83333000D01*
X130415000Y-78433000D02*
X130415000Y-83333000D01*
X133915000Y-78433000D02*
X130415000Y-78433000D01*
X133915000Y-80383000D02*
X133915000Y-78433000D01*
X134525000Y-80383000D02*
X133915000Y-80383000D01*
X134625000Y-79583000D02*
X134625000Y-79283000D01*
X134725000Y-79283000D02*
X134525000Y-79283000D01*
X134725000Y-79583000D02*
X134725000Y-79283000D01*
X134525000Y-79583000D02*
X134725000Y-79583000D01*
X134525000Y-83943000D02*
X134525000Y-77823000D01*
X129805000Y-83943000D02*
X134525000Y-83943000D01*
X129805000Y-77823000D02*
X129805000Y-83943000D01*
X134525000Y-77823000D02*
X129805000Y-77823000D01*
G04 #@! TO.C,J6*
X138134000Y-72058000D02*
X138134000Y-73308000D01*
X139384000Y-72058000D02*
X138134000Y-72058000D01*
X143494000Y-76468000D02*
X143494000Y-75968000D01*
X143594000Y-75968000D02*
X143594000Y-76468000D01*
X143394000Y-75968000D02*
X143594000Y-75968000D01*
X143394000Y-76468000D02*
X143394000Y-75968000D01*
X141494000Y-76468000D02*
X141494000Y-75968000D01*
X141594000Y-75968000D02*
X141594000Y-76468000D01*
X141394000Y-75968000D02*
X141594000Y-75968000D01*
X141394000Y-76468000D02*
X141394000Y-75968000D01*
X146554000Y-74968000D02*
X145944000Y-74968000D01*
X146554000Y-73668000D02*
X145944000Y-73668000D01*
X138434000Y-74968000D02*
X139044000Y-74968000D01*
X138434000Y-73668000D02*
X139044000Y-73668000D01*
X143994000Y-72968000D02*
X143994000Y-72358000D01*
X145944000Y-72968000D02*
X143994000Y-72968000D01*
X145944000Y-76468000D02*
X145944000Y-72968000D01*
X139044000Y-76468000D02*
X145944000Y-76468000D01*
X139044000Y-72968000D02*
X139044000Y-76468000D01*
X140994000Y-72968000D02*
X139044000Y-72968000D01*
X140994000Y-72358000D02*
X140994000Y-72968000D01*
X140194000Y-72258000D02*
X139894000Y-72258000D01*
X139894000Y-72158000D02*
X139894000Y-72358000D01*
X140194000Y-72158000D02*
X139894000Y-72158000D01*
X140194000Y-72358000D02*
X140194000Y-72158000D01*
X146554000Y-72358000D02*
X138434000Y-72358000D01*
X146554000Y-77078000D02*
X146554000Y-72358000D01*
X138434000Y-77078000D02*
X146554000Y-77078000D01*
X138434000Y-72358000D02*
X138434000Y-77078000D01*
G04 #@! TO.C,J4*
X135160000Y-93190000D02*
X130440000Y-93190000D01*
X130440000Y-93190000D02*
X130440000Y-99310000D01*
X130440000Y-99310000D02*
X135160000Y-99310000D01*
X135160000Y-99310000D02*
X135160000Y-93190000D01*
X135160000Y-94950000D02*
X135360000Y-94950000D01*
X135360000Y-94950000D02*
X135360000Y-94650000D01*
X135360000Y-94650000D02*
X135160000Y-94650000D01*
X135260000Y-94950000D02*
X135260000Y-94650000D01*
X135160000Y-95750000D02*
X134550000Y-95750000D01*
X134550000Y-95750000D02*
X134550000Y-93800000D01*
X134550000Y-93800000D02*
X131050000Y-93800000D01*
X131050000Y-93800000D02*
X131050000Y-98700000D01*
X131050000Y-98700000D02*
X134550000Y-98700000D01*
X134550000Y-98700000D02*
X134550000Y-96750000D01*
X134550000Y-96750000D02*
X135160000Y-96750000D01*
X133850000Y-93190000D02*
X133850000Y-93800000D01*
X132550000Y-93190000D02*
X132550000Y-93800000D01*
X133850000Y-99310000D02*
X133850000Y-98700000D01*
X132550000Y-99310000D02*
X132550000Y-98700000D01*
X131050000Y-96150000D02*
X131550000Y-96150000D01*
X131550000Y-96150000D02*
X131550000Y-96350000D01*
X131550000Y-96350000D02*
X131050000Y-96350000D01*
X131050000Y-96250000D02*
X131550000Y-96250000D01*
X135460000Y-94140000D02*
X135460000Y-92890000D01*
X135460000Y-92890000D02*
X134210000Y-92890000D01*
G04 #@! TO.C,J1*
X129820000Y-72300000D02*
X129820000Y-77020000D01*
X129820000Y-77020000D02*
X137940000Y-77020000D01*
X137940000Y-77020000D02*
X137940000Y-72300000D01*
X137940000Y-72300000D02*
X129820000Y-72300000D01*
X131580000Y-72300000D02*
X131580000Y-72100000D01*
X131580000Y-72100000D02*
X131280000Y-72100000D01*
X131280000Y-72100000D02*
X131280000Y-72300000D01*
X131580000Y-72200000D02*
X131280000Y-72200000D01*
X132380000Y-72300000D02*
X132380000Y-72910000D01*
X132380000Y-72910000D02*
X130430000Y-72910000D01*
X130430000Y-72910000D02*
X130430000Y-76410000D01*
X130430000Y-76410000D02*
X137330000Y-76410000D01*
X137330000Y-76410000D02*
X137330000Y-72910000D01*
X137330000Y-72910000D02*
X135380000Y-72910000D01*
X135380000Y-72910000D02*
X135380000Y-72300000D01*
X129820000Y-73610000D02*
X130430000Y-73610000D01*
X129820000Y-74910000D02*
X130430000Y-74910000D01*
X137940000Y-73610000D02*
X137330000Y-73610000D01*
X137940000Y-74910000D02*
X137330000Y-74910000D01*
X132780000Y-76410000D02*
X132780000Y-75910000D01*
X132780000Y-75910000D02*
X132980000Y-75910000D01*
X132980000Y-75910000D02*
X132980000Y-76410000D01*
X132880000Y-76410000D02*
X132880000Y-75910000D01*
X134780000Y-76410000D02*
X134780000Y-75910000D01*
X134780000Y-75910000D02*
X134980000Y-75910000D01*
X134980000Y-75910000D02*
X134980000Y-76410000D01*
X134880000Y-76410000D02*
X134880000Y-75910000D01*
X130770000Y-72000000D02*
X129520000Y-72000000D01*
X129520000Y-72000000D02*
X129520000Y-73250000D01*
G04 #@! TO.C,C8*
X169345000Y-100568748D02*
X169345000Y-101091252D01*
X170815000Y-100568748D02*
X170815000Y-101091252D01*
G04 #@! TO.C,C22*
X168845000Y-100568748D02*
X168845000Y-101091252D01*
X167375000Y-100568748D02*
X167375000Y-101091252D01*
G04 #@! TO.C,C24*
X165395000Y-100568748D02*
X165395000Y-101091252D01*
X166865000Y-100568748D02*
X166865000Y-101091252D01*
G04 #@! TO.C,C25*
X161555000Y-90408748D02*
X161555000Y-90931252D01*
X160085000Y-90408748D02*
X160085000Y-90931252D01*
G04 #@! TO.C,C26*
X158115000Y-90408748D02*
X158115000Y-90931252D01*
X159585000Y-90408748D02*
X159585000Y-90931252D01*
G04 #@! TO.C,C7*
X170815000Y-80068748D02*
X170815000Y-80591252D01*
X169345000Y-80068748D02*
X169345000Y-80591252D01*
G04 #@! TO.C,C9*
X162025000Y-90408748D02*
X162025000Y-90931252D01*
X163495000Y-90408748D02*
X163495000Y-90931252D01*
G04 #@! TO.C,C21*
X167405000Y-80068748D02*
X167405000Y-80591252D01*
X168875000Y-80068748D02*
X168875000Y-80591252D01*
G04 #@! TO.C,C23*
X166905000Y-80068748D02*
X166905000Y-80591252D01*
X165435000Y-80068748D02*
X165435000Y-80591252D01*
D11*
G04 #@! TO.C,Q7*
X177067000Y-67390000D02*
X177067000Y-67275000D01*
X177067000Y-67275000D02*
X171167000Y-67275000D01*
X171167000Y-67275000D02*
X171167000Y-67390000D01*
X171167000Y-72310000D02*
X171167000Y-72425000D01*
X171167000Y-72425000D02*
X177067000Y-72425000D01*
X177067000Y-72425000D02*
X177067000Y-72310000D01*
D12*
X170317000Y-67850000D02*
G75*
G03*
X170317000Y-67850000I-100000J0D01*
G01*
D13*
G04 #@! TO.C,D4*
X168368000Y-74259000D02*
X170368000Y-74259000D01*
X170368000Y-74259000D02*
X170368000Y-70359000D01*
X168368000Y-74259000D02*
X168368000Y-70359000D01*
G04 #@! TO.C,R27*
X169274258Y-75706500D02*
X168799742Y-75706500D01*
X169274258Y-74661500D02*
X168799742Y-74661500D01*
G04 #@! TO.C,D6*
X177585000Y-76122000D02*
X177585000Y-72822000D01*
X177585000Y-72822000D02*
X172185000Y-72822000D01*
X177585000Y-76122000D02*
X172185000Y-76122000D01*
D15*
G04 #@! TO.C,D3*
X140126999Y-79867001D02*
X140126999Y-77866999D01*
X139527001Y-79867001D02*
X139527001Y-77866999D01*
X139527001Y-79867001D02*
X140126999Y-79867001D01*
X139527001Y-77866999D02*
X140126999Y-77866999D01*
D16*
X139002000Y-77467000D02*
G75*
G03*
X139002000Y-77467000I-125001J0D01*
G01*
G04 #@! TO.C,D5*
X135446000Y-77467000D02*
G75*
G03*
X135446000Y-77467000I-125001J0D01*
G01*
D15*
X135971001Y-77866999D02*
X136570999Y-77866999D01*
X135971001Y-79867001D02*
X136570999Y-79867001D01*
X135971001Y-79867001D02*
X135971001Y-77866999D01*
X136570999Y-79867001D02*
X136570999Y-77866999D01*
G04 #@! TO.C,D7*
X144825999Y-80502001D02*
X144825999Y-78501999D01*
X144226001Y-80502001D02*
X144226001Y-78501999D01*
X144226001Y-80502001D02*
X144825999Y-80502001D01*
X144226001Y-78501999D02*
X144825999Y-78501999D01*
D16*
X143701000Y-78102000D02*
G75*
G03*
X143701000Y-78102000I-125001J0D01*
G01*
D17*
G04 #@! TO.C,HS1*
G36*
X137299744Y-104789918D02*
G01*
X137355201Y-104817568D01*
X137404148Y-104868480D01*
X137417629Y-104887338D01*
X137432314Y-104912015D01*
X137441842Y-104938816D01*
X137447293Y-104974587D01*
X137449747Y-105026169D01*
X137450286Y-105094267D01*
X137447852Y-105187588D01*
X137439394Y-105257657D01*
X137423174Y-105309931D01*
X137397454Y-105349869D01*
X137360497Y-105382929D01*
X137357782Y-105384886D01*
X137321360Y-105404908D01*
X137277502Y-105414815D01*
X137221724Y-105417257D01*
X137131048Y-105417257D01*
X137131010Y-105505283D01*
X137130166Y-105554308D01*
X137125024Y-105583065D01*
X137111587Y-105600311D01*
X137085858Y-105614808D01*
X137079679Y-105617769D01*
X137050764Y-105631648D01*
X137028376Y-105640414D01*
X137011729Y-105641171D01*
X137000036Y-105631023D01*
X136992510Y-105607073D01*
X136988366Y-105566426D01*
X136986815Y-105506186D01*
X136987071Y-105423455D01*
X136988349Y-105315339D01*
X136988748Y-105283000D01*
X136990185Y-105171524D01*
X136991472Y-105098603D01*
X137130971Y-105098603D01*
X137131755Y-105160499D01*
X137135240Y-105200997D01*
X137143124Y-105227708D01*
X137157105Y-105248244D01*
X137166597Y-105258260D01*
X137205404Y-105287567D01*
X137239763Y-105289952D01*
X137275216Y-105265750D01*
X137276114Y-105264857D01*
X137290539Y-105246153D01*
X137299313Y-105220732D01*
X137303739Y-105181584D01*
X137305118Y-105121697D01*
X137305143Y-105108430D01*
X137301812Y-105025901D01*
X137290969Y-104968691D01*
X137271340Y-104933766D01*
X137241650Y-104918094D01*
X137224491Y-104916514D01*
X137183766Y-104923926D01*
X137155832Y-104948330D01*
X137139017Y-104992980D01*
X137131650Y-105061130D01*
X137130971Y-105098603D01*
X136991472Y-105098603D01*
X136991708Y-105085245D01*
X136993677Y-105020333D01*
X136996450Y-104972958D01*
X137000388Y-104939290D01*
X137005849Y-104915498D01*
X137013192Y-104897753D01*
X137022777Y-104882224D01*
X137026887Y-104876381D01*
X137081405Y-104821185D01*
X137150336Y-104789890D01*
X137230072Y-104781165D01*
X137299744Y-104789918D01*
G37*
X137299744Y-104789918D02*
X137355201Y-104817568D01*
X137404148Y-104868480D01*
X137417629Y-104887338D01*
X137432314Y-104912015D01*
X137441842Y-104938816D01*
X137447293Y-104974587D01*
X137449747Y-105026169D01*
X137450286Y-105094267D01*
X137447852Y-105187588D01*
X137439394Y-105257657D01*
X137423174Y-105309931D01*
X137397454Y-105349869D01*
X137360497Y-105382929D01*
X137357782Y-105384886D01*
X137321360Y-105404908D01*
X137277502Y-105414815D01*
X137221724Y-105417257D01*
X137131048Y-105417257D01*
X137131010Y-105505283D01*
X137130166Y-105554308D01*
X137125024Y-105583065D01*
X137111587Y-105600311D01*
X137085858Y-105614808D01*
X137079679Y-105617769D01*
X137050764Y-105631648D01*
X137028376Y-105640414D01*
X137011729Y-105641171D01*
X137000036Y-105631023D01*
X136992510Y-105607073D01*
X136988366Y-105566426D01*
X136986815Y-105506186D01*
X136987071Y-105423455D01*
X136988349Y-105315339D01*
X136988748Y-105283000D01*
X136990185Y-105171524D01*
X136991472Y-105098603D01*
X137130971Y-105098603D01*
X137131755Y-105160499D01*
X137135240Y-105200997D01*
X137143124Y-105227708D01*
X137157105Y-105248244D01*
X137166597Y-105258260D01*
X137205404Y-105287567D01*
X137239763Y-105289952D01*
X137275216Y-105265750D01*
X137276114Y-105264857D01*
X137290539Y-105246153D01*
X137299313Y-105220732D01*
X137303739Y-105181584D01*
X137305118Y-105121697D01*
X137305143Y-105108430D01*
X137301812Y-105025901D01*
X137290969Y-104968691D01*
X137271340Y-104933766D01*
X137241650Y-104918094D01*
X137224491Y-104916514D01*
X137183766Y-104923926D01*
X137155832Y-104948330D01*
X137139017Y-104992980D01*
X137131650Y-105061130D01*
X137130971Y-105098603D01*
X136991472Y-105098603D01*
X136991708Y-105085245D01*
X136993677Y-105020333D01*
X136996450Y-104972958D01*
X137000388Y-104939290D01*
X137005849Y-104915498D01*
X137013192Y-104897753D01*
X137022777Y-104882224D01*
X137026887Y-104876381D01*
X137081405Y-104821185D01*
X137150336Y-104789890D01*
X137230072Y-104781165D01*
X137299744Y-104789918D01*
G36*
X138416093Y-104797780D02*
G01*
X138462672Y-104824723D01*
X138495057Y-104851466D01*
X138518742Y-104879484D01*
X138535059Y-104913748D01*
X138545339Y-104959227D01*
X138550914Y-105020892D01*
X138553116Y-105103711D01*
X138553371Y-105163246D01*
X138553371Y-105382391D01*
X138491686Y-105410044D01*
X138430000Y-105437697D01*
X138422743Y-105197670D01*
X138419744Y-105108028D01*
X138416598Y-105042962D01*
X138412701Y-104998026D01*
X138407447Y-104968770D01*
X138400231Y-104950748D01*
X138390450Y-104939511D01*
X138387312Y-104937079D01*
X138339761Y-104918083D01*
X138291697Y-104925600D01*
X138263086Y-104945543D01*
X138251447Y-104959675D01*
X138243391Y-104978220D01*
X138238271Y-105006334D01*
X138235441Y-105049173D01*
X138234256Y-105111895D01*
X138234057Y-105177261D01*
X138234018Y-105259268D01*
X138232614Y-105317316D01*
X138227914Y-105356465D01*
X138217987Y-105381780D01*
X138200903Y-105398323D01*
X138174732Y-105411156D01*
X138139775Y-105424491D01*
X138101596Y-105439007D01*
X138106141Y-105181389D01*
X138107971Y-105088519D01*
X138110112Y-105019889D01*
X138113181Y-104970711D01*
X138117794Y-104936198D01*
X138124568Y-104911562D01*
X138134119Y-104892016D01*
X138145634Y-104874770D01*
X138201190Y-104819680D01*
X138268980Y-104787822D01*
X138342713Y-104780191D01*
X138416093Y-104797780D01*
G37*
X138416093Y-104797780D02*
X138462672Y-104824723D01*
X138495057Y-104851466D01*
X138518742Y-104879484D01*
X138535059Y-104913748D01*
X138545339Y-104959227D01*
X138550914Y-105020892D01*
X138553116Y-105103711D01*
X138553371Y-105163246D01*
X138553371Y-105382391D01*
X138491686Y-105410044D01*
X138430000Y-105437697D01*
X138422743Y-105197670D01*
X138419744Y-105108028D01*
X138416598Y-105042962D01*
X138412701Y-104998026D01*
X138407447Y-104968770D01*
X138400231Y-104950748D01*
X138390450Y-104939511D01*
X138387312Y-104937079D01*
X138339761Y-104918083D01*
X138291697Y-104925600D01*
X138263086Y-104945543D01*
X138251447Y-104959675D01*
X138243391Y-104978220D01*
X138238271Y-105006334D01*
X138235441Y-105049173D01*
X138234256Y-105111895D01*
X138234057Y-105177261D01*
X138234018Y-105259268D01*
X138232614Y-105317316D01*
X138227914Y-105356465D01*
X138217987Y-105381780D01*
X138200903Y-105398323D01*
X138174732Y-105411156D01*
X138139775Y-105424491D01*
X138101596Y-105439007D01*
X138106141Y-105181389D01*
X138107971Y-105088519D01*
X138110112Y-105019889D01*
X138113181Y-104970711D01*
X138117794Y-104936198D01*
X138124568Y-104911562D01*
X138134119Y-104892016D01*
X138145634Y-104874770D01*
X138201190Y-104819680D01*
X138268980Y-104787822D01*
X138342713Y-104780191D01*
X138416093Y-104797780D01*
G36*
X136741115Y-104791962D02*
G01*
X136809145Y-104827733D01*
X136859351Y-104885301D01*
X136877185Y-104922312D01*
X136891063Y-104977882D01*
X136898167Y-105048096D01*
X136898840Y-105124727D01*
X136893427Y-105199552D01*
X136882270Y-105264342D01*
X136865714Y-105310873D01*
X136860626Y-105318887D01*
X136800355Y-105378707D01*
X136728769Y-105414535D01*
X136651092Y-105425020D01*
X136572548Y-105408810D01*
X136550689Y-105399092D01*
X136508122Y-105369143D01*
X136470763Y-105329433D01*
X136467232Y-105324397D01*
X136452881Y-105300124D01*
X136443394Y-105274178D01*
X136437790Y-105240022D01*
X136435086Y-105191119D01*
X136434299Y-105120935D01*
X136434286Y-105105200D01*
X136434322Y-105100192D01*
X136579429Y-105100192D01*
X136580273Y-105166430D01*
X136583596Y-105210386D01*
X136590583Y-105238779D01*
X136602416Y-105258325D01*
X136608457Y-105264857D01*
X136643186Y-105289680D01*
X136676903Y-105288548D01*
X136710995Y-105267016D01*
X136731329Y-105244029D01*
X136743371Y-105210478D01*
X136750134Y-105157569D01*
X136750598Y-105151399D01*
X136751752Y-105055513D01*
X136739688Y-104984299D01*
X136714570Y-104938194D01*
X136676560Y-104917635D01*
X136662992Y-104916514D01*
X136627364Y-104922152D01*
X136602994Y-104941686D01*
X136588093Y-104979042D01*
X136580875Y-105038150D01*
X136579429Y-105100192D01*
X136434322Y-105100192D01*
X136434826Y-105030413D01*
X136437096Y-104978159D01*
X136442068Y-104941949D01*
X136450713Y-104915299D01*
X136464005Y-104891722D01*
X136466943Y-104887338D01*
X136516313Y-104828249D01*
X136570109Y-104793947D01*
X136635602Y-104780331D01*
X136657842Y-104779665D01*
X136741115Y-104791962D01*
G37*
X136741115Y-104791962D02*
X136809145Y-104827733D01*
X136859351Y-104885301D01*
X136877185Y-104922312D01*
X136891063Y-104977882D01*
X136898167Y-105048096D01*
X136898840Y-105124727D01*
X136893427Y-105199552D01*
X136882270Y-105264342D01*
X136865714Y-105310873D01*
X136860626Y-105318887D01*
X136800355Y-105378707D01*
X136728769Y-105414535D01*
X136651092Y-105425020D01*
X136572548Y-105408810D01*
X136550689Y-105399092D01*
X136508122Y-105369143D01*
X136470763Y-105329433D01*
X136467232Y-105324397D01*
X136452881Y-105300124D01*
X136443394Y-105274178D01*
X136437790Y-105240022D01*
X136435086Y-105191119D01*
X136434299Y-105120935D01*
X136434286Y-105105200D01*
X136434322Y-105100192D01*
X136579429Y-105100192D01*
X136580273Y-105166430D01*
X136583596Y-105210386D01*
X136590583Y-105238779D01*
X136602416Y-105258325D01*
X136608457Y-105264857D01*
X136643186Y-105289680D01*
X136676903Y-105288548D01*
X136710995Y-105267016D01*
X136731329Y-105244029D01*
X136743371Y-105210478D01*
X136750134Y-105157569D01*
X136750598Y-105151399D01*
X136751752Y-105055513D01*
X136739688Y-104984299D01*
X136714570Y-104938194D01*
X136676560Y-104917635D01*
X136662992Y-104916514D01*
X136627364Y-104922152D01*
X136602994Y-104941686D01*
X136588093Y-104979042D01*
X136580875Y-105038150D01*
X136579429Y-105100192D01*
X136434322Y-105100192D01*
X136434826Y-105030413D01*
X136437096Y-104978159D01*
X136442068Y-104941949D01*
X136450713Y-104915299D01*
X136464005Y-104891722D01*
X136466943Y-104887338D01*
X136516313Y-104828249D01*
X136570109Y-104793947D01*
X136635602Y-104780331D01*
X136657842Y-104779665D01*
X136741115Y-104791962D01*
G36*
X137868303Y-104801239D02*
G01*
X137925527Y-104839735D01*
X137969749Y-104895335D01*
X137996167Y-104966086D01*
X138001510Y-105018162D01*
X138000903Y-105039893D01*
X137995822Y-105056531D01*
X137981855Y-105071437D01*
X137954589Y-105087973D01*
X137909612Y-105109498D01*
X137842511Y-105139374D01*
X137842171Y-105139524D01*
X137780407Y-105167813D01*
X137729759Y-105192933D01*
X137695404Y-105212179D01*
X137682518Y-105222848D01*
X137682514Y-105222934D01*
X137693872Y-105246166D01*
X137720431Y-105271774D01*
X137750923Y-105290221D01*
X137766370Y-105293886D01*
X137808515Y-105281212D01*
X137844808Y-105249471D01*
X137862517Y-105214572D01*
X137879552Y-105188845D01*
X137912922Y-105159546D01*
X137952149Y-105134235D01*
X137986756Y-105120471D01*
X137993993Y-105119714D01*
X138002139Y-105132160D01*
X138002630Y-105163972D01*
X137996643Y-105206866D01*
X137985357Y-105252558D01*
X137969950Y-105292761D01*
X137969171Y-105294322D01*
X137922804Y-105359062D01*
X137862711Y-105403097D01*
X137794465Y-105424711D01*
X137723638Y-105422185D01*
X137655804Y-105393804D01*
X137652788Y-105391808D01*
X137599427Y-105343448D01*
X137564340Y-105280352D01*
X137544922Y-105197387D01*
X137542316Y-105174078D01*
X137537701Y-105064055D01*
X137543233Y-105012748D01*
X137682514Y-105012748D01*
X137684324Y-105044753D01*
X137694222Y-105054093D01*
X137718898Y-105047105D01*
X137757795Y-105030587D01*
X137801275Y-105009881D01*
X137802356Y-105009333D01*
X137839209Y-104989949D01*
X137854000Y-104977013D01*
X137850353Y-104963451D01*
X137834995Y-104945632D01*
X137795923Y-104919845D01*
X137753846Y-104917950D01*
X137716103Y-104936717D01*
X137690034Y-104972915D01*
X137682514Y-105012748D01*
X137543233Y-105012748D01*
X137547194Y-104976027D01*
X137571550Y-104906212D01*
X137605456Y-104857302D01*
X137666653Y-104807878D01*
X137734063Y-104783359D01*
X137802880Y-104781797D01*
X137868303Y-104801239D01*
G37*
X137868303Y-104801239D02*
X137925527Y-104839735D01*
X137969749Y-104895335D01*
X137996167Y-104966086D01*
X138001510Y-105018162D01*
X138000903Y-105039893D01*
X137995822Y-105056531D01*
X137981855Y-105071437D01*
X137954589Y-105087973D01*
X137909612Y-105109498D01*
X137842511Y-105139374D01*
X137842171Y-105139524D01*
X137780407Y-105167813D01*
X137729759Y-105192933D01*
X137695404Y-105212179D01*
X137682518Y-105222848D01*
X137682514Y-105222934D01*
X137693872Y-105246166D01*
X137720431Y-105271774D01*
X137750923Y-105290221D01*
X137766370Y-105293886D01*
X137808515Y-105281212D01*
X137844808Y-105249471D01*
X137862517Y-105214572D01*
X137879552Y-105188845D01*
X137912922Y-105159546D01*
X137952149Y-105134235D01*
X137986756Y-105120471D01*
X137993993Y-105119714D01*
X138002139Y-105132160D01*
X138002630Y-105163972D01*
X137996643Y-105206866D01*
X137985357Y-105252558D01*
X137969950Y-105292761D01*
X137969171Y-105294322D01*
X137922804Y-105359062D01*
X137862711Y-105403097D01*
X137794465Y-105424711D01*
X137723638Y-105422185D01*
X137655804Y-105393804D01*
X137652788Y-105391808D01*
X137599427Y-105343448D01*
X137564340Y-105280352D01*
X137544922Y-105197387D01*
X137542316Y-105174078D01*
X137537701Y-105064055D01*
X137543233Y-105012748D01*
X137682514Y-105012748D01*
X137684324Y-105044753D01*
X137694222Y-105054093D01*
X137718898Y-105047105D01*
X137757795Y-105030587D01*
X137801275Y-105009881D01*
X137802356Y-105009333D01*
X137839209Y-104989949D01*
X137854000Y-104977013D01*
X137850353Y-104963451D01*
X137834995Y-104945632D01*
X137795923Y-104919845D01*
X137753846Y-104917950D01*
X137716103Y-104936717D01*
X137690034Y-104972915D01*
X137682514Y-105012748D01*
X137543233Y-105012748D01*
X137547194Y-104976027D01*
X137571550Y-104906212D01*
X137605456Y-104857302D01*
X137666653Y-104807878D01*
X137734063Y-104783359D01*
X137802880Y-104781797D01*
X137868303Y-104801239D01*
G36*
X139075886Y-104721289D02*
G01*
X139080139Y-104780613D01*
X139085025Y-104815572D01*
X139091795Y-104830820D01*
X139101702Y-104831015D01*
X139104914Y-104829195D01*
X139147644Y-104816015D01*
X139203227Y-104816785D01*
X139259737Y-104830333D01*
X139295082Y-104847861D01*
X139331321Y-104875861D01*
X139357813Y-104907549D01*
X139375999Y-104947813D01*
X139387322Y-105001543D01*
X139393222Y-105073626D01*
X139395143Y-105168951D01*
X139395177Y-105187237D01*
X139395200Y-105392646D01*
X139349491Y-105408580D01*
X139317027Y-105419420D01*
X139299215Y-105424468D01*
X139298691Y-105424514D01*
X139296937Y-105410828D01*
X139295444Y-105373076D01*
X139294326Y-105316224D01*
X139293697Y-105245234D01*
X139293600Y-105202073D01*
X139293398Y-105116973D01*
X139292358Y-105055981D01*
X139289831Y-105014177D01*
X139285164Y-104986642D01*
X139277707Y-104968456D01*
X139266811Y-104954698D01*
X139260007Y-104948073D01*
X139213272Y-104921375D01*
X139162272Y-104919375D01*
X139116001Y-104941955D01*
X139107444Y-104950107D01*
X139094893Y-104965436D01*
X139086188Y-104983618D01*
X139080631Y-105009909D01*
X139077526Y-105049562D01*
X139076176Y-105107832D01*
X139075886Y-105188173D01*
X139075886Y-105392646D01*
X139030177Y-105408580D01*
X138997713Y-105419420D01*
X138979901Y-105424468D01*
X138979377Y-105424514D01*
X138978037Y-105410623D01*
X138976828Y-105371439D01*
X138975801Y-105310700D01*
X138975002Y-105232141D01*
X138974481Y-105139498D01*
X138974286Y-105036509D01*
X138974286Y-104639342D01*
X139021457Y-104619444D01*
X139068629Y-104599547D01*
X139075886Y-104721289D01*
G37*
X139075886Y-104721289D02*
X139080139Y-104780613D01*
X139085025Y-104815572D01*
X139091795Y-104830820D01*
X139101702Y-104831015D01*
X139104914Y-104829195D01*
X139147644Y-104816015D01*
X139203227Y-104816785D01*
X139259737Y-104830333D01*
X139295082Y-104847861D01*
X139331321Y-104875861D01*
X139357813Y-104907549D01*
X139375999Y-104947813D01*
X139387322Y-105001543D01*
X139393222Y-105073626D01*
X139395143Y-105168951D01*
X139395177Y-105187237D01*
X139395200Y-105392646D01*
X139349491Y-105408580D01*
X139317027Y-105419420D01*
X139299215Y-105424468D01*
X139298691Y-105424514D01*
X139296937Y-105410828D01*
X139295444Y-105373076D01*
X139294326Y-105316224D01*
X139293697Y-105245234D01*
X139293600Y-105202073D01*
X139293398Y-105116973D01*
X139292358Y-105055981D01*
X139289831Y-105014177D01*
X139285164Y-104986642D01*
X139277707Y-104968456D01*
X139266811Y-104954698D01*
X139260007Y-104948073D01*
X139213272Y-104921375D01*
X139162272Y-104919375D01*
X139116001Y-104941955D01*
X139107444Y-104950107D01*
X139094893Y-104965436D01*
X139086188Y-104983618D01*
X139080631Y-105009909D01*
X139077526Y-105049562D01*
X139076176Y-105107832D01*
X139075886Y-105188173D01*
X139075886Y-105392646D01*
X139030177Y-105408580D01*
X138997713Y-105419420D01*
X138979901Y-105424468D01*
X138979377Y-105424514D01*
X138978037Y-105410623D01*
X138976828Y-105371439D01*
X138975801Y-105310700D01*
X138975002Y-105232141D01*
X138974481Y-105139498D01*
X138974286Y-105036509D01*
X138974286Y-104639342D01*
X139021457Y-104619444D01*
X139068629Y-104599547D01*
X139075886Y-104721289D01*
G36*
X139739744Y-104820968D02*
G01*
X139796616Y-104842087D01*
X139797267Y-104842493D01*
X139832440Y-104868380D01*
X139858407Y-104898633D01*
X139876670Y-104938058D01*
X139888732Y-104991462D01*
X139896096Y-105063651D01*
X139900264Y-105159432D01*
X139900629Y-105173078D01*
X139905876Y-105378842D01*
X139861716Y-105401678D01*
X139829763Y-105417110D01*
X139810470Y-105424423D01*
X139809578Y-105424514D01*
X139806239Y-105411022D01*
X139803587Y-105374626D01*
X139801956Y-105321452D01*
X139801600Y-105278393D01*
X139801592Y-105208641D01*
X139798403Y-105164837D01*
X139787288Y-105143944D01*
X139763501Y-105142925D01*
X139722296Y-105158741D01*
X139660086Y-105187815D01*
X139614341Y-105211963D01*
X139590813Y-105232913D01*
X139583896Y-105255747D01*
X139583886Y-105256877D01*
X139595299Y-105296212D01*
X139629092Y-105317462D01*
X139680809Y-105320539D01*
X139718061Y-105320006D01*
X139737703Y-105330735D01*
X139749952Y-105356505D01*
X139757002Y-105389337D01*
X139746842Y-105407966D01*
X139743017Y-105410632D01*
X139707001Y-105421340D01*
X139656566Y-105422856D01*
X139604626Y-105415759D01*
X139567822Y-105402788D01*
X139516938Y-105359585D01*
X139488014Y-105299446D01*
X139482286Y-105252462D01*
X139486657Y-105210082D01*
X139502475Y-105175488D01*
X139533797Y-105144763D01*
X139584678Y-105113990D01*
X139659176Y-105079252D01*
X139663714Y-105077288D01*
X139730821Y-105046287D01*
X139772232Y-105020862D01*
X139789981Y-104998014D01*
X139786107Y-104974745D01*
X139762643Y-104948056D01*
X139755627Y-104941914D01*
X139708630Y-104918100D01*
X139659933Y-104919103D01*
X139617522Y-104942451D01*
X139589384Y-104985675D01*
X139586769Y-104994160D01*
X139561308Y-105035308D01*
X139529001Y-105055128D01*
X139482286Y-105074770D01*
X139482286Y-105023950D01*
X139496496Y-104950082D01*
X139538675Y-104882327D01*
X139560624Y-104859661D01*
X139610517Y-104830569D01*
X139673967Y-104817400D01*
X139739744Y-104820968D01*
G37*
X139739744Y-104820968D02*
X139796616Y-104842087D01*
X139797267Y-104842493D01*
X139832440Y-104868380D01*
X139858407Y-104898633D01*
X139876670Y-104938058D01*
X139888732Y-104991462D01*
X139896096Y-105063651D01*
X139900264Y-105159432D01*
X139900629Y-105173078D01*
X139905876Y-105378842D01*
X139861716Y-105401678D01*
X139829763Y-105417110D01*
X139810470Y-105424423D01*
X139809578Y-105424514D01*
X139806239Y-105411022D01*
X139803587Y-105374626D01*
X139801956Y-105321452D01*
X139801600Y-105278393D01*
X139801592Y-105208641D01*
X139798403Y-105164837D01*
X139787288Y-105143944D01*
X139763501Y-105142925D01*
X139722296Y-105158741D01*
X139660086Y-105187815D01*
X139614341Y-105211963D01*
X139590813Y-105232913D01*
X139583896Y-105255747D01*
X139583886Y-105256877D01*
X139595299Y-105296212D01*
X139629092Y-105317462D01*
X139680809Y-105320539D01*
X139718061Y-105320006D01*
X139737703Y-105330735D01*
X139749952Y-105356505D01*
X139757002Y-105389337D01*
X139746842Y-105407966D01*
X139743017Y-105410632D01*
X139707001Y-105421340D01*
X139656566Y-105422856D01*
X139604626Y-105415759D01*
X139567822Y-105402788D01*
X139516938Y-105359585D01*
X139488014Y-105299446D01*
X139482286Y-105252462D01*
X139486657Y-105210082D01*
X139502475Y-105175488D01*
X139533797Y-105144763D01*
X139584678Y-105113990D01*
X139659176Y-105079252D01*
X139663714Y-105077288D01*
X139730821Y-105046287D01*
X139772232Y-105020862D01*
X139789981Y-104998014D01*
X139786107Y-104974745D01*
X139762643Y-104948056D01*
X139755627Y-104941914D01*
X139708630Y-104918100D01*
X139659933Y-104919103D01*
X139617522Y-104942451D01*
X139589384Y-104985675D01*
X139586769Y-104994160D01*
X139561308Y-105035308D01*
X139529001Y-105055128D01*
X139482286Y-105074770D01*
X139482286Y-105023950D01*
X139496496Y-104950082D01*
X139538675Y-104882327D01*
X139560624Y-104859661D01*
X139610517Y-104830569D01*
X139673967Y-104817400D01*
X139739744Y-104820968D01*
G36*
X140229926Y-104819755D02*
G01*
X140295858Y-104844084D01*
X140349273Y-104887117D01*
X140370164Y-104917409D01*
X140392939Y-104972994D01*
X140392466Y-105013186D01*
X140368562Y-105040217D01*
X140359717Y-105044813D01*
X140321530Y-105059144D01*
X140302028Y-105055472D01*
X140295422Y-105031407D01*
X140295086Y-105018114D01*
X140282992Y-104969210D01*
X140251471Y-104934999D01*
X140207659Y-104918476D01*
X140158695Y-104922634D01*
X140118894Y-104944227D01*
X140105450Y-104956544D01*
X140095921Y-104971487D01*
X140089485Y-104994075D01*
X140085317Y-105029328D01*
X140082597Y-105082266D01*
X140080502Y-105157907D01*
X140079960Y-105181857D01*
X140077981Y-105263790D01*
X140075731Y-105321455D01*
X140072357Y-105359608D01*
X140067006Y-105383004D01*
X140058824Y-105396398D01*
X140046959Y-105404545D01*
X140039362Y-105408144D01*
X140007102Y-105420452D01*
X139988111Y-105424514D01*
X139981836Y-105410948D01*
X139978006Y-105369934D01*
X139976600Y-105300999D01*
X139977598Y-105203669D01*
X139977908Y-105188657D01*
X139980101Y-105099859D01*
X139982693Y-105035019D01*
X139986382Y-104989067D01*
X139991864Y-104956935D01*
X139999835Y-104933553D01*
X140010993Y-104913852D01*
X140016830Y-104905410D01*
X140050296Y-104868057D01*
X140087727Y-104839003D01*
X140092309Y-104836467D01*
X140159426Y-104816443D01*
X140229926Y-104819755D01*
G37*
X140229926Y-104819755D02*
X140295858Y-104844084D01*
X140349273Y-104887117D01*
X140370164Y-104917409D01*
X140392939Y-104972994D01*
X140392466Y-105013186D01*
X140368562Y-105040217D01*
X140359717Y-105044813D01*
X140321530Y-105059144D01*
X140302028Y-105055472D01*
X140295422Y-105031407D01*
X140295086Y-105018114D01*
X140282992Y-104969210D01*
X140251471Y-104934999D01*
X140207659Y-104918476D01*
X140158695Y-104922634D01*
X140118894Y-104944227D01*
X140105450Y-104956544D01*
X140095921Y-104971487D01*
X140089485Y-104994075D01*
X140085317Y-105029328D01*
X140082597Y-105082266D01*
X140080502Y-105157907D01*
X140079960Y-105181857D01*
X140077981Y-105263790D01*
X140075731Y-105321455D01*
X140072357Y-105359608D01*
X140067006Y-105383004D01*
X140058824Y-105396398D01*
X140046959Y-105404545D01*
X140039362Y-105408144D01*
X140007102Y-105420452D01*
X139988111Y-105424514D01*
X139981836Y-105410948D01*
X139978006Y-105369934D01*
X139976600Y-105300999D01*
X139977598Y-105203669D01*
X139977908Y-105188657D01*
X139980101Y-105099859D01*
X139982693Y-105035019D01*
X139986382Y-104989067D01*
X139991864Y-104956935D01*
X139999835Y-104933553D01*
X140010993Y-104913852D01*
X140016830Y-104905410D01*
X140050296Y-104868057D01*
X140087727Y-104839003D01*
X140092309Y-104836467D01*
X140159426Y-104816443D01*
X140229926Y-104819755D01*
G36*
X140890117Y-104935358D02*
G01*
X140889933Y-105043837D01*
X140889219Y-105127287D01*
X140887675Y-105189704D01*
X140885001Y-105235085D01*
X140880894Y-105267429D01*
X140875055Y-105290733D01*
X140867182Y-105308995D01*
X140861221Y-105319418D01*
X140811855Y-105375945D01*
X140749264Y-105411377D01*
X140680013Y-105424090D01*
X140610668Y-105412463D01*
X140569375Y-105391568D01*
X140526025Y-105355422D01*
X140496481Y-105311276D01*
X140478655Y-105253462D01*
X140470463Y-105176313D01*
X140469302Y-105119714D01*
X140469458Y-105115647D01*
X140570857Y-105115647D01*
X140571476Y-105180550D01*
X140574314Y-105223514D01*
X140580840Y-105251622D01*
X140592523Y-105271953D01*
X140606483Y-105287288D01*
X140653365Y-105316890D01*
X140703701Y-105319419D01*
X140751276Y-105294705D01*
X140754979Y-105291356D01*
X140770783Y-105273935D01*
X140780693Y-105253209D01*
X140786058Y-105222362D01*
X140788228Y-105174577D01*
X140788571Y-105121748D01*
X140787827Y-105055381D01*
X140784748Y-105011106D01*
X140778061Y-104982009D01*
X140766496Y-104961173D01*
X140757013Y-104950107D01*
X140712960Y-104922198D01*
X140662224Y-104918843D01*
X140613796Y-104940159D01*
X140604450Y-104948073D01*
X140588540Y-104965647D01*
X140578610Y-104986587D01*
X140573278Y-105017782D01*
X140571163Y-105066122D01*
X140570857Y-105115647D01*
X140469458Y-105115647D01*
X140472810Y-105028568D01*
X140484726Y-104960086D01*
X140507135Y-104908600D01*
X140542124Y-104868443D01*
X140569375Y-104847861D01*
X140618907Y-104825625D01*
X140676316Y-104815304D01*
X140729682Y-104818067D01*
X140759543Y-104829212D01*
X140771261Y-104832383D01*
X140779037Y-104820557D01*
X140784465Y-104788866D01*
X140788571Y-104740593D01*
X140793067Y-104686829D01*
X140799313Y-104654482D01*
X140810676Y-104635985D01*
X140830528Y-104623770D01*
X140843000Y-104618362D01*
X140890171Y-104598601D01*
X140890117Y-104935358D01*
G37*
X140890117Y-104935358D02*
X140889933Y-105043837D01*
X140889219Y-105127287D01*
X140887675Y-105189704D01*
X140885001Y-105235085D01*
X140880894Y-105267429D01*
X140875055Y-105290733D01*
X140867182Y-105308995D01*
X140861221Y-105319418D01*
X140811855Y-105375945D01*
X140749264Y-105411377D01*
X140680013Y-105424090D01*
X140610668Y-105412463D01*
X140569375Y-105391568D01*
X140526025Y-105355422D01*
X140496481Y-105311276D01*
X140478655Y-105253462D01*
X140470463Y-105176313D01*
X140469302Y-105119714D01*
X140469458Y-105115647D01*
X140570857Y-105115647D01*
X140571476Y-105180550D01*
X140574314Y-105223514D01*
X140580840Y-105251622D01*
X140592523Y-105271953D01*
X140606483Y-105287288D01*
X140653365Y-105316890D01*
X140703701Y-105319419D01*
X140751276Y-105294705D01*
X140754979Y-105291356D01*
X140770783Y-105273935D01*
X140780693Y-105253209D01*
X140786058Y-105222362D01*
X140788228Y-105174577D01*
X140788571Y-105121748D01*
X140787827Y-105055381D01*
X140784748Y-105011106D01*
X140778061Y-104982009D01*
X140766496Y-104961173D01*
X140757013Y-104950107D01*
X140712960Y-104922198D01*
X140662224Y-104918843D01*
X140613796Y-104940159D01*
X140604450Y-104948073D01*
X140588540Y-104965647D01*
X140578610Y-104986587D01*
X140573278Y-105017782D01*
X140571163Y-105066122D01*
X140570857Y-105115647D01*
X140469458Y-105115647D01*
X140472810Y-105028568D01*
X140484726Y-104960086D01*
X140507135Y-104908600D01*
X140542124Y-104868443D01*
X140569375Y-104847861D01*
X140618907Y-104825625D01*
X140676316Y-104815304D01*
X140729682Y-104818067D01*
X140759543Y-104829212D01*
X140771261Y-104832383D01*
X140779037Y-104820557D01*
X140784465Y-104788866D01*
X140788571Y-104740593D01*
X140793067Y-104686829D01*
X140799313Y-104654482D01*
X140810676Y-104635985D01*
X140830528Y-104623770D01*
X140843000Y-104618362D01*
X140890171Y-104598601D01*
X140890117Y-104935358D01*
G36*
X141479833Y-104828663D02*
G01*
X141482048Y-104866850D01*
X141483784Y-104924886D01*
X141484899Y-104998180D01*
X141485257Y-105075055D01*
X141485257Y-105335196D01*
X141439326Y-105381127D01*
X141407675Y-105409429D01*
X141379890Y-105420893D01*
X141341915Y-105420168D01*
X141326840Y-105418321D01*
X141279726Y-105412948D01*
X141240756Y-105409869D01*
X141231257Y-105409585D01*
X141199233Y-105411445D01*
X141153432Y-105416114D01*
X141135674Y-105418321D01*
X141092057Y-105421735D01*
X141062745Y-105414320D01*
X141033680Y-105391427D01*
X141023188Y-105381127D01*
X140977257Y-105335196D01*
X140977257Y-104848602D01*
X141014226Y-104831758D01*
X141046059Y-104819282D01*
X141064683Y-104814914D01*
X141069458Y-104828718D01*
X141073921Y-104867286D01*
X141077775Y-104926356D01*
X141080722Y-105001663D01*
X141082143Y-105065286D01*
X141086114Y-105315657D01*
X141120759Y-105320556D01*
X141152268Y-105317131D01*
X141167708Y-105306041D01*
X141172023Y-105285308D01*
X141175708Y-105241145D01*
X141178469Y-105179146D01*
X141180012Y-105104909D01*
X141180235Y-105066706D01*
X141180457Y-104846783D01*
X141226166Y-104830849D01*
X141258518Y-104820015D01*
X141276115Y-104814962D01*
X141276623Y-104814914D01*
X141278388Y-104828648D01*
X141280329Y-104866730D01*
X141282282Y-104924482D01*
X141284084Y-104997227D01*
X141285343Y-105065286D01*
X141289314Y-105315657D01*
X141376400Y-105315657D01*
X141380396Y-105087240D01*
X141384392Y-104858822D01*
X141426847Y-104836868D01*
X141458192Y-104821793D01*
X141476744Y-104814951D01*
X141477279Y-104814914D01*
X141479833Y-104828663D01*
G37*
X141479833Y-104828663D02*
X141482048Y-104866850D01*
X141483784Y-104924886D01*
X141484899Y-104998180D01*
X141485257Y-105075055D01*
X141485257Y-105335196D01*
X141439326Y-105381127D01*
X141407675Y-105409429D01*
X141379890Y-105420893D01*
X141341915Y-105420168D01*
X141326840Y-105418321D01*
X141279726Y-105412948D01*
X141240756Y-105409869D01*
X141231257Y-105409585D01*
X141199233Y-105411445D01*
X141153432Y-105416114D01*
X141135674Y-105418321D01*
X141092057Y-105421735D01*
X141062745Y-105414320D01*
X141033680Y-105391427D01*
X141023188Y-105381127D01*
X140977257Y-105335196D01*
X140977257Y-104848602D01*
X141014226Y-104831758D01*
X141046059Y-104819282D01*
X141064683Y-104814914D01*
X141069458Y-104828718D01*
X141073921Y-104867286D01*
X141077775Y-104926356D01*
X141080722Y-105001663D01*
X141082143Y-105065286D01*
X141086114Y-105315657D01*
X141120759Y-105320556D01*
X141152268Y-105317131D01*
X141167708Y-105306041D01*
X141172023Y-105285308D01*
X141175708Y-105241145D01*
X141178469Y-105179146D01*
X141180012Y-105104909D01*
X141180235Y-105066706D01*
X141180457Y-104846783D01*
X141226166Y-104830849D01*
X141258518Y-104820015D01*
X141276115Y-104814962D01*
X141276623Y-104814914D01*
X141278388Y-104828648D01*
X141280329Y-104866730D01*
X141282282Y-104924482D01*
X141284084Y-104997227D01*
X141285343Y-105065286D01*
X141289314Y-105315657D01*
X141376400Y-105315657D01*
X141380396Y-105087240D01*
X141384392Y-104858822D01*
X141426847Y-104836868D01*
X141458192Y-104821793D01*
X141476744Y-104814951D01*
X141477279Y-104814914D01*
X141479833Y-104828663D01*
G36*
X141844876Y-104826335D02*
G01*
X141886667Y-104845344D01*
X141919469Y-104868378D01*
X141943503Y-104894133D01*
X141960097Y-104927358D01*
X141970577Y-104972800D01*
X141976271Y-105035207D01*
X141978507Y-105119327D01*
X141978743Y-105174721D01*
X141978743Y-105390826D01*
X141941774Y-105407670D01*
X141912656Y-105419981D01*
X141898231Y-105424514D01*
X141895472Y-105411025D01*
X141893282Y-105374653D01*
X141891942Y-105321542D01*
X141891657Y-105279372D01*
X141890434Y-105218447D01*
X141887136Y-105170115D01*
X141882321Y-105140518D01*
X141878496Y-105134229D01*
X141852783Y-105140652D01*
X141812418Y-105157125D01*
X141765679Y-105179458D01*
X141720845Y-105203457D01*
X141686193Y-105224930D01*
X141670002Y-105239685D01*
X141669938Y-105239845D01*
X141671330Y-105267152D01*
X141683818Y-105293219D01*
X141705743Y-105314392D01*
X141737743Y-105321474D01*
X141765092Y-105320649D01*
X141803826Y-105320042D01*
X141824158Y-105329116D01*
X141836369Y-105353092D01*
X141837909Y-105357613D01*
X141843203Y-105391806D01*
X141829047Y-105412568D01*
X141792148Y-105422462D01*
X141752289Y-105424292D01*
X141680562Y-105410727D01*
X141643432Y-105391355D01*
X141597576Y-105345845D01*
X141573256Y-105289983D01*
X141571073Y-105230957D01*
X141591629Y-105175953D01*
X141622549Y-105141486D01*
X141653420Y-105122189D01*
X141701942Y-105097759D01*
X141758485Y-105072985D01*
X141767910Y-105069199D01*
X141830019Y-105041791D01*
X141865822Y-105017634D01*
X141877337Y-104993619D01*
X141866580Y-104966635D01*
X141848114Y-104945543D01*
X141804469Y-104919572D01*
X141756446Y-104917624D01*
X141712406Y-104937637D01*
X141680709Y-104977551D01*
X141676549Y-104987848D01*
X141652327Y-105025724D01*
X141616965Y-105053842D01*
X141572343Y-105076917D01*
X141572343Y-105011485D01*
X141574969Y-104971506D01*
X141586230Y-104939997D01*
X141611199Y-104906378D01*
X141635169Y-104880484D01*
X141672441Y-104843817D01*
X141701401Y-104824121D01*
X141732505Y-104816220D01*
X141767713Y-104814914D01*
X141844876Y-104826335D01*
G37*
X141844876Y-104826335D02*
X141886667Y-104845344D01*
X141919469Y-104868378D01*
X141943503Y-104894133D01*
X141960097Y-104927358D01*
X141970577Y-104972800D01*
X141976271Y-105035207D01*
X141978507Y-105119327D01*
X141978743Y-105174721D01*
X141978743Y-105390826D01*
X141941774Y-105407670D01*
X141912656Y-105419981D01*
X141898231Y-105424514D01*
X141895472Y-105411025D01*
X141893282Y-105374653D01*
X141891942Y-105321542D01*
X141891657Y-105279372D01*
X141890434Y-105218447D01*
X141887136Y-105170115D01*
X141882321Y-105140518D01*
X141878496Y-105134229D01*
X141852783Y-105140652D01*
X141812418Y-105157125D01*
X141765679Y-105179458D01*
X141720845Y-105203457D01*
X141686193Y-105224930D01*
X141670002Y-105239685D01*
X141669938Y-105239845D01*
X141671330Y-105267152D01*
X141683818Y-105293219D01*
X141705743Y-105314392D01*
X141737743Y-105321474D01*
X141765092Y-105320649D01*
X141803826Y-105320042D01*
X141824158Y-105329116D01*
X141836369Y-105353092D01*
X141837909Y-105357613D01*
X141843203Y-105391806D01*
X141829047Y-105412568D01*
X141792148Y-105422462D01*
X141752289Y-105424292D01*
X141680562Y-105410727D01*
X141643432Y-105391355D01*
X141597576Y-105345845D01*
X141573256Y-105289983D01*
X141571073Y-105230957D01*
X141591629Y-105175953D01*
X141622549Y-105141486D01*
X141653420Y-105122189D01*
X141701942Y-105097759D01*
X141758485Y-105072985D01*
X141767910Y-105069199D01*
X141830019Y-105041791D01*
X141865822Y-105017634D01*
X141877337Y-104993619D01*
X141866580Y-104966635D01*
X141848114Y-104945543D01*
X141804469Y-104919572D01*
X141756446Y-104917624D01*
X141712406Y-104937637D01*
X141680709Y-104977551D01*
X141676549Y-104987848D01*
X141652327Y-105025724D01*
X141616965Y-105053842D01*
X141572343Y-105076917D01*
X141572343Y-105011485D01*
X141574969Y-104971506D01*
X141586230Y-104939997D01*
X141611199Y-104906378D01*
X141635169Y-104880484D01*
X141672441Y-104843817D01*
X141701401Y-104824121D01*
X141732505Y-104816220D01*
X141767713Y-104814914D01*
X141844876Y-104826335D01*
G36*
X142352600Y-104828752D02*
G01*
X142369948Y-104836334D01*
X142411356Y-104869128D01*
X142446765Y-104916547D01*
X142468664Y-104967151D01*
X142472229Y-104992098D01*
X142460279Y-105026927D01*
X142434067Y-105045357D01*
X142405964Y-105056516D01*
X142393095Y-105058572D01*
X142386829Y-105043649D01*
X142374456Y-105011175D01*
X142369028Y-104996502D01*
X142338590Y-104945744D01*
X142294520Y-104920427D01*
X142238010Y-104921206D01*
X142233825Y-104922203D01*
X142203655Y-104936507D01*
X142181476Y-104964393D01*
X142166327Y-105009287D01*
X142157250Y-105074615D01*
X142153286Y-105163804D01*
X142152914Y-105211261D01*
X142152730Y-105286071D01*
X142151522Y-105337069D01*
X142148309Y-105369471D01*
X142142109Y-105388495D01*
X142131940Y-105399356D01*
X142116819Y-105407272D01*
X142115946Y-105407670D01*
X142086828Y-105419981D01*
X142072403Y-105424514D01*
X142070186Y-105410809D01*
X142068289Y-105372925D01*
X142066847Y-105315715D01*
X142065998Y-105244027D01*
X142065829Y-105191565D01*
X142066692Y-105090047D01*
X142070070Y-105013032D01*
X142077142Y-104956023D01*
X142089088Y-104914526D01*
X142107090Y-104884043D01*
X142132327Y-104860080D01*
X142157247Y-104843355D01*
X142217171Y-104821097D01*
X142286911Y-104816076D01*
X142352600Y-104828752D01*
G37*
X142352600Y-104828752D02*
X142369948Y-104836334D01*
X142411356Y-104869128D01*
X142446765Y-104916547D01*
X142468664Y-104967151D01*
X142472229Y-104992098D01*
X142460279Y-105026927D01*
X142434067Y-105045357D01*
X142405964Y-105056516D01*
X142393095Y-105058572D01*
X142386829Y-105043649D01*
X142374456Y-105011175D01*
X142369028Y-104996502D01*
X142338590Y-104945744D01*
X142294520Y-104920427D01*
X142238010Y-104921206D01*
X142233825Y-104922203D01*
X142203655Y-104936507D01*
X142181476Y-104964393D01*
X142166327Y-105009287D01*
X142157250Y-105074615D01*
X142153286Y-105163804D01*
X142152914Y-105211261D01*
X142152730Y-105286071D01*
X142151522Y-105337069D01*
X142148309Y-105369471D01*
X142142109Y-105388495D01*
X142131940Y-105399356D01*
X142116819Y-105407272D01*
X142115946Y-105407670D01*
X142086828Y-105419981D01*
X142072403Y-105424514D01*
X142070186Y-105410809D01*
X142068289Y-105372925D01*
X142066847Y-105315715D01*
X142065998Y-105244027D01*
X142065829Y-105191565D01*
X142066692Y-105090047D01*
X142070070Y-105013032D01*
X142077142Y-104956023D01*
X142089088Y-104914526D01*
X142107090Y-104884043D01*
X142132327Y-104860080D01*
X142157247Y-104843355D01*
X142217171Y-104821097D01*
X142286911Y-104816076D01*
X142352600Y-104828752D01*
G36*
X142853595Y-104836966D02*
G01*
X142911021Y-104874497D01*
X142938719Y-104908096D01*
X142960662Y-104969064D01*
X142962405Y-105017308D01*
X142958457Y-105081816D01*
X142809686Y-105146934D01*
X142737349Y-105180202D01*
X142690084Y-105206964D01*
X142665507Y-105230144D01*
X142661237Y-105252667D01*
X142674889Y-105277455D01*
X142689943Y-105293886D01*
X142733746Y-105320235D01*
X142781389Y-105322081D01*
X142825145Y-105301546D01*
X142857289Y-105260752D01*
X142863038Y-105246347D01*
X142890576Y-105201356D01*
X142922258Y-105182182D01*
X142965714Y-105165779D01*
X142965714Y-105227966D01*
X142961872Y-105270283D01*
X142946823Y-105305969D01*
X142915280Y-105346943D01*
X142910592Y-105352267D01*
X142875506Y-105388720D01*
X142845347Y-105408283D01*
X142807615Y-105417283D01*
X142776335Y-105420230D01*
X142720385Y-105420965D01*
X142680555Y-105411660D01*
X142655708Y-105397846D01*
X142616656Y-105367467D01*
X142589625Y-105334613D01*
X142572517Y-105293294D01*
X142563238Y-105237521D01*
X142559693Y-105161305D01*
X142559410Y-105122622D01*
X142560372Y-105076247D01*
X142648007Y-105076247D01*
X142649023Y-105101126D01*
X142651556Y-105105200D01*
X142668274Y-105099665D01*
X142704249Y-105085017D01*
X142752331Y-105064190D01*
X142762386Y-105059714D01*
X142823152Y-105028814D01*
X142856632Y-105001657D01*
X142863990Y-104976220D01*
X142846391Y-104950481D01*
X142831856Y-104939109D01*
X142779410Y-104916364D01*
X142730322Y-104920122D01*
X142689227Y-104947884D01*
X142660758Y-104997152D01*
X142651631Y-105036257D01*
X142648007Y-105076247D01*
X142560372Y-105076247D01*
X142561285Y-105032249D01*
X142568196Y-104965384D01*
X142581884Y-104916695D01*
X142604096Y-104880849D01*
X142636574Y-104852513D01*
X142650733Y-104843355D01*
X142715053Y-104819507D01*
X142785473Y-104818006D01*
X142853595Y-104836966D01*
G37*
X142853595Y-104836966D02*
X142911021Y-104874497D01*
X142938719Y-104908096D01*
X142960662Y-104969064D01*
X142962405Y-105017308D01*
X142958457Y-105081816D01*
X142809686Y-105146934D01*
X142737349Y-105180202D01*
X142690084Y-105206964D01*
X142665507Y-105230144D01*
X142661237Y-105252667D01*
X142674889Y-105277455D01*
X142689943Y-105293886D01*
X142733746Y-105320235D01*
X142781389Y-105322081D01*
X142825145Y-105301546D01*
X142857289Y-105260752D01*
X142863038Y-105246347D01*
X142890576Y-105201356D01*
X142922258Y-105182182D01*
X142965714Y-105165779D01*
X142965714Y-105227966D01*
X142961872Y-105270283D01*
X142946823Y-105305969D01*
X142915280Y-105346943D01*
X142910592Y-105352267D01*
X142875506Y-105388720D01*
X142845347Y-105408283D01*
X142807615Y-105417283D01*
X142776335Y-105420230D01*
X142720385Y-105420965D01*
X142680555Y-105411660D01*
X142655708Y-105397846D01*
X142616656Y-105367467D01*
X142589625Y-105334613D01*
X142572517Y-105293294D01*
X142563238Y-105237521D01*
X142559693Y-105161305D01*
X142559410Y-105122622D01*
X142560372Y-105076247D01*
X142648007Y-105076247D01*
X142649023Y-105101126D01*
X142651556Y-105105200D01*
X142668274Y-105099665D01*
X142704249Y-105085017D01*
X142752331Y-105064190D01*
X142762386Y-105059714D01*
X142823152Y-105028814D01*
X142856632Y-105001657D01*
X142863990Y-104976220D01*
X142846391Y-104950481D01*
X142831856Y-104939109D01*
X142779410Y-104916364D01*
X142730322Y-104920122D01*
X142689227Y-104947884D01*
X142660758Y-104997152D01*
X142651631Y-105036257D01*
X142648007Y-105076247D01*
X142560372Y-105076247D01*
X142561285Y-105032249D01*
X142568196Y-104965384D01*
X142581884Y-104916695D01*
X142604096Y-104880849D01*
X142636574Y-104852513D01*
X142650733Y-104843355D01*
X142715053Y-104819507D01*
X142785473Y-104818006D01*
X142853595Y-104836966D01*
G36*
X139803910Y-100112348D02*
G01*
X139882454Y-100112778D01*
X139939298Y-100113942D01*
X139978105Y-100116207D01*
X140002538Y-100119940D01*
X140016262Y-100125506D01*
X140022940Y-100133273D01*
X140026236Y-100143605D01*
X140026556Y-100144943D01*
X140031562Y-100169079D01*
X140040829Y-100216701D01*
X140053392Y-100282741D01*
X140068287Y-100362128D01*
X140084551Y-100449796D01*
X140085119Y-100452875D01*
X140101410Y-100538789D01*
X140116652Y-100614696D01*
X140129861Y-100676045D01*
X140140054Y-100718282D01*
X140146248Y-100736855D01*
X140146543Y-100737184D01*
X140164788Y-100746253D01*
X140202405Y-100761367D01*
X140251271Y-100779262D01*
X140251543Y-100779358D01*
X140313093Y-100802493D01*
X140385657Y-100831965D01*
X140454057Y-100861597D01*
X140457294Y-100863062D01*
X140568702Y-100913626D01*
X140815399Y-100745160D01*
X140891077Y-100693803D01*
X140959631Y-100647889D01*
X141017088Y-100610030D01*
X141059476Y-100582837D01*
X141082825Y-100568921D01*
X141085042Y-100567889D01*
X141102010Y-100572484D01*
X141133701Y-100594655D01*
X141181352Y-100635447D01*
X141246198Y-100695905D01*
X141312397Y-100760227D01*
X141376214Y-100823612D01*
X141433329Y-100881451D01*
X141480305Y-100930175D01*
X141513703Y-100966210D01*
X141530085Y-100985984D01*
X141530694Y-100987002D01*
X141532505Y-101000572D01*
X141525683Y-101022733D01*
X141508540Y-101056478D01*
X141479393Y-101104800D01*
X141436555Y-101170692D01*
X141379448Y-101255517D01*
X141328766Y-101330177D01*
X141283461Y-101397140D01*
X141246150Y-101452516D01*
X141219452Y-101492420D01*
X141205985Y-101512962D01*
X141205137Y-101514356D01*
X141206781Y-101534038D01*
X141219245Y-101572293D01*
X141240048Y-101621889D01*
X141247462Y-101637728D01*
X141279814Y-101708290D01*
X141314328Y-101788353D01*
X141342365Y-101857629D01*
X141362568Y-101909045D01*
X141378615Y-101948119D01*
X141387888Y-101968541D01*
X141389041Y-101970114D01*
X141406096Y-101972721D01*
X141446298Y-101979863D01*
X141504302Y-101990523D01*
X141574763Y-102003685D01*
X141652335Y-102018333D01*
X141731672Y-102033449D01*
X141807431Y-102048018D01*
X141874264Y-102061022D01*
X141926828Y-102071445D01*
X141959776Y-102078270D01*
X141967857Y-102080199D01*
X141976205Y-102084962D01*
X141982506Y-102095718D01*
X141987045Y-102116098D01*
X141990104Y-102149734D01*
X141991967Y-102200255D01*
X141992918Y-102271292D01*
X141993240Y-102366476D01*
X141993257Y-102405492D01*
X141993257Y-102722799D01*
X141917057Y-102737839D01*
X141874663Y-102745995D01*
X141811400Y-102757899D01*
X141734962Y-102772116D01*
X141653043Y-102787210D01*
X141630400Y-102791355D01*
X141554806Y-102806053D01*
X141488953Y-102820505D01*
X141438366Y-102833375D01*
X141408574Y-102843322D01*
X141403612Y-102846287D01*
X141391426Y-102867283D01*
X141373953Y-102907967D01*
X141354577Y-102960322D01*
X141350734Y-102971600D01*
X141325339Y-103041523D01*
X141293817Y-103120418D01*
X141262969Y-103191266D01*
X141262817Y-103191595D01*
X141211447Y-103302733D01*
X141380399Y-103551253D01*
X141549352Y-103799772D01*
X141332429Y-104017058D01*
X141266819Y-104081726D01*
X141206979Y-104138733D01*
X141156267Y-104185033D01*
X141118046Y-104217584D01*
X141095675Y-104233343D01*
X141092466Y-104234343D01*
X141073626Y-104226469D01*
X141035180Y-104204578D01*
X140981330Y-104171267D01*
X140916276Y-104129131D01*
X140845940Y-104081943D01*
X140774555Y-104033810D01*
X140710908Y-103991928D01*
X140659041Y-103958871D01*
X140622995Y-103937218D01*
X140606867Y-103929543D01*
X140587189Y-103936037D01*
X140549875Y-103953150D01*
X140502621Y-103977326D01*
X140497612Y-103980013D01*
X140433977Y-104011927D01*
X140390341Y-104027579D01*
X140363202Y-104027745D01*
X140349057Y-104013204D01*
X140348975Y-104013000D01*
X140341905Y-103995779D01*
X140325042Y-103954899D01*
X140299695Y-103893525D01*
X140267171Y-103814819D01*
X140228778Y-103721947D01*
X140185822Y-103618072D01*
X140144222Y-103517502D01*
X140098504Y-103406516D01*
X140056526Y-103303703D01*
X140019548Y-103212215D01*
X139988827Y-103135201D01*
X139965622Y-103075815D01*
X139951190Y-103037209D01*
X139946743Y-103022800D01*
X139957896Y-103006272D01*
X139987069Y-102979930D01*
X140025971Y-102950887D01*
X140136757Y-102859039D01*
X140223351Y-102753759D01*
X140284716Y-102637266D01*
X140319815Y-102511776D01*
X140327608Y-102379507D01*
X140321943Y-102318457D01*
X140291078Y-102191795D01*
X140237920Y-102079941D01*
X140165767Y-101984001D01*
X140077917Y-101905076D01*
X139977665Y-101844270D01*
X139868310Y-101802687D01*
X139753147Y-101781428D01*
X139635475Y-101781599D01*
X139518590Y-101804301D01*
X139405789Y-101850638D01*
X139300369Y-101921713D01*
X139256368Y-101961911D01*
X139171979Y-102065129D01*
X139113222Y-102177925D01*
X139079704Y-102297010D01*
X139071035Y-102419095D01*
X139086823Y-102540893D01*
X139126678Y-102659116D01*
X139190207Y-102770475D01*
X139277021Y-102871684D01*
X139374029Y-102950887D01*
X139414437Y-102981162D01*
X139442982Y-103007219D01*
X139453257Y-103022825D01*
X139447877Y-103039843D01*
X139432575Y-103080500D01*
X139408612Y-103141642D01*
X139377244Y-103220119D01*
X139339732Y-103312780D01*
X139297333Y-103416472D01*
X139255663Y-103517526D01*
X139209690Y-103628607D01*
X139167107Y-103731541D01*
X139129221Y-103823165D01*
X139097340Y-103900316D01*
X139072771Y-103959831D01*
X139056820Y-103998544D01*
X139050910Y-104013000D01*
X139036948Y-104027685D01*
X139009940Y-104027642D01*
X138966413Y-104012099D01*
X138902890Y-103980284D01*
X138902388Y-103980013D01*
X138854560Y-103955323D01*
X138815897Y-103937338D01*
X138794095Y-103929614D01*
X138793133Y-103929543D01*
X138776721Y-103937378D01*
X138740487Y-103959165D01*
X138688474Y-103992328D01*
X138624725Y-104034291D01*
X138554060Y-104081943D01*
X138482116Y-104130191D01*
X138417274Y-104172151D01*
X138363735Y-104205227D01*
X138325697Y-104226821D01*
X138307533Y-104234343D01*
X138290808Y-104224457D01*
X138257180Y-104196826D01*
X138210010Y-104154495D01*
X138152658Y-104100505D01*
X138088484Y-104037899D01*
X138067497Y-104016983D01*
X137850499Y-103799623D01*
X138015668Y-103557220D01*
X138065864Y-103482781D01*
X138109919Y-103415972D01*
X138145362Y-103360665D01*
X138169719Y-103320729D01*
X138180522Y-103300036D01*
X138180838Y-103298563D01*
X138175143Y-103279058D01*
X138159826Y-103239822D01*
X138137537Y-103187430D01*
X138121893Y-103152355D01*
X138092641Y-103085201D01*
X138065094Y-103017358D01*
X138043737Y-102960034D01*
X138037935Y-102942572D01*
X138021452Y-102895938D01*
X138005340Y-102859905D01*
X137996490Y-102846287D01*
X137976960Y-102837952D01*
X137934334Y-102826137D01*
X137874145Y-102812181D01*
X137801922Y-102797422D01*
X137769600Y-102791355D01*
X137687522Y-102776273D01*
X137608795Y-102761669D01*
X137541109Y-102748980D01*
X137492160Y-102739642D01*
X137482943Y-102737839D01*
X137406743Y-102722799D01*
X137406743Y-102405492D01*
X137406914Y-102301154D01*
X137407616Y-102222213D01*
X137409134Y-102165038D01*
X137411749Y-102125999D01*
X137415746Y-102101465D01*
X137421409Y-102087805D01*
X137429020Y-102081389D01*
X137432143Y-102080199D01*
X137450978Y-102075980D01*
X137492588Y-102067562D01*
X137551630Y-102055961D01*
X137622757Y-102042195D01*
X137700625Y-102027280D01*
X137779887Y-102012232D01*
X137855198Y-101998069D01*
X137921213Y-101985806D01*
X137972587Y-101976461D01*
X138003975Y-101971050D01*
X138010959Y-101970114D01*
X138017285Y-101957596D01*
X138031290Y-101924246D01*
X138050355Y-101876377D01*
X138057634Y-101857629D01*
X138086996Y-101785195D01*
X138121571Y-101705170D01*
X138152537Y-101637728D01*
X138175323Y-101586159D01*
X138190482Y-101543785D01*
X138195542Y-101517834D01*
X138194736Y-101514356D01*
X138184041Y-101497936D01*
X138159620Y-101461417D01*
X138124095Y-101408687D01*
X138080087Y-101343635D01*
X138030217Y-101270151D01*
X138020356Y-101255645D01*
X137962492Y-101169704D01*
X137919956Y-101104261D01*
X137891054Y-101056304D01*
X137874090Y-101022820D01*
X137867367Y-101000795D01*
X137869190Y-100987217D01*
X137869236Y-100987131D01*
X137883586Y-100969297D01*
X137915323Y-100934817D01*
X137961010Y-100887268D01*
X138017204Y-100830222D01*
X138080468Y-100767255D01*
X138087602Y-100760227D01*
X138167330Y-100683020D01*
X138228857Y-100626330D01*
X138273421Y-100589110D01*
X138302257Y-100570315D01*
X138314958Y-100567889D01*
X138333494Y-100578471D01*
X138371961Y-100602916D01*
X138426386Y-100638612D01*
X138492798Y-100682947D01*
X138567225Y-100733311D01*
X138584601Y-100745160D01*
X138831297Y-100913626D01*
X138942706Y-100863062D01*
X139010457Y-100833595D01*
X139083183Y-100803959D01*
X139145703Y-100780330D01*
X139148457Y-100779358D01*
X139197360Y-100761457D01*
X139235057Y-100746320D01*
X139253425Y-100737210D01*
X139253456Y-100737184D01*
X139259285Y-100720717D01*
X139269192Y-100680219D01*
X139282195Y-100620242D01*
X139297309Y-100545340D01*
X139313552Y-100460064D01*
X139314881Y-100452875D01*
X139331175Y-100365014D01*
X139346133Y-100285260D01*
X139358791Y-100218681D01*
X139368186Y-100170347D01*
X139373354Y-100145325D01*
X139373444Y-100144943D01*
X139376589Y-100134299D01*
X139382704Y-100126262D01*
X139395453Y-100120467D01*
X139418500Y-100116547D01*
X139455509Y-100114135D01*
X139510144Y-100112865D01*
X139586067Y-100112371D01*
X139686944Y-100112286D01*
X139700000Y-100112286D01*
X139803910Y-100112348D01*
G37*
X139803910Y-100112348D02*
X139882454Y-100112778D01*
X139939298Y-100113942D01*
X139978105Y-100116207D01*
X140002538Y-100119940D01*
X140016262Y-100125506D01*
X140022940Y-100133273D01*
X140026236Y-100143605D01*
X140026556Y-100144943D01*
X140031562Y-100169079D01*
X140040829Y-100216701D01*
X140053392Y-100282741D01*
X140068287Y-100362128D01*
X140084551Y-100449796D01*
X140085119Y-100452875D01*
X140101410Y-100538789D01*
X140116652Y-100614696D01*
X140129861Y-100676045D01*
X140140054Y-100718282D01*
X140146248Y-100736855D01*
X140146543Y-100737184D01*
X140164788Y-100746253D01*
X140202405Y-100761367D01*
X140251271Y-100779262D01*
X140251543Y-100779358D01*
X140313093Y-100802493D01*
X140385657Y-100831965D01*
X140454057Y-100861597D01*
X140457294Y-100863062D01*
X140568702Y-100913626D01*
X140815399Y-100745160D01*
X140891077Y-100693803D01*
X140959631Y-100647889D01*
X141017088Y-100610030D01*
X141059476Y-100582837D01*
X141082825Y-100568921D01*
X141085042Y-100567889D01*
X141102010Y-100572484D01*
X141133701Y-100594655D01*
X141181352Y-100635447D01*
X141246198Y-100695905D01*
X141312397Y-100760227D01*
X141376214Y-100823612D01*
X141433329Y-100881451D01*
X141480305Y-100930175D01*
X141513703Y-100966210D01*
X141530085Y-100985984D01*
X141530694Y-100987002D01*
X141532505Y-101000572D01*
X141525683Y-101022733D01*
X141508540Y-101056478D01*
X141479393Y-101104800D01*
X141436555Y-101170692D01*
X141379448Y-101255517D01*
X141328766Y-101330177D01*
X141283461Y-101397140D01*
X141246150Y-101452516D01*
X141219452Y-101492420D01*
X141205985Y-101512962D01*
X141205137Y-101514356D01*
X141206781Y-101534038D01*
X141219245Y-101572293D01*
X141240048Y-101621889D01*
X141247462Y-101637728D01*
X141279814Y-101708290D01*
X141314328Y-101788353D01*
X141342365Y-101857629D01*
X141362568Y-101909045D01*
X141378615Y-101948119D01*
X141387888Y-101968541D01*
X141389041Y-101970114D01*
X141406096Y-101972721D01*
X141446298Y-101979863D01*
X141504302Y-101990523D01*
X141574763Y-102003685D01*
X141652335Y-102018333D01*
X141731672Y-102033449D01*
X141807431Y-102048018D01*
X141874264Y-102061022D01*
X141926828Y-102071445D01*
X141959776Y-102078270D01*
X141967857Y-102080199D01*
X141976205Y-102084962D01*
X141982506Y-102095718D01*
X141987045Y-102116098D01*
X141990104Y-102149734D01*
X141991967Y-102200255D01*
X141992918Y-102271292D01*
X141993240Y-102366476D01*
X141993257Y-102405492D01*
X141993257Y-102722799D01*
X141917057Y-102737839D01*
X141874663Y-102745995D01*
X141811400Y-102757899D01*
X141734962Y-102772116D01*
X141653043Y-102787210D01*
X141630400Y-102791355D01*
X141554806Y-102806053D01*
X141488953Y-102820505D01*
X141438366Y-102833375D01*
X141408574Y-102843322D01*
X141403612Y-102846287D01*
X141391426Y-102867283D01*
X141373953Y-102907967D01*
X141354577Y-102960322D01*
X141350734Y-102971600D01*
X141325339Y-103041523D01*
X141293817Y-103120418D01*
X141262969Y-103191266D01*
X141262817Y-103191595D01*
X141211447Y-103302733D01*
X141380399Y-103551253D01*
X141549352Y-103799772D01*
X141332429Y-104017058D01*
X141266819Y-104081726D01*
X141206979Y-104138733D01*
X141156267Y-104185033D01*
X141118046Y-104217584D01*
X141095675Y-104233343D01*
X141092466Y-104234343D01*
X141073626Y-104226469D01*
X141035180Y-104204578D01*
X140981330Y-104171267D01*
X140916276Y-104129131D01*
X140845940Y-104081943D01*
X140774555Y-104033810D01*
X140710908Y-103991928D01*
X140659041Y-103958871D01*
X140622995Y-103937218D01*
X140606867Y-103929543D01*
X140587189Y-103936037D01*
X140549875Y-103953150D01*
X140502621Y-103977326D01*
X140497612Y-103980013D01*
X140433977Y-104011927D01*
X140390341Y-104027579D01*
X140363202Y-104027745D01*
X140349057Y-104013204D01*
X140348975Y-104013000D01*
X140341905Y-103995779D01*
X140325042Y-103954899D01*
X140299695Y-103893525D01*
X140267171Y-103814819D01*
X140228778Y-103721947D01*
X140185822Y-103618072D01*
X140144222Y-103517502D01*
X140098504Y-103406516D01*
X140056526Y-103303703D01*
X140019548Y-103212215D01*
X139988827Y-103135201D01*
X139965622Y-103075815D01*
X139951190Y-103037209D01*
X139946743Y-103022800D01*
X139957896Y-103006272D01*
X139987069Y-102979930D01*
X140025971Y-102950887D01*
X140136757Y-102859039D01*
X140223351Y-102753759D01*
X140284716Y-102637266D01*
X140319815Y-102511776D01*
X140327608Y-102379507D01*
X140321943Y-102318457D01*
X140291078Y-102191795D01*
X140237920Y-102079941D01*
X140165767Y-101984001D01*
X140077917Y-101905076D01*
X139977665Y-101844270D01*
X139868310Y-101802687D01*
X139753147Y-101781428D01*
X139635475Y-101781599D01*
X139518590Y-101804301D01*
X139405789Y-101850638D01*
X139300369Y-101921713D01*
X139256368Y-101961911D01*
X139171979Y-102065129D01*
X139113222Y-102177925D01*
X139079704Y-102297010D01*
X139071035Y-102419095D01*
X139086823Y-102540893D01*
X139126678Y-102659116D01*
X139190207Y-102770475D01*
X139277021Y-102871684D01*
X139374029Y-102950887D01*
X139414437Y-102981162D01*
X139442982Y-103007219D01*
X139453257Y-103022825D01*
X139447877Y-103039843D01*
X139432575Y-103080500D01*
X139408612Y-103141642D01*
X139377244Y-103220119D01*
X139339732Y-103312780D01*
X139297333Y-103416472D01*
X139255663Y-103517526D01*
X139209690Y-103628607D01*
X139167107Y-103731541D01*
X139129221Y-103823165D01*
X139097340Y-103900316D01*
X139072771Y-103959831D01*
X139056820Y-103998544D01*
X139050910Y-104013000D01*
X139036948Y-104027685D01*
X139009940Y-104027642D01*
X138966413Y-104012099D01*
X138902890Y-103980284D01*
X138902388Y-103980013D01*
X138854560Y-103955323D01*
X138815897Y-103937338D01*
X138794095Y-103929614D01*
X138793133Y-103929543D01*
X138776721Y-103937378D01*
X138740487Y-103959165D01*
X138688474Y-103992328D01*
X138624725Y-104034291D01*
X138554060Y-104081943D01*
X138482116Y-104130191D01*
X138417274Y-104172151D01*
X138363735Y-104205227D01*
X138325697Y-104226821D01*
X138307533Y-104234343D01*
X138290808Y-104224457D01*
X138257180Y-104196826D01*
X138210010Y-104154495D01*
X138152658Y-104100505D01*
X138088484Y-104037899D01*
X138067497Y-104016983D01*
X137850499Y-103799623D01*
X138015668Y-103557220D01*
X138065864Y-103482781D01*
X138109919Y-103415972D01*
X138145362Y-103360665D01*
X138169719Y-103320729D01*
X138180522Y-103300036D01*
X138180838Y-103298563D01*
X138175143Y-103279058D01*
X138159826Y-103239822D01*
X138137537Y-103187430D01*
X138121893Y-103152355D01*
X138092641Y-103085201D01*
X138065094Y-103017358D01*
X138043737Y-102960034D01*
X138037935Y-102942572D01*
X138021452Y-102895938D01*
X138005340Y-102859905D01*
X137996490Y-102846287D01*
X137976960Y-102837952D01*
X137934334Y-102826137D01*
X137874145Y-102812181D01*
X137801922Y-102797422D01*
X137769600Y-102791355D01*
X137687522Y-102776273D01*
X137608795Y-102761669D01*
X137541109Y-102748980D01*
X137492160Y-102739642D01*
X137482943Y-102737839D01*
X137406743Y-102722799D01*
X137406743Y-102405492D01*
X137406914Y-102301154D01*
X137407616Y-102222213D01*
X137409134Y-102165038D01*
X137411749Y-102125999D01*
X137415746Y-102101465D01*
X137421409Y-102087805D01*
X137429020Y-102081389D01*
X137432143Y-102080199D01*
X137450978Y-102075980D01*
X137492588Y-102067562D01*
X137551630Y-102055961D01*
X137622757Y-102042195D01*
X137700625Y-102027280D01*
X137779887Y-102012232D01*
X137855198Y-101998069D01*
X137921213Y-101985806D01*
X137972587Y-101976461D01*
X138003975Y-101971050D01*
X138010959Y-101970114D01*
X138017285Y-101957596D01*
X138031290Y-101924246D01*
X138050355Y-101876377D01*
X138057634Y-101857629D01*
X138086996Y-101785195D01*
X138121571Y-101705170D01*
X138152537Y-101637728D01*
X138175323Y-101586159D01*
X138190482Y-101543785D01*
X138195542Y-101517834D01*
X138194736Y-101514356D01*
X138184041Y-101497936D01*
X138159620Y-101461417D01*
X138124095Y-101408687D01*
X138080087Y-101343635D01*
X138030217Y-101270151D01*
X138020356Y-101255645D01*
X137962492Y-101169704D01*
X137919956Y-101104261D01*
X137891054Y-101056304D01*
X137874090Y-101022820D01*
X137867367Y-101000795D01*
X137869190Y-100987217D01*
X137869236Y-100987131D01*
X137883586Y-100969297D01*
X137915323Y-100934817D01*
X137961010Y-100887268D01*
X138017204Y-100830222D01*
X138080468Y-100767255D01*
X138087602Y-100760227D01*
X138167330Y-100683020D01*
X138228857Y-100626330D01*
X138273421Y-100589110D01*
X138302257Y-100570315D01*
X138314958Y-100567889D01*
X138333494Y-100578471D01*
X138371961Y-100602916D01*
X138426386Y-100638612D01*
X138492798Y-100682947D01*
X138567225Y-100733311D01*
X138584601Y-100745160D01*
X138831297Y-100913626D01*
X138942706Y-100863062D01*
X139010457Y-100833595D01*
X139083183Y-100803959D01*
X139145703Y-100780330D01*
X139148457Y-100779358D01*
X139197360Y-100761457D01*
X139235057Y-100746320D01*
X139253425Y-100737210D01*
X139253456Y-100737184D01*
X139259285Y-100720717D01*
X139269192Y-100680219D01*
X139282195Y-100620242D01*
X139297309Y-100545340D01*
X139313552Y-100460064D01*
X139314881Y-100452875D01*
X139331175Y-100365014D01*
X139346133Y-100285260D01*
X139358791Y-100218681D01*
X139368186Y-100170347D01*
X139373354Y-100145325D01*
X139373444Y-100144943D01*
X139376589Y-100134299D01*
X139382704Y-100126262D01*
X139395453Y-100120467D01*
X139418500Y-100116547D01*
X139455509Y-100114135D01*
X139510144Y-100112865D01*
X139586067Y-100112371D01*
X139686944Y-100112286D01*
X139700000Y-100112286D01*
X139803910Y-100112348D01*
G04 #@! TO.C,Q6*
D15*
X168722047Y-97632476D02*
X168661095Y-97602000D01*
X168600142Y-97541047D01*
X168508714Y-97449619D01*
X168447761Y-97419142D01*
X168386809Y-97419142D01*
X168417285Y-97571523D02*
X168356333Y-97541047D01*
X168295380Y-97480095D01*
X168264904Y-97358190D01*
X168264904Y-97144857D01*
X168295380Y-97022952D01*
X168356333Y-96962000D01*
X168417285Y-96931523D01*
X168539190Y-96931523D01*
X168600142Y-96962000D01*
X168661095Y-97022952D01*
X168691571Y-97144857D01*
X168691571Y-97358190D01*
X168661095Y-97480095D01*
X168600142Y-97541047D01*
X168539190Y-97571523D01*
X168417285Y-97571523D01*
X169240142Y-96931523D02*
X169118238Y-96931523D01*
X169057285Y-96962000D01*
X169026809Y-96992476D01*
X168965857Y-97083904D01*
X168935380Y-97205809D01*
X168935380Y-97449619D01*
X168965857Y-97510571D01*
X168996333Y-97541047D01*
X169057285Y-97571523D01*
X169179190Y-97571523D01*
X169240142Y-97541047D01*
X169270619Y-97510571D01*
X169301095Y-97449619D01*
X169301095Y-97297238D01*
X169270619Y-97236285D01*
X169240142Y-97205809D01*
X169179190Y-97175333D01*
X169057285Y-97175333D01*
X168996333Y-97205809D01*
X168965857Y-97236285D01*
X168935380Y-97297238D01*
G04 #@! TO.C,Q5*
X163007047Y-86075476D02*
X162946095Y-86045000D01*
X162885142Y-85984047D01*
X162793714Y-85892619D01*
X162732761Y-85862142D01*
X162671809Y-85862142D01*
X162702285Y-86014523D02*
X162641333Y-85984047D01*
X162580380Y-85923095D01*
X162549904Y-85801190D01*
X162549904Y-85587857D01*
X162580380Y-85465952D01*
X162641333Y-85405000D01*
X162702285Y-85374523D01*
X162824190Y-85374523D01*
X162885142Y-85405000D01*
X162946095Y-85465952D01*
X162976571Y-85587857D01*
X162976571Y-85801190D01*
X162946095Y-85923095D01*
X162885142Y-85984047D01*
X162824190Y-86014523D01*
X162702285Y-86014523D01*
X163555619Y-85374523D02*
X163250857Y-85374523D01*
X163220380Y-85679285D01*
X163250857Y-85648809D01*
X163311809Y-85618333D01*
X163464190Y-85618333D01*
X163525142Y-85648809D01*
X163555619Y-85679285D01*
X163586095Y-85740238D01*
X163586095Y-85892619D01*
X163555619Y-85953571D01*
X163525142Y-85984047D01*
X163464190Y-86014523D01*
X163311809Y-86014523D01*
X163250857Y-85984047D01*
X163220380Y-85953571D01*
G04 #@! TO.C,U3*
X180222380Y-92231904D02*
X181031904Y-92231904D01*
X181127142Y-92184285D01*
X181174761Y-92136666D01*
X181222380Y-92041428D01*
X181222380Y-91850952D01*
X181174761Y-91755714D01*
X181127142Y-91708095D01*
X181031904Y-91660476D01*
X180222380Y-91660476D01*
X180222380Y-91279523D02*
X180222380Y-90660476D01*
X180603333Y-90993809D01*
X180603333Y-90850952D01*
X180650952Y-90755714D01*
X180698571Y-90708095D01*
X180793809Y-90660476D01*
X181031904Y-90660476D01*
X181127142Y-90708095D01*
X181174761Y-90755714D01*
X181222380Y-90850952D01*
X181222380Y-91136666D01*
X181174761Y-91231904D01*
X181127142Y-91279523D01*
G04 #@! TO.C,U2*
X182753095Y-75144380D02*
X182753095Y-75953904D01*
X182800714Y-76049142D01*
X182848333Y-76096761D01*
X182943571Y-76144380D01*
X183134047Y-76144380D01*
X183229285Y-76096761D01*
X183276904Y-76049142D01*
X183324523Y-75953904D01*
X183324523Y-75144380D01*
X183753095Y-75239619D02*
X183800714Y-75192000D01*
X183895952Y-75144380D01*
X184134047Y-75144380D01*
X184229285Y-75192000D01*
X184276904Y-75239619D01*
X184324523Y-75334857D01*
X184324523Y-75430095D01*
X184276904Y-75572952D01*
X183705476Y-76144380D01*
X184324523Y-76144380D01*
G04 #@! TO.C,Q4*
X179644047Y-102331476D02*
X179583095Y-102301000D01*
X179522142Y-102240047D01*
X179430714Y-102148619D01*
X179369761Y-102118142D01*
X179308809Y-102118142D01*
X179339285Y-102270523D02*
X179278333Y-102240047D01*
X179217380Y-102179095D01*
X179186904Y-102057190D01*
X179186904Y-101843857D01*
X179217380Y-101721952D01*
X179278333Y-101661000D01*
X179339285Y-101630523D01*
X179461190Y-101630523D01*
X179522142Y-101661000D01*
X179583095Y-101721952D01*
X179613571Y-101843857D01*
X179613571Y-102057190D01*
X179583095Y-102179095D01*
X179522142Y-102240047D01*
X179461190Y-102270523D01*
X179339285Y-102270523D01*
X180162142Y-101843857D02*
X180162142Y-102270523D01*
X180009761Y-101600047D02*
X179857380Y-102057190D01*
X180253571Y-102057190D01*
G04 #@! TO.C,Q3*
X179517047Y-97251476D02*
X179456095Y-97221000D01*
X179395142Y-97160047D01*
X179303714Y-97068619D01*
X179242761Y-97038142D01*
X179181809Y-97038142D01*
X179212285Y-97190523D02*
X179151333Y-97160047D01*
X179090380Y-97099095D01*
X179059904Y-96977190D01*
X179059904Y-96763857D01*
X179090380Y-96641952D01*
X179151333Y-96581000D01*
X179212285Y-96550523D01*
X179334190Y-96550523D01*
X179395142Y-96581000D01*
X179456095Y-96641952D01*
X179486571Y-96763857D01*
X179486571Y-96977190D01*
X179456095Y-97099095D01*
X179395142Y-97160047D01*
X179334190Y-97190523D01*
X179212285Y-97190523D01*
X179699904Y-96550523D02*
X180096095Y-96550523D01*
X179882761Y-96794333D01*
X179974190Y-96794333D01*
X180035142Y-96824809D01*
X180065619Y-96855285D01*
X180096095Y-96916238D01*
X180096095Y-97068619D01*
X180065619Y-97129571D01*
X180035142Y-97160047D01*
X179974190Y-97190523D01*
X179791333Y-97190523D01*
X179730380Y-97160047D01*
X179699904Y-97129571D01*
G04 #@! TO.C,Q2*
X179517047Y-85313476D02*
X179456095Y-85283000D01*
X179395142Y-85222047D01*
X179303714Y-85130619D01*
X179242761Y-85100142D01*
X179181809Y-85100142D01*
X179212285Y-85252523D02*
X179151333Y-85222047D01*
X179090380Y-85161095D01*
X179059904Y-85039190D01*
X179059904Y-84825857D01*
X179090380Y-84703952D01*
X179151333Y-84643000D01*
X179212285Y-84612523D01*
X179334190Y-84612523D01*
X179395142Y-84643000D01*
X179456095Y-84703952D01*
X179486571Y-84825857D01*
X179486571Y-85039190D01*
X179456095Y-85161095D01*
X179395142Y-85222047D01*
X179334190Y-85252523D01*
X179212285Y-85252523D01*
X179730380Y-84673476D02*
X179760857Y-84643000D01*
X179821809Y-84612523D01*
X179974190Y-84612523D01*
X180035142Y-84643000D01*
X180065619Y-84673476D01*
X180096095Y-84734428D01*
X180096095Y-84795380D01*
X180065619Y-84886809D01*
X179699904Y-85252523D01*
X180096095Y-85252523D01*
G04 #@! TO.C,Q1*
X177358047Y-77185476D02*
X177297095Y-77155000D01*
X177236142Y-77094047D01*
X177144714Y-77002619D01*
X177083761Y-76972142D01*
X177022809Y-76972142D01*
X177053285Y-77124523D02*
X176992333Y-77094047D01*
X176931380Y-77033095D01*
X176900904Y-76911190D01*
X176900904Y-76697857D01*
X176931380Y-76575952D01*
X176992333Y-76515000D01*
X177053285Y-76484523D01*
X177175190Y-76484523D01*
X177236142Y-76515000D01*
X177297095Y-76575952D01*
X177327571Y-76697857D01*
X177327571Y-76911190D01*
X177297095Y-77033095D01*
X177236142Y-77094047D01*
X177175190Y-77124523D01*
X177053285Y-77124523D01*
X177937095Y-77124523D02*
X177571380Y-77124523D01*
X177754238Y-77124523D02*
X177754238Y-76484523D01*
X177693285Y-76575952D01*
X177632333Y-76636904D01*
X177571380Y-76667380D01*
G04 #@! TO.C,J3*
X131365666Y-69810380D02*
X131365666Y-70524666D01*
X131318047Y-70667523D01*
X131222809Y-70762761D01*
X131079952Y-70810380D01*
X130984714Y-70810380D01*
X131746619Y-69810380D02*
X132365666Y-69810380D01*
X132032333Y-70191333D01*
X132175190Y-70191333D01*
X132270428Y-70238952D01*
X132318047Y-70286571D01*
X132365666Y-70381809D01*
X132365666Y-70619904D01*
X132318047Y-70715142D01*
X132270428Y-70762761D01*
X132175190Y-70810380D01*
X131889476Y-70810380D01*
X131794238Y-70762761D01*
X131746619Y-70715142D01*
G04 #@! TO.C,R15*
X177284142Y-92400380D02*
X176950809Y-91924190D01*
X176712714Y-92400380D02*
X176712714Y-91400380D01*
X177093666Y-91400380D01*
X177188904Y-91448000D01*
X177236523Y-91495619D01*
X177284142Y-91590857D01*
X177284142Y-91733714D01*
X177236523Y-91828952D01*
X177188904Y-91876571D01*
X177093666Y-91924190D01*
X176712714Y-91924190D01*
X178236523Y-92400380D02*
X177665095Y-92400380D01*
X177950809Y-92400380D02*
X177950809Y-91400380D01*
X177855571Y-91543238D01*
X177760333Y-91638476D01*
X177665095Y-91686095D01*
X179141285Y-91400380D02*
X178665095Y-91400380D01*
X178617476Y-91876571D01*
X178665095Y-91828952D01*
X178760333Y-91781333D01*
X178998428Y-91781333D01*
X179093666Y-91828952D01*
X179141285Y-91876571D01*
X179188904Y-91971809D01*
X179188904Y-92209904D01*
X179141285Y-92305142D01*
X179093666Y-92352761D01*
X178998428Y-92400380D01*
X178760333Y-92400380D01*
X178665095Y-92352761D01*
X178617476Y-92305142D01*
G04 #@! TO.C,R14*
X177411142Y-91130380D02*
X177077809Y-90654190D01*
X176839714Y-91130380D02*
X176839714Y-90130380D01*
X177220666Y-90130380D01*
X177315904Y-90178000D01*
X177363523Y-90225619D01*
X177411142Y-90320857D01*
X177411142Y-90463714D01*
X177363523Y-90558952D01*
X177315904Y-90606571D01*
X177220666Y-90654190D01*
X176839714Y-90654190D01*
X178363523Y-91130380D02*
X177792095Y-91130380D01*
X178077809Y-91130380D02*
X178077809Y-90130380D01*
X177982571Y-90273238D01*
X177887333Y-90368476D01*
X177792095Y-90416095D01*
X179220666Y-90463714D02*
X179220666Y-91130380D01*
X178982571Y-90082761D02*
X178744476Y-90797047D01*
X179363523Y-90797047D01*
G04 #@! TO.C,R10*
X179824142Y-105227380D02*
X179490809Y-104751190D01*
X179252714Y-105227380D02*
X179252714Y-104227380D01*
X179633666Y-104227380D01*
X179728904Y-104275000D01*
X179776523Y-104322619D01*
X179824142Y-104417857D01*
X179824142Y-104560714D01*
X179776523Y-104655952D01*
X179728904Y-104703571D01*
X179633666Y-104751190D01*
X179252714Y-104751190D01*
X180776523Y-105227380D02*
X180205095Y-105227380D01*
X180490809Y-105227380D02*
X180490809Y-104227380D01*
X180395571Y-104370238D01*
X180300333Y-104465476D01*
X180205095Y-104513095D01*
X181395571Y-104227380D02*
X181490809Y-104227380D01*
X181586047Y-104275000D01*
X181633666Y-104322619D01*
X181681285Y-104417857D01*
X181728904Y-104608333D01*
X181728904Y-104846428D01*
X181681285Y-105036904D01*
X181633666Y-105132142D01*
X181586047Y-105179761D01*
X181490809Y-105227380D01*
X181395571Y-105227380D01*
X181300333Y-105179761D01*
X181252714Y-105132142D01*
X181205095Y-105036904D01*
X181157476Y-104846428D01*
X181157476Y-104608333D01*
X181205095Y-104417857D01*
X181252714Y-104322619D01*
X181300333Y-104275000D01*
X181395571Y-104227380D01*
G04 #@! TO.C,R9*
X180554333Y-101290380D02*
X180221000Y-100814190D01*
X179982904Y-101290380D02*
X179982904Y-100290380D01*
X180363857Y-100290380D01*
X180459095Y-100338000D01*
X180506714Y-100385619D01*
X180554333Y-100480857D01*
X180554333Y-100623714D01*
X180506714Y-100718952D01*
X180459095Y-100766571D01*
X180363857Y-100814190D01*
X179982904Y-100814190D01*
X181030523Y-101290380D02*
X181221000Y-101290380D01*
X181316238Y-101242761D01*
X181363857Y-101195142D01*
X181459095Y-101052285D01*
X181506714Y-100861809D01*
X181506714Y-100480857D01*
X181459095Y-100385619D01*
X181411476Y-100338000D01*
X181316238Y-100290380D01*
X181125761Y-100290380D01*
X181030523Y-100338000D01*
X180982904Y-100385619D01*
X180935285Y-100480857D01*
X180935285Y-100718952D01*
X180982904Y-100814190D01*
X181030523Y-100861809D01*
X181125761Y-100909428D01*
X181316238Y-100909428D01*
X181411476Y-100861809D01*
X181459095Y-100814190D01*
X181506714Y-100718952D01*
G04 #@! TO.C,R8*
X180300333Y-82113380D02*
X179967000Y-81637190D01*
X179728904Y-82113380D02*
X179728904Y-81113380D01*
X180109857Y-81113380D01*
X180205095Y-81161000D01*
X180252714Y-81208619D01*
X180300333Y-81303857D01*
X180300333Y-81446714D01*
X180252714Y-81541952D01*
X180205095Y-81589571D01*
X180109857Y-81637190D01*
X179728904Y-81637190D01*
X180871761Y-81541952D02*
X180776523Y-81494333D01*
X180728904Y-81446714D01*
X180681285Y-81351476D01*
X180681285Y-81303857D01*
X180728904Y-81208619D01*
X180776523Y-81161000D01*
X180871761Y-81113380D01*
X181062238Y-81113380D01*
X181157476Y-81161000D01*
X181205095Y-81208619D01*
X181252714Y-81303857D01*
X181252714Y-81351476D01*
X181205095Y-81446714D01*
X181157476Y-81494333D01*
X181062238Y-81541952D01*
X180871761Y-81541952D01*
X180776523Y-81589571D01*
X180728904Y-81637190D01*
X180681285Y-81732428D01*
X180681285Y-81922904D01*
X180728904Y-82018142D01*
X180776523Y-82065761D01*
X180871761Y-82113380D01*
X181062238Y-82113380D01*
X181157476Y-82065761D01*
X181205095Y-82018142D01*
X181252714Y-81922904D01*
X181252714Y-81732428D01*
X181205095Y-81637190D01*
X181157476Y-81589571D01*
X181062238Y-81541952D01*
G04 #@! TO.C,R7*
X180173333Y-78049380D02*
X179840000Y-77573190D01*
X179601904Y-78049380D02*
X179601904Y-77049380D01*
X179982857Y-77049380D01*
X180078095Y-77097000D01*
X180125714Y-77144619D01*
X180173333Y-77239857D01*
X180173333Y-77382714D01*
X180125714Y-77477952D01*
X180078095Y-77525571D01*
X179982857Y-77573190D01*
X179601904Y-77573190D01*
X180506666Y-77049380D02*
X181173333Y-77049380D01*
X180744761Y-78049380D01*
G04 #@! TO.C,R26*
X144422142Y-97782380D02*
X144088809Y-97306190D01*
X143850714Y-97782380D02*
X143850714Y-96782380D01*
X144231666Y-96782380D01*
X144326904Y-96830000D01*
X144374523Y-96877619D01*
X144422142Y-96972857D01*
X144422142Y-97115714D01*
X144374523Y-97210952D01*
X144326904Y-97258571D01*
X144231666Y-97306190D01*
X143850714Y-97306190D01*
X144803095Y-96877619D02*
X144850714Y-96830000D01*
X144945952Y-96782380D01*
X145184047Y-96782380D01*
X145279285Y-96830000D01*
X145326904Y-96877619D01*
X145374523Y-96972857D01*
X145374523Y-97068095D01*
X145326904Y-97210952D01*
X144755476Y-97782380D01*
X145374523Y-97782380D01*
X146231666Y-96782380D02*
X146041190Y-96782380D01*
X145945952Y-96830000D01*
X145898333Y-96877619D01*
X145803095Y-97020476D01*
X145755476Y-97210952D01*
X145755476Y-97591904D01*
X145803095Y-97687142D01*
X145850714Y-97734761D01*
X145945952Y-97782380D01*
X146136428Y-97782380D01*
X146231666Y-97734761D01*
X146279285Y-97687142D01*
X146326904Y-97591904D01*
X146326904Y-97353809D01*
X146279285Y-97258571D01*
X146231666Y-97210952D01*
X146136428Y-97163333D01*
X145945952Y-97163333D01*
X145850714Y-97210952D01*
X145803095Y-97258571D01*
X145755476Y-97353809D01*
G04 #@! TO.C,R25*
X152900142Y-81605380D02*
X152566809Y-81129190D01*
X152328714Y-81605380D02*
X152328714Y-80605380D01*
X152709666Y-80605380D01*
X152804904Y-80653000D01*
X152852523Y-80700619D01*
X152900142Y-80795857D01*
X152900142Y-80938714D01*
X152852523Y-81033952D01*
X152804904Y-81081571D01*
X152709666Y-81129190D01*
X152328714Y-81129190D01*
X153281095Y-80700619D02*
X153328714Y-80653000D01*
X153423952Y-80605380D01*
X153662047Y-80605380D01*
X153757285Y-80653000D01*
X153804904Y-80700619D01*
X153852523Y-80795857D01*
X153852523Y-80891095D01*
X153804904Y-81033952D01*
X153233476Y-81605380D01*
X153852523Y-81605380D01*
X154757285Y-80605380D02*
X154281095Y-80605380D01*
X154233476Y-81081571D01*
X154281095Y-81033952D01*
X154376333Y-80986333D01*
X154614428Y-80986333D01*
X154709666Y-81033952D01*
X154757285Y-81081571D01*
X154804904Y-81176809D01*
X154804904Y-81414904D01*
X154757285Y-81510142D01*
X154709666Y-81557761D01*
X154614428Y-81605380D01*
X154376333Y-81605380D01*
X154281095Y-81557761D01*
X154233476Y-81510142D01*
G04 #@! TO.C,C20*
X144502142Y-82430857D02*
X144549761Y-82478476D01*
X144597380Y-82621333D01*
X144597380Y-82716571D01*
X144549761Y-82859428D01*
X144454523Y-82954666D01*
X144359285Y-83002285D01*
X144168809Y-83049904D01*
X144025952Y-83049904D01*
X143835476Y-83002285D01*
X143740238Y-82954666D01*
X143645000Y-82859428D01*
X143597380Y-82716571D01*
X143597380Y-82621333D01*
X143645000Y-82478476D01*
X143692619Y-82430857D01*
X143692619Y-82049904D02*
X143645000Y-82002285D01*
X143597380Y-81907047D01*
X143597380Y-81668952D01*
X143645000Y-81573714D01*
X143692619Y-81526095D01*
X143787857Y-81478476D01*
X143883095Y-81478476D01*
X144025952Y-81526095D01*
X144597380Y-82097523D01*
X144597380Y-81478476D01*
X143597380Y-80859428D02*
X143597380Y-80764190D01*
X143645000Y-80668952D01*
X143692619Y-80621333D01*
X143787857Y-80573714D01*
X143978333Y-80526095D01*
X144216428Y-80526095D01*
X144406904Y-80573714D01*
X144502142Y-80621333D01*
X144549761Y-80668952D01*
X144597380Y-80764190D01*
X144597380Y-80859428D01*
X144549761Y-80954666D01*
X144502142Y-81002285D01*
X144406904Y-81049904D01*
X144216428Y-81097523D01*
X143978333Y-81097523D01*
X143787857Y-81049904D01*
X143692619Y-81002285D01*
X143645000Y-80954666D01*
X143597380Y-80859428D01*
G04 #@! TO.C,C19*
X152249142Y-83827857D02*
X152296761Y-83875476D01*
X152344380Y-84018333D01*
X152344380Y-84113571D01*
X152296761Y-84256428D01*
X152201523Y-84351666D01*
X152106285Y-84399285D01*
X151915809Y-84446904D01*
X151772952Y-84446904D01*
X151582476Y-84399285D01*
X151487238Y-84351666D01*
X151392000Y-84256428D01*
X151344380Y-84113571D01*
X151344380Y-84018333D01*
X151392000Y-83875476D01*
X151439619Y-83827857D01*
X152344380Y-82875476D02*
X152344380Y-83446904D01*
X152344380Y-83161190D02*
X151344380Y-83161190D01*
X151487238Y-83256428D01*
X151582476Y-83351666D01*
X151630095Y-83446904D01*
X152344380Y-82399285D02*
X152344380Y-82208809D01*
X152296761Y-82113571D01*
X152249142Y-82065952D01*
X152106285Y-81970714D01*
X151915809Y-81923095D01*
X151534857Y-81923095D01*
X151439619Y-81970714D01*
X151392000Y-82018333D01*
X151344380Y-82113571D01*
X151344380Y-82304047D01*
X151392000Y-82399285D01*
X151439619Y-82446904D01*
X151534857Y-82494523D01*
X151772952Y-82494523D01*
X151868190Y-82446904D01*
X151915809Y-82399285D01*
X151963428Y-82304047D01*
X151963428Y-82113571D01*
X151915809Y-82018333D01*
X151868190Y-81970714D01*
X151772952Y-81923095D01*
G04 #@! TO.C,C18*
X148389142Y-101605142D02*
X148341523Y-101652761D01*
X148198666Y-101700380D01*
X148103428Y-101700380D01*
X147960571Y-101652761D01*
X147865333Y-101557523D01*
X147817714Y-101462285D01*
X147770095Y-101271809D01*
X147770095Y-101128952D01*
X147817714Y-100938476D01*
X147865333Y-100843238D01*
X147960571Y-100748000D01*
X148103428Y-100700380D01*
X148198666Y-100700380D01*
X148341523Y-100748000D01*
X148389142Y-100795619D01*
X149341523Y-101700380D02*
X148770095Y-101700380D01*
X149055809Y-101700380D02*
X149055809Y-100700380D01*
X148960571Y-100843238D01*
X148865333Y-100938476D01*
X148770095Y-100986095D01*
X149912952Y-101128952D02*
X149817714Y-101081333D01*
X149770095Y-101033714D01*
X149722476Y-100938476D01*
X149722476Y-100890857D01*
X149770095Y-100795619D01*
X149817714Y-100748000D01*
X149912952Y-100700380D01*
X150103428Y-100700380D01*
X150198666Y-100748000D01*
X150246285Y-100795619D01*
X150293904Y-100890857D01*
X150293904Y-100938476D01*
X150246285Y-101033714D01*
X150198666Y-101081333D01*
X150103428Y-101128952D01*
X149912952Y-101128952D01*
X149817714Y-101176571D01*
X149770095Y-101224190D01*
X149722476Y-101319428D01*
X149722476Y-101509904D01*
X149770095Y-101605142D01*
X149817714Y-101652761D01*
X149912952Y-101700380D01*
X150103428Y-101700380D01*
X150198666Y-101652761D01*
X150246285Y-101605142D01*
X150293904Y-101509904D01*
X150293904Y-101319428D01*
X150246285Y-101224190D01*
X150198666Y-101176571D01*
X150103428Y-101128952D01*
G04 #@! TO.C,C13*
X156440142Y-79890857D02*
X156487761Y-79938476D01*
X156535380Y-80081333D01*
X156535380Y-80176571D01*
X156487761Y-80319428D01*
X156392523Y-80414666D01*
X156297285Y-80462285D01*
X156106809Y-80509904D01*
X155963952Y-80509904D01*
X155773476Y-80462285D01*
X155678238Y-80414666D01*
X155583000Y-80319428D01*
X155535380Y-80176571D01*
X155535380Y-80081333D01*
X155583000Y-79938476D01*
X155630619Y-79890857D01*
X156535380Y-78938476D02*
X156535380Y-79509904D01*
X156535380Y-79224190D02*
X155535380Y-79224190D01*
X155678238Y-79319428D01*
X155773476Y-79414666D01*
X155821095Y-79509904D01*
X155535380Y-78605142D02*
X155535380Y-77986095D01*
X155916333Y-78319428D01*
X155916333Y-78176571D01*
X155963952Y-78081333D01*
X156011571Y-78033714D01*
X156106809Y-77986095D01*
X156344904Y-77986095D01*
X156440142Y-78033714D01*
X156487761Y-78081333D01*
X156535380Y-78176571D01*
X156535380Y-78462285D01*
X156487761Y-78557523D01*
X156440142Y-78605142D01*
G04 #@! TO.C,C16*
X147566142Y-76176142D02*
X147518523Y-76223761D01*
X147375666Y-76271380D01*
X147280428Y-76271380D01*
X147137571Y-76223761D01*
X147042333Y-76128523D01*
X146994714Y-76033285D01*
X146947095Y-75842809D01*
X146947095Y-75699952D01*
X146994714Y-75509476D01*
X147042333Y-75414238D01*
X147137571Y-75319000D01*
X147280428Y-75271380D01*
X147375666Y-75271380D01*
X147518523Y-75319000D01*
X147566142Y-75366619D01*
X148518523Y-76271380D02*
X147947095Y-76271380D01*
X148232809Y-76271380D02*
X148232809Y-75271380D01*
X148137571Y-75414238D01*
X148042333Y-75509476D01*
X147947095Y-75557095D01*
X149375666Y-75271380D02*
X149185190Y-75271380D01*
X149089952Y-75319000D01*
X149042333Y-75366619D01*
X148947095Y-75509476D01*
X148899476Y-75699952D01*
X148899476Y-76080904D01*
X148947095Y-76176142D01*
X148994714Y-76223761D01*
X149089952Y-76271380D01*
X149280428Y-76271380D01*
X149375666Y-76223761D01*
X149423285Y-76176142D01*
X149470904Y-76080904D01*
X149470904Y-75842809D01*
X149423285Y-75747571D01*
X149375666Y-75699952D01*
X149280428Y-75652333D01*
X149089952Y-75652333D01*
X148994714Y-75699952D01*
X148947095Y-75747571D01*
X148899476Y-75842809D01*
G04 #@! TO.C,C15*
X157964142Y-68968857D02*
X158011761Y-69016476D01*
X158059380Y-69159333D01*
X158059380Y-69254571D01*
X158011761Y-69397428D01*
X157916523Y-69492666D01*
X157821285Y-69540285D01*
X157630809Y-69587904D01*
X157487952Y-69587904D01*
X157297476Y-69540285D01*
X157202238Y-69492666D01*
X157107000Y-69397428D01*
X157059380Y-69254571D01*
X157059380Y-69159333D01*
X157107000Y-69016476D01*
X157154619Y-68968857D01*
X158059380Y-68016476D02*
X158059380Y-68587904D01*
X158059380Y-68302190D02*
X157059380Y-68302190D01*
X157202238Y-68397428D01*
X157297476Y-68492666D01*
X157345095Y-68587904D01*
X157059380Y-67111714D02*
X157059380Y-67587904D01*
X157535571Y-67635523D01*
X157487952Y-67587904D01*
X157440333Y-67492666D01*
X157440333Y-67254571D01*
X157487952Y-67159333D01*
X157535571Y-67111714D01*
X157630809Y-67064095D01*
X157868904Y-67064095D01*
X157964142Y-67111714D01*
X158011761Y-67159333D01*
X158059380Y-67254571D01*
X158059380Y-67492666D01*
X158011761Y-67587904D01*
X157964142Y-67635523D01*
G04 #@! TO.C,R24*
X147407142Y-96812380D02*
X147073809Y-96336190D01*
X146835714Y-96812380D02*
X146835714Y-95812380D01*
X147216666Y-95812380D01*
X147311904Y-95860000D01*
X147359523Y-95907619D01*
X147407142Y-96002857D01*
X147407142Y-96145714D01*
X147359523Y-96240952D01*
X147311904Y-96288571D01*
X147216666Y-96336190D01*
X146835714Y-96336190D01*
X147788095Y-95907619D02*
X147835714Y-95860000D01*
X147930952Y-95812380D01*
X148169047Y-95812380D01*
X148264285Y-95860000D01*
X148311904Y-95907619D01*
X148359523Y-96002857D01*
X148359523Y-96098095D01*
X148311904Y-96240952D01*
X147740476Y-96812380D01*
X148359523Y-96812380D01*
X149216666Y-96145714D02*
X149216666Y-96812380D01*
X148978571Y-95764761D02*
X148740476Y-96479047D01*
X149359523Y-96479047D01*
G04 #@! TO.C,R23*
X144645142Y-102052380D02*
X144311809Y-101576190D01*
X144073714Y-102052380D02*
X144073714Y-101052380D01*
X144454666Y-101052380D01*
X144549904Y-101100000D01*
X144597523Y-101147619D01*
X144645142Y-101242857D01*
X144645142Y-101385714D01*
X144597523Y-101480952D01*
X144549904Y-101528571D01*
X144454666Y-101576190D01*
X144073714Y-101576190D01*
X145026095Y-101147619D02*
X145073714Y-101100000D01*
X145168952Y-101052380D01*
X145407047Y-101052380D01*
X145502285Y-101100000D01*
X145549904Y-101147619D01*
X145597523Y-101242857D01*
X145597523Y-101338095D01*
X145549904Y-101480952D01*
X144978476Y-102052380D01*
X145597523Y-102052380D01*
X145930857Y-101052380D02*
X146549904Y-101052380D01*
X146216571Y-101433333D01*
X146359428Y-101433333D01*
X146454666Y-101480952D01*
X146502285Y-101528571D01*
X146549904Y-101623809D01*
X146549904Y-101861904D01*
X146502285Y-101957142D01*
X146454666Y-102004761D01*
X146359428Y-102052380D01*
X146073714Y-102052380D01*
X145978476Y-102004761D01*
X145930857Y-101957142D01*
G04 #@! TO.C,R22*
X138168142Y-84399380D02*
X137834809Y-83923190D01*
X137596714Y-84399380D02*
X137596714Y-83399380D01*
X137977666Y-83399380D01*
X138072904Y-83447000D01*
X138120523Y-83494619D01*
X138168142Y-83589857D01*
X138168142Y-83732714D01*
X138120523Y-83827952D01*
X138072904Y-83875571D01*
X137977666Y-83923190D01*
X137596714Y-83923190D01*
X138549095Y-83494619D02*
X138596714Y-83447000D01*
X138691952Y-83399380D01*
X138930047Y-83399380D01*
X139025285Y-83447000D01*
X139072904Y-83494619D01*
X139120523Y-83589857D01*
X139120523Y-83685095D01*
X139072904Y-83827952D01*
X138501476Y-84399380D01*
X139120523Y-84399380D01*
X139501476Y-83494619D02*
X139549095Y-83447000D01*
X139644333Y-83399380D01*
X139882428Y-83399380D01*
X139977666Y-83447000D01*
X140025285Y-83494619D01*
X140072904Y-83589857D01*
X140072904Y-83685095D01*
X140025285Y-83827952D01*
X139453857Y-84399380D01*
X140072904Y-84399380D01*
G04 #@! TO.C,R21*
X138295142Y-85796380D02*
X137961809Y-85320190D01*
X137723714Y-85796380D02*
X137723714Y-84796380D01*
X138104666Y-84796380D01*
X138199904Y-84844000D01*
X138247523Y-84891619D01*
X138295142Y-84986857D01*
X138295142Y-85129714D01*
X138247523Y-85224952D01*
X138199904Y-85272571D01*
X138104666Y-85320190D01*
X137723714Y-85320190D01*
X138676095Y-84891619D02*
X138723714Y-84844000D01*
X138818952Y-84796380D01*
X139057047Y-84796380D01*
X139152285Y-84844000D01*
X139199904Y-84891619D01*
X139247523Y-84986857D01*
X139247523Y-85082095D01*
X139199904Y-85224952D01*
X138628476Y-85796380D01*
X139247523Y-85796380D01*
X140199904Y-85796380D02*
X139628476Y-85796380D01*
X139914190Y-85796380D02*
X139914190Y-84796380D01*
X139818952Y-84939238D01*
X139723714Y-85034476D01*
X139628476Y-85082095D01*
G04 #@! TO.C,R20*
X157662142Y-75857380D02*
X157328809Y-75381190D01*
X157090714Y-75857380D02*
X157090714Y-74857380D01*
X157471666Y-74857380D01*
X157566904Y-74905000D01*
X157614523Y-74952619D01*
X157662142Y-75047857D01*
X157662142Y-75190714D01*
X157614523Y-75285952D01*
X157566904Y-75333571D01*
X157471666Y-75381190D01*
X157090714Y-75381190D01*
X158043095Y-74952619D02*
X158090714Y-74905000D01*
X158185952Y-74857380D01*
X158424047Y-74857380D01*
X158519285Y-74905000D01*
X158566904Y-74952619D01*
X158614523Y-75047857D01*
X158614523Y-75143095D01*
X158566904Y-75285952D01*
X157995476Y-75857380D01*
X158614523Y-75857380D01*
X159233571Y-74857380D02*
X159328809Y-74857380D01*
X159424047Y-74905000D01*
X159471666Y-74952619D01*
X159519285Y-75047857D01*
X159566904Y-75238333D01*
X159566904Y-75476428D01*
X159519285Y-75666904D01*
X159471666Y-75762142D01*
X159424047Y-75809761D01*
X159328809Y-75857380D01*
X159233571Y-75857380D01*
X159138333Y-75809761D01*
X159090714Y-75762142D01*
X159043095Y-75666904D01*
X158995476Y-75476428D01*
X158995476Y-75238333D01*
X159043095Y-75047857D01*
X159090714Y-74952619D01*
X159138333Y-74905000D01*
X159233571Y-74857380D01*
G04 #@! TO.C,R19*
X157599142Y-80335380D02*
X157265809Y-79859190D01*
X157027714Y-80335380D02*
X157027714Y-79335380D01*
X157408666Y-79335380D01*
X157503904Y-79383000D01*
X157551523Y-79430619D01*
X157599142Y-79525857D01*
X157599142Y-79668714D01*
X157551523Y-79763952D01*
X157503904Y-79811571D01*
X157408666Y-79859190D01*
X157027714Y-79859190D01*
X158551523Y-80335380D02*
X157980095Y-80335380D01*
X158265809Y-80335380D02*
X158265809Y-79335380D01*
X158170571Y-79478238D01*
X158075333Y-79573476D01*
X157980095Y-79621095D01*
X159027714Y-80335380D02*
X159218190Y-80335380D01*
X159313428Y-80287761D01*
X159361047Y-80240142D01*
X159456285Y-80097285D01*
X159503904Y-79906809D01*
X159503904Y-79525857D01*
X159456285Y-79430619D01*
X159408666Y-79383000D01*
X159313428Y-79335380D01*
X159122952Y-79335380D01*
X159027714Y-79383000D01*
X158980095Y-79430619D01*
X158932476Y-79525857D01*
X158932476Y-79763952D01*
X158980095Y-79859190D01*
X159027714Y-79906809D01*
X159122952Y-79954428D01*
X159313428Y-79954428D01*
X159408666Y-79906809D01*
X159456285Y-79859190D01*
X159503904Y-79763952D01*
G04 #@! TO.C,R18*
X152646142Y-77287380D02*
X152312809Y-76811190D01*
X152074714Y-77287380D02*
X152074714Y-76287380D01*
X152455666Y-76287380D01*
X152550904Y-76335000D01*
X152598523Y-76382619D01*
X152646142Y-76477857D01*
X152646142Y-76620714D01*
X152598523Y-76715952D01*
X152550904Y-76763571D01*
X152455666Y-76811190D01*
X152074714Y-76811190D01*
X153598523Y-77287380D02*
X153027095Y-77287380D01*
X153312809Y-77287380D02*
X153312809Y-76287380D01*
X153217571Y-76430238D01*
X153122333Y-76525476D01*
X153027095Y-76573095D01*
X154169952Y-76715952D02*
X154074714Y-76668333D01*
X154027095Y-76620714D01*
X153979476Y-76525476D01*
X153979476Y-76477857D01*
X154027095Y-76382619D01*
X154074714Y-76335000D01*
X154169952Y-76287380D01*
X154360428Y-76287380D01*
X154455666Y-76335000D01*
X154503285Y-76382619D01*
X154550904Y-76477857D01*
X154550904Y-76525476D01*
X154503285Y-76620714D01*
X154455666Y-76668333D01*
X154360428Y-76715952D01*
X154169952Y-76715952D01*
X154074714Y-76763571D01*
X154027095Y-76811190D01*
X153979476Y-76906428D01*
X153979476Y-77096904D01*
X154027095Y-77192142D01*
X154074714Y-77239761D01*
X154169952Y-77287380D01*
X154360428Y-77287380D01*
X154455666Y-77239761D01*
X154503285Y-77192142D01*
X154550904Y-77096904D01*
X154550904Y-76906428D01*
X154503285Y-76811190D01*
X154455666Y-76763571D01*
X154360428Y-76715952D01*
G04 #@! TO.C,R17*
X149931380Y-81414857D02*
X149455190Y-81748190D01*
X149931380Y-81986285D02*
X148931380Y-81986285D01*
X148931380Y-81605333D01*
X148979000Y-81510095D01*
X149026619Y-81462476D01*
X149121857Y-81414857D01*
X149264714Y-81414857D01*
X149359952Y-81462476D01*
X149407571Y-81510095D01*
X149455190Y-81605333D01*
X149455190Y-81986285D01*
X149931380Y-80462476D02*
X149931380Y-81033904D01*
X149931380Y-80748190D02*
X148931380Y-80748190D01*
X149074238Y-80843428D01*
X149169476Y-80938666D01*
X149217095Y-81033904D01*
X148931380Y-80129142D02*
X148931380Y-79462476D01*
X149931380Y-79891047D01*
G04 #@! TO.C,R16*
X151074380Y-84462857D02*
X150598190Y-84796190D01*
X151074380Y-85034285D02*
X150074380Y-85034285D01*
X150074380Y-84653333D01*
X150122000Y-84558095D01*
X150169619Y-84510476D01*
X150264857Y-84462857D01*
X150407714Y-84462857D01*
X150502952Y-84510476D01*
X150550571Y-84558095D01*
X150598190Y-84653333D01*
X150598190Y-85034285D01*
X151074380Y-83510476D02*
X151074380Y-84081904D01*
X151074380Y-83796190D02*
X150074380Y-83796190D01*
X150217238Y-83891428D01*
X150312476Y-83986666D01*
X150360095Y-84081904D01*
X150074380Y-82653333D02*
X150074380Y-82843809D01*
X150122000Y-82939047D01*
X150169619Y-82986666D01*
X150312476Y-83081904D01*
X150502952Y-83129523D01*
X150883904Y-83129523D01*
X150979142Y-83081904D01*
X151026761Y-83034285D01*
X151074380Y-82939047D01*
X151074380Y-82748571D01*
X151026761Y-82653333D01*
X150979142Y-82605714D01*
X150883904Y-82558095D01*
X150645809Y-82558095D01*
X150550571Y-82605714D01*
X150502952Y-82653333D01*
X150455333Y-82748571D01*
X150455333Y-82939047D01*
X150502952Y-83034285D01*
X150550571Y-83081904D01*
X150645809Y-83129523D01*
G04 #@! TO.C,R13*
X156837142Y-95575380D02*
X156503809Y-95099190D01*
X156265714Y-95575380D02*
X156265714Y-94575380D01*
X156646666Y-94575380D01*
X156741904Y-94623000D01*
X156789523Y-94670619D01*
X156837142Y-94765857D01*
X156837142Y-94908714D01*
X156789523Y-95003952D01*
X156741904Y-95051571D01*
X156646666Y-95099190D01*
X156265714Y-95099190D01*
X157789523Y-95575380D02*
X157218095Y-95575380D01*
X157503809Y-95575380D02*
X157503809Y-94575380D01*
X157408571Y-94718238D01*
X157313333Y-94813476D01*
X157218095Y-94861095D01*
X158122857Y-94575380D02*
X158741904Y-94575380D01*
X158408571Y-94956333D01*
X158551428Y-94956333D01*
X158646666Y-95003952D01*
X158694285Y-95051571D01*
X158741904Y-95146809D01*
X158741904Y-95384904D01*
X158694285Y-95480142D01*
X158646666Y-95527761D01*
X158551428Y-95575380D01*
X158265714Y-95575380D01*
X158170476Y-95527761D01*
X158122857Y-95480142D01*
G04 #@! TO.C,R12*
X156837142Y-96972380D02*
X156503809Y-96496190D01*
X156265714Y-96972380D02*
X156265714Y-95972380D01*
X156646666Y-95972380D01*
X156741904Y-96020000D01*
X156789523Y-96067619D01*
X156837142Y-96162857D01*
X156837142Y-96305714D01*
X156789523Y-96400952D01*
X156741904Y-96448571D01*
X156646666Y-96496190D01*
X156265714Y-96496190D01*
X157789523Y-96972380D02*
X157218095Y-96972380D01*
X157503809Y-96972380D02*
X157503809Y-95972380D01*
X157408571Y-96115238D01*
X157313333Y-96210476D01*
X157218095Y-96258095D01*
X158170476Y-96067619D02*
X158218095Y-96020000D01*
X158313333Y-95972380D01*
X158551428Y-95972380D01*
X158646666Y-96020000D01*
X158694285Y-96067619D01*
X158741904Y-96162857D01*
X158741904Y-96258095D01*
X158694285Y-96400952D01*
X158122857Y-96972380D01*
X158741904Y-96972380D01*
G04 #@! TO.C,R11*
X161790142Y-83764380D02*
X161456809Y-83288190D01*
X161218714Y-83764380D02*
X161218714Y-82764380D01*
X161599666Y-82764380D01*
X161694904Y-82812000D01*
X161742523Y-82859619D01*
X161790142Y-82954857D01*
X161790142Y-83097714D01*
X161742523Y-83192952D01*
X161694904Y-83240571D01*
X161599666Y-83288190D01*
X161218714Y-83288190D01*
X162742523Y-83764380D02*
X162171095Y-83764380D01*
X162456809Y-83764380D02*
X162456809Y-82764380D01*
X162361571Y-82907238D01*
X162266333Y-83002476D01*
X162171095Y-83050095D01*
X163694904Y-83764380D02*
X163123476Y-83764380D01*
X163409190Y-83764380D02*
X163409190Y-82764380D01*
X163313952Y-82907238D01*
X163218714Y-83002476D01*
X163123476Y-83050095D01*
G04 #@! TO.C,R6*
X162901333Y-102506380D02*
X162568000Y-102030190D01*
X162329904Y-102506380D02*
X162329904Y-101506380D01*
X162710857Y-101506380D01*
X162806095Y-101554000D01*
X162853714Y-101601619D01*
X162901333Y-101696857D01*
X162901333Y-101839714D01*
X162853714Y-101934952D01*
X162806095Y-101982571D01*
X162710857Y-102030190D01*
X162329904Y-102030190D01*
X163758476Y-101506380D02*
X163568000Y-101506380D01*
X163472761Y-101554000D01*
X163425142Y-101601619D01*
X163329904Y-101744476D01*
X163282285Y-101934952D01*
X163282285Y-102315904D01*
X163329904Y-102411142D01*
X163377523Y-102458761D01*
X163472761Y-102506380D01*
X163663238Y-102506380D01*
X163758476Y-102458761D01*
X163806095Y-102411142D01*
X163853714Y-102315904D01*
X163853714Y-102077809D01*
X163806095Y-101982571D01*
X163758476Y-101934952D01*
X163663238Y-101887333D01*
X163472761Y-101887333D01*
X163377523Y-101934952D01*
X163329904Y-101982571D01*
X163282285Y-102077809D01*
G04 #@! TO.C,R5*
X159472333Y-99585380D02*
X159139000Y-99109190D01*
X158900904Y-99585380D02*
X158900904Y-98585380D01*
X159281857Y-98585380D01*
X159377095Y-98633000D01*
X159424714Y-98680619D01*
X159472333Y-98775857D01*
X159472333Y-98918714D01*
X159424714Y-99013952D01*
X159377095Y-99061571D01*
X159281857Y-99109190D01*
X158900904Y-99109190D01*
X160377095Y-98585380D02*
X159900904Y-98585380D01*
X159853285Y-99061571D01*
X159900904Y-99013952D01*
X159996142Y-98966333D01*
X160234238Y-98966333D01*
X160329476Y-99013952D01*
X160377095Y-99061571D01*
X160424714Y-99156809D01*
X160424714Y-99394904D01*
X160377095Y-99490142D01*
X160329476Y-99537761D01*
X160234238Y-99585380D01*
X159996142Y-99585380D01*
X159900904Y-99537761D01*
X159853285Y-99490142D01*
G04 #@! TO.C,R4*
X180792380Y-94400666D02*
X180316190Y-94734000D01*
X180792380Y-94972095D02*
X179792380Y-94972095D01*
X179792380Y-94591142D01*
X179840000Y-94495904D01*
X179887619Y-94448285D01*
X179982857Y-94400666D01*
X180125714Y-94400666D01*
X180220952Y-94448285D01*
X180268571Y-94495904D01*
X180316190Y-94591142D01*
X180316190Y-94972095D01*
X180125714Y-93543523D02*
X180792380Y-93543523D01*
X179744761Y-93781619D02*
X180459047Y-94019714D01*
X180459047Y-93400666D01*
G04 #@! TO.C,R3*
X164552333Y-80970380D02*
X164219000Y-80494190D01*
X163980904Y-80970380D02*
X163980904Y-79970380D01*
X164361857Y-79970380D01*
X164457095Y-80018000D01*
X164504714Y-80065619D01*
X164552333Y-80160857D01*
X164552333Y-80303714D01*
X164504714Y-80398952D01*
X164457095Y-80446571D01*
X164361857Y-80494190D01*
X163980904Y-80494190D01*
X164885666Y-79970380D02*
X165504714Y-79970380D01*
X165171380Y-80351333D01*
X165314238Y-80351333D01*
X165409476Y-80398952D01*
X165457095Y-80446571D01*
X165504714Y-80541809D01*
X165504714Y-80779904D01*
X165457095Y-80875142D01*
X165409476Y-80922761D01*
X165314238Y-80970380D01*
X165028523Y-80970380D01*
X164933285Y-80922761D01*
X164885666Y-80875142D01*
G04 #@! TO.C,R2*
X164552333Y-79700380D02*
X164219000Y-79224190D01*
X163980904Y-79700380D02*
X163980904Y-78700380D01*
X164361857Y-78700380D01*
X164457095Y-78748000D01*
X164504714Y-78795619D01*
X164552333Y-78890857D01*
X164552333Y-79033714D01*
X164504714Y-79128952D01*
X164457095Y-79176571D01*
X164361857Y-79224190D01*
X163980904Y-79224190D01*
X164933285Y-78795619D02*
X164980904Y-78748000D01*
X165076142Y-78700380D01*
X165314238Y-78700380D01*
X165409476Y-78748000D01*
X165457095Y-78795619D01*
X165504714Y-78890857D01*
X165504714Y-78986095D01*
X165457095Y-79128952D01*
X164885666Y-79700380D01*
X165504714Y-79700380D01*
G04 #@! TO.C,R1*
X164552333Y-77795380D02*
X164219000Y-77319190D01*
X163980904Y-77795380D02*
X163980904Y-76795380D01*
X164361857Y-76795380D01*
X164457095Y-76843000D01*
X164504714Y-76890619D01*
X164552333Y-76985857D01*
X164552333Y-77128714D01*
X164504714Y-77223952D01*
X164457095Y-77271571D01*
X164361857Y-77319190D01*
X163980904Y-77319190D01*
X165504714Y-77795380D02*
X164933285Y-77795380D01*
X165219000Y-77795380D02*
X165219000Y-76795380D01*
X165123761Y-76938238D01*
X165028523Y-77033476D01*
X164933285Y-77081095D01*
G04 #@! TO.C,IC1*
X152542380Y-91916190D02*
X151542380Y-91916190D01*
X152447142Y-90868571D02*
X152494761Y-90916190D01*
X152542380Y-91059047D01*
X152542380Y-91154285D01*
X152494761Y-91297142D01*
X152399523Y-91392380D01*
X152304285Y-91440000D01*
X152113809Y-91487619D01*
X151970952Y-91487619D01*
X151780476Y-91440000D01*
X151685238Y-91392380D01*
X151590000Y-91297142D01*
X151542380Y-91154285D01*
X151542380Y-91059047D01*
X151590000Y-90916190D01*
X151637619Y-90868571D01*
X152542380Y-89916190D02*
X152542380Y-90487619D01*
X152542380Y-90201904D02*
X151542380Y-90201904D01*
X151685238Y-90297142D01*
X151780476Y-90392380D01*
X151828095Y-90487619D01*
X151542380Y-95630476D02*
X151542380Y-95059047D01*
X152542380Y-95344761D02*
X151542380Y-95344761D01*
X152542380Y-94725714D02*
X151542380Y-94725714D01*
X152256666Y-94392380D01*
X151542380Y-94059047D01*
X152542380Y-94059047D01*
X152447142Y-93011428D02*
X152494761Y-93059047D01*
X152542380Y-93201904D01*
X152542380Y-93297142D01*
X152494761Y-93440000D01*
X152399523Y-93535238D01*
X152304285Y-93582857D01*
X152113809Y-93630476D01*
X151970952Y-93630476D01*
X151780476Y-93582857D01*
X151685238Y-93535238D01*
X151590000Y-93440000D01*
X151542380Y-93297142D01*
X151542380Y-93201904D01*
X151590000Y-93059047D01*
X151637619Y-93011428D01*
X151542380Y-92154285D02*
X151542380Y-92344761D01*
X151590000Y-92440000D01*
X151637619Y-92487619D01*
X151780476Y-92582857D01*
X151970952Y-92630476D01*
X152351904Y-92630476D01*
X152447142Y-92582857D01*
X152494761Y-92535238D01*
X152542380Y-92440000D01*
X152542380Y-92249523D01*
X152494761Y-92154285D01*
X152447142Y-92106666D01*
X152351904Y-92059047D01*
X152113809Y-92059047D01*
X152018571Y-92106666D01*
X151970952Y-92154285D01*
X151923333Y-92249523D01*
X151923333Y-92440000D01*
X151970952Y-92535238D01*
X152018571Y-92582857D01*
X152113809Y-92630476D01*
X151637619Y-91678095D02*
X151590000Y-91630476D01*
X151542380Y-91535238D01*
X151542380Y-91297142D01*
X151590000Y-91201904D01*
X151637619Y-91154285D01*
X151732857Y-91106666D01*
X151828095Y-91106666D01*
X151970952Y-91154285D01*
X152542380Y-91725714D01*
X152542380Y-91106666D01*
X151542380Y-90487619D02*
X151542380Y-90392380D01*
X151590000Y-90297142D01*
X151637619Y-90249523D01*
X151732857Y-90201904D01*
X151923333Y-90154285D01*
X152161428Y-90154285D01*
X152351904Y-90201904D01*
X152447142Y-90249523D01*
X152494761Y-90297142D01*
X152542380Y-90392380D01*
X152542380Y-90487619D01*
X152494761Y-90582857D01*
X152447142Y-90630476D01*
X152351904Y-90678095D01*
X152161428Y-90725714D01*
X151923333Y-90725714D01*
X151732857Y-90678095D01*
X151637619Y-90630476D01*
X151590000Y-90582857D01*
X151542380Y-90487619D01*
X151542380Y-89535238D02*
X151542380Y-89440000D01*
X151590000Y-89344761D01*
X151637619Y-89297142D01*
X151732857Y-89249523D01*
X151923333Y-89201904D01*
X152161428Y-89201904D01*
X152351904Y-89249523D01*
X152447142Y-89297142D01*
X152494761Y-89344761D01*
X152542380Y-89440000D01*
X152542380Y-89535238D01*
X152494761Y-89630476D01*
X152447142Y-89678095D01*
X152351904Y-89725714D01*
X152161428Y-89773333D01*
X151923333Y-89773333D01*
X151732857Y-89725714D01*
X151637619Y-89678095D01*
X151590000Y-89630476D01*
X151542380Y-89535238D01*
X152161428Y-88773333D02*
X152161428Y-88011428D01*
X151542380Y-87678095D02*
X151542380Y-87106666D01*
X152542380Y-87392380D02*
X151542380Y-87392380D01*
X152256666Y-86820952D02*
X152256666Y-86344761D01*
X152542380Y-86916190D02*
X151542380Y-86582857D01*
X152542380Y-86249523D01*
X154923380Y-85453600D02*
X155161476Y-85453600D01*
X155066238Y-85691695D02*
X155161476Y-85453600D01*
X155066238Y-85215504D01*
X155351952Y-85596457D02*
X155161476Y-85453600D01*
X155351952Y-85310742D01*
X154923380Y-85453600D02*
X155161476Y-85453600D01*
X155066238Y-85691695D02*
X155161476Y-85453600D01*
X155066238Y-85215504D01*
X155351952Y-85596457D02*
X155161476Y-85453600D01*
X155351952Y-85310742D01*
G04 #@! TO.C,D2*
X147010380Y-71604095D02*
X146010380Y-71604095D01*
X146010380Y-71366000D01*
X146058000Y-71223142D01*
X146153238Y-71127904D01*
X146248476Y-71080285D01*
X146438952Y-71032666D01*
X146581809Y-71032666D01*
X146772285Y-71080285D01*
X146867523Y-71127904D01*
X146962761Y-71223142D01*
X147010380Y-71366000D01*
X147010380Y-71604095D01*
X146105619Y-70651714D02*
X146058000Y-70604095D01*
X146010380Y-70508857D01*
X146010380Y-70270761D01*
X146058000Y-70175523D01*
X146105619Y-70127904D01*
X146200857Y-70080285D01*
X146296095Y-70080285D01*
X146438952Y-70127904D01*
X147010380Y-70699333D01*
X147010380Y-70080285D01*
G04 #@! TO.C,D1*
X145613380Y-71604095D02*
X144613380Y-71604095D01*
X144613380Y-71366000D01*
X144661000Y-71223142D01*
X144756238Y-71127904D01*
X144851476Y-71080285D01*
X145041952Y-71032666D01*
X145184809Y-71032666D01*
X145375285Y-71080285D01*
X145470523Y-71127904D01*
X145565761Y-71223142D01*
X145613380Y-71366000D01*
X145613380Y-71604095D01*
X145613380Y-70080285D02*
X145613380Y-70651714D01*
X145613380Y-70366000D02*
X144613380Y-70366000D01*
X144756238Y-70461238D01*
X144851476Y-70556476D01*
X144899095Y-70651714D01*
G04 #@! TO.C,C17*
X148439142Y-81414857D02*
X148486761Y-81462476D01*
X148534380Y-81605333D01*
X148534380Y-81700571D01*
X148486761Y-81843428D01*
X148391523Y-81938666D01*
X148296285Y-81986285D01*
X148105809Y-82033904D01*
X147962952Y-82033904D01*
X147772476Y-81986285D01*
X147677238Y-81938666D01*
X147582000Y-81843428D01*
X147534380Y-81700571D01*
X147534380Y-81605333D01*
X147582000Y-81462476D01*
X147629619Y-81414857D01*
X148534380Y-80462476D02*
X148534380Y-81033904D01*
X148534380Y-80748190D02*
X147534380Y-80748190D01*
X147677238Y-80843428D01*
X147772476Y-80938666D01*
X147820095Y-81033904D01*
X147534380Y-80129142D02*
X147534380Y-79462476D01*
X148534380Y-79891047D01*
G04 #@! TO.C,C14*
X180205142Y-80113142D02*
X180157523Y-80160761D01*
X180014666Y-80208380D01*
X179919428Y-80208380D01*
X179776571Y-80160761D01*
X179681333Y-80065523D01*
X179633714Y-79970285D01*
X179586095Y-79779809D01*
X179586095Y-79636952D01*
X179633714Y-79446476D01*
X179681333Y-79351238D01*
X179776571Y-79256000D01*
X179919428Y-79208380D01*
X180014666Y-79208380D01*
X180157523Y-79256000D01*
X180205142Y-79303619D01*
X181157523Y-80208380D02*
X180586095Y-80208380D01*
X180871809Y-80208380D02*
X180871809Y-79208380D01*
X180776571Y-79351238D01*
X180681333Y-79446476D01*
X180586095Y-79494095D01*
X182014666Y-79541714D02*
X182014666Y-80208380D01*
X181776571Y-79160761D02*
X181538476Y-79875047D01*
X182157523Y-79875047D01*
G04 #@! TO.C,C12*
X180824142Y-89669857D02*
X180871761Y-89717476D01*
X180919380Y-89860333D01*
X180919380Y-89955571D01*
X180871761Y-90098428D01*
X180776523Y-90193666D01*
X180681285Y-90241285D01*
X180490809Y-90288904D01*
X180347952Y-90288904D01*
X180157476Y-90241285D01*
X180062238Y-90193666D01*
X179967000Y-90098428D01*
X179919380Y-89955571D01*
X179919380Y-89860333D01*
X179967000Y-89717476D01*
X180014619Y-89669857D01*
X180919380Y-88717476D02*
X180919380Y-89288904D01*
X180919380Y-89003190D02*
X179919380Y-89003190D01*
X180062238Y-89098428D01*
X180157476Y-89193666D01*
X180205095Y-89288904D01*
X180014619Y-88336523D02*
X179967000Y-88288904D01*
X179919380Y-88193666D01*
X179919380Y-87955571D01*
X179967000Y-87860333D01*
X180014619Y-87812714D01*
X180109857Y-87765095D01*
X180205095Y-87765095D01*
X180347952Y-87812714D01*
X180919380Y-88384142D01*
X180919380Y-87765095D01*
G04 #@! TO.C,C11*
X180967142Y-103354142D02*
X180919523Y-103401761D01*
X180776666Y-103449380D01*
X180681428Y-103449380D01*
X180538571Y-103401761D01*
X180443333Y-103306523D01*
X180395714Y-103211285D01*
X180348095Y-103020809D01*
X180348095Y-102877952D01*
X180395714Y-102687476D01*
X180443333Y-102592238D01*
X180538571Y-102497000D01*
X180681428Y-102449380D01*
X180776666Y-102449380D01*
X180919523Y-102497000D01*
X180967142Y-102544619D01*
X181919523Y-103449380D02*
X181348095Y-103449380D01*
X181633809Y-103449380D02*
X181633809Y-102449380D01*
X181538571Y-102592238D01*
X181443333Y-102687476D01*
X181348095Y-102735095D01*
X182871904Y-103449380D02*
X182300476Y-103449380D01*
X182586190Y-103449380D02*
X182586190Y-102449380D01*
X182490952Y-102592238D01*
X182395714Y-102687476D01*
X182300476Y-102735095D01*
G04 #@! TO.C,C10*
X145899142Y-82557857D02*
X145946761Y-82605476D01*
X145994380Y-82748333D01*
X145994380Y-82843571D01*
X145946761Y-82986428D01*
X145851523Y-83081666D01*
X145756285Y-83129285D01*
X145565809Y-83176904D01*
X145422952Y-83176904D01*
X145232476Y-83129285D01*
X145137238Y-83081666D01*
X145042000Y-82986428D01*
X144994380Y-82843571D01*
X144994380Y-82748333D01*
X145042000Y-82605476D01*
X145089619Y-82557857D01*
X145994380Y-81605476D02*
X145994380Y-82176904D01*
X145994380Y-81891190D02*
X144994380Y-81891190D01*
X145137238Y-81986428D01*
X145232476Y-82081666D01*
X145280095Y-82176904D01*
X144994380Y-80986428D02*
X144994380Y-80891190D01*
X145042000Y-80795952D01*
X145089619Y-80748333D01*
X145184857Y-80700714D01*
X145375333Y-80653095D01*
X145613428Y-80653095D01*
X145803904Y-80700714D01*
X145899142Y-80748333D01*
X145946761Y-80795952D01*
X145994380Y-80891190D01*
X145994380Y-80986428D01*
X145946761Y-81081666D01*
X145899142Y-81129285D01*
X145803904Y-81176904D01*
X145613428Y-81224523D01*
X145375333Y-81224523D01*
X145184857Y-81176904D01*
X145089619Y-81129285D01*
X145042000Y-81081666D01*
X144994380Y-80986428D01*
G04 #@! TO.C,C6*
X165695333Y-98043142D02*
X165647714Y-98090761D01*
X165504857Y-98138380D01*
X165409619Y-98138380D01*
X165266761Y-98090761D01*
X165171523Y-97995523D01*
X165123904Y-97900285D01*
X165076285Y-97709809D01*
X165076285Y-97566952D01*
X165123904Y-97376476D01*
X165171523Y-97281238D01*
X165266761Y-97186000D01*
X165409619Y-97138380D01*
X165504857Y-97138380D01*
X165647714Y-97186000D01*
X165695333Y-97233619D01*
X166552476Y-97138380D02*
X166362000Y-97138380D01*
X166266761Y-97186000D01*
X166219142Y-97233619D01*
X166123904Y-97376476D01*
X166076285Y-97566952D01*
X166076285Y-97947904D01*
X166123904Y-98043142D01*
X166171523Y-98090761D01*
X166266761Y-98138380D01*
X166457238Y-98138380D01*
X166552476Y-98090761D01*
X166600095Y-98043142D01*
X166647714Y-97947904D01*
X166647714Y-97709809D01*
X166600095Y-97614571D01*
X166552476Y-97566952D01*
X166457238Y-97519333D01*
X166266761Y-97519333D01*
X166171523Y-97566952D01*
X166123904Y-97614571D01*
X166076285Y-97709809D01*
G04 #@! TO.C,C5*
X158202333Y-101014142D02*
X158154714Y-101061761D01*
X158011857Y-101109380D01*
X157916619Y-101109380D01*
X157773761Y-101061761D01*
X157678523Y-100966523D01*
X157630904Y-100871285D01*
X157583285Y-100680809D01*
X157583285Y-100537952D01*
X157630904Y-100347476D01*
X157678523Y-100252238D01*
X157773761Y-100157000D01*
X157916619Y-100109380D01*
X158011857Y-100109380D01*
X158154714Y-100157000D01*
X158202333Y-100204619D01*
X159107095Y-100109380D02*
X158630904Y-100109380D01*
X158583285Y-100585571D01*
X158630904Y-100537952D01*
X158726142Y-100490333D01*
X158964238Y-100490333D01*
X159059476Y-100537952D01*
X159107095Y-100585571D01*
X159154714Y-100680809D01*
X159154714Y-100918904D01*
X159107095Y-101014142D01*
X159059476Y-101061761D01*
X158964238Y-101109380D01*
X158726142Y-101109380D01*
X158630904Y-101061761D01*
X158583285Y-101014142D01*
G04 #@! TO.C,C4*
X155802333Y-83829142D02*
X155754714Y-83876761D01*
X155611857Y-83924380D01*
X155516619Y-83924380D01*
X155373761Y-83876761D01*
X155278523Y-83781523D01*
X155230904Y-83686285D01*
X155183285Y-83495809D01*
X155183285Y-83352952D01*
X155230904Y-83162476D01*
X155278523Y-83067238D01*
X155373761Y-82972000D01*
X155516619Y-82924380D01*
X155611857Y-82924380D01*
X155754714Y-82972000D01*
X155802333Y-83019619D01*
X156659476Y-83257714D02*
X156659476Y-83924380D01*
X156421380Y-82876761D02*
X156183285Y-83591047D01*
X156802333Y-83591047D01*
G04 #@! TO.C,C3*
X156694142Y-101639666D02*
X156741761Y-101687285D01*
X156789380Y-101830142D01*
X156789380Y-101925380D01*
X156741761Y-102068238D01*
X156646523Y-102163476D01*
X156551285Y-102211095D01*
X156360809Y-102258714D01*
X156217952Y-102258714D01*
X156027476Y-102211095D01*
X155932238Y-102163476D01*
X155837000Y-102068238D01*
X155789380Y-101925380D01*
X155789380Y-101830142D01*
X155837000Y-101687285D01*
X155884619Y-101639666D01*
X155789380Y-101306333D02*
X155789380Y-100687285D01*
X156170333Y-101020619D01*
X156170333Y-100877761D01*
X156217952Y-100782523D01*
X156265571Y-100734904D01*
X156360809Y-100687285D01*
X156598904Y-100687285D01*
X156694142Y-100734904D01*
X156741761Y-100782523D01*
X156789380Y-100877761D01*
X156789380Y-101163476D01*
X156741761Y-101258714D01*
X156694142Y-101306333D01*
G04 #@! TO.C,C2*
X154916142Y-101766666D02*
X154963761Y-101814285D01*
X155011380Y-101957142D01*
X155011380Y-102052380D01*
X154963761Y-102195238D01*
X154868523Y-102290476D01*
X154773285Y-102338095D01*
X154582809Y-102385714D01*
X154439952Y-102385714D01*
X154249476Y-102338095D01*
X154154238Y-102290476D01*
X154059000Y-102195238D01*
X154011380Y-102052380D01*
X154011380Y-101957142D01*
X154059000Y-101814285D01*
X154106619Y-101766666D01*
X154106619Y-101385714D02*
X154059000Y-101338095D01*
X154011380Y-101242857D01*
X154011380Y-101004761D01*
X154059000Y-100909523D01*
X154106619Y-100861904D01*
X154201857Y-100814285D01*
X154297095Y-100814285D01*
X154439952Y-100861904D01*
X155011380Y-101433333D01*
X155011380Y-100814285D01*
G04 #@! TO.C,C1*
X153011142Y-101512666D02*
X153058761Y-101560285D01*
X153106380Y-101703142D01*
X153106380Y-101798380D01*
X153058761Y-101941238D01*
X152963523Y-102036476D01*
X152868285Y-102084095D01*
X152677809Y-102131714D01*
X152534952Y-102131714D01*
X152344476Y-102084095D01*
X152249238Y-102036476D01*
X152154000Y-101941238D01*
X152106380Y-101798380D01*
X152106380Y-101703142D01*
X152154000Y-101560285D01*
X152201619Y-101512666D01*
X153106380Y-100560285D02*
X153106380Y-101131714D01*
X153106380Y-100846000D02*
X152106380Y-100846000D01*
X152249238Y-100941238D01*
X152344476Y-101036476D01*
X152392095Y-101131714D01*
G04 #@! TO.C,J2*
X135067380Y-81216333D02*
X135781666Y-81216333D01*
X135924523Y-81263952D01*
X136019761Y-81359190D01*
X136067380Y-81502047D01*
X136067380Y-81597285D01*
X135162619Y-80787761D02*
X135115000Y-80740142D01*
X135067380Y-80644904D01*
X135067380Y-80406809D01*
X135115000Y-80311571D01*
X135162619Y-80263952D01*
X135257857Y-80216333D01*
X135353095Y-80216333D01*
X135495952Y-80263952D01*
X136067380Y-80835380D01*
X136067380Y-80216333D01*
G04 #@! TO.C,J6*
X140382666Y-75271380D02*
X140382666Y-75985666D01*
X140335047Y-76128523D01*
X140239809Y-76223761D01*
X140096952Y-76271380D01*
X140001714Y-76271380D01*
X141287428Y-75271380D02*
X141096952Y-75271380D01*
X141001714Y-75319000D01*
X140954095Y-75366619D01*
X140858857Y-75509476D01*
X140811238Y-75699952D01*
X140811238Y-76080904D01*
X140858857Y-76176142D01*
X140906476Y-76223761D01*
X141001714Y-76271380D01*
X141192190Y-76271380D01*
X141287428Y-76223761D01*
X141335047Y-76176142D01*
X141382666Y-76080904D01*
X141382666Y-75842809D01*
X141335047Y-75747571D01*
X141287428Y-75699952D01*
X141192190Y-75652333D01*
X141001714Y-75652333D01*
X140906476Y-75699952D01*
X140858857Y-75747571D01*
X140811238Y-75842809D01*
G04 #@! TO.C,J4*
X135702380Y-96583333D02*
X136416666Y-96583333D01*
X136559523Y-96630952D01*
X136654761Y-96726190D01*
X136702380Y-96869047D01*
X136702380Y-96964285D01*
X136035714Y-95678571D02*
X136702380Y-95678571D01*
X135654761Y-95916666D02*
X136369047Y-96154761D01*
X136369047Y-95535714D01*
G04 #@! TO.C,J1*
X131492666Y-75271380D02*
X131492666Y-75985666D01*
X131445047Y-76128523D01*
X131349809Y-76223761D01*
X131206952Y-76271380D01*
X131111714Y-76271380D01*
X132492666Y-76271380D02*
X131921238Y-76271380D01*
X132206952Y-76271380D02*
X132206952Y-75271380D01*
X132111714Y-75414238D01*
X132016476Y-75509476D01*
X131921238Y-75557095D01*
G04 #@! TO.C,C8*
X170537142Y-103671666D02*
X170584761Y-103719285D01*
X170632380Y-103862142D01*
X170632380Y-103957380D01*
X170584761Y-104100238D01*
X170489523Y-104195476D01*
X170394285Y-104243095D01*
X170203809Y-104290714D01*
X170060952Y-104290714D01*
X169870476Y-104243095D01*
X169775238Y-104195476D01*
X169680000Y-104100238D01*
X169632380Y-103957380D01*
X169632380Y-103862142D01*
X169680000Y-103719285D01*
X169727619Y-103671666D01*
X170060952Y-103100238D02*
X170013333Y-103195476D01*
X169965714Y-103243095D01*
X169870476Y-103290714D01*
X169822857Y-103290714D01*
X169727619Y-103243095D01*
X169680000Y-103195476D01*
X169632380Y-103100238D01*
X169632380Y-102909761D01*
X169680000Y-102814523D01*
X169727619Y-102766904D01*
X169822857Y-102719285D01*
X169870476Y-102719285D01*
X169965714Y-102766904D01*
X170013333Y-102814523D01*
X170060952Y-102909761D01*
X170060952Y-103100238D01*
X170108571Y-103195476D01*
X170156190Y-103243095D01*
X170251428Y-103290714D01*
X170441904Y-103290714D01*
X170537142Y-103243095D01*
X170584761Y-103195476D01*
X170632380Y-103100238D01*
X170632380Y-102909761D01*
X170584761Y-102814523D01*
X170537142Y-102766904D01*
X170441904Y-102719285D01*
X170251428Y-102719285D01*
X170156190Y-102766904D01*
X170108571Y-102814523D01*
X170060952Y-102909761D01*
G04 #@! TO.C,C22*
X168505142Y-104655857D02*
X168552761Y-104703476D01*
X168600380Y-104846333D01*
X168600380Y-104941571D01*
X168552761Y-105084428D01*
X168457523Y-105179666D01*
X168362285Y-105227285D01*
X168171809Y-105274904D01*
X168028952Y-105274904D01*
X167838476Y-105227285D01*
X167743238Y-105179666D01*
X167648000Y-105084428D01*
X167600380Y-104941571D01*
X167600380Y-104846333D01*
X167648000Y-104703476D01*
X167695619Y-104655857D01*
X167695619Y-104274904D02*
X167648000Y-104227285D01*
X167600380Y-104132047D01*
X167600380Y-103893952D01*
X167648000Y-103798714D01*
X167695619Y-103751095D01*
X167790857Y-103703476D01*
X167886095Y-103703476D01*
X168028952Y-103751095D01*
X168600380Y-104322523D01*
X168600380Y-103703476D01*
X167695619Y-103322523D02*
X167648000Y-103274904D01*
X167600380Y-103179666D01*
X167600380Y-102941571D01*
X167648000Y-102846333D01*
X167695619Y-102798714D01*
X167790857Y-102751095D01*
X167886095Y-102751095D01*
X168028952Y-102798714D01*
X168600380Y-103370142D01*
X168600380Y-102751095D01*
G04 #@! TO.C,C24*
X166306142Y-104655857D02*
X166353761Y-104703476D01*
X166401380Y-104846333D01*
X166401380Y-104941571D01*
X166353761Y-105084428D01*
X166258523Y-105179666D01*
X166163285Y-105227285D01*
X165972809Y-105274904D01*
X165829952Y-105274904D01*
X165639476Y-105227285D01*
X165544238Y-105179666D01*
X165449000Y-105084428D01*
X165401380Y-104941571D01*
X165401380Y-104846333D01*
X165449000Y-104703476D01*
X165496619Y-104655857D01*
X165496619Y-104274904D02*
X165449000Y-104227285D01*
X165401380Y-104132047D01*
X165401380Y-103893952D01*
X165449000Y-103798714D01*
X165496619Y-103751095D01*
X165591857Y-103703476D01*
X165687095Y-103703476D01*
X165829952Y-103751095D01*
X166401380Y-104322523D01*
X166401380Y-103703476D01*
X165734714Y-102846333D02*
X166401380Y-102846333D01*
X165353761Y-103084428D02*
X166068047Y-103322523D01*
X166068047Y-102703476D01*
G04 #@! TO.C,C25*
X161139142Y-88272857D02*
X161186761Y-88320476D01*
X161234380Y-88463333D01*
X161234380Y-88558571D01*
X161186761Y-88701428D01*
X161091523Y-88796666D01*
X160996285Y-88844285D01*
X160805809Y-88891904D01*
X160662952Y-88891904D01*
X160472476Y-88844285D01*
X160377238Y-88796666D01*
X160282000Y-88701428D01*
X160234380Y-88558571D01*
X160234380Y-88463333D01*
X160282000Y-88320476D01*
X160329619Y-88272857D01*
X160329619Y-87891904D02*
X160282000Y-87844285D01*
X160234380Y-87749047D01*
X160234380Y-87510952D01*
X160282000Y-87415714D01*
X160329619Y-87368095D01*
X160424857Y-87320476D01*
X160520095Y-87320476D01*
X160662952Y-87368095D01*
X161234380Y-87939523D01*
X161234380Y-87320476D01*
X160234380Y-86415714D02*
X160234380Y-86891904D01*
X160710571Y-86939523D01*
X160662952Y-86891904D01*
X160615333Y-86796666D01*
X160615333Y-86558571D01*
X160662952Y-86463333D01*
X160710571Y-86415714D01*
X160805809Y-86368095D01*
X161043904Y-86368095D01*
X161139142Y-86415714D01*
X161186761Y-86463333D01*
X161234380Y-86558571D01*
X161234380Y-86796666D01*
X161186761Y-86891904D01*
X161139142Y-86939523D01*
G04 #@! TO.C,C26*
X159107142Y-88272857D02*
X159154761Y-88320476D01*
X159202380Y-88463333D01*
X159202380Y-88558571D01*
X159154761Y-88701428D01*
X159059523Y-88796666D01*
X158964285Y-88844285D01*
X158773809Y-88891904D01*
X158630952Y-88891904D01*
X158440476Y-88844285D01*
X158345238Y-88796666D01*
X158250000Y-88701428D01*
X158202380Y-88558571D01*
X158202380Y-88463333D01*
X158250000Y-88320476D01*
X158297619Y-88272857D01*
X158297619Y-87891904D02*
X158250000Y-87844285D01*
X158202380Y-87749047D01*
X158202380Y-87510952D01*
X158250000Y-87415714D01*
X158297619Y-87368095D01*
X158392857Y-87320476D01*
X158488095Y-87320476D01*
X158630952Y-87368095D01*
X159202380Y-87939523D01*
X159202380Y-87320476D01*
X158202380Y-86463333D02*
X158202380Y-86653809D01*
X158250000Y-86749047D01*
X158297619Y-86796666D01*
X158440476Y-86891904D01*
X158630952Y-86939523D01*
X159011904Y-86939523D01*
X159107142Y-86891904D01*
X159154761Y-86844285D01*
X159202380Y-86749047D01*
X159202380Y-86558571D01*
X159154761Y-86463333D01*
X159107142Y-86415714D01*
X159011904Y-86368095D01*
X158773809Y-86368095D01*
X158678571Y-86415714D01*
X158630952Y-86463333D01*
X158583333Y-86558571D01*
X158583333Y-86749047D01*
X158630952Y-86844285D01*
X158678571Y-86891904D01*
X158773809Y-86939523D01*
G04 #@! TO.C,C7*
X170537142Y-83224666D02*
X170584761Y-83272285D01*
X170632380Y-83415142D01*
X170632380Y-83510380D01*
X170584761Y-83653238D01*
X170489523Y-83748476D01*
X170394285Y-83796095D01*
X170203809Y-83843714D01*
X170060952Y-83843714D01*
X169870476Y-83796095D01*
X169775238Y-83748476D01*
X169680000Y-83653238D01*
X169632380Y-83510380D01*
X169632380Y-83415142D01*
X169680000Y-83272285D01*
X169727619Y-83224666D01*
X169632380Y-82891333D02*
X169632380Y-82224666D01*
X170632380Y-82653238D01*
G04 #@! TO.C,C9*
X163044142Y-88177666D02*
X163091761Y-88225285D01*
X163139380Y-88368142D01*
X163139380Y-88463380D01*
X163091761Y-88606238D01*
X162996523Y-88701476D01*
X162901285Y-88749095D01*
X162710809Y-88796714D01*
X162567952Y-88796714D01*
X162377476Y-88749095D01*
X162282238Y-88701476D01*
X162187000Y-88606238D01*
X162139380Y-88463380D01*
X162139380Y-88368142D01*
X162187000Y-88225285D01*
X162234619Y-88177666D01*
X163139380Y-87701476D02*
X163139380Y-87511000D01*
X163091761Y-87415761D01*
X163044142Y-87368142D01*
X162901285Y-87272904D01*
X162710809Y-87225285D01*
X162329857Y-87225285D01*
X162234619Y-87272904D01*
X162187000Y-87320523D01*
X162139380Y-87415761D01*
X162139380Y-87606238D01*
X162187000Y-87701476D01*
X162234619Y-87749095D01*
X162329857Y-87796714D01*
X162567952Y-87796714D01*
X162663190Y-87749095D01*
X162710809Y-87701476D01*
X162758428Y-87606238D01*
X162758428Y-87415761D01*
X162710809Y-87320523D01*
X162663190Y-87272904D01*
X162567952Y-87225285D01*
G04 #@! TO.C,C21*
X168505142Y-83954857D02*
X168552761Y-84002476D01*
X168600380Y-84145333D01*
X168600380Y-84240571D01*
X168552761Y-84383428D01*
X168457523Y-84478666D01*
X168362285Y-84526285D01*
X168171809Y-84573904D01*
X168028952Y-84573904D01*
X167838476Y-84526285D01*
X167743238Y-84478666D01*
X167648000Y-84383428D01*
X167600380Y-84240571D01*
X167600380Y-84145333D01*
X167648000Y-84002476D01*
X167695619Y-83954857D01*
X167695619Y-83573904D02*
X167648000Y-83526285D01*
X167600380Y-83431047D01*
X167600380Y-83192952D01*
X167648000Y-83097714D01*
X167695619Y-83050095D01*
X167790857Y-83002476D01*
X167886095Y-83002476D01*
X168028952Y-83050095D01*
X168600380Y-83621523D01*
X168600380Y-83002476D01*
X168600380Y-82050095D02*
X168600380Y-82621523D01*
X168600380Y-82335809D02*
X167600380Y-82335809D01*
X167743238Y-82431047D01*
X167838476Y-82526285D01*
X167886095Y-82621523D01*
G04 #@! TO.C,C23*
X166600142Y-84081857D02*
X166647761Y-84129476D01*
X166695380Y-84272333D01*
X166695380Y-84367571D01*
X166647761Y-84510428D01*
X166552523Y-84605666D01*
X166457285Y-84653285D01*
X166266809Y-84700904D01*
X166123952Y-84700904D01*
X165933476Y-84653285D01*
X165838238Y-84605666D01*
X165743000Y-84510428D01*
X165695380Y-84367571D01*
X165695380Y-84272333D01*
X165743000Y-84129476D01*
X165790619Y-84081857D01*
X165790619Y-83700904D02*
X165743000Y-83653285D01*
X165695380Y-83558047D01*
X165695380Y-83319952D01*
X165743000Y-83224714D01*
X165790619Y-83177095D01*
X165885857Y-83129476D01*
X165981095Y-83129476D01*
X166123952Y-83177095D01*
X166695380Y-83748523D01*
X166695380Y-83129476D01*
X165695380Y-82796142D02*
X165695380Y-82177095D01*
X166076333Y-82510428D01*
X166076333Y-82367571D01*
X166123952Y-82272333D01*
X166171571Y-82224714D01*
X166266809Y-82177095D01*
X166504904Y-82177095D01*
X166600142Y-82224714D01*
X166647761Y-82272333D01*
X166695380Y-82367571D01*
X166695380Y-82653285D01*
X166647761Y-82748523D01*
X166600142Y-82796142D01*
G04 #@! TO.C,H201*
X131508714Y-100503380D02*
X131508714Y-99503380D01*
X131508714Y-99979571D02*
X132080142Y-99979571D01*
X132080142Y-100503380D02*
X132080142Y-99503380D01*
X132508714Y-99598619D02*
X132556333Y-99551000D01*
X132651571Y-99503380D01*
X132889666Y-99503380D01*
X132984904Y-99551000D01*
X133032523Y-99598619D01*
X133080142Y-99693857D01*
X133080142Y-99789095D01*
X133032523Y-99931952D01*
X132461095Y-100503380D01*
X133080142Y-100503380D01*
X133699190Y-99503380D02*
X133794428Y-99503380D01*
X133889666Y-99551000D01*
X133937285Y-99598619D01*
X133984904Y-99693857D01*
X134032523Y-99884333D01*
X134032523Y-100122428D01*
X133984904Y-100312904D01*
X133937285Y-100408142D01*
X133889666Y-100455761D01*
X133794428Y-100503380D01*
X133699190Y-100503380D01*
X133603952Y-100455761D01*
X133556333Y-100408142D01*
X133508714Y-100312904D01*
X133461095Y-100122428D01*
X133461095Y-99884333D01*
X133508714Y-99693857D01*
X133556333Y-99598619D01*
X133603952Y-99551000D01*
X133699190Y-99503380D01*
X134984904Y-100503380D02*
X134413476Y-100503380D01*
X134699190Y-100503380D02*
X134699190Y-99503380D01*
X134603952Y-99646238D01*
X134508714Y-99741476D01*
X134413476Y-99789095D01*
G04 #@! TO.C,H202*
X131508714Y-85771380D02*
X131508714Y-84771380D01*
X131508714Y-85247571D02*
X132080142Y-85247571D01*
X132080142Y-85771380D02*
X132080142Y-84771380D01*
X132508714Y-84866619D02*
X132556333Y-84819000D01*
X132651571Y-84771380D01*
X132889666Y-84771380D01*
X132984904Y-84819000D01*
X133032523Y-84866619D01*
X133080142Y-84961857D01*
X133080142Y-85057095D01*
X133032523Y-85199952D01*
X132461095Y-85771380D01*
X133080142Y-85771380D01*
X133699190Y-84771380D02*
X133794428Y-84771380D01*
X133889666Y-84819000D01*
X133937285Y-84866619D01*
X133984904Y-84961857D01*
X134032523Y-85152333D01*
X134032523Y-85390428D01*
X133984904Y-85580904D01*
X133937285Y-85676142D01*
X133889666Y-85723761D01*
X133794428Y-85771380D01*
X133699190Y-85771380D01*
X133603952Y-85723761D01*
X133556333Y-85676142D01*
X133508714Y-85580904D01*
X133461095Y-85390428D01*
X133461095Y-85152333D01*
X133508714Y-84961857D01*
X133556333Y-84866619D01*
X133603952Y-84819000D01*
X133699190Y-84771380D01*
X134413476Y-84866619D02*
X134461095Y-84819000D01*
X134556333Y-84771380D01*
X134794428Y-84771380D01*
X134889666Y-84819000D01*
X134937285Y-84866619D01*
X134984904Y-84961857D01*
X134984904Y-85057095D01*
X134937285Y-85199952D01*
X134365857Y-85771380D01*
X134984904Y-85771380D01*
G04 #@! TO.C,Q7*
X169738047Y-67660476D02*
X169677095Y-67630000D01*
X169616142Y-67569047D01*
X169524714Y-67477619D01*
X169463761Y-67447142D01*
X169402809Y-67447142D01*
X169433285Y-67599523D02*
X169372333Y-67569047D01*
X169311380Y-67508095D01*
X169280904Y-67386190D01*
X169280904Y-67172857D01*
X169311380Y-67050952D01*
X169372333Y-66990000D01*
X169433285Y-66959523D01*
X169555190Y-66959523D01*
X169616142Y-66990000D01*
X169677095Y-67050952D01*
X169707571Y-67172857D01*
X169707571Y-67386190D01*
X169677095Y-67508095D01*
X169616142Y-67569047D01*
X169555190Y-67599523D01*
X169433285Y-67599523D01*
X169920904Y-66959523D02*
X170347571Y-66959523D01*
X170073285Y-67599523D01*
G04 #@! TO.C,D4*
X169489380Y-69445095D02*
X168489380Y-69445095D01*
X168489380Y-69207000D01*
X168537000Y-69064142D01*
X168632238Y-68968904D01*
X168727476Y-68921285D01*
X168917952Y-68873666D01*
X169060809Y-68873666D01*
X169251285Y-68921285D01*
X169346523Y-68968904D01*
X169441761Y-69064142D01*
X169489380Y-69207000D01*
X169489380Y-69445095D01*
X168822714Y-68016523D02*
X169489380Y-68016523D01*
X168441761Y-68254619D02*
X169156047Y-68492714D01*
X169156047Y-67873666D01*
G04 #@! TO.C,R27*
X168394142Y-77066380D02*
X168060809Y-76590190D01*
X167822714Y-77066380D02*
X167822714Y-76066380D01*
X168203666Y-76066380D01*
X168298904Y-76114000D01*
X168346523Y-76161619D01*
X168394142Y-76256857D01*
X168394142Y-76399714D01*
X168346523Y-76494952D01*
X168298904Y-76542571D01*
X168203666Y-76590190D01*
X167822714Y-76590190D01*
X168775095Y-76161619D02*
X168822714Y-76114000D01*
X168917952Y-76066380D01*
X169156047Y-76066380D01*
X169251285Y-76114000D01*
X169298904Y-76161619D01*
X169346523Y-76256857D01*
X169346523Y-76352095D01*
X169298904Y-76494952D01*
X168727476Y-77066380D01*
X169346523Y-77066380D01*
X169679857Y-76066380D02*
X170346523Y-76066380D01*
X169917952Y-77066380D01*
G04 #@! TO.C,D6*
X173446904Y-77424380D02*
X173446904Y-76424380D01*
X173685000Y-76424380D01*
X173827857Y-76472000D01*
X173923095Y-76567238D01*
X173970714Y-76662476D01*
X174018333Y-76852952D01*
X174018333Y-76995809D01*
X173970714Y-77186285D01*
X173923095Y-77281523D01*
X173827857Y-77376761D01*
X173685000Y-77424380D01*
X173446904Y-77424380D01*
X174875476Y-76424380D02*
X174685000Y-76424380D01*
X174589761Y-76472000D01*
X174542142Y-76519619D01*
X174446904Y-76662476D01*
X174399285Y-76852952D01*
X174399285Y-77233904D01*
X174446904Y-77329142D01*
X174494523Y-77376761D01*
X174589761Y-77424380D01*
X174780238Y-77424380D01*
X174875476Y-77376761D01*
X174923095Y-77329142D01*
X174970714Y-77233904D01*
X174970714Y-76995809D01*
X174923095Y-76900571D01*
X174875476Y-76852952D01*
X174780238Y-76805333D01*
X174589761Y-76805333D01*
X174494523Y-76852952D01*
X174446904Y-76900571D01*
X174399285Y-76995809D01*
G04 #@! TO.C,D3*
X137862595Y-77294379D02*
X137862595Y-76294379D01*
X138100690Y-76294379D01*
X138243547Y-76341999D01*
X138338785Y-76437237D01*
X138386404Y-76532475D01*
X138434023Y-76722951D01*
X138434023Y-76865808D01*
X138386404Y-77056284D01*
X138338785Y-77151522D01*
X138243547Y-77246760D01*
X138100690Y-77294379D01*
X137862595Y-77294379D01*
X138767357Y-76294379D02*
X139386404Y-76294379D01*
X139053071Y-76675332D01*
X139195928Y-76675332D01*
X139291166Y-76722951D01*
X139338785Y-76770570D01*
X139386404Y-76865808D01*
X139386404Y-77103903D01*
X139338785Y-77199141D01*
X139291166Y-77246760D01*
X139195928Y-77294379D01*
X138910214Y-77294379D01*
X138814976Y-77246760D01*
X138767357Y-77199141D01*
G04 #@! TO.C,D5*
X134306595Y-77294379D02*
X134306595Y-76294379D01*
X134544690Y-76294379D01*
X134687547Y-76341999D01*
X134782785Y-76437237D01*
X134830404Y-76532475D01*
X134878023Y-76722951D01*
X134878023Y-76865808D01*
X134830404Y-77056284D01*
X134782785Y-77151522D01*
X134687547Y-77246760D01*
X134544690Y-77294379D01*
X134306595Y-77294379D01*
X135782785Y-76294379D02*
X135306595Y-76294379D01*
X135258976Y-76770570D01*
X135306595Y-76722951D01*
X135401833Y-76675332D01*
X135639928Y-76675332D01*
X135735166Y-76722951D01*
X135782785Y-76770570D01*
X135830404Y-76865808D01*
X135830404Y-77103903D01*
X135782785Y-77199141D01*
X135735166Y-77246760D01*
X135639928Y-77294379D01*
X135401833Y-77294379D01*
X135306595Y-77246760D01*
X135258976Y-77199141D01*
G04 #@! TO.C,D7*
X142561595Y-77929379D02*
X142561595Y-76929379D01*
X142799690Y-76929379D01*
X142942547Y-76976999D01*
X143037785Y-77072237D01*
X143085404Y-77167475D01*
X143133023Y-77357951D01*
X143133023Y-77500808D01*
X143085404Y-77691284D01*
X143037785Y-77786522D01*
X142942547Y-77881760D01*
X142799690Y-77929379D01*
X142561595Y-77929379D01*
X143466357Y-76929379D02*
X144133023Y-76929379D01*
X143704452Y-77929379D01*
G04 #@! TD*
M02*
