G04 #@! TF.GenerationSoftware,KiCad,Pcbnew,5.1.12-84ad8e8a86~92~ubuntu20.04.1*
G04 #@! TF.CreationDate,2022-01-16T14:46:47+02:00*
G04 #@! TF.ProjectId,opm-inline,6f706d2d-696e-46c6-996e-652e6b696361,rev?*
G04 #@! TF.SameCoordinates,Original*
G04 #@! TF.FileFunction,Soldermask,Top*
G04 #@! TF.FilePolarity,Negative*
%FSLAX46Y46*%
G04 Gerber Fmt 4.6, Leading zero omitted, Abs format (unit mm)*
G04 Created by KiCad (PCBNEW 5.1.12-84ad8e8a86~92~ubuntu20.04.1) date 2022-01-16 14:46:47*
%MOMM*%
%LPD*%
G01*
G04 APERTURE LIST*
%ADD10R,3.750000X4.410000*%
%ADD11R,0.800000X0.600000*%
%ADD12R,0.850000X0.500000*%
%ADD13C,6.497320*%
%ADD14R,3.000000X3.000000*%
%ADD15C,3.000000*%
%ADD16O,1.200000X1.750000*%
%ADD17C,1.600000*%
%ADD18R,5.003800X5.003800*%
%ADD19R,1.346200X0.279400*%
%ADD20R,0.279400X1.346200*%
%ADD21O,1.750000X1.200000*%
%ADD22C,0.700000*%
%ADD23C,4.400000*%
%ADD24R,1.200000X0.900000*%
%ADD25R,2.500000X1.800000*%
%ADD26R,0.499999X0.399999*%
G04 APERTURE END LIST*
D10*
G04 #@! TO.C,Q6*
X168090000Y-93980000D03*
D11*
X170365000Y-92075000D03*
X170365000Y-93345000D03*
X170365000Y-94615000D03*
X170365000Y-95885000D03*
D12*
X164540000Y-94615000D03*
X164540000Y-93345000D03*
X164540000Y-95885000D03*
X164540000Y-92075000D03*
G04 #@! TD*
D10*
G04 #@! TO.C,Q5*
X166780000Y-87630000D03*
D11*
X164505000Y-89535000D03*
X164505000Y-88265000D03*
X164505000Y-86995000D03*
X164505000Y-85725000D03*
D12*
X170330000Y-86995000D03*
X170330000Y-88265000D03*
X170330000Y-85725000D03*
X170330000Y-89535000D03*
G04 #@! TD*
D13*
G04 #@! TO.C,HS1*
X260350000Y-69596000D03*
X237490000Y-92456000D03*
G04 #@! TD*
D14*
G04 #@! TO.C,U3*
X185420000Y-96520000D03*
D15*
X185420000Y-91440000D03*
X185420000Y-86360000D03*
G04 #@! TD*
D14*
G04 #@! TO.C,U2*
X185547000Y-69850000D03*
D15*
X180467000Y-69850000D03*
G04 #@! TD*
D10*
G04 #@! TO.C,Q4*
X176100000Y-103270000D03*
D11*
X178375000Y-101365000D03*
X178375000Y-102635000D03*
X178375000Y-103905000D03*
X178375000Y-105175000D03*
D12*
X172550000Y-103905000D03*
X172550000Y-102635000D03*
X172550000Y-105175000D03*
X172550000Y-101365000D03*
G04 #@! TD*
D10*
G04 #@! TO.C,Q3*
X174800000Y-97420000D03*
D11*
X172525000Y-99325000D03*
X172525000Y-98055000D03*
X172525000Y-96785000D03*
X172525000Y-95515000D03*
D12*
X178350000Y-96785000D03*
X178350000Y-98055000D03*
X178350000Y-95515000D03*
X178350000Y-99325000D03*
G04 #@! TD*
D10*
G04 #@! TO.C,Q2*
X176100000Y-85860000D03*
D11*
X178375000Y-83955000D03*
X178375000Y-85225000D03*
X178375000Y-86495000D03*
X178375000Y-87765000D03*
D12*
X172550000Y-86495000D03*
X172550000Y-85225000D03*
X172550000Y-87765000D03*
X172550000Y-83955000D03*
G04 #@! TD*
D10*
G04 #@! TO.C,Q1*
X174800000Y-80110000D03*
D11*
X172525000Y-82015000D03*
X172525000Y-80745000D03*
X172525000Y-79475000D03*
X172525000Y-78205000D03*
D12*
X178350000Y-79475000D03*
X178350000Y-80745000D03*
X178350000Y-78205000D03*
X178350000Y-82015000D03*
G04 #@! TD*
D16*
G04 #@! TO.C,J3*
X141880000Y-68580000D03*
X139880000Y-68580000D03*
X137880000Y-68580000D03*
X135880000Y-68580000D03*
X133880000Y-68580000D03*
G36*
G01*
X131280000Y-69205001D02*
X131280000Y-67954999D01*
G75*
G02*
X131529999Y-67705000I249999J0D01*
G01*
X132230001Y-67705000D01*
G75*
G02*
X132480000Y-67954999I0J-249999D01*
G01*
X132480000Y-69205001D01*
G75*
G02*
X132230001Y-69455000I-249999J0D01*
G01*
X131529999Y-69455000D01*
G75*
G02*
X131280000Y-69205001I0J249999D01*
G01*
G37*
G04 #@! TD*
G04 #@! TO.C,R15*
G36*
G01*
X173472000Y-91884999D02*
X173472000Y-93135001D01*
G75*
G02*
X173222001Y-93385000I-249999J0D01*
G01*
X172596999Y-93385000D01*
G75*
G02*
X172347000Y-93135001I0J249999D01*
G01*
X172347000Y-91884999D01*
G75*
G02*
X172596999Y-91635000I249999J0D01*
G01*
X173222001Y-91635000D01*
G75*
G02*
X173472000Y-91884999I0J-249999D01*
G01*
G37*
G36*
G01*
X176397000Y-91884999D02*
X176397000Y-93135001D01*
G75*
G02*
X176147001Y-93385000I-249999J0D01*
G01*
X175521999Y-93385000D01*
G75*
G02*
X175272000Y-93135001I0J249999D01*
G01*
X175272000Y-91884999D01*
G75*
G02*
X175521999Y-91635000I249999J0D01*
G01*
X176147001Y-91635000D01*
G75*
G02*
X176397000Y-91884999I0J-249999D01*
G01*
G37*
G04 #@! TD*
G04 #@! TO.C,R14*
G36*
G01*
X173472000Y-89544999D02*
X173472000Y-90795001D01*
G75*
G02*
X173222001Y-91045000I-249999J0D01*
G01*
X172596999Y-91045000D01*
G75*
G02*
X172347000Y-90795001I0J249999D01*
G01*
X172347000Y-89544999D01*
G75*
G02*
X172596999Y-89295000I249999J0D01*
G01*
X173222001Y-89295000D01*
G75*
G02*
X173472000Y-89544999I0J-249999D01*
G01*
G37*
G36*
G01*
X176397000Y-89544999D02*
X176397000Y-90795001D01*
G75*
G02*
X176147001Y-91045000I-249999J0D01*
G01*
X175521999Y-91045000D01*
G75*
G02*
X175272000Y-90795001I0J249999D01*
G01*
X175272000Y-89544999D01*
G75*
G02*
X175521999Y-89295000I249999J0D01*
G01*
X176147001Y-89295000D01*
G75*
G02*
X176397000Y-89544999I0J-249999D01*
G01*
G37*
G04 #@! TD*
G04 #@! TO.C,R10*
G36*
G01*
X182940000Y-104284999D02*
X182940000Y-105535001D01*
G75*
G02*
X182690001Y-105785000I-249999J0D01*
G01*
X182064999Y-105785000D01*
G75*
G02*
X181815000Y-105535001I0J249999D01*
G01*
X181815000Y-104284999D01*
G75*
G02*
X182064999Y-104035000I249999J0D01*
G01*
X182690001Y-104035000D01*
G75*
G02*
X182940000Y-104284999I0J-249999D01*
G01*
G37*
G36*
G01*
X185865000Y-104284999D02*
X185865000Y-105535001D01*
G75*
G02*
X185615001Y-105785000I-249999J0D01*
G01*
X184989999Y-105785000D01*
G75*
G02*
X184740000Y-105535001I0J249999D01*
G01*
X184740000Y-104284999D01*
G75*
G02*
X184989999Y-104035000I249999J0D01*
G01*
X185615001Y-104035000D01*
G75*
G02*
X185865000Y-104284999I0J-249999D01*
G01*
G37*
G04 #@! TD*
G04 #@! TO.C,R9*
G36*
G01*
X182940000Y-100204999D02*
X182940000Y-101455001D01*
G75*
G02*
X182690001Y-101705000I-249999J0D01*
G01*
X182064999Y-101705000D01*
G75*
G02*
X181815000Y-101455001I0J249999D01*
G01*
X181815000Y-100204999D01*
G75*
G02*
X182064999Y-99955000I249999J0D01*
G01*
X182690001Y-99955000D01*
G75*
G02*
X182940000Y-100204999I0J-249999D01*
G01*
G37*
G36*
G01*
X185865000Y-100204999D02*
X185865000Y-101455001D01*
G75*
G02*
X185615001Y-101705000I-249999J0D01*
G01*
X184989999Y-101705000D01*
G75*
G02*
X184740000Y-101455001I0J249999D01*
G01*
X184740000Y-100204999D01*
G75*
G02*
X184989999Y-99955000I249999J0D01*
G01*
X185615001Y-99955000D01*
G75*
G02*
X185865000Y-100204999I0J-249999D01*
G01*
G37*
G04 #@! TD*
G04 #@! TO.C,R8*
G36*
G01*
X182862000Y-81154999D02*
X182862000Y-82405001D01*
G75*
G02*
X182612001Y-82655000I-249999J0D01*
G01*
X181986999Y-82655000D01*
G75*
G02*
X181737000Y-82405001I0J249999D01*
G01*
X181737000Y-81154999D01*
G75*
G02*
X181986999Y-80905000I249999J0D01*
G01*
X182612001Y-80905000D01*
G75*
G02*
X182862000Y-81154999I0J-249999D01*
G01*
G37*
G36*
G01*
X185787000Y-81154999D02*
X185787000Y-82405001D01*
G75*
G02*
X185537001Y-82655000I-249999J0D01*
G01*
X184911999Y-82655000D01*
G75*
G02*
X184662000Y-82405001I0J249999D01*
G01*
X184662000Y-81154999D01*
G75*
G02*
X184911999Y-80905000I249999J0D01*
G01*
X185537001Y-80905000D01*
G75*
G02*
X185787000Y-81154999I0J-249999D01*
G01*
G37*
G04 #@! TD*
G04 #@! TO.C,R7*
G36*
G01*
X182862000Y-76844999D02*
X182862000Y-78095001D01*
G75*
G02*
X182612001Y-78345000I-249999J0D01*
G01*
X181986999Y-78345000D01*
G75*
G02*
X181737000Y-78095001I0J249999D01*
G01*
X181737000Y-76844999D01*
G75*
G02*
X181986999Y-76595000I249999J0D01*
G01*
X182612001Y-76595000D01*
G75*
G02*
X182862000Y-76844999I0J-249999D01*
G01*
G37*
G36*
G01*
X185787000Y-76844999D02*
X185787000Y-78095001D01*
G75*
G02*
X185537001Y-78345000I-249999J0D01*
G01*
X184911999Y-78345000D01*
G75*
G02*
X184662000Y-78095001I0J249999D01*
G01*
X184662000Y-76844999D01*
G75*
G02*
X184911999Y-76595000I249999J0D01*
G01*
X185537001Y-76595000D01*
G75*
G02*
X185787000Y-76844999I0J-249999D01*
G01*
G37*
G04 #@! TD*
G04 #@! TO.C,R26*
G36*
G01*
X145490000Y-99035000D02*
X145490000Y-98485000D01*
G75*
G02*
X145690000Y-98285000I200000J0D01*
G01*
X146090000Y-98285000D01*
G75*
G02*
X146290000Y-98485000I0J-200000D01*
G01*
X146290000Y-99035000D01*
G75*
G02*
X146090000Y-99235000I-200000J0D01*
G01*
X145690000Y-99235000D01*
G75*
G02*
X145490000Y-99035000I0J200000D01*
G01*
G37*
G36*
G01*
X143840000Y-99035000D02*
X143840000Y-98485000D01*
G75*
G02*
X144040000Y-98285000I200000J0D01*
G01*
X144440000Y-98285000D01*
G75*
G02*
X144640000Y-98485000I0J-200000D01*
G01*
X144640000Y-99035000D01*
G75*
G02*
X144440000Y-99235000I-200000J0D01*
G01*
X144040000Y-99235000D01*
G75*
G02*
X143840000Y-99035000I0J200000D01*
G01*
G37*
G04 #@! TD*
G04 #@! TO.C,R25*
G36*
G01*
X152929000Y-78696000D02*
X152379000Y-78696000D01*
G75*
G02*
X152179000Y-78496000I0J200000D01*
G01*
X152179000Y-78096000D01*
G75*
G02*
X152379000Y-77896000I200000J0D01*
G01*
X152929000Y-77896000D01*
G75*
G02*
X153129000Y-78096000I0J-200000D01*
G01*
X153129000Y-78496000D01*
G75*
G02*
X152929000Y-78696000I-200000J0D01*
G01*
G37*
G36*
G01*
X152929000Y-80346000D02*
X152379000Y-80346000D01*
G75*
G02*
X152179000Y-80146000I0J200000D01*
G01*
X152179000Y-79746000D01*
G75*
G02*
X152379000Y-79546000I200000J0D01*
G01*
X152929000Y-79546000D01*
G75*
G02*
X153129000Y-79746000I0J-200000D01*
G01*
X153129000Y-80146000D01*
G75*
G02*
X152929000Y-80346000I-200000J0D01*
G01*
G37*
G04 #@! TD*
G04 #@! TO.C,C20*
G36*
G01*
X144272000Y-84376000D02*
X143772000Y-84376000D01*
G75*
G02*
X143547000Y-84151000I0J225000D01*
G01*
X143547000Y-83701000D01*
G75*
G02*
X143772000Y-83476000I225000J0D01*
G01*
X144272000Y-83476000D01*
G75*
G02*
X144497000Y-83701000I0J-225000D01*
G01*
X144497000Y-84151000D01*
G75*
G02*
X144272000Y-84376000I-225000J0D01*
G01*
G37*
G36*
G01*
X144272000Y-85926000D02*
X143772000Y-85926000D01*
G75*
G02*
X143547000Y-85701000I0J225000D01*
G01*
X143547000Y-85251000D01*
G75*
G02*
X143772000Y-85026000I225000J0D01*
G01*
X144272000Y-85026000D01*
G75*
G02*
X144497000Y-85251000I0J-225000D01*
G01*
X144497000Y-85701000D01*
G75*
G02*
X144272000Y-85926000I-225000J0D01*
G01*
G37*
G04 #@! TD*
G04 #@! TO.C,C19*
G36*
G01*
X153891000Y-82608000D02*
X152941000Y-82608000D01*
G75*
G02*
X152691000Y-82358000I0J250000D01*
G01*
X152691000Y-81858000D01*
G75*
G02*
X152941000Y-81608000I250000J0D01*
G01*
X153891000Y-81608000D01*
G75*
G02*
X154141000Y-81858000I0J-250000D01*
G01*
X154141000Y-82358000D01*
G75*
G02*
X153891000Y-82608000I-250000J0D01*
G01*
G37*
G36*
G01*
X153891000Y-84508000D02*
X152941000Y-84508000D01*
G75*
G02*
X152691000Y-84258000I0J250000D01*
G01*
X152691000Y-83758000D01*
G75*
G02*
X152941000Y-83508000I250000J0D01*
G01*
X153891000Y-83508000D01*
G75*
G02*
X154141000Y-83758000I0J-250000D01*
G01*
X154141000Y-84258000D01*
G75*
G02*
X153891000Y-84508000I-250000J0D01*
G01*
G37*
G04 #@! TD*
G04 #@! TO.C,C18*
G36*
G01*
X148582000Y-99093000D02*
X148582000Y-100043000D01*
G75*
G02*
X148332000Y-100293000I-250000J0D01*
G01*
X147832000Y-100293000D01*
G75*
G02*
X147582000Y-100043000I0J250000D01*
G01*
X147582000Y-99093000D01*
G75*
G02*
X147832000Y-98843000I250000J0D01*
G01*
X148332000Y-98843000D01*
G75*
G02*
X148582000Y-99093000I0J-250000D01*
G01*
G37*
G36*
G01*
X150482000Y-99093000D02*
X150482000Y-100043000D01*
G75*
G02*
X150232000Y-100293000I-250000J0D01*
G01*
X149732000Y-100293000D01*
G75*
G02*
X149482000Y-100043000I0J250000D01*
G01*
X149482000Y-99093000D01*
G75*
G02*
X149732000Y-98843000I250000J0D01*
G01*
X150232000Y-98843000D01*
G75*
G02*
X150482000Y-99093000I0J-250000D01*
G01*
G37*
G04 #@! TD*
G04 #@! TO.C,C13*
G36*
G01*
X154907000Y-78483000D02*
X153957000Y-78483000D01*
G75*
G02*
X153707000Y-78233000I0J250000D01*
G01*
X153707000Y-77733000D01*
G75*
G02*
X153957000Y-77483000I250000J0D01*
G01*
X154907000Y-77483000D01*
G75*
G02*
X155157000Y-77733000I0J-250000D01*
G01*
X155157000Y-78233000D01*
G75*
G02*
X154907000Y-78483000I-250000J0D01*
G01*
G37*
G36*
G01*
X154907000Y-80383000D02*
X153957000Y-80383000D01*
G75*
G02*
X153707000Y-80133000I0J250000D01*
G01*
X153707000Y-79633000D01*
G75*
G02*
X153957000Y-79383000I250000J0D01*
G01*
X154907000Y-79383000D01*
G75*
G02*
X155157000Y-79633000I0J-250000D01*
G01*
X155157000Y-80133000D01*
G75*
G02*
X154907000Y-80383000I-250000J0D01*
G01*
G37*
G04 #@! TD*
D17*
G04 #@! TO.C,C16*
X152330000Y-68660000D03*
X152330000Y-73660000D03*
G04 #@! TD*
G04 #@! TO.C,C15*
X162918000Y-68660000D03*
X162918000Y-73660000D03*
G04 #@! TD*
G04 #@! TO.C,R24*
G36*
G01*
X148475000Y-98065000D02*
X148475000Y-97515000D01*
G75*
G02*
X148675000Y-97315000I200000J0D01*
G01*
X149075000Y-97315000D01*
G75*
G02*
X149275000Y-97515000I0J-200000D01*
G01*
X149275000Y-98065000D01*
G75*
G02*
X149075000Y-98265000I-200000J0D01*
G01*
X148675000Y-98265000D01*
G75*
G02*
X148475000Y-98065000I0J200000D01*
G01*
G37*
G36*
G01*
X146825000Y-98065000D02*
X146825000Y-97515000D01*
G75*
G02*
X147025000Y-97315000I200000J0D01*
G01*
X147425000Y-97315000D01*
G75*
G02*
X147625000Y-97515000I0J-200000D01*
G01*
X147625000Y-98065000D01*
G75*
G02*
X147425000Y-98265000I-200000J0D01*
G01*
X147025000Y-98265000D01*
G75*
G02*
X146825000Y-98065000I0J200000D01*
G01*
G37*
G04 #@! TD*
G04 #@! TO.C,R23*
G36*
G01*
X145522000Y-100351000D02*
X145522000Y-99801000D01*
G75*
G02*
X145722000Y-99601000I200000J0D01*
G01*
X146122000Y-99601000D01*
G75*
G02*
X146322000Y-99801000I0J-200000D01*
G01*
X146322000Y-100351000D01*
G75*
G02*
X146122000Y-100551000I-200000J0D01*
G01*
X145722000Y-100551000D01*
G75*
G02*
X145522000Y-100351000I0J200000D01*
G01*
G37*
G36*
G01*
X143872000Y-100351000D02*
X143872000Y-99801000D01*
G75*
G02*
X144072000Y-99601000I200000J0D01*
G01*
X144472000Y-99601000D01*
G75*
G02*
X144672000Y-99801000I0J-200000D01*
G01*
X144672000Y-100351000D01*
G75*
G02*
X144472000Y-100551000I-200000J0D01*
G01*
X144072000Y-100551000D01*
G75*
G02*
X143872000Y-100351000I0J200000D01*
G01*
G37*
G04 #@! TD*
G04 #@! TO.C,R22*
G36*
G01*
X142157000Y-84095000D02*
X142157000Y-83545000D01*
G75*
G02*
X142357000Y-83345000I200000J0D01*
G01*
X142757000Y-83345000D01*
G75*
G02*
X142957000Y-83545000I0J-200000D01*
G01*
X142957000Y-84095000D01*
G75*
G02*
X142757000Y-84295000I-200000J0D01*
G01*
X142357000Y-84295000D01*
G75*
G02*
X142157000Y-84095000I0J200000D01*
G01*
G37*
G36*
G01*
X140507000Y-84095000D02*
X140507000Y-83545000D01*
G75*
G02*
X140707000Y-83345000I200000J0D01*
G01*
X141107000Y-83345000D01*
G75*
G02*
X141307000Y-83545000I0J-200000D01*
G01*
X141307000Y-84095000D01*
G75*
G02*
X141107000Y-84295000I-200000J0D01*
G01*
X140707000Y-84295000D01*
G75*
G02*
X140507000Y-84095000I0J200000D01*
G01*
G37*
G04 #@! TD*
G04 #@! TO.C,R21*
G36*
G01*
X141307000Y-85069000D02*
X141307000Y-85619000D01*
G75*
G02*
X141107000Y-85819000I-200000J0D01*
G01*
X140707000Y-85819000D01*
G75*
G02*
X140507000Y-85619000I0J200000D01*
G01*
X140507000Y-85069000D01*
G75*
G02*
X140707000Y-84869000I200000J0D01*
G01*
X141107000Y-84869000D01*
G75*
G02*
X141307000Y-85069000I0J-200000D01*
G01*
G37*
G36*
G01*
X142957000Y-85069000D02*
X142957000Y-85619000D01*
G75*
G02*
X142757000Y-85819000I-200000J0D01*
G01*
X142357000Y-85819000D01*
G75*
G02*
X142157000Y-85619000I0J200000D01*
G01*
X142157000Y-85069000D01*
G75*
G02*
X142357000Y-84869000I200000J0D01*
G01*
X142757000Y-84869000D01*
G75*
G02*
X142957000Y-85069000I0J-200000D01*
G01*
G37*
G04 #@! TD*
G04 #@! TO.C,R20*
G36*
G01*
X158730000Y-77110000D02*
X158730000Y-76560000D01*
G75*
G02*
X158930000Y-76360000I200000J0D01*
G01*
X159330000Y-76360000D01*
G75*
G02*
X159530000Y-76560000I0J-200000D01*
G01*
X159530000Y-77110000D01*
G75*
G02*
X159330000Y-77310000I-200000J0D01*
G01*
X158930000Y-77310000D01*
G75*
G02*
X158730000Y-77110000I0J200000D01*
G01*
G37*
G36*
G01*
X157080000Y-77110000D02*
X157080000Y-76560000D01*
G75*
G02*
X157280000Y-76360000I200000J0D01*
G01*
X157680000Y-76360000D01*
G75*
G02*
X157880000Y-76560000I0J-200000D01*
G01*
X157880000Y-77110000D01*
G75*
G02*
X157680000Y-77310000I-200000J0D01*
G01*
X157280000Y-77310000D01*
G75*
G02*
X157080000Y-77110000I0J200000D01*
G01*
G37*
G04 #@! TD*
G04 #@! TO.C,R19*
G36*
G01*
X158730000Y-78761000D02*
X158730000Y-78211000D01*
G75*
G02*
X158930000Y-78011000I200000J0D01*
G01*
X159330000Y-78011000D01*
G75*
G02*
X159530000Y-78211000I0J-200000D01*
G01*
X159530000Y-78761000D01*
G75*
G02*
X159330000Y-78961000I-200000J0D01*
G01*
X158930000Y-78961000D01*
G75*
G02*
X158730000Y-78761000I0J200000D01*
G01*
G37*
G36*
G01*
X157080000Y-78761000D02*
X157080000Y-78211000D01*
G75*
G02*
X157280000Y-78011000I200000J0D01*
G01*
X157680000Y-78011000D01*
G75*
G02*
X157880000Y-78211000I0J-200000D01*
G01*
X157880000Y-78761000D01*
G75*
G02*
X157680000Y-78961000I-200000J0D01*
G01*
X157280000Y-78961000D01*
G75*
G02*
X157080000Y-78761000I0J200000D01*
G01*
G37*
G04 #@! TD*
G04 #@! TO.C,R18*
G36*
G01*
X151405000Y-77526000D02*
X150855000Y-77526000D01*
G75*
G02*
X150655000Y-77326000I0J200000D01*
G01*
X150655000Y-76926000D01*
G75*
G02*
X150855000Y-76726000I200000J0D01*
G01*
X151405000Y-76726000D01*
G75*
G02*
X151605000Y-76926000I0J-200000D01*
G01*
X151605000Y-77326000D01*
G75*
G02*
X151405000Y-77526000I-200000J0D01*
G01*
G37*
G36*
G01*
X151405000Y-79176000D02*
X150855000Y-79176000D01*
G75*
G02*
X150655000Y-78976000I0J200000D01*
G01*
X150655000Y-78576000D01*
G75*
G02*
X150855000Y-78376000I200000J0D01*
G01*
X151405000Y-78376000D01*
G75*
G02*
X151605000Y-78576000I0J-200000D01*
G01*
X151605000Y-78976000D01*
G75*
G02*
X151405000Y-79176000I-200000J0D01*
G01*
G37*
G04 #@! TD*
G04 #@! TO.C,R17*
G36*
G01*
X149881000Y-77462000D02*
X149331000Y-77462000D01*
G75*
G02*
X149131000Y-77262000I0J200000D01*
G01*
X149131000Y-76862000D01*
G75*
G02*
X149331000Y-76662000I200000J0D01*
G01*
X149881000Y-76662000D01*
G75*
G02*
X150081000Y-76862000I0J-200000D01*
G01*
X150081000Y-77262000D01*
G75*
G02*
X149881000Y-77462000I-200000J0D01*
G01*
G37*
G36*
G01*
X149881000Y-79112000D02*
X149331000Y-79112000D01*
G75*
G02*
X149131000Y-78912000I0J200000D01*
G01*
X149131000Y-78512000D01*
G75*
G02*
X149331000Y-78312000I200000J0D01*
G01*
X149881000Y-78312000D01*
G75*
G02*
X150081000Y-78512000I0J-200000D01*
G01*
X150081000Y-78912000D01*
G75*
G02*
X149881000Y-79112000I-200000J0D01*
G01*
G37*
G04 #@! TD*
G04 #@! TO.C,R16*
G36*
G01*
X151151000Y-80537000D02*
X150601000Y-80537000D01*
G75*
G02*
X150401000Y-80337000I0J200000D01*
G01*
X150401000Y-79937000D01*
G75*
G02*
X150601000Y-79737000I200000J0D01*
G01*
X151151000Y-79737000D01*
G75*
G02*
X151351000Y-79937000I0J-200000D01*
G01*
X151351000Y-80337000D01*
G75*
G02*
X151151000Y-80537000I-200000J0D01*
G01*
G37*
G36*
G01*
X151151000Y-82187000D02*
X150601000Y-82187000D01*
G75*
G02*
X150401000Y-81987000I0J200000D01*
G01*
X150401000Y-81587000D01*
G75*
G02*
X150601000Y-81387000I200000J0D01*
G01*
X151151000Y-81387000D01*
G75*
G02*
X151351000Y-81587000I0J-200000D01*
G01*
X151351000Y-81987000D01*
G75*
G02*
X151151000Y-82187000I-200000J0D01*
G01*
G37*
G04 #@! TD*
G04 #@! TO.C,R13*
G36*
G01*
X159785000Y-94594000D02*
X159785000Y-95144000D01*
G75*
G02*
X159585000Y-95344000I-200000J0D01*
G01*
X159185000Y-95344000D01*
G75*
G02*
X158985000Y-95144000I0J200000D01*
G01*
X158985000Y-94594000D01*
G75*
G02*
X159185000Y-94394000I200000J0D01*
G01*
X159585000Y-94394000D01*
G75*
G02*
X159785000Y-94594000I0J-200000D01*
G01*
G37*
G36*
G01*
X161435000Y-94594000D02*
X161435000Y-95144000D01*
G75*
G02*
X161235000Y-95344000I-200000J0D01*
G01*
X160835000Y-95344000D01*
G75*
G02*
X160635000Y-95144000I0J200000D01*
G01*
X160635000Y-94594000D01*
G75*
G02*
X160835000Y-94394000I200000J0D01*
G01*
X161235000Y-94394000D01*
G75*
G02*
X161435000Y-94594000I0J-200000D01*
G01*
G37*
G04 #@! TD*
G04 #@! TO.C,R12*
G36*
G01*
X159785000Y-96118000D02*
X159785000Y-96668000D01*
G75*
G02*
X159585000Y-96868000I-200000J0D01*
G01*
X159185000Y-96868000D01*
G75*
G02*
X158985000Y-96668000I0J200000D01*
G01*
X158985000Y-96118000D01*
G75*
G02*
X159185000Y-95918000I200000J0D01*
G01*
X159585000Y-95918000D01*
G75*
G02*
X159785000Y-96118000I0J-200000D01*
G01*
G37*
G36*
G01*
X161435000Y-96118000D02*
X161435000Y-96668000D01*
G75*
G02*
X161235000Y-96868000I-200000J0D01*
G01*
X160835000Y-96868000D01*
G75*
G02*
X160635000Y-96668000I0J200000D01*
G01*
X160635000Y-96118000D01*
G75*
G02*
X160835000Y-95918000I200000J0D01*
G01*
X161235000Y-95918000D01*
G75*
G02*
X161435000Y-96118000I0J-200000D01*
G01*
G37*
G04 #@! TD*
G04 #@! TO.C,R11*
G36*
G01*
X161960000Y-81705000D02*
X161960000Y-82255000D01*
G75*
G02*
X161760000Y-82455000I-200000J0D01*
G01*
X161360000Y-82455000D01*
G75*
G02*
X161160000Y-82255000I0J200000D01*
G01*
X161160000Y-81705000D01*
G75*
G02*
X161360000Y-81505000I200000J0D01*
G01*
X161760000Y-81505000D01*
G75*
G02*
X161960000Y-81705000I0J-200000D01*
G01*
G37*
G36*
G01*
X163610000Y-81705000D02*
X163610000Y-82255000D01*
G75*
G02*
X163410000Y-82455000I-200000J0D01*
G01*
X163010000Y-82455000D01*
G75*
G02*
X162810000Y-82255000I0J200000D01*
G01*
X162810000Y-81705000D01*
G75*
G02*
X163010000Y-81505000I200000J0D01*
G01*
X163410000Y-81505000D01*
G75*
G02*
X163610000Y-81705000I0J-200000D01*
G01*
G37*
G04 #@! TD*
G04 #@! TO.C,R6*
G36*
G01*
X160340000Y-101575000D02*
X160340000Y-102125000D01*
G75*
G02*
X160140000Y-102325000I-200000J0D01*
G01*
X159740000Y-102325000D01*
G75*
G02*
X159540000Y-102125000I0J200000D01*
G01*
X159540000Y-101575000D01*
G75*
G02*
X159740000Y-101375000I200000J0D01*
G01*
X160140000Y-101375000D01*
G75*
G02*
X160340000Y-101575000I0J-200000D01*
G01*
G37*
G36*
G01*
X161990000Y-101575000D02*
X161990000Y-102125000D01*
G75*
G02*
X161790000Y-102325000I-200000J0D01*
G01*
X161390000Y-102325000D01*
G75*
G02*
X161190000Y-102125000I0J200000D01*
G01*
X161190000Y-101575000D01*
G75*
G02*
X161390000Y-101375000I200000J0D01*
G01*
X161790000Y-101375000D01*
G75*
G02*
X161990000Y-101575000I0J-200000D01*
G01*
G37*
G04 #@! TD*
G04 #@! TO.C,R5*
G36*
G01*
X161690000Y-98555000D02*
X161690000Y-99105000D01*
G75*
G02*
X161490000Y-99305000I-200000J0D01*
G01*
X161090000Y-99305000D01*
G75*
G02*
X160890000Y-99105000I0J200000D01*
G01*
X160890000Y-98555000D01*
G75*
G02*
X161090000Y-98355000I200000J0D01*
G01*
X161490000Y-98355000D01*
G75*
G02*
X161690000Y-98555000I0J-200000D01*
G01*
G37*
G36*
G01*
X163340000Y-98555000D02*
X163340000Y-99105000D01*
G75*
G02*
X163140000Y-99305000I-200000J0D01*
G01*
X162740000Y-99305000D01*
G75*
G02*
X162540000Y-99105000I0J200000D01*
G01*
X162540000Y-98555000D01*
G75*
G02*
X162740000Y-98355000I200000J0D01*
G01*
X163140000Y-98355000D01*
G75*
G02*
X163340000Y-98555000I0J-200000D01*
G01*
G37*
G04 #@! TD*
G04 #@! TO.C,R4*
G36*
G01*
X177765000Y-92905000D02*
X177765000Y-93455000D01*
G75*
G02*
X177565000Y-93655000I-200000J0D01*
G01*
X177165000Y-93655000D01*
G75*
G02*
X176965000Y-93455000I0J200000D01*
G01*
X176965000Y-92905000D01*
G75*
G02*
X177165000Y-92705000I200000J0D01*
G01*
X177565000Y-92705000D01*
G75*
G02*
X177765000Y-92905000I0J-200000D01*
G01*
G37*
G36*
G01*
X179415000Y-92905000D02*
X179415000Y-93455000D01*
G75*
G02*
X179215000Y-93655000I-200000J0D01*
G01*
X178815000Y-93655000D01*
G75*
G02*
X178615000Y-93455000I0J200000D01*
G01*
X178615000Y-92905000D01*
G75*
G02*
X178815000Y-92705000I200000J0D01*
G01*
X179215000Y-92705000D01*
G75*
G02*
X179415000Y-92905000I0J-200000D01*
G01*
G37*
G04 #@! TD*
G04 #@! TO.C,R3*
G36*
G01*
X161960000Y-80235000D02*
X161960000Y-80785000D01*
G75*
G02*
X161760000Y-80985000I-200000J0D01*
G01*
X161360000Y-80985000D01*
G75*
G02*
X161160000Y-80785000I0J200000D01*
G01*
X161160000Y-80235000D01*
G75*
G02*
X161360000Y-80035000I200000J0D01*
G01*
X161760000Y-80035000D01*
G75*
G02*
X161960000Y-80235000I0J-200000D01*
G01*
G37*
G36*
G01*
X163610000Y-80235000D02*
X163610000Y-80785000D01*
G75*
G02*
X163410000Y-80985000I-200000J0D01*
G01*
X163010000Y-80985000D01*
G75*
G02*
X162810000Y-80785000I0J200000D01*
G01*
X162810000Y-80235000D01*
G75*
G02*
X163010000Y-80035000I200000J0D01*
G01*
X163410000Y-80035000D01*
G75*
G02*
X163610000Y-80235000I0J-200000D01*
G01*
G37*
G04 #@! TD*
G04 #@! TO.C,R2*
G36*
G01*
X161960000Y-78765000D02*
X161960000Y-79315000D01*
G75*
G02*
X161760000Y-79515000I-200000J0D01*
G01*
X161360000Y-79515000D01*
G75*
G02*
X161160000Y-79315000I0J200000D01*
G01*
X161160000Y-78765000D01*
G75*
G02*
X161360000Y-78565000I200000J0D01*
G01*
X161760000Y-78565000D01*
G75*
G02*
X161960000Y-78765000I0J-200000D01*
G01*
G37*
G36*
G01*
X163610000Y-78765000D02*
X163610000Y-79315000D01*
G75*
G02*
X163410000Y-79515000I-200000J0D01*
G01*
X163010000Y-79515000D01*
G75*
G02*
X162810000Y-79315000I0J200000D01*
G01*
X162810000Y-78765000D01*
G75*
G02*
X163010000Y-78565000I200000J0D01*
G01*
X163410000Y-78565000D01*
G75*
G02*
X163610000Y-78765000I0J-200000D01*
G01*
G37*
G04 #@! TD*
G04 #@! TO.C,R1*
G36*
G01*
X161944000Y-77195000D02*
X161944000Y-77745000D01*
G75*
G02*
X161744000Y-77945000I-200000J0D01*
G01*
X161344000Y-77945000D01*
G75*
G02*
X161144000Y-77745000I0J200000D01*
G01*
X161144000Y-77195000D01*
G75*
G02*
X161344000Y-76995000I200000J0D01*
G01*
X161744000Y-76995000D01*
G75*
G02*
X161944000Y-77195000I0J-200000D01*
G01*
G37*
G36*
G01*
X163594000Y-77195000D02*
X163594000Y-77745000D01*
G75*
G02*
X163394000Y-77945000I-200000J0D01*
G01*
X162994000Y-77945000D01*
G75*
G02*
X162794000Y-77745000I0J200000D01*
G01*
X162794000Y-77195000D01*
G75*
G02*
X162994000Y-76995000I200000J0D01*
G01*
X163394000Y-76995000D01*
G75*
G02*
X163594000Y-77195000I0J-200000D01*
G01*
G37*
G04 #@! TD*
D18*
G04 #@! TO.C,IC1*
X152090000Y-90940000D03*
D19*
X156268300Y-88190000D03*
X156268300Y-88689999D03*
X156268300Y-89190001D03*
X156268300Y-89690000D03*
X156268300Y-90189999D03*
X156268300Y-90690000D03*
X156268300Y-91190000D03*
X156268300Y-91690001D03*
X156268300Y-92190000D03*
X156268300Y-92689999D03*
X156268300Y-93190001D03*
X156268300Y-93690000D03*
D20*
X154840000Y-95118300D03*
X154340001Y-95118300D03*
X153839999Y-95118300D03*
X153340000Y-95118300D03*
X152840001Y-95118300D03*
X152340000Y-95118300D03*
X151840000Y-95118300D03*
X151339999Y-95118300D03*
X150840000Y-95118300D03*
X150340001Y-95118300D03*
X149839999Y-95118300D03*
X149340000Y-95118300D03*
D19*
X147911700Y-93690000D03*
X147911700Y-93190001D03*
X147911700Y-92689999D03*
X147911700Y-92190000D03*
X147911700Y-91690001D03*
X147911700Y-91190000D03*
X147911700Y-90690000D03*
X147911700Y-90189999D03*
X147911700Y-89690000D03*
X147911700Y-89190001D03*
X147911700Y-88689999D03*
X147911700Y-88190000D03*
D20*
X149340000Y-86761700D03*
X149839999Y-86761700D03*
X150340001Y-86761700D03*
X150840000Y-86761700D03*
X151339999Y-86761700D03*
X151840000Y-86761700D03*
X152340000Y-86761700D03*
X152840001Y-86761700D03*
X153340000Y-86761700D03*
X153839999Y-86761700D03*
X154340001Y-86761700D03*
X154840000Y-86761700D03*
G04 #@! TD*
G04 #@! TO.C,D2*
G36*
G01*
X146814250Y-67950500D02*
X146301750Y-67950500D01*
G75*
G02*
X146083000Y-67731750I0J218750D01*
G01*
X146083000Y-67294250D01*
G75*
G02*
X146301750Y-67075500I218750J0D01*
G01*
X146814250Y-67075500D01*
G75*
G02*
X147033000Y-67294250I0J-218750D01*
G01*
X147033000Y-67731750D01*
G75*
G02*
X146814250Y-67950500I-218750J0D01*
G01*
G37*
G36*
G01*
X146814250Y-69525500D02*
X146301750Y-69525500D01*
G75*
G02*
X146083000Y-69306750I0J218750D01*
G01*
X146083000Y-68869250D01*
G75*
G02*
X146301750Y-68650500I218750J0D01*
G01*
X146814250Y-68650500D01*
G75*
G02*
X147033000Y-68869250I0J-218750D01*
G01*
X147033000Y-69306750D01*
G75*
G02*
X146814250Y-69525500I-218750J0D01*
G01*
G37*
G04 #@! TD*
G04 #@! TO.C,D1*
G36*
G01*
X145290250Y-67976000D02*
X144777750Y-67976000D01*
G75*
G02*
X144559000Y-67757250I0J218750D01*
G01*
X144559000Y-67319750D01*
G75*
G02*
X144777750Y-67101000I218750J0D01*
G01*
X145290250Y-67101000D01*
G75*
G02*
X145509000Y-67319750I0J-218750D01*
G01*
X145509000Y-67757250D01*
G75*
G02*
X145290250Y-67976000I-218750J0D01*
G01*
G37*
G36*
G01*
X145290250Y-69551000D02*
X144777750Y-69551000D01*
G75*
G02*
X144559000Y-69332250I0J218750D01*
G01*
X144559000Y-68894750D01*
G75*
G02*
X144777750Y-68676000I218750J0D01*
G01*
X145290250Y-68676000D01*
G75*
G02*
X145509000Y-68894750I0J-218750D01*
G01*
X145509000Y-69332250D01*
G75*
G02*
X145290250Y-69551000I-218750J0D01*
G01*
G37*
G04 #@! TD*
G04 #@! TO.C,C17*
G36*
G01*
X147832000Y-78189000D02*
X148332000Y-78189000D01*
G75*
G02*
X148557000Y-78414000I0J-225000D01*
G01*
X148557000Y-78864000D01*
G75*
G02*
X148332000Y-79089000I-225000J0D01*
G01*
X147832000Y-79089000D01*
G75*
G02*
X147607000Y-78864000I0J225000D01*
G01*
X147607000Y-78414000D01*
G75*
G02*
X147832000Y-78189000I225000J0D01*
G01*
G37*
G36*
G01*
X147832000Y-76639000D02*
X148332000Y-76639000D01*
G75*
G02*
X148557000Y-76864000I0J-225000D01*
G01*
X148557000Y-77314000D01*
G75*
G02*
X148332000Y-77539000I-225000J0D01*
G01*
X147832000Y-77539000D01*
G75*
G02*
X147607000Y-77314000I0J225000D01*
G01*
X147607000Y-76864000D01*
G75*
G02*
X147832000Y-76639000I225000J0D01*
G01*
G37*
G04 #@! TD*
G04 #@! TO.C,C14*
G36*
G01*
X185565000Y-79360000D02*
X185565000Y-79860000D01*
G75*
G02*
X185340000Y-80085000I-225000J0D01*
G01*
X184890000Y-80085000D01*
G75*
G02*
X184665000Y-79860000I0J225000D01*
G01*
X184665000Y-79360000D01*
G75*
G02*
X184890000Y-79135000I225000J0D01*
G01*
X185340000Y-79135000D01*
G75*
G02*
X185565000Y-79360000I0J-225000D01*
G01*
G37*
G36*
G01*
X184015000Y-79360000D02*
X184015000Y-79860000D01*
G75*
G02*
X183790000Y-80085000I-225000J0D01*
G01*
X183340000Y-80085000D01*
G75*
G02*
X183115000Y-79860000I0J225000D01*
G01*
X183115000Y-79360000D01*
G75*
G02*
X183340000Y-79135000I225000J0D01*
G01*
X183790000Y-79135000D01*
G75*
G02*
X184015000Y-79360000I0J-225000D01*
G01*
G37*
G04 #@! TD*
G04 #@! TO.C,C12*
G36*
G01*
X177865000Y-89920000D02*
X177865000Y-90420000D01*
G75*
G02*
X177640000Y-90645000I-225000J0D01*
G01*
X177190000Y-90645000D01*
G75*
G02*
X176965000Y-90420000I0J225000D01*
G01*
X176965000Y-89920000D01*
G75*
G02*
X177190000Y-89695000I225000J0D01*
G01*
X177640000Y-89695000D01*
G75*
G02*
X177865000Y-89920000I0J-225000D01*
G01*
G37*
G36*
G01*
X179415000Y-89920000D02*
X179415000Y-90420000D01*
G75*
G02*
X179190000Y-90645000I-225000J0D01*
G01*
X178740000Y-90645000D01*
G75*
G02*
X178515000Y-90420000I0J225000D01*
G01*
X178515000Y-89920000D01*
G75*
G02*
X178740000Y-89695000I225000J0D01*
G01*
X179190000Y-89695000D01*
G75*
G02*
X179415000Y-89920000I0J-225000D01*
G01*
G37*
G04 #@! TD*
G04 #@! TO.C,C11*
G36*
G01*
X184220000Y-102620000D02*
X184220000Y-103120000D01*
G75*
G02*
X183995000Y-103345000I-225000J0D01*
G01*
X183545000Y-103345000D01*
G75*
G02*
X183320000Y-103120000I0J225000D01*
G01*
X183320000Y-102620000D01*
G75*
G02*
X183545000Y-102395000I225000J0D01*
G01*
X183995000Y-102395000D01*
G75*
G02*
X184220000Y-102620000I0J-225000D01*
G01*
G37*
G36*
G01*
X185770000Y-102620000D02*
X185770000Y-103120000D01*
G75*
G02*
X185545000Y-103345000I-225000J0D01*
G01*
X185095000Y-103345000D01*
G75*
G02*
X184870000Y-103120000I0J225000D01*
G01*
X184870000Y-102620000D01*
G75*
G02*
X185095000Y-102395000I225000J0D01*
G01*
X185545000Y-102395000D01*
G75*
G02*
X185770000Y-102620000I0J-225000D01*
G01*
G37*
G04 #@! TD*
G04 #@! TO.C,C10*
G36*
G01*
X145792000Y-84371000D02*
X145292000Y-84371000D01*
G75*
G02*
X145067000Y-84146000I0J225000D01*
G01*
X145067000Y-83696000D01*
G75*
G02*
X145292000Y-83471000I225000J0D01*
G01*
X145792000Y-83471000D01*
G75*
G02*
X146017000Y-83696000I0J-225000D01*
G01*
X146017000Y-84146000D01*
G75*
G02*
X145792000Y-84371000I-225000J0D01*
G01*
G37*
G36*
G01*
X145792000Y-85921000D02*
X145292000Y-85921000D01*
G75*
G02*
X145067000Y-85696000I0J225000D01*
G01*
X145067000Y-85246000D01*
G75*
G02*
X145292000Y-85021000I225000J0D01*
G01*
X145792000Y-85021000D01*
G75*
G02*
X146017000Y-85246000I0J-225000D01*
G01*
X146017000Y-85696000D01*
G75*
G02*
X145792000Y-85921000I-225000J0D01*
G01*
G37*
G04 #@! TD*
G04 #@! TO.C,C6*
G36*
G01*
X163251000Y-97159000D02*
X163251000Y-97659000D01*
G75*
G02*
X163026000Y-97884000I-225000J0D01*
G01*
X162576000Y-97884000D01*
G75*
G02*
X162351000Y-97659000I0J225000D01*
G01*
X162351000Y-97159000D01*
G75*
G02*
X162576000Y-96934000I225000J0D01*
G01*
X163026000Y-96934000D01*
G75*
G02*
X163251000Y-97159000I0J-225000D01*
G01*
G37*
G36*
G01*
X164801000Y-97159000D02*
X164801000Y-97659000D01*
G75*
G02*
X164576000Y-97884000I-225000J0D01*
G01*
X164126000Y-97884000D01*
G75*
G02*
X163901000Y-97659000I0J225000D01*
G01*
X163901000Y-97159000D01*
G75*
G02*
X164126000Y-96934000I225000J0D01*
G01*
X164576000Y-96934000D01*
G75*
G02*
X164801000Y-97159000I0J-225000D01*
G01*
G37*
G04 #@! TD*
G04 #@! TO.C,C5*
G36*
G01*
X159570000Y-100580000D02*
X159570000Y-100080000D01*
G75*
G02*
X159795000Y-99855000I225000J0D01*
G01*
X160245000Y-99855000D01*
G75*
G02*
X160470000Y-100080000I0J-225000D01*
G01*
X160470000Y-100580000D01*
G75*
G02*
X160245000Y-100805000I-225000J0D01*
G01*
X159795000Y-100805000D01*
G75*
G02*
X159570000Y-100580000I0J225000D01*
G01*
G37*
G36*
G01*
X161120000Y-100580000D02*
X161120000Y-100080000D01*
G75*
G02*
X161345000Y-99855000I225000J0D01*
G01*
X161795000Y-99855000D01*
G75*
G02*
X162020000Y-100080000I0J-225000D01*
G01*
X162020000Y-100580000D01*
G75*
G02*
X161795000Y-100805000I-225000J0D01*
G01*
X161345000Y-100805000D01*
G75*
G02*
X161120000Y-100580000I0J225000D01*
G01*
G37*
G04 #@! TD*
G04 #@! TO.C,C4*
G36*
G01*
X155644000Y-81792000D02*
X155644000Y-82292000D01*
G75*
G02*
X155419000Y-82517000I-225000J0D01*
G01*
X154969000Y-82517000D01*
G75*
G02*
X154744000Y-82292000I0J225000D01*
G01*
X154744000Y-81792000D01*
G75*
G02*
X154969000Y-81567000I225000J0D01*
G01*
X155419000Y-81567000D01*
G75*
G02*
X155644000Y-81792000I0J-225000D01*
G01*
G37*
G36*
G01*
X157194000Y-81792000D02*
X157194000Y-82292000D01*
G75*
G02*
X156969000Y-82517000I-225000J0D01*
G01*
X156519000Y-82517000D01*
G75*
G02*
X156294000Y-82292000I0J225000D01*
G01*
X156294000Y-81792000D01*
G75*
G02*
X156519000Y-81567000I225000J0D01*
G01*
X156969000Y-81567000D01*
G75*
G02*
X157194000Y-81792000I0J-225000D01*
G01*
G37*
G04 #@! TD*
G04 #@! TO.C,C3*
G36*
G01*
X156420000Y-98730000D02*
X155920000Y-98730000D01*
G75*
G02*
X155695000Y-98505000I0J225000D01*
G01*
X155695000Y-98055000D01*
G75*
G02*
X155920000Y-97830000I225000J0D01*
G01*
X156420000Y-97830000D01*
G75*
G02*
X156645000Y-98055000I0J-225000D01*
G01*
X156645000Y-98505000D01*
G75*
G02*
X156420000Y-98730000I-225000J0D01*
G01*
G37*
G36*
G01*
X156420000Y-100280000D02*
X155920000Y-100280000D01*
G75*
G02*
X155695000Y-100055000I0J225000D01*
G01*
X155695000Y-99605000D01*
G75*
G02*
X155920000Y-99380000I225000J0D01*
G01*
X156420000Y-99380000D01*
G75*
G02*
X156645000Y-99605000I0J-225000D01*
G01*
X156645000Y-100055000D01*
G75*
G02*
X156420000Y-100280000I-225000J0D01*
G01*
G37*
G04 #@! TD*
G04 #@! TO.C,C2*
G36*
G01*
X154850000Y-98730000D02*
X154350000Y-98730000D01*
G75*
G02*
X154125000Y-98505000I0J225000D01*
G01*
X154125000Y-98055000D01*
G75*
G02*
X154350000Y-97830000I225000J0D01*
G01*
X154850000Y-97830000D01*
G75*
G02*
X155075000Y-98055000I0J-225000D01*
G01*
X155075000Y-98505000D01*
G75*
G02*
X154850000Y-98730000I-225000J0D01*
G01*
G37*
G36*
G01*
X154850000Y-100280000D02*
X154350000Y-100280000D01*
G75*
G02*
X154125000Y-100055000I0J225000D01*
G01*
X154125000Y-99605000D01*
G75*
G02*
X154350000Y-99380000I225000J0D01*
G01*
X154850000Y-99380000D01*
G75*
G02*
X155075000Y-99605000I0J-225000D01*
G01*
X155075000Y-100055000D01*
G75*
G02*
X154850000Y-100280000I-225000J0D01*
G01*
G37*
G04 #@! TD*
G04 #@! TO.C,C1*
G36*
G01*
X152880000Y-98730000D02*
X152380000Y-98730000D01*
G75*
G02*
X152155000Y-98505000I0J225000D01*
G01*
X152155000Y-98055000D01*
G75*
G02*
X152380000Y-97830000I225000J0D01*
G01*
X152880000Y-97830000D01*
G75*
G02*
X153105000Y-98055000I0J-225000D01*
G01*
X153105000Y-98505000D01*
G75*
G02*
X152880000Y-98730000I-225000J0D01*
G01*
G37*
G36*
G01*
X152880000Y-100280000D02*
X152380000Y-100280000D01*
G75*
G02*
X152155000Y-100055000I0J225000D01*
G01*
X152155000Y-99605000D01*
G75*
G02*
X152380000Y-99380000I225000J0D01*
G01*
X152880000Y-99380000D01*
G75*
G02*
X153105000Y-99605000I0J-225000D01*
G01*
X153105000Y-100055000D01*
G75*
G02*
X152880000Y-100280000I-225000J0D01*
G01*
G37*
G04 #@! TD*
D21*
G04 #@! TO.C,J2*
X132715000Y-81883000D03*
G36*
G01*
X132089999Y-79283000D02*
X133340001Y-79283000D01*
G75*
G02*
X133590000Y-79532999I0J-249999D01*
G01*
X133590000Y-80233001D01*
G75*
G02*
X133340001Y-80483000I-249999J0D01*
G01*
X132089999Y-80483000D01*
G75*
G02*
X131840000Y-80233001I0J249999D01*
G01*
X131840000Y-79532999D01*
G75*
G02*
X132089999Y-79283000I249999J0D01*
G01*
G37*
G04 #@! TD*
D16*
G04 #@! TO.C,J6*
X144494000Y-74168000D03*
X142494000Y-74168000D03*
G36*
G01*
X139894000Y-74793001D02*
X139894000Y-73542999D01*
G75*
G02*
X140143999Y-73293000I249999J0D01*
G01*
X140844001Y-73293000D01*
G75*
G02*
X141094000Y-73542999I0J-249999D01*
G01*
X141094000Y-74793001D01*
G75*
G02*
X140844001Y-75043000I-249999J0D01*
G01*
X140143999Y-75043000D01*
G75*
G02*
X139894000Y-74793001I0J249999D01*
G01*
G37*
G04 #@! TD*
G04 #@! TO.C,J4*
G36*
G01*
X132724999Y-94650000D02*
X133975001Y-94650000D01*
G75*
G02*
X134225000Y-94899999I0J-249999D01*
G01*
X134225000Y-95600001D01*
G75*
G02*
X133975001Y-95850000I-249999J0D01*
G01*
X132724999Y-95850000D01*
G75*
G02*
X132475000Y-95600001I0J249999D01*
G01*
X132475000Y-94899999D01*
G75*
G02*
X132724999Y-94650000I249999J0D01*
G01*
G37*
D21*
X133350000Y-97250000D03*
G04 #@! TD*
G04 #@! TO.C,J1*
G36*
G01*
X131280000Y-74735001D02*
X131280000Y-73484999D01*
G75*
G02*
X131529999Y-73235000I249999J0D01*
G01*
X132230001Y-73235000D01*
G75*
G02*
X132480000Y-73484999I0J-249999D01*
G01*
X132480000Y-74735001D01*
G75*
G02*
X132230001Y-74985000I-249999J0D01*
G01*
X131529999Y-74985000D01*
G75*
G02*
X131280000Y-74735001I0J249999D01*
G01*
G37*
D16*
X133880000Y-74110000D03*
X135880000Y-74110000D03*
G04 #@! TD*
G04 #@! TO.C,C8*
G36*
G01*
X169605000Y-99380000D02*
X170555000Y-99380000D01*
G75*
G02*
X170805000Y-99630000I0J-250000D01*
G01*
X170805000Y-100130000D01*
G75*
G02*
X170555000Y-100380000I-250000J0D01*
G01*
X169605000Y-100380000D01*
G75*
G02*
X169355000Y-100130000I0J250000D01*
G01*
X169355000Y-99630000D01*
G75*
G02*
X169605000Y-99380000I250000J0D01*
G01*
G37*
G36*
G01*
X169605000Y-101280000D02*
X170555000Y-101280000D01*
G75*
G02*
X170805000Y-101530000I0J-250000D01*
G01*
X170805000Y-102030000D01*
G75*
G02*
X170555000Y-102280000I-250000J0D01*
G01*
X169605000Y-102280000D01*
G75*
G02*
X169355000Y-102030000I0J250000D01*
G01*
X169355000Y-101530000D01*
G75*
G02*
X169605000Y-101280000I250000J0D01*
G01*
G37*
G04 #@! TD*
G04 #@! TO.C,C22*
G36*
G01*
X167635000Y-101280000D02*
X168585000Y-101280000D01*
G75*
G02*
X168835000Y-101530000I0J-250000D01*
G01*
X168835000Y-102030000D01*
G75*
G02*
X168585000Y-102280000I-250000J0D01*
G01*
X167635000Y-102280000D01*
G75*
G02*
X167385000Y-102030000I0J250000D01*
G01*
X167385000Y-101530000D01*
G75*
G02*
X167635000Y-101280000I250000J0D01*
G01*
G37*
G36*
G01*
X167635000Y-99380000D02*
X168585000Y-99380000D01*
G75*
G02*
X168835000Y-99630000I0J-250000D01*
G01*
X168835000Y-100130000D01*
G75*
G02*
X168585000Y-100380000I-250000J0D01*
G01*
X167635000Y-100380000D01*
G75*
G02*
X167385000Y-100130000I0J250000D01*
G01*
X167385000Y-99630000D01*
G75*
G02*
X167635000Y-99380000I250000J0D01*
G01*
G37*
G04 #@! TD*
G04 #@! TO.C,C24*
G36*
G01*
X165695000Y-99380000D02*
X166645000Y-99380000D01*
G75*
G02*
X166895000Y-99630000I0J-250000D01*
G01*
X166895000Y-100130000D01*
G75*
G02*
X166645000Y-100380000I-250000J0D01*
G01*
X165695000Y-100380000D01*
G75*
G02*
X165445000Y-100130000I0J250000D01*
G01*
X165445000Y-99630000D01*
G75*
G02*
X165695000Y-99380000I250000J0D01*
G01*
G37*
G36*
G01*
X165695000Y-101280000D02*
X166645000Y-101280000D01*
G75*
G02*
X166895000Y-101530000I0J-250000D01*
G01*
X166895000Y-102030000D01*
G75*
G02*
X166645000Y-102280000I-250000J0D01*
G01*
X165695000Y-102280000D01*
G75*
G02*
X165445000Y-102030000I0J250000D01*
G01*
X165445000Y-101530000D01*
G75*
G02*
X165695000Y-101280000I250000J0D01*
G01*
G37*
G04 #@! TD*
G04 #@! TO.C,C25*
G36*
G01*
X160345000Y-91120000D02*
X161295000Y-91120000D01*
G75*
G02*
X161545000Y-91370000I0J-250000D01*
G01*
X161545000Y-91870000D01*
G75*
G02*
X161295000Y-92120000I-250000J0D01*
G01*
X160345000Y-92120000D01*
G75*
G02*
X160095000Y-91870000I0J250000D01*
G01*
X160095000Y-91370000D01*
G75*
G02*
X160345000Y-91120000I250000J0D01*
G01*
G37*
G36*
G01*
X160345000Y-89220000D02*
X161295000Y-89220000D01*
G75*
G02*
X161545000Y-89470000I0J-250000D01*
G01*
X161545000Y-89970000D01*
G75*
G02*
X161295000Y-90220000I-250000J0D01*
G01*
X160345000Y-90220000D01*
G75*
G02*
X160095000Y-89970000I0J250000D01*
G01*
X160095000Y-89470000D01*
G75*
G02*
X160345000Y-89220000I250000J0D01*
G01*
G37*
G04 #@! TD*
G04 #@! TO.C,C26*
G36*
G01*
X158375000Y-89220000D02*
X159325000Y-89220000D01*
G75*
G02*
X159575000Y-89470000I0J-250000D01*
G01*
X159575000Y-89970000D01*
G75*
G02*
X159325000Y-90220000I-250000J0D01*
G01*
X158375000Y-90220000D01*
G75*
G02*
X158125000Y-89970000I0J250000D01*
G01*
X158125000Y-89470000D01*
G75*
G02*
X158375000Y-89220000I250000J0D01*
G01*
G37*
G36*
G01*
X158375000Y-91120000D02*
X159325000Y-91120000D01*
G75*
G02*
X159575000Y-91370000I0J-250000D01*
G01*
X159575000Y-91870000D01*
G75*
G02*
X159325000Y-92120000I-250000J0D01*
G01*
X158375000Y-92120000D01*
G75*
G02*
X158125000Y-91870000I0J250000D01*
G01*
X158125000Y-91370000D01*
G75*
G02*
X158375000Y-91120000I250000J0D01*
G01*
G37*
G04 #@! TD*
G04 #@! TO.C,C7*
G36*
G01*
X169605000Y-80780000D02*
X170555000Y-80780000D01*
G75*
G02*
X170805000Y-81030000I0J-250000D01*
G01*
X170805000Y-81530000D01*
G75*
G02*
X170555000Y-81780000I-250000J0D01*
G01*
X169605000Y-81780000D01*
G75*
G02*
X169355000Y-81530000I0J250000D01*
G01*
X169355000Y-81030000D01*
G75*
G02*
X169605000Y-80780000I250000J0D01*
G01*
G37*
G36*
G01*
X169605000Y-78880000D02*
X170555000Y-78880000D01*
G75*
G02*
X170805000Y-79130000I0J-250000D01*
G01*
X170805000Y-79630000D01*
G75*
G02*
X170555000Y-79880000I-250000J0D01*
G01*
X169605000Y-79880000D01*
G75*
G02*
X169355000Y-79630000I0J250000D01*
G01*
X169355000Y-79130000D01*
G75*
G02*
X169605000Y-78880000I250000J0D01*
G01*
G37*
G04 #@! TD*
G04 #@! TO.C,C9*
G36*
G01*
X162285000Y-89220000D02*
X163235000Y-89220000D01*
G75*
G02*
X163485000Y-89470000I0J-250000D01*
G01*
X163485000Y-89970000D01*
G75*
G02*
X163235000Y-90220000I-250000J0D01*
G01*
X162285000Y-90220000D01*
G75*
G02*
X162035000Y-89970000I0J250000D01*
G01*
X162035000Y-89470000D01*
G75*
G02*
X162285000Y-89220000I250000J0D01*
G01*
G37*
G36*
G01*
X162285000Y-91120000D02*
X163235000Y-91120000D01*
G75*
G02*
X163485000Y-91370000I0J-250000D01*
G01*
X163485000Y-91870000D01*
G75*
G02*
X163235000Y-92120000I-250000J0D01*
G01*
X162285000Y-92120000D01*
G75*
G02*
X162035000Y-91870000I0J250000D01*
G01*
X162035000Y-91370000D01*
G75*
G02*
X162285000Y-91120000I250000J0D01*
G01*
G37*
G04 #@! TD*
G04 #@! TO.C,C21*
G36*
G01*
X167665000Y-78880000D02*
X168615000Y-78880000D01*
G75*
G02*
X168865000Y-79130000I0J-250000D01*
G01*
X168865000Y-79630000D01*
G75*
G02*
X168615000Y-79880000I-250000J0D01*
G01*
X167665000Y-79880000D01*
G75*
G02*
X167415000Y-79630000I0J250000D01*
G01*
X167415000Y-79130000D01*
G75*
G02*
X167665000Y-78880000I250000J0D01*
G01*
G37*
G36*
G01*
X167665000Y-80780000D02*
X168615000Y-80780000D01*
G75*
G02*
X168865000Y-81030000I0J-250000D01*
G01*
X168865000Y-81530000D01*
G75*
G02*
X168615000Y-81780000I-250000J0D01*
G01*
X167665000Y-81780000D01*
G75*
G02*
X167415000Y-81530000I0J250000D01*
G01*
X167415000Y-81030000D01*
G75*
G02*
X167665000Y-80780000I250000J0D01*
G01*
G37*
G04 #@! TD*
G04 #@! TO.C,C23*
G36*
G01*
X165695000Y-80780000D02*
X166645000Y-80780000D01*
G75*
G02*
X166895000Y-81030000I0J-250000D01*
G01*
X166895000Y-81530000D01*
G75*
G02*
X166645000Y-81780000I-250000J0D01*
G01*
X165695000Y-81780000D01*
G75*
G02*
X165445000Y-81530000I0J250000D01*
G01*
X165445000Y-81030000D01*
G75*
G02*
X165695000Y-80780000I250000J0D01*
G01*
G37*
G36*
G01*
X165695000Y-78880000D02*
X166645000Y-78880000D01*
G75*
G02*
X166895000Y-79130000I0J-250000D01*
G01*
X166895000Y-79630000D01*
G75*
G02*
X166645000Y-79880000I-250000J0D01*
G01*
X165695000Y-79880000D01*
G75*
G02*
X165445000Y-79630000I0J250000D01*
G01*
X165445000Y-79130000D01*
G75*
G02*
X165695000Y-78880000I250000J0D01*
G01*
G37*
G04 #@! TD*
D22*
G04 #@! TO.C,H201*
X134389726Y-102084274D03*
X133223000Y-101601000D03*
X132056274Y-102084274D03*
X131573000Y-103251000D03*
X132056274Y-104417726D03*
X133223000Y-104901000D03*
X134389726Y-104417726D03*
X134873000Y-103251000D03*
D23*
X133223000Y-103251000D03*
G04 #@! TD*
G04 #@! TO.C,H202*
X133223000Y-88519000D03*
D22*
X134873000Y-88519000D03*
X134389726Y-89685726D03*
X133223000Y-90169000D03*
X132056274Y-89685726D03*
X131573000Y-88519000D03*
X132056274Y-87352274D03*
X133223000Y-86869000D03*
X134389726Y-87352274D03*
G04 #@! TD*
D12*
G04 #@! TO.C,Q7*
X171217000Y-67945000D03*
X171217000Y-71755000D03*
X171217000Y-69215000D03*
X171217000Y-70485000D03*
D11*
X177042000Y-71755000D03*
X177042000Y-70485000D03*
X177042000Y-69215000D03*
X177042000Y-67945000D03*
D10*
X174767000Y-69850000D03*
G04 #@! TD*
D24*
G04 #@! TO.C,D4*
X169368000Y-73659000D03*
X169368000Y-70359000D03*
G04 #@! TD*
G04 #@! TO.C,R27*
G36*
G01*
X170262000Y-74909000D02*
X170262000Y-75459000D01*
G75*
G02*
X170062000Y-75659000I-200000J0D01*
G01*
X169662000Y-75659000D01*
G75*
G02*
X169462000Y-75459000I0J200000D01*
G01*
X169462000Y-74909000D01*
G75*
G02*
X169662000Y-74709000I200000J0D01*
G01*
X170062000Y-74709000D01*
G75*
G02*
X170262000Y-74909000I0J-200000D01*
G01*
G37*
G36*
G01*
X168612000Y-74909000D02*
X168612000Y-75459000D01*
G75*
G02*
X168412000Y-75659000I-200000J0D01*
G01*
X168012000Y-75659000D01*
G75*
G02*
X167812000Y-75459000I0J200000D01*
G01*
X167812000Y-74909000D01*
G75*
G02*
X168012000Y-74709000I200000J0D01*
G01*
X168412000Y-74709000D01*
G75*
G02*
X168612000Y-74909000I0J-200000D01*
G01*
G37*
G04 #@! TD*
D25*
G04 #@! TO.C,D6*
X176185000Y-74472000D03*
X172185000Y-74472000D03*
G04 #@! TD*
D26*
G04 #@! TO.C,D3*
X138876999Y-78216999D03*
X138876999Y-78866999D03*
X138876999Y-79516999D03*
X140776998Y-79516999D03*
X140776998Y-78866999D03*
X140776998Y-78216999D03*
G04 #@! TD*
G04 #@! TO.C,D5*
X137220998Y-78216999D03*
X137220998Y-78866999D03*
X137220998Y-79516999D03*
X135320999Y-79516999D03*
X135320999Y-78866999D03*
X135320999Y-78216999D03*
G04 #@! TD*
G04 #@! TO.C,D7*
X143575999Y-78851999D03*
X143575999Y-79501999D03*
X143575999Y-80151999D03*
X145475998Y-80151999D03*
X145475998Y-79501999D03*
X145475998Y-78851999D03*
G04 #@! TD*
M02*
