M48
; DRILL file {KiCad 5.1.12-84ad8e8a86~92~ubuntu20.04.1} date Sun Jan 16 20:07:55 2022
; FORMAT={-:-/ absolute / metric / decimal}
; #@! TF.CreationDate,2022-01-16T20:07:55+02:00
; #@! TF.GenerationSoftware,Kicad,Pcbnew,5.1.12-84ad8e8a86~92~ubuntu20.04.1
FMAT,2
METRIC
T1C0.300
T2C0.400
T3C0.750
T4C0.800
T5C1.520
T6C2.200
%
G90
G05
T1
X133.223Y-78.74
X133.477Y-77.47
X133.858Y-78.232
X135.636Y-85.09
X136.652Y-80.264
X137.922Y-81.407
X138.303Y-77.851
X139.065Y-77.216
X139.065Y-82.169
X139.7Y-80.264
X139.827Y-81.407
X140.716Y-80.264
X141.478Y-81.661
X141.605Y-78.232
X142.748Y-79.502
X144.018Y-82.55
X145.415Y-82.55
X145.415Y-87.884
X145.415Y-91.567
X145.45Y-89.77
X146.05Y-92.837
X146.05Y-93.98
X146.177Y-97.79
X146.484Y-91.567
X146.685Y-87.63
X146.939Y-77.724
X147.701Y-67.691
X147.701Y-68.834
X148.076Y-87.001
X148.844Y-79.756
X149.86Y-96.393
X150.2Y-89.0
X150.2Y-90.27
X150.2Y-91.54
X150.2Y-92.81
X150.36Y-97.536
X151.47Y-89.0
X151.47Y-90.27
X151.47Y-91.54
X151.47Y-92.81
X151.765Y-81.28
X152.654Y-77.343
X152.74Y-89.0
X152.74Y-90.27
X152.74Y-91.54
X152.74Y-92.81
X153.162Y-85.047
X153.416Y-81.026
X154.01Y-89.0
X154.01Y-90.27
X154.01Y-91.54
X154.01Y-92.81
X154.686Y-85.471
X154.813Y-84.328
X154.94Y-74.43
X155.47Y-101.1
X155.602Y-97.255
X156.21Y-73.16
X156.337Y-87.249
X156.337Y-94.361
X156.4Y-85.788
X156.44Y-101.1
X156.464Y-76.835
X156.591Y-77.978
X157.48Y-74.43
X157.48Y-90.297
X157.48Y-91.186
X157.48Y-94.234
X157.51Y-99.83
X157.51Y-101.1
X157.68Y-93.164
X157.861Y-82.169
X158.75Y-73.16
X158.877Y-81.661
X159.004Y-101.092
X159.385Y-87.63
X159.512Y-85.09
X159.639Y-93.726
X160.02Y-74.43
X160.02Y-97.79
X160.02Y-99.06
X160.147Y-76.835
X160.274Y-81.915
X160.528Y-79.629
X160.528Y-80.518
X160.655Y-86.106
X160.782Y-92.837
X161.29Y-73.16
X161.29Y-87.63
X161.671Y-97.663
X161.925Y-84.963
X161.925Y-92.837
X162.052Y-96.52
X162.306Y-93.853
X162.458Y-102.718
X162.56Y-86.36
X162.573Y-101.333
X162.941Y-94.869
X163.068Y-93.091
X164.084Y-84.455
X164.084Y-99.822
X164.211Y-78.232
X164.211Y-79.502
X164.211Y-82.423
X164.222Y-81.522
X164.338Y-98.552
X164.592Y-101.854
X164.846Y-71.628
X165.862Y-104.013
X166.116Y-82.55
X166.37Y-98.29
X166.497Y-72.39
X166.497Y-84.455
X166.56Y-91.07
X166.751Y-70.104
X167.132Y-78.105
X167.132Y-104.013
X167.259Y-75.184
X167.386Y-82.55
X167.64Y-97.79
X167.83Y-91.07
X168.275Y-69.088
X168.275Y-104.013
X168.529Y-82.423
X168.656Y-77.47
X168.91Y-98.29
X169.1Y-91.07
X169.164Y-84.455
X169.545Y-68.072
X169.545Y-104.013
X169.926Y-97.536
X170.18Y-77.978
X170.37Y-91.07
X170.815Y-82.804
X170.815Y-104.013
X171.069Y-83.693
X171.069Y-98.298
X171.431Y-105.175
X171.44Y-88.9
X171.44Y-90.17
X171.44Y-91.44
X171.44Y-92.71
X171.45Y-78.74
X171.464Y-86.854
X171.577Y-76.962
X172.72Y-94.615
X173.609Y-85.852
X173.717Y-103.27
X173.99Y-94.58
X174.625Y-92.456
X175.25Y-94.58
X176.52Y-94.58
X177.673Y-94.107
X178.308Y-76.962
X178.308Y-91.313
X179.47Y-97.79
X179.47Y-100.33
X179.47Y-102.87
X179.47Y-105.41
X179.76Y-81.28
X179.76Y-83.82
X179.76Y-86.36
X179.8Y-78.74
X179.959Y-89.027
X180.594Y-90.805
X180.594Y-92.329
X180.93Y-96.52
X180.93Y-99.06
X180.93Y-101.6
X180.93Y-104.14
X181.03Y-77.47
X181.03Y-80.01
X181.03Y-82.55
X181.03Y-85.09
X182.499Y-79.629
X182.753Y-102.87
X182.88Y-90.17
X182.88Y-92.71
X184.023Y-100.838
X186.69Y-77.47
X186.69Y-78.74
X186.69Y-80.01
X186.69Y-81.28
X186.69Y-82.55
X186.69Y-100.33
X186.69Y-101.6
X186.69Y-102.87
X186.69Y-104.14
X186.69Y-105.41
T2
X131.573Y-88.519
X131.573Y-103.251
X132.056Y-87.352
X132.056Y-89.686
X132.056Y-102.084
X132.056Y-104.418
X133.223Y-86.869
X133.223Y-90.169
X133.223Y-101.601
X133.223Y-104.901
X134.39Y-87.352
X134.39Y-89.686
X134.39Y-102.084
X134.39Y-104.418
X134.873Y-88.519
X134.873Y-103.251
T3
X131.88Y-68.58
X131.88Y-74.11
X132.715Y-79.883
X132.715Y-81.883
X133.35Y-95.25
X133.35Y-97.25
X133.88Y-68.58
X133.88Y-74.11
X135.88Y-68.58
X135.88Y-74.11
X137.88Y-68.58
X139.88Y-68.58
X140.494Y-74.168
X141.88Y-68.58
X142.494Y-74.168
X144.494Y-74.168
T4
X152.33Y-68.66
X152.33Y-73.66
X162.918Y-68.66
X162.918Y-73.66
T5
X180.467Y-69.85
X185.42Y-86.36
X185.42Y-91.44
X185.42Y-96.52
X185.547Y-69.85
T6
X133.223Y-88.519
X133.223Y-103.251
T0
M30
