G04 #@! TF.GenerationSoftware,KiCad,Pcbnew,6.0.1-79c1e3a40b~116~ubuntu20.04.1*
G04 #@! TF.CreationDate,2022-01-27T15:15:15+02:00*
G04 #@! TF.ProjectId,opm-inline,6f706d2d-696e-46c6-996e-652e6b696361,rev?*
G04 #@! TF.SameCoordinates,Original*
G04 #@! TF.FileFunction,Soldermask,Top*
G04 #@! TF.FilePolarity,Negative*
%FSLAX46Y46*%
G04 Gerber Fmt 4.6, Leading zero omitted, Abs format (unit mm)*
G04 Created by KiCad (PCBNEW 6.0.1-79c1e3a40b~116~ubuntu20.04.1) date 2022-01-27 15:15:15*
%MOMM*%
%LPD*%
G01*
G04 APERTURE LIST*
G04 Aperture macros list*
%AMRoundRect*
0 Rectangle with rounded corners*
0 $1 Rounding radius*
0 $2 $3 $4 $5 $6 $7 $8 $9 X,Y pos of 4 corners*
0 Add a 4 corners polygon primitive as box body*
4,1,4,$2,$3,$4,$5,$6,$7,$8,$9,$2,$3,0*
0 Add four circle primitives for the rounded corners*
1,1,$1+$1,$2,$3*
1,1,$1+$1,$4,$5*
1,1,$1+$1,$6,$7*
1,1,$1+$1,$8,$9*
0 Add four rect primitives between the rounded corners*
20,1,$1+$1,$2,$3,$4,$5,0*
20,1,$1+$1,$4,$5,$6,$7,0*
20,1,$1+$1,$6,$7,$8,$9,0*
20,1,$1+$1,$8,$9,$2,$3,0*%
G04 Aperture macros list end*
%ADD10RoundRect,0.225000X0.250000X-0.225000X0.250000X0.225000X-0.250000X0.225000X-0.250000X-0.225000X0*%
%ADD11RoundRect,0.225000X0.225000X0.250000X-0.225000X0.250000X-0.225000X-0.250000X0.225000X-0.250000X0*%
%ADD12RoundRect,0.225000X-0.225000X-0.250000X0.225000X-0.250000X0.225000X0.250000X-0.225000X0.250000X0*%
%ADD13RoundRect,0.225000X-0.250000X0.225000X-0.250000X-0.225000X0.250000X-0.225000X0.250000X0.225000X0*%
%ADD14RoundRect,0.218750X0.256250X-0.218750X0.256250X0.218750X-0.256250X0.218750X-0.256250X-0.218750X0*%
%ADD15R,0.279400X1.346200*%
%ADD16R,1.346200X0.279400*%
%ADD17R,5.003800X5.003800*%
%ADD18RoundRect,0.200000X0.200000X0.275000X-0.200000X0.275000X-0.200000X-0.275000X0.200000X-0.275000X0*%
%ADD19RoundRect,0.200000X0.275000X-0.200000X0.275000X0.200000X-0.275000X0.200000X-0.275000X-0.200000X0*%
%ADD20RoundRect,0.200000X-0.200000X-0.275000X0.200000X-0.275000X0.200000X0.275000X-0.200000X0.275000X0*%
%ADD21C,1.600000*%
%ADD22RoundRect,0.250000X0.475000X-0.250000X0.475000X0.250000X-0.475000X0.250000X-0.475000X-0.250000X0*%
%ADD23RoundRect,0.250000X0.250000X0.475000X-0.250000X0.475000X-0.250000X-0.475000X0.250000X-0.475000X0*%
%ADD24RoundRect,0.250000X0.312500X0.625000X-0.312500X0.625000X-0.312500X-0.625000X0.312500X-0.625000X0*%
%ADD25RoundRect,0.250000X-0.625000X0.350000X-0.625000X-0.350000X0.625000X-0.350000X0.625000X0.350000X0*%
%ADD26O,1.750000X1.200000*%
%ADD27RoundRect,0.250000X-0.350000X-0.625000X0.350000X-0.625000X0.350000X0.625000X-0.350000X0.625000X0*%
%ADD28O,1.200000X1.750000*%
%ADD29R,0.850000X0.500000*%
%ADD30R,0.800000X0.600000*%
%ADD31R,3.750000X4.410000*%
%ADD32R,3.000000X3.000000*%
%ADD33C,3.000000*%
%ADD34RoundRect,0.250000X-0.475000X0.250000X-0.475000X-0.250000X0.475000X-0.250000X0.475000X0.250000X0*%
%ADD35C,0.700000*%
%ADD36C,4.400000*%
%ADD37R,1.200000X0.900000*%
%ADD38R,2.500000X1.800000*%
%ADD39R,0.499999X0.399999*%
G04 APERTURE END LIST*
D10*
G04 #@! TO.C,C1*
X152630000Y-99830000D03*
X152630000Y-98280000D03*
G04 #@! TD*
G04 #@! TO.C,C2*
X154600000Y-99830000D03*
X154600000Y-98280000D03*
G04 #@! TD*
G04 #@! TO.C,C3*
X156170000Y-99830000D03*
X156170000Y-98280000D03*
G04 #@! TD*
D11*
G04 #@! TO.C,C4*
X156744000Y-82042000D03*
X155194000Y-82042000D03*
G04 #@! TD*
D12*
G04 #@! TO.C,C5*
X160020000Y-100530000D03*
X161570000Y-100530000D03*
G04 #@! TD*
D11*
G04 #@! TO.C,C6*
X164351000Y-97559000D03*
X162801000Y-97559000D03*
G04 #@! TD*
D10*
G04 #@! TO.C,C10*
X145542000Y-85471000D03*
X145542000Y-83921000D03*
G04 #@! TD*
D11*
G04 #@! TO.C,C11*
X185320000Y-102870000D03*
X183770000Y-102870000D03*
G04 #@! TD*
D12*
G04 #@! TO.C,C12*
X177406000Y-89458000D03*
X178956000Y-89458000D03*
G04 #@! TD*
D11*
G04 #@! TO.C,C14*
X185115000Y-79610000D03*
X183565000Y-79610000D03*
G04 #@! TD*
D13*
G04 #@! TO.C,C17*
X148082000Y-77089000D03*
X148082000Y-78639000D03*
G04 #@! TD*
D14*
G04 #@! TO.C,D2*
X146558000Y-69088000D03*
X146558000Y-67513000D03*
G04 #@! TD*
D15*
G04 #@! TO.C,IC1*
X154840000Y-86761700D03*
X154340001Y-86761700D03*
X153839999Y-86761700D03*
X153340000Y-86761700D03*
X152840001Y-86761700D03*
X152340000Y-86761700D03*
X151840000Y-86761700D03*
X151339999Y-86761700D03*
X150840000Y-86761700D03*
X150340001Y-86761700D03*
X149839999Y-86761700D03*
X149340000Y-86761700D03*
D16*
X147911700Y-88190000D03*
X147911700Y-88689999D03*
X147911700Y-89190001D03*
X147911700Y-89690000D03*
X147911700Y-90189999D03*
X147911700Y-90690000D03*
X147911700Y-91190000D03*
X147911700Y-91690001D03*
X147911700Y-92190000D03*
X147911700Y-92689999D03*
X147911700Y-93190001D03*
X147911700Y-93690000D03*
D15*
X149340000Y-95118300D03*
X149839999Y-95118300D03*
X150340001Y-95118300D03*
X150840000Y-95118300D03*
X151339999Y-95118300D03*
X151840000Y-95118300D03*
X152340000Y-95118300D03*
X152840001Y-95118300D03*
X153340000Y-95118300D03*
X153839999Y-95118300D03*
X154340001Y-95118300D03*
X154840000Y-95118300D03*
D16*
X156268300Y-93690000D03*
X156268300Y-93190001D03*
X156268300Y-92689999D03*
X156268300Y-92190000D03*
X156268300Y-91690001D03*
X156268300Y-91190000D03*
X156268300Y-90690000D03*
X156268300Y-90189999D03*
X156268300Y-89690000D03*
X156268300Y-89190001D03*
X156268300Y-88689999D03*
X156268300Y-88190000D03*
D17*
X152090000Y-90940000D03*
G04 #@! TD*
D18*
G04 #@! TO.C,R1*
X163194000Y-77470000D03*
X161544000Y-77470000D03*
G04 #@! TD*
G04 #@! TO.C,R2*
X163210000Y-79040000D03*
X161560000Y-79040000D03*
G04 #@! TD*
G04 #@! TO.C,R3*
X163210000Y-80510000D03*
X161560000Y-80510000D03*
G04 #@! TD*
G04 #@! TO.C,R4*
X179015000Y-93180000D03*
X177365000Y-93180000D03*
G04 #@! TD*
G04 #@! TO.C,R5*
X162940000Y-99030000D03*
X161290000Y-99030000D03*
G04 #@! TD*
G04 #@! TO.C,R6*
X161590000Y-102050000D03*
X159940000Y-102050000D03*
G04 #@! TD*
G04 #@! TO.C,R11*
X163210000Y-81980000D03*
X161560000Y-81980000D03*
G04 #@! TD*
G04 #@! TO.C,R12*
X161035000Y-96393000D03*
X159385000Y-96393000D03*
G04 #@! TD*
G04 #@! TO.C,R13*
X161035000Y-94869000D03*
X159385000Y-94869000D03*
G04 #@! TD*
D19*
G04 #@! TO.C,R16*
X150876000Y-81787000D03*
X150876000Y-80137000D03*
G04 #@! TD*
G04 #@! TO.C,R18*
X151130000Y-78776000D03*
X151130000Y-77126000D03*
G04 #@! TD*
D20*
G04 #@! TO.C,R20*
X157480000Y-76835000D03*
X159130000Y-76835000D03*
G04 #@! TD*
D18*
G04 #@! TO.C,R21*
X142557000Y-85344000D03*
X140907000Y-85344000D03*
G04 #@! TD*
D20*
G04 #@! TO.C,R22*
X140907000Y-83820000D03*
X142557000Y-83820000D03*
G04 #@! TD*
D21*
G04 #@! TO.C,C15*
X162918000Y-73660000D03*
X162918000Y-68660000D03*
G04 #@! TD*
G04 #@! TO.C,C16*
X152330000Y-73660000D03*
X152330000Y-68660000D03*
G04 #@! TD*
D19*
G04 #@! TO.C,R17*
X149606000Y-78712000D03*
X149606000Y-77062000D03*
G04 #@! TD*
D14*
G04 #@! TO.C,D1*
X145034000Y-69113500D03*
X145034000Y-67538500D03*
G04 #@! TD*
D22*
G04 #@! TO.C,C13*
X154432000Y-79883000D03*
X154432000Y-77983000D03*
G04 #@! TD*
D23*
G04 #@! TO.C,C18*
X149982000Y-99568000D03*
X148082000Y-99568000D03*
G04 #@! TD*
D22*
G04 #@! TO.C,C19*
X153416000Y-84008000D03*
X153416000Y-82108000D03*
G04 #@! TD*
D10*
G04 #@! TO.C,C20*
X144022000Y-85476000D03*
X144022000Y-83926000D03*
G04 #@! TD*
D19*
G04 #@! TO.C,R25*
X152654000Y-79946000D03*
X152654000Y-78296000D03*
G04 #@! TD*
D20*
G04 #@! TO.C,R26*
X144240000Y-98760000D03*
X145890000Y-98760000D03*
G04 #@! TD*
G04 #@! TO.C,R19*
X157480000Y-78486000D03*
X159130000Y-78486000D03*
G04 #@! TD*
D24*
G04 #@! TO.C,R7*
X185224500Y-77470000D03*
X182299500Y-77470000D03*
G04 #@! TD*
G04 #@! TO.C,R8*
X185224500Y-81780000D03*
X182299500Y-81780000D03*
G04 #@! TD*
G04 #@! TO.C,R9*
X185302500Y-100830000D03*
X182377500Y-100830000D03*
G04 #@! TD*
G04 #@! TO.C,R10*
X185302500Y-104910000D03*
X182377500Y-104910000D03*
G04 #@! TD*
G04 #@! TO.C,R14*
X175834500Y-90170000D03*
X172909500Y-90170000D03*
G04 #@! TD*
G04 #@! TO.C,R15*
X175834500Y-92510000D03*
X172909500Y-92510000D03*
G04 #@! TD*
D25*
G04 #@! TO.C,J2*
X132715000Y-79883000D03*
D26*
X132715000Y-81883000D03*
G04 #@! TD*
D27*
G04 #@! TO.C,J6*
X140494000Y-74168000D03*
D28*
X142494000Y-74168000D03*
X144494000Y-74168000D03*
G04 #@! TD*
D27*
G04 #@! TO.C,J3*
X131880000Y-68580000D03*
D28*
X133880000Y-68580000D03*
X135880000Y-68580000D03*
X137880000Y-68580000D03*
X139880000Y-68580000D03*
X141880000Y-68580000D03*
G04 #@! TD*
D29*
G04 #@! TO.C,Q1*
X178350000Y-82015000D03*
X178350000Y-80745000D03*
X178350000Y-79475000D03*
X178350000Y-78205000D03*
D30*
X172525000Y-78205000D03*
D31*
X174800000Y-80110000D03*
D30*
X172525000Y-79475000D03*
X172525000Y-80745000D03*
X172525000Y-82015000D03*
G04 #@! TD*
D29*
G04 #@! TO.C,Q2*
X172550000Y-83955000D03*
X172550000Y-85225000D03*
X172550000Y-86495000D03*
X172550000Y-87765000D03*
D30*
X178375000Y-87765000D03*
D31*
X176100000Y-85860000D03*
D30*
X178375000Y-86495000D03*
X178375000Y-85225000D03*
X178375000Y-83955000D03*
G04 #@! TD*
D29*
G04 #@! TO.C,Q3*
X178350000Y-99325000D03*
X178350000Y-98055000D03*
X178350000Y-96785000D03*
X178350000Y-95515000D03*
D31*
X174800000Y-97420000D03*
D30*
X172525000Y-95515000D03*
X172525000Y-96785000D03*
X172525000Y-98055000D03*
X172525000Y-99325000D03*
G04 #@! TD*
D29*
G04 #@! TO.C,Q4*
X172550000Y-101365000D03*
X172550000Y-102635000D03*
X172550000Y-103905000D03*
X172550000Y-105175000D03*
D31*
X176100000Y-103270000D03*
D30*
X178375000Y-105175000D03*
X178375000Y-103905000D03*
X178375000Y-102635000D03*
X178375000Y-101365000D03*
G04 #@! TD*
D29*
G04 #@! TO.C,Q5*
X170330000Y-89535000D03*
X170330000Y-88265000D03*
X170330000Y-86995000D03*
X170330000Y-85725000D03*
D31*
X166780000Y-87630000D03*
D30*
X164505000Y-85725000D03*
X164505000Y-86995000D03*
X164505000Y-88265000D03*
X164505000Y-89535000D03*
G04 #@! TD*
D32*
G04 #@! TO.C,U2*
X185547000Y-69850000D03*
D33*
X180467000Y-69850000D03*
G04 #@! TD*
D32*
G04 #@! TO.C,U3*
X185420000Y-96520000D03*
D33*
X185420000Y-91440000D03*
X185420000Y-86360000D03*
G04 #@! TD*
D25*
G04 #@! TO.C,J4*
X133350000Y-95250000D03*
D26*
X133350000Y-97250000D03*
G04 #@! TD*
D27*
G04 #@! TO.C,J1*
X131880000Y-74110000D03*
D28*
X133880000Y-74110000D03*
X135880000Y-74110000D03*
G04 #@! TD*
D34*
G04 #@! TO.C,C8*
X170080000Y-99880000D03*
X170080000Y-101780000D03*
G04 #@! TD*
G04 #@! TO.C,C22*
X168110000Y-99880000D03*
X168110000Y-101780000D03*
G04 #@! TD*
G04 #@! TO.C,C24*
X166130000Y-99880000D03*
X166130000Y-101780000D03*
G04 #@! TD*
G04 #@! TO.C,C25*
X160850000Y-89650000D03*
X160850000Y-91550000D03*
G04 #@! TD*
G04 #@! TO.C,C26*
X158850000Y-89650000D03*
X158850000Y-91550000D03*
G04 #@! TD*
G04 #@! TO.C,C7*
X170150000Y-79380000D03*
X170150000Y-81280000D03*
G04 #@! TD*
G04 #@! TO.C,C9*
X162850000Y-89650000D03*
X162850000Y-91550000D03*
G04 #@! TD*
G04 #@! TO.C,C21*
X168140000Y-79380000D03*
X168140000Y-81280000D03*
G04 #@! TD*
G04 #@! TO.C,C23*
X166170000Y-79380000D03*
X166170000Y-81280000D03*
G04 #@! TD*
D29*
G04 #@! TO.C,Q6*
X164540000Y-92075000D03*
X164540000Y-93345000D03*
X164540000Y-94615000D03*
X164540000Y-95885000D03*
D30*
X170365000Y-95885000D03*
D31*
X168090000Y-93980000D03*
D30*
X170365000Y-94615000D03*
X170365000Y-93345000D03*
X170365000Y-92075000D03*
G04 #@! TD*
D35*
G04 #@! TO.C,H201*
X134873000Y-103251000D03*
D36*
X133223000Y-103251000D03*
D35*
X133223000Y-104901000D03*
X134389726Y-102084274D03*
X131573000Y-103251000D03*
X132056274Y-104417726D03*
X132056274Y-102084274D03*
X134389726Y-104417726D03*
X133223000Y-101601000D03*
G04 #@! TD*
G04 #@! TO.C,H202*
X134873000Y-88519000D03*
X134389726Y-89685726D03*
D36*
X133223000Y-88519000D03*
D35*
X133223000Y-90169000D03*
X133223000Y-86869000D03*
X132056274Y-87352274D03*
X132056274Y-89685726D03*
X134389726Y-87352274D03*
X131573000Y-88519000D03*
G04 #@! TD*
D29*
G04 #@! TO.C,Q7*
X171217000Y-67945000D03*
X171217000Y-69215000D03*
X171217000Y-70485000D03*
X171217000Y-71755000D03*
D30*
X177042000Y-71755000D03*
D31*
X174767000Y-69850000D03*
D30*
X177042000Y-70485000D03*
X177042000Y-69215000D03*
X177042000Y-67945000D03*
G04 #@! TD*
D37*
G04 #@! TO.C,D4*
X169368000Y-73659000D03*
X169368000Y-70359000D03*
G04 #@! TD*
D18*
G04 #@! TO.C,R27*
X169862000Y-75184000D03*
X168212000Y-75184000D03*
G04 #@! TD*
D38*
G04 #@! TO.C,D6*
X176185000Y-74472000D03*
X172185000Y-74472000D03*
G04 #@! TD*
D39*
G04 #@! TO.C,D3*
X138876999Y-78216999D03*
X138876999Y-78866999D03*
X138876999Y-79516999D03*
X140776998Y-79516999D03*
X140776998Y-78866999D03*
X140776998Y-78216999D03*
G04 #@! TD*
G04 #@! TO.C,D5*
X135320999Y-78216999D03*
X135320999Y-78866999D03*
X135320999Y-79516999D03*
X137220998Y-79516999D03*
X137220998Y-78866999D03*
X137220998Y-78216999D03*
G04 #@! TD*
G04 #@! TO.C,D7*
X143575999Y-78851999D03*
X143575999Y-79501999D03*
X143575999Y-80151999D03*
X145475998Y-80151999D03*
X145475998Y-79501999D03*
X145475998Y-78851999D03*
G04 #@! TD*
M02*
