G04 #@! TF.GenerationSoftware,KiCad,Pcbnew,5.1.12-84ad8e8a86~92~ubuntu20.04.1*
G04 #@! TF.CreationDate,2022-01-16T14:56:09+02:00*
G04 #@! TF.ProjectId,opm-inline,6f706d2d-696e-46c6-996e-652e6b696361,rev?*
G04 #@! TF.SameCoordinates,Original*
G04 #@! TF.FileFunction,Copper,L4,Bot*
G04 #@! TF.FilePolarity,Positive*
%FSLAX46Y46*%
G04 Gerber Fmt 4.6, Leading zero omitted, Abs format (unit mm)*
G04 Created by KiCad (PCBNEW 5.1.12-84ad8e8a86~92~ubuntu20.04.1) date 2022-01-16 14:56:09*
%MOMM*%
%LPD*%
G01*
G04 APERTURE LIST*
G04 #@! TA.AperFunction,ComponentPad*
%ADD10C,6.497320*%
G04 #@! TD*
G04 #@! TA.AperFunction,ComponentPad*
%ADD11R,3.000000X3.000000*%
G04 #@! TD*
G04 #@! TA.AperFunction,ComponentPad*
%ADD12C,3.000000*%
G04 #@! TD*
G04 #@! TA.AperFunction,ComponentPad*
%ADD13O,1.200000X1.750000*%
G04 #@! TD*
G04 #@! TA.AperFunction,ComponentPad*
%ADD14C,1.600000*%
G04 #@! TD*
G04 #@! TA.AperFunction,ComponentPad*
%ADD15O,1.750000X1.200000*%
G04 #@! TD*
G04 #@! TA.AperFunction,ComponentPad*
%ADD16C,0.700000*%
G04 #@! TD*
G04 #@! TA.AperFunction,ComponentPad*
%ADD17C,4.400000*%
G04 #@! TD*
G04 #@! TA.AperFunction,ViaPad*
%ADD18C,0.600000*%
G04 #@! TD*
G04 #@! TA.AperFunction,Conductor*
%ADD19C,4.000000*%
G04 #@! TD*
G04 #@! TA.AperFunction,Conductor*
%ADD20C,0.200000*%
G04 #@! TD*
G04 #@! TA.AperFunction,Conductor*
%ADD21C,0.254000*%
G04 #@! TD*
G04 #@! TA.AperFunction,Conductor*
%ADD22C,0.350000*%
G04 #@! TD*
G04 APERTURE END LIST*
D10*
G04 #@! TO.P,HS1,1*
G04 #@! TO.N,N/C*
X175260000Y-79756000D03*
X152400000Y-102616000D03*
G04 #@! TD*
D11*
G04 #@! TO.P,U3,1*
G04 #@! TO.N,/W*
X185420000Y-96520000D03*
D12*
G04 #@! TO.P,U3,2*
G04 #@! TO.N,/V*
X185420000Y-91440000D03*
G04 #@! TO.P,U3,3*
G04 #@! TO.N,/U*
X185420000Y-86360000D03*
G04 #@! TD*
D11*
G04 #@! TO.P,U2,1*
G04 #@! TO.N,GND*
X185547000Y-69850000D03*
D12*
G04 #@! TO.P,U2,2*
G04 #@! TO.N,Net-(D6-Pad2)*
X180467000Y-69850000D03*
G04 #@! TD*
D13*
G04 #@! TO.P,J3,6*
G04 #@! TO.N,/UH*
X141880000Y-68580000D03*
G04 #@! TO.P,J3,5*
G04 #@! TO.N,/UL*
X139880000Y-68580000D03*
G04 #@! TO.P,J3,4*
G04 #@! TO.N,/VH*
X137880000Y-68580000D03*
G04 #@! TO.P,J3,3*
G04 #@! TO.N,/VL*
X135880000Y-68580000D03*
G04 #@! TO.P,J3,2*
G04 #@! TO.N,/WH*
X133880000Y-68580000D03*
G04 #@! TO.P,J3,1*
G04 #@! TO.N,/WL*
G04 #@! TA.AperFunction,ComponentPad*
G36*
G01*
X131280000Y-69205001D02*
X131280000Y-67954999D01*
G75*
G02*
X131529999Y-67705000I249999J0D01*
G01*
X132230001Y-67705000D01*
G75*
G02*
X132480000Y-67954999I0J-249999D01*
G01*
X132480000Y-69205001D01*
G75*
G02*
X132230001Y-69455000I-249999J0D01*
G01*
X131529999Y-69455000D01*
G75*
G02*
X131280000Y-69205001I0J249999D01*
G01*
G37*
G04 #@! TD.AperFunction*
G04 #@! TD*
D14*
G04 #@! TO.P,C16,2*
G04 #@! TO.N,GND*
X152330000Y-68660000D03*
G04 #@! TO.P,C16,1*
G04 #@! TO.N,/+VM*
X152330000Y-73660000D03*
G04 #@! TD*
G04 #@! TO.P,C15,2*
G04 #@! TO.N,GND*
X162918000Y-68660000D03*
G04 #@! TO.P,C15,1*
G04 #@! TO.N,/+VM*
X162918000Y-73660000D03*
G04 #@! TD*
D15*
G04 #@! TO.P,J2,2*
G04 #@! TO.N,GND*
X132715000Y-81883000D03*
G04 #@! TO.P,J2,1*
G04 #@! TO.N,/+VCC_IO*
G04 #@! TA.AperFunction,ComponentPad*
G36*
G01*
X132089999Y-79283000D02*
X133340001Y-79283000D01*
G75*
G02*
X133590000Y-79532999I0J-249999D01*
G01*
X133590000Y-80233001D01*
G75*
G02*
X133340001Y-80483000I-249999J0D01*
G01*
X132089999Y-80483000D01*
G75*
G02*
X131840000Y-80233001I0J249999D01*
G01*
X131840000Y-79532999D01*
G75*
G02*
X132089999Y-79283000I249999J0D01*
G01*
G37*
G04 #@! TD.AperFunction*
G04 #@! TD*
D13*
G04 #@! TO.P,J6,3*
G04 #@! TO.N,/ADC_I_u*
X144494000Y-74168000D03*
G04 #@! TO.P,J6,2*
G04 #@! TO.N,/ADC_I_v*
X142494000Y-74168000D03*
G04 #@! TO.P,J6,1*
G04 #@! TO.N,/ADC_I_w*
G04 #@! TA.AperFunction,ComponentPad*
G36*
G01*
X139894000Y-74793001D02*
X139894000Y-73542999D01*
G75*
G02*
X140143999Y-73293000I249999J0D01*
G01*
X140844001Y-73293000D01*
G75*
G02*
X141094000Y-73542999I0J-249999D01*
G01*
X141094000Y-74793001D01*
G75*
G02*
X140844001Y-75043000I-249999J0D01*
G01*
X140143999Y-75043000D01*
G75*
G02*
X139894000Y-74793001I0J249999D01*
G01*
G37*
G04 #@! TD.AperFunction*
G04 #@! TD*
G04 #@! TO.P,J4,1*
G04 #@! TO.N,/+VCC_IO*
G04 #@! TA.AperFunction,ComponentPad*
G36*
G01*
X132724999Y-94650000D02*
X133975001Y-94650000D01*
G75*
G02*
X134225000Y-94899999I0J-249999D01*
G01*
X134225000Y-95600001D01*
G75*
G02*
X133975001Y-95850000I-249999J0D01*
G01*
X132724999Y-95850000D01*
G75*
G02*
X132475000Y-95600001I0J249999D01*
G01*
X132475000Y-94899999D01*
G75*
G02*
X132724999Y-94650000I249999J0D01*
G01*
G37*
G04 #@! TD.AperFunction*
D15*
G04 #@! TO.P,J4,2*
G04 #@! TO.N,GND*
X133350000Y-97250000D03*
G04 #@! TD*
G04 #@! TO.P,J1,1*
G04 #@! TO.N,/DRV_EN*
G04 #@! TA.AperFunction,ComponentPad*
G36*
G01*
X131280000Y-74735001D02*
X131280000Y-73484999D01*
G75*
G02*
X131529999Y-73235000I249999J0D01*
G01*
X132230001Y-73235000D01*
G75*
G02*
X132480000Y-73484999I0J-249999D01*
G01*
X132480000Y-74735001D01*
G75*
G02*
X132230001Y-74985000I-249999J0D01*
G01*
X131529999Y-74985000D01*
G75*
G02*
X131280000Y-74735001I0J249999D01*
G01*
G37*
G04 #@! TD.AperFunction*
D13*
G04 #@! TO.P,J1,2*
G04 #@! TO.N,/TEMP_PCB*
X133880000Y-74110000D03*
G04 #@! TO.P,J1,3*
G04 #@! TO.N,/FAULT*
X135880000Y-74110000D03*
G04 #@! TD*
D16*
G04 #@! TO.P,H201,1*
G04 #@! TO.N,GND*
X134389726Y-102084274D03*
X133223000Y-101601000D03*
X132056274Y-102084274D03*
X131573000Y-103251000D03*
X132056274Y-104417726D03*
X133223000Y-104901000D03*
X134389726Y-104417726D03*
X134873000Y-103251000D03*
D17*
X133223000Y-103251000D03*
G04 #@! TD*
G04 #@! TO.P,H202,1*
G04 #@! TO.N,GND*
X133223000Y-88519000D03*
D16*
X134873000Y-88519000D03*
X134389726Y-89685726D03*
X133223000Y-90169000D03*
X132056274Y-89685726D03*
X131573000Y-88519000D03*
X132056274Y-87352274D03*
X133223000Y-86869000D03*
X134389726Y-87352274D03*
G04 #@! TD*
D18*
G04 #@! TO.N,/+VM*
X156210000Y-73160000D03*
X158750000Y-73160000D03*
X160020000Y-74430000D03*
X157480000Y-74430000D03*
X154940000Y-74430000D03*
X161290000Y-73160000D03*
X167132000Y-78105000D03*
X168656000Y-77470000D03*
X171577000Y-76962000D03*
X170180000Y-77978000D03*
X171450000Y-78740000D03*
X161925000Y-84963000D03*
X166497000Y-84455000D03*
X161290000Y-87630000D03*
X160655000Y-86106000D03*
X159512000Y-85090000D03*
X164084000Y-84455000D03*
X162560000Y-86360000D03*
X173990000Y-94580000D03*
X168910000Y-98290000D03*
X167640000Y-97790000D03*
X171069000Y-98298000D03*
X169926000Y-97536000D03*
X175250000Y-94580000D03*
X176520000Y-94580000D03*
X166370000Y-98290000D03*
X166497000Y-72390000D03*
X166751000Y-70104000D03*
X164846000Y-71628000D03*
X168275000Y-69088000D03*
X169545000Y-68072000D03*
X157510000Y-99830000D03*
X157510000Y-101100000D03*
X156440000Y-101100000D03*
X155470000Y-101100000D03*
X159385000Y-87630000D03*
X152654000Y-77343000D03*
G04 #@! TO.N,GND*
X139065000Y-82169000D03*
X148844000Y-79756000D03*
X150200000Y-91540000D03*
X154010000Y-90270000D03*
X152740000Y-90270000D03*
X151470000Y-89000000D03*
X150200000Y-90270000D03*
X151470000Y-90270000D03*
X154010000Y-89000000D03*
X152740000Y-89000000D03*
X150200000Y-89000000D03*
X151470000Y-91540000D03*
X152740000Y-91540000D03*
X154010000Y-91540000D03*
X154010000Y-92810000D03*
X152740000Y-92810000D03*
X151470000Y-92810000D03*
X150200000Y-92810000D03*
X182753000Y-102870000D03*
X182499000Y-79629000D03*
X155602000Y-97255000D03*
X177419000Y-89027000D03*
X160782000Y-92837000D03*
X163068000Y-93091000D03*
X162306000Y-93853000D03*
X162941000Y-94869000D03*
X167386000Y-82550000D03*
X168529000Y-82423000D03*
X170815000Y-82804000D03*
X171069000Y-83693000D03*
X153416000Y-81026000D03*
X135636000Y-85090000D03*
X142748000Y-79502000D03*
X165862000Y-104013000D03*
X167132000Y-104013000D03*
X168275000Y-104013000D03*
X169545000Y-104013000D03*
X170815000Y-104013000D03*
X166116000Y-82550000D03*
X161925000Y-92837000D03*
X164592000Y-101854000D03*
X167259000Y-75184000D03*
X146685000Y-87630000D03*
X144018000Y-82550000D03*
X145415000Y-82550000D03*
X133223000Y-78740000D03*
X146177000Y-97790000D03*
G04 #@! TO.N,Net-(C4-Pad1)*
X157861000Y-82169000D03*
X173609000Y-85852000D03*
X181030000Y-85090000D03*
X181030000Y-82550000D03*
X181030000Y-80010000D03*
X181030000Y-77470000D03*
X179760000Y-81280000D03*
X179760000Y-83820000D03*
X179760000Y-86360000D03*
X179800000Y-78740000D03*
G04 #@! TO.N,Net-(C5-Pad2)*
X157480000Y-94234000D03*
X160020000Y-99060000D03*
X180930000Y-96520000D03*
X180930000Y-99060000D03*
X180930000Y-101600000D03*
X180930000Y-104140000D03*
X179470000Y-102870000D03*
X179470000Y-100330000D03*
X179470000Y-97790000D03*
X179470000Y-105410000D03*
X162573000Y-101333000D03*
X173717000Y-103270000D03*
G04 #@! TO.N,Net-(C6-Pad2)*
X161671000Y-97663000D03*
X157480000Y-90297000D03*
G04 #@! TO.N,Net-(C6-Pad1)*
X164338000Y-98552000D03*
X157480000Y-91186000D03*
X171440000Y-88900000D03*
X171440000Y-90170000D03*
X171440000Y-91440000D03*
X171440000Y-92710000D03*
X169100000Y-91070000D03*
X170370000Y-91070000D03*
X167830000Y-91070000D03*
X166560000Y-91070000D03*
G04 #@! TO.N,/W*
X164084000Y-99822000D03*
X186690000Y-100330000D03*
X186690000Y-101600000D03*
X186690000Y-102870000D03*
X186690000Y-104140000D03*
X186690000Y-105410000D03*
X184023000Y-100838000D03*
G04 #@! TO.N,/V*
X162052000Y-96520000D03*
X182880000Y-90170000D03*
X182880000Y-92710000D03*
X181610000Y-91440000D03*
X180340000Y-90170000D03*
X180340000Y-92710000D03*
X174625000Y-92456000D03*
G04 #@! TO.N,/U*
X164211000Y-79502000D03*
X186690000Y-78740000D03*
X186690000Y-80010000D03*
X186690000Y-81280000D03*
X186690000Y-82550000D03*
X186690000Y-77470000D03*
G04 #@! TO.N,Net-(D1-Pad2)*
X147701000Y-68834000D03*
X156591000Y-77978000D03*
G04 #@! TO.N,Net-(D2-Pad2)*
X147701000Y-67691000D03*
X156464000Y-76835000D03*
G04 #@! TO.N,Net-(IC1-Pad3)*
X159004000Y-101092000D03*
X154686000Y-85471000D03*
G04 #@! TO.N,Net-(IC1-Pad4)*
X159639000Y-93726000D03*
X154813000Y-84328000D03*
G04 #@! TO.N,Net-(IC1-Pad5)*
X160528000Y-80518000D03*
X153162000Y-85046736D03*
G04 #@! TO.N,/UH*
X145415000Y-87884000D03*
X141605000Y-78232000D03*
G04 #@! TO.N,/UL*
X145450000Y-89770000D03*
X141478000Y-81661000D03*
G04 #@! TO.N,/VH*
X146484300Y-91567000D03*
X140716000Y-80264000D03*
G04 #@! TO.N,/VL*
X145415000Y-91567000D03*
X139700000Y-80264000D03*
X139827000Y-81407000D03*
G04 #@! TO.N,/WH*
X138303000Y-77851000D03*
X146050000Y-92837000D03*
X139065000Y-77216000D03*
G04 #@! TO.N,/WL*
X146050000Y-93980000D03*
X137922000Y-81407000D03*
G04 #@! TO.N,/DRV_EN*
X150360000Y-97536000D03*
X136652000Y-80264000D03*
G04 #@! TO.N,Net-(IC1-Pad37)*
X156337000Y-94361000D03*
X177673000Y-94107000D03*
G04 #@! TO.N,Net-(IC1-Pad39)*
X160020000Y-97790000D03*
X157680000Y-93164000D03*
G04 #@! TO.N,Net-(IC1-Pad43)*
X156400500Y-85788500D03*
X160274000Y-81915000D03*
G04 #@! TO.N,Net-(IC1-Pad46)*
X160528000Y-79629000D03*
G04 #@! TO.N,Net-(IC1-Pad48)*
X158877000Y-81661000D03*
X156337000Y-87249000D03*
G04 #@! TO.N,Net-(Q1-Pad4)*
X178308000Y-76962000D03*
X164211000Y-78232000D03*
G04 #@! TO.N,Net-(Q2-Pad4)*
X171464000Y-86854000D03*
X164222500Y-81522500D03*
G04 #@! TO.N,Net-(Q4-Pad4)*
X162458000Y-102718000D03*
X171431000Y-105175000D03*
G04 #@! TO.N,Net-(Q5-Pad4)*
X169164000Y-84455000D03*
X164211000Y-82423000D03*
G04 #@! TO.N,/+VCC_IO*
X151765000Y-81280000D03*
X148075751Y-87001249D03*
G04 #@! TO.N,/TEMP_PCB*
X146939000Y-77724000D03*
G04 #@! TO.N,/FAULT*
X160147000Y-76835000D03*
X133477000Y-77470000D03*
X133858000Y-78232000D03*
X149860000Y-96393000D03*
G04 #@! TD*
D19*
G04 #@! TO.N,/+VM*
X152400000Y-73660000D02*
X163830000Y-73660000D01*
D20*
G04 #@! TO.N,Net-(C4-Pad1)*
X157861000Y-81788998D02*
X157861000Y-82169000D01*
X158588999Y-81060999D02*
X157861000Y-81788998D01*
X159604001Y-81314999D02*
X159350001Y-81060999D01*
X163033001Y-81314999D02*
X159604001Y-81314999D01*
X163425501Y-80922499D02*
X163033001Y-81314999D01*
X167916501Y-80922499D02*
X163425501Y-80922499D01*
X169129001Y-82134999D02*
X167916501Y-80922499D01*
X169129001Y-82695003D02*
X169129001Y-82134999D01*
X172285998Y-85852000D02*
X169129001Y-82695003D01*
X159350001Y-81060999D02*
X158588999Y-81060999D01*
X173609000Y-85852000D02*
X172285998Y-85852000D01*
G04 #@! TO.N,Net-(C5-Pad2)*
X164510000Y-103270000D02*
X162573000Y-101333000D01*
X157580000Y-96620000D02*
X160020000Y-99060000D01*
X173717000Y-103270000D02*
X164510000Y-103270000D01*
X157580000Y-94334000D02*
X157480000Y-94234000D01*
X157580000Y-96620000D02*
X157580000Y-94334000D01*
G04 #@! TO.N,Net-(C6-Pad2)*
X161671000Y-97155000D02*
X161671000Y-97663000D01*
X159038999Y-94522999D02*
X161671000Y-97155000D01*
X159038999Y-91855999D02*
X159038999Y-94522999D01*
X157480000Y-90297000D02*
X159038999Y-91855999D01*
G04 #@! TO.N,Net-(C6-Pad1)*
X158580011Y-92286011D02*
X157480000Y-91186000D01*
X158580011Y-95460013D02*
X158580011Y-92286011D01*
X161671998Y-98552000D02*
X158580011Y-95460013D01*
X164338000Y-98552000D02*
X161671998Y-98552000D01*
G04 #@! TO.N,/W*
X165192001Y-100930001D02*
X164084000Y-99822000D01*
X183930999Y-100930001D02*
X165192001Y-100930001D01*
X184023000Y-100838000D02*
X183930999Y-100930001D01*
G04 #@! TO.N,/V*
X170561000Y-96520000D02*
X168402000Y-96520000D01*
X174625000Y-92456000D02*
X170561000Y-96520000D01*
X168402000Y-96520000D02*
X162052000Y-96520000D01*
X168518002Y-96520000D02*
X168402000Y-96520000D01*
G04 #@! TO.N,/U*
X163610999Y-78901999D02*
X164211000Y-79502000D01*
X163610999Y-77943999D02*
X163610999Y-78901999D01*
X165192999Y-76361999D02*
X163610999Y-77943999D01*
X185581999Y-76361999D02*
X165192999Y-76361999D01*
X186690000Y-77470000D02*
X185581999Y-76361999D01*
G04 #@! TO.N,Net-(D1-Pad2)*
X155285003Y-76673001D02*
X151349001Y-76673001D01*
X156590002Y-77978000D02*
X155285003Y-76673001D01*
X156591000Y-77978000D02*
X156590002Y-77978000D01*
X147701000Y-73025000D02*
X147701000Y-68834000D01*
X151349001Y-76673001D02*
X147701000Y-73025000D01*
G04 #@! TO.N,Net-(D2-Pad2)*
X148301001Y-68291001D02*
X147701000Y-67691000D01*
X155901991Y-76272991D02*
X151760286Y-76272991D01*
X148301001Y-72813706D02*
X148301001Y-68291001D01*
X151760286Y-76272991D02*
X148301001Y-72813706D01*
X156464000Y-76835000D02*
X155901991Y-76272991D01*
G04 #@! TO.N,Net-(IC1-Pad3)*
X154686000Y-95179700D02*
X154686000Y-85471000D01*
X159004000Y-99497700D02*
X154686000Y-95179700D01*
X159004000Y-101092000D02*
X159004000Y-99497700D01*
G04 #@! TO.N,Net-(IC1-Pad4)*
X158750998Y-90551000D02*
X157607998Y-89408000D01*
X159639000Y-91439002D02*
X158750998Y-90551000D01*
X159639000Y-93726000D02*
X159639000Y-91439002D01*
X155286001Y-84801001D02*
X154813000Y-84328000D01*
X155286001Y-87086003D02*
X155286001Y-84801001D01*
X158750998Y-90551000D02*
X155286001Y-87086003D01*
G04 #@! TO.N,Net-(IC1-Pad5)*
X157690736Y-80518000D02*
X160528000Y-80518000D01*
X153162000Y-85046736D02*
X157690736Y-80518000D01*
G04 #@! TO.N,/UH*
X142367000Y-80390002D02*
X142367000Y-84836000D01*
X141605000Y-79628002D02*
X142367000Y-80390002D01*
X141605000Y-78232000D02*
X141605000Y-79628002D01*
X145415000Y-87884000D02*
X142367000Y-84836000D01*
G04 #@! TO.N,/UL*
X141732000Y-86052000D02*
X141759000Y-86079000D01*
X145450000Y-89770000D02*
X141759000Y-86079000D01*
X141478000Y-82550000D02*
X141732000Y-82804000D01*
X141478000Y-81661000D02*
X141478000Y-82550000D01*
X141732000Y-82804000D02*
X141732000Y-86052000D01*
G04 #@! TO.N,/VH*
X138430000Y-69130000D02*
X137880000Y-68580000D01*
X146300000Y-91690000D02*
X146300000Y-91571998D01*
X146484300Y-91690000D02*
X146300000Y-91690000D01*
X146484300Y-91690000D02*
X144050451Y-89256151D01*
X140716000Y-85921700D02*
X141316150Y-86521850D01*
X140716000Y-80391000D02*
X140716000Y-85921700D01*
X144050451Y-89256151D02*
X141316150Y-86521850D01*
G04 #@! TO.N,/VL*
X139700000Y-75816496D02*
X139700000Y-80264000D01*
X135880000Y-71996496D02*
X139700000Y-75816496D01*
X135880000Y-68580000D02*
X135880000Y-71996496D01*
X139827000Y-85979000D02*
X140081000Y-86233000D01*
X139827000Y-81407000D02*
X139827000Y-85979000D01*
X145415000Y-91567000D02*
X140081000Y-86233000D01*
G04 #@! TO.N,/WH*
X133880000Y-70562194D02*
X133880000Y-68580000D01*
X137322903Y-74005097D02*
X133880000Y-70562194D01*
X137520011Y-74202205D02*
X137322903Y-74005097D01*
X145625736Y-92837000D02*
X146050000Y-92837000D01*
X139065000Y-75747194D02*
X138719903Y-75402097D01*
X139065000Y-77216000D02*
X139065000Y-75747194D01*
X138719903Y-75402097D02*
X137322903Y-74005097D01*
X138811000Y-75493194D02*
X138719903Y-75402097D01*
X138464999Y-81752003D02*
X138464999Y-85676263D01*
X138602999Y-81614003D02*
X138464999Y-81752003D01*
X138602999Y-78150999D02*
X138602999Y-81614003D01*
X138303000Y-77851000D02*
X138602999Y-78150999D01*
X138464999Y-85676263D02*
X138916368Y-86127632D01*
X138916368Y-86127632D02*
X145625736Y-92837000D01*
X138811000Y-86022264D02*
X138916368Y-86127632D01*
G04 #@! TO.N,/WL*
X131880000Y-69127892D02*
X131880000Y-68580000D01*
X146050000Y-93980000D02*
X138303000Y-86233000D01*
X137922000Y-85852000D02*
X138303000Y-86233000D01*
X137922000Y-81407000D02*
X137922000Y-85852000D01*
G04 #@! TO.N,/DRV_EN*
X136652000Y-88282002D02*
X144889998Y-96520000D01*
X136652000Y-80264000D02*
X136652000Y-88282002D01*
X144889998Y-96520000D02*
X148209000Y-96520000D01*
X149225000Y-97536000D02*
X148844000Y-97155000D01*
X150360000Y-97536000D02*
X149225000Y-97536000D01*
X148844000Y-97155000D02*
X148971000Y-97282000D01*
X148209000Y-96520000D02*
X148844000Y-97155000D01*
G04 #@! TO.N,Net-(IC1-Pad37)*
X177673000Y-94531264D02*
X177673000Y-94107000D01*
X172982265Y-99221999D02*
X177673000Y-94531264D01*
X160746003Y-99221999D02*
X172982265Y-99221999D01*
X160308001Y-99660001D02*
X160746003Y-99221999D01*
X159731999Y-99660001D02*
X160308001Y-99660001D01*
X156337000Y-96265002D02*
X159731999Y-99660001D01*
X156337000Y-94361000D02*
X156337000Y-96265002D01*
G04 #@! TO.N,Net-(IC1-Pad39)*
X159315698Y-97790000D02*
X160020000Y-97790000D01*
X158180001Y-96654303D02*
X159315698Y-97790000D01*
X158180001Y-93664001D02*
X157680000Y-93164000D01*
X158180001Y-96654303D02*
X158180001Y-93664001D01*
G04 #@! TO.N,Net-(IC1-Pad43)*
X156400500Y-85788500D02*
X160274000Y-81915000D01*
G04 #@! TO.N,Net-(IC1-Pad48)*
X156337000Y-86995998D02*
X156337000Y-87249000D01*
X155800499Y-86712499D02*
X156337000Y-87249000D01*
X155800499Y-85161765D02*
X155800499Y-86712499D01*
X158877000Y-82085264D02*
X155800499Y-85161765D01*
X158877000Y-81661000D02*
X158877000Y-82085264D01*
G04 #@! TO.N,Net-(Q1-Pad4)*
X171288999Y-77562001D02*
X177707999Y-77562001D01*
X170596997Y-76869999D02*
X171288999Y-77562001D01*
X165573001Y-76869999D02*
X170596997Y-76869999D01*
X177707999Y-77562001D02*
X178308000Y-76962000D01*
X164211000Y-78232000D02*
X165573001Y-76869999D01*
G04 #@! TO.N,Net-(Q2-Pad4)*
X171464000Y-85643998D02*
X169132002Y-83312000D01*
X171464000Y-86854000D02*
X171464000Y-85643998D01*
X166012000Y-83312000D02*
X164222500Y-81522500D01*
X169132002Y-83312000D02*
X166012000Y-83312000D01*
G04 #@! TO.N,Net-(Q4-Pad4)*
X164915000Y-105175000D02*
X171431000Y-105175000D01*
X162458000Y-102718000D02*
X164915000Y-105175000D01*
G04 #@! TO.N,Net-(Q5-Pad4)*
X169164000Y-84000998D02*
X169164000Y-84455000D01*
X165507999Y-83719999D02*
X168883001Y-83719999D01*
X168883001Y-83719999D02*
X169164000Y-84000998D01*
X164211000Y-82423000D02*
X165507999Y-83719999D01*
G04 #@! TO.N,/+VCC_IO*
X148958502Y-87884000D02*
X148075751Y-87001249D01*
X151892000Y-87884000D02*
X148958502Y-87884000D01*
X151892000Y-81407000D02*
X151765000Y-81280000D01*
X151892000Y-82042000D02*
X151892000Y-81407000D01*
X151892000Y-81788000D02*
X151892000Y-82042000D01*
X151892000Y-82042000D02*
X151892000Y-87884000D01*
G04 #@! TO.N,/FAULT*
X137252001Y-86070003D02*
X137252001Y-79975999D01*
X147274999Y-96093001D02*
X137252001Y-86070003D01*
X149560001Y-96093001D02*
X147274999Y-96093001D01*
X135880000Y-74110000D02*
X135821000Y-74110000D01*
X133477000Y-76454000D02*
X133477000Y-77470000D01*
X135821000Y-74110000D02*
X133477000Y-76454000D01*
X135508002Y-78232000D02*
X137159501Y-79883499D01*
X133858000Y-78232000D02*
X135508002Y-78232000D01*
X137159501Y-79883499D02*
X136940001Y-79663999D01*
X137252001Y-79975999D02*
X137159501Y-79883499D01*
X149860000Y-96393000D02*
X149560001Y-96093001D01*
X159131000Y-76835000D02*
X160147000Y-76835000D01*
X152292010Y-83673990D02*
X159131000Y-76835000D01*
X152292010Y-88049689D02*
X152292010Y-83673990D01*
X152057689Y-88284010D02*
X152292010Y-88049689D01*
X150027988Y-88284010D02*
X152057689Y-88284010D01*
X149560001Y-88751997D02*
X150027988Y-88284010D01*
X149560001Y-96093001D02*
X149560001Y-88751997D01*
G04 #@! TD*
D21*
G04 #@! TO.N,/W*
X187275001Y-105945000D02*
X183769000Y-105945000D01*
X183769000Y-94389992D01*
X183783866Y-94296129D01*
X183822418Y-94220467D01*
X183882467Y-94160418D01*
X183958129Y-94121866D01*
X184051992Y-94107000D01*
X187275001Y-94107000D01*
X187275001Y-105945000D01*
G04 #@! TA.AperFunction,Conductor*
D22*
G36*
X187275001Y-105945000D02*
G01*
X183769000Y-105945000D01*
X183769000Y-94389992D01*
X183783866Y-94296129D01*
X183822418Y-94220467D01*
X183882467Y-94160418D01*
X183958129Y-94121866D01*
X184051992Y-94107000D01*
X187275001Y-94107000D01*
X187275001Y-105945000D01*
G37*
G04 #@! TD.AperFunction*
G04 #@! TD*
D21*
G04 #@! TO.N,Net-(C5-Pad2)*
X183007000Y-101967207D02*
X182845089Y-101935000D01*
X182660911Y-101935000D01*
X182480271Y-101970932D01*
X182310111Y-102041414D01*
X182156972Y-102143738D01*
X182026738Y-102273972D01*
X181924414Y-102427111D01*
X181853932Y-102597271D01*
X181818000Y-102777911D01*
X181818000Y-102962089D01*
X181853932Y-103142729D01*
X181924414Y-103312889D01*
X182026738Y-103466028D01*
X182156972Y-103596262D01*
X182310111Y-103698586D01*
X182480271Y-103769068D01*
X182660911Y-103805000D01*
X182845089Y-103805000D01*
X183007000Y-103772793D01*
X183007000Y-105889008D01*
X182998132Y-105945000D01*
X174125868Y-105945000D01*
X174117000Y-105889008D01*
X174117000Y-101665001D01*
X183007000Y-101665001D01*
X183007000Y-101967207D01*
G04 #@! TA.AperFunction,Conductor*
D22*
G36*
X183007000Y-101967207D02*
G01*
X182845089Y-101935000D01*
X182660911Y-101935000D01*
X182480271Y-101970932D01*
X182310111Y-102041414D01*
X182156972Y-102143738D01*
X182026738Y-102273972D01*
X181924414Y-102427111D01*
X181853932Y-102597271D01*
X181818000Y-102777911D01*
X181818000Y-102962089D01*
X181853932Y-103142729D01*
X181924414Y-103312889D01*
X182026738Y-103466028D01*
X182156972Y-103596262D01*
X182310111Y-103698586D01*
X182480271Y-103769068D01*
X182660911Y-103805000D01*
X182845089Y-103805000D01*
X183007000Y-103772793D01*
X183007000Y-105889008D01*
X182998132Y-105945000D01*
X174125868Y-105945000D01*
X174117000Y-105889008D01*
X174117000Y-101665001D01*
X183007000Y-101665001D01*
X183007000Y-101967207D01*
G37*
G04 #@! TD.AperFunction*
D21*
X182817871Y-94121866D02*
X182893533Y-94160418D01*
X182953582Y-94220467D01*
X182992134Y-94296129D01*
X183007000Y-94389992D01*
X183007000Y-100195001D01*
X177927000Y-100195001D01*
X177927000Y-96548992D01*
X177941866Y-96455129D01*
X177980418Y-96379467D01*
X178040467Y-96319418D01*
X178116129Y-96280866D01*
X178209992Y-96266000D01*
X178797000Y-96266000D01*
X178816867Y-96264436D01*
X178940474Y-96244859D01*
X178964563Y-96238573D01*
X178978264Y-96232581D01*
X179089771Y-96175765D01*
X179110739Y-96162342D01*
X179121917Y-96152410D01*
X179210410Y-96063917D01*
X179226204Y-96044671D01*
X179233765Y-96031771D01*
X179290581Y-95920264D01*
X179299655Y-95897080D01*
X179302859Y-95882474D01*
X179322436Y-95758867D01*
X179324000Y-95739000D01*
X179324000Y-94389992D01*
X179338866Y-94296129D01*
X179377418Y-94220467D01*
X179437467Y-94160418D01*
X179513129Y-94121866D01*
X179606992Y-94107000D01*
X182724008Y-94107000D01*
X182817871Y-94121866D01*
G04 #@! TA.AperFunction,Conductor*
D22*
G36*
X182817871Y-94121866D02*
G01*
X182893533Y-94160418D01*
X182953582Y-94220467D01*
X182992134Y-94296129D01*
X183007000Y-94389992D01*
X183007000Y-100195001D01*
X177927000Y-100195001D01*
X177927000Y-96548992D01*
X177941866Y-96455129D01*
X177980418Y-96379467D01*
X178040467Y-96319418D01*
X178116129Y-96280866D01*
X178209992Y-96266000D01*
X178797000Y-96266000D01*
X178816867Y-96264436D01*
X178940474Y-96244859D01*
X178964563Y-96238573D01*
X178978264Y-96232581D01*
X179089771Y-96175765D01*
X179110739Y-96162342D01*
X179121917Y-96152410D01*
X179210410Y-96063917D01*
X179226204Y-96044671D01*
X179233765Y-96031771D01*
X179290581Y-95920264D01*
X179299655Y-95897080D01*
X179302859Y-95882474D01*
X179322436Y-95758867D01*
X179324000Y-95739000D01*
X179324000Y-94389992D01*
X179338866Y-94296129D01*
X179377418Y-94220467D01*
X179437467Y-94160418D01*
X179513129Y-94121866D01*
X179606992Y-94107000D01*
X182724008Y-94107000D01*
X182817871Y-94121866D01*
G37*
G04 #@! TD.AperFunction*
G04 #@! TD*
D21*
G04 #@! TO.N,/V*
X176484000Y-88934911D02*
X176484000Y-89119089D01*
X176519932Y-89299729D01*
X176590414Y-89469889D01*
X176692738Y-89623028D01*
X176822972Y-89753262D01*
X176976111Y-89855586D01*
X177146271Y-89926068D01*
X177326911Y-89962000D01*
X177511089Y-89962000D01*
X177691729Y-89926068D01*
X177861889Y-89855586D01*
X178015028Y-89753262D01*
X178145262Y-89623028D01*
X178247586Y-89469889D01*
X178318068Y-89299729D01*
X178354000Y-89119089D01*
X178354000Y-88934911D01*
X178332535Y-88827000D01*
X182913832Y-88827000D01*
X182978569Y-88891476D01*
X183034960Y-88941342D01*
X183139990Y-89008158D01*
X183251942Y-89064802D01*
X183321010Y-89094748D01*
X183441573Y-89125740D01*
X183565566Y-89144916D01*
X183665185Y-89152371D01*
X187275001Y-89137775D01*
X187275001Y-93345000D01*
X184042000Y-93345000D01*
X183942666Y-93352818D01*
X183819059Y-93372395D01*
X183746027Y-93388418D01*
X183630108Y-93433789D01*
X183518601Y-93490605D01*
X183454099Y-93528410D01*
X183389198Y-93581673D01*
X183362240Y-93557718D01*
X183257399Y-93490605D01*
X183145892Y-93433789D01*
X183077389Y-93403825D01*
X182956941Y-93372395D01*
X182833334Y-93352818D01*
X182734000Y-93345000D01*
X179597000Y-93345000D01*
X179497666Y-93352818D01*
X179374059Y-93372395D01*
X179301027Y-93388418D01*
X179185108Y-93433789D01*
X179073601Y-93490605D01*
X179009099Y-93528410D01*
X178912873Y-93607380D01*
X178867253Y-93653000D01*
X178494162Y-93653000D01*
X178399262Y-93510972D01*
X178269028Y-93380738D01*
X178115889Y-93278414D01*
X177945729Y-93207932D01*
X177765089Y-93172000D01*
X177580911Y-93172000D01*
X177400271Y-93207932D01*
X177230111Y-93278414D01*
X177076972Y-93380738D01*
X176946738Y-93510972D01*
X176851838Y-93653000D01*
X176652307Y-93653000D01*
X176612089Y-93645000D01*
X176427911Y-93645000D01*
X176387693Y-93653000D01*
X175382307Y-93653000D01*
X175342089Y-93645000D01*
X175157911Y-93645000D01*
X175117693Y-93653000D01*
X174122307Y-93653000D01*
X174082089Y-93645000D01*
X173897911Y-93645000D01*
X173857693Y-93653000D01*
X171859992Y-93653000D01*
X171766129Y-93638134D01*
X171710108Y-93609589D01*
X171712729Y-93609068D01*
X171882889Y-93538586D01*
X172036028Y-93436262D01*
X172166262Y-93306028D01*
X172268586Y-93152889D01*
X172339068Y-92982729D01*
X172375000Y-92802089D01*
X172375000Y-92617911D01*
X172339068Y-92437271D01*
X172268586Y-92267111D01*
X172166262Y-92113972D01*
X172127290Y-92075000D01*
X172166262Y-92036028D01*
X172268586Y-91882889D01*
X172339068Y-91712729D01*
X172375000Y-91532089D01*
X172375000Y-91347911D01*
X172339068Y-91167271D01*
X172268586Y-90997111D01*
X172166262Y-90843972D01*
X172127290Y-90805000D01*
X172166262Y-90766028D01*
X172268586Y-90612889D01*
X172339068Y-90442729D01*
X172375000Y-90262089D01*
X172375000Y-90077911D01*
X172339068Y-89897271D01*
X172268586Y-89727111D01*
X172166262Y-89573972D01*
X172127290Y-89535000D01*
X172166262Y-89496028D01*
X172268586Y-89342889D01*
X172339068Y-89172729D01*
X172375000Y-88992089D01*
X172375000Y-88827000D01*
X176505465Y-88827000D01*
X176484000Y-88934911D01*
G04 #@! TA.AperFunction,Conductor*
D22*
G36*
X176484000Y-88934911D02*
G01*
X176484000Y-89119089D01*
X176519932Y-89299729D01*
X176590414Y-89469889D01*
X176692738Y-89623028D01*
X176822972Y-89753262D01*
X176976111Y-89855586D01*
X177146271Y-89926068D01*
X177326911Y-89962000D01*
X177511089Y-89962000D01*
X177691729Y-89926068D01*
X177861889Y-89855586D01*
X178015028Y-89753262D01*
X178145262Y-89623028D01*
X178247586Y-89469889D01*
X178318068Y-89299729D01*
X178354000Y-89119089D01*
X178354000Y-88934911D01*
X178332535Y-88827000D01*
X182913832Y-88827000D01*
X182978569Y-88891476D01*
X183034960Y-88941342D01*
X183139990Y-89008158D01*
X183251942Y-89064802D01*
X183321010Y-89094748D01*
X183441573Y-89125740D01*
X183565566Y-89144916D01*
X183665185Y-89152371D01*
X187275001Y-89137775D01*
X187275001Y-93345000D01*
X184042000Y-93345000D01*
X183942666Y-93352818D01*
X183819059Y-93372395D01*
X183746027Y-93388418D01*
X183630108Y-93433789D01*
X183518601Y-93490605D01*
X183454099Y-93528410D01*
X183389198Y-93581673D01*
X183362240Y-93557718D01*
X183257399Y-93490605D01*
X183145892Y-93433789D01*
X183077389Y-93403825D01*
X182956941Y-93372395D01*
X182833334Y-93352818D01*
X182734000Y-93345000D01*
X179597000Y-93345000D01*
X179497666Y-93352818D01*
X179374059Y-93372395D01*
X179301027Y-93388418D01*
X179185108Y-93433789D01*
X179073601Y-93490605D01*
X179009099Y-93528410D01*
X178912873Y-93607380D01*
X178867253Y-93653000D01*
X178494162Y-93653000D01*
X178399262Y-93510972D01*
X178269028Y-93380738D01*
X178115889Y-93278414D01*
X177945729Y-93207932D01*
X177765089Y-93172000D01*
X177580911Y-93172000D01*
X177400271Y-93207932D01*
X177230111Y-93278414D01*
X177076972Y-93380738D01*
X176946738Y-93510972D01*
X176851838Y-93653000D01*
X176652307Y-93653000D01*
X176612089Y-93645000D01*
X176427911Y-93645000D01*
X176387693Y-93653000D01*
X175382307Y-93653000D01*
X175342089Y-93645000D01*
X175157911Y-93645000D01*
X175117693Y-93653000D01*
X174122307Y-93653000D01*
X174082089Y-93645000D01*
X173897911Y-93645000D01*
X173857693Y-93653000D01*
X171859992Y-93653000D01*
X171766129Y-93638134D01*
X171710108Y-93609589D01*
X171712729Y-93609068D01*
X171882889Y-93538586D01*
X172036028Y-93436262D01*
X172166262Y-93306028D01*
X172268586Y-93152889D01*
X172339068Y-92982729D01*
X172375000Y-92802089D01*
X172375000Y-92617911D01*
X172339068Y-92437271D01*
X172268586Y-92267111D01*
X172166262Y-92113972D01*
X172127290Y-92075000D01*
X172166262Y-92036028D01*
X172268586Y-91882889D01*
X172339068Y-91712729D01*
X172375000Y-91532089D01*
X172375000Y-91347911D01*
X172339068Y-91167271D01*
X172268586Y-90997111D01*
X172166262Y-90843972D01*
X172127290Y-90805000D01*
X172166262Y-90766028D01*
X172268586Y-90612889D01*
X172339068Y-90442729D01*
X172375000Y-90262089D01*
X172375000Y-90077911D01*
X172339068Y-89897271D01*
X172268586Y-89727111D01*
X172166262Y-89573972D01*
X172127290Y-89535000D01*
X172166262Y-89496028D01*
X172268586Y-89342889D01*
X172339068Y-89172729D01*
X172375000Y-88992089D01*
X172375000Y-88827000D01*
X176505465Y-88827000D01*
X176484000Y-88934911D01*
G37*
G04 #@! TD.AperFunction*
G04 #@! TD*
D21*
G04 #@! TO.N,/U*
X187275001Y-88375769D02*
X183672124Y-88390336D01*
X183577963Y-88375774D01*
X183502005Y-88337342D01*
X183470176Y-88305641D01*
X183496689Y-88264564D01*
X183553730Y-88153648D01*
X183583713Y-88085894D01*
X183615725Y-87965598D01*
X183635830Y-87842506D01*
X183644125Y-87743552D01*
X183702834Y-76798916D01*
X183695497Y-76699202D01*
X183676452Y-76575083D01*
X183660599Y-76501321D01*
X183615665Y-76385232D01*
X183559077Y-76273134D01*
X183521139Y-76207925D01*
X183442427Y-76111488D01*
X183423666Y-76092626D01*
X183441155Y-76058199D01*
X183500927Y-75998186D01*
X183576291Y-75959517D01*
X183669863Y-75944348D01*
X187275000Y-75929771D01*
X187275001Y-88375769D01*
G04 #@! TA.AperFunction,Conductor*
D22*
G36*
X187275001Y-88375769D02*
G01*
X183672124Y-88390336D01*
X183577963Y-88375774D01*
X183502005Y-88337342D01*
X183470176Y-88305641D01*
X183496689Y-88264564D01*
X183553730Y-88153648D01*
X183583713Y-88085894D01*
X183615725Y-87965598D01*
X183635830Y-87842506D01*
X183644125Y-87743552D01*
X183702834Y-76798916D01*
X183695497Y-76699202D01*
X183676452Y-76575083D01*
X183660599Y-76501321D01*
X183615665Y-76385232D01*
X183559077Y-76273134D01*
X183521139Y-76207925D01*
X183442427Y-76111488D01*
X183423666Y-76092626D01*
X183441155Y-76058199D01*
X183500927Y-75998186D01*
X183576291Y-75959517D01*
X183669863Y-75944348D01*
X187275000Y-75929771D01*
X187275001Y-88375769D01*
G37*
G04 #@! TD.AperFunction*
G04 #@! TD*
D21*
G04 #@! TO.N,Net-(C4-Pad1)*
X182930113Y-78795536D02*
X182771729Y-78729932D01*
X182591089Y-78694000D01*
X182406911Y-78694000D01*
X182226271Y-78729932D01*
X182056111Y-78800414D01*
X181902972Y-78902738D01*
X181772738Y-79032972D01*
X181670414Y-79186111D01*
X181599932Y-79356271D01*
X181564000Y-79536911D01*
X181564000Y-79721089D01*
X181599932Y-79901729D01*
X181670414Y-80071889D01*
X181772738Y-80225028D01*
X181902972Y-80355262D01*
X182056111Y-80457586D01*
X182226271Y-80528068D01*
X182406911Y-80564000D01*
X182591089Y-80564000D01*
X182771729Y-80528068D01*
X182921151Y-80466176D01*
X182882189Y-87729504D01*
X182866921Y-87822983D01*
X182828216Y-87898245D01*
X182768209Y-87957932D01*
X182692739Y-87996233D01*
X182599179Y-88011000D01*
X174533250Y-88011000D01*
X174438505Y-87995845D01*
X174362301Y-87956576D01*
X174302150Y-87895500D01*
X174264048Y-87818703D01*
X174250342Y-87723736D01*
X174300929Y-84411819D01*
X174316577Y-84320108D01*
X174354703Y-84246231D01*
X174413400Y-84187354D01*
X174487161Y-84149001D01*
X174578818Y-84133075D01*
X177409660Y-84081178D01*
X177429266Y-84079291D01*
X177551106Y-84057927D01*
X177575089Y-84051244D01*
X177588276Y-84045244D01*
X177697763Y-83987676D01*
X177718557Y-83973985D01*
X177729281Y-83964243D01*
X177815944Y-83875977D01*
X177831561Y-83856588D01*
X177838795Y-83844034D01*
X177894346Y-83733510D01*
X177903293Y-83710277D01*
X177906346Y-83696114D01*
X177925473Y-83573903D01*
X177927000Y-83554266D01*
X177927000Y-79295881D01*
X177942729Y-79199410D01*
X177983429Y-79122154D01*
X178046561Y-79061826D01*
X178125586Y-79024676D01*
X178222674Y-79013344D01*
X178836070Y-79041225D01*
X178856561Y-79040500D01*
X178984428Y-79025575D01*
X179008754Y-79020278D01*
X179023734Y-79014365D01*
X179140238Y-78959597D01*
X179161622Y-78946848D01*
X179173948Y-78936482D01*
X179267022Y-78847543D01*
X179283249Y-78828662D01*
X179291644Y-78814917D01*
X179351646Y-78701020D01*
X179361035Y-78677962D01*
X179364629Y-78662264D01*
X179385345Y-78535206D01*
X179387000Y-78514769D01*
X179387000Y-77096999D01*
X182939224Y-77096999D01*
X182930113Y-78795536D01*
G04 #@! TA.AperFunction,Conductor*
D22*
G36*
X182930113Y-78795536D02*
G01*
X182771729Y-78729932D01*
X182591089Y-78694000D01*
X182406911Y-78694000D01*
X182226271Y-78729932D01*
X182056111Y-78800414D01*
X181902972Y-78902738D01*
X181772738Y-79032972D01*
X181670414Y-79186111D01*
X181599932Y-79356271D01*
X181564000Y-79536911D01*
X181564000Y-79721089D01*
X181599932Y-79901729D01*
X181670414Y-80071889D01*
X181772738Y-80225028D01*
X181902972Y-80355262D01*
X182056111Y-80457586D01*
X182226271Y-80528068D01*
X182406911Y-80564000D01*
X182591089Y-80564000D01*
X182771729Y-80528068D01*
X182921151Y-80466176D01*
X182882189Y-87729504D01*
X182866921Y-87822983D01*
X182828216Y-87898245D01*
X182768209Y-87957932D01*
X182692739Y-87996233D01*
X182599179Y-88011000D01*
X174533250Y-88011000D01*
X174438505Y-87995845D01*
X174362301Y-87956576D01*
X174302150Y-87895500D01*
X174264048Y-87818703D01*
X174250342Y-87723736D01*
X174300929Y-84411819D01*
X174316577Y-84320108D01*
X174354703Y-84246231D01*
X174413400Y-84187354D01*
X174487161Y-84149001D01*
X174578818Y-84133075D01*
X177409660Y-84081178D01*
X177429266Y-84079291D01*
X177551106Y-84057927D01*
X177575089Y-84051244D01*
X177588276Y-84045244D01*
X177697763Y-83987676D01*
X177718557Y-83973985D01*
X177729281Y-83964243D01*
X177815944Y-83875977D01*
X177831561Y-83856588D01*
X177838795Y-83844034D01*
X177894346Y-83733510D01*
X177903293Y-83710277D01*
X177906346Y-83696114D01*
X177925473Y-83573903D01*
X177927000Y-83554266D01*
X177927000Y-79295881D01*
X177942729Y-79199410D01*
X177983429Y-79122154D01*
X178046561Y-79061826D01*
X178125586Y-79024676D01*
X178222674Y-79013344D01*
X178836070Y-79041225D01*
X178856561Y-79040500D01*
X178984428Y-79025575D01*
X179008754Y-79020278D01*
X179023734Y-79014365D01*
X179140238Y-78959597D01*
X179161622Y-78946848D01*
X179173948Y-78936482D01*
X179267022Y-78847543D01*
X179283249Y-78828662D01*
X179291644Y-78814917D01*
X179351646Y-78701020D01*
X179361035Y-78677962D01*
X179364629Y-78662264D01*
X179385345Y-78535206D01*
X179387000Y-78514769D01*
X179387000Y-77096999D01*
X182939224Y-77096999D01*
X182930113Y-78795536D01*
G37*
G04 #@! TD.AperFunction*
G04 #@! TD*
D21*
G04 #@! TO.N,/+VM*
X170743745Y-78056194D02*
X170766761Y-78084239D01*
X170794805Y-78107254D01*
X170878679Y-78176088D01*
X171006365Y-78244338D01*
X171144914Y-78286366D01*
X171288999Y-78300557D01*
X171325104Y-78297001D01*
X177292000Y-78297001D01*
X177292000Y-78799753D01*
X177258907Y-78862571D01*
X177225969Y-78936049D01*
X177193992Y-79056354D01*
X177173276Y-79183412D01*
X177165000Y-79285595D01*
X177165000Y-82630477D01*
X177102871Y-82662134D01*
X177009008Y-82677000D01*
X172240992Y-82677000D01*
X172147129Y-82662134D01*
X172071467Y-82623582D01*
X172011418Y-82563533D01*
X171972866Y-82487871D01*
X171958000Y-82394008D01*
X171958000Y-80410000D01*
X171956436Y-80390133D01*
X171936859Y-80266526D01*
X171930573Y-80242437D01*
X171924581Y-80228736D01*
X171867765Y-80117229D01*
X171854342Y-80096261D01*
X171844410Y-80085083D01*
X171755917Y-79996590D01*
X171736671Y-79980796D01*
X171723771Y-79973235D01*
X171612264Y-79916419D01*
X171589080Y-79907345D01*
X171574474Y-79904141D01*
X171450867Y-79884564D01*
X171431000Y-79883000D01*
X165544857Y-79883000D01*
X165445292Y-79866211D01*
X165366196Y-79822884D01*
X165305677Y-79756012D01*
X165270435Y-79672997D01*
X165264364Y-79583014D01*
X165288134Y-79496015D01*
X165345212Y-79412728D01*
X167090606Y-77604999D01*
X170292551Y-77604999D01*
X170743745Y-78056194D01*
G04 #@! TA.AperFunction,Conductor*
D22*
G36*
X170743745Y-78056194D02*
G01*
X170766761Y-78084239D01*
X170794805Y-78107254D01*
X170878679Y-78176088D01*
X171006365Y-78244338D01*
X171144914Y-78286366D01*
X171288999Y-78300557D01*
X171325104Y-78297001D01*
X177292000Y-78297001D01*
X177292000Y-78799753D01*
X177258907Y-78862571D01*
X177225969Y-78936049D01*
X177193992Y-79056354D01*
X177173276Y-79183412D01*
X177165000Y-79285595D01*
X177165000Y-82630477D01*
X177102871Y-82662134D01*
X177009008Y-82677000D01*
X172240992Y-82677000D01*
X172147129Y-82662134D01*
X172071467Y-82623582D01*
X172011418Y-82563533D01*
X171972866Y-82487871D01*
X171958000Y-82394008D01*
X171958000Y-80410000D01*
X171956436Y-80390133D01*
X171936859Y-80266526D01*
X171930573Y-80242437D01*
X171924581Y-80228736D01*
X171867765Y-80117229D01*
X171854342Y-80096261D01*
X171844410Y-80085083D01*
X171755917Y-79996590D01*
X171736671Y-79980796D01*
X171723771Y-79973235D01*
X171612264Y-79916419D01*
X171589080Y-79907345D01*
X171574474Y-79904141D01*
X171450867Y-79884564D01*
X171431000Y-79883000D01*
X165544857Y-79883000D01*
X165445292Y-79866211D01*
X165366196Y-79822884D01*
X165305677Y-79756012D01*
X165270435Y-79672997D01*
X165264364Y-79583014D01*
X165288134Y-79496015D01*
X165345212Y-79412728D01*
X167090606Y-77604999D01*
X170292551Y-77604999D01*
X170743745Y-78056194D01*
G37*
G04 #@! TD.AperFunction*
G04 #@! TD*
D21*
G04 #@! TO.N,/+VM*
X171612691Y-67451866D02*
X171688353Y-67490418D01*
X171748402Y-67550467D01*
X171786954Y-67626129D01*
X171801820Y-67719992D01*
X171801820Y-70837008D01*
X171786954Y-70930871D01*
X171748402Y-71006533D01*
X171688353Y-71066582D01*
X171612691Y-71105134D01*
X171518828Y-71120000D01*
X170040524Y-71120000D01*
X170018732Y-71121884D01*
X169883491Y-71145440D01*
X169859500Y-71152095D01*
X169842471Y-71160176D01*
X169723159Y-71228071D01*
X169705150Y-71240487D01*
X164943784Y-75168613D01*
X164869130Y-75213935D01*
X164793631Y-75233798D01*
X164715599Y-75231370D01*
X164632683Y-75203942D01*
X162502820Y-74139011D01*
X162432494Y-74090407D01*
X162384212Y-74031172D01*
X162350789Y-73952489D01*
X161967608Y-72515559D01*
X161957718Y-72422323D01*
X161974705Y-72340287D01*
X162015898Y-72267337D01*
X162084695Y-72203643D01*
X169096654Y-67488705D01*
X169177575Y-67450215D01*
X169266214Y-67437000D01*
X171518828Y-67437000D01*
X171612691Y-67451866D01*
G04 #@! TA.AperFunction,Conductor*
D22*
G36*
X171612691Y-67451866D02*
G01*
X171688353Y-67490418D01*
X171748402Y-67550467D01*
X171786954Y-67626129D01*
X171801820Y-67719992D01*
X171801820Y-70837008D01*
X171786954Y-70930871D01*
X171748402Y-71006533D01*
X171688353Y-71066582D01*
X171612691Y-71105134D01*
X171518828Y-71120000D01*
X170040524Y-71120000D01*
X170018732Y-71121884D01*
X169883491Y-71145440D01*
X169859500Y-71152095D01*
X169842471Y-71160176D01*
X169723159Y-71228071D01*
X169705150Y-71240487D01*
X164943784Y-75168613D01*
X164869130Y-75213935D01*
X164793631Y-75233798D01*
X164715599Y-75231370D01*
X164632683Y-75203942D01*
X162502820Y-74139011D01*
X162432494Y-74090407D01*
X162384212Y-74031172D01*
X162350789Y-73952489D01*
X161967608Y-72515559D01*
X161957718Y-72422323D01*
X161974705Y-72340287D01*
X162015898Y-72267337D01*
X162084695Y-72203643D01*
X169096654Y-67488705D01*
X169177575Y-67450215D01*
X169266214Y-67437000D01*
X171518828Y-67437000D01*
X171612691Y-67451866D01*
G37*
G04 #@! TD.AperFunction*
G04 #@! TD*
D21*
G04 #@! TO.N,GND*
X173274111Y-104098586D02*
X173355000Y-104132091D01*
X173355000Y-105899000D01*
X173358620Y-105945000D01*
X171961569Y-105945000D01*
X172027028Y-105901262D01*
X172157262Y-105771028D01*
X172259586Y-105617889D01*
X172330068Y-105447729D01*
X172366000Y-105267089D01*
X172366000Y-105082911D01*
X172330068Y-104902271D01*
X172259586Y-104732111D01*
X172157262Y-104578972D01*
X172027028Y-104448738D01*
X171873889Y-104346414D01*
X171703729Y-104275932D01*
X171523089Y-104240000D01*
X171338911Y-104240000D01*
X171158271Y-104275932D01*
X170988111Y-104346414D01*
X170848049Y-104440000D01*
X165219447Y-104440000D01*
X164784447Y-104005000D01*
X173134049Y-104005000D01*
X173274111Y-104098586D01*
G04 #@! TA.AperFunction,Conductor*
D22*
G36*
X173274111Y-104098586D02*
G01*
X173355000Y-104132091D01*
X173355000Y-105899000D01*
X173358620Y-105945000D01*
X171961569Y-105945000D01*
X172027028Y-105901262D01*
X172157262Y-105771028D01*
X172259586Y-105617889D01*
X172330068Y-105447729D01*
X172366000Y-105267089D01*
X172366000Y-105082911D01*
X172330068Y-104902271D01*
X172259586Y-104732111D01*
X172157262Y-104578972D01*
X172027028Y-104448738D01*
X171873889Y-104346414D01*
X171703729Y-104275932D01*
X171523089Y-104240000D01*
X171338911Y-104240000D01*
X171158271Y-104275932D01*
X170988111Y-104346414D01*
X170848049Y-104440000D01*
X165219447Y-104440000D01*
X164784447Y-104005000D01*
X173134049Y-104005000D01*
X173274111Y-104098586D01*
G37*
G04 #@! TD.AperFunction*
D21*
X130709528Y-75074851D02*
X130791595Y-75228387D01*
X130902038Y-75362962D01*
X131036613Y-75473405D01*
X131190149Y-75555472D01*
X131356745Y-75606008D01*
X131529999Y-75623072D01*
X132230001Y-75623072D01*
X132403255Y-75606008D01*
X132569851Y-75555472D01*
X132723387Y-75473405D01*
X132857962Y-75362962D01*
X132968405Y-75228387D01*
X132970810Y-75223888D01*
X133002499Y-75262502D01*
X133190552Y-75416833D01*
X133375737Y-75515816D01*
X132982808Y-75908746D01*
X132954762Y-75931763D01*
X132862913Y-76043681D01*
X132794663Y-76171368D01*
X132775137Y-76235738D01*
X132752635Y-76309915D01*
X132738444Y-76454000D01*
X132742000Y-76490106D01*
X132742000Y-76887049D01*
X132648414Y-77027111D01*
X132577932Y-77197271D01*
X132542000Y-77377911D01*
X132542000Y-77562089D01*
X132577932Y-77742729D01*
X132648414Y-77912889D01*
X132750738Y-78066028D01*
X132880972Y-78196262D01*
X132923000Y-78224344D01*
X132923000Y-78324089D01*
X132958932Y-78504729D01*
X133017004Y-78644928D01*
X132089999Y-78644928D01*
X131916745Y-78661992D01*
X131750149Y-78712528D01*
X131596613Y-78794595D01*
X131462038Y-78905038D01*
X131351595Y-79039613D01*
X131269528Y-79193149D01*
X131218992Y-79359745D01*
X131201928Y-79532999D01*
X131201928Y-80233001D01*
X131218992Y-80406255D01*
X131269528Y-80572851D01*
X131351595Y-80726387D01*
X131462038Y-80860962D01*
X131596613Y-80971405D01*
X131750149Y-81053472D01*
X131916745Y-81104008D01*
X132089999Y-81121072D01*
X133340001Y-81121072D01*
X133513255Y-81104008D01*
X133679851Y-81053472D01*
X133833387Y-80971405D01*
X133967962Y-80860962D01*
X134078405Y-80726387D01*
X134160472Y-80572851D01*
X134211008Y-80406255D01*
X134228072Y-80233001D01*
X134228072Y-79532999D01*
X134211008Y-79359745D01*
X134160472Y-79193149D01*
X134127620Y-79131687D01*
X134130729Y-79131068D01*
X134300889Y-79060586D01*
X134440951Y-78967000D01*
X135203556Y-78967000D01*
X135917242Y-79680687D01*
X135823414Y-79821111D01*
X135752932Y-79991271D01*
X135717000Y-80171911D01*
X135717000Y-80356089D01*
X135752932Y-80536729D01*
X135823414Y-80706889D01*
X135917000Y-80846951D01*
X135917001Y-88245887D01*
X135913444Y-88282002D01*
X135927635Y-88426087D01*
X135958363Y-88527380D01*
X135969664Y-88564635D01*
X136037914Y-88692322D01*
X136129763Y-88804240D01*
X136157808Y-88827256D01*
X144344744Y-97014193D01*
X144367760Y-97042238D01*
X144479678Y-97134087D01*
X144607365Y-97202337D01*
X144745913Y-97244365D01*
X144853893Y-97255000D01*
X144853902Y-97255000D01*
X144889997Y-97258555D01*
X144926092Y-97255000D01*
X147904554Y-97255000D01*
X148349806Y-97700253D01*
X148349812Y-97700258D01*
X148679741Y-98030187D01*
X148702762Y-98058238D01*
X148814680Y-98150087D01*
X148942367Y-98218337D01*
X149080915Y-98260365D01*
X149188895Y-98271000D01*
X149188904Y-98271000D01*
X149224999Y-98274555D01*
X149261094Y-98271000D01*
X149777049Y-98271000D01*
X149917111Y-98364586D01*
X150087271Y-98435068D01*
X150267911Y-98471000D01*
X150452089Y-98471000D01*
X150632729Y-98435068D01*
X150802889Y-98364586D01*
X150956028Y-98262262D01*
X151086262Y-98132028D01*
X151188586Y-97978889D01*
X151259068Y-97808729D01*
X151295000Y-97628089D01*
X151295000Y-97443911D01*
X151259068Y-97263271D01*
X151188586Y-97093111D01*
X151086262Y-96939972D01*
X150956028Y-96809738D01*
X150802889Y-96707414D01*
X150750748Y-96685816D01*
X150759068Y-96665729D01*
X150795000Y-96485089D01*
X150795000Y-96300911D01*
X150759068Y-96120271D01*
X150688586Y-95950111D01*
X150586262Y-95796972D01*
X150456028Y-95666738D01*
X150302889Y-95564414D01*
X150295001Y-95561147D01*
X150295001Y-89056443D01*
X150332434Y-89019010D01*
X152021584Y-89019010D01*
X152057689Y-89022566D01*
X152093794Y-89019010D01*
X152201774Y-89008375D01*
X152340322Y-88966347D01*
X152468009Y-88898097D01*
X152579927Y-88806248D01*
X152602948Y-88778197D01*
X152786202Y-88594943D01*
X152814247Y-88571927D01*
X152906097Y-88460009D01*
X152974347Y-88332322D01*
X153016375Y-88193774D01*
X153027010Y-88085794D01*
X153027010Y-88085793D01*
X153030566Y-88049689D01*
X153027010Y-88013584D01*
X153027010Y-85973202D01*
X153069911Y-85981736D01*
X153254089Y-85981736D01*
X153434729Y-85945804D01*
X153604889Y-85875322D01*
X153758028Y-85772998D01*
X153787039Y-85743987D01*
X153857414Y-85913889D01*
X153951001Y-86053952D01*
X153951000Y-95143595D01*
X153947444Y-95179700D01*
X153959909Y-95306262D01*
X153961635Y-95323784D01*
X154003663Y-95462332D01*
X154071913Y-95590019D01*
X154163762Y-95701937D01*
X154191808Y-95724954D01*
X157371154Y-98904301D01*
X157237271Y-98930932D01*
X157067111Y-99001414D01*
X156913972Y-99103738D01*
X156783738Y-99233972D01*
X156681414Y-99387111D01*
X156610932Y-99557271D01*
X156575000Y-99737911D01*
X156575000Y-99922089D01*
X156610932Y-100102729D01*
X156646121Y-100187683D01*
X156532089Y-100165000D01*
X156347911Y-100165000D01*
X156167271Y-100200932D01*
X155997111Y-100271414D01*
X155955000Y-100299552D01*
X155912889Y-100271414D01*
X155742729Y-100200932D01*
X155562089Y-100165000D01*
X155377911Y-100165000D01*
X155197271Y-100200932D01*
X155027111Y-100271414D01*
X154873972Y-100373738D01*
X154835000Y-100412710D01*
X154796028Y-100373738D01*
X154642889Y-100271414D01*
X154472729Y-100200932D01*
X154292089Y-100165000D01*
X154107911Y-100165000D01*
X153927271Y-100200932D01*
X153757111Y-100271414D01*
X153603972Y-100373738D01*
X153473738Y-100503972D01*
X153371414Y-100657111D01*
X153300932Y-100827271D01*
X153265000Y-101007911D01*
X153265000Y-101192089D01*
X153300932Y-101372729D01*
X153371414Y-101542889D01*
X153473738Y-101696028D01*
X153603972Y-101826262D01*
X153757111Y-101928586D01*
X153927271Y-101999068D01*
X154107911Y-102035000D01*
X154292089Y-102035000D01*
X154472729Y-101999068D01*
X154642889Y-101928586D01*
X154796028Y-101826262D01*
X154835000Y-101787290D01*
X154873972Y-101826262D01*
X155027111Y-101928586D01*
X155197271Y-101999068D01*
X155377911Y-102035000D01*
X155562089Y-102035000D01*
X155742729Y-101999068D01*
X155912889Y-101928586D01*
X155955000Y-101900448D01*
X155997111Y-101928586D01*
X156167271Y-101999068D01*
X156347911Y-102035000D01*
X156532089Y-102035000D01*
X156712729Y-101999068D01*
X156882889Y-101928586D01*
X156975000Y-101867040D01*
X157067111Y-101928586D01*
X157237271Y-101999068D01*
X157417911Y-102035000D01*
X157602089Y-102035000D01*
X157782729Y-101999068D01*
X157952889Y-101928586D01*
X158106028Y-101826262D01*
X158236262Y-101696028D01*
X158259673Y-101660991D01*
X158277738Y-101688028D01*
X158407972Y-101818262D01*
X158561111Y-101920586D01*
X158731271Y-101991068D01*
X158911911Y-102027000D01*
X159096089Y-102027000D01*
X159276729Y-101991068D01*
X159446889Y-101920586D01*
X159600028Y-101818262D01*
X159730262Y-101688028D01*
X159832586Y-101534889D01*
X159903068Y-101364729D01*
X159939000Y-101184089D01*
X159939000Y-100999911D01*
X159903068Y-100819271D01*
X159832586Y-100649111D01*
X159739000Y-100509049D01*
X159739000Y-100397867D01*
X159768104Y-100395001D01*
X160271896Y-100395001D01*
X160308001Y-100398557D01*
X160344106Y-100395001D01*
X160452086Y-100384366D01*
X160590634Y-100342338D01*
X160718321Y-100274088D01*
X160830239Y-100182239D01*
X160853260Y-100154188D01*
X161050449Y-99956999D01*
X163157535Y-99956999D01*
X163184932Y-100094729D01*
X163255414Y-100264889D01*
X163357738Y-100418028D01*
X163487972Y-100548262D01*
X163641111Y-100650586D01*
X163811271Y-100721068D01*
X163976485Y-100753932D01*
X164646747Y-101424194D01*
X164669763Y-101452239D01*
X164781681Y-101544088D01*
X164909368Y-101612338D01*
X165005887Y-101641617D01*
X165047915Y-101654366D01*
X165192000Y-101668557D01*
X165228105Y-101665001D01*
X173355000Y-101665001D01*
X173355000Y-102407909D01*
X173274111Y-102441414D01*
X173134049Y-102535000D01*
X164814447Y-102535000D01*
X163504932Y-101225485D01*
X163472068Y-101060271D01*
X163401586Y-100890111D01*
X163299262Y-100736972D01*
X163169028Y-100606738D01*
X163015889Y-100504414D01*
X162845729Y-100433932D01*
X162665089Y-100398000D01*
X162480911Y-100398000D01*
X162300271Y-100433932D01*
X162130111Y-100504414D01*
X161976972Y-100606738D01*
X161846738Y-100736972D01*
X161744414Y-100890111D01*
X161673932Y-101060271D01*
X161638000Y-101240911D01*
X161638000Y-101425089D01*
X161673932Y-101605729D01*
X161744414Y-101775889D01*
X161846738Y-101929028D01*
X161890432Y-101972722D01*
X161861972Y-101991738D01*
X161731738Y-102121972D01*
X161629414Y-102275111D01*
X161558932Y-102445271D01*
X161523000Y-102625911D01*
X161523000Y-102810089D01*
X161558932Y-102990729D01*
X161629414Y-103160889D01*
X161731738Y-103314028D01*
X161861972Y-103444262D01*
X162015111Y-103546586D01*
X162185271Y-103617068D01*
X162350485Y-103649932D01*
X164369746Y-105669193D01*
X164392762Y-105697238D01*
X164420806Y-105720253D01*
X164504680Y-105789087D01*
X164632366Y-105857337D01*
X164770915Y-105899365D01*
X164915000Y-105913556D01*
X164951105Y-105910000D01*
X170848049Y-105910000D01*
X170900431Y-105945000D01*
X130695000Y-105945000D01*
X130695000Y-94899999D01*
X131836928Y-94899999D01*
X131836928Y-95600001D01*
X131853992Y-95773255D01*
X131904528Y-95939851D01*
X131986595Y-96093387D01*
X132097038Y-96227962D01*
X132231613Y-96338405D01*
X132385149Y-96420472D01*
X132551745Y-96471008D01*
X132724999Y-96488072D01*
X133975001Y-96488072D01*
X134148255Y-96471008D01*
X134314851Y-96420472D01*
X134468387Y-96338405D01*
X134602962Y-96227962D01*
X134713405Y-96093387D01*
X134795472Y-95939851D01*
X134846008Y-95773255D01*
X134863072Y-95600001D01*
X134863072Y-94899999D01*
X134846008Y-94726745D01*
X134795472Y-94560149D01*
X134713405Y-94406613D01*
X134602962Y-94272038D01*
X134468387Y-94161595D01*
X134314851Y-94079528D01*
X134148255Y-94028992D01*
X133975001Y-94011928D01*
X132724999Y-94011928D01*
X132551745Y-94028992D01*
X132385149Y-94079528D01*
X132231613Y-94161595D01*
X132097038Y-94272038D01*
X131986595Y-94406613D01*
X131904528Y-94560149D01*
X131853992Y-94726745D01*
X131836928Y-94899999D01*
X130695000Y-94899999D01*
X130695000Y-75026958D01*
X130709528Y-75074851D01*
G04 #@! TA.AperFunction,Conductor*
D22*
G36*
X130709528Y-75074851D02*
G01*
X130791595Y-75228387D01*
X130902038Y-75362962D01*
X131036613Y-75473405D01*
X131190149Y-75555472D01*
X131356745Y-75606008D01*
X131529999Y-75623072D01*
X132230001Y-75623072D01*
X132403255Y-75606008D01*
X132569851Y-75555472D01*
X132723387Y-75473405D01*
X132857962Y-75362962D01*
X132968405Y-75228387D01*
X132970810Y-75223888D01*
X133002499Y-75262502D01*
X133190552Y-75416833D01*
X133375737Y-75515816D01*
X132982808Y-75908746D01*
X132954762Y-75931763D01*
X132862913Y-76043681D01*
X132794663Y-76171368D01*
X132775137Y-76235738D01*
X132752635Y-76309915D01*
X132738444Y-76454000D01*
X132742000Y-76490106D01*
X132742000Y-76887049D01*
X132648414Y-77027111D01*
X132577932Y-77197271D01*
X132542000Y-77377911D01*
X132542000Y-77562089D01*
X132577932Y-77742729D01*
X132648414Y-77912889D01*
X132750738Y-78066028D01*
X132880972Y-78196262D01*
X132923000Y-78224344D01*
X132923000Y-78324089D01*
X132958932Y-78504729D01*
X133017004Y-78644928D01*
X132089999Y-78644928D01*
X131916745Y-78661992D01*
X131750149Y-78712528D01*
X131596613Y-78794595D01*
X131462038Y-78905038D01*
X131351595Y-79039613D01*
X131269528Y-79193149D01*
X131218992Y-79359745D01*
X131201928Y-79532999D01*
X131201928Y-80233001D01*
X131218992Y-80406255D01*
X131269528Y-80572851D01*
X131351595Y-80726387D01*
X131462038Y-80860962D01*
X131596613Y-80971405D01*
X131750149Y-81053472D01*
X131916745Y-81104008D01*
X132089999Y-81121072D01*
X133340001Y-81121072D01*
X133513255Y-81104008D01*
X133679851Y-81053472D01*
X133833387Y-80971405D01*
X133967962Y-80860962D01*
X134078405Y-80726387D01*
X134160472Y-80572851D01*
X134211008Y-80406255D01*
X134228072Y-80233001D01*
X134228072Y-79532999D01*
X134211008Y-79359745D01*
X134160472Y-79193149D01*
X134127620Y-79131687D01*
X134130729Y-79131068D01*
X134300889Y-79060586D01*
X134440951Y-78967000D01*
X135203556Y-78967000D01*
X135917242Y-79680687D01*
X135823414Y-79821111D01*
X135752932Y-79991271D01*
X135717000Y-80171911D01*
X135717000Y-80356089D01*
X135752932Y-80536729D01*
X135823414Y-80706889D01*
X135917000Y-80846951D01*
X135917001Y-88245887D01*
X135913444Y-88282002D01*
X135927635Y-88426087D01*
X135958363Y-88527380D01*
X135969664Y-88564635D01*
X136037914Y-88692322D01*
X136129763Y-88804240D01*
X136157808Y-88827256D01*
X144344744Y-97014193D01*
X144367760Y-97042238D01*
X144479678Y-97134087D01*
X144607365Y-97202337D01*
X144745913Y-97244365D01*
X144853893Y-97255000D01*
X144853902Y-97255000D01*
X144889997Y-97258555D01*
X144926092Y-97255000D01*
X147904554Y-97255000D01*
X148349806Y-97700253D01*
X148349812Y-97700258D01*
X148679741Y-98030187D01*
X148702762Y-98058238D01*
X148814680Y-98150087D01*
X148942367Y-98218337D01*
X149080915Y-98260365D01*
X149188895Y-98271000D01*
X149188904Y-98271000D01*
X149224999Y-98274555D01*
X149261094Y-98271000D01*
X149777049Y-98271000D01*
X149917111Y-98364586D01*
X150087271Y-98435068D01*
X150267911Y-98471000D01*
X150452089Y-98471000D01*
X150632729Y-98435068D01*
X150802889Y-98364586D01*
X150956028Y-98262262D01*
X151086262Y-98132028D01*
X151188586Y-97978889D01*
X151259068Y-97808729D01*
X151295000Y-97628089D01*
X151295000Y-97443911D01*
X151259068Y-97263271D01*
X151188586Y-97093111D01*
X151086262Y-96939972D01*
X150956028Y-96809738D01*
X150802889Y-96707414D01*
X150750748Y-96685816D01*
X150759068Y-96665729D01*
X150795000Y-96485089D01*
X150795000Y-96300911D01*
X150759068Y-96120271D01*
X150688586Y-95950111D01*
X150586262Y-95796972D01*
X150456028Y-95666738D01*
X150302889Y-95564414D01*
X150295001Y-95561147D01*
X150295001Y-89056443D01*
X150332434Y-89019010D01*
X152021584Y-89019010D01*
X152057689Y-89022566D01*
X152093794Y-89019010D01*
X152201774Y-89008375D01*
X152340322Y-88966347D01*
X152468009Y-88898097D01*
X152579927Y-88806248D01*
X152602948Y-88778197D01*
X152786202Y-88594943D01*
X152814247Y-88571927D01*
X152906097Y-88460009D01*
X152974347Y-88332322D01*
X153016375Y-88193774D01*
X153027010Y-88085794D01*
X153027010Y-88085793D01*
X153030566Y-88049689D01*
X153027010Y-88013584D01*
X153027010Y-85973202D01*
X153069911Y-85981736D01*
X153254089Y-85981736D01*
X153434729Y-85945804D01*
X153604889Y-85875322D01*
X153758028Y-85772998D01*
X153787039Y-85743987D01*
X153857414Y-85913889D01*
X153951001Y-86053952D01*
X153951000Y-95143595D01*
X153947444Y-95179700D01*
X153959909Y-95306262D01*
X153961635Y-95323784D01*
X154003663Y-95462332D01*
X154071913Y-95590019D01*
X154163762Y-95701937D01*
X154191808Y-95724954D01*
X157371154Y-98904301D01*
X157237271Y-98930932D01*
X157067111Y-99001414D01*
X156913972Y-99103738D01*
X156783738Y-99233972D01*
X156681414Y-99387111D01*
X156610932Y-99557271D01*
X156575000Y-99737911D01*
X156575000Y-99922089D01*
X156610932Y-100102729D01*
X156646121Y-100187683D01*
X156532089Y-100165000D01*
X156347911Y-100165000D01*
X156167271Y-100200932D01*
X155997111Y-100271414D01*
X155955000Y-100299552D01*
X155912889Y-100271414D01*
X155742729Y-100200932D01*
X155562089Y-100165000D01*
X155377911Y-100165000D01*
X155197271Y-100200932D01*
X155027111Y-100271414D01*
X154873972Y-100373738D01*
X154835000Y-100412710D01*
X154796028Y-100373738D01*
X154642889Y-100271414D01*
X154472729Y-100200932D01*
X154292089Y-100165000D01*
X154107911Y-100165000D01*
X153927271Y-100200932D01*
X153757111Y-100271414D01*
X153603972Y-100373738D01*
X153473738Y-100503972D01*
X153371414Y-100657111D01*
X153300932Y-100827271D01*
X153265000Y-101007911D01*
X153265000Y-101192089D01*
X153300932Y-101372729D01*
X153371414Y-101542889D01*
X153473738Y-101696028D01*
X153603972Y-101826262D01*
X153757111Y-101928586D01*
X153927271Y-101999068D01*
X154107911Y-102035000D01*
X154292089Y-102035000D01*
X154472729Y-101999068D01*
X154642889Y-101928586D01*
X154796028Y-101826262D01*
X154835000Y-101787290D01*
X154873972Y-101826262D01*
X155027111Y-101928586D01*
X155197271Y-101999068D01*
X155377911Y-102035000D01*
X155562089Y-102035000D01*
X155742729Y-101999068D01*
X155912889Y-101928586D01*
X155955000Y-101900448D01*
X155997111Y-101928586D01*
X156167271Y-101999068D01*
X156347911Y-102035000D01*
X156532089Y-102035000D01*
X156712729Y-101999068D01*
X156882889Y-101928586D01*
X156975000Y-101867040D01*
X157067111Y-101928586D01*
X157237271Y-101999068D01*
X157417911Y-102035000D01*
X157602089Y-102035000D01*
X157782729Y-101999068D01*
X157952889Y-101928586D01*
X158106028Y-101826262D01*
X158236262Y-101696028D01*
X158259673Y-101660991D01*
X158277738Y-101688028D01*
X158407972Y-101818262D01*
X158561111Y-101920586D01*
X158731271Y-101991068D01*
X158911911Y-102027000D01*
X159096089Y-102027000D01*
X159276729Y-101991068D01*
X159446889Y-101920586D01*
X159600028Y-101818262D01*
X159730262Y-101688028D01*
X159832586Y-101534889D01*
X159903068Y-101364729D01*
X159939000Y-101184089D01*
X159939000Y-100999911D01*
X159903068Y-100819271D01*
X159832586Y-100649111D01*
X159739000Y-100509049D01*
X159739000Y-100397867D01*
X159768104Y-100395001D01*
X160271896Y-100395001D01*
X160308001Y-100398557D01*
X160344106Y-100395001D01*
X160452086Y-100384366D01*
X160590634Y-100342338D01*
X160718321Y-100274088D01*
X160830239Y-100182239D01*
X160853260Y-100154188D01*
X161050449Y-99956999D01*
X163157535Y-99956999D01*
X163184932Y-100094729D01*
X163255414Y-100264889D01*
X163357738Y-100418028D01*
X163487972Y-100548262D01*
X163641111Y-100650586D01*
X163811271Y-100721068D01*
X163976485Y-100753932D01*
X164646747Y-101424194D01*
X164669763Y-101452239D01*
X164781681Y-101544088D01*
X164909368Y-101612338D01*
X165005887Y-101641617D01*
X165047915Y-101654366D01*
X165192000Y-101668557D01*
X165228105Y-101665001D01*
X173355000Y-101665001D01*
X173355000Y-102407909D01*
X173274111Y-102441414D01*
X173134049Y-102535000D01*
X164814447Y-102535000D01*
X163504932Y-101225485D01*
X163472068Y-101060271D01*
X163401586Y-100890111D01*
X163299262Y-100736972D01*
X163169028Y-100606738D01*
X163015889Y-100504414D01*
X162845729Y-100433932D01*
X162665089Y-100398000D01*
X162480911Y-100398000D01*
X162300271Y-100433932D01*
X162130111Y-100504414D01*
X161976972Y-100606738D01*
X161846738Y-100736972D01*
X161744414Y-100890111D01*
X161673932Y-101060271D01*
X161638000Y-101240911D01*
X161638000Y-101425089D01*
X161673932Y-101605729D01*
X161744414Y-101775889D01*
X161846738Y-101929028D01*
X161890432Y-101972722D01*
X161861972Y-101991738D01*
X161731738Y-102121972D01*
X161629414Y-102275111D01*
X161558932Y-102445271D01*
X161523000Y-102625911D01*
X161523000Y-102810089D01*
X161558932Y-102990729D01*
X161629414Y-103160889D01*
X161731738Y-103314028D01*
X161861972Y-103444262D01*
X162015111Y-103546586D01*
X162185271Y-103617068D01*
X162350485Y-103649932D01*
X164369746Y-105669193D01*
X164392762Y-105697238D01*
X164420806Y-105720253D01*
X164504680Y-105789087D01*
X164632366Y-105857337D01*
X164770915Y-105899365D01*
X164915000Y-105913556D01*
X164951105Y-105910000D01*
X170848049Y-105910000D01*
X170900431Y-105945000D01*
X130695000Y-105945000D01*
X130695000Y-94899999D01*
X131836928Y-94899999D01*
X131836928Y-95600001D01*
X131853992Y-95773255D01*
X131904528Y-95939851D01*
X131986595Y-96093387D01*
X132097038Y-96227962D01*
X132231613Y-96338405D01*
X132385149Y-96420472D01*
X132551745Y-96471008D01*
X132724999Y-96488072D01*
X133975001Y-96488072D01*
X134148255Y-96471008D01*
X134314851Y-96420472D01*
X134468387Y-96338405D01*
X134602962Y-96227962D01*
X134713405Y-96093387D01*
X134795472Y-95939851D01*
X134846008Y-95773255D01*
X134863072Y-95600001D01*
X134863072Y-94899999D01*
X134846008Y-94726745D01*
X134795472Y-94560149D01*
X134713405Y-94406613D01*
X134602962Y-94272038D01*
X134468387Y-94161595D01*
X134314851Y-94079528D01*
X134148255Y-94028992D01*
X133975001Y-94011928D01*
X132724999Y-94011928D01*
X132551745Y-94028992D01*
X132385149Y-94079528D01*
X132231613Y-94161595D01*
X132097038Y-94272038D01*
X131986595Y-94406613D01*
X131904528Y-94560149D01*
X131853992Y-94726745D01*
X131836928Y-94899999D01*
X130695000Y-94899999D01*
X130695000Y-75026958D01*
X130709528Y-75074851D01*
G37*
G04 #@! TD.AperFunction*
D21*
X163393278Y-81963852D02*
X163382414Y-81980111D01*
X163311932Y-82150271D01*
X163276000Y-82330911D01*
X163276000Y-82515089D01*
X163311932Y-82695729D01*
X163382414Y-82865889D01*
X163484738Y-83019028D01*
X163614972Y-83149262D01*
X163768111Y-83251586D01*
X163938271Y-83322068D01*
X164103485Y-83354932D01*
X164291513Y-83542960D01*
X164176089Y-83520000D01*
X163991911Y-83520000D01*
X163811271Y-83555932D01*
X163641111Y-83626414D01*
X163487972Y-83728738D01*
X163357738Y-83858972D01*
X163255414Y-84012111D01*
X163184932Y-84182271D01*
X163149000Y-84362911D01*
X163149000Y-84547089D01*
X163184932Y-84727729D01*
X163255414Y-84897889D01*
X163357738Y-85051028D01*
X163487972Y-85181262D01*
X163641111Y-85283586D01*
X163811271Y-85354068D01*
X163991911Y-85390000D01*
X164176089Y-85390000D01*
X164356729Y-85354068D01*
X164526889Y-85283586D01*
X164680028Y-85181262D01*
X164810262Y-85051028D01*
X164912586Y-84897889D01*
X164983068Y-84727729D01*
X165019000Y-84547089D01*
X165019000Y-84362911D01*
X164996798Y-84251295D01*
X165064441Y-84306808D01*
X165097679Y-84334086D01*
X165225365Y-84402336D01*
X165363914Y-84444364D01*
X165507999Y-84458555D01*
X165544104Y-84454999D01*
X165562000Y-84454999D01*
X165562000Y-84547089D01*
X165597932Y-84727729D01*
X165668414Y-84897889D01*
X165770738Y-85051028D01*
X165900972Y-85181262D01*
X166054111Y-85283586D01*
X166224271Y-85354068D01*
X166404911Y-85390000D01*
X166589089Y-85390000D01*
X166769729Y-85354068D01*
X166939889Y-85283586D01*
X167093028Y-85181262D01*
X167223262Y-85051028D01*
X167325586Y-84897889D01*
X167396068Y-84727729D01*
X167432000Y-84547089D01*
X167432000Y-84454999D01*
X168229000Y-84454999D01*
X168229000Y-84547089D01*
X168264932Y-84727729D01*
X168335414Y-84897889D01*
X168437738Y-85051028D01*
X168567972Y-85181262D01*
X168721111Y-85283586D01*
X168891271Y-85354068D01*
X169071911Y-85390000D01*
X169256089Y-85390000D01*
X169436729Y-85354068D01*
X169606889Y-85283586D01*
X169760028Y-85181262D01*
X169860923Y-85080367D01*
X170729001Y-85948446D01*
X170729000Y-86271049D01*
X170635414Y-86411111D01*
X170564932Y-86581271D01*
X170529000Y-86761911D01*
X170529000Y-86946089D01*
X170564932Y-87126729D01*
X170635414Y-87296889D01*
X170737738Y-87450028D01*
X170867972Y-87580262D01*
X171021111Y-87682586D01*
X171191271Y-87753068D01*
X171371911Y-87789000D01*
X171556089Y-87789000D01*
X171736729Y-87753068D01*
X171906889Y-87682586D01*
X172060028Y-87580262D01*
X172190262Y-87450028D01*
X172292586Y-87296889D01*
X172363068Y-87126729D01*
X172399000Y-86946089D01*
X172399000Y-86761911D01*
X172364208Y-86587000D01*
X173026049Y-86587000D01*
X173166111Y-86680586D01*
X173336271Y-86751068D01*
X173502605Y-86784154D01*
X173488277Y-87722193D01*
X173494715Y-87822597D01*
X173512764Y-87947656D01*
X173528286Y-88022773D01*
X173544295Y-88065000D01*
X171867404Y-88065000D01*
X171712729Y-88000932D01*
X171532089Y-87965000D01*
X171347911Y-87965000D01*
X171167271Y-88000932D01*
X170997111Y-88071414D01*
X170843972Y-88173738D01*
X170713738Y-88303972D01*
X170611414Y-88457111D01*
X170540932Y-88627271D01*
X170505000Y-88807911D01*
X170505000Y-88992089D01*
X170540932Y-89172729D01*
X170611414Y-89342889D01*
X170713738Y-89496028D01*
X170752710Y-89535000D01*
X170713738Y-89573972D01*
X170611414Y-89727111D01*
X170540932Y-89897271D01*
X170505000Y-90077911D01*
X170505000Y-90143536D01*
X170462089Y-90135000D01*
X170277911Y-90135000D01*
X170097271Y-90170932D01*
X170045000Y-90192583D01*
X170045000Y-89300000D01*
X170037182Y-89200666D01*
X170017605Y-89077059D01*
X170001582Y-89004027D01*
X169956211Y-88888108D01*
X169899395Y-88776601D01*
X169861590Y-88712099D01*
X169782620Y-88615873D01*
X169694127Y-88527380D01*
X169638240Y-88477718D01*
X169533399Y-88410605D01*
X169421892Y-88353789D01*
X169353389Y-88323825D01*
X169232941Y-88292395D01*
X169109334Y-88272818D01*
X169010000Y-88265000D01*
X168775000Y-88265000D01*
X168775000Y-86760000D01*
X168767182Y-86660666D01*
X168747605Y-86537059D01*
X168731582Y-86464027D01*
X168686211Y-86348108D01*
X168629395Y-86236601D01*
X168591590Y-86172099D01*
X168512620Y-86075873D01*
X168424127Y-85987380D01*
X168368240Y-85937718D01*
X168263399Y-85870605D01*
X168151892Y-85813789D01*
X168083389Y-85783825D01*
X167962941Y-85752395D01*
X167839334Y-85732818D01*
X167740000Y-85725000D01*
X166000000Y-85725000D01*
X165900666Y-85732818D01*
X165777059Y-85752395D01*
X165704027Y-85768418D01*
X165588108Y-85813789D01*
X165476601Y-85870605D01*
X165412099Y-85908410D01*
X165315873Y-85987380D01*
X165227380Y-86075873D01*
X165177718Y-86131760D01*
X165110605Y-86236601D01*
X165053789Y-86348108D01*
X165023825Y-86416611D01*
X164992395Y-86537059D01*
X164972818Y-86660666D01*
X164965000Y-86760000D01*
X164965000Y-90805000D01*
X162960000Y-90805000D01*
X162860666Y-90812818D01*
X162737059Y-90832395D01*
X162664027Y-90848418D01*
X162548108Y-90893789D01*
X162436601Y-90950605D01*
X162372099Y-90988410D01*
X162275873Y-91067380D01*
X162187380Y-91155873D01*
X162137718Y-91211760D01*
X162070605Y-91316601D01*
X162013789Y-91428108D01*
X161983825Y-91496611D01*
X161952395Y-91617059D01*
X161932818Y-91740666D01*
X161925000Y-91840000D01*
X161925000Y-95591944D01*
X161779271Y-95620932D01*
X161609111Y-95691414D01*
X161455972Y-95793738D01*
X161402578Y-95847132D01*
X160098760Y-94543313D01*
X160235028Y-94452262D01*
X160365262Y-94322028D01*
X160467586Y-94168889D01*
X160538068Y-93998729D01*
X160574000Y-93818089D01*
X160574000Y-93633911D01*
X160538068Y-93453271D01*
X160467586Y-93283111D01*
X160374000Y-93143049D01*
X160374000Y-91475096D01*
X160377555Y-91439001D01*
X160374000Y-91402906D01*
X160374000Y-91402897D01*
X160363365Y-91294917D01*
X160321337Y-91156369D01*
X160253087Y-91028682D01*
X160161238Y-90916764D01*
X160133193Y-90893748D01*
X159296255Y-90056811D01*
X159296251Y-90056806D01*
X157071758Y-87832313D01*
X157165586Y-87691889D01*
X157229365Y-87537911D01*
X158450000Y-87537911D01*
X158450000Y-87722089D01*
X158485932Y-87902729D01*
X158556414Y-88072889D01*
X158658738Y-88226028D01*
X158788972Y-88356262D01*
X158942111Y-88458586D01*
X159112271Y-88529068D01*
X159292911Y-88565000D01*
X159477089Y-88565000D01*
X159657729Y-88529068D01*
X159827889Y-88458586D01*
X159981028Y-88356262D01*
X160111262Y-88226028D01*
X160213586Y-88072889D01*
X160284068Y-87902729D01*
X160320000Y-87722089D01*
X160320000Y-87537911D01*
X160284068Y-87357271D01*
X160213586Y-87187111D01*
X160111262Y-87033972D01*
X159981028Y-86903738D01*
X159827889Y-86801414D01*
X159657729Y-86730932D01*
X159477089Y-86695000D01*
X159292911Y-86695000D01*
X159112271Y-86730932D01*
X158942111Y-86801414D01*
X158788972Y-86903738D01*
X158658738Y-87033972D01*
X158556414Y-87187111D01*
X158485932Y-87357271D01*
X158450000Y-87537911D01*
X157229365Y-87537911D01*
X157236068Y-87521729D01*
X157272000Y-87341089D01*
X157272000Y-87156911D01*
X157236068Y-86976271D01*
X157165586Y-86806111D01*
X157063262Y-86652972D01*
X156953681Y-86543391D01*
X156996528Y-86514762D01*
X157126762Y-86384528D01*
X157229086Y-86231389D01*
X157299568Y-86061229D01*
X157332432Y-85896014D01*
X158230535Y-84997911D01*
X158577000Y-84997911D01*
X158577000Y-85182089D01*
X158612932Y-85362729D01*
X158683414Y-85532889D01*
X158785738Y-85686028D01*
X158915972Y-85816262D01*
X159069111Y-85918586D01*
X159239271Y-85989068D01*
X159419911Y-86025000D01*
X159604089Y-86025000D01*
X159722479Y-86001451D01*
X159720000Y-86013911D01*
X159720000Y-86198089D01*
X159755932Y-86378729D01*
X159826414Y-86548889D01*
X159928738Y-86702028D01*
X160058972Y-86832262D01*
X160212111Y-86934586D01*
X160382271Y-87005068D01*
X160559496Y-87040321D01*
X160461414Y-87187111D01*
X160390932Y-87357271D01*
X160355000Y-87537911D01*
X160355000Y-87722089D01*
X160390932Y-87902729D01*
X160461414Y-88072889D01*
X160563738Y-88226028D01*
X160693972Y-88356262D01*
X160847111Y-88458586D01*
X161017271Y-88529068D01*
X161197911Y-88565000D01*
X161382089Y-88565000D01*
X161562729Y-88529068D01*
X161732889Y-88458586D01*
X161886028Y-88356262D01*
X162016262Y-88226028D01*
X162118586Y-88072889D01*
X162189068Y-87902729D01*
X162225000Y-87722089D01*
X162225000Y-87537911D01*
X162189068Y-87357271D01*
X162119629Y-87189629D01*
X162287271Y-87259068D01*
X162467911Y-87295000D01*
X162652089Y-87295000D01*
X162832729Y-87259068D01*
X163002889Y-87188586D01*
X163156028Y-87086262D01*
X163286262Y-86956028D01*
X163388586Y-86802889D01*
X163459068Y-86632729D01*
X163495000Y-86452089D01*
X163495000Y-86267911D01*
X163459068Y-86087271D01*
X163388586Y-85917111D01*
X163286262Y-85763972D01*
X163156028Y-85633738D01*
X163002889Y-85531414D01*
X162832729Y-85460932D01*
X162730407Y-85440579D01*
X162753586Y-85405889D01*
X162824068Y-85235729D01*
X162860000Y-85055089D01*
X162860000Y-84870911D01*
X162824068Y-84690271D01*
X162753586Y-84520111D01*
X162651262Y-84366972D01*
X162521028Y-84236738D01*
X162367889Y-84134414D01*
X162197729Y-84063932D01*
X162017089Y-84028000D01*
X161832911Y-84028000D01*
X161652271Y-84063932D01*
X161482111Y-84134414D01*
X161328972Y-84236738D01*
X161198738Y-84366972D01*
X161096414Y-84520111D01*
X161025932Y-84690271D01*
X160990000Y-84870911D01*
X160990000Y-85055089D01*
X161025932Y-85235729D01*
X161031872Y-85250069D01*
X160927729Y-85206932D01*
X160747089Y-85171000D01*
X160562911Y-85171000D01*
X160444521Y-85194549D01*
X160447000Y-85182089D01*
X160447000Y-84997911D01*
X160411068Y-84817271D01*
X160340586Y-84647111D01*
X160238262Y-84493972D01*
X160108028Y-84363738D01*
X159954889Y-84261414D01*
X159784729Y-84190932D01*
X159604089Y-84155000D01*
X159419911Y-84155000D01*
X159239271Y-84190932D01*
X159069111Y-84261414D01*
X158915972Y-84363738D01*
X158785738Y-84493972D01*
X158683414Y-84647111D01*
X158612932Y-84817271D01*
X158577000Y-84997911D01*
X158230535Y-84997911D01*
X160381515Y-82846931D01*
X160546729Y-82814068D01*
X160716889Y-82743586D01*
X160870028Y-82641262D01*
X161000262Y-82511028D01*
X161102586Y-82357889D01*
X161173068Y-82187729D01*
X161200465Y-82049999D01*
X162996896Y-82049999D01*
X163033001Y-82053555D01*
X163069106Y-82049999D01*
X163177086Y-82039364D01*
X163315634Y-81997336D01*
X163390559Y-81957288D01*
X163393278Y-81963852D01*
G04 #@! TA.AperFunction,Conductor*
D22*
G36*
X163393278Y-81963852D02*
G01*
X163382414Y-81980111D01*
X163311932Y-82150271D01*
X163276000Y-82330911D01*
X163276000Y-82515089D01*
X163311932Y-82695729D01*
X163382414Y-82865889D01*
X163484738Y-83019028D01*
X163614972Y-83149262D01*
X163768111Y-83251586D01*
X163938271Y-83322068D01*
X164103485Y-83354932D01*
X164291513Y-83542960D01*
X164176089Y-83520000D01*
X163991911Y-83520000D01*
X163811271Y-83555932D01*
X163641111Y-83626414D01*
X163487972Y-83728738D01*
X163357738Y-83858972D01*
X163255414Y-84012111D01*
X163184932Y-84182271D01*
X163149000Y-84362911D01*
X163149000Y-84547089D01*
X163184932Y-84727729D01*
X163255414Y-84897889D01*
X163357738Y-85051028D01*
X163487972Y-85181262D01*
X163641111Y-85283586D01*
X163811271Y-85354068D01*
X163991911Y-85390000D01*
X164176089Y-85390000D01*
X164356729Y-85354068D01*
X164526889Y-85283586D01*
X164680028Y-85181262D01*
X164810262Y-85051028D01*
X164912586Y-84897889D01*
X164983068Y-84727729D01*
X165019000Y-84547089D01*
X165019000Y-84362911D01*
X164996798Y-84251295D01*
X165064441Y-84306808D01*
X165097679Y-84334086D01*
X165225365Y-84402336D01*
X165363914Y-84444364D01*
X165507999Y-84458555D01*
X165544104Y-84454999D01*
X165562000Y-84454999D01*
X165562000Y-84547089D01*
X165597932Y-84727729D01*
X165668414Y-84897889D01*
X165770738Y-85051028D01*
X165900972Y-85181262D01*
X166054111Y-85283586D01*
X166224271Y-85354068D01*
X166404911Y-85390000D01*
X166589089Y-85390000D01*
X166769729Y-85354068D01*
X166939889Y-85283586D01*
X167093028Y-85181262D01*
X167223262Y-85051028D01*
X167325586Y-84897889D01*
X167396068Y-84727729D01*
X167432000Y-84547089D01*
X167432000Y-84454999D01*
X168229000Y-84454999D01*
X168229000Y-84547089D01*
X168264932Y-84727729D01*
X168335414Y-84897889D01*
X168437738Y-85051028D01*
X168567972Y-85181262D01*
X168721111Y-85283586D01*
X168891271Y-85354068D01*
X169071911Y-85390000D01*
X169256089Y-85390000D01*
X169436729Y-85354068D01*
X169606889Y-85283586D01*
X169760028Y-85181262D01*
X169860923Y-85080367D01*
X170729001Y-85948446D01*
X170729000Y-86271049D01*
X170635414Y-86411111D01*
X170564932Y-86581271D01*
X170529000Y-86761911D01*
X170529000Y-86946089D01*
X170564932Y-87126729D01*
X170635414Y-87296889D01*
X170737738Y-87450028D01*
X170867972Y-87580262D01*
X171021111Y-87682586D01*
X171191271Y-87753068D01*
X171371911Y-87789000D01*
X171556089Y-87789000D01*
X171736729Y-87753068D01*
X171906889Y-87682586D01*
X172060028Y-87580262D01*
X172190262Y-87450028D01*
X172292586Y-87296889D01*
X172363068Y-87126729D01*
X172399000Y-86946089D01*
X172399000Y-86761911D01*
X172364208Y-86587000D01*
X173026049Y-86587000D01*
X173166111Y-86680586D01*
X173336271Y-86751068D01*
X173502605Y-86784154D01*
X173488277Y-87722193D01*
X173494715Y-87822597D01*
X173512764Y-87947656D01*
X173528286Y-88022773D01*
X173544295Y-88065000D01*
X171867404Y-88065000D01*
X171712729Y-88000932D01*
X171532089Y-87965000D01*
X171347911Y-87965000D01*
X171167271Y-88000932D01*
X170997111Y-88071414D01*
X170843972Y-88173738D01*
X170713738Y-88303972D01*
X170611414Y-88457111D01*
X170540932Y-88627271D01*
X170505000Y-88807911D01*
X170505000Y-88992089D01*
X170540932Y-89172729D01*
X170611414Y-89342889D01*
X170713738Y-89496028D01*
X170752710Y-89535000D01*
X170713738Y-89573972D01*
X170611414Y-89727111D01*
X170540932Y-89897271D01*
X170505000Y-90077911D01*
X170505000Y-90143536D01*
X170462089Y-90135000D01*
X170277911Y-90135000D01*
X170097271Y-90170932D01*
X170045000Y-90192583D01*
X170045000Y-89300000D01*
X170037182Y-89200666D01*
X170017605Y-89077059D01*
X170001582Y-89004027D01*
X169956211Y-88888108D01*
X169899395Y-88776601D01*
X169861590Y-88712099D01*
X169782620Y-88615873D01*
X169694127Y-88527380D01*
X169638240Y-88477718D01*
X169533399Y-88410605D01*
X169421892Y-88353789D01*
X169353389Y-88323825D01*
X169232941Y-88292395D01*
X169109334Y-88272818D01*
X169010000Y-88265000D01*
X168775000Y-88265000D01*
X168775000Y-86760000D01*
X168767182Y-86660666D01*
X168747605Y-86537059D01*
X168731582Y-86464027D01*
X168686211Y-86348108D01*
X168629395Y-86236601D01*
X168591590Y-86172099D01*
X168512620Y-86075873D01*
X168424127Y-85987380D01*
X168368240Y-85937718D01*
X168263399Y-85870605D01*
X168151892Y-85813789D01*
X168083389Y-85783825D01*
X167962941Y-85752395D01*
X167839334Y-85732818D01*
X167740000Y-85725000D01*
X166000000Y-85725000D01*
X165900666Y-85732818D01*
X165777059Y-85752395D01*
X165704027Y-85768418D01*
X165588108Y-85813789D01*
X165476601Y-85870605D01*
X165412099Y-85908410D01*
X165315873Y-85987380D01*
X165227380Y-86075873D01*
X165177718Y-86131760D01*
X165110605Y-86236601D01*
X165053789Y-86348108D01*
X165023825Y-86416611D01*
X164992395Y-86537059D01*
X164972818Y-86660666D01*
X164965000Y-86760000D01*
X164965000Y-90805000D01*
X162960000Y-90805000D01*
X162860666Y-90812818D01*
X162737059Y-90832395D01*
X162664027Y-90848418D01*
X162548108Y-90893789D01*
X162436601Y-90950605D01*
X162372099Y-90988410D01*
X162275873Y-91067380D01*
X162187380Y-91155873D01*
X162137718Y-91211760D01*
X162070605Y-91316601D01*
X162013789Y-91428108D01*
X161983825Y-91496611D01*
X161952395Y-91617059D01*
X161932818Y-91740666D01*
X161925000Y-91840000D01*
X161925000Y-95591944D01*
X161779271Y-95620932D01*
X161609111Y-95691414D01*
X161455972Y-95793738D01*
X161402578Y-95847132D01*
X160098760Y-94543313D01*
X160235028Y-94452262D01*
X160365262Y-94322028D01*
X160467586Y-94168889D01*
X160538068Y-93998729D01*
X160574000Y-93818089D01*
X160574000Y-93633911D01*
X160538068Y-93453271D01*
X160467586Y-93283111D01*
X160374000Y-93143049D01*
X160374000Y-91475096D01*
X160377555Y-91439001D01*
X160374000Y-91402906D01*
X160374000Y-91402897D01*
X160363365Y-91294917D01*
X160321337Y-91156369D01*
X160253087Y-91028682D01*
X160161238Y-90916764D01*
X160133193Y-90893748D01*
X159296255Y-90056811D01*
X159296251Y-90056806D01*
X157071758Y-87832313D01*
X157165586Y-87691889D01*
X157229365Y-87537911D01*
X158450000Y-87537911D01*
X158450000Y-87722089D01*
X158485932Y-87902729D01*
X158556414Y-88072889D01*
X158658738Y-88226028D01*
X158788972Y-88356262D01*
X158942111Y-88458586D01*
X159112271Y-88529068D01*
X159292911Y-88565000D01*
X159477089Y-88565000D01*
X159657729Y-88529068D01*
X159827889Y-88458586D01*
X159981028Y-88356262D01*
X160111262Y-88226028D01*
X160213586Y-88072889D01*
X160284068Y-87902729D01*
X160320000Y-87722089D01*
X160320000Y-87537911D01*
X160284068Y-87357271D01*
X160213586Y-87187111D01*
X160111262Y-87033972D01*
X159981028Y-86903738D01*
X159827889Y-86801414D01*
X159657729Y-86730932D01*
X159477089Y-86695000D01*
X159292911Y-86695000D01*
X159112271Y-86730932D01*
X158942111Y-86801414D01*
X158788972Y-86903738D01*
X158658738Y-87033972D01*
X158556414Y-87187111D01*
X158485932Y-87357271D01*
X158450000Y-87537911D01*
X157229365Y-87537911D01*
X157236068Y-87521729D01*
X157272000Y-87341089D01*
X157272000Y-87156911D01*
X157236068Y-86976271D01*
X157165586Y-86806111D01*
X157063262Y-86652972D01*
X156953681Y-86543391D01*
X156996528Y-86514762D01*
X157126762Y-86384528D01*
X157229086Y-86231389D01*
X157299568Y-86061229D01*
X157332432Y-85896014D01*
X158230535Y-84997911D01*
X158577000Y-84997911D01*
X158577000Y-85182089D01*
X158612932Y-85362729D01*
X158683414Y-85532889D01*
X158785738Y-85686028D01*
X158915972Y-85816262D01*
X159069111Y-85918586D01*
X159239271Y-85989068D01*
X159419911Y-86025000D01*
X159604089Y-86025000D01*
X159722479Y-86001451D01*
X159720000Y-86013911D01*
X159720000Y-86198089D01*
X159755932Y-86378729D01*
X159826414Y-86548889D01*
X159928738Y-86702028D01*
X160058972Y-86832262D01*
X160212111Y-86934586D01*
X160382271Y-87005068D01*
X160559496Y-87040321D01*
X160461414Y-87187111D01*
X160390932Y-87357271D01*
X160355000Y-87537911D01*
X160355000Y-87722089D01*
X160390932Y-87902729D01*
X160461414Y-88072889D01*
X160563738Y-88226028D01*
X160693972Y-88356262D01*
X160847111Y-88458586D01*
X161017271Y-88529068D01*
X161197911Y-88565000D01*
X161382089Y-88565000D01*
X161562729Y-88529068D01*
X161732889Y-88458586D01*
X161886028Y-88356262D01*
X162016262Y-88226028D01*
X162118586Y-88072889D01*
X162189068Y-87902729D01*
X162225000Y-87722089D01*
X162225000Y-87537911D01*
X162189068Y-87357271D01*
X162119629Y-87189629D01*
X162287271Y-87259068D01*
X162467911Y-87295000D01*
X162652089Y-87295000D01*
X162832729Y-87259068D01*
X163002889Y-87188586D01*
X163156028Y-87086262D01*
X163286262Y-86956028D01*
X163388586Y-86802889D01*
X163459068Y-86632729D01*
X163495000Y-86452089D01*
X163495000Y-86267911D01*
X163459068Y-86087271D01*
X163388586Y-85917111D01*
X163286262Y-85763972D01*
X163156028Y-85633738D01*
X163002889Y-85531414D01*
X162832729Y-85460932D01*
X162730407Y-85440579D01*
X162753586Y-85405889D01*
X162824068Y-85235729D01*
X162860000Y-85055089D01*
X162860000Y-84870911D01*
X162824068Y-84690271D01*
X162753586Y-84520111D01*
X162651262Y-84366972D01*
X162521028Y-84236738D01*
X162367889Y-84134414D01*
X162197729Y-84063932D01*
X162017089Y-84028000D01*
X161832911Y-84028000D01*
X161652271Y-84063932D01*
X161482111Y-84134414D01*
X161328972Y-84236738D01*
X161198738Y-84366972D01*
X161096414Y-84520111D01*
X161025932Y-84690271D01*
X160990000Y-84870911D01*
X160990000Y-85055089D01*
X161025932Y-85235729D01*
X161031872Y-85250069D01*
X160927729Y-85206932D01*
X160747089Y-85171000D01*
X160562911Y-85171000D01*
X160444521Y-85194549D01*
X160447000Y-85182089D01*
X160447000Y-84997911D01*
X160411068Y-84817271D01*
X160340586Y-84647111D01*
X160238262Y-84493972D01*
X160108028Y-84363738D01*
X159954889Y-84261414D01*
X159784729Y-84190932D01*
X159604089Y-84155000D01*
X159419911Y-84155000D01*
X159239271Y-84190932D01*
X159069111Y-84261414D01*
X158915972Y-84363738D01*
X158785738Y-84493972D01*
X158683414Y-84647111D01*
X158612932Y-84817271D01*
X158577000Y-84997911D01*
X158230535Y-84997911D01*
X160381515Y-82846931D01*
X160546729Y-82814068D01*
X160716889Y-82743586D01*
X160870028Y-82641262D01*
X161000262Y-82511028D01*
X161102586Y-82357889D01*
X161173068Y-82187729D01*
X161200465Y-82049999D01*
X162996896Y-82049999D01*
X163033001Y-82053555D01*
X163069106Y-82049999D01*
X163177086Y-82039364D01*
X163315634Y-81997336D01*
X163390559Y-81957288D01*
X163393278Y-81963852D01*
G37*
G04 #@! TD.AperFunction*
D21*
X146801932Y-67418271D02*
X146766000Y-67598911D01*
X146766000Y-67783089D01*
X146801932Y-67963729D01*
X146872414Y-68133889D01*
X146958349Y-68262500D01*
X146872414Y-68391111D01*
X146801932Y-68561271D01*
X146766000Y-68741911D01*
X146766000Y-68926089D01*
X146801932Y-69106729D01*
X146872414Y-69276889D01*
X146966001Y-69416952D01*
X146966000Y-72988895D01*
X146962444Y-73025000D01*
X146974110Y-73143450D01*
X146976635Y-73169084D01*
X147018663Y-73307632D01*
X147086913Y-73435319D01*
X147178762Y-73547237D01*
X147206808Y-73570254D01*
X150803747Y-77167194D01*
X150826763Y-77195239D01*
X150938681Y-77287088D01*
X151066368Y-77355338D01*
X151204916Y-77397366D01*
X151312896Y-77408001D01*
X151312905Y-77408001D01*
X151349000Y-77411556D01*
X151385095Y-77408001D01*
X151719000Y-77408001D01*
X151719000Y-77435089D01*
X151754932Y-77615729D01*
X151825414Y-77785889D01*
X151927738Y-77939028D01*
X152057972Y-78069262D01*
X152211111Y-78171586D01*
X152381271Y-78242068D01*
X152561911Y-78278000D01*
X152746089Y-78278000D01*
X152926729Y-78242068D01*
X153096889Y-78171586D01*
X153250028Y-78069262D01*
X153380262Y-77939028D01*
X153482586Y-77785889D01*
X153553068Y-77615729D01*
X153589000Y-77435089D01*
X153589000Y-77408001D01*
X154980557Y-77408001D01*
X155659316Y-78086761D01*
X155691932Y-78250729D01*
X155762414Y-78420889D01*
X155864738Y-78574028D01*
X155994972Y-78704262D01*
X156131240Y-78795313D01*
X152627000Y-82299554D01*
X152627000Y-81642220D01*
X152664068Y-81552729D01*
X152700000Y-81372089D01*
X152700000Y-81187911D01*
X152664068Y-81007271D01*
X152593586Y-80837111D01*
X152491262Y-80683972D01*
X152361028Y-80553738D01*
X152207889Y-80451414D01*
X152037729Y-80380932D01*
X151857089Y-80345000D01*
X151672911Y-80345000D01*
X151492271Y-80380932D01*
X151322111Y-80451414D01*
X151168972Y-80553738D01*
X151038738Y-80683972D01*
X150936414Y-80837111D01*
X150865932Y-81007271D01*
X150830000Y-81187911D01*
X150830000Y-81372089D01*
X150865932Y-81552729D01*
X150936414Y-81722889D01*
X151038738Y-81876028D01*
X151157000Y-81994290D01*
X151157000Y-82005896D01*
X151157001Y-87149000D01*
X149262949Y-87149000D01*
X149007683Y-86893734D01*
X148974819Y-86728520D01*
X148904337Y-86558360D01*
X148802013Y-86405221D01*
X148671779Y-86274987D01*
X148518640Y-86172663D01*
X148348480Y-86102181D01*
X148167840Y-86066249D01*
X147983662Y-86066249D01*
X147803022Y-86102181D01*
X147632862Y-86172663D01*
X147479723Y-86274987D01*
X147349489Y-86405221D01*
X147247165Y-86558360D01*
X147176683Y-86728520D01*
X147140751Y-86909160D01*
X147140751Y-87093338D01*
X147176683Y-87273978D01*
X147247165Y-87444138D01*
X147349489Y-87597277D01*
X147479723Y-87727511D01*
X147632862Y-87829835D01*
X147803022Y-87900317D01*
X147968236Y-87933181D01*
X148413248Y-88378193D01*
X148436264Y-88406238D01*
X148548182Y-88498087D01*
X148675869Y-88566337D01*
X148814417Y-88608365D01*
X148835388Y-88610430D01*
X148821445Y-88751997D01*
X148825002Y-88788112D01*
X148825001Y-95358001D01*
X147579446Y-95358001D01*
X146784758Y-94563313D01*
X146878586Y-94422889D01*
X146949068Y-94252729D01*
X146985000Y-94072089D01*
X146985000Y-93887911D01*
X146949068Y-93707271D01*
X146878586Y-93537111D01*
X146792651Y-93408500D01*
X146878586Y-93279889D01*
X146949068Y-93109729D01*
X146985000Y-92929089D01*
X146985000Y-92744911D01*
X146949068Y-92564271D01*
X146886225Y-92412554D01*
X146927189Y-92395586D01*
X147080328Y-92293262D01*
X147210562Y-92163028D01*
X147312886Y-92009889D01*
X147383368Y-91839729D01*
X147419300Y-91659089D01*
X147419300Y-91474911D01*
X147383368Y-91294271D01*
X147312886Y-91124111D01*
X147210562Y-90970972D01*
X147080328Y-90840738D01*
X146927189Y-90738414D01*
X146757029Y-90667932D01*
X146576389Y-90632000D01*
X146465747Y-90632000D01*
X146185680Y-90351933D01*
X146278586Y-90212889D01*
X146349068Y-90042729D01*
X146385000Y-89862089D01*
X146385000Y-89677911D01*
X146349068Y-89497271D01*
X146278586Y-89327111D01*
X146176262Y-89173972D01*
X146046028Y-89043738D01*
X145892889Y-88941414D01*
X145722729Y-88870932D01*
X145557515Y-88838069D01*
X145533244Y-88813797D01*
X145687729Y-88783068D01*
X145857889Y-88712586D01*
X146011028Y-88610262D01*
X146141262Y-88480028D01*
X146243586Y-88326889D01*
X146314068Y-88156729D01*
X146350000Y-87976089D01*
X146350000Y-87791911D01*
X146314068Y-87611271D01*
X146243586Y-87441111D01*
X146141262Y-87287972D01*
X146011028Y-87157738D01*
X145857889Y-87055414D01*
X145687729Y-86984932D01*
X145522515Y-86952069D01*
X143102000Y-84531554D01*
X143102000Y-80426107D01*
X143105556Y-80390002D01*
X143091365Y-80245917D01*
X143049337Y-80107368D01*
X142981087Y-79979682D01*
X142912253Y-79895808D01*
X142912250Y-79895805D01*
X142889237Y-79867764D01*
X142861197Y-79844752D01*
X142340000Y-79323556D01*
X142340000Y-78814951D01*
X142433586Y-78674889D01*
X142504068Y-78504729D01*
X142540000Y-78324089D01*
X142540000Y-78139911D01*
X142504068Y-77959271D01*
X142433586Y-77789111D01*
X142331262Y-77635972D01*
X142327201Y-77631911D01*
X146004000Y-77631911D01*
X146004000Y-77816089D01*
X146039932Y-77996729D01*
X146110414Y-78166889D01*
X146212738Y-78320028D01*
X146342972Y-78450262D01*
X146496111Y-78552586D01*
X146666271Y-78623068D01*
X146846911Y-78659000D01*
X147031089Y-78659000D01*
X147211729Y-78623068D01*
X147381889Y-78552586D01*
X147535028Y-78450262D01*
X147665262Y-78320028D01*
X147767586Y-78166889D01*
X147838068Y-77996729D01*
X147874000Y-77816089D01*
X147874000Y-77631911D01*
X147838068Y-77451271D01*
X147767586Y-77281111D01*
X147665262Y-77127972D01*
X147535028Y-76997738D01*
X147381889Y-76895414D01*
X147211729Y-76824932D01*
X147031089Y-76789000D01*
X146846911Y-76789000D01*
X146666271Y-76824932D01*
X146496111Y-76895414D01*
X146342972Y-76997738D01*
X146212738Y-77127972D01*
X146110414Y-77281111D01*
X146039932Y-77451271D01*
X146004000Y-77631911D01*
X142327201Y-77631911D01*
X142201028Y-77505738D01*
X142047889Y-77403414D01*
X141877729Y-77332932D01*
X141697089Y-77297000D01*
X141512911Y-77297000D01*
X141332271Y-77332932D01*
X141162111Y-77403414D01*
X141008972Y-77505738D01*
X140878738Y-77635972D01*
X140776414Y-77789111D01*
X140705932Y-77959271D01*
X140670000Y-78139911D01*
X140670000Y-78324089D01*
X140705932Y-78504729D01*
X140776414Y-78674889D01*
X140870000Y-78814951D01*
X140870001Y-79341315D01*
X140808089Y-79329000D01*
X140623911Y-79329000D01*
X140443271Y-79364932D01*
X140435000Y-79368358D01*
X140435000Y-75852601D01*
X140438556Y-75816496D01*
X140425218Y-75681072D01*
X140844001Y-75681072D01*
X141017255Y-75664008D01*
X141183851Y-75613472D01*
X141337387Y-75531405D01*
X141471962Y-75420962D01*
X141582405Y-75286387D01*
X141584810Y-75281888D01*
X141616499Y-75320502D01*
X141804552Y-75474833D01*
X142019100Y-75589511D01*
X142251899Y-75660130D01*
X142494000Y-75683975D01*
X142736102Y-75660130D01*
X142968901Y-75589511D01*
X143183449Y-75474833D01*
X143371502Y-75320502D01*
X143494001Y-75171237D01*
X143616499Y-75320502D01*
X143804552Y-75474833D01*
X144019100Y-75589511D01*
X144251899Y-75660130D01*
X144494000Y-75683975D01*
X144736102Y-75660130D01*
X144968901Y-75589511D01*
X145183449Y-75474833D01*
X145371502Y-75320502D01*
X145525833Y-75132449D01*
X145640511Y-74917900D01*
X145711130Y-74685101D01*
X145729000Y-74503664D01*
X145729000Y-73832335D01*
X145711130Y-73650898D01*
X145640511Y-73418099D01*
X145525833Y-73203551D01*
X145371502Y-73015498D01*
X145183448Y-72861167D01*
X144968900Y-72746489D01*
X144736101Y-72675870D01*
X144494000Y-72652025D01*
X144251898Y-72675870D01*
X144019099Y-72746489D01*
X143804551Y-72861167D01*
X143616498Y-73015498D01*
X143494000Y-73164763D01*
X143371502Y-73015498D01*
X143183448Y-72861167D01*
X142968900Y-72746489D01*
X142736101Y-72675870D01*
X142494000Y-72652025D01*
X142251898Y-72675870D01*
X142019099Y-72746489D01*
X141804551Y-72861167D01*
X141616498Y-73015498D01*
X141584809Y-73054111D01*
X141582405Y-73049613D01*
X141471962Y-72915038D01*
X141337387Y-72804595D01*
X141183851Y-72722528D01*
X141017255Y-72671992D01*
X140844001Y-72654928D01*
X140143999Y-72654928D01*
X139970745Y-72671992D01*
X139804149Y-72722528D01*
X139650613Y-72804595D01*
X139516038Y-72915038D01*
X139405595Y-73049613D01*
X139323528Y-73203149D01*
X139272992Y-73369745D01*
X139255928Y-73542999D01*
X139255928Y-74332977D01*
X136615000Y-71692050D01*
X136615000Y-69849450D01*
X136757502Y-69732502D01*
X136880001Y-69583237D01*
X137002499Y-69732502D01*
X137190552Y-69886833D01*
X137405100Y-70001511D01*
X137637899Y-70072130D01*
X137880000Y-70095975D01*
X138122102Y-70072130D01*
X138354901Y-70001511D01*
X138569449Y-69886833D01*
X138629493Y-69837556D01*
X138712633Y-69812336D01*
X138840319Y-69744086D01*
X138942909Y-69659892D01*
X139002499Y-69732502D01*
X139190552Y-69886833D01*
X139405100Y-70001511D01*
X139637899Y-70072130D01*
X139880000Y-70095975D01*
X140122102Y-70072130D01*
X140354901Y-70001511D01*
X140569449Y-69886833D01*
X140757502Y-69732502D01*
X140880001Y-69583237D01*
X141002499Y-69732502D01*
X141190552Y-69886833D01*
X141405100Y-70001511D01*
X141637899Y-70072130D01*
X141880000Y-70095975D01*
X142122102Y-70072130D01*
X142354901Y-70001511D01*
X142569449Y-69886833D01*
X142757502Y-69732502D01*
X142911833Y-69544449D01*
X143026511Y-69329900D01*
X143097130Y-69097101D01*
X143115000Y-68915664D01*
X143115000Y-68244335D01*
X143097130Y-68062898D01*
X143026511Y-67830099D01*
X142911833Y-67615551D01*
X142757502Y-67427498D01*
X142632607Y-67325000D01*
X146840566Y-67325000D01*
X146801932Y-67418271D01*
G04 #@! TA.AperFunction,Conductor*
D22*
G36*
X146801932Y-67418271D02*
G01*
X146766000Y-67598911D01*
X146766000Y-67783089D01*
X146801932Y-67963729D01*
X146872414Y-68133889D01*
X146958349Y-68262500D01*
X146872414Y-68391111D01*
X146801932Y-68561271D01*
X146766000Y-68741911D01*
X146766000Y-68926089D01*
X146801932Y-69106729D01*
X146872414Y-69276889D01*
X146966001Y-69416952D01*
X146966000Y-72988895D01*
X146962444Y-73025000D01*
X146974110Y-73143450D01*
X146976635Y-73169084D01*
X147018663Y-73307632D01*
X147086913Y-73435319D01*
X147178762Y-73547237D01*
X147206808Y-73570254D01*
X150803747Y-77167194D01*
X150826763Y-77195239D01*
X150938681Y-77287088D01*
X151066368Y-77355338D01*
X151204916Y-77397366D01*
X151312896Y-77408001D01*
X151312905Y-77408001D01*
X151349000Y-77411556D01*
X151385095Y-77408001D01*
X151719000Y-77408001D01*
X151719000Y-77435089D01*
X151754932Y-77615729D01*
X151825414Y-77785889D01*
X151927738Y-77939028D01*
X152057972Y-78069262D01*
X152211111Y-78171586D01*
X152381271Y-78242068D01*
X152561911Y-78278000D01*
X152746089Y-78278000D01*
X152926729Y-78242068D01*
X153096889Y-78171586D01*
X153250028Y-78069262D01*
X153380262Y-77939028D01*
X153482586Y-77785889D01*
X153553068Y-77615729D01*
X153589000Y-77435089D01*
X153589000Y-77408001D01*
X154980557Y-77408001D01*
X155659316Y-78086761D01*
X155691932Y-78250729D01*
X155762414Y-78420889D01*
X155864738Y-78574028D01*
X155994972Y-78704262D01*
X156131240Y-78795313D01*
X152627000Y-82299554D01*
X152627000Y-81642220D01*
X152664068Y-81552729D01*
X152700000Y-81372089D01*
X152700000Y-81187911D01*
X152664068Y-81007271D01*
X152593586Y-80837111D01*
X152491262Y-80683972D01*
X152361028Y-80553738D01*
X152207889Y-80451414D01*
X152037729Y-80380932D01*
X151857089Y-80345000D01*
X151672911Y-80345000D01*
X151492271Y-80380932D01*
X151322111Y-80451414D01*
X151168972Y-80553738D01*
X151038738Y-80683972D01*
X150936414Y-80837111D01*
X150865932Y-81007271D01*
X150830000Y-81187911D01*
X150830000Y-81372089D01*
X150865932Y-81552729D01*
X150936414Y-81722889D01*
X151038738Y-81876028D01*
X151157000Y-81994290D01*
X151157000Y-82005896D01*
X151157001Y-87149000D01*
X149262949Y-87149000D01*
X149007683Y-86893734D01*
X148974819Y-86728520D01*
X148904337Y-86558360D01*
X148802013Y-86405221D01*
X148671779Y-86274987D01*
X148518640Y-86172663D01*
X148348480Y-86102181D01*
X148167840Y-86066249D01*
X147983662Y-86066249D01*
X147803022Y-86102181D01*
X147632862Y-86172663D01*
X147479723Y-86274987D01*
X147349489Y-86405221D01*
X147247165Y-86558360D01*
X147176683Y-86728520D01*
X147140751Y-86909160D01*
X147140751Y-87093338D01*
X147176683Y-87273978D01*
X147247165Y-87444138D01*
X147349489Y-87597277D01*
X147479723Y-87727511D01*
X147632862Y-87829835D01*
X147803022Y-87900317D01*
X147968236Y-87933181D01*
X148413248Y-88378193D01*
X148436264Y-88406238D01*
X148548182Y-88498087D01*
X148675869Y-88566337D01*
X148814417Y-88608365D01*
X148835388Y-88610430D01*
X148821445Y-88751997D01*
X148825002Y-88788112D01*
X148825001Y-95358001D01*
X147579446Y-95358001D01*
X146784758Y-94563313D01*
X146878586Y-94422889D01*
X146949068Y-94252729D01*
X146985000Y-94072089D01*
X146985000Y-93887911D01*
X146949068Y-93707271D01*
X146878586Y-93537111D01*
X146792651Y-93408500D01*
X146878586Y-93279889D01*
X146949068Y-93109729D01*
X146985000Y-92929089D01*
X146985000Y-92744911D01*
X146949068Y-92564271D01*
X146886225Y-92412554D01*
X146927189Y-92395586D01*
X147080328Y-92293262D01*
X147210562Y-92163028D01*
X147312886Y-92009889D01*
X147383368Y-91839729D01*
X147419300Y-91659089D01*
X147419300Y-91474911D01*
X147383368Y-91294271D01*
X147312886Y-91124111D01*
X147210562Y-90970972D01*
X147080328Y-90840738D01*
X146927189Y-90738414D01*
X146757029Y-90667932D01*
X146576389Y-90632000D01*
X146465747Y-90632000D01*
X146185680Y-90351933D01*
X146278586Y-90212889D01*
X146349068Y-90042729D01*
X146385000Y-89862089D01*
X146385000Y-89677911D01*
X146349068Y-89497271D01*
X146278586Y-89327111D01*
X146176262Y-89173972D01*
X146046028Y-89043738D01*
X145892889Y-88941414D01*
X145722729Y-88870932D01*
X145557515Y-88838069D01*
X145533244Y-88813797D01*
X145687729Y-88783068D01*
X145857889Y-88712586D01*
X146011028Y-88610262D01*
X146141262Y-88480028D01*
X146243586Y-88326889D01*
X146314068Y-88156729D01*
X146350000Y-87976089D01*
X146350000Y-87791911D01*
X146314068Y-87611271D01*
X146243586Y-87441111D01*
X146141262Y-87287972D01*
X146011028Y-87157738D01*
X145857889Y-87055414D01*
X145687729Y-86984932D01*
X145522515Y-86952069D01*
X143102000Y-84531554D01*
X143102000Y-80426107D01*
X143105556Y-80390002D01*
X143091365Y-80245917D01*
X143049337Y-80107368D01*
X142981087Y-79979682D01*
X142912253Y-79895808D01*
X142912250Y-79895805D01*
X142889237Y-79867764D01*
X142861197Y-79844752D01*
X142340000Y-79323556D01*
X142340000Y-78814951D01*
X142433586Y-78674889D01*
X142504068Y-78504729D01*
X142540000Y-78324089D01*
X142540000Y-78139911D01*
X142504068Y-77959271D01*
X142433586Y-77789111D01*
X142331262Y-77635972D01*
X142327201Y-77631911D01*
X146004000Y-77631911D01*
X146004000Y-77816089D01*
X146039932Y-77996729D01*
X146110414Y-78166889D01*
X146212738Y-78320028D01*
X146342972Y-78450262D01*
X146496111Y-78552586D01*
X146666271Y-78623068D01*
X146846911Y-78659000D01*
X147031089Y-78659000D01*
X147211729Y-78623068D01*
X147381889Y-78552586D01*
X147535028Y-78450262D01*
X147665262Y-78320028D01*
X147767586Y-78166889D01*
X147838068Y-77996729D01*
X147874000Y-77816089D01*
X147874000Y-77631911D01*
X147838068Y-77451271D01*
X147767586Y-77281111D01*
X147665262Y-77127972D01*
X147535028Y-76997738D01*
X147381889Y-76895414D01*
X147211729Y-76824932D01*
X147031089Y-76789000D01*
X146846911Y-76789000D01*
X146666271Y-76824932D01*
X146496111Y-76895414D01*
X146342972Y-76997738D01*
X146212738Y-77127972D01*
X146110414Y-77281111D01*
X146039932Y-77451271D01*
X146004000Y-77631911D01*
X142327201Y-77631911D01*
X142201028Y-77505738D01*
X142047889Y-77403414D01*
X141877729Y-77332932D01*
X141697089Y-77297000D01*
X141512911Y-77297000D01*
X141332271Y-77332932D01*
X141162111Y-77403414D01*
X141008972Y-77505738D01*
X140878738Y-77635972D01*
X140776414Y-77789111D01*
X140705932Y-77959271D01*
X140670000Y-78139911D01*
X140670000Y-78324089D01*
X140705932Y-78504729D01*
X140776414Y-78674889D01*
X140870000Y-78814951D01*
X140870001Y-79341315D01*
X140808089Y-79329000D01*
X140623911Y-79329000D01*
X140443271Y-79364932D01*
X140435000Y-79368358D01*
X140435000Y-75852601D01*
X140438556Y-75816496D01*
X140425218Y-75681072D01*
X140844001Y-75681072D01*
X141017255Y-75664008D01*
X141183851Y-75613472D01*
X141337387Y-75531405D01*
X141471962Y-75420962D01*
X141582405Y-75286387D01*
X141584810Y-75281888D01*
X141616499Y-75320502D01*
X141804552Y-75474833D01*
X142019100Y-75589511D01*
X142251899Y-75660130D01*
X142494000Y-75683975D01*
X142736102Y-75660130D01*
X142968901Y-75589511D01*
X143183449Y-75474833D01*
X143371502Y-75320502D01*
X143494001Y-75171237D01*
X143616499Y-75320502D01*
X143804552Y-75474833D01*
X144019100Y-75589511D01*
X144251899Y-75660130D01*
X144494000Y-75683975D01*
X144736102Y-75660130D01*
X144968901Y-75589511D01*
X145183449Y-75474833D01*
X145371502Y-75320502D01*
X145525833Y-75132449D01*
X145640511Y-74917900D01*
X145711130Y-74685101D01*
X145729000Y-74503664D01*
X145729000Y-73832335D01*
X145711130Y-73650898D01*
X145640511Y-73418099D01*
X145525833Y-73203551D01*
X145371502Y-73015498D01*
X145183448Y-72861167D01*
X144968900Y-72746489D01*
X144736101Y-72675870D01*
X144494000Y-72652025D01*
X144251898Y-72675870D01*
X144019099Y-72746489D01*
X143804551Y-72861167D01*
X143616498Y-73015498D01*
X143494000Y-73164763D01*
X143371502Y-73015498D01*
X143183448Y-72861167D01*
X142968900Y-72746489D01*
X142736101Y-72675870D01*
X142494000Y-72652025D01*
X142251898Y-72675870D01*
X142019099Y-72746489D01*
X141804551Y-72861167D01*
X141616498Y-73015498D01*
X141584809Y-73054111D01*
X141582405Y-73049613D01*
X141471962Y-72915038D01*
X141337387Y-72804595D01*
X141183851Y-72722528D01*
X141017255Y-72671992D01*
X140844001Y-72654928D01*
X140143999Y-72654928D01*
X139970745Y-72671992D01*
X139804149Y-72722528D01*
X139650613Y-72804595D01*
X139516038Y-72915038D01*
X139405595Y-73049613D01*
X139323528Y-73203149D01*
X139272992Y-73369745D01*
X139255928Y-73542999D01*
X139255928Y-74332977D01*
X136615000Y-71692050D01*
X136615000Y-69849450D01*
X136757502Y-69732502D01*
X136880001Y-69583237D01*
X137002499Y-69732502D01*
X137190552Y-69886833D01*
X137405100Y-70001511D01*
X137637899Y-70072130D01*
X137880000Y-70095975D01*
X138122102Y-70072130D01*
X138354901Y-70001511D01*
X138569449Y-69886833D01*
X138629493Y-69837556D01*
X138712633Y-69812336D01*
X138840319Y-69744086D01*
X138942909Y-69659892D01*
X139002499Y-69732502D01*
X139190552Y-69886833D01*
X139405100Y-70001511D01*
X139637899Y-70072130D01*
X139880000Y-70095975D01*
X140122102Y-70072130D01*
X140354901Y-70001511D01*
X140569449Y-69886833D01*
X140757502Y-69732502D01*
X140880001Y-69583237D01*
X141002499Y-69732502D01*
X141190552Y-69886833D01*
X141405100Y-70001511D01*
X141637899Y-70072130D01*
X141880000Y-70095975D01*
X142122102Y-70072130D01*
X142354901Y-70001511D01*
X142569449Y-69886833D01*
X142757502Y-69732502D01*
X142911833Y-69544449D01*
X143026511Y-69329900D01*
X143097130Y-69097101D01*
X143115000Y-68915664D01*
X143115000Y-68244335D01*
X143097130Y-68062898D01*
X143026511Y-67830099D01*
X142911833Y-67615551D01*
X142757502Y-67427498D01*
X142632607Y-67325000D01*
X146840566Y-67325000D01*
X146801932Y-67418271D01*
G37*
G04 #@! TD.AperFunction*
D21*
X171196000Y-82404000D02*
X171203818Y-82503334D01*
X171223395Y-82626941D01*
X171239418Y-82699973D01*
X171284789Y-82815892D01*
X171341605Y-82927399D01*
X171379410Y-82991901D01*
X171458380Y-83088127D01*
X171546873Y-83176620D01*
X171602760Y-83226282D01*
X171707601Y-83293395D01*
X171819108Y-83350211D01*
X171887611Y-83380175D01*
X172008059Y-83411605D01*
X172131666Y-83431182D01*
X172231000Y-83439000D01*
X174215078Y-83439000D01*
X174153087Y-83463855D01*
X174044409Y-83520364D01*
X173983759Y-83556311D01*
X173887654Y-83635429D01*
X173801172Y-83722176D01*
X173754242Y-83774793D01*
X173686586Y-83879284D01*
X173630410Y-83988135D01*
X173601605Y-84052485D01*
X173568741Y-84172550D01*
X173548139Y-84293296D01*
X173539167Y-84390400D01*
X173531124Y-84917000D01*
X173516911Y-84917000D01*
X173336271Y-84952932D01*
X173166111Y-85023414D01*
X173026049Y-85117000D01*
X172590445Y-85117000D01*
X169864001Y-82390557D01*
X169864001Y-82171104D01*
X169867557Y-82134999D01*
X169853366Y-81990914D01*
X169845623Y-81965389D01*
X169811338Y-81852366D01*
X169743088Y-81724679D01*
X169651239Y-81612761D01*
X169623194Y-81589745D01*
X168678448Y-80645000D01*
X171196000Y-80645000D01*
X171196000Y-82404000D01*
G04 #@! TA.AperFunction,Conductor*
D22*
G36*
X171196000Y-82404000D02*
G01*
X171203818Y-82503334D01*
X171223395Y-82626941D01*
X171239418Y-82699973D01*
X171284789Y-82815892D01*
X171341605Y-82927399D01*
X171379410Y-82991901D01*
X171458380Y-83088127D01*
X171546873Y-83176620D01*
X171602760Y-83226282D01*
X171707601Y-83293395D01*
X171819108Y-83350211D01*
X171887611Y-83380175D01*
X172008059Y-83411605D01*
X172131666Y-83431182D01*
X172231000Y-83439000D01*
X174215078Y-83439000D01*
X174153087Y-83463855D01*
X174044409Y-83520364D01*
X173983759Y-83556311D01*
X173887654Y-83635429D01*
X173801172Y-83722176D01*
X173754242Y-83774793D01*
X173686586Y-83879284D01*
X173630410Y-83988135D01*
X173601605Y-84052485D01*
X173568741Y-84172550D01*
X173548139Y-84293296D01*
X173539167Y-84390400D01*
X173531124Y-84917000D01*
X173516911Y-84917000D01*
X173336271Y-84952932D01*
X173166111Y-85023414D01*
X173026049Y-85117000D01*
X172590445Y-85117000D01*
X169864001Y-82390557D01*
X169864001Y-82171104D01*
X169867557Y-82134999D01*
X169853366Y-81990914D01*
X169845623Y-81965389D01*
X169811338Y-81852366D01*
X169743088Y-81724679D01*
X169651239Y-81612761D01*
X169623194Y-81589745D01*
X168678448Y-80645000D01*
X171196000Y-80645000D01*
X171196000Y-82404000D01*
G37*
G04 #@! TD.AperFunction*
D21*
X168394001Y-82439446D02*
X168394001Y-82577000D01*
X166316447Y-82577000D01*
X165396945Y-81657499D01*
X167612055Y-81657499D01*
X168394001Y-82439446D01*
G04 #@! TA.AperFunction,Conductor*
D22*
G36*
X168394001Y-82439446D02*
G01*
X168394001Y-82577000D01*
X166316447Y-82577000D01*
X165396945Y-81657499D01*
X167612055Y-81657499D01*
X168394001Y-82439446D01*
G37*
G04 #@! TD.AperFunction*
D21*
X187163000Y-67338992D02*
X187163000Y-75168217D01*
X183656815Y-75182394D01*
X183557766Y-75190573D01*
X183434546Y-75210549D01*
X183362069Y-75226696D01*
X183246279Y-75272394D01*
X183135218Y-75329379D01*
X183071251Y-75367079D01*
X182975185Y-75446244D01*
X182887096Y-75534689D01*
X182837857Y-75590280D01*
X182814415Y-75626999D01*
X165586778Y-75626999D01*
X165702241Y-75532241D01*
X165706070Y-75527576D01*
X170124950Y-71882000D01*
X171528820Y-71882000D01*
X171628154Y-71874182D01*
X171751761Y-71854605D01*
X171824793Y-71838582D01*
X171940712Y-71793211D01*
X172052219Y-71736395D01*
X172116721Y-71698590D01*
X172212947Y-71619620D01*
X172301440Y-71531127D01*
X172351102Y-71475240D01*
X172418215Y-71370399D01*
X172475031Y-71258892D01*
X172504995Y-71190389D01*
X172536425Y-71069941D01*
X172556002Y-70946334D01*
X172563820Y-70847000D01*
X172563820Y-69639721D01*
X178332000Y-69639721D01*
X178332000Y-70060279D01*
X178414047Y-70472756D01*
X178574988Y-70861302D01*
X178808637Y-71210983D01*
X179106017Y-71508363D01*
X179455698Y-71742012D01*
X179844244Y-71902953D01*
X180256721Y-71985000D01*
X180677279Y-71985000D01*
X181089756Y-71902953D01*
X181478302Y-71742012D01*
X181827983Y-71508363D01*
X182125363Y-71210983D01*
X182359012Y-70861302D01*
X182519953Y-70472756D01*
X182602000Y-70060279D01*
X182602000Y-69639721D01*
X182519953Y-69227244D01*
X182359012Y-68838698D01*
X182125363Y-68489017D01*
X181827983Y-68191637D01*
X181478302Y-67957988D01*
X181089756Y-67797047D01*
X180677279Y-67715000D01*
X180256721Y-67715000D01*
X179844244Y-67797047D01*
X179455698Y-67957988D01*
X179106017Y-68191637D01*
X178808637Y-68489017D01*
X178574988Y-68838698D01*
X178414047Y-69227244D01*
X178332000Y-69639721D01*
X172563820Y-69639721D01*
X172563820Y-67710000D01*
X172556002Y-67610666D01*
X172536425Y-67487059D01*
X172520402Y-67414027D01*
X172485557Y-67325000D01*
X187160784Y-67325000D01*
X187163000Y-67338992D01*
G04 #@! TA.AperFunction,Conductor*
D22*
G36*
X187163000Y-67338992D02*
G01*
X187163000Y-75168217D01*
X183656815Y-75182394D01*
X183557766Y-75190573D01*
X183434546Y-75210549D01*
X183362069Y-75226696D01*
X183246279Y-75272394D01*
X183135218Y-75329379D01*
X183071251Y-75367079D01*
X182975185Y-75446244D01*
X182887096Y-75534689D01*
X182837857Y-75590280D01*
X182814415Y-75626999D01*
X165586778Y-75626999D01*
X165702241Y-75532241D01*
X165706070Y-75527576D01*
X170124950Y-71882000D01*
X171528820Y-71882000D01*
X171628154Y-71874182D01*
X171751761Y-71854605D01*
X171824793Y-71838582D01*
X171940712Y-71793211D01*
X172052219Y-71736395D01*
X172116721Y-71698590D01*
X172212947Y-71619620D01*
X172301440Y-71531127D01*
X172351102Y-71475240D01*
X172418215Y-71370399D01*
X172475031Y-71258892D01*
X172504995Y-71190389D01*
X172536425Y-71069941D01*
X172556002Y-70946334D01*
X172563820Y-70847000D01*
X172563820Y-69639721D01*
X178332000Y-69639721D01*
X178332000Y-70060279D01*
X178414047Y-70472756D01*
X178574988Y-70861302D01*
X178808637Y-71210983D01*
X179106017Y-71508363D01*
X179455698Y-71742012D01*
X179844244Y-71902953D01*
X180256721Y-71985000D01*
X180677279Y-71985000D01*
X181089756Y-71902953D01*
X181478302Y-71742012D01*
X181827983Y-71508363D01*
X182125363Y-71210983D01*
X182359012Y-70861302D01*
X182519953Y-70472756D01*
X182602000Y-70060279D01*
X182602000Y-69639721D01*
X182519953Y-69227244D01*
X182359012Y-68838698D01*
X182125363Y-68489017D01*
X181827983Y-68191637D01*
X181478302Y-67957988D01*
X181089756Y-67797047D01*
X180677279Y-67715000D01*
X180256721Y-67715000D01*
X179844244Y-67797047D01*
X179455698Y-67957988D01*
X179106017Y-68191637D01*
X178808637Y-68489017D01*
X178574988Y-68838698D01*
X178414047Y-69227244D01*
X178332000Y-69639721D01*
X172563820Y-69639721D01*
X172563820Y-67710000D01*
X172556002Y-67610666D01*
X172536425Y-67487059D01*
X172520402Y-67414027D01*
X172485557Y-67325000D01*
X187160784Y-67325000D01*
X187163000Y-67338992D01*
G37*
G04 #@! TD.AperFunction*
D21*
X162471951Y-71025000D02*
X152270558Y-71025000D01*
X151883450Y-71063127D01*
X151386750Y-71213799D01*
X150928989Y-71458477D01*
X150527759Y-71787759D01*
X150198477Y-72188989D01*
X149953799Y-72646750D01*
X149803127Y-73143450D01*
X149791208Y-73264467D01*
X149036001Y-72509260D01*
X149036001Y-68327106D01*
X149039557Y-68291001D01*
X149025366Y-68146916D01*
X148983338Y-68008367D01*
X148915088Y-67880681D01*
X148846254Y-67796807D01*
X148823239Y-67768763D01*
X148795194Y-67745747D01*
X148632932Y-67583485D01*
X148600068Y-67418271D01*
X148561434Y-67325000D01*
X167974514Y-67325000D01*
X162471951Y-71025000D01*
G04 #@! TA.AperFunction,Conductor*
D22*
G36*
X162471951Y-71025000D02*
G01*
X152270558Y-71025000D01*
X151883450Y-71063127D01*
X151386750Y-71213799D01*
X150928989Y-71458477D01*
X150527759Y-71787759D01*
X150198477Y-72188989D01*
X149953799Y-72646750D01*
X149803127Y-73143450D01*
X149791208Y-73264467D01*
X149036001Y-72509260D01*
X149036001Y-68327106D01*
X149039557Y-68291001D01*
X149025366Y-68146916D01*
X148983338Y-68008367D01*
X148915088Y-67880681D01*
X148846254Y-67796807D01*
X148823239Y-67768763D01*
X148795194Y-67745747D01*
X148632932Y-67583485D01*
X148600068Y-67418271D01*
X148561434Y-67325000D01*
X167974514Y-67325000D01*
X162471951Y-71025000D01*
G37*
G04 #@! TD.AperFunction*
G04 #@! TD*
M02*
