G04 #@! TF.GenerationSoftware,KiCad,Pcbnew,5.1.12-84ad8e8a86~92~ubuntu20.04.1*
G04 #@! TF.CreationDate,2022-01-02T11:27:23+02:00*
G04 #@! TF.ProjectId,panel.opm-inline,70616e65-6c2e-46f7-906d-2d696e6c696e,rev?*
G04 #@! TF.SameCoordinates,Original*
G04 #@! TF.FileFunction,Soldermask,Bot*
G04 #@! TF.FilePolarity,Negative*
%FSLAX46Y46*%
G04 Gerber Fmt 4.6, Leading zero omitted, Abs format (unit mm)*
G04 Created by KiCad (PCBNEW 5.1.12-84ad8e8a86~92~ubuntu20.04.1) date 2022-01-02 11:27:23*
%MOMM*%
%LPD*%
G01*
G04 APERTURE LIST*
%ADD10C,0.500000*%
%ADD11C,1.000000*%
%ADD12C,1.500000*%
%ADD13C,0.800000*%
%ADD14C,6.400000*%
%ADD15O,1.750000X1.200000*%
%ADD16C,1.600000*%
%ADD17O,1.200000X1.750000*%
%ADD18C,3.000000*%
%ADD19R,3.000000X3.000000*%
G04 APERTURE END LIST*
D10*
G04 #@! TO.C,REF\u002A\u002A*
X241513000Y-240161000D03*
G04 #@! TD*
G04 #@! TO.C,REF\u002A\u002A*
X240513000Y-240161000D03*
G04 #@! TD*
G04 #@! TO.C,REF\u002A\u002A*
X239513000Y-240161000D03*
G04 #@! TD*
G04 #@! TO.C,REF\u002A\u002A*
X238513000Y-240161000D03*
G04 #@! TD*
G04 #@! TO.C,REF\u002A\u002A*
X237513000Y-240161000D03*
G04 #@! TD*
G04 #@! TO.C,REF\u002A\u002A*
X222197000Y-240161000D03*
G04 #@! TD*
G04 #@! TO.C,REF\u002A\u002A*
X221197000Y-240161000D03*
G04 #@! TD*
G04 #@! TO.C,REF\u002A\u002A*
X220197000Y-240161000D03*
G04 #@! TD*
G04 #@! TO.C,REF\u002A\u002A*
X219197000Y-240161000D03*
G04 #@! TD*
G04 #@! TO.C,REF\u002A\u002A*
X218197000Y-240161000D03*
G04 #@! TD*
G04 #@! TO.C,REF\u002A\u002A*
X258629000Y-261955000D03*
G04 #@! TD*
G04 #@! TO.C,REF\u002A\u002A*
X258629000Y-260955000D03*
G04 #@! TD*
G04 #@! TO.C,REF\u002A\u002A*
X258629000Y-259955000D03*
G04 #@! TD*
G04 #@! TO.C,REF\u002A\u002A*
X258629000Y-258955000D03*
G04 #@! TD*
G04 #@! TO.C,REF\u002A\u002A*
X258629000Y-257955000D03*
G04 #@! TD*
G04 #@! TO.C,REF\u002A\u002A*
X201081000Y-257955000D03*
G04 #@! TD*
G04 #@! TO.C,REF\u002A\u002A*
X201081000Y-258955000D03*
G04 #@! TD*
G04 #@! TO.C,REF\u002A\u002A*
X201081000Y-259955000D03*
G04 #@! TD*
G04 #@! TO.C,REF\u002A\u002A*
X201081000Y-260955000D03*
G04 #@! TD*
G04 #@! TO.C,REF\u002A\u002A*
X201081000Y-261955000D03*
G04 #@! TD*
G04 #@! TO.C,REF\u002A\u002A*
X181563000Y-240161000D03*
G04 #@! TD*
G04 #@! TO.C,REF\u002A\u002A*
X180563000Y-240161000D03*
G04 #@! TD*
G04 #@! TO.C,REF\u002A\u002A*
X179563000Y-240161000D03*
G04 #@! TD*
G04 #@! TO.C,REF\u002A\u002A*
X178563000Y-240161000D03*
G04 #@! TD*
G04 #@! TO.C,REF\u002A\u002A*
X177563000Y-240161000D03*
G04 #@! TD*
G04 #@! TO.C,REF\u002A\u002A*
X162247000Y-240161000D03*
G04 #@! TD*
G04 #@! TO.C,REF\u002A\u002A*
X161247000Y-240161000D03*
G04 #@! TD*
G04 #@! TO.C,REF\u002A\u002A*
X160247000Y-240161000D03*
G04 #@! TD*
G04 #@! TO.C,REF\u002A\u002A*
X159247000Y-240161000D03*
G04 #@! TD*
G04 #@! TO.C,REF\u002A\u002A*
X158247000Y-240161000D03*
G04 #@! TD*
G04 #@! TO.C,REF\u002A\u002A*
X198679000Y-261955000D03*
G04 #@! TD*
G04 #@! TO.C,REF\u002A\u002A*
X198679000Y-260955000D03*
G04 #@! TD*
G04 #@! TO.C,REF\u002A\u002A*
X198679000Y-259955000D03*
G04 #@! TD*
G04 #@! TO.C,REF\u002A\u002A*
X198679000Y-258955000D03*
G04 #@! TD*
G04 #@! TO.C,REF\u002A\u002A*
X198679000Y-257955000D03*
G04 #@! TD*
G04 #@! TO.C,REF\u002A\u002A*
X141131000Y-257955000D03*
G04 #@! TD*
G04 #@! TO.C,REF\u002A\u002A*
X141131000Y-258955000D03*
G04 #@! TD*
G04 #@! TO.C,REF\u002A\u002A*
X141131000Y-259955000D03*
G04 #@! TD*
G04 #@! TO.C,REF\u002A\u002A*
X141131000Y-260955000D03*
G04 #@! TD*
G04 #@! TO.C,REF\u002A\u002A*
X141131000Y-261955000D03*
G04 #@! TD*
G04 #@! TO.C,REF\u002A\u002A*
X121613000Y-240161000D03*
G04 #@! TD*
G04 #@! TO.C,REF\u002A\u002A*
X120613000Y-240161000D03*
G04 #@! TD*
G04 #@! TO.C,REF\u002A\u002A*
X119613000Y-240161000D03*
G04 #@! TD*
G04 #@! TO.C,REF\u002A\u002A*
X118613000Y-240161000D03*
G04 #@! TD*
G04 #@! TO.C,REF\u002A\u002A*
X117613000Y-240161000D03*
G04 #@! TD*
G04 #@! TO.C,REF\u002A\u002A*
X102297000Y-240161000D03*
G04 #@! TD*
G04 #@! TO.C,REF\u002A\u002A*
X101297000Y-240161000D03*
G04 #@! TD*
G04 #@! TO.C,REF\u002A\u002A*
X100297000Y-240161000D03*
G04 #@! TD*
G04 #@! TO.C,REF\u002A\u002A*
X99297000Y-240161000D03*
G04 #@! TD*
G04 #@! TO.C,REF\u002A\u002A*
X98297000Y-240161000D03*
G04 #@! TD*
G04 #@! TO.C,REF\u002A\u002A*
X138729000Y-261955000D03*
G04 #@! TD*
G04 #@! TO.C,REF\u002A\u002A*
X138729000Y-260955000D03*
G04 #@! TD*
G04 #@! TO.C,REF\u002A\u002A*
X138729000Y-259955000D03*
G04 #@! TD*
G04 #@! TO.C,REF\u002A\u002A*
X138729000Y-258955000D03*
G04 #@! TD*
G04 #@! TO.C,REF\u002A\u002A*
X138729000Y-257955000D03*
G04 #@! TD*
G04 #@! TO.C,REF\u002A\u002A*
X81181000Y-257955000D03*
G04 #@! TD*
G04 #@! TO.C,REF\u002A\u002A*
X81181000Y-258955000D03*
G04 #@! TD*
G04 #@! TO.C,REF\u002A\u002A*
X81181000Y-259955000D03*
G04 #@! TD*
G04 #@! TO.C,REF\u002A\u002A*
X81181000Y-260955000D03*
G04 #@! TD*
G04 #@! TO.C,REF\u002A\u002A*
X81181000Y-261955000D03*
G04 #@! TD*
G04 #@! TO.C,REF\u002A\u002A*
X61653000Y-240161000D03*
G04 #@! TD*
G04 #@! TO.C,REF\u002A\u002A*
X60653000Y-240161000D03*
G04 #@! TD*
G04 #@! TO.C,REF\u002A\u002A*
X59653000Y-240161000D03*
G04 #@! TD*
G04 #@! TO.C,REF\u002A\u002A*
X58653000Y-240161000D03*
G04 #@! TD*
G04 #@! TO.C,REF\u002A\u002A*
X57653000Y-240161000D03*
G04 #@! TD*
G04 #@! TO.C,REF\u002A\u002A*
X42337000Y-240161000D03*
G04 #@! TD*
G04 #@! TO.C,REF\u002A\u002A*
X41337000Y-240161000D03*
G04 #@! TD*
G04 #@! TO.C,REF\u002A\u002A*
X40337000Y-240161000D03*
G04 #@! TD*
G04 #@! TO.C,REF\u002A\u002A*
X39337000Y-240161000D03*
G04 #@! TD*
G04 #@! TO.C,REF\u002A\u002A*
X38337000Y-240161000D03*
G04 #@! TD*
G04 #@! TO.C,REF\u002A\u002A*
X78769000Y-261955000D03*
G04 #@! TD*
G04 #@! TO.C,REF\u002A\u002A*
X78769000Y-260955000D03*
G04 #@! TD*
G04 #@! TO.C,REF\u002A\u002A*
X78769000Y-259955000D03*
G04 #@! TD*
G04 #@! TO.C,REF\u002A\u002A*
X78769000Y-258955000D03*
G04 #@! TD*
G04 #@! TO.C,REF\u002A\u002A*
X78769000Y-257955000D03*
G04 #@! TD*
G04 #@! TO.C,REF\u002A\u002A*
X21221000Y-257955000D03*
G04 #@! TD*
G04 #@! TO.C,REF\u002A\u002A*
X21221000Y-258955000D03*
G04 #@! TD*
G04 #@! TO.C,REF\u002A\u002A*
X21221000Y-259955000D03*
G04 #@! TD*
G04 #@! TO.C,REF\u002A\u002A*
X21221000Y-260955000D03*
G04 #@! TD*
G04 #@! TO.C,REF\u002A\u002A*
X21221000Y-261955000D03*
G04 #@! TD*
G04 #@! TO.C,REF\u002A\u002A*
X237513000Y-237759000D03*
G04 #@! TD*
G04 #@! TO.C,REF\u002A\u002A*
X238513000Y-237759000D03*
G04 #@! TD*
G04 #@! TO.C,REF\u002A\u002A*
X239513000Y-237759000D03*
G04 #@! TD*
G04 #@! TO.C,REF\u002A\u002A*
X240513000Y-237759000D03*
G04 #@! TD*
G04 #@! TO.C,REF\u002A\u002A*
X241513000Y-237759000D03*
G04 #@! TD*
G04 #@! TO.C,REF\u002A\u002A*
X218197000Y-237759000D03*
G04 #@! TD*
G04 #@! TO.C,REF\u002A\u002A*
X219197000Y-237759000D03*
G04 #@! TD*
G04 #@! TO.C,REF\u002A\u002A*
X220197000Y-237759000D03*
G04 #@! TD*
G04 #@! TO.C,REF\u002A\u002A*
X221197000Y-237759000D03*
G04 #@! TD*
G04 #@! TO.C,REF\u002A\u002A*
X222197000Y-237759000D03*
G04 #@! TD*
G04 #@! TO.C,REF\u002A\u002A*
X241513000Y-198171000D03*
G04 #@! TD*
G04 #@! TO.C,REF\u002A\u002A*
X240513000Y-198171000D03*
G04 #@! TD*
G04 #@! TO.C,REF\u002A\u002A*
X239513000Y-198171000D03*
G04 #@! TD*
G04 #@! TO.C,REF\u002A\u002A*
X238513000Y-198171000D03*
G04 #@! TD*
G04 #@! TO.C,REF\u002A\u002A*
X237513000Y-198171000D03*
G04 #@! TD*
G04 #@! TO.C,REF\u002A\u002A*
X222197000Y-198171000D03*
G04 #@! TD*
G04 #@! TO.C,REF\u002A\u002A*
X221197000Y-198171000D03*
G04 #@! TD*
G04 #@! TO.C,REF\u002A\u002A*
X220197000Y-198171000D03*
G04 #@! TD*
G04 #@! TO.C,REF\u002A\u002A*
X219197000Y-198171000D03*
G04 #@! TD*
G04 #@! TO.C,REF\u002A\u002A*
X218197000Y-198171000D03*
G04 #@! TD*
G04 #@! TO.C,REF\u002A\u002A*
X258629000Y-219965000D03*
G04 #@! TD*
G04 #@! TO.C,REF\u002A\u002A*
X258629000Y-218965000D03*
G04 #@! TD*
G04 #@! TO.C,REF\u002A\u002A*
X258629000Y-217965000D03*
G04 #@! TD*
G04 #@! TO.C,REF\u002A\u002A*
X258629000Y-216965000D03*
G04 #@! TD*
G04 #@! TO.C,REF\u002A\u002A*
X258629000Y-215965000D03*
G04 #@! TD*
G04 #@! TO.C,REF\u002A\u002A*
X201081000Y-215965000D03*
G04 #@! TD*
G04 #@! TO.C,REF\u002A\u002A*
X201081000Y-216965000D03*
G04 #@! TD*
G04 #@! TO.C,REF\u002A\u002A*
X201081000Y-217965000D03*
G04 #@! TD*
G04 #@! TO.C,REF\u002A\u002A*
X201081000Y-218965000D03*
G04 #@! TD*
G04 #@! TO.C,REF\u002A\u002A*
X201081000Y-219965000D03*
G04 #@! TD*
G04 #@! TO.C,REF\u002A\u002A*
X177563000Y-237759000D03*
G04 #@! TD*
G04 #@! TO.C,REF\u002A\u002A*
X178563000Y-237759000D03*
G04 #@! TD*
G04 #@! TO.C,REF\u002A\u002A*
X179563000Y-237759000D03*
G04 #@! TD*
G04 #@! TO.C,REF\u002A\u002A*
X180563000Y-237759000D03*
G04 #@! TD*
G04 #@! TO.C,REF\u002A\u002A*
X181563000Y-237759000D03*
G04 #@! TD*
G04 #@! TO.C,REF\u002A\u002A*
X158247000Y-237759000D03*
G04 #@! TD*
G04 #@! TO.C,REF\u002A\u002A*
X159247000Y-237759000D03*
G04 #@! TD*
G04 #@! TO.C,REF\u002A\u002A*
X160247000Y-237759000D03*
G04 #@! TD*
G04 #@! TO.C,REF\u002A\u002A*
X161247000Y-237759000D03*
G04 #@! TD*
G04 #@! TO.C,REF\u002A\u002A*
X162247000Y-237759000D03*
G04 #@! TD*
G04 #@! TO.C,REF\u002A\u002A*
X181563000Y-198171000D03*
G04 #@! TD*
G04 #@! TO.C,REF\u002A\u002A*
X180563000Y-198171000D03*
G04 #@! TD*
G04 #@! TO.C,REF\u002A\u002A*
X179563000Y-198171000D03*
G04 #@! TD*
G04 #@! TO.C,REF\u002A\u002A*
X178563000Y-198171000D03*
G04 #@! TD*
G04 #@! TO.C,REF\u002A\u002A*
X177563000Y-198171000D03*
G04 #@! TD*
G04 #@! TO.C,REF\u002A\u002A*
X162247000Y-198171000D03*
G04 #@! TD*
G04 #@! TO.C,REF\u002A\u002A*
X161247000Y-198171000D03*
G04 #@! TD*
G04 #@! TO.C,REF\u002A\u002A*
X160247000Y-198171000D03*
G04 #@! TD*
G04 #@! TO.C,REF\u002A\u002A*
X159247000Y-198171000D03*
G04 #@! TD*
G04 #@! TO.C,REF\u002A\u002A*
X158247000Y-198171000D03*
G04 #@! TD*
G04 #@! TO.C,REF\u002A\u002A*
X198679000Y-219965000D03*
G04 #@! TD*
G04 #@! TO.C,REF\u002A\u002A*
X198679000Y-218965000D03*
G04 #@! TD*
G04 #@! TO.C,REF\u002A\u002A*
X198679000Y-217965000D03*
G04 #@! TD*
G04 #@! TO.C,REF\u002A\u002A*
X198679000Y-216965000D03*
G04 #@! TD*
G04 #@! TO.C,REF\u002A\u002A*
X198679000Y-215965000D03*
G04 #@! TD*
G04 #@! TO.C,REF\u002A\u002A*
X141131000Y-215965000D03*
G04 #@! TD*
G04 #@! TO.C,REF\u002A\u002A*
X141131000Y-216965000D03*
G04 #@! TD*
G04 #@! TO.C,REF\u002A\u002A*
X141131000Y-217965000D03*
G04 #@! TD*
G04 #@! TO.C,REF\u002A\u002A*
X141131000Y-218965000D03*
G04 #@! TD*
G04 #@! TO.C,REF\u002A\u002A*
X141131000Y-219965000D03*
G04 #@! TD*
G04 #@! TO.C,REF\u002A\u002A*
X117613000Y-237759000D03*
G04 #@! TD*
G04 #@! TO.C,REF\u002A\u002A*
X118613000Y-237759000D03*
G04 #@! TD*
G04 #@! TO.C,REF\u002A\u002A*
X119613000Y-237759000D03*
G04 #@! TD*
G04 #@! TO.C,REF\u002A\u002A*
X120613000Y-237759000D03*
G04 #@! TD*
G04 #@! TO.C,REF\u002A\u002A*
X121613000Y-237759000D03*
G04 #@! TD*
G04 #@! TO.C,REF\u002A\u002A*
X98297000Y-237759000D03*
G04 #@! TD*
G04 #@! TO.C,REF\u002A\u002A*
X99297000Y-237759000D03*
G04 #@! TD*
G04 #@! TO.C,REF\u002A\u002A*
X100297000Y-237759000D03*
G04 #@! TD*
G04 #@! TO.C,REF\u002A\u002A*
X101297000Y-237759000D03*
G04 #@! TD*
G04 #@! TO.C,REF\u002A\u002A*
X102297000Y-237759000D03*
G04 #@! TD*
G04 #@! TO.C,REF\u002A\u002A*
X121613000Y-198171000D03*
G04 #@! TD*
G04 #@! TO.C,REF\u002A\u002A*
X120613000Y-198171000D03*
G04 #@! TD*
G04 #@! TO.C,REF\u002A\u002A*
X119613000Y-198171000D03*
G04 #@! TD*
G04 #@! TO.C,REF\u002A\u002A*
X118613000Y-198171000D03*
G04 #@! TD*
G04 #@! TO.C,REF\u002A\u002A*
X117613000Y-198171000D03*
G04 #@! TD*
G04 #@! TO.C,REF\u002A\u002A*
X102297000Y-198171000D03*
G04 #@! TD*
G04 #@! TO.C,REF\u002A\u002A*
X101297000Y-198171000D03*
G04 #@! TD*
G04 #@! TO.C,REF\u002A\u002A*
X100297000Y-198171000D03*
G04 #@! TD*
G04 #@! TO.C,REF\u002A\u002A*
X99297000Y-198171000D03*
G04 #@! TD*
G04 #@! TO.C,REF\u002A\u002A*
X98297000Y-198171000D03*
G04 #@! TD*
G04 #@! TO.C,REF\u002A\u002A*
X138729000Y-219965000D03*
G04 #@! TD*
G04 #@! TO.C,REF\u002A\u002A*
X138729000Y-218965000D03*
G04 #@! TD*
G04 #@! TO.C,REF\u002A\u002A*
X138729000Y-217965000D03*
G04 #@! TD*
G04 #@! TO.C,REF\u002A\u002A*
X138729000Y-216965000D03*
G04 #@! TD*
G04 #@! TO.C,REF\u002A\u002A*
X138729000Y-215965000D03*
G04 #@! TD*
G04 #@! TO.C,REF\u002A\u002A*
X81181000Y-215965000D03*
G04 #@! TD*
G04 #@! TO.C,REF\u002A\u002A*
X81181000Y-216965000D03*
G04 #@! TD*
G04 #@! TO.C,REF\u002A\u002A*
X81181000Y-217965000D03*
G04 #@! TD*
G04 #@! TO.C,REF\u002A\u002A*
X81181000Y-218965000D03*
G04 #@! TD*
G04 #@! TO.C,REF\u002A\u002A*
X81181000Y-219965000D03*
G04 #@! TD*
G04 #@! TO.C,REF\u002A\u002A*
X57653000Y-237759000D03*
G04 #@! TD*
G04 #@! TO.C,REF\u002A\u002A*
X58653000Y-237759000D03*
G04 #@! TD*
G04 #@! TO.C,REF\u002A\u002A*
X59653000Y-237759000D03*
G04 #@! TD*
G04 #@! TO.C,REF\u002A\u002A*
X60653000Y-237759000D03*
G04 #@! TD*
G04 #@! TO.C,REF\u002A\u002A*
X61653000Y-237759000D03*
G04 #@! TD*
G04 #@! TO.C,REF\u002A\u002A*
X38337000Y-237759000D03*
G04 #@! TD*
G04 #@! TO.C,REF\u002A\u002A*
X39337000Y-237759000D03*
G04 #@! TD*
G04 #@! TO.C,REF\u002A\u002A*
X40337000Y-237759000D03*
G04 #@! TD*
G04 #@! TO.C,REF\u002A\u002A*
X41337000Y-237759000D03*
G04 #@! TD*
G04 #@! TO.C,REF\u002A\u002A*
X42337000Y-237759000D03*
G04 #@! TD*
G04 #@! TO.C,REF\u002A\u002A*
X61653000Y-198171000D03*
G04 #@! TD*
G04 #@! TO.C,REF\u002A\u002A*
X60653000Y-198171000D03*
G04 #@! TD*
G04 #@! TO.C,REF\u002A\u002A*
X59653000Y-198171000D03*
G04 #@! TD*
G04 #@! TO.C,REF\u002A\u002A*
X58653000Y-198171000D03*
G04 #@! TD*
G04 #@! TO.C,REF\u002A\u002A*
X57653000Y-198171000D03*
G04 #@! TD*
G04 #@! TO.C,REF\u002A\u002A*
X42337000Y-198171000D03*
G04 #@! TD*
G04 #@! TO.C,REF\u002A\u002A*
X41337000Y-198171000D03*
G04 #@! TD*
G04 #@! TO.C,REF\u002A\u002A*
X40337000Y-198171000D03*
G04 #@! TD*
G04 #@! TO.C,REF\u002A\u002A*
X39337000Y-198171000D03*
G04 #@! TD*
G04 #@! TO.C,REF\u002A\u002A*
X38337000Y-198171000D03*
G04 #@! TD*
G04 #@! TO.C,REF\u002A\u002A*
X78769000Y-219965000D03*
G04 #@! TD*
G04 #@! TO.C,REF\u002A\u002A*
X78769000Y-218965000D03*
G04 #@! TD*
G04 #@! TO.C,REF\u002A\u002A*
X78769000Y-217965000D03*
G04 #@! TD*
G04 #@! TO.C,REF\u002A\u002A*
X78769000Y-216965000D03*
G04 #@! TD*
G04 #@! TO.C,REF\u002A\u002A*
X78769000Y-215965000D03*
G04 #@! TD*
G04 #@! TO.C,REF\u002A\u002A*
X21221000Y-215965000D03*
G04 #@! TD*
G04 #@! TO.C,REF\u002A\u002A*
X21221000Y-216965000D03*
G04 #@! TD*
G04 #@! TO.C,REF\u002A\u002A*
X21221000Y-217965000D03*
G04 #@! TD*
G04 #@! TO.C,REF\u002A\u002A*
X21221000Y-218965000D03*
G04 #@! TD*
G04 #@! TO.C,REF\u002A\u002A*
X21221000Y-219965000D03*
G04 #@! TD*
G04 #@! TO.C,REF\u002A\u002A*
X237513000Y-195769000D03*
G04 #@! TD*
G04 #@! TO.C,REF\u002A\u002A*
X238513000Y-195769000D03*
G04 #@! TD*
G04 #@! TO.C,REF\u002A\u002A*
X239513000Y-195769000D03*
G04 #@! TD*
G04 #@! TO.C,REF\u002A\u002A*
X240513000Y-195769000D03*
G04 #@! TD*
G04 #@! TO.C,REF\u002A\u002A*
X241513000Y-195769000D03*
G04 #@! TD*
G04 #@! TO.C,REF\u002A\u002A*
X218197000Y-195769000D03*
G04 #@! TD*
G04 #@! TO.C,REF\u002A\u002A*
X219197000Y-195769000D03*
G04 #@! TD*
G04 #@! TO.C,REF\u002A\u002A*
X220197000Y-195769000D03*
G04 #@! TD*
G04 #@! TO.C,REF\u002A\u002A*
X221197000Y-195769000D03*
G04 #@! TD*
G04 #@! TO.C,REF\u002A\u002A*
X222197000Y-195769000D03*
G04 #@! TD*
G04 #@! TO.C,REF\u002A\u002A*
X241513000Y-156181000D03*
G04 #@! TD*
G04 #@! TO.C,REF\u002A\u002A*
X240513000Y-156181000D03*
G04 #@! TD*
G04 #@! TO.C,REF\u002A\u002A*
X239513000Y-156181000D03*
G04 #@! TD*
G04 #@! TO.C,REF\u002A\u002A*
X238513000Y-156181000D03*
G04 #@! TD*
G04 #@! TO.C,REF\u002A\u002A*
X237513000Y-156181000D03*
G04 #@! TD*
G04 #@! TO.C,REF\u002A\u002A*
X222197000Y-156181000D03*
G04 #@! TD*
G04 #@! TO.C,REF\u002A\u002A*
X221197000Y-156181000D03*
G04 #@! TD*
G04 #@! TO.C,REF\u002A\u002A*
X220197000Y-156181000D03*
G04 #@! TD*
G04 #@! TO.C,REF\u002A\u002A*
X219197000Y-156181000D03*
G04 #@! TD*
G04 #@! TO.C,REF\u002A\u002A*
X218197000Y-156181000D03*
G04 #@! TD*
G04 #@! TO.C,REF\u002A\u002A*
X258629000Y-177975000D03*
G04 #@! TD*
G04 #@! TO.C,REF\u002A\u002A*
X258629000Y-176975000D03*
G04 #@! TD*
G04 #@! TO.C,REF\u002A\u002A*
X258629000Y-175975000D03*
G04 #@! TD*
G04 #@! TO.C,REF\u002A\u002A*
X258629000Y-174975000D03*
G04 #@! TD*
G04 #@! TO.C,REF\u002A\u002A*
X258629000Y-173975000D03*
G04 #@! TD*
G04 #@! TO.C,REF\u002A\u002A*
X201081000Y-173975000D03*
G04 #@! TD*
G04 #@! TO.C,REF\u002A\u002A*
X201081000Y-174975000D03*
G04 #@! TD*
G04 #@! TO.C,REF\u002A\u002A*
X201081000Y-175975000D03*
G04 #@! TD*
G04 #@! TO.C,REF\u002A\u002A*
X201081000Y-176975000D03*
G04 #@! TD*
G04 #@! TO.C,REF\u002A\u002A*
X201081000Y-177975000D03*
G04 #@! TD*
G04 #@! TO.C,REF\u002A\u002A*
X177563000Y-195769000D03*
G04 #@! TD*
G04 #@! TO.C,REF\u002A\u002A*
X178563000Y-195769000D03*
G04 #@! TD*
G04 #@! TO.C,REF\u002A\u002A*
X179563000Y-195769000D03*
G04 #@! TD*
G04 #@! TO.C,REF\u002A\u002A*
X180563000Y-195769000D03*
G04 #@! TD*
G04 #@! TO.C,REF\u002A\u002A*
X181563000Y-195769000D03*
G04 #@! TD*
G04 #@! TO.C,REF\u002A\u002A*
X158247000Y-195769000D03*
G04 #@! TD*
G04 #@! TO.C,REF\u002A\u002A*
X159247000Y-195769000D03*
G04 #@! TD*
G04 #@! TO.C,REF\u002A\u002A*
X160247000Y-195769000D03*
G04 #@! TD*
G04 #@! TO.C,REF\u002A\u002A*
X161247000Y-195769000D03*
G04 #@! TD*
G04 #@! TO.C,REF\u002A\u002A*
X162247000Y-195769000D03*
G04 #@! TD*
G04 #@! TO.C,REF\u002A\u002A*
X181563000Y-156181000D03*
G04 #@! TD*
G04 #@! TO.C,REF\u002A\u002A*
X180563000Y-156181000D03*
G04 #@! TD*
G04 #@! TO.C,REF\u002A\u002A*
X179563000Y-156181000D03*
G04 #@! TD*
G04 #@! TO.C,REF\u002A\u002A*
X178563000Y-156181000D03*
G04 #@! TD*
G04 #@! TO.C,REF\u002A\u002A*
X177563000Y-156181000D03*
G04 #@! TD*
G04 #@! TO.C,REF\u002A\u002A*
X162247000Y-156181000D03*
G04 #@! TD*
G04 #@! TO.C,REF\u002A\u002A*
X161247000Y-156181000D03*
G04 #@! TD*
G04 #@! TO.C,REF\u002A\u002A*
X160247000Y-156181000D03*
G04 #@! TD*
G04 #@! TO.C,REF\u002A\u002A*
X159247000Y-156181000D03*
G04 #@! TD*
G04 #@! TO.C,REF\u002A\u002A*
X158247000Y-156181000D03*
G04 #@! TD*
G04 #@! TO.C,REF\u002A\u002A*
X198679000Y-177975000D03*
G04 #@! TD*
G04 #@! TO.C,REF\u002A\u002A*
X198679000Y-176975000D03*
G04 #@! TD*
G04 #@! TO.C,REF\u002A\u002A*
X198679000Y-175975000D03*
G04 #@! TD*
G04 #@! TO.C,REF\u002A\u002A*
X198679000Y-174975000D03*
G04 #@! TD*
G04 #@! TO.C,REF\u002A\u002A*
X198679000Y-173975000D03*
G04 #@! TD*
G04 #@! TO.C,REF\u002A\u002A*
X141131000Y-173975000D03*
G04 #@! TD*
G04 #@! TO.C,REF\u002A\u002A*
X141131000Y-174975000D03*
G04 #@! TD*
G04 #@! TO.C,REF\u002A\u002A*
X141131000Y-175975000D03*
G04 #@! TD*
G04 #@! TO.C,REF\u002A\u002A*
X141131000Y-176975000D03*
G04 #@! TD*
G04 #@! TO.C,REF\u002A\u002A*
X141131000Y-177975000D03*
G04 #@! TD*
G04 #@! TO.C,REF\u002A\u002A*
X117613000Y-195769000D03*
G04 #@! TD*
G04 #@! TO.C,REF\u002A\u002A*
X118613000Y-195769000D03*
G04 #@! TD*
G04 #@! TO.C,REF\u002A\u002A*
X119613000Y-195769000D03*
G04 #@! TD*
G04 #@! TO.C,REF\u002A\u002A*
X120613000Y-195769000D03*
G04 #@! TD*
G04 #@! TO.C,REF\u002A\u002A*
X121613000Y-195769000D03*
G04 #@! TD*
G04 #@! TO.C,REF\u002A\u002A*
X98297000Y-195769000D03*
G04 #@! TD*
G04 #@! TO.C,REF\u002A\u002A*
X99297000Y-195769000D03*
G04 #@! TD*
G04 #@! TO.C,REF\u002A\u002A*
X100297000Y-195769000D03*
G04 #@! TD*
G04 #@! TO.C,REF\u002A\u002A*
X101297000Y-195769000D03*
G04 #@! TD*
G04 #@! TO.C,REF\u002A\u002A*
X102297000Y-195769000D03*
G04 #@! TD*
G04 #@! TO.C,REF\u002A\u002A*
X121613000Y-156181000D03*
G04 #@! TD*
G04 #@! TO.C,REF\u002A\u002A*
X120613000Y-156181000D03*
G04 #@! TD*
G04 #@! TO.C,REF\u002A\u002A*
X119613000Y-156181000D03*
G04 #@! TD*
G04 #@! TO.C,REF\u002A\u002A*
X118613000Y-156181000D03*
G04 #@! TD*
G04 #@! TO.C,REF\u002A\u002A*
X117613000Y-156181000D03*
G04 #@! TD*
G04 #@! TO.C,REF\u002A\u002A*
X102297000Y-156181000D03*
G04 #@! TD*
G04 #@! TO.C,REF\u002A\u002A*
X101297000Y-156181000D03*
G04 #@! TD*
G04 #@! TO.C,REF\u002A\u002A*
X100297000Y-156181000D03*
G04 #@! TD*
G04 #@! TO.C,REF\u002A\u002A*
X99297000Y-156181000D03*
G04 #@! TD*
G04 #@! TO.C,REF\u002A\u002A*
X98297000Y-156181000D03*
G04 #@! TD*
G04 #@! TO.C,REF\u002A\u002A*
X138729000Y-177975000D03*
G04 #@! TD*
G04 #@! TO.C,REF\u002A\u002A*
X138729000Y-176975000D03*
G04 #@! TD*
G04 #@! TO.C,REF\u002A\u002A*
X138729000Y-175975000D03*
G04 #@! TD*
G04 #@! TO.C,REF\u002A\u002A*
X138729000Y-174975000D03*
G04 #@! TD*
G04 #@! TO.C,REF\u002A\u002A*
X138729000Y-173975000D03*
G04 #@! TD*
G04 #@! TO.C,REF\u002A\u002A*
X81181000Y-173975000D03*
G04 #@! TD*
G04 #@! TO.C,REF\u002A\u002A*
X81181000Y-174975000D03*
G04 #@! TD*
G04 #@! TO.C,REF\u002A\u002A*
X81181000Y-175975000D03*
G04 #@! TD*
G04 #@! TO.C,REF\u002A\u002A*
X81181000Y-176975000D03*
G04 #@! TD*
G04 #@! TO.C,REF\u002A\u002A*
X81181000Y-177975000D03*
G04 #@! TD*
G04 #@! TO.C,REF\u002A\u002A*
X57653000Y-195769000D03*
G04 #@! TD*
G04 #@! TO.C,REF\u002A\u002A*
X58653000Y-195769000D03*
G04 #@! TD*
G04 #@! TO.C,REF\u002A\u002A*
X59653000Y-195769000D03*
G04 #@! TD*
G04 #@! TO.C,REF\u002A\u002A*
X60653000Y-195769000D03*
G04 #@! TD*
G04 #@! TO.C,REF\u002A\u002A*
X61653000Y-195769000D03*
G04 #@! TD*
G04 #@! TO.C,REF\u002A\u002A*
X38337000Y-195769000D03*
G04 #@! TD*
G04 #@! TO.C,REF\u002A\u002A*
X39337000Y-195769000D03*
G04 #@! TD*
G04 #@! TO.C,REF\u002A\u002A*
X40337000Y-195769000D03*
G04 #@! TD*
G04 #@! TO.C,REF\u002A\u002A*
X41337000Y-195769000D03*
G04 #@! TD*
G04 #@! TO.C,REF\u002A\u002A*
X42337000Y-195769000D03*
G04 #@! TD*
G04 #@! TO.C,REF\u002A\u002A*
X61653000Y-156181000D03*
G04 #@! TD*
G04 #@! TO.C,REF\u002A\u002A*
X60653000Y-156181000D03*
G04 #@! TD*
G04 #@! TO.C,REF\u002A\u002A*
X59653000Y-156181000D03*
G04 #@! TD*
G04 #@! TO.C,REF\u002A\u002A*
X58653000Y-156181000D03*
G04 #@! TD*
G04 #@! TO.C,REF\u002A\u002A*
X57653000Y-156181000D03*
G04 #@! TD*
G04 #@! TO.C,REF\u002A\u002A*
X42337000Y-156181000D03*
G04 #@! TD*
G04 #@! TO.C,REF\u002A\u002A*
X41337000Y-156181000D03*
G04 #@! TD*
G04 #@! TO.C,REF\u002A\u002A*
X40337000Y-156181000D03*
G04 #@! TD*
G04 #@! TO.C,REF\u002A\u002A*
X39337000Y-156181000D03*
G04 #@! TD*
G04 #@! TO.C,REF\u002A\u002A*
X38337000Y-156181000D03*
G04 #@! TD*
G04 #@! TO.C,REF\u002A\u002A*
X78769000Y-177975000D03*
G04 #@! TD*
G04 #@! TO.C,REF\u002A\u002A*
X78769000Y-176975000D03*
G04 #@! TD*
G04 #@! TO.C,REF\u002A\u002A*
X78769000Y-175975000D03*
G04 #@! TD*
G04 #@! TO.C,REF\u002A\u002A*
X78769000Y-174975000D03*
G04 #@! TD*
G04 #@! TO.C,REF\u002A\u002A*
X78769000Y-173975000D03*
G04 #@! TD*
G04 #@! TO.C,REF\u002A\u002A*
X21221000Y-173975000D03*
G04 #@! TD*
G04 #@! TO.C,REF\u002A\u002A*
X21221000Y-174975000D03*
G04 #@! TD*
G04 #@! TO.C,REF\u002A\u002A*
X21221000Y-175975000D03*
G04 #@! TD*
G04 #@! TO.C,REF\u002A\u002A*
X21221000Y-176975000D03*
G04 #@! TD*
G04 #@! TO.C,REF\u002A\u002A*
X21221000Y-177975000D03*
G04 #@! TD*
G04 #@! TO.C,REF\u002A\u002A*
X237513000Y-153779000D03*
G04 #@! TD*
G04 #@! TO.C,REF\u002A\u002A*
X238513000Y-153779000D03*
G04 #@! TD*
G04 #@! TO.C,REF\u002A\u002A*
X239513000Y-153779000D03*
G04 #@! TD*
G04 #@! TO.C,REF\u002A\u002A*
X240513000Y-153779000D03*
G04 #@! TD*
G04 #@! TO.C,REF\u002A\u002A*
X241513000Y-153779000D03*
G04 #@! TD*
G04 #@! TO.C,REF\u002A\u002A*
X218197000Y-153779000D03*
G04 #@! TD*
G04 #@! TO.C,REF\u002A\u002A*
X219197000Y-153779000D03*
G04 #@! TD*
G04 #@! TO.C,REF\u002A\u002A*
X220197000Y-153779000D03*
G04 #@! TD*
G04 #@! TO.C,REF\u002A\u002A*
X221197000Y-153779000D03*
G04 #@! TD*
G04 #@! TO.C,REF\u002A\u002A*
X222197000Y-153779000D03*
G04 #@! TD*
G04 #@! TO.C,REF\u002A\u002A*
X241513000Y-114191000D03*
G04 #@! TD*
G04 #@! TO.C,REF\u002A\u002A*
X240513000Y-114191000D03*
G04 #@! TD*
G04 #@! TO.C,REF\u002A\u002A*
X239513000Y-114191000D03*
G04 #@! TD*
G04 #@! TO.C,REF\u002A\u002A*
X238513000Y-114191000D03*
G04 #@! TD*
G04 #@! TO.C,REF\u002A\u002A*
X237513000Y-114191000D03*
G04 #@! TD*
G04 #@! TO.C,REF\u002A\u002A*
X222197000Y-114191000D03*
G04 #@! TD*
G04 #@! TO.C,REF\u002A\u002A*
X221197000Y-114191000D03*
G04 #@! TD*
G04 #@! TO.C,REF\u002A\u002A*
X220197000Y-114191000D03*
G04 #@! TD*
G04 #@! TO.C,REF\u002A\u002A*
X219197000Y-114191000D03*
G04 #@! TD*
G04 #@! TO.C,REF\u002A\u002A*
X218197000Y-114191000D03*
G04 #@! TD*
G04 #@! TO.C,REF\u002A\u002A*
X258629000Y-135985000D03*
G04 #@! TD*
G04 #@! TO.C,REF\u002A\u002A*
X258629000Y-134985000D03*
G04 #@! TD*
G04 #@! TO.C,REF\u002A\u002A*
X258629000Y-133985000D03*
G04 #@! TD*
G04 #@! TO.C,REF\u002A\u002A*
X258629000Y-132985000D03*
G04 #@! TD*
G04 #@! TO.C,REF\u002A\u002A*
X258629000Y-131985000D03*
G04 #@! TD*
G04 #@! TO.C,REF\u002A\u002A*
X201081000Y-131985000D03*
G04 #@! TD*
G04 #@! TO.C,REF\u002A\u002A*
X201081000Y-132985000D03*
G04 #@! TD*
G04 #@! TO.C,REF\u002A\u002A*
X201081000Y-133985000D03*
G04 #@! TD*
G04 #@! TO.C,REF\u002A\u002A*
X201081000Y-134985000D03*
G04 #@! TD*
G04 #@! TO.C,REF\u002A\u002A*
X201081000Y-135985000D03*
G04 #@! TD*
G04 #@! TO.C,REF\u002A\u002A*
X177563000Y-153779000D03*
G04 #@! TD*
G04 #@! TO.C,REF\u002A\u002A*
X178563000Y-153779000D03*
G04 #@! TD*
G04 #@! TO.C,REF\u002A\u002A*
X179563000Y-153779000D03*
G04 #@! TD*
G04 #@! TO.C,REF\u002A\u002A*
X180563000Y-153779000D03*
G04 #@! TD*
G04 #@! TO.C,REF\u002A\u002A*
X181563000Y-153779000D03*
G04 #@! TD*
G04 #@! TO.C,REF\u002A\u002A*
X158247000Y-153779000D03*
G04 #@! TD*
G04 #@! TO.C,REF\u002A\u002A*
X159247000Y-153779000D03*
G04 #@! TD*
G04 #@! TO.C,REF\u002A\u002A*
X160247000Y-153779000D03*
G04 #@! TD*
G04 #@! TO.C,REF\u002A\u002A*
X161247000Y-153779000D03*
G04 #@! TD*
G04 #@! TO.C,REF\u002A\u002A*
X162247000Y-153779000D03*
G04 #@! TD*
G04 #@! TO.C,REF\u002A\u002A*
X181563000Y-114191000D03*
G04 #@! TD*
G04 #@! TO.C,REF\u002A\u002A*
X180563000Y-114191000D03*
G04 #@! TD*
G04 #@! TO.C,REF\u002A\u002A*
X179563000Y-114191000D03*
G04 #@! TD*
G04 #@! TO.C,REF\u002A\u002A*
X178563000Y-114191000D03*
G04 #@! TD*
G04 #@! TO.C,REF\u002A\u002A*
X177563000Y-114191000D03*
G04 #@! TD*
G04 #@! TO.C,REF\u002A\u002A*
X162247000Y-114191000D03*
G04 #@! TD*
G04 #@! TO.C,REF\u002A\u002A*
X161247000Y-114191000D03*
G04 #@! TD*
G04 #@! TO.C,REF\u002A\u002A*
X160247000Y-114191000D03*
G04 #@! TD*
G04 #@! TO.C,REF\u002A\u002A*
X159247000Y-114191000D03*
G04 #@! TD*
G04 #@! TO.C,REF\u002A\u002A*
X158247000Y-114191000D03*
G04 #@! TD*
G04 #@! TO.C,REF\u002A\u002A*
X198679000Y-135985000D03*
G04 #@! TD*
G04 #@! TO.C,REF\u002A\u002A*
X198679000Y-134985000D03*
G04 #@! TD*
G04 #@! TO.C,REF\u002A\u002A*
X198679000Y-133985000D03*
G04 #@! TD*
G04 #@! TO.C,REF\u002A\u002A*
X198679000Y-132985000D03*
G04 #@! TD*
G04 #@! TO.C,REF\u002A\u002A*
X198679000Y-131985000D03*
G04 #@! TD*
G04 #@! TO.C,REF\u002A\u002A*
X141131000Y-131985000D03*
G04 #@! TD*
G04 #@! TO.C,REF\u002A\u002A*
X141131000Y-132985000D03*
G04 #@! TD*
G04 #@! TO.C,REF\u002A\u002A*
X141131000Y-133985000D03*
G04 #@! TD*
G04 #@! TO.C,REF\u002A\u002A*
X141131000Y-134985000D03*
G04 #@! TD*
G04 #@! TO.C,REF\u002A\u002A*
X141131000Y-135985000D03*
G04 #@! TD*
G04 #@! TO.C,REF\u002A\u002A*
X117613000Y-153779000D03*
G04 #@! TD*
G04 #@! TO.C,REF\u002A\u002A*
X118613000Y-153779000D03*
G04 #@! TD*
G04 #@! TO.C,REF\u002A\u002A*
X119613000Y-153779000D03*
G04 #@! TD*
G04 #@! TO.C,REF\u002A\u002A*
X120613000Y-153779000D03*
G04 #@! TD*
G04 #@! TO.C,REF\u002A\u002A*
X121613000Y-153779000D03*
G04 #@! TD*
G04 #@! TO.C,REF\u002A\u002A*
X98297000Y-153779000D03*
G04 #@! TD*
G04 #@! TO.C,REF\u002A\u002A*
X99297000Y-153779000D03*
G04 #@! TD*
G04 #@! TO.C,REF\u002A\u002A*
X100297000Y-153779000D03*
G04 #@! TD*
G04 #@! TO.C,REF\u002A\u002A*
X101297000Y-153779000D03*
G04 #@! TD*
G04 #@! TO.C,REF\u002A\u002A*
X102297000Y-153779000D03*
G04 #@! TD*
G04 #@! TO.C,REF\u002A\u002A*
X121613000Y-114191000D03*
G04 #@! TD*
G04 #@! TO.C,REF\u002A\u002A*
X120613000Y-114191000D03*
G04 #@! TD*
G04 #@! TO.C,REF\u002A\u002A*
X119613000Y-114191000D03*
G04 #@! TD*
G04 #@! TO.C,REF\u002A\u002A*
X118613000Y-114191000D03*
G04 #@! TD*
G04 #@! TO.C,REF\u002A\u002A*
X117613000Y-114191000D03*
G04 #@! TD*
G04 #@! TO.C,REF\u002A\u002A*
X102297000Y-114191000D03*
G04 #@! TD*
G04 #@! TO.C,REF\u002A\u002A*
X101297000Y-114191000D03*
G04 #@! TD*
G04 #@! TO.C,REF\u002A\u002A*
X100297000Y-114191000D03*
G04 #@! TD*
G04 #@! TO.C,REF\u002A\u002A*
X99297000Y-114191000D03*
G04 #@! TD*
G04 #@! TO.C,REF\u002A\u002A*
X98297000Y-114191000D03*
G04 #@! TD*
G04 #@! TO.C,REF\u002A\u002A*
X138729000Y-135985000D03*
G04 #@! TD*
G04 #@! TO.C,REF\u002A\u002A*
X138729000Y-134985000D03*
G04 #@! TD*
G04 #@! TO.C,REF\u002A\u002A*
X138729000Y-133985000D03*
G04 #@! TD*
G04 #@! TO.C,REF\u002A\u002A*
X138729000Y-132985000D03*
G04 #@! TD*
G04 #@! TO.C,REF\u002A\u002A*
X138729000Y-131985000D03*
G04 #@! TD*
G04 #@! TO.C,REF\u002A\u002A*
X81181000Y-131985000D03*
G04 #@! TD*
G04 #@! TO.C,REF\u002A\u002A*
X81181000Y-132985000D03*
G04 #@! TD*
G04 #@! TO.C,REF\u002A\u002A*
X81181000Y-133985000D03*
G04 #@! TD*
G04 #@! TO.C,REF\u002A\u002A*
X81181000Y-134985000D03*
G04 #@! TD*
G04 #@! TO.C,REF\u002A\u002A*
X81181000Y-135985000D03*
G04 #@! TD*
G04 #@! TO.C,REF\u002A\u002A*
X57653000Y-153779000D03*
G04 #@! TD*
G04 #@! TO.C,REF\u002A\u002A*
X58653000Y-153779000D03*
G04 #@! TD*
G04 #@! TO.C,REF\u002A\u002A*
X59653000Y-153779000D03*
G04 #@! TD*
G04 #@! TO.C,REF\u002A\u002A*
X60653000Y-153779000D03*
G04 #@! TD*
G04 #@! TO.C,REF\u002A\u002A*
X61653000Y-153779000D03*
G04 #@! TD*
G04 #@! TO.C,REF\u002A\u002A*
X38337000Y-153779000D03*
G04 #@! TD*
G04 #@! TO.C,REF\u002A\u002A*
X39337000Y-153779000D03*
G04 #@! TD*
G04 #@! TO.C,REF\u002A\u002A*
X40337000Y-153779000D03*
G04 #@! TD*
G04 #@! TO.C,REF\u002A\u002A*
X41337000Y-153779000D03*
G04 #@! TD*
G04 #@! TO.C,REF\u002A\u002A*
X42337000Y-153779000D03*
G04 #@! TD*
G04 #@! TO.C,REF\u002A\u002A*
X61653000Y-114191000D03*
G04 #@! TD*
G04 #@! TO.C,REF\u002A\u002A*
X60653000Y-114191000D03*
G04 #@! TD*
G04 #@! TO.C,REF\u002A\u002A*
X59653000Y-114191000D03*
G04 #@! TD*
G04 #@! TO.C,REF\u002A\u002A*
X58653000Y-114191000D03*
G04 #@! TD*
G04 #@! TO.C,REF\u002A\u002A*
X57653000Y-114191000D03*
G04 #@! TD*
G04 #@! TO.C,REF\u002A\u002A*
X42337000Y-114191000D03*
G04 #@! TD*
G04 #@! TO.C,REF\u002A\u002A*
X41337000Y-114191000D03*
G04 #@! TD*
G04 #@! TO.C,REF\u002A\u002A*
X40337000Y-114191000D03*
G04 #@! TD*
G04 #@! TO.C,REF\u002A\u002A*
X39337000Y-114191000D03*
G04 #@! TD*
G04 #@! TO.C,REF\u002A\u002A*
X38337000Y-114191000D03*
G04 #@! TD*
G04 #@! TO.C,REF\u002A\u002A*
X78769000Y-135985000D03*
G04 #@! TD*
G04 #@! TO.C,REF\u002A\u002A*
X78769000Y-134985000D03*
G04 #@! TD*
G04 #@! TO.C,REF\u002A\u002A*
X78769000Y-133985000D03*
G04 #@! TD*
G04 #@! TO.C,REF\u002A\u002A*
X78769000Y-132985000D03*
G04 #@! TD*
G04 #@! TO.C,REF\u002A\u002A*
X78769000Y-131985000D03*
G04 #@! TD*
G04 #@! TO.C,REF\u002A\u002A*
X21221000Y-131985000D03*
G04 #@! TD*
G04 #@! TO.C,REF\u002A\u002A*
X21221000Y-132985000D03*
G04 #@! TD*
G04 #@! TO.C,REF\u002A\u002A*
X21221000Y-133985000D03*
G04 #@! TD*
G04 #@! TO.C,REF\u002A\u002A*
X21221000Y-134985000D03*
G04 #@! TD*
G04 #@! TO.C,REF\u002A\u002A*
X21221000Y-135985000D03*
G04 #@! TD*
G04 #@! TO.C,REF\u002A\u002A*
X237513000Y-111789000D03*
G04 #@! TD*
G04 #@! TO.C,REF\u002A\u002A*
X238513000Y-111789000D03*
G04 #@! TD*
G04 #@! TO.C,REF\u002A\u002A*
X239513000Y-111789000D03*
G04 #@! TD*
G04 #@! TO.C,REF\u002A\u002A*
X240513000Y-111789000D03*
G04 #@! TD*
G04 #@! TO.C,REF\u002A\u002A*
X241513000Y-111789000D03*
G04 #@! TD*
G04 #@! TO.C,REF\u002A\u002A*
X218197000Y-111789000D03*
G04 #@! TD*
G04 #@! TO.C,REF\u002A\u002A*
X219197000Y-111789000D03*
G04 #@! TD*
G04 #@! TO.C,REF\u002A\u002A*
X220197000Y-111789000D03*
G04 #@! TD*
G04 #@! TO.C,REF\u002A\u002A*
X221197000Y-111789000D03*
G04 #@! TD*
G04 #@! TO.C,REF\u002A\u002A*
X222197000Y-111789000D03*
G04 #@! TD*
G04 #@! TO.C,REF\u002A\u002A*
X241513000Y-72201000D03*
G04 #@! TD*
G04 #@! TO.C,REF\u002A\u002A*
X240513000Y-72201000D03*
G04 #@! TD*
G04 #@! TO.C,REF\u002A\u002A*
X239513000Y-72201000D03*
G04 #@! TD*
G04 #@! TO.C,REF\u002A\u002A*
X238513000Y-72201000D03*
G04 #@! TD*
G04 #@! TO.C,REF\u002A\u002A*
X237513000Y-72201000D03*
G04 #@! TD*
G04 #@! TO.C,REF\u002A\u002A*
X222197000Y-72201000D03*
G04 #@! TD*
G04 #@! TO.C,REF\u002A\u002A*
X221197000Y-72201000D03*
G04 #@! TD*
G04 #@! TO.C,REF\u002A\u002A*
X220197000Y-72201000D03*
G04 #@! TD*
G04 #@! TO.C,REF\u002A\u002A*
X219197000Y-72201000D03*
G04 #@! TD*
G04 #@! TO.C,REF\u002A\u002A*
X218197000Y-72201000D03*
G04 #@! TD*
G04 #@! TO.C,REF\u002A\u002A*
X258629000Y-93995000D03*
G04 #@! TD*
G04 #@! TO.C,REF\u002A\u002A*
X258629000Y-92995000D03*
G04 #@! TD*
G04 #@! TO.C,REF\u002A\u002A*
X258629000Y-91995000D03*
G04 #@! TD*
G04 #@! TO.C,REF\u002A\u002A*
X258629000Y-90995000D03*
G04 #@! TD*
G04 #@! TO.C,REF\u002A\u002A*
X258629000Y-89995000D03*
G04 #@! TD*
G04 #@! TO.C,REF\u002A\u002A*
X201081000Y-89995000D03*
G04 #@! TD*
G04 #@! TO.C,REF\u002A\u002A*
X201081000Y-90995000D03*
G04 #@! TD*
G04 #@! TO.C,REF\u002A\u002A*
X201081000Y-91995000D03*
G04 #@! TD*
G04 #@! TO.C,REF\u002A\u002A*
X201081000Y-92995000D03*
G04 #@! TD*
G04 #@! TO.C,REF\u002A\u002A*
X201081000Y-93995000D03*
G04 #@! TD*
G04 #@! TO.C,REF\u002A\u002A*
X177563000Y-111789000D03*
G04 #@! TD*
G04 #@! TO.C,REF\u002A\u002A*
X178563000Y-111789000D03*
G04 #@! TD*
G04 #@! TO.C,REF\u002A\u002A*
X179563000Y-111789000D03*
G04 #@! TD*
G04 #@! TO.C,REF\u002A\u002A*
X180563000Y-111789000D03*
G04 #@! TD*
G04 #@! TO.C,REF\u002A\u002A*
X181563000Y-111789000D03*
G04 #@! TD*
G04 #@! TO.C,REF\u002A\u002A*
X158247000Y-111789000D03*
G04 #@! TD*
G04 #@! TO.C,REF\u002A\u002A*
X159247000Y-111789000D03*
G04 #@! TD*
G04 #@! TO.C,REF\u002A\u002A*
X160247000Y-111789000D03*
G04 #@! TD*
G04 #@! TO.C,REF\u002A\u002A*
X161247000Y-111789000D03*
G04 #@! TD*
G04 #@! TO.C,REF\u002A\u002A*
X162247000Y-111789000D03*
G04 #@! TD*
G04 #@! TO.C,REF\u002A\u002A*
X181563000Y-72201000D03*
G04 #@! TD*
G04 #@! TO.C,REF\u002A\u002A*
X180563000Y-72201000D03*
G04 #@! TD*
G04 #@! TO.C,REF\u002A\u002A*
X179563000Y-72201000D03*
G04 #@! TD*
G04 #@! TO.C,REF\u002A\u002A*
X178563000Y-72201000D03*
G04 #@! TD*
G04 #@! TO.C,REF\u002A\u002A*
X177563000Y-72201000D03*
G04 #@! TD*
G04 #@! TO.C,REF\u002A\u002A*
X162247000Y-72201000D03*
G04 #@! TD*
G04 #@! TO.C,REF\u002A\u002A*
X161247000Y-72201000D03*
G04 #@! TD*
G04 #@! TO.C,REF\u002A\u002A*
X160247000Y-72201000D03*
G04 #@! TD*
G04 #@! TO.C,REF\u002A\u002A*
X159247000Y-72201000D03*
G04 #@! TD*
G04 #@! TO.C,REF\u002A\u002A*
X158247000Y-72201000D03*
G04 #@! TD*
G04 #@! TO.C,REF\u002A\u002A*
X198679000Y-93995000D03*
G04 #@! TD*
G04 #@! TO.C,REF\u002A\u002A*
X198679000Y-92995000D03*
G04 #@! TD*
G04 #@! TO.C,REF\u002A\u002A*
X198679000Y-91995000D03*
G04 #@! TD*
G04 #@! TO.C,REF\u002A\u002A*
X198679000Y-90995000D03*
G04 #@! TD*
G04 #@! TO.C,REF\u002A\u002A*
X198679000Y-89995000D03*
G04 #@! TD*
G04 #@! TO.C,REF\u002A\u002A*
X141131000Y-89995000D03*
G04 #@! TD*
G04 #@! TO.C,REF\u002A\u002A*
X141131000Y-90995000D03*
G04 #@! TD*
G04 #@! TO.C,REF\u002A\u002A*
X141131000Y-91995000D03*
G04 #@! TD*
G04 #@! TO.C,REF\u002A\u002A*
X141131000Y-92995000D03*
G04 #@! TD*
G04 #@! TO.C,REF\u002A\u002A*
X141131000Y-93995000D03*
G04 #@! TD*
G04 #@! TO.C,REF\u002A\u002A*
X117613000Y-111789000D03*
G04 #@! TD*
G04 #@! TO.C,REF\u002A\u002A*
X118613000Y-111789000D03*
G04 #@! TD*
G04 #@! TO.C,REF\u002A\u002A*
X119613000Y-111789000D03*
G04 #@! TD*
G04 #@! TO.C,REF\u002A\u002A*
X120613000Y-111789000D03*
G04 #@! TD*
G04 #@! TO.C,REF\u002A\u002A*
X121613000Y-111789000D03*
G04 #@! TD*
G04 #@! TO.C,REF\u002A\u002A*
X98297000Y-111789000D03*
G04 #@! TD*
G04 #@! TO.C,REF\u002A\u002A*
X99297000Y-111789000D03*
G04 #@! TD*
G04 #@! TO.C,REF\u002A\u002A*
X100297000Y-111789000D03*
G04 #@! TD*
G04 #@! TO.C,REF\u002A\u002A*
X101297000Y-111789000D03*
G04 #@! TD*
G04 #@! TO.C,REF\u002A\u002A*
X102297000Y-111789000D03*
G04 #@! TD*
G04 #@! TO.C,REF\u002A\u002A*
X121613000Y-72201000D03*
G04 #@! TD*
G04 #@! TO.C,REF\u002A\u002A*
X120613000Y-72201000D03*
G04 #@! TD*
G04 #@! TO.C,REF\u002A\u002A*
X119613000Y-72201000D03*
G04 #@! TD*
G04 #@! TO.C,REF\u002A\u002A*
X118613000Y-72201000D03*
G04 #@! TD*
G04 #@! TO.C,REF\u002A\u002A*
X117613000Y-72201000D03*
G04 #@! TD*
G04 #@! TO.C,REF\u002A\u002A*
X102297000Y-72201000D03*
G04 #@! TD*
G04 #@! TO.C,REF\u002A\u002A*
X101297000Y-72201000D03*
G04 #@! TD*
G04 #@! TO.C,REF\u002A\u002A*
X100297000Y-72201000D03*
G04 #@! TD*
G04 #@! TO.C,REF\u002A\u002A*
X99297000Y-72201000D03*
G04 #@! TD*
G04 #@! TO.C,REF\u002A\u002A*
X98297000Y-72201000D03*
G04 #@! TD*
G04 #@! TO.C,REF\u002A\u002A*
X138729000Y-93995000D03*
G04 #@! TD*
G04 #@! TO.C,REF\u002A\u002A*
X138729000Y-92995000D03*
G04 #@! TD*
G04 #@! TO.C,REF\u002A\u002A*
X138729000Y-91995000D03*
G04 #@! TD*
G04 #@! TO.C,REF\u002A\u002A*
X138729000Y-90995000D03*
G04 #@! TD*
G04 #@! TO.C,REF\u002A\u002A*
X138729000Y-89995000D03*
G04 #@! TD*
G04 #@! TO.C,REF\u002A\u002A*
X81181000Y-89995000D03*
G04 #@! TD*
G04 #@! TO.C,REF\u002A\u002A*
X81181000Y-90995000D03*
G04 #@! TD*
G04 #@! TO.C,REF\u002A\u002A*
X81181000Y-91995000D03*
G04 #@! TD*
G04 #@! TO.C,REF\u002A\u002A*
X81181000Y-92995000D03*
G04 #@! TD*
G04 #@! TO.C,REF\u002A\u002A*
X81181000Y-93995000D03*
G04 #@! TD*
G04 #@! TO.C,REF\u002A\u002A*
X57653000Y-111789000D03*
G04 #@! TD*
G04 #@! TO.C,REF\u002A\u002A*
X58653000Y-111789000D03*
G04 #@! TD*
G04 #@! TO.C,REF\u002A\u002A*
X59653000Y-111789000D03*
G04 #@! TD*
G04 #@! TO.C,REF\u002A\u002A*
X60653000Y-111789000D03*
G04 #@! TD*
G04 #@! TO.C,REF\u002A\u002A*
X61653000Y-111789000D03*
G04 #@! TD*
G04 #@! TO.C,REF\u002A\u002A*
X38337000Y-111789000D03*
G04 #@! TD*
G04 #@! TO.C,REF\u002A\u002A*
X39337000Y-111789000D03*
G04 #@! TD*
G04 #@! TO.C,REF\u002A\u002A*
X40337000Y-111789000D03*
G04 #@! TD*
G04 #@! TO.C,REF\u002A\u002A*
X41337000Y-111789000D03*
G04 #@! TD*
G04 #@! TO.C,REF\u002A\u002A*
X42337000Y-111789000D03*
G04 #@! TD*
G04 #@! TO.C,REF\u002A\u002A*
X61653000Y-72201000D03*
G04 #@! TD*
G04 #@! TO.C,REF\u002A\u002A*
X60653000Y-72201000D03*
G04 #@! TD*
G04 #@! TO.C,REF\u002A\u002A*
X59653000Y-72201000D03*
G04 #@! TD*
G04 #@! TO.C,REF\u002A\u002A*
X58653000Y-72201000D03*
G04 #@! TD*
G04 #@! TO.C,REF\u002A\u002A*
X57653000Y-72201000D03*
G04 #@! TD*
G04 #@! TO.C,REF\u002A\u002A*
X42337000Y-72201000D03*
G04 #@! TD*
G04 #@! TO.C,REF\u002A\u002A*
X41337000Y-72201000D03*
G04 #@! TD*
G04 #@! TO.C,REF\u002A\u002A*
X40337000Y-72201000D03*
G04 #@! TD*
G04 #@! TO.C,REF\u002A\u002A*
X39337000Y-72201000D03*
G04 #@! TD*
G04 #@! TO.C,REF\u002A\u002A*
X38337000Y-72201000D03*
G04 #@! TD*
G04 #@! TO.C,REF\u002A\u002A*
X78769000Y-93995000D03*
G04 #@! TD*
G04 #@! TO.C,REF\u002A\u002A*
X78769000Y-92995000D03*
G04 #@! TD*
G04 #@! TO.C,REF\u002A\u002A*
X78769000Y-91995000D03*
G04 #@! TD*
G04 #@! TO.C,REF\u002A\u002A*
X78769000Y-90995000D03*
G04 #@! TD*
G04 #@! TO.C,REF\u002A\u002A*
X78769000Y-89995000D03*
G04 #@! TD*
G04 #@! TO.C,REF\u002A\u002A*
X21221000Y-89995000D03*
G04 #@! TD*
G04 #@! TO.C,REF\u002A\u002A*
X21221000Y-90995000D03*
G04 #@! TD*
G04 #@! TO.C,REF\u002A\u002A*
X21221000Y-91995000D03*
G04 #@! TD*
G04 #@! TO.C,REF\u002A\u002A*
X21221000Y-92995000D03*
G04 #@! TD*
G04 #@! TO.C,REF\u002A\u002A*
X21221000Y-93995000D03*
G04 #@! TD*
G04 #@! TO.C,REF\u002A\u002A*
X237513000Y-69789000D03*
G04 #@! TD*
G04 #@! TO.C,REF\u002A\u002A*
X238513000Y-69789000D03*
G04 #@! TD*
G04 #@! TO.C,REF\u002A\u002A*
X239513000Y-69789000D03*
G04 #@! TD*
G04 #@! TO.C,REF\u002A\u002A*
X240513000Y-69789000D03*
G04 #@! TD*
G04 #@! TO.C,REF\u002A\u002A*
X241513000Y-69789000D03*
G04 #@! TD*
G04 #@! TO.C,REF\u002A\u002A*
X218197000Y-69789000D03*
G04 #@! TD*
G04 #@! TO.C,REF\u002A\u002A*
X219197000Y-69789000D03*
G04 #@! TD*
G04 #@! TO.C,REF\u002A\u002A*
X220197000Y-69789000D03*
G04 #@! TD*
G04 #@! TO.C,REF\u002A\u002A*
X221197000Y-69789000D03*
G04 #@! TD*
G04 #@! TO.C,REF\u002A\u002A*
X222197000Y-69789000D03*
G04 #@! TD*
G04 #@! TO.C,REF\u002A\u002A*
X258629000Y-51995000D03*
G04 #@! TD*
G04 #@! TO.C,REF\u002A\u002A*
X258629000Y-50995000D03*
G04 #@! TD*
G04 #@! TO.C,REF\u002A\u002A*
X258629000Y-49995000D03*
G04 #@! TD*
G04 #@! TO.C,REF\u002A\u002A*
X258629000Y-48995000D03*
G04 #@! TD*
G04 #@! TO.C,REF\u002A\u002A*
X258629000Y-47995000D03*
G04 #@! TD*
G04 #@! TO.C,REF\u002A\u002A*
X201081000Y-47995000D03*
G04 #@! TD*
G04 #@! TO.C,REF\u002A\u002A*
X201081000Y-48995000D03*
G04 #@! TD*
G04 #@! TO.C,REF\u002A\u002A*
X201081000Y-49995000D03*
G04 #@! TD*
G04 #@! TO.C,REF\u002A\u002A*
X201081000Y-50995000D03*
G04 #@! TD*
G04 #@! TO.C,REF\u002A\u002A*
X201081000Y-51995000D03*
G04 #@! TD*
G04 #@! TO.C,REF\u002A\u002A*
X177563000Y-69789000D03*
G04 #@! TD*
G04 #@! TO.C,REF\u002A\u002A*
X178563000Y-69789000D03*
G04 #@! TD*
G04 #@! TO.C,REF\u002A\u002A*
X179563000Y-69789000D03*
G04 #@! TD*
G04 #@! TO.C,REF\u002A\u002A*
X180563000Y-69789000D03*
G04 #@! TD*
G04 #@! TO.C,REF\u002A\u002A*
X181563000Y-69789000D03*
G04 #@! TD*
G04 #@! TO.C,REF\u002A\u002A*
X158247000Y-69789000D03*
G04 #@! TD*
G04 #@! TO.C,REF\u002A\u002A*
X159247000Y-69789000D03*
G04 #@! TD*
G04 #@! TO.C,REF\u002A\u002A*
X160247000Y-69789000D03*
G04 #@! TD*
G04 #@! TO.C,REF\u002A\u002A*
X161247000Y-69789000D03*
G04 #@! TD*
G04 #@! TO.C,REF\u002A\u002A*
X162247000Y-69789000D03*
G04 #@! TD*
G04 #@! TO.C,REF\u002A\u002A*
X198679000Y-51995000D03*
G04 #@! TD*
G04 #@! TO.C,REF\u002A\u002A*
X198679000Y-50995000D03*
G04 #@! TD*
G04 #@! TO.C,REF\u002A\u002A*
X198679000Y-49995000D03*
G04 #@! TD*
G04 #@! TO.C,REF\u002A\u002A*
X198679000Y-48995000D03*
G04 #@! TD*
G04 #@! TO.C,REF\u002A\u002A*
X198679000Y-47995000D03*
G04 #@! TD*
G04 #@! TO.C,REF\u002A\u002A*
X141131000Y-47995000D03*
G04 #@! TD*
G04 #@! TO.C,REF\u002A\u002A*
X141131000Y-48995000D03*
G04 #@! TD*
G04 #@! TO.C,REF\u002A\u002A*
X141131000Y-49995000D03*
G04 #@! TD*
G04 #@! TO.C,REF\u002A\u002A*
X141131000Y-50995000D03*
G04 #@! TD*
G04 #@! TO.C,REF\u002A\u002A*
X141131000Y-51995000D03*
G04 #@! TD*
G04 #@! TO.C,REF\u002A\u002A*
X117613000Y-69789000D03*
G04 #@! TD*
G04 #@! TO.C,REF\u002A\u002A*
X118613000Y-69789000D03*
G04 #@! TD*
G04 #@! TO.C,REF\u002A\u002A*
X119613000Y-69789000D03*
G04 #@! TD*
G04 #@! TO.C,REF\u002A\u002A*
X120613000Y-69789000D03*
G04 #@! TD*
G04 #@! TO.C,REF\u002A\u002A*
X121613000Y-69789000D03*
G04 #@! TD*
G04 #@! TO.C,REF\u002A\u002A*
X98297000Y-69789000D03*
G04 #@! TD*
G04 #@! TO.C,REF\u002A\u002A*
X99297000Y-69789000D03*
G04 #@! TD*
G04 #@! TO.C,REF\u002A\u002A*
X100297000Y-69789000D03*
G04 #@! TD*
G04 #@! TO.C,REF\u002A\u002A*
X101297000Y-69789000D03*
G04 #@! TD*
G04 #@! TO.C,REF\u002A\u002A*
X102297000Y-69789000D03*
G04 #@! TD*
G04 #@! TO.C,REF\u002A\u002A*
X138729000Y-51995000D03*
G04 #@! TD*
G04 #@! TO.C,REF\u002A\u002A*
X138729000Y-50995000D03*
G04 #@! TD*
G04 #@! TO.C,REF\u002A\u002A*
X138729000Y-49995000D03*
G04 #@! TD*
G04 #@! TO.C,REF\u002A\u002A*
X138729000Y-48995000D03*
G04 #@! TD*
G04 #@! TO.C,REF\u002A\u002A*
X138729000Y-47995000D03*
G04 #@! TD*
G04 #@! TO.C,REF\u002A\u002A*
X81181000Y-47995000D03*
G04 #@! TD*
G04 #@! TO.C,REF\u002A\u002A*
X81181000Y-48995000D03*
G04 #@! TD*
G04 #@! TO.C,REF\u002A\u002A*
X81181000Y-49995000D03*
G04 #@! TD*
G04 #@! TO.C,REF\u002A\u002A*
X81181000Y-50995000D03*
G04 #@! TD*
G04 #@! TO.C,REF\u002A\u002A*
X81181000Y-51995000D03*
G04 #@! TD*
G04 #@! TO.C,REF\u002A\u002A*
X57653000Y-69789000D03*
G04 #@! TD*
G04 #@! TO.C,REF\u002A\u002A*
X58653000Y-69789000D03*
G04 #@! TD*
G04 #@! TO.C,REF\u002A\u002A*
X59653000Y-69789000D03*
G04 #@! TD*
G04 #@! TO.C,REF\u002A\u002A*
X60653000Y-69789000D03*
G04 #@! TD*
G04 #@! TO.C,REF\u002A\u002A*
X61653000Y-69789000D03*
G04 #@! TD*
G04 #@! TO.C,REF\u002A\u002A*
X38337000Y-69789000D03*
G04 #@! TD*
G04 #@! TO.C,REF\u002A\u002A*
X39337000Y-69789000D03*
G04 #@! TD*
G04 #@! TO.C,REF\u002A\u002A*
X40337000Y-69789000D03*
G04 #@! TD*
G04 #@! TO.C,REF\u002A\u002A*
X41337000Y-69789000D03*
G04 #@! TD*
G04 #@! TO.C,REF\u002A\u002A*
X42337000Y-69789000D03*
G04 #@! TD*
G04 #@! TO.C,REF\u002A\u002A*
X78769000Y-51995000D03*
G04 #@! TD*
G04 #@! TO.C,REF\u002A\u002A*
X78769000Y-50995000D03*
G04 #@! TD*
G04 #@! TO.C,REF\u002A\u002A*
X78769000Y-49995000D03*
G04 #@! TD*
G04 #@! TO.C,REF\u002A\u002A*
X78769000Y-48995000D03*
G04 #@! TD*
G04 #@! TO.C,REF\u002A\u002A*
X78769000Y-47995000D03*
G04 #@! TD*
G04 #@! TO.C,REF\u002A\u002A*
X21221000Y-47995000D03*
G04 #@! TD*
G04 #@! TO.C,REF\u002A\u002A*
X21221000Y-48995000D03*
G04 #@! TD*
G04 #@! TO.C,REF\u002A\u002A*
X21221000Y-49995000D03*
G04 #@! TD*
G04 #@! TO.C,REF\u002A\u002A*
X21221000Y-50995000D03*
G04 #@! TD*
G04 #@! TO.C,REF\u002A\u002A*
X21221000Y-51995000D03*
G04 #@! TD*
D11*
G04 #@! TO.C,REF\u002A\u002A*
X17023000Y-274951000D03*
G04 #@! TD*
G04 #@! TO.C,REF\u002A\u002A*
X262828000Y-34999000D03*
G04 #@! TD*
G04 #@! TO.C,REF\u002A\u002A*
X17023000Y-34999000D03*
G04 #@! TD*
D12*
G04 #@! TO.C,REF\u002A\u002A*
X17023000Y-277951000D03*
G04 #@! TD*
G04 #@! TO.C,REF\u002A\u002A*
X262828000Y-31999000D03*
G04 #@! TD*
G04 #@! TO.C,REF\u002A\u002A*
X17023000Y-31999000D03*
G04 #@! TD*
D13*
G04 #@! TO.C,H202*
X207182070Y-254167968D03*
X205485014Y-253465024D03*
X203787958Y-254167968D03*
X203085014Y-255865024D03*
X203787958Y-257562080D03*
X205485014Y-258265024D03*
X207182070Y-257562080D03*
X207885014Y-255865024D03*
D14*
X205485014Y-255865024D03*
G04 #@! TD*
G04 #@! TO.C,J6*
G36*
G01*
X255660013Y-250185024D02*
X256910015Y-250185024D01*
G75*
G02*
X257160014Y-250435023I0J-249999D01*
G01*
X257160014Y-251135025D01*
G75*
G02*
X256910015Y-251385024I-249999J0D01*
G01*
X255660013Y-251385024D01*
G75*
G02*
X255410014Y-251135025I0J249999D01*
G01*
X255410014Y-250435023D01*
G75*
G02*
X255660013Y-250185024I249999J0D01*
G01*
G37*
D15*
X256285014Y-252785024D03*
X256285014Y-254785024D03*
G04 #@! TD*
G04 #@! TO.C,J5*
G36*
G01*
X255660013Y-274315024D02*
X256910015Y-274315024D01*
G75*
G02*
X257160014Y-274565023I0J-249999D01*
G01*
X257160014Y-275265025D01*
G75*
G02*
X256910015Y-275515024I-249999J0D01*
G01*
X255660013Y-275515024D01*
G75*
G02*
X255410014Y-275265025I0J249999D01*
G01*
X255410014Y-274565023D01*
G75*
G02*
X255660013Y-274315024I249999J0D01*
G01*
G37*
X256285014Y-276915024D03*
G04 #@! TD*
G04 #@! TO.C,J2*
G36*
G01*
X255660013Y-242565024D02*
X256910015Y-242565024D01*
G75*
G02*
X257160014Y-242815023I0J-249999D01*
G01*
X257160014Y-243515025D01*
G75*
G02*
X256910015Y-243765024I-249999J0D01*
G01*
X255660013Y-243765024D01*
G75*
G02*
X255410014Y-243515025I0J249999D01*
G01*
X255410014Y-242815023D01*
G75*
G02*
X255660013Y-242565024I249999J0D01*
G01*
G37*
X256285014Y-245165024D03*
G04 #@! TD*
D16*
G04 #@! TO.C,C15*
X233425014Y-246975024D03*
X233425014Y-241975024D03*
G04 #@! TD*
G04 #@! TO.C,C16*
X221995014Y-246975024D03*
X221995014Y-241975024D03*
G04 #@! TD*
G04 #@! TO.C,J1*
G36*
G01*
X203615014Y-247600025D02*
X203615014Y-246350023D01*
G75*
G02*
X203865013Y-246100024I249999J0D01*
G01*
X204565015Y-246100024D01*
G75*
G02*
X204815014Y-246350023I0J-249999D01*
G01*
X204815014Y-247600025D01*
G75*
G02*
X204565015Y-247850024I-249999J0D01*
G01*
X203865013Y-247850024D01*
G75*
G02*
X203615014Y-247600025I0J249999D01*
G01*
G37*
D17*
X206215014Y-246975024D03*
X208215014Y-246975024D03*
X210215014Y-246975024D03*
X212215014Y-246975024D03*
X214215014Y-246975024D03*
G04 #@! TD*
G04 #@! TO.C,J3*
G36*
G01*
X203615014Y-242520025D02*
X203615014Y-241270023D01*
G75*
G02*
X203865013Y-241020024I249999J0D01*
G01*
X204565015Y-241020024D01*
G75*
G02*
X204815014Y-241270023I0J-249999D01*
G01*
X204815014Y-242520025D01*
G75*
G02*
X204565015Y-242770024I-249999J0D01*
G01*
X203865013Y-242770024D01*
G75*
G02*
X203615014Y-242520025I0J249999D01*
G01*
G37*
X206215014Y-241895024D03*
X208215014Y-241895024D03*
X210215014Y-241895024D03*
X212215014Y-241895024D03*
X214215014Y-241895024D03*
G04 #@! TD*
D18*
G04 #@! TO.C,U2*
X242315014Y-243165024D03*
D19*
X247395014Y-243165024D03*
G04 #@! TD*
D18*
G04 #@! TO.C,U3*
X256285014Y-259675024D03*
X256285014Y-264755024D03*
D19*
X256285014Y-269835024D03*
G04 #@! TD*
D14*
G04 #@! TO.C,H201*
X205485014Y-274915024D03*
D13*
X207885014Y-274915024D03*
X207182070Y-276612080D03*
X205485014Y-277315024D03*
X203787958Y-276612080D03*
X203085014Y-274915024D03*
X203787958Y-273217968D03*
X205485014Y-272515024D03*
X207182070Y-273217968D03*
G04 #@! TD*
G04 #@! TO.C,H202*
X147232065Y-254167968D03*
X145535009Y-253465024D03*
X143837953Y-254167968D03*
X143135009Y-255865024D03*
X143837953Y-257562080D03*
X145535009Y-258265024D03*
X147232065Y-257562080D03*
X147935009Y-255865024D03*
D14*
X145535009Y-255865024D03*
G04 #@! TD*
G04 #@! TO.C,J6*
G36*
G01*
X195710008Y-250185024D02*
X196960010Y-250185024D01*
G75*
G02*
X197210009Y-250435023I0J-249999D01*
G01*
X197210009Y-251135025D01*
G75*
G02*
X196960010Y-251385024I-249999J0D01*
G01*
X195710008Y-251385024D01*
G75*
G02*
X195460009Y-251135025I0J249999D01*
G01*
X195460009Y-250435023D01*
G75*
G02*
X195710008Y-250185024I249999J0D01*
G01*
G37*
D15*
X196335009Y-252785024D03*
X196335009Y-254785024D03*
G04 #@! TD*
G04 #@! TO.C,J5*
G36*
G01*
X195710008Y-274315024D02*
X196960010Y-274315024D01*
G75*
G02*
X197210009Y-274565023I0J-249999D01*
G01*
X197210009Y-275265025D01*
G75*
G02*
X196960010Y-275515024I-249999J0D01*
G01*
X195710008Y-275515024D01*
G75*
G02*
X195460009Y-275265025I0J249999D01*
G01*
X195460009Y-274565023D01*
G75*
G02*
X195710008Y-274315024I249999J0D01*
G01*
G37*
X196335009Y-276915024D03*
G04 #@! TD*
G04 #@! TO.C,J2*
G36*
G01*
X195710008Y-242565024D02*
X196960010Y-242565024D01*
G75*
G02*
X197210009Y-242815023I0J-249999D01*
G01*
X197210009Y-243515025D01*
G75*
G02*
X196960010Y-243765024I-249999J0D01*
G01*
X195710008Y-243765024D01*
G75*
G02*
X195460009Y-243515025I0J249999D01*
G01*
X195460009Y-242815023D01*
G75*
G02*
X195710008Y-242565024I249999J0D01*
G01*
G37*
X196335009Y-245165024D03*
G04 #@! TD*
D16*
G04 #@! TO.C,C15*
X173475009Y-246975024D03*
X173475009Y-241975024D03*
G04 #@! TD*
G04 #@! TO.C,C16*
X162045009Y-246975024D03*
X162045009Y-241975024D03*
G04 #@! TD*
G04 #@! TO.C,J1*
G36*
G01*
X143665009Y-247600025D02*
X143665009Y-246350023D01*
G75*
G02*
X143915008Y-246100024I249999J0D01*
G01*
X144615010Y-246100024D01*
G75*
G02*
X144865009Y-246350023I0J-249999D01*
G01*
X144865009Y-247600025D01*
G75*
G02*
X144615010Y-247850024I-249999J0D01*
G01*
X143915008Y-247850024D01*
G75*
G02*
X143665009Y-247600025I0J249999D01*
G01*
G37*
D17*
X146265009Y-246975024D03*
X148265009Y-246975024D03*
X150265009Y-246975024D03*
X152265009Y-246975024D03*
X154265009Y-246975024D03*
G04 #@! TD*
G04 #@! TO.C,J3*
G36*
G01*
X143665009Y-242520025D02*
X143665009Y-241270023D01*
G75*
G02*
X143915008Y-241020024I249999J0D01*
G01*
X144615010Y-241020024D01*
G75*
G02*
X144865009Y-241270023I0J-249999D01*
G01*
X144865009Y-242520025D01*
G75*
G02*
X144615010Y-242770024I-249999J0D01*
G01*
X143915008Y-242770024D01*
G75*
G02*
X143665009Y-242520025I0J249999D01*
G01*
G37*
X146265009Y-241895024D03*
X148265009Y-241895024D03*
X150265009Y-241895024D03*
X152265009Y-241895024D03*
X154265009Y-241895024D03*
G04 #@! TD*
D18*
G04 #@! TO.C,U2*
X182365009Y-243165024D03*
D19*
X187445009Y-243165024D03*
G04 #@! TD*
D18*
G04 #@! TO.C,U3*
X196335009Y-259675024D03*
X196335009Y-264755024D03*
D19*
X196335009Y-269835024D03*
G04 #@! TD*
D14*
G04 #@! TO.C,H201*
X145535009Y-274915024D03*
D13*
X147935009Y-274915024D03*
X147232065Y-276612080D03*
X145535009Y-277315024D03*
X143837953Y-276612080D03*
X143135009Y-274915024D03*
X143837953Y-273217968D03*
X145535009Y-272515024D03*
X147232065Y-273217968D03*
G04 #@! TD*
G04 #@! TO.C,H202*
X87282060Y-254167968D03*
X85585004Y-253465024D03*
X83887948Y-254167968D03*
X83185004Y-255865024D03*
X83887948Y-257562080D03*
X85585004Y-258265024D03*
X87282060Y-257562080D03*
X87985004Y-255865024D03*
D14*
X85585004Y-255865024D03*
G04 #@! TD*
G04 #@! TO.C,J6*
G36*
G01*
X135760003Y-250185024D02*
X137010005Y-250185024D01*
G75*
G02*
X137260004Y-250435023I0J-249999D01*
G01*
X137260004Y-251135025D01*
G75*
G02*
X137010005Y-251385024I-249999J0D01*
G01*
X135760003Y-251385024D01*
G75*
G02*
X135510004Y-251135025I0J249999D01*
G01*
X135510004Y-250435023D01*
G75*
G02*
X135760003Y-250185024I249999J0D01*
G01*
G37*
D15*
X136385004Y-252785024D03*
X136385004Y-254785024D03*
G04 #@! TD*
G04 #@! TO.C,J5*
G36*
G01*
X135760003Y-274315024D02*
X137010005Y-274315024D01*
G75*
G02*
X137260004Y-274565023I0J-249999D01*
G01*
X137260004Y-275265025D01*
G75*
G02*
X137010005Y-275515024I-249999J0D01*
G01*
X135760003Y-275515024D01*
G75*
G02*
X135510004Y-275265025I0J249999D01*
G01*
X135510004Y-274565023D01*
G75*
G02*
X135760003Y-274315024I249999J0D01*
G01*
G37*
X136385004Y-276915024D03*
G04 #@! TD*
G04 #@! TO.C,J2*
G36*
G01*
X135760003Y-242565024D02*
X137010005Y-242565024D01*
G75*
G02*
X137260004Y-242815023I0J-249999D01*
G01*
X137260004Y-243515025D01*
G75*
G02*
X137010005Y-243765024I-249999J0D01*
G01*
X135760003Y-243765024D01*
G75*
G02*
X135510004Y-243515025I0J249999D01*
G01*
X135510004Y-242815023D01*
G75*
G02*
X135760003Y-242565024I249999J0D01*
G01*
G37*
X136385004Y-245165024D03*
G04 #@! TD*
D16*
G04 #@! TO.C,C15*
X113525004Y-246975024D03*
X113525004Y-241975024D03*
G04 #@! TD*
G04 #@! TO.C,C16*
X102095004Y-246975024D03*
X102095004Y-241975024D03*
G04 #@! TD*
G04 #@! TO.C,J1*
G36*
G01*
X83715004Y-247600025D02*
X83715004Y-246350023D01*
G75*
G02*
X83965003Y-246100024I249999J0D01*
G01*
X84665005Y-246100024D01*
G75*
G02*
X84915004Y-246350023I0J-249999D01*
G01*
X84915004Y-247600025D01*
G75*
G02*
X84665005Y-247850024I-249999J0D01*
G01*
X83965003Y-247850024D01*
G75*
G02*
X83715004Y-247600025I0J249999D01*
G01*
G37*
D17*
X86315004Y-246975024D03*
X88315004Y-246975024D03*
X90315004Y-246975024D03*
X92315004Y-246975024D03*
X94315004Y-246975024D03*
G04 #@! TD*
G04 #@! TO.C,J3*
G36*
G01*
X83715004Y-242520025D02*
X83715004Y-241270023D01*
G75*
G02*
X83965003Y-241020024I249999J0D01*
G01*
X84665005Y-241020024D01*
G75*
G02*
X84915004Y-241270023I0J-249999D01*
G01*
X84915004Y-242520025D01*
G75*
G02*
X84665005Y-242770024I-249999J0D01*
G01*
X83965003Y-242770024D01*
G75*
G02*
X83715004Y-242520025I0J249999D01*
G01*
G37*
X86315004Y-241895024D03*
X88315004Y-241895024D03*
X90315004Y-241895024D03*
X92315004Y-241895024D03*
X94315004Y-241895024D03*
G04 #@! TD*
D18*
G04 #@! TO.C,U2*
X122415004Y-243165024D03*
D19*
X127495004Y-243165024D03*
G04 #@! TD*
D18*
G04 #@! TO.C,U3*
X136385004Y-259675024D03*
X136385004Y-264755024D03*
D19*
X136385004Y-269835024D03*
G04 #@! TD*
D14*
G04 #@! TO.C,H201*
X85585004Y-274915024D03*
D13*
X87985004Y-274915024D03*
X87282060Y-276612080D03*
X85585004Y-277315024D03*
X83887948Y-276612080D03*
X83185004Y-274915024D03*
X83887948Y-273217968D03*
X85585004Y-272515024D03*
X87282060Y-273217968D03*
G04 #@! TD*
G04 #@! TO.C,H202*
X27332055Y-254167968D03*
X25634999Y-253465024D03*
X23937943Y-254167968D03*
X23234999Y-255865024D03*
X23937943Y-257562080D03*
X25634999Y-258265024D03*
X27332055Y-257562080D03*
X28034999Y-255865024D03*
D14*
X25634999Y-255865024D03*
G04 #@! TD*
G04 #@! TO.C,J6*
G36*
G01*
X75809998Y-250185024D02*
X77060000Y-250185024D01*
G75*
G02*
X77309999Y-250435023I0J-249999D01*
G01*
X77309999Y-251135025D01*
G75*
G02*
X77060000Y-251385024I-249999J0D01*
G01*
X75809998Y-251385024D01*
G75*
G02*
X75559999Y-251135025I0J249999D01*
G01*
X75559999Y-250435023D01*
G75*
G02*
X75809998Y-250185024I249999J0D01*
G01*
G37*
D15*
X76434999Y-252785024D03*
X76434999Y-254785024D03*
G04 #@! TD*
G04 #@! TO.C,J5*
G36*
G01*
X75809998Y-274315024D02*
X77060000Y-274315024D01*
G75*
G02*
X77309999Y-274565023I0J-249999D01*
G01*
X77309999Y-275265025D01*
G75*
G02*
X77060000Y-275515024I-249999J0D01*
G01*
X75809998Y-275515024D01*
G75*
G02*
X75559999Y-275265025I0J249999D01*
G01*
X75559999Y-274565023D01*
G75*
G02*
X75809998Y-274315024I249999J0D01*
G01*
G37*
X76434999Y-276915024D03*
G04 #@! TD*
G04 #@! TO.C,J2*
G36*
G01*
X75809998Y-242565024D02*
X77060000Y-242565024D01*
G75*
G02*
X77309999Y-242815023I0J-249999D01*
G01*
X77309999Y-243515025D01*
G75*
G02*
X77060000Y-243765024I-249999J0D01*
G01*
X75809998Y-243765024D01*
G75*
G02*
X75559999Y-243515025I0J249999D01*
G01*
X75559999Y-242815023D01*
G75*
G02*
X75809998Y-242565024I249999J0D01*
G01*
G37*
X76434999Y-245165024D03*
G04 #@! TD*
D16*
G04 #@! TO.C,C15*
X53574999Y-246975024D03*
X53574999Y-241975024D03*
G04 #@! TD*
G04 #@! TO.C,C16*
X42144999Y-246975024D03*
X42144999Y-241975024D03*
G04 #@! TD*
G04 #@! TO.C,J1*
G36*
G01*
X23764999Y-247600025D02*
X23764999Y-246350023D01*
G75*
G02*
X24014998Y-246100024I249999J0D01*
G01*
X24715000Y-246100024D01*
G75*
G02*
X24964999Y-246350023I0J-249999D01*
G01*
X24964999Y-247600025D01*
G75*
G02*
X24715000Y-247850024I-249999J0D01*
G01*
X24014998Y-247850024D01*
G75*
G02*
X23764999Y-247600025I0J249999D01*
G01*
G37*
D17*
X26364999Y-246975024D03*
X28364999Y-246975024D03*
X30364999Y-246975024D03*
X32364999Y-246975024D03*
X34364999Y-246975024D03*
G04 #@! TD*
G04 #@! TO.C,J3*
G36*
G01*
X23764999Y-242520025D02*
X23764999Y-241270023D01*
G75*
G02*
X24014998Y-241020024I249999J0D01*
G01*
X24715000Y-241020024D01*
G75*
G02*
X24964999Y-241270023I0J-249999D01*
G01*
X24964999Y-242520025D01*
G75*
G02*
X24715000Y-242770024I-249999J0D01*
G01*
X24014998Y-242770024D01*
G75*
G02*
X23764999Y-242520025I0J249999D01*
G01*
G37*
X26364999Y-241895024D03*
X28364999Y-241895024D03*
X30364999Y-241895024D03*
X32364999Y-241895024D03*
X34364999Y-241895024D03*
G04 #@! TD*
D18*
G04 #@! TO.C,U2*
X62464999Y-243165024D03*
D19*
X67544999Y-243165024D03*
G04 #@! TD*
D18*
G04 #@! TO.C,U3*
X76434999Y-259675024D03*
X76434999Y-264755024D03*
D19*
X76434999Y-269835024D03*
G04 #@! TD*
D14*
G04 #@! TO.C,H201*
X25634999Y-274915024D03*
D13*
X28034999Y-274915024D03*
X27332055Y-276612080D03*
X25634999Y-277315024D03*
X23937943Y-276612080D03*
X23234999Y-274915024D03*
X23937943Y-273217968D03*
X25634999Y-272515024D03*
X27332055Y-273217968D03*
G04 #@! TD*
G04 #@! TO.C,H202*
X207182070Y-212177963D03*
X205485014Y-211475019D03*
X203787958Y-212177963D03*
X203085014Y-213875019D03*
X203787958Y-215572075D03*
X205485014Y-216275019D03*
X207182070Y-215572075D03*
X207885014Y-213875019D03*
D14*
X205485014Y-213875019D03*
G04 #@! TD*
G04 #@! TO.C,J6*
G36*
G01*
X255660013Y-208195019D02*
X256910015Y-208195019D01*
G75*
G02*
X257160014Y-208445018I0J-249999D01*
G01*
X257160014Y-209145020D01*
G75*
G02*
X256910015Y-209395019I-249999J0D01*
G01*
X255660013Y-209395019D01*
G75*
G02*
X255410014Y-209145020I0J249999D01*
G01*
X255410014Y-208445018D01*
G75*
G02*
X255660013Y-208195019I249999J0D01*
G01*
G37*
D15*
X256285014Y-210795019D03*
X256285014Y-212795019D03*
G04 #@! TD*
G04 #@! TO.C,J5*
G36*
G01*
X255660013Y-232325019D02*
X256910015Y-232325019D01*
G75*
G02*
X257160014Y-232575018I0J-249999D01*
G01*
X257160014Y-233275020D01*
G75*
G02*
X256910015Y-233525019I-249999J0D01*
G01*
X255660013Y-233525019D01*
G75*
G02*
X255410014Y-233275020I0J249999D01*
G01*
X255410014Y-232575018D01*
G75*
G02*
X255660013Y-232325019I249999J0D01*
G01*
G37*
X256285014Y-234925019D03*
G04 #@! TD*
G04 #@! TO.C,J2*
G36*
G01*
X255660013Y-200575019D02*
X256910015Y-200575019D01*
G75*
G02*
X257160014Y-200825018I0J-249999D01*
G01*
X257160014Y-201525020D01*
G75*
G02*
X256910015Y-201775019I-249999J0D01*
G01*
X255660013Y-201775019D01*
G75*
G02*
X255410014Y-201525020I0J249999D01*
G01*
X255410014Y-200825018D01*
G75*
G02*
X255660013Y-200575019I249999J0D01*
G01*
G37*
X256285014Y-203175019D03*
G04 #@! TD*
D16*
G04 #@! TO.C,C15*
X233425014Y-204985019D03*
X233425014Y-199985019D03*
G04 #@! TD*
G04 #@! TO.C,C16*
X221995014Y-204985019D03*
X221995014Y-199985019D03*
G04 #@! TD*
G04 #@! TO.C,J1*
G36*
G01*
X203615014Y-205610020D02*
X203615014Y-204360018D01*
G75*
G02*
X203865013Y-204110019I249999J0D01*
G01*
X204565015Y-204110019D01*
G75*
G02*
X204815014Y-204360018I0J-249999D01*
G01*
X204815014Y-205610020D01*
G75*
G02*
X204565015Y-205860019I-249999J0D01*
G01*
X203865013Y-205860019D01*
G75*
G02*
X203615014Y-205610020I0J249999D01*
G01*
G37*
D17*
X206215014Y-204985019D03*
X208215014Y-204985019D03*
X210215014Y-204985019D03*
X212215014Y-204985019D03*
X214215014Y-204985019D03*
G04 #@! TD*
G04 #@! TO.C,J3*
G36*
G01*
X203615014Y-200530020D02*
X203615014Y-199280018D01*
G75*
G02*
X203865013Y-199030019I249999J0D01*
G01*
X204565015Y-199030019D01*
G75*
G02*
X204815014Y-199280018I0J-249999D01*
G01*
X204815014Y-200530020D01*
G75*
G02*
X204565015Y-200780019I-249999J0D01*
G01*
X203865013Y-200780019D01*
G75*
G02*
X203615014Y-200530020I0J249999D01*
G01*
G37*
X206215014Y-199905019D03*
X208215014Y-199905019D03*
X210215014Y-199905019D03*
X212215014Y-199905019D03*
X214215014Y-199905019D03*
G04 #@! TD*
D18*
G04 #@! TO.C,U2*
X242315014Y-201175019D03*
D19*
X247395014Y-201175019D03*
G04 #@! TD*
D18*
G04 #@! TO.C,U3*
X256285014Y-217685019D03*
X256285014Y-222765019D03*
D19*
X256285014Y-227845019D03*
G04 #@! TD*
D14*
G04 #@! TO.C,H201*
X205485014Y-232925019D03*
D13*
X207885014Y-232925019D03*
X207182070Y-234622075D03*
X205485014Y-235325019D03*
X203787958Y-234622075D03*
X203085014Y-232925019D03*
X203787958Y-231227963D03*
X205485014Y-230525019D03*
X207182070Y-231227963D03*
G04 #@! TD*
G04 #@! TO.C,H202*
X147232065Y-212177963D03*
X145535009Y-211475019D03*
X143837953Y-212177963D03*
X143135009Y-213875019D03*
X143837953Y-215572075D03*
X145535009Y-216275019D03*
X147232065Y-215572075D03*
X147935009Y-213875019D03*
D14*
X145535009Y-213875019D03*
G04 #@! TD*
G04 #@! TO.C,J6*
G36*
G01*
X195710008Y-208195019D02*
X196960010Y-208195019D01*
G75*
G02*
X197210009Y-208445018I0J-249999D01*
G01*
X197210009Y-209145020D01*
G75*
G02*
X196960010Y-209395019I-249999J0D01*
G01*
X195710008Y-209395019D01*
G75*
G02*
X195460009Y-209145020I0J249999D01*
G01*
X195460009Y-208445018D01*
G75*
G02*
X195710008Y-208195019I249999J0D01*
G01*
G37*
D15*
X196335009Y-210795019D03*
X196335009Y-212795019D03*
G04 #@! TD*
G04 #@! TO.C,J5*
G36*
G01*
X195710008Y-232325019D02*
X196960010Y-232325019D01*
G75*
G02*
X197210009Y-232575018I0J-249999D01*
G01*
X197210009Y-233275020D01*
G75*
G02*
X196960010Y-233525019I-249999J0D01*
G01*
X195710008Y-233525019D01*
G75*
G02*
X195460009Y-233275020I0J249999D01*
G01*
X195460009Y-232575018D01*
G75*
G02*
X195710008Y-232325019I249999J0D01*
G01*
G37*
X196335009Y-234925019D03*
G04 #@! TD*
G04 #@! TO.C,J2*
G36*
G01*
X195710008Y-200575019D02*
X196960010Y-200575019D01*
G75*
G02*
X197210009Y-200825018I0J-249999D01*
G01*
X197210009Y-201525020D01*
G75*
G02*
X196960010Y-201775019I-249999J0D01*
G01*
X195710008Y-201775019D01*
G75*
G02*
X195460009Y-201525020I0J249999D01*
G01*
X195460009Y-200825018D01*
G75*
G02*
X195710008Y-200575019I249999J0D01*
G01*
G37*
X196335009Y-203175019D03*
G04 #@! TD*
D16*
G04 #@! TO.C,C15*
X173475009Y-204985019D03*
X173475009Y-199985019D03*
G04 #@! TD*
G04 #@! TO.C,C16*
X162045009Y-204985019D03*
X162045009Y-199985019D03*
G04 #@! TD*
G04 #@! TO.C,J1*
G36*
G01*
X143665009Y-205610020D02*
X143665009Y-204360018D01*
G75*
G02*
X143915008Y-204110019I249999J0D01*
G01*
X144615010Y-204110019D01*
G75*
G02*
X144865009Y-204360018I0J-249999D01*
G01*
X144865009Y-205610020D01*
G75*
G02*
X144615010Y-205860019I-249999J0D01*
G01*
X143915008Y-205860019D01*
G75*
G02*
X143665009Y-205610020I0J249999D01*
G01*
G37*
D17*
X146265009Y-204985019D03*
X148265009Y-204985019D03*
X150265009Y-204985019D03*
X152265009Y-204985019D03*
X154265009Y-204985019D03*
G04 #@! TD*
G04 #@! TO.C,J3*
G36*
G01*
X143665009Y-200530020D02*
X143665009Y-199280018D01*
G75*
G02*
X143915008Y-199030019I249999J0D01*
G01*
X144615010Y-199030019D01*
G75*
G02*
X144865009Y-199280018I0J-249999D01*
G01*
X144865009Y-200530020D01*
G75*
G02*
X144615010Y-200780019I-249999J0D01*
G01*
X143915008Y-200780019D01*
G75*
G02*
X143665009Y-200530020I0J249999D01*
G01*
G37*
X146265009Y-199905019D03*
X148265009Y-199905019D03*
X150265009Y-199905019D03*
X152265009Y-199905019D03*
X154265009Y-199905019D03*
G04 #@! TD*
D18*
G04 #@! TO.C,U2*
X182365009Y-201175019D03*
D19*
X187445009Y-201175019D03*
G04 #@! TD*
D18*
G04 #@! TO.C,U3*
X196335009Y-217685019D03*
X196335009Y-222765019D03*
D19*
X196335009Y-227845019D03*
G04 #@! TD*
D14*
G04 #@! TO.C,H201*
X145535009Y-232925019D03*
D13*
X147935009Y-232925019D03*
X147232065Y-234622075D03*
X145535009Y-235325019D03*
X143837953Y-234622075D03*
X143135009Y-232925019D03*
X143837953Y-231227963D03*
X145535009Y-230525019D03*
X147232065Y-231227963D03*
G04 #@! TD*
G04 #@! TO.C,H202*
X87282060Y-212177963D03*
X85585004Y-211475019D03*
X83887948Y-212177963D03*
X83185004Y-213875019D03*
X83887948Y-215572075D03*
X85585004Y-216275019D03*
X87282060Y-215572075D03*
X87985004Y-213875019D03*
D14*
X85585004Y-213875019D03*
G04 #@! TD*
G04 #@! TO.C,J6*
G36*
G01*
X135760003Y-208195019D02*
X137010005Y-208195019D01*
G75*
G02*
X137260004Y-208445018I0J-249999D01*
G01*
X137260004Y-209145020D01*
G75*
G02*
X137010005Y-209395019I-249999J0D01*
G01*
X135760003Y-209395019D01*
G75*
G02*
X135510004Y-209145020I0J249999D01*
G01*
X135510004Y-208445018D01*
G75*
G02*
X135760003Y-208195019I249999J0D01*
G01*
G37*
D15*
X136385004Y-210795019D03*
X136385004Y-212795019D03*
G04 #@! TD*
G04 #@! TO.C,J5*
G36*
G01*
X135760003Y-232325019D02*
X137010005Y-232325019D01*
G75*
G02*
X137260004Y-232575018I0J-249999D01*
G01*
X137260004Y-233275020D01*
G75*
G02*
X137010005Y-233525019I-249999J0D01*
G01*
X135760003Y-233525019D01*
G75*
G02*
X135510004Y-233275020I0J249999D01*
G01*
X135510004Y-232575018D01*
G75*
G02*
X135760003Y-232325019I249999J0D01*
G01*
G37*
X136385004Y-234925019D03*
G04 #@! TD*
G04 #@! TO.C,J2*
G36*
G01*
X135760003Y-200575019D02*
X137010005Y-200575019D01*
G75*
G02*
X137260004Y-200825018I0J-249999D01*
G01*
X137260004Y-201525020D01*
G75*
G02*
X137010005Y-201775019I-249999J0D01*
G01*
X135760003Y-201775019D01*
G75*
G02*
X135510004Y-201525020I0J249999D01*
G01*
X135510004Y-200825018D01*
G75*
G02*
X135760003Y-200575019I249999J0D01*
G01*
G37*
X136385004Y-203175019D03*
G04 #@! TD*
D16*
G04 #@! TO.C,C15*
X113525004Y-204985019D03*
X113525004Y-199985019D03*
G04 #@! TD*
G04 #@! TO.C,C16*
X102095004Y-204985019D03*
X102095004Y-199985019D03*
G04 #@! TD*
G04 #@! TO.C,J1*
G36*
G01*
X83715004Y-205610020D02*
X83715004Y-204360018D01*
G75*
G02*
X83965003Y-204110019I249999J0D01*
G01*
X84665005Y-204110019D01*
G75*
G02*
X84915004Y-204360018I0J-249999D01*
G01*
X84915004Y-205610020D01*
G75*
G02*
X84665005Y-205860019I-249999J0D01*
G01*
X83965003Y-205860019D01*
G75*
G02*
X83715004Y-205610020I0J249999D01*
G01*
G37*
D17*
X86315004Y-204985019D03*
X88315004Y-204985019D03*
X90315004Y-204985019D03*
X92315004Y-204985019D03*
X94315004Y-204985019D03*
G04 #@! TD*
G04 #@! TO.C,J3*
G36*
G01*
X83715004Y-200530020D02*
X83715004Y-199280018D01*
G75*
G02*
X83965003Y-199030019I249999J0D01*
G01*
X84665005Y-199030019D01*
G75*
G02*
X84915004Y-199280018I0J-249999D01*
G01*
X84915004Y-200530020D01*
G75*
G02*
X84665005Y-200780019I-249999J0D01*
G01*
X83965003Y-200780019D01*
G75*
G02*
X83715004Y-200530020I0J249999D01*
G01*
G37*
X86315004Y-199905019D03*
X88315004Y-199905019D03*
X90315004Y-199905019D03*
X92315004Y-199905019D03*
X94315004Y-199905019D03*
G04 #@! TD*
D18*
G04 #@! TO.C,U2*
X122415004Y-201175019D03*
D19*
X127495004Y-201175019D03*
G04 #@! TD*
D18*
G04 #@! TO.C,U3*
X136385004Y-217685019D03*
X136385004Y-222765019D03*
D19*
X136385004Y-227845019D03*
G04 #@! TD*
D14*
G04 #@! TO.C,H201*
X85585004Y-232925019D03*
D13*
X87985004Y-232925019D03*
X87282060Y-234622075D03*
X85585004Y-235325019D03*
X83887948Y-234622075D03*
X83185004Y-232925019D03*
X83887948Y-231227963D03*
X85585004Y-230525019D03*
X87282060Y-231227963D03*
G04 #@! TD*
G04 #@! TO.C,H202*
X27332055Y-212177963D03*
X25634999Y-211475019D03*
X23937943Y-212177963D03*
X23234999Y-213875019D03*
X23937943Y-215572075D03*
X25634999Y-216275019D03*
X27332055Y-215572075D03*
X28034999Y-213875019D03*
D14*
X25634999Y-213875019D03*
G04 #@! TD*
G04 #@! TO.C,J6*
G36*
G01*
X75809998Y-208195019D02*
X77060000Y-208195019D01*
G75*
G02*
X77309999Y-208445018I0J-249999D01*
G01*
X77309999Y-209145020D01*
G75*
G02*
X77060000Y-209395019I-249999J0D01*
G01*
X75809998Y-209395019D01*
G75*
G02*
X75559999Y-209145020I0J249999D01*
G01*
X75559999Y-208445018D01*
G75*
G02*
X75809998Y-208195019I249999J0D01*
G01*
G37*
D15*
X76434999Y-210795019D03*
X76434999Y-212795019D03*
G04 #@! TD*
G04 #@! TO.C,J5*
G36*
G01*
X75809998Y-232325019D02*
X77060000Y-232325019D01*
G75*
G02*
X77309999Y-232575018I0J-249999D01*
G01*
X77309999Y-233275020D01*
G75*
G02*
X77060000Y-233525019I-249999J0D01*
G01*
X75809998Y-233525019D01*
G75*
G02*
X75559999Y-233275020I0J249999D01*
G01*
X75559999Y-232575018D01*
G75*
G02*
X75809998Y-232325019I249999J0D01*
G01*
G37*
X76434999Y-234925019D03*
G04 #@! TD*
G04 #@! TO.C,J2*
G36*
G01*
X75809998Y-200575019D02*
X77060000Y-200575019D01*
G75*
G02*
X77309999Y-200825018I0J-249999D01*
G01*
X77309999Y-201525020D01*
G75*
G02*
X77060000Y-201775019I-249999J0D01*
G01*
X75809998Y-201775019D01*
G75*
G02*
X75559999Y-201525020I0J249999D01*
G01*
X75559999Y-200825018D01*
G75*
G02*
X75809998Y-200575019I249999J0D01*
G01*
G37*
X76434999Y-203175019D03*
G04 #@! TD*
D16*
G04 #@! TO.C,C15*
X53574999Y-204985019D03*
X53574999Y-199985019D03*
G04 #@! TD*
G04 #@! TO.C,C16*
X42144999Y-204985019D03*
X42144999Y-199985019D03*
G04 #@! TD*
G04 #@! TO.C,J1*
G36*
G01*
X23764999Y-205610020D02*
X23764999Y-204360018D01*
G75*
G02*
X24014998Y-204110019I249999J0D01*
G01*
X24715000Y-204110019D01*
G75*
G02*
X24964999Y-204360018I0J-249999D01*
G01*
X24964999Y-205610020D01*
G75*
G02*
X24715000Y-205860019I-249999J0D01*
G01*
X24014998Y-205860019D01*
G75*
G02*
X23764999Y-205610020I0J249999D01*
G01*
G37*
D17*
X26364999Y-204985019D03*
X28364999Y-204985019D03*
X30364999Y-204985019D03*
X32364999Y-204985019D03*
X34364999Y-204985019D03*
G04 #@! TD*
G04 #@! TO.C,J3*
G36*
G01*
X23764999Y-200530020D02*
X23764999Y-199280018D01*
G75*
G02*
X24014998Y-199030019I249999J0D01*
G01*
X24715000Y-199030019D01*
G75*
G02*
X24964999Y-199280018I0J-249999D01*
G01*
X24964999Y-200530020D01*
G75*
G02*
X24715000Y-200780019I-249999J0D01*
G01*
X24014998Y-200780019D01*
G75*
G02*
X23764999Y-200530020I0J249999D01*
G01*
G37*
X26364999Y-199905019D03*
X28364999Y-199905019D03*
X30364999Y-199905019D03*
X32364999Y-199905019D03*
X34364999Y-199905019D03*
G04 #@! TD*
D18*
G04 #@! TO.C,U2*
X62464999Y-201175019D03*
D19*
X67544999Y-201175019D03*
G04 #@! TD*
D18*
G04 #@! TO.C,U3*
X76434999Y-217685019D03*
X76434999Y-222765019D03*
D19*
X76434999Y-227845019D03*
G04 #@! TD*
D14*
G04 #@! TO.C,H201*
X25634999Y-232925019D03*
D13*
X28034999Y-232925019D03*
X27332055Y-234622075D03*
X25634999Y-235325019D03*
X23937943Y-234622075D03*
X23234999Y-232925019D03*
X23937943Y-231227963D03*
X25634999Y-230525019D03*
X27332055Y-231227963D03*
G04 #@! TD*
G04 #@! TO.C,H202*
X207182070Y-170187958D03*
X205485014Y-169485014D03*
X203787958Y-170187958D03*
X203085014Y-171885014D03*
X203787958Y-173582070D03*
X205485014Y-174285014D03*
X207182070Y-173582070D03*
X207885014Y-171885014D03*
D14*
X205485014Y-171885014D03*
G04 #@! TD*
G04 #@! TO.C,J6*
G36*
G01*
X255660013Y-166205014D02*
X256910015Y-166205014D01*
G75*
G02*
X257160014Y-166455013I0J-249999D01*
G01*
X257160014Y-167155015D01*
G75*
G02*
X256910015Y-167405014I-249999J0D01*
G01*
X255660013Y-167405014D01*
G75*
G02*
X255410014Y-167155015I0J249999D01*
G01*
X255410014Y-166455013D01*
G75*
G02*
X255660013Y-166205014I249999J0D01*
G01*
G37*
D15*
X256285014Y-168805014D03*
X256285014Y-170805014D03*
G04 #@! TD*
G04 #@! TO.C,J5*
G36*
G01*
X255660013Y-190335014D02*
X256910015Y-190335014D01*
G75*
G02*
X257160014Y-190585013I0J-249999D01*
G01*
X257160014Y-191285015D01*
G75*
G02*
X256910015Y-191535014I-249999J0D01*
G01*
X255660013Y-191535014D01*
G75*
G02*
X255410014Y-191285015I0J249999D01*
G01*
X255410014Y-190585013D01*
G75*
G02*
X255660013Y-190335014I249999J0D01*
G01*
G37*
X256285014Y-192935014D03*
G04 #@! TD*
G04 #@! TO.C,J2*
G36*
G01*
X255660013Y-158585014D02*
X256910015Y-158585014D01*
G75*
G02*
X257160014Y-158835013I0J-249999D01*
G01*
X257160014Y-159535015D01*
G75*
G02*
X256910015Y-159785014I-249999J0D01*
G01*
X255660013Y-159785014D01*
G75*
G02*
X255410014Y-159535015I0J249999D01*
G01*
X255410014Y-158835013D01*
G75*
G02*
X255660013Y-158585014I249999J0D01*
G01*
G37*
X256285014Y-161185014D03*
G04 #@! TD*
D16*
G04 #@! TO.C,C15*
X233425014Y-162995014D03*
X233425014Y-157995014D03*
G04 #@! TD*
G04 #@! TO.C,C16*
X221995014Y-162995014D03*
X221995014Y-157995014D03*
G04 #@! TD*
G04 #@! TO.C,J1*
G36*
G01*
X203615014Y-163620015D02*
X203615014Y-162370013D01*
G75*
G02*
X203865013Y-162120014I249999J0D01*
G01*
X204565015Y-162120014D01*
G75*
G02*
X204815014Y-162370013I0J-249999D01*
G01*
X204815014Y-163620015D01*
G75*
G02*
X204565015Y-163870014I-249999J0D01*
G01*
X203865013Y-163870014D01*
G75*
G02*
X203615014Y-163620015I0J249999D01*
G01*
G37*
D17*
X206215014Y-162995014D03*
X208215014Y-162995014D03*
X210215014Y-162995014D03*
X212215014Y-162995014D03*
X214215014Y-162995014D03*
G04 #@! TD*
G04 #@! TO.C,J3*
G36*
G01*
X203615014Y-158540015D02*
X203615014Y-157290013D01*
G75*
G02*
X203865013Y-157040014I249999J0D01*
G01*
X204565015Y-157040014D01*
G75*
G02*
X204815014Y-157290013I0J-249999D01*
G01*
X204815014Y-158540015D01*
G75*
G02*
X204565015Y-158790014I-249999J0D01*
G01*
X203865013Y-158790014D01*
G75*
G02*
X203615014Y-158540015I0J249999D01*
G01*
G37*
X206215014Y-157915014D03*
X208215014Y-157915014D03*
X210215014Y-157915014D03*
X212215014Y-157915014D03*
X214215014Y-157915014D03*
G04 #@! TD*
D18*
G04 #@! TO.C,U2*
X242315014Y-159185014D03*
D19*
X247395014Y-159185014D03*
G04 #@! TD*
D18*
G04 #@! TO.C,U3*
X256285014Y-175695014D03*
X256285014Y-180775014D03*
D19*
X256285014Y-185855014D03*
G04 #@! TD*
D14*
G04 #@! TO.C,H201*
X205485014Y-190935014D03*
D13*
X207885014Y-190935014D03*
X207182070Y-192632070D03*
X205485014Y-193335014D03*
X203787958Y-192632070D03*
X203085014Y-190935014D03*
X203787958Y-189237958D03*
X205485014Y-188535014D03*
X207182070Y-189237958D03*
G04 #@! TD*
G04 #@! TO.C,H202*
X147232065Y-170187958D03*
X145535009Y-169485014D03*
X143837953Y-170187958D03*
X143135009Y-171885014D03*
X143837953Y-173582070D03*
X145535009Y-174285014D03*
X147232065Y-173582070D03*
X147935009Y-171885014D03*
D14*
X145535009Y-171885014D03*
G04 #@! TD*
G04 #@! TO.C,J6*
G36*
G01*
X195710008Y-166205014D02*
X196960010Y-166205014D01*
G75*
G02*
X197210009Y-166455013I0J-249999D01*
G01*
X197210009Y-167155015D01*
G75*
G02*
X196960010Y-167405014I-249999J0D01*
G01*
X195710008Y-167405014D01*
G75*
G02*
X195460009Y-167155015I0J249999D01*
G01*
X195460009Y-166455013D01*
G75*
G02*
X195710008Y-166205014I249999J0D01*
G01*
G37*
D15*
X196335009Y-168805014D03*
X196335009Y-170805014D03*
G04 #@! TD*
G04 #@! TO.C,J5*
G36*
G01*
X195710008Y-190335014D02*
X196960010Y-190335014D01*
G75*
G02*
X197210009Y-190585013I0J-249999D01*
G01*
X197210009Y-191285015D01*
G75*
G02*
X196960010Y-191535014I-249999J0D01*
G01*
X195710008Y-191535014D01*
G75*
G02*
X195460009Y-191285015I0J249999D01*
G01*
X195460009Y-190585013D01*
G75*
G02*
X195710008Y-190335014I249999J0D01*
G01*
G37*
X196335009Y-192935014D03*
G04 #@! TD*
G04 #@! TO.C,J2*
G36*
G01*
X195710008Y-158585014D02*
X196960010Y-158585014D01*
G75*
G02*
X197210009Y-158835013I0J-249999D01*
G01*
X197210009Y-159535015D01*
G75*
G02*
X196960010Y-159785014I-249999J0D01*
G01*
X195710008Y-159785014D01*
G75*
G02*
X195460009Y-159535015I0J249999D01*
G01*
X195460009Y-158835013D01*
G75*
G02*
X195710008Y-158585014I249999J0D01*
G01*
G37*
X196335009Y-161185014D03*
G04 #@! TD*
D16*
G04 #@! TO.C,C15*
X173475009Y-162995014D03*
X173475009Y-157995014D03*
G04 #@! TD*
G04 #@! TO.C,C16*
X162045009Y-162995014D03*
X162045009Y-157995014D03*
G04 #@! TD*
G04 #@! TO.C,J1*
G36*
G01*
X143665009Y-163620015D02*
X143665009Y-162370013D01*
G75*
G02*
X143915008Y-162120014I249999J0D01*
G01*
X144615010Y-162120014D01*
G75*
G02*
X144865009Y-162370013I0J-249999D01*
G01*
X144865009Y-163620015D01*
G75*
G02*
X144615010Y-163870014I-249999J0D01*
G01*
X143915008Y-163870014D01*
G75*
G02*
X143665009Y-163620015I0J249999D01*
G01*
G37*
D17*
X146265009Y-162995014D03*
X148265009Y-162995014D03*
X150265009Y-162995014D03*
X152265009Y-162995014D03*
X154265009Y-162995014D03*
G04 #@! TD*
G04 #@! TO.C,J3*
G36*
G01*
X143665009Y-158540015D02*
X143665009Y-157290013D01*
G75*
G02*
X143915008Y-157040014I249999J0D01*
G01*
X144615010Y-157040014D01*
G75*
G02*
X144865009Y-157290013I0J-249999D01*
G01*
X144865009Y-158540015D01*
G75*
G02*
X144615010Y-158790014I-249999J0D01*
G01*
X143915008Y-158790014D01*
G75*
G02*
X143665009Y-158540015I0J249999D01*
G01*
G37*
X146265009Y-157915014D03*
X148265009Y-157915014D03*
X150265009Y-157915014D03*
X152265009Y-157915014D03*
X154265009Y-157915014D03*
G04 #@! TD*
D18*
G04 #@! TO.C,U2*
X182365009Y-159185014D03*
D19*
X187445009Y-159185014D03*
G04 #@! TD*
D18*
G04 #@! TO.C,U3*
X196335009Y-175695014D03*
X196335009Y-180775014D03*
D19*
X196335009Y-185855014D03*
G04 #@! TD*
D14*
G04 #@! TO.C,H201*
X145535009Y-190935014D03*
D13*
X147935009Y-190935014D03*
X147232065Y-192632070D03*
X145535009Y-193335014D03*
X143837953Y-192632070D03*
X143135009Y-190935014D03*
X143837953Y-189237958D03*
X145535009Y-188535014D03*
X147232065Y-189237958D03*
G04 #@! TD*
G04 #@! TO.C,H202*
X87282060Y-170187958D03*
X85585004Y-169485014D03*
X83887948Y-170187958D03*
X83185004Y-171885014D03*
X83887948Y-173582070D03*
X85585004Y-174285014D03*
X87282060Y-173582070D03*
X87985004Y-171885014D03*
D14*
X85585004Y-171885014D03*
G04 #@! TD*
G04 #@! TO.C,J6*
G36*
G01*
X135760003Y-166205014D02*
X137010005Y-166205014D01*
G75*
G02*
X137260004Y-166455013I0J-249999D01*
G01*
X137260004Y-167155015D01*
G75*
G02*
X137010005Y-167405014I-249999J0D01*
G01*
X135760003Y-167405014D01*
G75*
G02*
X135510004Y-167155015I0J249999D01*
G01*
X135510004Y-166455013D01*
G75*
G02*
X135760003Y-166205014I249999J0D01*
G01*
G37*
D15*
X136385004Y-168805014D03*
X136385004Y-170805014D03*
G04 #@! TD*
G04 #@! TO.C,J5*
G36*
G01*
X135760003Y-190335014D02*
X137010005Y-190335014D01*
G75*
G02*
X137260004Y-190585013I0J-249999D01*
G01*
X137260004Y-191285015D01*
G75*
G02*
X137010005Y-191535014I-249999J0D01*
G01*
X135760003Y-191535014D01*
G75*
G02*
X135510004Y-191285015I0J249999D01*
G01*
X135510004Y-190585013D01*
G75*
G02*
X135760003Y-190335014I249999J0D01*
G01*
G37*
X136385004Y-192935014D03*
G04 #@! TD*
G04 #@! TO.C,J2*
G36*
G01*
X135760003Y-158585014D02*
X137010005Y-158585014D01*
G75*
G02*
X137260004Y-158835013I0J-249999D01*
G01*
X137260004Y-159535015D01*
G75*
G02*
X137010005Y-159785014I-249999J0D01*
G01*
X135760003Y-159785014D01*
G75*
G02*
X135510004Y-159535015I0J249999D01*
G01*
X135510004Y-158835013D01*
G75*
G02*
X135760003Y-158585014I249999J0D01*
G01*
G37*
X136385004Y-161185014D03*
G04 #@! TD*
D16*
G04 #@! TO.C,C15*
X113525004Y-162995014D03*
X113525004Y-157995014D03*
G04 #@! TD*
G04 #@! TO.C,C16*
X102095004Y-162995014D03*
X102095004Y-157995014D03*
G04 #@! TD*
G04 #@! TO.C,J1*
G36*
G01*
X83715004Y-163620015D02*
X83715004Y-162370013D01*
G75*
G02*
X83965003Y-162120014I249999J0D01*
G01*
X84665005Y-162120014D01*
G75*
G02*
X84915004Y-162370013I0J-249999D01*
G01*
X84915004Y-163620015D01*
G75*
G02*
X84665005Y-163870014I-249999J0D01*
G01*
X83965003Y-163870014D01*
G75*
G02*
X83715004Y-163620015I0J249999D01*
G01*
G37*
D17*
X86315004Y-162995014D03*
X88315004Y-162995014D03*
X90315004Y-162995014D03*
X92315004Y-162995014D03*
X94315004Y-162995014D03*
G04 #@! TD*
G04 #@! TO.C,J3*
G36*
G01*
X83715004Y-158540015D02*
X83715004Y-157290013D01*
G75*
G02*
X83965003Y-157040014I249999J0D01*
G01*
X84665005Y-157040014D01*
G75*
G02*
X84915004Y-157290013I0J-249999D01*
G01*
X84915004Y-158540015D01*
G75*
G02*
X84665005Y-158790014I-249999J0D01*
G01*
X83965003Y-158790014D01*
G75*
G02*
X83715004Y-158540015I0J249999D01*
G01*
G37*
X86315004Y-157915014D03*
X88315004Y-157915014D03*
X90315004Y-157915014D03*
X92315004Y-157915014D03*
X94315004Y-157915014D03*
G04 #@! TD*
D18*
G04 #@! TO.C,U2*
X122415004Y-159185014D03*
D19*
X127495004Y-159185014D03*
G04 #@! TD*
D18*
G04 #@! TO.C,U3*
X136385004Y-175695014D03*
X136385004Y-180775014D03*
D19*
X136385004Y-185855014D03*
G04 #@! TD*
D14*
G04 #@! TO.C,H201*
X85585004Y-190935014D03*
D13*
X87985004Y-190935014D03*
X87282060Y-192632070D03*
X85585004Y-193335014D03*
X83887948Y-192632070D03*
X83185004Y-190935014D03*
X83887948Y-189237958D03*
X85585004Y-188535014D03*
X87282060Y-189237958D03*
G04 #@! TD*
G04 #@! TO.C,H202*
X27332055Y-170187958D03*
X25634999Y-169485014D03*
X23937943Y-170187958D03*
X23234999Y-171885014D03*
X23937943Y-173582070D03*
X25634999Y-174285014D03*
X27332055Y-173582070D03*
X28034999Y-171885014D03*
D14*
X25634999Y-171885014D03*
G04 #@! TD*
G04 #@! TO.C,J6*
G36*
G01*
X75809998Y-166205014D02*
X77060000Y-166205014D01*
G75*
G02*
X77309999Y-166455013I0J-249999D01*
G01*
X77309999Y-167155015D01*
G75*
G02*
X77060000Y-167405014I-249999J0D01*
G01*
X75809998Y-167405014D01*
G75*
G02*
X75559999Y-167155015I0J249999D01*
G01*
X75559999Y-166455013D01*
G75*
G02*
X75809998Y-166205014I249999J0D01*
G01*
G37*
D15*
X76434999Y-168805014D03*
X76434999Y-170805014D03*
G04 #@! TD*
G04 #@! TO.C,J5*
G36*
G01*
X75809998Y-190335014D02*
X77060000Y-190335014D01*
G75*
G02*
X77309999Y-190585013I0J-249999D01*
G01*
X77309999Y-191285015D01*
G75*
G02*
X77060000Y-191535014I-249999J0D01*
G01*
X75809998Y-191535014D01*
G75*
G02*
X75559999Y-191285015I0J249999D01*
G01*
X75559999Y-190585013D01*
G75*
G02*
X75809998Y-190335014I249999J0D01*
G01*
G37*
X76434999Y-192935014D03*
G04 #@! TD*
G04 #@! TO.C,J2*
G36*
G01*
X75809998Y-158585014D02*
X77060000Y-158585014D01*
G75*
G02*
X77309999Y-158835013I0J-249999D01*
G01*
X77309999Y-159535015D01*
G75*
G02*
X77060000Y-159785014I-249999J0D01*
G01*
X75809998Y-159785014D01*
G75*
G02*
X75559999Y-159535015I0J249999D01*
G01*
X75559999Y-158835013D01*
G75*
G02*
X75809998Y-158585014I249999J0D01*
G01*
G37*
X76434999Y-161185014D03*
G04 #@! TD*
D16*
G04 #@! TO.C,C15*
X53574999Y-162995014D03*
X53574999Y-157995014D03*
G04 #@! TD*
G04 #@! TO.C,C16*
X42144999Y-162995014D03*
X42144999Y-157995014D03*
G04 #@! TD*
G04 #@! TO.C,J1*
G36*
G01*
X23764999Y-163620015D02*
X23764999Y-162370013D01*
G75*
G02*
X24014998Y-162120014I249999J0D01*
G01*
X24715000Y-162120014D01*
G75*
G02*
X24964999Y-162370013I0J-249999D01*
G01*
X24964999Y-163620015D01*
G75*
G02*
X24715000Y-163870014I-249999J0D01*
G01*
X24014998Y-163870014D01*
G75*
G02*
X23764999Y-163620015I0J249999D01*
G01*
G37*
D17*
X26364999Y-162995014D03*
X28364999Y-162995014D03*
X30364999Y-162995014D03*
X32364999Y-162995014D03*
X34364999Y-162995014D03*
G04 #@! TD*
G04 #@! TO.C,J3*
G36*
G01*
X23764999Y-158540015D02*
X23764999Y-157290013D01*
G75*
G02*
X24014998Y-157040014I249999J0D01*
G01*
X24715000Y-157040014D01*
G75*
G02*
X24964999Y-157290013I0J-249999D01*
G01*
X24964999Y-158540015D01*
G75*
G02*
X24715000Y-158790014I-249999J0D01*
G01*
X24014998Y-158790014D01*
G75*
G02*
X23764999Y-158540015I0J249999D01*
G01*
G37*
X26364999Y-157915014D03*
X28364999Y-157915014D03*
X30364999Y-157915014D03*
X32364999Y-157915014D03*
X34364999Y-157915014D03*
G04 #@! TD*
D18*
G04 #@! TO.C,U2*
X62464999Y-159185014D03*
D19*
X67544999Y-159185014D03*
G04 #@! TD*
D18*
G04 #@! TO.C,U3*
X76434999Y-175695014D03*
X76434999Y-180775014D03*
D19*
X76434999Y-185855014D03*
G04 #@! TD*
D14*
G04 #@! TO.C,H201*
X25634999Y-190935014D03*
D13*
X28034999Y-190935014D03*
X27332055Y-192632070D03*
X25634999Y-193335014D03*
X23937943Y-192632070D03*
X23234999Y-190935014D03*
X23937943Y-189237958D03*
X25634999Y-188535014D03*
X27332055Y-189237958D03*
G04 #@! TD*
G04 #@! TO.C,H202*
X207182070Y-128197953D03*
X205485014Y-127495009D03*
X203787958Y-128197953D03*
X203085014Y-129895009D03*
X203787958Y-131592065D03*
X205485014Y-132295009D03*
X207182070Y-131592065D03*
X207885014Y-129895009D03*
D14*
X205485014Y-129895009D03*
G04 #@! TD*
G04 #@! TO.C,J6*
G36*
G01*
X255660013Y-124215009D02*
X256910015Y-124215009D01*
G75*
G02*
X257160014Y-124465008I0J-249999D01*
G01*
X257160014Y-125165010D01*
G75*
G02*
X256910015Y-125415009I-249999J0D01*
G01*
X255660013Y-125415009D01*
G75*
G02*
X255410014Y-125165010I0J249999D01*
G01*
X255410014Y-124465008D01*
G75*
G02*
X255660013Y-124215009I249999J0D01*
G01*
G37*
D15*
X256285014Y-126815009D03*
X256285014Y-128815009D03*
G04 #@! TD*
G04 #@! TO.C,J5*
G36*
G01*
X255660013Y-148345009D02*
X256910015Y-148345009D01*
G75*
G02*
X257160014Y-148595008I0J-249999D01*
G01*
X257160014Y-149295010D01*
G75*
G02*
X256910015Y-149545009I-249999J0D01*
G01*
X255660013Y-149545009D01*
G75*
G02*
X255410014Y-149295010I0J249999D01*
G01*
X255410014Y-148595008D01*
G75*
G02*
X255660013Y-148345009I249999J0D01*
G01*
G37*
X256285014Y-150945009D03*
G04 #@! TD*
G04 #@! TO.C,J2*
G36*
G01*
X255660013Y-116595009D02*
X256910015Y-116595009D01*
G75*
G02*
X257160014Y-116845008I0J-249999D01*
G01*
X257160014Y-117545010D01*
G75*
G02*
X256910015Y-117795009I-249999J0D01*
G01*
X255660013Y-117795009D01*
G75*
G02*
X255410014Y-117545010I0J249999D01*
G01*
X255410014Y-116845008D01*
G75*
G02*
X255660013Y-116595009I249999J0D01*
G01*
G37*
X256285014Y-119195009D03*
G04 #@! TD*
D16*
G04 #@! TO.C,C15*
X233425014Y-121005009D03*
X233425014Y-116005009D03*
G04 #@! TD*
G04 #@! TO.C,C16*
X221995014Y-121005009D03*
X221995014Y-116005009D03*
G04 #@! TD*
G04 #@! TO.C,J1*
G36*
G01*
X203615014Y-121630010D02*
X203615014Y-120380008D01*
G75*
G02*
X203865013Y-120130009I249999J0D01*
G01*
X204565015Y-120130009D01*
G75*
G02*
X204815014Y-120380008I0J-249999D01*
G01*
X204815014Y-121630010D01*
G75*
G02*
X204565015Y-121880009I-249999J0D01*
G01*
X203865013Y-121880009D01*
G75*
G02*
X203615014Y-121630010I0J249999D01*
G01*
G37*
D17*
X206215014Y-121005009D03*
X208215014Y-121005009D03*
X210215014Y-121005009D03*
X212215014Y-121005009D03*
X214215014Y-121005009D03*
G04 #@! TD*
G04 #@! TO.C,J3*
G36*
G01*
X203615014Y-116550010D02*
X203615014Y-115300008D01*
G75*
G02*
X203865013Y-115050009I249999J0D01*
G01*
X204565015Y-115050009D01*
G75*
G02*
X204815014Y-115300008I0J-249999D01*
G01*
X204815014Y-116550010D01*
G75*
G02*
X204565015Y-116800009I-249999J0D01*
G01*
X203865013Y-116800009D01*
G75*
G02*
X203615014Y-116550010I0J249999D01*
G01*
G37*
X206215014Y-115925009D03*
X208215014Y-115925009D03*
X210215014Y-115925009D03*
X212215014Y-115925009D03*
X214215014Y-115925009D03*
G04 #@! TD*
D18*
G04 #@! TO.C,U2*
X242315014Y-117195009D03*
D19*
X247395014Y-117195009D03*
G04 #@! TD*
D18*
G04 #@! TO.C,U3*
X256285014Y-133705009D03*
X256285014Y-138785009D03*
D19*
X256285014Y-143865009D03*
G04 #@! TD*
D14*
G04 #@! TO.C,H201*
X205485014Y-148945009D03*
D13*
X207885014Y-148945009D03*
X207182070Y-150642065D03*
X205485014Y-151345009D03*
X203787958Y-150642065D03*
X203085014Y-148945009D03*
X203787958Y-147247953D03*
X205485014Y-146545009D03*
X207182070Y-147247953D03*
G04 #@! TD*
G04 #@! TO.C,H202*
X147232065Y-128197953D03*
X145535009Y-127495009D03*
X143837953Y-128197953D03*
X143135009Y-129895009D03*
X143837953Y-131592065D03*
X145535009Y-132295009D03*
X147232065Y-131592065D03*
X147935009Y-129895009D03*
D14*
X145535009Y-129895009D03*
G04 #@! TD*
G04 #@! TO.C,J6*
G36*
G01*
X195710008Y-124215009D02*
X196960010Y-124215009D01*
G75*
G02*
X197210009Y-124465008I0J-249999D01*
G01*
X197210009Y-125165010D01*
G75*
G02*
X196960010Y-125415009I-249999J0D01*
G01*
X195710008Y-125415009D01*
G75*
G02*
X195460009Y-125165010I0J249999D01*
G01*
X195460009Y-124465008D01*
G75*
G02*
X195710008Y-124215009I249999J0D01*
G01*
G37*
D15*
X196335009Y-126815009D03*
X196335009Y-128815009D03*
G04 #@! TD*
G04 #@! TO.C,J5*
G36*
G01*
X195710008Y-148345009D02*
X196960010Y-148345009D01*
G75*
G02*
X197210009Y-148595008I0J-249999D01*
G01*
X197210009Y-149295010D01*
G75*
G02*
X196960010Y-149545009I-249999J0D01*
G01*
X195710008Y-149545009D01*
G75*
G02*
X195460009Y-149295010I0J249999D01*
G01*
X195460009Y-148595008D01*
G75*
G02*
X195710008Y-148345009I249999J0D01*
G01*
G37*
X196335009Y-150945009D03*
G04 #@! TD*
G04 #@! TO.C,J2*
G36*
G01*
X195710008Y-116595009D02*
X196960010Y-116595009D01*
G75*
G02*
X197210009Y-116845008I0J-249999D01*
G01*
X197210009Y-117545010D01*
G75*
G02*
X196960010Y-117795009I-249999J0D01*
G01*
X195710008Y-117795009D01*
G75*
G02*
X195460009Y-117545010I0J249999D01*
G01*
X195460009Y-116845008D01*
G75*
G02*
X195710008Y-116595009I249999J0D01*
G01*
G37*
X196335009Y-119195009D03*
G04 #@! TD*
D16*
G04 #@! TO.C,C15*
X173475009Y-121005009D03*
X173475009Y-116005009D03*
G04 #@! TD*
G04 #@! TO.C,C16*
X162045009Y-121005009D03*
X162045009Y-116005009D03*
G04 #@! TD*
G04 #@! TO.C,J1*
G36*
G01*
X143665009Y-121630010D02*
X143665009Y-120380008D01*
G75*
G02*
X143915008Y-120130009I249999J0D01*
G01*
X144615010Y-120130009D01*
G75*
G02*
X144865009Y-120380008I0J-249999D01*
G01*
X144865009Y-121630010D01*
G75*
G02*
X144615010Y-121880009I-249999J0D01*
G01*
X143915008Y-121880009D01*
G75*
G02*
X143665009Y-121630010I0J249999D01*
G01*
G37*
D17*
X146265009Y-121005009D03*
X148265009Y-121005009D03*
X150265009Y-121005009D03*
X152265009Y-121005009D03*
X154265009Y-121005009D03*
G04 #@! TD*
G04 #@! TO.C,J3*
G36*
G01*
X143665009Y-116550010D02*
X143665009Y-115300008D01*
G75*
G02*
X143915008Y-115050009I249999J0D01*
G01*
X144615010Y-115050009D01*
G75*
G02*
X144865009Y-115300008I0J-249999D01*
G01*
X144865009Y-116550010D01*
G75*
G02*
X144615010Y-116800009I-249999J0D01*
G01*
X143915008Y-116800009D01*
G75*
G02*
X143665009Y-116550010I0J249999D01*
G01*
G37*
X146265009Y-115925009D03*
X148265009Y-115925009D03*
X150265009Y-115925009D03*
X152265009Y-115925009D03*
X154265009Y-115925009D03*
G04 #@! TD*
D18*
G04 #@! TO.C,U2*
X182365009Y-117195009D03*
D19*
X187445009Y-117195009D03*
G04 #@! TD*
D18*
G04 #@! TO.C,U3*
X196335009Y-133705009D03*
X196335009Y-138785009D03*
D19*
X196335009Y-143865009D03*
G04 #@! TD*
D14*
G04 #@! TO.C,H201*
X145535009Y-148945009D03*
D13*
X147935009Y-148945009D03*
X147232065Y-150642065D03*
X145535009Y-151345009D03*
X143837953Y-150642065D03*
X143135009Y-148945009D03*
X143837953Y-147247953D03*
X145535009Y-146545009D03*
X147232065Y-147247953D03*
G04 #@! TD*
G04 #@! TO.C,H202*
X87282060Y-128197953D03*
X85585004Y-127495009D03*
X83887948Y-128197953D03*
X83185004Y-129895009D03*
X83887948Y-131592065D03*
X85585004Y-132295009D03*
X87282060Y-131592065D03*
X87985004Y-129895009D03*
D14*
X85585004Y-129895009D03*
G04 #@! TD*
G04 #@! TO.C,J6*
G36*
G01*
X135760003Y-124215009D02*
X137010005Y-124215009D01*
G75*
G02*
X137260004Y-124465008I0J-249999D01*
G01*
X137260004Y-125165010D01*
G75*
G02*
X137010005Y-125415009I-249999J0D01*
G01*
X135760003Y-125415009D01*
G75*
G02*
X135510004Y-125165010I0J249999D01*
G01*
X135510004Y-124465008D01*
G75*
G02*
X135760003Y-124215009I249999J0D01*
G01*
G37*
D15*
X136385004Y-126815009D03*
X136385004Y-128815009D03*
G04 #@! TD*
G04 #@! TO.C,J5*
G36*
G01*
X135760003Y-148345009D02*
X137010005Y-148345009D01*
G75*
G02*
X137260004Y-148595008I0J-249999D01*
G01*
X137260004Y-149295010D01*
G75*
G02*
X137010005Y-149545009I-249999J0D01*
G01*
X135760003Y-149545009D01*
G75*
G02*
X135510004Y-149295010I0J249999D01*
G01*
X135510004Y-148595008D01*
G75*
G02*
X135760003Y-148345009I249999J0D01*
G01*
G37*
X136385004Y-150945009D03*
G04 #@! TD*
G04 #@! TO.C,J2*
G36*
G01*
X135760003Y-116595009D02*
X137010005Y-116595009D01*
G75*
G02*
X137260004Y-116845008I0J-249999D01*
G01*
X137260004Y-117545010D01*
G75*
G02*
X137010005Y-117795009I-249999J0D01*
G01*
X135760003Y-117795009D01*
G75*
G02*
X135510004Y-117545010I0J249999D01*
G01*
X135510004Y-116845008D01*
G75*
G02*
X135760003Y-116595009I249999J0D01*
G01*
G37*
X136385004Y-119195009D03*
G04 #@! TD*
D16*
G04 #@! TO.C,C15*
X113525004Y-121005009D03*
X113525004Y-116005009D03*
G04 #@! TD*
G04 #@! TO.C,C16*
X102095004Y-121005009D03*
X102095004Y-116005009D03*
G04 #@! TD*
G04 #@! TO.C,J1*
G36*
G01*
X83715004Y-121630010D02*
X83715004Y-120380008D01*
G75*
G02*
X83965003Y-120130009I249999J0D01*
G01*
X84665005Y-120130009D01*
G75*
G02*
X84915004Y-120380008I0J-249999D01*
G01*
X84915004Y-121630010D01*
G75*
G02*
X84665005Y-121880009I-249999J0D01*
G01*
X83965003Y-121880009D01*
G75*
G02*
X83715004Y-121630010I0J249999D01*
G01*
G37*
D17*
X86315004Y-121005009D03*
X88315004Y-121005009D03*
X90315004Y-121005009D03*
X92315004Y-121005009D03*
X94315004Y-121005009D03*
G04 #@! TD*
G04 #@! TO.C,J3*
G36*
G01*
X83715004Y-116550010D02*
X83715004Y-115300008D01*
G75*
G02*
X83965003Y-115050009I249999J0D01*
G01*
X84665005Y-115050009D01*
G75*
G02*
X84915004Y-115300008I0J-249999D01*
G01*
X84915004Y-116550010D01*
G75*
G02*
X84665005Y-116800009I-249999J0D01*
G01*
X83965003Y-116800009D01*
G75*
G02*
X83715004Y-116550010I0J249999D01*
G01*
G37*
X86315004Y-115925009D03*
X88315004Y-115925009D03*
X90315004Y-115925009D03*
X92315004Y-115925009D03*
X94315004Y-115925009D03*
G04 #@! TD*
D18*
G04 #@! TO.C,U2*
X122415004Y-117195009D03*
D19*
X127495004Y-117195009D03*
G04 #@! TD*
D18*
G04 #@! TO.C,U3*
X136385004Y-133705009D03*
X136385004Y-138785009D03*
D19*
X136385004Y-143865009D03*
G04 #@! TD*
D14*
G04 #@! TO.C,H201*
X85585004Y-148945009D03*
D13*
X87985004Y-148945009D03*
X87282060Y-150642065D03*
X85585004Y-151345009D03*
X83887948Y-150642065D03*
X83185004Y-148945009D03*
X83887948Y-147247953D03*
X85585004Y-146545009D03*
X87282060Y-147247953D03*
G04 #@! TD*
G04 #@! TO.C,H202*
X27332055Y-128197953D03*
X25634999Y-127495009D03*
X23937943Y-128197953D03*
X23234999Y-129895009D03*
X23937943Y-131592065D03*
X25634999Y-132295009D03*
X27332055Y-131592065D03*
X28034999Y-129895009D03*
D14*
X25634999Y-129895009D03*
G04 #@! TD*
G04 #@! TO.C,J6*
G36*
G01*
X75809998Y-124215009D02*
X77060000Y-124215009D01*
G75*
G02*
X77309999Y-124465008I0J-249999D01*
G01*
X77309999Y-125165010D01*
G75*
G02*
X77060000Y-125415009I-249999J0D01*
G01*
X75809998Y-125415009D01*
G75*
G02*
X75559999Y-125165010I0J249999D01*
G01*
X75559999Y-124465008D01*
G75*
G02*
X75809998Y-124215009I249999J0D01*
G01*
G37*
D15*
X76434999Y-126815009D03*
X76434999Y-128815009D03*
G04 #@! TD*
G04 #@! TO.C,J5*
G36*
G01*
X75809998Y-148345009D02*
X77060000Y-148345009D01*
G75*
G02*
X77309999Y-148595008I0J-249999D01*
G01*
X77309999Y-149295010D01*
G75*
G02*
X77060000Y-149545009I-249999J0D01*
G01*
X75809998Y-149545009D01*
G75*
G02*
X75559999Y-149295010I0J249999D01*
G01*
X75559999Y-148595008D01*
G75*
G02*
X75809998Y-148345009I249999J0D01*
G01*
G37*
X76434999Y-150945009D03*
G04 #@! TD*
G04 #@! TO.C,J2*
G36*
G01*
X75809998Y-116595009D02*
X77060000Y-116595009D01*
G75*
G02*
X77309999Y-116845008I0J-249999D01*
G01*
X77309999Y-117545010D01*
G75*
G02*
X77060000Y-117795009I-249999J0D01*
G01*
X75809998Y-117795009D01*
G75*
G02*
X75559999Y-117545010I0J249999D01*
G01*
X75559999Y-116845008D01*
G75*
G02*
X75809998Y-116595009I249999J0D01*
G01*
G37*
X76434999Y-119195009D03*
G04 #@! TD*
D16*
G04 #@! TO.C,C15*
X53574999Y-121005009D03*
X53574999Y-116005009D03*
G04 #@! TD*
G04 #@! TO.C,C16*
X42144999Y-121005009D03*
X42144999Y-116005009D03*
G04 #@! TD*
G04 #@! TO.C,J1*
G36*
G01*
X23764999Y-121630010D02*
X23764999Y-120380008D01*
G75*
G02*
X24014998Y-120130009I249999J0D01*
G01*
X24715000Y-120130009D01*
G75*
G02*
X24964999Y-120380008I0J-249999D01*
G01*
X24964999Y-121630010D01*
G75*
G02*
X24715000Y-121880009I-249999J0D01*
G01*
X24014998Y-121880009D01*
G75*
G02*
X23764999Y-121630010I0J249999D01*
G01*
G37*
D17*
X26364999Y-121005009D03*
X28364999Y-121005009D03*
X30364999Y-121005009D03*
X32364999Y-121005009D03*
X34364999Y-121005009D03*
G04 #@! TD*
G04 #@! TO.C,J3*
G36*
G01*
X23764999Y-116550010D02*
X23764999Y-115300008D01*
G75*
G02*
X24014998Y-115050009I249999J0D01*
G01*
X24715000Y-115050009D01*
G75*
G02*
X24964999Y-115300008I0J-249999D01*
G01*
X24964999Y-116550010D01*
G75*
G02*
X24715000Y-116800009I-249999J0D01*
G01*
X24014998Y-116800009D01*
G75*
G02*
X23764999Y-116550010I0J249999D01*
G01*
G37*
X26364999Y-115925009D03*
X28364999Y-115925009D03*
X30364999Y-115925009D03*
X32364999Y-115925009D03*
X34364999Y-115925009D03*
G04 #@! TD*
D18*
G04 #@! TO.C,U2*
X62464999Y-117195009D03*
D19*
X67544999Y-117195009D03*
G04 #@! TD*
D18*
G04 #@! TO.C,U3*
X76434999Y-133705009D03*
X76434999Y-138785009D03*
D19*
X76434999Y-143865009D03*
G04 #@! TD*
D14*
G04 #@! TO.C,H201*
X25634999Y-148945009D03*
D13*
X28034999Y-148945009D03*
X27332055Y-150642065D03*
X25634999Y-151345009D03*
X23937943Y-150642065D03*
X23234999Y-148945009D03*
X23937943Y-147247953D03*
X25634999Y-146545009D03*
X27332055Y-147247953D03*
G04 #@! TD*
G04 #@! TO.C,H202*
X207182070Y-86207948D03*
X205485014Y-85505004D03*
X203787958Y-86207948D03*
X203085014Y-87905004D03*
X203787958Y-89602060D03*
X205485014Y-90305004D03*
X207182070Y-89602060D03*
X207885014Y-87905004D03*
D14*
X205485014Y-87905004D03*
G04 #@! TD*
G04 #@! TO.C,J6*
G36*
G01*
X255660013Y-82225004D02*
X256910015Y-82225004D01*
G75*
G02*
X257160014Y-82475003I0J-249999D01*
G01*
X257160014Y-83175005D01*
G75*
G02*
X256910015Y-83425004I-249999J0D01*
G01*
X255660013Y-83425004D01*
G75*
G02*
X255410014Y-83175005I0J249999D01*
G01*
X255410014Y-82475003D01*
G75*
G02*
X255660013Y-82225004I249999J0D01*
G01*
G37*
D15*
X256285014Y-84825004D03*
X256285014Y-86825004D03*
G04 #@! TD*
G04 #@! TO.C,J5*
G36*
G01*
X255660013Y-106355004D02*
X256910015Y-106355004D01*
G75*
G02*
X257160014Y-106605003I0J-249999D01*
G01*
X257160014Y-107305005D01*
G75*
G02*
X256910015Y-107555004I-249999J0D01*
G01*
X255660013Y-107555004D01*
G75*
G02*
X255410014Y-107305005I0J249999D01*
G01*
X255410014Y-106605003D01*
G75*
G02*
X255660013Y-106355004I249999J0D01*
G01*
G37*
X256285014Y-108955004D03*
G04 #@! TD*
G04 #@! TO.C,J2*
G36*
G01*
X255660013Y-74605004D02*
X256910015Y-74605004D01*
G75*
G02*
X257160014Y-74855003I0J-249999D01*
G01*
X257160014Y-75555005D01*
G75*
G02*
X256910015Y-75805004I-249999J0D01*
G01*
X255660013Y-75805004D01*
G75*
G02*
X255410014Y-75555005I0J249999D01*
G01*
X255410014Y-74855003D01*
G75*
G02*
X255660013Y-74605004I249999J0D01*
G01*
G37*
X256285014Y-77205004D03*
G04 #@! TD*
D16*
G04 #@! TO.C,C15*
X233425014Y-79015004D03*
X233425014Y-74015004D03*
G04 #@! TD*
G04 #@! TO.C,C16*
X221995014Y-79015004D03*
X221995014Y-74015004D03*
G04 #@! TD*
G04 #@! TO.C,J1*
G36*
G01*
X203615014Y-79640005D02*
X203615014Y-78390003D01*
G75*
G02*
X203865013Y-78140004I249999J0D01*
G01*
X204565015Y-78140004D01*
G75*
G02*
X204815014Y-78390003I0J-249999D01*
G01*
X204815014Y-79640005D01*
G75*
G02*
X204565015Y-79890004I-249999J0D01*
G01*
X203865013Y-79890004D01*
G75*
G02*
X203615014Y-79640005I0J249999D01*
G01*
G37*
D17*
X206215014Y-79015004D03*
X208215014Y-79015004D03*
X210215014Y-79015004D03*
X212215014Y-79015004D03*
X214215014Y-79015004D03*
G04 #@! TD*
G04 #@! TO.C,J3*
G36*
G01*
X203615014Y-74560005D02*
X203615014Y-73310003D01*
G75*
G02*
X203865013Y-73060004I249999J0D01*
G01*
X204565015Y-73060004D01*
G75*
G02*
X204815014Y-73310003I0J-249999D01*
G01*
X204815014Y-74560005D01*
G75*
G02*
X204565015Y-74810004I-249999J0D01*
G01*
X203865013Y-74810004D01*
G75*
G02*
X203615014Y-74560005I0J249999D01*
G01*
G37*
X206215014Y-73935004D03*
X208215014Y-73935004D03*
X210215014Y-73935004D03*
X212215014Y-73935004D03*
X214215014Y-73935004D03*
G04 #@! TD*
D18*
G04 #@! TO.C,U2*
X242315014Y-75205004D03*
D19*
X247395014Y-75205004D03*
G04 #@! TD*
D18*
G04 #@! TO.C,U3*
X256285014Y-91715004D03*
X256285014Y-96795004D03*
D19*
X256285014Y-101875004D03*
G04 #@! TD*
D14*
G04 #@! TO.C,H201*
X205485014Y-106955004D03*
D13*
X207885014Y-106955004D03*
X207182070Y-108652060D03*
X205485014Y-109355004D03*
X203787958Y-108652060D03*
X203085014Y-106955004D03*
X203787958Y-105257948D03*
X205485014Y-104555004D03*
X207182070Y-105257948D03*
G04 #@! TD*
G04 #@! TO.C,H202*
X147232065Y-86207948D03*
X145535009Y-85505004D03*
X143837953Y-86207948D03*
X143135009Y-87905004D03*
X143837953Y-89602060D03*
X145535009Y-90305004D03*
X147232065Y-89602060D03*
X147935009Y-87905004D03*
D14*
X145535009Y-87905004D03*
G04 #@! TD*
G04 #@! TO.C,J6*
G36*
G01*
X195710008Y-82225004D02*
X196960010Y-82225004D01*
G75*
G02*
X197210009Y-82475003I0J-249999D01*
G01*
X197210009Y-83175005D01*
G75*
G02*
X196960010Y-83425004I-249999J0D01*
G01*
X195710008Y-83425004D01*
G75*
G02*
X195460009Y-83175005I0J249999D01*
G01*
X195460009Y-82475003D01*
G75*
G02*
X195710008Y-82225004I249999J0D01*
G01*
G37*
D15*
X196335009Y-84825004D03*
X196335009Y-86825004D03*
G04 #@! TD*
G04 #@! TO.C,J5*
G36*
G01*
X195710008Y-106355004D02*
X196960010Y-106355004D01*
G75*
G02*
X197210009Y-106605003I0J-249999D01*
G01*
X197210009Y-107305005D01*
G75*
G02*
X196960010Y-107555004I-249999J0D01*
G01*
X195710008Y-107555004D01*
G75*
G02*
X195460009Y-107305005I0J249999D01*
G01*
X195460009Y-106605003D01*
G75*
G02*
X195710008Y-106355004I249999J0D01*
G01*
G37*
X196335009Y-108955004D03*
G04 #@! TD*
G04 #@! TO.C,J2*
G36*
G01*
X195710008Y-74605004D02*
X196960010Y-74605004D01*
G75*
G02*
X197210009Y-74855003I0J-249999D01*
G01*
X197210009Y-75555005D01*
G75*
G02*
X196960010Y-75805004I-249999J0D01*
G01*
X195710008Y-75805004D01*
G75*
G02*
X195460009Y-75555005I0J249999D01*
G01*
X195460009Y-74855003D01*
G75*
G02*
X195710008Y-74605004I249999J0D01*
G01*
G37*
X196335009Y-77205004D03*
G04 #@! TD*
D16*
G04 #@! TO.C,C15*
X173475009Y-79015004D03*
X173475009Y-74015004D03*
G04 #@! TD*
G04 #@! TO.C,C16*
X162045009Y-79015004D03*
X162045009Y-74015004D03*
G04 #@! TD*
G04 #@! TO.C,J1*
G36*
G01*
X143665009Y-79640005D02*
X143665009Y-78390003D01*
G75*
G02*
X143915008Y-78140004I249999J0D01*
G01*
X144615010Y-78140004D01*
G75*
G02*
X144865009Y-78390003I0J-249999D01*
G01*
X144865009Y-79640005D01*
G75*
G02*
X144615010Y-79890004I-249999J0D01*
G01*
X143915008Y-79890004D01*
G75*
G02*
X143665009Y-79640005I0J249999D01*
G01*
G37*
D17*
X146265009Y-79015004D03*
X148265009Y-79015004D03*
X150265009Y-79015004D03*
X152265009Y-79015004D03*
X154265009Y-79015004D03*
G04 #@! TD*
G04 #@! TO.C,J3*
G36*
G01*
X143665009Y-74560005D02*
X143665009Y-73310003D01*
G75*
G02*
X143915008Y-73060004I249999J0D01*
G01*
X144615010Y-73060004D01*
G75*
G02*
X144865009Y-73310003I0J-249999D01*
G01*
X144865009Y-74560005D01*
G75*
G02*
X144615010Y-74810004I-249999J0D01*
G01*
X143915008Y-74810004D01*
G75*
G02*
X143665009Y-74560005I0J249999D01*
G01*
G37*
X146265009Y-73935004D03*
X148265009Y-73935004D03*
X150265009Y-73935004D03*
X152265009Y-73935004D03*
X154265009Y-73935004D03*
G04 #@! TD*
D18*
G04 #@! TO.C,U2*
X182365009Y-75205004D03*
D19*
X187445009Y-75205004D03*
G04 #@! TD*
D18*
G04 #@! TO.C,U3*
X196335009Y-91715004D03*
X196335009Y-96795004D03*
D19*
X196335009Y-101875004D03*
G04 #@! TD*
D14*
G04 #@! TO.C,H201*
X145535009Y-106955004D03*
D13*
X147935009Y-106955004D03*
X147232065Y-108652060D03*
X145535009Y-109355004D03*
X143837953Y-108652060D03*
X143135009Y-106955004D03*
X143837953Y-105257948D03*
X145535009Y-104555004D03*
X147232065Y-105257948D03*
G04 #@! TD*
G04 #@! TO.C,H202*
X87282060Y-86207948D03*
X85585004Y-85505004D03*
X83887948Y-86207948D03*
X83185004Y-87905004D03*
X83887948Y-89602060D03*
X85585004Y-90305004D03*
X87282060Y-89602060D03*
X87985004Y-87905004D03*
D14*
X85585004Y-87905004D03*
G04 #@! TD*
G04 #@! TO.C,J6*
G36*
G01*
X135760003Y-82225004D02*
X137010005Y-82225004D01*
G75*
G02*
X137260004Y-82475003I0J-249999D01*
G01*
X137260004Y-83175005D01*
G75*
G02*
X137010005Y-83425004I-249999J0D01*
G01*
X135760003Y-83425004D01*
G75*
G02*
X135510004Y-83175005I0J249999D01*
G01*
X135510004Y-82475003D01*
G75*
G02*
X135760003Y-82225004I249999J0D01*
G01*
G37*
D15*
X136385004Y-84825004D03*
X136385004Y-86825004D03*
G04 #@! TD*
G04 #@! TO.C,J5*
G36*
G01*
X135760003Y-106355004D02*
X137010005Y-106355004D01*
G75*
G02*
X137260004Y-106605003I0J-249999D01*
G01*
X137260004Y-107305005D01*
G75*
G02*
X137010005Y-107555004I-249999J0D01*
G01*
X135760003Y-107555004D01*
G75*
G02*
X135510004Y-107305005I0J249999D01*
G01*
X135510004Y-106605003D01*
G75*
G02*
X135760003Y-106355004I249999J0D01*
G01*
G37*
X136385004Y-108955004D03*
G04 #@! TD*
G04 #@! TO.C,J2*
G36*
G01*
X135760003Y-74605004D02*
X137010005Y-74605004D01*
G75*
G02*
X137260004Y-74855003I0J-249999D01*
G01*
X137260004Y-75555005D01*
G75*
G02*
X137010005Y-75805004I-249999J0D01*
G01*
X135760003Y-75805004D01*
G75*
G02*
X135510004Y-75555005I0J249999D01*
G01*
X135510004Y-74855003D01*
G75*
G02*
X135760003Y-74605004I249999J0D01*
G01*
G37*
X136385004Y-77205004D03*
G04 #@! TD*
D16*
G04 #@! TO.C,C15*
X113525004Y-79015004D03*
X113525004Y-74015004D03*
G04 #@! TD*
G04 #@! TO.C,C16*
X102095004Y-79015004D03*
X102095004Y-74015004D03*
G04 #@! TD*
G04 #@! TO.C,J1*
G36*
G01*
X83715004Y-79640005D02*
X83715004Y-78390003D01*
G75*
G02*
X83965003Y-78140004I249999J0D01*
G01*
X84665005Y-78140004D01*
G75*
G02*
X84915004Y-78390003I0J-249999D01*
G01*
X84915004Y-79640005D01*
G75*
G02*
X84665005Y-79890004I-249999J0D01*
G01*
X83965003Y-79890004D01*
G75*
G02*
X83715004Y-79640005I0J249999D01*
G01*
G37*
D17*
X86315004Y-79015004D03*
X88315004Y-79015004D03*
X90315004Y-79015004D03*
X92315004Y-79015004D03*
X94315004Y-79015004D03*
G04 #@! TD*
G04 #@! TO.C,J3*
G36*
G01*
X83715004Y-74560005D02*
X83715004Y-73310003D01*
G75*
G02*
X83965003Y-73060004I249999J0D01*
G01*
X84665005Y-73060004D01*
G75*
G02*
X84915004Y-73310003I0J-249999D01*
G01*
X84915004Y-74560005D01*
G75*
G02*
X84665005Y-74810004I-249999J0D01*
G01*
X83965003Y-74810004D01*
G75*
G02*
X83715004Y-74560005I0J249999D01*
G01*
G37*
X86315004Y-73935004D03*
X88315004Y-73935004D03*
X90315004Y-73935004D03*
X92315004Y-73935004D03*
X94315004Y-73935004D03*
G04 #@! TD*
D18*
G04 #@! TO.C,U2*
X122415004Y-75205004D03*
D19*
X127495004Y-75205004D03*
G04 #@! TD*
D18*
G04 #@! TO.C,U3*
X136385004Y-91715004D03*
X136385004Y-96795004D03*
D19*
X136385004Y-101875004D03*
G04 #@! TD*
D14*
G04 #@! TO.C,H201*
X85585004Y-106955004D03*
D13*
X87985004Y-106955004D03*
X87282060Y-108652060D03*
X85585004Y-109355004D03*
X83887948Y-108652060D03*
X83185004Y-106955004D03*
X83887948Y-105257948D03*
X85585004Y-104555004D03*
X87282060Y-105257948D03*
G04 #@! TD*
G04 #@! TO.C,H202*
X27332055Y-86207948D03*
X25634999Y-85505004D03*
X23937943Y-86207948D03*
X23234999Y-87905004D03*
X23937943Y-89602060D03*
X25634999Y-90305004D03*
X27332055Y-89602060D03*
X28034999Y-87905004D03*
D14*
X25634999Y-87905004D03*
G04 #@! TD*
G04 #@! TO.C,J6*
G36*
G01*
X75809998Y-82225004D02*
X77060000Y-82225004D01*
G75*
G02*
X77309999Y-82475003I0J-249999D01*
G01*
X77309999Y-83175005D01*
G75*
G02*
X77060000Y-83425004I-249999J0D01*
G01*
X75809998Y-83425004D01*
G75*
G02*
X75559999Y-83175005I0J249999D01*
G01*
X75559999Y-82475003D01*
G75*
G02*
X75809998Y-82225004I249999J0D01*
G01*
G37*
D15*
X76434999Y-84825004D03*
X76434999Y-86825004D03*
G04 #@! TD*
G04 #@! TO.C,J5*
G36*
G01*
X75809998Y-106355004D02*
X77060000Y-106355004D01*
G75*
G02*
X77309999Y-106605003I0J-249999D01*
G01*
X77309999Y-107305005D01*
G75*
G02*
X77060000Y-107555004I-249999J0D01*
G01*
X75809998Y-107555004D01*
G75*
G02*
X75559999Y-107305005I0J249999D01*
G01*
X75559999Y-106605003D01*
G75*
G02*
X75809998Y-106355004I249999J0D01*
G01*
G37*
X76434999Y-108955004D03*
G04 #@! TD*
G04 #@! TO.C,J2*
G36*
G01*
X75809998Y-74605004D02*
X77060000Y-74605004D01*
G75*
G02*
X77309999Y-74855003I0J-249999D01*
G01*
X77309999Y-75555005D01*
G75*
G02*
X77060000Y-75805004I-249999J0D01*
G01*
X75809998Y-75805004D01*
G75*
G02*
X75559999Y-75555005I0J249999D01*
G01*
X75559999Y-74855003D01*
G75*
G02*
X75809998Y-74605004I249999J0D01*
G01*
G37*
X76434999Y-77205004D03*
G04 #@! TD*
D16*
G04 #@! TO.C,C15*
X53574999Y-79015004D03*
X53574999Y-74015004D03*
G04 #@! TD*
G04 #@! TO.C,C16*
X42144999Y-79015004D03*
X42144999Y-74015004D03*
G04 #@! TD*
G04 #@! TO.C,J1*
G36*
G01*
X23764999Y-79640005D02*
X23764999Y-78390003D01*
G75*
G02*
X24014998Y-78140004I249999J0D01*
G01*
X24715000Y-78140004D01*
G75*
G02*
X24964999Y-78390003I0J-249999D01*
G01*
X24964999Y-79640005D01*
G75*
G02*
X24715000Y-79890004I-249999J0D01*
G01*
X24014998Y-79890004D01*
G75*
G02*
X23764999Y-79640005I0J249999D01*
G01*
G37*
D17*
X26364999Y-79015004D03*
X28364999Y-79015004D03*
X30364999Y-79015004D03*
X32364999Y-79015004D03*
X34364999Y-79015004D03*
G04 #@! TD*
G04 #@! TO.C,J3*
G36*
G01*
X23764999Y-74560005D02*
X23764999Y-73310003D01*
G75*
G02*
X24014998Y-73060004I249999J0D01*
G01*
X24715000Y-73060004D01*
G75*
G02*
X24964999Y-73310003I0J-249999D01*
G01*
X24964999Y-74560005D01*
G75*
G02*
X24715000Y-74810004I-249999J0D01*
G01*
X24014998Y-74810004D01*
G75*
G02*
X23764999Y-74560005I0J249999D01*
G01*
G37*
X26364999Y-73935004D03*
X28364999Y-73935004D03*
X30364999Y-73935004D03*
X32364999Y-73935004D03*
X34364999Y-73935004D03*
G04 #@! TD*
D18*
G04 #@! TO.C,U2*
X62464999Y-75205004D03*
D19*
X67544999Y-75205004D03*
G04 #@! TD*
D18*
G04 #@! TO.C,U3*
X76434999Y-91715004D03*
X76434999Y-96795004D03*
D19*
X76434999Y-101875004D03*
G04 #@! TD*
D14*
G04 #@! TO.C,H201*
X25634999Y-106955004D03*
D13*
X28034999Y-106955004D03*
X27332055Y-108652060D03*
X25634999Y-109355004D03*
X23937943Y-108652060D03*
X23234999Y-106955004D03*
X23937943Y-105257948D03*
X25634999Y-104555004D03*
X27332055Y-105257948D03*
G04 #@! TD*
G04 #@! TO.C,H202*
X207182070Y-44217943D03*
X205485014Y-43514999D03*
X203787958Y-44217943D03*
X203085014Y-45914999D03*
X203787958Y-47612055D03*
X205485014Y-48314999D03*
X207182070Y-47612055D03*
X207885014Y-45914999D03*
D14*
X205485014Y-45914999D03*
G04 #@! TD*
G04 #@! TO.C,J6*
G36*
G01*
X255660013Y-40234999D02*
X256910015Y-40234999D01*
G75*
G02*
X257160014Y-40484998I0J-249999D01*
G01*
X257160014Y-41185000D01*
G75*
G02*
X256910015Y-41434999I-249999J0D01*
G01*
X255660013Y-41434999D01*
G75*
G02*
X255410014Y-41185000I0J249999D01*
G01*
X255410014Y-40484998D01*
G75*
G02*
X255660013Y-40234999I249999J0D01*
G01*
G37*
D15*
X256285014Y-42834999D03*
X256285014Y-44834999D03*
G04 #@! TD*
G04 #@! TO.C,J5*
G36*
G01*
X255660013Y-64364999D02*
X256910015Y-64364999D01*
G75*
G02*
X257160014Y-64614998I0J-249999D01*
G01*
X257160014Y-65315000D01*
G75*
G02*
X256910015Y-65564999I-249999J0D01*
G01*
X255660013Y-65564999D01*
G75*
G02*
X255410014Y-65315000I0J249999D01*
G01*
X255410014Y-64614998D01*
G75*
G02*
X255660013Y-64364999I249999J0D01*
G01*
G37*
X256285014Y-66964999D03*
G04 #@! TD*
G04 #@! TO.C,J2*
G36*
G01*
X255660013Y-32614999D02*
X256910015Y-32614999D01*
G75*
G02*
X257160014Y-32864998I0J-249999D01*
G01*
X257160014Y-33565000D01*
G75*
G02*
X256910015Y-33814999I-249999J0D01*
G01*
X255660013Y-33814999D01*
G75*
G02*
X255410014Y-33565000I0J249999D01*
G01*
X255410014Y-32864998D01*
G75*
G02*
X255660013Y-32614999I249999J0D01*
G01*
G37*
X256285014Y-35214999D03*
G04 #@! TD*
D16*
G04 #@! TO.C,C15*
X233425014Y-37024999D03*
X233425014Y-32024999D03*
G04 #@! TD*
G04 #@! TO.C,C16*
X221995014Y-37024999D03*
X221995014Y-32024999D03*
G04 #@! TD*
G04 #@! TO.C,J1*
G36*
G01*
X203615014Y-37650000D02*
X203615014Y-36399998D01*
G75*
G02*
X203865013Y-36149999I249999J0D01*
G01*
X204565015Y-36149999D01*
G75*
G02*
X204815014Y-36399998I0J-249999D01*
G01*
X204815014Y-37650000D01*
G75*
G02*
X204565015Y-37899999I-249999J0D01*
G01*
X203865013Y-37899999D01*
G75*
G02*
X203615014Y-37650000I0J249999D01*
G01*
G37*
D17*
X206215014Y-37024999D03*
X208215014Y-37024999D03*
X210215014Y-37024999D03*
X212215014Y-37024999D03*
X214215014Y-37024999D03*
G04 #@! TD*
G04 #@! TO.C,J3*
G36*
G01*
X203615014Y-32570000D02*
X203615014Y-31319998D01*
G75*
G02*
X203865013Y-31069999I249999J0D01*
G01*
X204565015Y-31069999D01*
G75*
G02*
X204815014Y-31319998I0J-249999D01*
G01*
X204815014Y-32570000D01*
G75*
G02*
X204565015Y-32819999I-249999J0D01*
G01*
X203865013Y-32819999D01*
G75*
G02*
X203615014Y-32570000I0J249999D01*
G01*
G37*
X206215014Y-31944999D03*
X208215014Y-31944999D03*
X210215014Y-31944999D03*
X212215014Y-31944999D03*
X214215014Y-31944999D03*
G04 #@! TD*
D18*
G04 #@! TO.C,U2*
X242315014Y-33214999D03*
D19*
X247395014Y-33214999D03*
G04 #@! TD*
D18*
G04 #@! TO.C,U3*
X256285014Y-49724999D03*
X256285014Y-54804999D03*
D19*
X256285014Y-59884999D03*
G04 #@! TD*
D14*
G04 #@! TO.C,H201*
X205485014Y-64964999D03*
D13*
X207885014Y-64964999D03*
X207182070Y-66662055D03*
X205485014Y-67364999D03*
X203787958Y-66662055D03*
X203085014Y-64964999D03*
X203787958Y-63267943D03*
X205485014Y-62564999D03*
X207182070Y-63267943D03*
G04 #@! TD*
G04 #@! TO.C,H202*
X147232065Y-44217943D03*
X145535009Y-43514999D03*
X143837953Y-44217943D03*
X143135009Y-45914999D03*
X143837953Y-47612055D03*
X145535009Y-48314999D03*
X147232065Y-47612055D03*
X147935009Y-45914999D03*
D14*
X145535009Y-45914999D03*
G04 #@! TD*
G04 #@! TO.C,J6*
G36*
G01*
X195710008Y-40234999D02*
X196960010Y-40234999D01*
G75*
G02*
X197210009Y-40484998I0J-249999D01*
G01*
X197210009Y-41185000D01*
G75*
G02*
X196960010Y-41434999I-249999J0D01*
G01*
X195710008Y-41434999D01*
G75*
G02*
X195460009Y-41185000I0J249999D01*
G01*
X195460009Y-40484998D01*
G75*
G02*
X195710008Y-40234999I249999J0D01*
G01*
G37*
D15*
X196335009Y-42834999D03*
X196335009Y-44834999D03*
G04 #@! TD*
G04 #@! TO.C,J5*
G36*
G01*
X195710008Y-64364999D02*
X196960010Y-64364999D01*
G75*
G02*
X197210009Y-64614998I0J-249999D01*
G01*
X197210009Y-65315000D01*
G75*
G02*
X196960010Y-65564999I-249999J0D01*
G01*
X195710008Y-65564999D01*
G75*
G02*
X195460009Y-65315000I0J249999D01*
G01*
X195460009Y-64614998D01*
G75*
G02*
X195710008Y-64364999I249999J0D01*
G01*
G37*
X196335009Y-66964999D03*
G04 #@! TD*
G04 #@! TO.C,J2*
G36*
G01*
X195710008Y-32614999D02*
X196960010Y-32614999D01*
G75*
G02*
X197210009Y-32864998I0J-249999D01*
G01*
X197210009Y-33565000D01*
G75*
G02*
X196960010Y-33814999I-249999J0D01*
G01*
X195710008Y-33814999D01*
G75*
G02*
X195460009Y-33565000I0J249999D01*
G01*
X195460009Y-32864998D01*
G75*
G02*
X195710008Y-32614999I249999J0D01*
G01*
G37*
X196335009Y-35214999D03*
G04 #@! TD*
D16*
G04 #@! TO.C,C15*
X173475009Y-37024999D03*
X173475009Y-32024999D03*
G04 #@! TD*
G04 #@! TO.C,C16*
X162045009Y-37024999D03*
X162045009Y-32024999D03*
G04 #@! TD*
G04 #@! TO.C,J1*
G36*
G01*
X143665009Y-37650000D02*
X143665009Y-36399998D01*
G75*
G02*
X143915008Y-36149999I249999J0D01*
G01*
X144615010Y-36149999D01*
G75*
G02*
X144865009Y-36399998I0J-249999D01*
G01*
X144865009Y-37650000D01*
G75*
G02*
X144615010Y-37899999I-249999J0D01*
G01*
X143915008Y-37899999D01*
G75*
G02*
X143665009Y-37650000I0J249999D01*
G01*
G37*
D17*
X146265009Y-37024999D03*
X148265009Y-37024999D03*
X150265009Y-37024999D03*
X152265009Y-37024999D03*
X154265009Y-37024999D03*
G04 #@! TD*
G04 #@! TO.C,J3*
G36*
G01*
X143665009Y-32570000D02*
X143665009Y-31319998D01*
G75*
G02*
X143915008Y-31069999I249999J0D01*
G01*
X144615010Y-31069999D01*
G75*
G02*
X144865009Y-31319998I0J-249999D01*
G01*
X144865009Y-32570000D01*
G75*
G02*
X144615010Y-32819999I-249999J0D01*
G01*
X143915008Y-32819999D01*
G75*
G02*
X143665009Y-32570000I0J249999D01*
G01*
G37*
X146265009Y-31944999D03*
X148265009Y-31944999D03*
X150265009Y-31944999D03*
X152265009Y-31944999D03*
X154265009Y-31944999D03*
G04 #@! TD*
D18*
G04 #@! TO.C,U2*
X182365009Y-33214999D03*
D19*
X187445009Y-33214999D03*
G04 #@! TD*
D18*
G04 #@! TO.C,U3*
X196335009Y-49724999D03*
X196335009Y-54804999D03*
D19*
X196335009Y-59884999D03*
G04 #@! TD*
D14*
G04 #@! TO.C,H201*
X145535009Y-64964999D03*
D13*
X147935009Y-64964999D03*
X147232065Y-66662055D03*
X145535009Y-67364999D03*
X143837953Y-66662055D03*
X143135009Y-64964999D03*
X143837953Y-63267943D03*
X145535009Y-62564999D03*
X147232065Y-63267943D03*
G04 #@! TD*
G04 #@! TO.C,H202*
X87282060Y-44217943D03*
X85585004Y-43514999D03*
X83887948Y-44217943D03*
X83185004Y-45914999D03*
X83887948Y-47612055D03*
X85585004Y-48314999D03*
X87282060Y-47612055D03*
X87985004Y-45914999D03*
D14*
X85585004Y-45914999D03*
G04 #@! TD*
G04 #@! TO.C,J6*
G36*
G01*
X135760003Y-40234999D02*
X137010005Y-40234999D01*
G75*
G02*
X137260004Y-40484998I0J-249999D01*
G01*
X137260004Y-41185000D01*
G75*
G02*
X137010005Y-41434999I-249999J0D01*
G01*
X135760003Y-41434999D01*
G75*
G02*
X135510004Y-41185000I0J249999D01*
G01*
X135510004Y-40484998D01*
G75*
G02*
X135760003Y-40234999I249999J0D01*
G01*
G37*
D15*
X136385004Y-42834999D03*
X136385004Y-44834999D03*
G04 #@! TD*
G04 #@! TO.C,J5*
G36*
G01*
X135760003Y-64364999D02*
X137010005Y-64364999D01*
G75*
G02*
X137260004Y-64614998I0J-249999D01*
G01*
X137260004Y-65315000D01*
G75*
G02*
X137010005Y-65564999I-249999J0D01*
G01*
X135760003Y-65564999D01*
G75*
G02*
X135510004Y-65315000I0J249999D01*
G01*
X135510004Y-64614998D01*
G75*
G02*
X135760003Y-64364999I249999J0D01*
G01*
G37*
X136385004Y-66964999D03*
G04 #@! TD*
G04 #@! TO.C,J2*
G36*
G01*
X135760003Y-32614999D02*
X137010005Y-32614999D01*
G75*
G02*
X137260004Y-32864998I0J-249999D01*
G01*
X137260004Y-33565000D01*
G75*
G02*
X137010005Y-33814999I-249999J0D01*
G01*
X135760003Y-33814999D01*
G75*
G02*
X135510004Y-33565000I0J249999D01*
G01*
X135510004Y-32864998D01*
G75*
G02*
X135760003Y-32614999I249999J0D01*
G01*
G37*
X136385004Y-35214999D03*
G04 #@! TD*
D16*
G04 #@! TO.C,C15*
X113525004Y-37024999D03*
X113525004Y-32024999D03*
G04 #@! TD*
G04 #@! TO.C,C16*
X102095004Y-37024999D03*
X102095004Y-32024999D03*
G04 #@! TD*
G04 #@! TO.C,J1*
G36*
G01*
X83715004Y-37650000D02*
X83715004Y-36399998D01*
G75*
G02*
X83965003Y-36149999I249999J0D01*
G01*
X84665005Y-36149999D01*
G75*
G02*
X84915004Y-36399998I0J-249999D01*
G01*
X84915004Y-37650000D01*
G75*
G02*
X84665005Y-37899999I-249999J0D01*
G01*
X83965003Y-37899999D01*
G75*
G02*
X83715004Y-37650000I0J249999D01*
G01*
G37*
D17*
X86315004Y-37024999D03*
X88315004Y-37024999D03*
X90315004Y-37024999D03*
X92315004Y-37024999D03*
X94315004Y-37024999D03*
G04 #@! TD*
G04 #@! TO.C,J3*
G36*
G01*
X83715004Y-32570000D02*
X83715004Y-31319998D01*
G75*
G02*
X83965003Y-31069999I249999J0D01*
G01*
X84665005Y-31069999D01*
G75*
G02*
X84915004Y-31319998I0J-249999D01*
G01*
X84915004Y-32570000D01*
G75*
G02*
X84665005Y-32819999I-249999J0D01*
G01*
X83965003Y-32819999D01*
G75*
G02*
X83715004Y-32570000I0J249999D01*
G01*
G37*
X86315004Y-31944999D03*
X88315004Y-31944999D03*
X90315004Y-31944999D03*
X92315004Y-31944999D03*
X94315004Y-31944999D03*
G04 #@! TD*
D18*
G04 #@! TO.C,U2*
X122415004Y-33214999D03*
D19*
X127495004Y-33214999D03*
G04 #@! TD*
D18*
G04 #@! TO.C,U3*
X136385004Y-49724999D03*
X136385004Y-54804999D03*
D19*
X136385004Y-59884999D03*
G04 #@! TD*
D14*
G04 #@! TO.C,H201*
X85585004Y-64964999D03*
D13*
X87985004Y-64964999D03*
X87282060Y-66662055D03*
X85585004Y-67364999D03*
X83887948Y-66662055D03*
X83185004Y-64964999D03*
X83887948Y-63267943D03*
X85585004Y-62564999D03*
X87282060Y-63267943D03*
G04 #@! TD*
G04 #@! TO.C,H202*
X27332055Y-44217943D03*
X25634999Y-43514999D03*
X23937943Y-44217943D03*
X23234999Y-45914999D03*
X23937943Y-47612055D03*
X25634999Y-48314999D03*
X27332055Y-47612055D03*
X28034999Y-45914999D03*
D14*
X25634999Y-45914999D03*
G04 #@! TD*
G04 #@! TO.C,J6*
G36*
G01*
X75809998Y-40234999D02*
X77060000Y-40234999D01*
G75*
G02*
X77309999Y-40484998I0J-249999D01*
G01*
X77309999Y-41185000D01*
G75*
G02*
X77060000Y-41434999I-249999J0D01*
G01*
X75809998Y-41434999D01*
G75*
G02*
X75559999Y-41185000I0J249999D01*
G01*
X75559999Y-40484998D01*
G75*
G02*
X75809998Y-40234999I249999J0D01*
G01*
G37*
D15*
X76434999Y-42834999D03*
X76434999Y-44834999D03*
G04 #@! TD*
G04 #@! TO.C,J5*
G36*
G01*
X75809998Y-64364999D02*
X77060000Y-64364999D01*
G75*
G02*
X77309999Y-64614998I0J-249999D01*
G01*
X77309999Y-65315000D01*
G75*
G02*
X77060000Y-65564999I-249999J0D01*
G01*
X75809998Y-65564999D01*
G75*
G02*
X75559999Y-65315000I0J249999D01*
G01*
X75559999Y-64614998D01*
G75*
G02*
X75809998Y-64364999I249999J0D01*
G01*
G37*
X76434999Y-66964999D03*
G04 #@! TD*
G04 #@! TO.C,J2*
G36*
G01*
X75809998Y-32614999D02*
X77060000Y-32614999D01*
G75*
G02*
X77309999Y-32864998I0J-249999D01*
G01*
X77309999Y-33565000D01*
G75*
G02*
X77060000Y-33814999I-249999J0D01*
G01*
X75809998Y-33814999D01*
G75*
G02*
X75559999Y-33565000I0J249999D01*
G01*
X75559999Y-32864998D01*
G75*
G02*
X75809998Y-32614999I249999J0D01*
G01*
G37*
X76434999Y-35214999D03*
G04 #@! TD*
D16*
G04 #@! TO.C,C15*
X53574999Y-37024999D03*
X53574999Y-32024999D03*
G04 #@! TD*
G04 #@! TO.C,C16*
X42144999Y-37024999D03*
X42144999Y-32024999D03*
G04 #@! TD*
G04 #@! TO.C,J1*
G36*
G01*
X23764999Y-37650000D02*
X23764999Y-36399998D01*
G75*
G02*
X24014998Y-36149999I249999J0D01*
G01*
X24715000Y-36149999D01*
G75*
G02*
X24964999Y-36399998I0J-249999D01*
G01*
X24964999Y-37650000D01*
G75*
G02*
X24715000Y-37899999I-249999J0D01*
G01*
X24014998Y-37899999D01*
G75*
G02*
X23764999Y-37650000I0J249999D01*
G01*
G37*
D17*
X26364999Y-37024999D03*
X28364999Y-37024999D03*
X30364999Y-37024999D03*
X32364999Y-37024999D03*
X34364999Y-37024999D03*
G04 #@! TD*
G04 #@! TO.C,J3*
G36*
G01*
X23764999Y-32570000D02*
X23764999Y-31319998D01*
G75*
G02*
X24014998Y-31069999I249999J0D01*
G01*
X24715000Y-31069999D01*
G75*
G02*
X24964999Y-31319998I0J-249999D01*
G01*
X24964999Y-32570000D01*
G75*
G02*
X24715000Y-32819999I-249999J0D01*
G01*
X24014998Y-32819999D01*
G75*
G02*
X23764999Y-32570000I0J249999D01*
G01*
G37*
X26364999Y-31944999D03*
X28364999Y-31944999D03*
X30364999Y-31944999D03*
X32364999Y-31944999D03*
X34364999Y-31944999D03*
G04 #@! TD*
D18*
G04 #@! TO.C,U2*
X62464999Y-33214999D03*
D19*
X67544999Y-33214999D03*
G04 #@! TD*
D18*
G04 #@! TO.C,U3*
X76434999Y-49724999D03*
X76434999Y-54804999D03*
D19*
X76434999Y-59884999D03*
G04 #@! TD*
D14*
G04 #@! TO.C,H201*
X25634999Y-64964999D03*
D13*
X28034999Y-64964999D03*
X27332055Y-66662055D03*
X25634999Y-67364999D03*
X23937943Y-66662055D03*
X23234999Y-64964999D03*
X23937943Y-63267943D03*
X25634999Y-62564999D03*
X27332055Y-63267943D03*
G04 #@! TD*
M02*
