G04 #@! TF.GenerationSoftware,KiCad,Pcbnew,5.1.12-84ad8e8a86~92~ubuntu20.04.1*
G04 #@! TF.CreationDate,2022-01-02T11:27:23+02:00*
G04 #@! TF.ProjectId,panel.opm-inline,70616e65-6c2e-46f7-906d-2d696e6c696e,rev?*
G04 #@! TF.SameCoordinates,Original*
G04 #@! TF.FileFunction,Copper,L3,Inr*
G04 #@! TF.FilePolarity,Positive*
%FSLAX46Y46*%
G04 Gerber Fmt 4.6, Leading zero omitted, Abs format (unit mm)*
G04 Created by KiCad (PCBNEW 5.1.12-84ad8e8a86~92~ubuntu20.04.1) date 2022-01-02 11:27:23*
%MOMM*%
%LPD*%
G01*
G04 APERTURE LIST*
G04 #@! TA.AperFunction,ComponentPad*
%ADD10C,0.800000*%
G04 #@! TD*
G04 #@! TA.AperFunction,ComponentPad*
%ADD11C,6.400000*%
G04 #@! TD*
G04 #@! TA.AperFunction,ComponentPad*
%ADD12O,1.750000X1.200000*%
G04 #@! TD*
G04 #@! TA.AperFunction,ComponentPad*
%ADD13C,1.600000*%
G04 #@! TD*
G04 #@! TA.AperFunction,ComponentPad*
%ADD14O,1.200000X1.750000*%
G04 #@! TD*
G04 #@! TA.AperFunction,ComponentPad*
%ADD15C,3.000000*%
G04 #@! TD*
G04 #@! TA.AperFunction,ComponentPad*
%ADD16R,3.000000X3.000000*%
G04 #@! TD*
G04 #@! TA.AperFunction,ViaPad*
%ADD17C,0.600000*%
G04 #@! TD*
G04 #@! TA.AperFunction,Conductor*
%ADD18C,4.000000*%
G04 #@! TD*
G04 APERTURE END LIST*
D10*
G04 #@! TO.N,Board_23-GND*
G04 #@! TO.C,H202*
X207182070Y-254167968D03*
X205485014Y-253465024D03*
X203787958Y-254167968D03*
X203085014Y-255865024D03*
X203787958Y-257562080D03*
X205485014Y-258265024D03*
X207182070Y-257562080D03*
X207885014Y-255865024D03*
D11*
X205485014Y-255865024D03*
G04 #@! TD*
G04 #@! TO.N,Board_23-/ADC_I_u*
G04 #@! TO.C,J6*
G04 #@! TA.AperFunction,ComponentPad*
G36*
G01*
X255660013Y-250185024D02*
X256910015Y-250185024D01*
G75*
G02*
X257160014Y-250435023I0J-249999D01*
G01*
X257160014Y-251135025D01*
G75*
G02*
X256910015Y-251385024I-249999J0D01*
G01*
X255660013Y-251385024D01*
G75*
G02*
X255410014Y-251135025I0J249999D01*
G01*
X255410014Y-250435023D01*
G75*
G02*
X255660013Y-250185024I249999J0D01*
G01*
G37*
G04 #@! TD.AperFunction*
D12*
G04 #@! TO.N,Board_23-/ADC_I_v*
X256285014Y-252785024D03*
G04 #@! TO.N,Board_23-/ADC_I_w*
X256285014Y-254785024D03*
G04 #@! TD*
G04 #@! TO.N,Board_23-Net-(C17-Pad1)*
G04 #@! TO.C,J5*
G04 #@! TA.AperFunction,ComponentPad*
G36*
G01*
X255660013Y-274315024D02*
X256910015Y-274315024D01*
G75*
G02*
X257160014Y-274565023I0J-249999D01*
G01*
X257160014Y-275265025D01*
G75*
G02*
X256910015Y-275515024I-249999J0D01*
G01*
X255660013Y-275515024D01*
G75*
G02*
X255410014Y-275265025I0J249999D01*
G01*
X255410014Y-274565023D01*
G75*
G02*
X255660013Y-274315024I249999J0D01*
G01*
G37*
G04 #@! TD.AperFunction*
G04 #@! TO.N,Board_23-GND*
X256285014Y-276915024D03*
G04 #@! TD*
G04 #@! TO.N,Board_23-/Connectors/+VCC_IO*
G04 #@! TO.C,J2*
G04 #@! TA.AperFunction,ComponentPad*
G36*
G01*
X255660013Y-242565024D02*
X256910015Y-242565024D01*
G75*
G02*
X257160014Y-242815023I0J-249999D01*
G01*
X257160014Y-243515025D01*
G75*
G02*
X256910015Y-243765024I-249999J0D01*
G01*
X255660013Y-243765024D01*
G75*
G02*
X255410014Y-243515025I0J249999D01*
G01*
X255410014Y-242815023D01*
G75*
G02*
X255660013Y-242565024I249999J0D01*
G01*
G37*
G04 #@! TD.AperFunction*
G04 #@! TO.N,Board_23-GND*
X256285014Y-245165024D03*
G04 #@! TD*
D13*
G04 #@! TO.N,Board_23-/+VM*
G04 #@! TO.C,C15*
X233425014Y-246975024D03*
G04 #@! TO.N,Board_23-GND*
X233425014Y-241975024D03*
G04 #@! TD*
G04 #@! TO.N,Board_23-/+VM*
G04 #@! TO.C,C16*
X221995014Y-246975024D03*
G04 #@! TO.N,Board_23-GND*
X221995014Y-241975024D03*
G04 #@! TD*
G04 #@! TO.N,Board_23-/~CS_DRIVER*
G04 #@! TO.C,J1*
G04 #@! TA.AperFunction,ComponentPad*
G36*
G01*
X203615014Y-247600025D02*
X203615014Y-246350023D01*
G75*
G02*
X203865013Y-246100024I249999J0D01*
G01*
X204565015Y-246100024D01*
G75*
G02*
X204815014Y-246350023I0J-249999D01*
G01*
X204815014Y-247600025D01*
G75*
G02*
X204565015Y-247850024I-249999J0D01*
G01*
X203865013Y-247850024D01*
G75*
G02*
X203615014Y-247600025I0J249999D01*
G01*
G37*
G04 #@! TD.AperFunction*
D14*
G04 #@! TO.N,Board_23-/SPI1_SCK*
X206215014Y-246975024D03*
G04 #@! TO.N,Board_23-/SPI1_MOSI*
X208215014Y-246975024D03*
G04 #@! TO.N,Board_23-/SPI1_MISO*
X210215014Y-246975024D03*
G04 #@! TO.N,Board_23-/DRV_EN*
X212215014Y-246975024D03*
G04 #@! TO.N,Board_23-/Connectors/FAULT*
X214215014Y-246975024D03*
G04 #@! TD*
G04 #@! TO.N,Board_23-/WL*
G04 #@! TO.C,J3*
G04 #@! TA.AperFunction,ComponentPad*
G36*
G01*
X203615014Y-242520025D02*
X203615014Y-241270023D01*
G75*
G02*
X203865013Y-241020024I249999J0D01*
G01*
X204565015Y-241020024D01*
G75*
G02*
X204815014Y-241270023I0J-249999D01*
G01*
X204815014Y-242520025D01*
G75*
G02*
X204565015Y-242770024I-249999J0D01*
G01*
X203865013Y-242770024D01*
G75*
G02*
X203615014Y-242520025I0J249999D01*
G01*
G37*
G04 #@! TD.AperFunction*
G04 #@! TO.N,Board_23-/WH*
X206215014Y-241895024D03*
G04 #@! TO.N,Board_23-/VL*
X208215014Y-241895024D03*
G04 #@! TO.N,Board_23-/VH*
X210215014Y-241895024D03*
G04 #@! TO.N,Board_23-/UL*
X212215014Y-241895024D03*
G04 #@! TO.N,Board_23-/UH*
X214215014Y-241895024D03*
G04 #@! TD*
D15*
G04 #@! TO.N,Board_23-/+VM*
G04 #@! TO.C,U2*
X242315014Y-243165024D03*
D16*
G04 #@! TO.N,Board_23-GND*
X247395014Y-243165024D03*
G04 #@! TD*
D15*
G04 #@! TO.N,Board_23-/U*
G04 #@! TO.C,U3*
X256285014Y-259675024D03*
G04 #@! TO.N,Board_23-/V*
X256285014Y-264755024D03*
D16*
G04 #@! TO.N,Board_23-/W*
X256285014Y-269835024D03*
G04 #@! TD*
D11*
G04 #@! TO.N,Board_23-GND*
G04 #@! TO.C,H201*
X205485014Y-274915024D03*
D10*
X207885014Y-274915024D03*
X207182070Y-276612080D03*
X205485014Y-277315024D03*
X203787958Y-276612080D03*
X203085014Y-274915024D03*
X203787958Y-273217968D03*
X205485014Y-272515024D03*
X207182070Y-273217968D03*
G04 #@! TD*
G04 #@! TO.N,Board_22-GND*
G04 #@! TO.C,H202*
X147232065Y-254167968D03*
X145535009Y-253465024D03*
X143837953Y-254167968D03*
X143135009Y-255865024D03*
X143837953Y-257562080D03*
X145535009Y-258265024D03*
X147232065Y-257562080D03*
X147935009Y-255865024D03*
D11*
X145535009Y-255865024D03*
G04 #@! TD*
G04 #@! TO.N,Board_22-/ADC_I_u*
G04 #@! TO.C,J6*
G04 #@! TA.AperFunction,ComponentPad*
G36*
G01*
X195710008Y-250185024D02*
X196960010Y-250185024D01*
G75*
G02*
X197210009Y-250435023I0J-249999D01*
G01*
X197210009Y-251135025D01*
G75*
G02*
X196960010Y-251385024I-249999J0D01*
G01*
X195710008Y-251385024D01*
G75*
G02*
X195460009Y-251135025I0J249999D01*
G01*
X195460009Y-250435023D01*
G75*
G02*
X195710008Y-250185024I249999J0D01*
G01*
G37*
G04 #@! TD.AperFunction*
D12*
G04 #@! TO.N,Board_22-/ADC_I_v*
X196335009Y-252785024D03*
G04 #@! TO.N,Board_22-/ADC_I_w*
X196335009Y-254785024D03*
G04 #@! TD*
G04 #@! TO.N,Board_22-Net-(C17-Pad1)*
G04 #@! TO.C,J5*
G04 #@! TA.AperFunction,ComponentPad*
G36*
G01*
X195710008Y-274315024D02*
X196960010Y-274315024D01*
G75*
G02*
X197210009Y-274565023I0J-249999D01*
G01*
X197210009Y-275265025D01*
G75*
G02*
X196960010Y-275515024I-249999J0D01*
G01*
X195710008Y-275515024D01*
G75*
G02*
X195460009Y-275265025I0J249999D01*
G01*
X195460009Y-274565023D01*
G75*
G02*
X195710008Y-274315024I249999J0D01*
G01*
G37*
G04 #@! TD.AperFunction*
G04 #@! TO.N,Board_22-GND*
X196335009Y-276915024D03*
G04 #@! TD*
G04 #@! TO.N,Board_22-/Connectors/+VCC_IO*
G04 #@! TO.C,J2*
G04 #@! TA.AperFunction,ComponentPad*
G36*
G01*
X195710008Y-242565024D02*
X196960010Y-242565024D01*
G75*
G02*
X197210009Y-242815023I0J-249999D01*
G01*
X197210009Y-243515025D01*
G75*
G02*
X196960010Y-243765024I-249999J0D01*
G01*
X195710008Y-243765024D01*
G75*
G02*
X195460009Y-243515025I0J249999D01*
G01*
X195460009Y-242815023D01*
G75*
G02*
X195710008Y-242565024I249999J0D01*
G01*
G37*
G04 #@! TD.AperFunction*
G04 #@! TO.N,Board_22-GND*
X196335009Y-245165024D03*
G04 #@! TD*
D13*
G04 #@! TO.N,Board_22-/+VM*
G04 #@! TO.C,C15*
X173475009Y-246975024D03*
G04 #@! TO.N,Board_22-GND*
X173475009Y-241975024D03*
G04 #@! TD*
G04 #@! TO.N,Board_22-/+VM*
G04 #@! TO.C,C16*
X162045009Y-246975024D03*
G04 #@! TO.N,Board_22-GND*
X162045009Y-241975024D03*
G04 #@! TD*
G04 #@! TO.N,Board_22-/~CS_DRIVER*
G04 #@! TO.C,J1*
G04 #@! TA.AperFunction,ComponentPad*
G36*
G01*
X143665009Y-247600025D02*
X143665009Y-246350023D01*
G75*
G02*
X143915008Y-246100024I249999J0D01*
G01*
X144615010Y-246100024D01*
G75*
G02*
X144865009Y-246350023I0J-249999D01*
G01*
X144865009Y-247600025D01*
G75*
G02*
X144615010Y-247850024I-249999J0D01*
G01*
X143915008Y-247850024D01*
G75*
G02*
X143665009Y-247600025I0J249999D01*
G01*
G37*
G04 #@! TD.AperFunction*
D14*
G04 #@! TO.N,Board_22-/SPI1_SCK*
X146265009Y-246975024D03*
G04 #@! TO.N,Board_22-/SPI1_MOSI*
X148265009Y-246975024D03*
G04 #@! TO.N,Board_22-/SPI1_MISO*
X150265009Y-246975024D03*
G04 #@! TO.N,Board_22-/DRV_EN*
X152265009Y-246975024D03*
G04 #@! TO.N,Board_22-/Connectors/FAULT*
X154265009Y-246975024D03*
G04 #@! TD*
G04 #@! TO.N,Board_22-/WL*
G04 #@! TO.C,J3*
G04 #@! TA.AperFunction,ComponentPad*
G36*
G01*
X143665009Y-242520025D02*
X143665009Y-241270023D01*
G75*
G02*
X143915008Y-241020024I249999J0D01*
G01*
X144615010Y-241020024D01*
G75*
G02*
X144865009Y-241270023I0J-249999D01*
G01*
X144865009Y-242520025D01*
G75*
G02*
X144615010Y-242770024I-249999J0D01*
G01*
X143915008Y-242770024D01*
G75*
G02*
X143665009Y-242520025I0J249999D01*
G01*
G37*
G04 #@! TD.AperFunction*
G04 #@! TO.N,Board_22-/WH*
X146265009Y-241895024D03*
G04 #@! TO.N,Board_22-/VL*
X148265009Y-241895024D03*
G04 #@! TO.N,Board_22-/VH*
X150265009Y-241895024D03*
G04 #@! TO.N,Board_22-/UL*
X152265009Y-241895024D03*
G04 #@! TO.N,Board_22-/UH*
X154265009Y-241895024D03*
G04 #@! TD*
D15*
G04 #@! TO.N,Board_22-/+VM*
G04 #@! TO.C,U2*
X182365009Y-243165024D03*
D16*
G04 #@! TO.N,Board_22-GND*
X187445009Y-243165024D03*
G04 #@! TD*
D15*
G04 #@! TO.N,Board_22-/U*
G04 #@! TO.C,U3*
X196335009Y-259675024D03*
G04 #@! TO.N,Board_22-/V*
X196335009Y-264755024D03*
D16*
G04 #@! TO.N,Board_22-/W*
X196335009Y-269835024D03*
G04 #@! TD*
D11*
G04 #@! TO.N,Board_22-GND*
G04 #@! TO.C,H201*
X145535009Y-274915024D03*
D10*
X147935009Y-274915024D03*
X147232065Y-276612080D03*
X145535009Y-277315024D03*
X143837953Y-276612080D03*
X143135009Y-274915024D03*
X143837953Y-273217968D03*
X145535009Y-272515024D03*
X147232065Y-273217968D03*
G04 #@! TD*
G04 #@! TO.N,Board_21-GND*
G04 #@! TO.C,H202*
X87282060Y-254167968D03*
X85585004Y-253465024D03*
X83887948Y-254167968D03*
X83185004Y-255865024D03*
X83887948Y-257562080D03*
X85585004Y-258265024D03*
X87282060Y-257562080D03*
X87985004Y-255865024D03*
D11*
X85585004Y-255865024D03*
G04 #@! TD*
G04 #@! TO.N,Board_21-/ADC_I_u*
G04 #@! TO.C,J6*
G04 #@! TA.AperFunction,ComponentPad*
G36*
G01*
X135760003Y-250185024D02*
X137010005Y-250185024D01*
G75*
G02*
X137260004Y-250435023I0J-249999D01*
G01*
X137260004Y-251135025D01*
G75*
G02*
X137010005Y-251385024I-249999J0D01*
G01*
X135760003Y-251385024D01*
G75*
G02*
X135510004Y-251135025I0J249999D01*
G01*
X135510004Y-250435023D01*
G75*
G02*
X135760003Y-250185024I249999J0D01*
G01*
G37*
G04 #@! TD.AperFunction*
D12*
G04 #@! TO.N,Board_21-/ADC_I_v*
X136385004Y-252785024D03*
G04 #@! TO.N,Board_21-/ADC_I_w*
X136385004Y-254785024D03*
G04 #@! TD*
G04 #@! TO.N,Board_21-Net-(C17-Pad1)*
G04 #@! TO.C,J5*
G04 #@! TA.AperFunction,ComponentPad*
G36*
G01*
X135760003Y-274315024D02*
X137010005Y-274315024D01*
G75*
G02*
X137260004Y-274565023I0J-249999D01*
G01*
X137260004Y-275265025D01*
G75*
G02*
X137010005Y-275515024I-249999J0D01*
G01*
X135760003Y-275515024D01*
G75*
G02*
X135510004Y-275265025I0J249999D01*
G01*
X135510004Y-274565023D01*
G75*
G02*
X135760003Y-274315024I249999J0D01*
G01*
G37*
G04 #@! TD.AperFunction*
G04 #@! TO.N,Board_21-GND*
X136385004Y-276915024D03*
G04 #@! TD*
G04 #@! TO.N,Board_21-/Connectors/+VCC_IO*
G04 #@! TO.C,J2*
G04 #@! TA.AperFunction,ComponentPad*
G36*
G01*
X135760003Y-242565024D02*
X137010005Y-242565024D01*
G75*
G02*
X137260004Y-242815023I0J-249999D01*
G01*
X137260004Y-243515025D01*
G75*
G02*
X137010005Y-243765024I-249999J0D01*
G01*
X135760003Y-243765024D01*
G75*
G02*
X135510004Y-243515025I0J249999D01*
G01*
X135510004Y-242815023D01*
G75*
G02*
X135760003Y-242565024I249999J0D01*
G01*
G37*
G04 #@! TD.AperFunction*
G04 #@! TO.N,Board_21-GND*
X136385004Y-245165024D03*
G04 #@! TD*
D13*
G04 #@! TO.N,Board_21-/+VM*
G04 #@! TO.C,C15*
X113525004Y-246975024D03*
G04 #@! TO.N,Board_21-GND*
X113525004Y-241975024D03*
G04 #@! TD*
G04 #@! TO.N,Board_21-/+VM*
G04 #@! TO.C,C16*
X102095004Y-246975024D03*
G04 #@! TO.N,Board_21-GND*
X102095004Y-241975024D03*
G04 #@! TD*
G04 #@! TO.N,Board_21-/~CS_DRIVER*
G04 #@! TO.C,J1*
G04 #@! TA.AperFunction,ComponentPad*
G36*
G01*
X83715004Y-247600025D02*
X83715004Y-246350023D01*
G75*
G02*
X83965003Y-246100024I249999J0D01*
G01*
X84665005Y-246100024D01*
G75*
G02*
X84915004Y-246350023I0J-249999D01*
G01*
X84915004Y-247600025D01*
G75*
G02*
X84665005Y-247850024I-249999J0D01*
G01*
X83965003Y-247850024D01*
G75*
G02*
X83715004Y-247600025I0J249999D01*
G01*
G37*
G04 #@! TD.AperFunction*
D14*
G04 #@! TO.N,Board_21-/SPI1_SCK*
X86315004Y-246975024D03*
G04 #@! TO.N,Board_21-/SPI1_MOSI*
X88315004Y-246975024D03*
G04 #@! TO.N,Board_21-/SPI1_MISO*
X90315004Y-246975024D03*
G04 #@! TO.N,Board_21-/DRV_EN*
X92315004Y-246975024D03*
G04 #@! TO.N,Board_21-/Connectors/FAULT*
X94315004Y-246975024D03*
G04 #@! TD*
G04 #@! TO.N,Board_21-/WL*
G04 #@! TO.C,J3*
G04 #@! TA.AperFunction,ComponentPad*
G36*
G01*
X83715004Y-242520025D02*
X83715004Y-241270023D01*
G75*
G02*
X83965003Y-241020024I249999J0D01*
G01*
X84665005Y-241020024D01*
G75*
G02*
X84915004Y-241270023I0J-249999D01*
G01*
X84915004Y-242520025D01*
G75*
G02*
X84665005Y-242770024I-249999J0D01*
G01*
X83965003Y-242770024D01*
G75*
G02*
X83715004Y-242520025I0J249999D01*
G01*
G37*
G04 #@! TD.AperFunction*
G04 #@! TO.N,Board_21-/WH*
X86315004Y-241895024D03*
G04 #@! TO.N,Board_21-/VL*
X88315004Y-241895024D03*
G04 #@! TO.N,Board_21-/VH*
X90315004Y-241895024D03*
G04 #@! TO.N,Board_21-/UL*
X92315004Y-241895024D03*
G04 #@! TO.N,Board_21-/UH*
X94315004Y-241895024D03*
G04 #@! TD*
D15*
G04 #@! TO.N,Board_21-/+VM*
G04 #@! TO.C,U2*
X122415004Y-243165024D03*
D16*
G04 #@! TO.N,Board_21-GND*
X127495004Y-243165024D03*
G04 #@! TD*
D15*
G04 #@! TO.N,Board_21-/U*
G04 #@! TO.C,U3*
X136385004Y-259675024D03*
G04 #@! TO.N,Board_21-/V*
X136385004Y-264755024D03*
D16*
G04 #@! TO.N,Board_21-/W*
X136385004Y-269835024D03*
G04 #@! TD*
D11*
G04 #@! TO.N,Board_21-GND*
G04 #@! TO.C,H201*
X85585004Y-274915024D03*
D10*
X87985004Y-274915024D03*
X87282060Y-276612080D03*
X85585004Y-277315024D03*
X83887948Y-276612080D03*
X83185004Y-274915024D03*
X83887948Y-273217968D03*
X85585004Y-272515024D03*
X87282060Y-273217968D03*
G04 #@! TD*
G04 #@! TO.N,Board_20-GND*
G04 #@! TO.C,H202*
X27332055Y-254167968D03*
X25634999Y-253465024D03*
X23937943Y-254167968D03*
X23234999Y-255865024D03*
X23937943Y-257562080D03*
X25634999Y-258265024D03*
X27332055Y-257562080D03*
X28034999Y-255865024D03*
D11*
X25634999Y-255865024D03*
G04 #@! TD*
G04 #@! TO.N,Board_20-/ADC_I_u*
G04 #@! TO.C,J6*
G04 #@! TA.AperFunction,ComponentPad*
G36*
G01*
X75809998Y-250185024D02*
X77060000Y-250185024D01*
G75*
G02*
X77309999Y-250435023I0J-249999D01*
G01*
X77309999Y-251135025D01*
G75*
G02*
X77060000Y-251385024I-249999J0D01*
G01*
X75809998Y-251385024D01*
G75*
G02*
X75559999Y-251135025I0J249999D01*
G01*
X75559999Y-250435023D01*
G75*
G02*
X75809998Y-250185024I249999J0D01*
G01*
G37*
G04 #@! TD.AperFunction*
D12*
G04 #@! TO.N,Board_20-/ADC_I_v*
X76434999Y-252785024D03*
G04 #@! TO.N,Board_20-/ADC_I_w*
X76434999Y-254785024D03*
G04 #@! TD*
G04 #@! TO.N,Board_20-Net-(C17-Pad1)*
G04 #@! TO.C,J5*
G04 #@! TA.AperFunction,ComponentPad*
G36*
G01*
X75809998Y-274315024D02*
X77060000Y-274315024D01*
G75*
G02*
X77309999Y-274565023I0J-249999D01*
G01*
X77309999Y-275265025D01*
G75*
G02*
X77060000Y-275515024I-249999J0D01*
G01*
X75809998Y-275515024D01*
G75*
G02*
X75559999Y-275265025I0J249999D01*
G01*
X75559999Y-274565023D01*
G75*
G02*
X75809998Y-274315024I249999J0D01*
G01*
G37*
G04 #@! TD.AperFunction*
G04 #@! TO.N,Board_20-GND*
X76434999Y-276915024D03*
G04 #@! TD*
G04 #@! TO.N,Board_20-/Connectors/+VCC_IO*
G04 #@! TO.C,J2*
G04 #@! TA.AperFunction,ComponentPad*
G36*
G01*
X75809998Y-242565024D02*
X77060000Y-242565024D01*
G75*
G02*
X77309999Y-242815023I0J-249999D01*
G01*
X77309999Y-243515025D01*
G75*
G02*
X77060000Y-243765024I-249999J0D01*
G01*
X75809998Y-243765024D01*
G75*
G02*
X75559999Y-243515025I0J249999D01*
G01*
X75559999Y-242815023D01*
G75*
G02*
X75809998Y-242565024I249999J0D01*
G01*
G37*
G04 #@! TD.AperFunction*
G04 #@! TO.N,Board_20-GND*
X76434999Y-245165024D03*
G04 #@! TD*
D13*
G04 #@! TO.N,Board_20-/+VM*
G04 #@! TO.C,C15*
X53574999Y-246975024D03*
G04 #@! TO.N,Board_20-GND*
X53574999Y-241975024D03*
G04 #@! TD*
G04 #@! TO.N,Board_20-/+VM*
G04 #@! TO.C,C16*
X42144999Y-246975024D03*
G04 #@! TO.N,Board_20-GND*
X42144999Y-241975024D03*
G04 #@! TD*
G04 #@! TO.N,Board_20-/~CS_DRIVER*
G04 #@! TO.C,J1*
G04 #@! TA.AperFunction,ComponentPad*
G36*
G01*
X23764999Y-247600025D02*
X23764999Y-246350023D01*
G75*
G02*
X24014998Y-246100024I249999J0D01*
G01*
X24715000Y-246100024D01*
G75*
G02*
X24964999Y-246350023I0J-249999D01*
G01*
X24964999Y-247600025D01*
G75*
G02*
X24715000Y-247850024I-249999J0D01*
G01*
X24014998Y-247850024D01*
G75*
G02*
X23764999Y-247600025I0J249999D01*
G01*
G37*
G04 #@! TD.AperFunction*
D14*
G04 #@! TO.N,Board_20-/SPI1_SCK*
X26364999Y-246975024D03*
G04 #@! TO.N,Board_20-/SPI1_MOSI*
X28364999Y-246975024D03*
G04 #@! TO.N,Board_20-/SPI1_MISO*
X30364999Y-246975024D03*
G04 #@! TO.N,Board_20-/DRV_EN*
X32364999Y-246975024D03*
G04 #@! TO.N,Board_20-/Connectors/FAULT*
X34364999Y-246975024D03*
G04 #@! TD*
G04 #@! TO.N,Board_20-/WL*
G04 #@! TO.C,J3*
G04 #@! TA.AperFunction,ComponentPad*
G36*
G01*
X23764999Y-242520025D02*
X23764999Y-241270023D01*
G75*
G02*
X24014998Y-241020024I249999J0D01*
G01*
X24715000Y-241020024D01*
G75*
G02*
X24964999Y-241270023I0J-249999D01*
G01*
X24964999Y-242520025D01*
G75*
G02*
X24715000Y-242770024I-249999J0D01*
G01*
X24014998Y-242770024D01*
G75*
G02*
X23764999Y-242520025I0J249999D01*
G01*
G37*
G04 #@! TD.AperFunction*
G04 #@! TO.N,Board_20-/WH*
X26364999Y-241895024D03*
G04 #@! TO.N,Board_20-/VL*
X28364999Y-241895024D03*
G04 #@! TO.N,Board_20-/VH*
X30364999Y-241895024D03*
G04 #@! TO.N,Board_20-/UL*
X32364999Y-241895024D03*
G04 #@! TO.N,Board_20-/UH*
X34364999Y-241895024D03*
G04 #@! TD*
D15*
G04 #@! TO.N,Board_20-/+VM*
G04 #@! TO.C,U2*
X62464999Y-243165024D03*
D16*
G04 #@! TO.N,Board_20-GND*
X67544999Y-243165024D03*
G04 #@! TD*
D15*
G04 #@! TO.N,Board_20-/U*
G04 #@! TO.C,U3*
X76434999Y-259675024D03*
G04 #@! TO.N,Board_20-/V*
X76434999Y-264755024D03*
D16*
G04 #@! TO.N,Board_20-/W*
X76434999Y-269835024D03*
G04 #@! TD*
D11*
G04 #@! TO.N,Board_20-GND*
G04 #@! TO.C,H201*
X25634999Y-274915024D03*
D10*
X28034999Y-274915024D03*
X27332055Y-276612080D03*
X25634999Y-277315024D03*
X23937943Y-276612080D03*
X23234999Y-274915024D03*
X23937943Y-273217968D03*
X25634999Y-272515024D03*
X27332055Y-273217968D03*
G04 #@! TD*
G04 #@! TO.N,Board_19-GND*
G04 #@! TO.C,H202*
X207182070Y-212177963D03*
X205485014Y-211475019D03*
X203787958Y-212177963D03*
X203085014Y-213875019D03*
X203787958Y-215572075D03*
X205485014Y-216275019D03*
X207182070Y-215572075D03*
X207885014Y-213875019D03*
D11*
X205485014Y-213875019D03*
G04 #@! TD*
G04 #@! TO.N,Board_19-/ADC_I_u*
G04 #@! TO.C,J6*
G04 #@! TA.AperFunction,ComponentPad*
G36*
G01*
X255660013Y-208195019D02*
X256910015Y-208195019D01*
G75*
G02*
X257160014Y-208445018I0J-249999D01*
G01*
X257160014Y-209145020D01*
G75*
G02*
X256910015Y-209395019I-249999J0D01*
G01*
X255660013Y-209395019D01*
G75*
G02*
X255410014Y-209145020I0J249999D01*
G01*
X255410014Y-208445018D01*
G75*
G02*
X255660013Y-208195019I249999J0D01*
G01*
G37*
G04 #@! TD.AperFunction*
D12*
G04 #@! TO.N,Board_19-/ADC_I_v*
X256285014Y-210795019D03*
G04 #@! TO.N,Board_19-/ADC_I_w*
X256285014Y-212795019D03*
G04 #@! TD*
G04 #@! TO.N,Board_19-Net-(C17-Pad1)*
G04 #@! TO.C,J5*
G04 #@! TA.AperFunction,ComponentPad*
G36*
G01*
X255660013Y-232325019D02*
X256910015Y-232325019D01*
G75*
G02*
X257160014Y-232575018I0J-249999D01*
G01*
X257160014Y-233275020D01*
G75*
G02*
X256910015Y-233525019I-249999J0D01*
G01*
X255660013Y-233525019D01*
G75*
G02*
X255410014Y-233275020I0J249999D01*
G01*
X255410014Y-232575018D01*
G75*
G02*
X255660013Y-232325019I249999J0D01*
G01*
G37*
G04 #@! TD.AperFunction*
G04 #@! TO.N,Board_19-GND*
X256285014Y-234925019D03*
G04 #@! TD*
G04 #@! TO.N,Board_19-/Connectors/+VCC_IO*
G04 #@! TO.C,J2*
G04 #@! TA.AperFunction,ComponentPad*
G36*
G01*
X255660013Y-200575019D02*
X256910015Y-200575019D01*
G75*
G02*
X257160014Y-200825018I0J-249999D01*
G01*
X257160014Y-201525020D01*
G75*
G02*
X256910015Y-201775019I-249999J0D01*
G01*
X255660013Y-201775019D01*
G75*
G02*
X255410014Y-201525020I0J249999D01*
G01*
X255410014Y-200825018D01*
G75*
G02*
X255660013Y-200575019I249999J0D01*
G01*
G37*
G04 #@! TD.AperFunction*
G04 #@! TO.N,Board_19-GND*
X256285014Y-203175019D03*
G04 #@! TD*
D13*
G04 #@! TO.N,Board_19-/+VM*
G04 #@! TO.C,C15*
X233425014Y-204985019D03*
G04 #@! TO.N,Board_19-GND*
X233425014Y-199985019D03*
G04 #@! TD*
G04 #@! TO.N,Board_19-/+VM*
G04 #@! TO.C,C16*
X221995014Y-204985019D03*
G04 #@! TO.N,Board_19-GND*
X221995014Y-199985019D03*
G04 #@! TD*
G04 #@! TO.N,Board_19-/~CS_DRIVER*
G04 #@! TO.C,J1*
G04 #@! TA.AperFunction,ComponentPad*
G36*
G01*
X203615014Y-205610020D02*
X203615014Y-204360018D01*
G75*
G02*
X203865013Y-204110019I249999J0D01*
G01*
X204565015Y-204110019D01*
G75*
G02*
X204815014Y-204360018I0J-249999D01*
G01*
X204815014Y-205610020D01*
G75*
G02*
X204565015Y-205860019I-249999J0D01*
G01*
X203865013Y-205860019D01*
G75*
G02*
X203615014Y-205610020I0J249999D01*
G01*
G37*
G04 #@! TD.AperFunction*
D14*
G04 #@! TO.N,Board_19-/SPI1_SCK*
X206215014Y-204985019D03*
G04 #@! TO.N,Board_19-/SPI1_MOSI*
X208215014Y-204985019D03*
G04 #@! TO.N,Board_19-/SPI1_MISO*
X210215014Y-204985019D03*
G04 #@! TO.N,Board_19-/DRV_EN*
X212215014Y-204985019D03*
G04 #@! TO.N,Board_19-/Connectors/FAULT*
X214215014Y-204985019D03*
G04 #@! TD*
G04 #@! TO.N,Board_19-/WL*
G04 #@! TO.C,J3*
G04 #@! TA.AperFunction,ComponentPad*
G36*
G01*
X203615014Y-200530020D02*
X203615014Y-199280018D01*
G75*
G02*
X203865013Y-199030019I249999J0D01*
G01*
X204565015Y-199030019D01*
G75*
G02*
X204815014Y-199280018I0J-249999D01*
G01*
X204815014Y-200530020D01*
G75*
G02*
X204565015Y-200780019I-249999J0D01*
G01*
X203865013Y-200780019D01*
G75*
G02*
X203615014Y-200530020I0J249999D01*
G01*
G37*
G04 #@! TD.AperFunction*
G04 #@! TO.N,Board_19-/WH*
X206215014Y-199905019D03*
G04 #@! TO.N,Board_19-/VL*
X208215014Y-199905019D03*
G04 #@! TO.N,Board_19-/VH*
X210215014Y-199905019D03*
G04 #@! TO.N,Board_19-/UL*
X212215014Y-199905019D03*
G04 #@! TO.N,Board_19-/UH*
X214215014Y-199905019D03*
G04 #@! TD*
D15*
G04 #@! TO.N,Board_19-/+VM*
G04 #@! TO.C,U2*
X242315014Y-201175019D03*
D16*
G04 #@! TO.N,Board_19-GND*
X247395014Y-201175019D03*
G04 #@! TD*
D15*
G04 #@! TO.N,Board_19-/U*
G04 #@! TO.C,U3*
X256285014Y-217685019D03*
G04 #@! TO.N,Board_19-/V*
X256285014Y-222765019D03*
D16*
G04 #@! TO.N,Board_19-/W*
X256285014Y-227845019D03*
G04 #@! TD*
D11*
G04 #@! TO.N,Board_19-GND*
G04 #@! TO.C,H201*
X205485014Y-232925019D03*
D10*
X207885014Y-232925019D03*
X207182070Y-234622075D03*
X205485014Y-235325019D03*
X203787958Y-234622075D03*
X203085014Y-232925019D03*
X203787958Y-231227963D03*
X205485014Y-230525019D03*
X207182070Y-231227963D03*
G04 #@! TD*
G04 #@! TO.N,Board_18-GND*
G04 #@! TO.C,H202*
X147232065Y-212177963D03*
X145535009Y-211475019D03*
X143837953Y-212177963D03*
X143135009Y-213875019D03*
X143837953Y-215572075D03*
X145535009Y-216275019D03*
X147232065Y-215572075D03*
X147935009Y-213875019D03*
D11*
X145535009Y-213875019D03*
G04 #@! TD*
G04 #@! TO.N,Board_18-/ADC_I_u*
G04 #@! TO.C,J6*
G04 #@! TA.AperFunction,ComponentPad*
G36*
G01*
X195710008Y-208195019D02*
X196960010Y-208195019D01*
G75*
G02*
X197210009Y-208445018I0J-249999D01*
G01*
X197210009Y-209145020D01*
G75*
G02*
X196960010Y-209395019I-249999J0D01*
G01*
X195710008Y-209395019D01*
G75*
G02*
X195460009Y-209145020I0J249999D01*
G01*
X195460009Y-208445018D01*
G75*
G02*
X195710008Y-208195019I249999J0D01*
G01*
G37*
G04 #@! TD.AperFunction*
D12*
G04 #@! TO.N,Board_18-/ADC_I_v*
X196335009Y-210795019D03*
G04 #@! TO.N,Board_18-/ADC_I_w*
X196335009Y-212795019D03*
G04 #@! TD*
G04 #@! TO.N,Board_18-Net-(C17-Pad1)*
G04 #@! TO.C,J5*
G04 #@! TA.AperFunction,ComponentPad*
G36*
G01*
X195710008Y-232325019D02*
X196960010Y-232325019D01*
G75*
G02*
X197210009Y-232575018I0J-249999D01*
G01*
X197210009Y-233275020D01*
G75*
G02*
X196960010Y-233525019I-249999J0D01*
G01*
X195710008Y-233525019D01*
G75*
G02*
X195460009Y-233275020I0J249999D01*
G01*
X195460009Y-232575018D01*
G75*
G02*
X195710008Y-232325019I249999J0D01*
G01*
G37*
G04 #@! TD.AperFunction*
G04 #@! TO.N,Board_18-GND*
X196335009Y-234925019D03*
G04 #@! TD*
G04 #@! TO.N,Board_18-/Connectors/+VCC_IO*
G04 #@! TO.C,J2*
G04 #@! TA.AperFunction,ComponentPad*
G36*
G01*
X195710008Y-200575019D02*
X196960010Y-200575019D01*
G75*
G02*
X197210009Y-200825018I0J-249999D01*
G01*
X197210009Y-201525020D01*
G75*
G02*
X196960010Y-201775019I-249999J0D01*
G01*
X195710008Y-201775019D01*
G75*
G02*
X195460009Y-201525020I0J249999D01*
G01*
X195460009Y-200825018D01*
G75*
G02*
X195710008Y-200575019I249999J0D01*
G01*
G37*
G04 #@! TD.AperFunction*
G04 #@! TO.N,Board_18-GND*
X196335009Y-203175019D03*
G04 #@! TD*
D13*
G04 #@! TO.N,Board_18-/+VM*
G04 #@! TO.C,C15*
X173475009Y-204985019D03*
G04 #@! TO.N,Board_18-GND*
X173475009Y-199985019D03*
G04 #@! TD*
G04 #@! TO.N,Board_18-/+VM*
G04 #@! TO.C,C16*
X162045009Y-204985019D03*
G04 #@! TO.N,Board_18-GND*
X162045009Y-199985019D03*
G04 #@! TD*
G04 #@! TO.N,Board_18-/~CS_DRIVER*
G04 #@! TO.C,J1*
G04 #@! TA.AperFunction,ComponentPad*
G36*
G01*
X143665009Y-205610020D02*
X143665009Y-204360018D01*
G75*
G02*
X143915008Y-204110019I249999J0D01*
G01*
X144615010Y-204110019D01*
G75*
G02*
X144865009Y-204360018I0J-249999D01*
G01*
X144865009Y-205610020D01*
G75*
G02*
X144615010Y-205860019I-249999J0D01*
G01*
X143915008Y-205860019D01*
G75*
G02*
X143665009Y-205610020I0J249999D01*
G01*
G37*
G04 #@! TD.AperFunction*
D14*
G04 #@! TO.N,Board_18-/SPI1_SCK*
X146265009Y-204985019D03*
G04 #@! TO.N,Board_18-/SPI1_MOSI*
X148265009Y-204985019D03*
G04 #@! TO.N,Board_18-/SPI1_MISO*
X150265009Y-204985019D03*
G04 #@! TO.N,Board_18-/DRV_EN*
X152265009Y-204985019D03*
G04 #@! TO.N,Board_18-/Connectors/FAULT*
X154265009Y-204985019D03*
G04 #@! TD*
G04 #@! TO.N,Board_18-/WL*
G04 #@! TO.C,J3*
G04 #@! TA.AperFunction,ComponentPad*
G36*
G01*
X143665009Y-200530020D02*
X143665009Y-199280018D01*
G75*
G02*
X143915008Y-199030019I249999J0D01*
G01*
X144615010Y-199030019D01*
G75*
G02*
X144865009Y-199280018I0J-249999D01*
G01*
X144865009Y-200530020D01*
G75*
G02*
X144615010Y-200780019I-249999J0D01*
G01*
X143915008Y-200780019D01*
G75*
G02*
X143665009Y-200530020I0J249999D01*
G01*
G37*
G04 #@! TD.AperFunction*
G04 #@! TO.N,Board_18-/WH*
X146265009Y-199905019D03*
G04 #@! TO.N,Board_18-/VL*
X148265009Y-199905019D03*
G04 #@! TO.N,Board_18-/VH*
X150265009Y-199905019D03*
G04 #@! TO.N,Board_18-/UL*
X152265009Y-199905019D03*
G04 #@! TO.N,Board_18-/UH*
X154265009Y-199905019D03*
G04 #@! TD*
D15*
G04 #@! TO.N,Board_18-/+VM*
G04 #@! TO.C,U2*
X182365009Y-201175019D03*
D16*
G04 #@! TO.N,Board_18-GND*
X187445009Y-201175019D03*
G04 #@! TD*
D15*
G04 #@! TO.N,Board_18-/U*
G04 #@! TO.C,U3*
X196335009Y-217685019D03*
G04 #@! TO.N,Board_18-/V*
X196335009Y-222765019D03*
D16*
G04 #@! TO.N,Board_18-/W*
X196335009Y-227845019D03*
G04 #@! TD*
D11*
G04 #@! TO.N,Board_18-GND*
G04 #@! TO.C,H201*
X145535009Y-232925019D03*
D10*
X147935009Y-232925019D03*
X147232065Y-234622075D03*
X145535009Y-235325019D03*
X143837953Y-234622075D03*
X143135009Y-232925019D03*
X143837953Y-231227963D03*
X145535009Y-230525019D03*
X147232065Y-231227963D03*
G04 #@! TD*
G04 #@! TO.N,Board_17-GND*
G04 #@! TO.C,H202*
X87282060Y-212177963D03*
X85585004Y-211475019D03*
X83887948Y-212177963D03*
X83185004Y-213875019D03*
X83887948Y-215572075D03*
X85585004Y-216275019D03*
X87282060Y-215572075D03*
X87985004Y-213875019D03*
D11*
X85585004Y-213875019D03*
G04 #@! TD*
G04 #@! TO.N,Board_17-/ADC_I_u*
G04 #@! TO.C,J6*
G04 #@! TA.AperFunction,ComponentPad*
G36*
G01*
X135760003Y-208195019D02*
X137010005Y-208195019D01*
G75*
G02*
X137260004Y-208445018I0J-249999D01*
G01*
X137260004Y-209145020D01*
G75*
G02*
X137010005Y-209395019I-249999J0D01*
G01*
X135760003Y-209395019D01*
G75*
G02*
X135510004Y-209145020I0J249999D01*
G01*
X135510004Y-208445018D01*
G75*
G02*
X135760003Y-208195019I249999J0D01*
G01*
G37*
G04 #@! TD.AperFunction*
D12*
G04 #@! TO.N,Board_17-/ADC_I_v*
X136385004Y-210795019D03*
G04 #@! TO.N,Board_17-/ADC_I_w*
X136385004Y-212795019D03*
G04 #@! TD*
G04 #@! TO.N,Board_17-Net-(C17-Pad1)*
G04 #@! TO.C,J5*
G04 #@! TA.AperFunction,ComponentPad*
G36*
G01*
X135760003Y-232325019D02*
X137010005Y-232325019D01*
G75*
G02*
X137260004Y-232575018I0J-249999D01*
G01*
X137260004Y-233275020D01*
G75*
G02*
X137010005Y-233525019I-249999J0D01*
G01*
X135760003Y-233525019D01*
G75*
G02*
X135510004Y-233275020I0J249999D01*
G01*
X135510004Y-232575018D01*
G75*
G02*
X135760003Y-232325019I249999J0D01*
G01*
G37*
G04 #@! TD.AperFunction*
G04 #@! TO.N,Board_17-GND*
X136385004Y-234925019D03*
G04 #@! TD*
G04 #@! TO.N,Board_17-/Connectors/+VCC_IO*
G04 #@! TO.C,J2*
G04 #@! TA.AperFunction,ComponentPad*
G36*
G01*
X135760003Y-200575019D02*
X137010005Y-200575019D01*
G75*
G02*
X137260004Y-200825018I0J-249999D01*
G01*
X137260004Y-201525020D01*
G75*
G02*
X137010005Y-201775019I-249999J0D01*
G01*
X135760003Y-201775019D01*
G75*
G02*
X135510004Y-201525020I0J249999D01*
G01*
X135510004Y-200825018D01*
G75*
G02*
X135760003Y-200575019I249999J0D01*
G01*
G37*
G04 #@! TD.AperFunction*
G04 #@! TO.N,Board_17-GND*
X136385004Y-203175019D03*
G04 #@! TD*
D13*
G04 #@! TO.N,Board_17-/+VM*
G04 #@! TO.C,C15*
X113525004Y-204985019D03*
G04 #@! TO.N,Board_17-GND*
X113525004Y-199985019D03*
G04 #@! TD*
G04 #@! TO.N,Board_17-/+VM*
G04 #@! TO.C,C16*
X102095004Y-204985019D03*
G04 #@! TO.N,Board_17-GND*
X102095004Y-199985019D03*
G04 #@! TD*
G04 #@! TO.N,Board_17-/~CS_DRIVER*
G04 #@! TO.C,J1*
G04 #@! TA.AperFunction,ComponentPad*
G36*
G01*
X83715004Y-205610020D02*
X83715004Y-204360018D01*
G75*
G02*
X83965003Y-204110019I249999J0D01*
G01*
X84665005Y-204110019D01*
G75*
G02*
X84915004Y-204360018I0J-249999D01*
G01*
X84915004Y-205610020D01*
G75*
G02*
X84665005Y-205860019I-249999J0D01*
G01*
X83965003Y-205860019D01*
G75*
G02*
X83715004Y-205610020I0J249999D01*
G01*
G37*
G04 #@! TD.AperFunction*
D14*
G04 #@! TO.N,Board_17-/SPI1_SCK*
X86315004Y-204985019D03*
G04 #@! TO.N,Board_17-/SPI1_MOSI*
X88315004Y-204985019D03*
G04 #@! TO.N,Board_17-/SPI1_MISO*
X90315004Y-204985019D03*
G04 #@! TO.N,Board_17-/DRV_EN*
X92315004Y-204985019D03*
G04 #@! TO.N,Board_17-/Connectors/FAULT*
X94315004Y-204985019D03*
G04 #@! TD*
G04 #@! TO.N,Board_17-/WL*
G04 #@! TO.C,J3*
G04 #@! TA.AperFunction,ComponentPad*
G36*
G01*
X83715004Y-200530020D02*
X83715004Y-199280018D01*
G75*
G02*
X83965003Y-199030019I249999J0D01*
G01*
X84665005Y-199030019D01*
G75*
G02*
X84915004Y-199280018I0J-249999D01*
G01*
X84915004Y-200530020D01*
G75*
G02*
X84665005Y-200780019I-249999J0D01*
G01*
X83965003Y-200780019D01*
G75*
G02*
X83715004Y-200530020I0J249999D01*
G01*
G37*
G04 #@! TD.AperFunction*
G04 #@! TO.N,Board_17-/WH*
X86315004Y-199905019D03*
G04 #@! TO.N,Board_17-/VL*
X88315004Y-199905019D03*
G04 #@! TO.N,Board_17-/VH*
X90315004Y-199905019D03*
G04 #@! TO.N,Board_17-/UL*
X92315004Y-199905019D03*
G04 #@! TO.N,Board_17-/UH*
X94315004Y-199905019D03*
G04 #@! TD*
D15*
G04 #@! TO.N,Board_17-/+VM*
G04 #@! TO.C,U2*
X122415004Y-201175019D03*
D16*
G04 #@! TO.N,Board_17-GND*
X127495004Y-201175019D03*
G04 #@! TD*
D15*
G04 #@! TO.N,Board_17-/U*
G04 #@! TO.C,U3*
X136385004Y-217685019D03*
G04 #@! TO.N,Board_17-/V*
X136385004Y-222765019D03*
D16*
G04 #@! TO.N,Board_17-/W*
X136385004Y-227845019D03*
G04 #@! TD*
D11*
G04 #@! TO.N,Board_17-GND*
G04 #@! TO.C,H201*
X85585004Y-232925019D03*
D10*
X87985004Y-232925019D03*
X87282060Y-234622075D03*
X85585004Y-235325019D03*
X83887948Y-234622075D03*
X83185004Y-232925019D03*
X83887948Y-231227963D03*
X85585004Y-230525019D03*
X87282060Y-231227963D03*
G04 #@! TD*
G04 #@! TO.N,Board_16-GND*
G04 #@! TO.C,H202*
X27332055Y-212177963D03*
X25634999Y-211475019D03*
X23937943Y-212177963D03*
X23234999Y-213875019D03*
X23937943Y-215572075D03*
X25634999Y-216275019D03*
X27332055Y-215572075D03*
X28034999Y-213875019D03*
D11*
X25634999Y-213875019D03*
G04 #@! TD*
G04 #@! TO.N,Board_16-/ADC_I_u*
G04 #@! TO.C,J6*
G04 #@! TA.AperFunction,ComponentPad*
G36*
G01*
X75809998Y-208195019D02*
X77060000Y-208195019D01*
G75*
G02*
X77309999Y-208445018I0J-249999D01*
G01*
X77309999Y-209145020D01*
G75*
G02*
X77060000Y-209395019I-249999J0D01*
G01*
X75809998Y-209395019D01*
G75*
G02*
X75559999Y-209145020I0J249999D01*
G01*
X75559999Y-208445018D01*
G75*
G02*
X75809998Y-208195019I249999J0D01*
G01*
G37*
G04 #@! TD.AperFunction*
D12*
G04 #@! TO.N,Board_16-/ADC_I_v*
X76434999Y-210795019D03*
G04 #@! TO.N,Board_16-/ADC_I_w*
X76434999Y-212795019D03*
G04 #@! TD*
G04 #@! TO.N,Board_16-Net-(C17-Pad1)*
G04 #@! TO.C,J5*
G04 #@! TA.AperFunction,ComponentPad*
G36*
G01*
X75809998Y-232325019D02*
X77060000Y-232325019D01*
G75*
G02*
X77309999Y-232575018I0J-249999D01*
G01*
X77309999Y-233275020D01*
G75*
G02*
X77060000Y-233525019I-249999J0D01*
G01*
X75809998Y-233525019D01*
G75*
G02*
X75559999Y-233275020I0J249999D01*
G01*
X75559999Y-232575018D01*
G75*
G02*
X75809998Y-232325019I249999J0D01*
G01*
G37*
G04 #@! TD.AperFunction*
G04 #@! TO.N,Board_16-GND*
X76434999Y-234925019D03*
G04 #@! TD*
G04 #@! TO.N,Board_16-/Connectors/+VCC_IO*
G04 #@! TO.C,J2*
G04 #@! TA.AperFunction,ComponentPad*
G36*
G01*
X75809998Y-200575019D02*
X77060000Y-200575019D01*
G75*
G02*
X77309999Y-200825018I0J-249999D01*
G01*
X77309999Y-201525020D01*
G75*
G02*
X77060000Y-201775019I-249999J0D01*
G01*
X75809998Y-201775019D01*
G75*
G02*
X75559999Y-201525020I0J249999D01*
G01*
X75559999Y-200825018D01*
G75*
G02*
X75809998Y-200575019I249999J0D01*
G01*
G37*
G04 #@! TD.AperFunction*
G04 #@! TO.N,Board_16-GND*
X76434999Y-203175019D03*
G04 #@! TD*
D13*
G04 #@! TO.N,Board_16-/+VM*
G04 #@! TO.C,C15*
X53574999Y-204985019D03*
G04 #@! TO.N,Board_16-GND*
X53574999Y-199985019D03*
G04 #@! TD*
G04 #@! TO.N,Board_16-/+VM*
G04 #@! TO.C,C16*
X42144999Y-204985019D03*
G04 #@! TO.N,Board_16-GND*
X42144999Y-199985019D03*
G04 #@! TD*
G04 #@! TO.N,Board_16-/~CS_DRIVER*
G04 #@! TO.C,J1*
G04 #@! TA.AperFunction,ComponentPad*
G36*
G01*
X23764999Y-205610020D02*
X23764999Y-204360018D01*
G75*
G02*
X24014998Y-204110019I249999J0D01*
G01*
X24715000Y-204110019D01*
G75*
G02*
X24964999Y-204360018I0J-249999D01*
G01*
X24964999Y-205610020D01*
G75*
G02*
X24715000Y-205860019I-249999J0D01*
G01*
X24014998Y-205860019D01*
G75*
G02*
X23764999Y-205610020I0J249999D01*
G01*
G37*
G04 #@! TD.AperFunction*
D14*
G04 #@! TO.N,Board_16-/SPI1_SCK*
X26364999Y-204985019D03*
G04 #@! TO.N,Board_16-/SPI1_MOSI*
X28364999Y-204985019D03*
G04 #@! TO.N,Board_16-/SPI1_MISO*
X30364999Y-204985019D03*
G04 #@! TO.N,Board_16-/DRV_EN*
X32364999Y-204985019D03*
G04 #@! TO.N,Board_16-/Connectors/FAULT*
X34364999Y-204985019D03*
G04 #@! TD*
G04 #@! TO.N,Board_16-/WL*
G04 #@! TO.C,J3*
G04 #@! TA.AperFunction,ComponentPad*
G36*
G01*
X23764999Y-200530020D02*
X23764999Y-199280018D01*
G75*
G02*
X24014998Y-199030019I249999J0D01*
G01*
X24715000Y-199030019D01*
G75*
G02*
X24964999Y-199280018I0J-249999D01*
G01*
X24964999Y-200530020D01*
G75*
G02*
X24715000Y-200780019I-249999J0D01*
G01*
X24014998Y-200780019D01*
G75*
G02*
X23764999Y-200530020I0J249999D01*
G01*
G37*
G04 #@! TD.AperFunction*
G04 #@! TO.N,Board_16-/WH*
X26364999Y-199905019D03*
G04 #@! TO.N,Board_16-/VL*
X28364999Y-199905019D03*
G04 #@! TO.N,Board_16-/VH*
X30364999Y-199905019D03*
G04 #@! TO.N,Board_16-/UL*
X32364999Y-199905019D03*
G04 #@! TO.N,Board_16-/UH*
X34364999Y-199905019D03*
G04 #@! TD*
D15*
G04 #@! TO.N,Board_16-/+VM*
G04 #@! TO.C,U2*
X62464999Y-201175019D03*
D16*
G04 #@! TO.N,Board_16-GND*
X67544999Y-201175019D03*
G04 #@! TD*
D15*
G04 #@! TO.N,Board_16-/U*
G04 #@! TO.C,U3*
X76434999Y-217685019D03*
G04 #@! TO.N,Board_16-/V*
X76434999Y-222765019D03*
D16*
G04 #@! TO.N,Board_16-/W*
X76434999Y-227845019D03*
G04 #@! TD*
D11*
G04 #@! TO.N,Board_16-GND*
G04 #@! TO.C,H201*
X25634999Y-232925019D03*
D10*
X28034999Y-232925019D03*
X27332055Y-234622075D03*
X25634999Y-235325019D03*
X23937943Y-234622075D03*
X23234999Y-232925019D03*
X23937943Y-231227963D03*
X25634999Y-230525019D03*
X27332055Y-231227963D03*
G04 #@! TD*
G04 #@! TO.N,Board_15-GND*
G04 #@! TO.C,H202*
X207182070Y-170187958D03*
X205485014Y-169485014D03*
X203787958Y-170187958D03*
X203085014Y-171885014D03*
X203787958Y-173582070D03*
X205485014Y-174285014D03*
X207182070Y-173582070D03*
X207885014Y-171885014D03*
D11*
X205485014Y-171885014D03*
G04 #@! TD*
G04 #@! TO.N,Board_15-/ADC_I_u*
G04 #@! TO.C,J6*
G04 #@! TA.AperFunction,ComponentPad*
G36*
G01*
X255660013Y-166205014D02*
X256910015Y-166205014D01*
G75*
G02*
X257160014Y-166455013I0J-249999D01*
G01*
X257160014Y-167155015D01*
G75*
G02*
X256910015Y-167405014I-249999J0D01*
G01*
X255660013Y-167405014D01*
G75*
G02*
X255410014Y-167155015I0J249999D01*
G01*
X255410014Y-166455013D01*
G75*
G02*
X255660013Y-166205014I249999J0D01*
G01*
G37*
G04 #@! TD.AperFunction*
D12*
G04 #@! TO.N,Board_15-/ADC_I_v*
X256285014Y-168805014D03*
G04 #@! TO.N,Board_15-/ADC_I_w*
X256285014Y-170805014D03*
G04 #@! TD*
G04 #@! TO.N,Board_15-Net-(C17-Pad1)*
G04 #@! TO.C,J5*
G04 #@! TA.AperFunction,ComponentPad*
G36*
G01*
X255660013Y-190335014D02*
X256910015Y-190335014D01*
G75*
G02*
X257160014Y-190585013I0J-249999D01*
G01*
X257160014Y-191285015D01*
G75*
G02*
X256910015Y-191535014I-249999J0D01*
G01*
X255660013Y-191535014D01*
G75*
G02*
X255410014Y-191285015I0J249999D01*
G01*
X255410014Y-190585013D01*
G75*
G02*
X255660013Y-190335014I249999J0D01*
G01*
G37*
G04 #@! TD.AperFunction*
G04 #@! TO.N,Board_15-GND*
X256285014Y-192935014D03*
G04 #@! TD*
G04 #@! TO.N,Board_15-/Connectors/+VCC_IO*
G04 #@! TO.C,J2*
G04 #@! TA.AperFunction,ComponentPad*
G36*
G01*
X255660013Y-158585014D02*
X256910015Y-158585014D01*
G75*
G02*
X257160014Y-158835013I0J-249999D01*
G01*
X257160014Y-159535015D01*
G75*
G02*
X256910015Y-159785014I-249999J0D01*
G01*
X255660013Y-159785014D01*
G75*
G02*
X255410014Y-159535015I0J249999D01*
G01*
X255410014Y-158835013D01*
G75*
G02*
X255660013Y-158585014I249999J0D01*
G01*
G37*
G04 #@! TD.AperFunction*
G04 #@! TO.N,Board_15-GND*
X256285014Y-161185014D03*
G04 #@! TD*
D13*
G04 #@! TO.N,Board_15-/+VM*
G04 #@! TO.C,C15*
X233425014Y-162995014D03*
G04 #@! TO.N,Board_15-GND*
X233425014Y-157995014D03*
G04 #@! TD*
G04 #@! TO.N,Board_15-/+VM*
G04 #@! TO.C,C16*
X221995014Y-162995014D03*
G04 #@! TO.N,Board_15-GND*
X221995014Y-157995014D03*
G04 #@! TD*
G04 #@! TO.N,Board_15-/~CS_DRIVER*
G04 #@! TO.C,J1*
G04 #@! TA.AperFunction,ComponentPad*
G36*
G01*
X203615014Y-163620015D02*
X203615014Y-162370013D01*
G75*
G02*
X203865013Y-162120014I249999J0D01*
G01*
X204565015Y-162120014D01*
G75*
G02*
X204815014Y-162370013I0J-249999D01*
G01*
X204815014Y-163620015D01*
G75*
G02*
X204565015Y-163870014I-249999J0D01*
G01*
X203865013Y-163870014D01*
G75*
G02*
X203615014Y-163620015I0J249999D01*
G01*
G37*
G04 #@! TD.AperFunction*
D14*
G04 #@! TO.N,Board_15-/SPI1_SCK*
X206215014Y-162995014D03*
G04 #@! TO.N,Board_15-/SPI1_MOSI*
X208215014Y-162995014D03*
G04 #@! TO.N,Board_15-/SPI1_MISO*
X210215014Y-162995014D03*
G04 #@! TO.N,Board_15-/DRV_EN*
X212215014Y-162995014D03*
G04 #@! TO.N,Board_15-/Connectors/FAULT*
X214215014Y-162995014D03*
G04 #@! TD*
G04 #@! TO.N,Board_15-/WL*
G04 #@! TO.C,J3*
G04 #@! TA.AperFunction,ComponentPad*
G36*
G01*
X203615014Y-158540015D02*
X203615014Y-157290013D01*
G75*
G02*
X203865013Y-157040014I249999J0D01*
G01*
X204565015Y-157040014D01*
G75*
G02*
X204815014Y-157290013I0J-249999D01*
G01*
X204815014Y-158540015D01*
G75*
G02*
X204565015Y-158790014I-249999J0D01*
G01*
X203865013Y-158790014D01*
G75*
G02*
X203615014Y-158540015I0J249999D01*
G01*
G37*
G04 #@! TD.AperFunction*
G04 #@! TO.N,Board_15-/WH*
X206215014Y-157915014D03*
G04 #@! TO.N,Board_15-/VL*
X208215014Y-157915014D03*
G04 #@! TO.N,Board_15-/VH*
X210215014Y-157915014D03*
G04 #@! TO.N,Board_15-/UL*
X212215014Y-157915014D03*
G04 #@! TO.N,Board_15-/UH*
X214215014Y-157915014D03*
G04 #@! TD*
D15*
G04 #@! TO.N,Board_15-/+VM*
G04 #@! TO.C,U2*
X242315014Y-159185014D03*
D16*
G04 #@! TO.N,Board_15-GND*
X247395014Y-159185014D03*
G04 #@! TD*
D15*
G04 #@! TO.N,Board_15-/U*
G04 #@! TO.C,U3*
X256285014Y-175695014D03*
G04 #@! TO.N,Board_15-/V*
X256285014Y-180775014D03*
D16*
G04 #@! TO.N,Board_15-/W*
X256285014Y-185855014D03*
G04 #@! TD*
D11*
G04 #@! TO.N,Board_15-GND*
G04 #@! TO.C,H201*
X205485014Y-190935014D03*
D10*
X207885014Y-190935014D03*
X207182070Y-192632070D03*
X205485014Y-193335014D03*
X203787958Y-192632070D03*
X203085014Y-190935014D03*
X203787958Y-189237958D03*
X205485014Y-188535014D03*
X207182070Y-189237958D03*
G04 #@! TD*
G04 #@! TO.N,Board_14-GND*
G04 #@! TO.C,H202*
X147232065Y-170187958D03*
X145535009Y-169485014D03*
X143837953Y-170187958D03*
X143135009Y-171885014D03*
X143837953Y-173582070D03*
X145535009Y-174285014D03*
X147232065Y-173582070D03*
X147935009Y-171885014D03*
D11*
X145535009Y-171885014D03*
G04 #@! TD*
G04 #@! TO.N,Board_14-/ADC_I_u*
G04 #@! TO.C,J6*
G04 #@! TA.AperFunction,ComponentPad*
G36*
G01*
X195710008Y-166205014D02*
X196960010Y-166205014D01*
G75*
G02*
X197210009Y-166455013I0J-249999D01*
G01*
X197210009Y-167155015D01*
G75*
G02*
X196960010Y-167405014I-249999J0D01*
G01*
X195710008Y-167405014D01*
G75*
G02*
X195460009Y-167155015I0J249999D01*
G01*
X195460009Y-166455013D01*
G75*
G02*
X195710008Y-166205014I249999J0D01*
G01*
G37*
G04 #@! TD.AperFunction*
D12*
G04 #@! TO.N,Board_14-/ADC_I_v*
X196335009Y-168805014D03*
G04 #@! TO.N,Board_14-/ADC_I_w*
X196335009Y-170805014D03*
G04 #@! TD*
G04 #@! TO.N,Board_14-Net-(C17-Pad1)*
G04 #@! TO.C,J5*
G04 #@! TA.AperFunction,ComponentPad*
G36*
G01*
X195710008Y-190335014D02*
X196960010Y-190335014D01*
G75*
G02*
X197210009Y-190585013I0J-249999D01*
G01*
X197210009Y-191285015D01*
G75*
G02*
X196960010Y-191535014I-249999J0D01*
G01*
X195710008Y-191535014D01*
G75*
G02*
X195460009Y-191285015I0J249999D01*
G01*
X195460009Y-190585013D01*
G75*
G02*
X195710008Y-190335014I249999J0D01*
G01*
G37*
G04 #@! TD.AperFunction*
G04 #@! TO.N,Board_14-GND*
X196335009Y-192935014D03*
G04 #@! TD*
G04 #@! TO.N,Board_14-/Connectors/+VCC_IO*
G04 #@! TO.C,J2*
G04 #@! TA.AperFunction,ComponentPad*
G36*
G01*
X195710008Y-158585014D02*
X196960010Y-158585014D01*
G75*
G02*
X197210009Y-158835013I0J-249999D01*
G01*
X197210009Y-159535015D01*
G75*
G02*
X196960010Y-159785014I-249999J0D01*
G01*
X195710008Y-159785014D01*
G75*
G02*
X195460009Y-159535015I0J249999D01*
G01*
X195460009Y-158835013D01*
G75*
G02*
X195710008Y-158585014I249999J0D01*
G01*
G37*
G04 #@! TD.AperFunction*
G04 #@! TO.N,Board_14-GND*
X196335009Y-161185014D03*
G04 #@! TD*
D13*
G04 #@! TO.N,Board_14-/+VM*
G04 #@! TO.C,C15*
X173475009Y-162995014D03*
G04 #@! TO.N,Board_14-GND*
X173475009Y-157995014D03*
G04 #@! TD*
G04 #@! TO.N,Board_14-/+VM*
G04 #@! TO.C,C16*
X162045009Y-162995014D03*
G04 #@! TO.N,Board_14-GND*
X162045009Y-157995014D03*
G04 #@! TD*
G04 #@! TO.N,Board_14-/~CS_DRIVER*
G04 #@! TO.C,J1*
G04 #@! TA.AperFunction,ComponentPad*
G36*
G01*
X143665009Y-163620015D02*
X143665009Y-162370013D01*
G75*
G02*
X143915008Y-162120014I249999J0D01*
G01*
X144615010Y-162120014D01*
G75*
G02*
X144865009Y-162370013I0J-249999D01*
G01*
X144865009Y-163620015D01*
G75*
G02*
X144615010Y-163870014I-249999J0D01*
G01*
X143915008Y-163870014D01*
G75*
G02*
X143665009Y-163620015I0J249999D01*
G01*
G37*
G04 #@! TD.AperFunction*
D14*
G04 #@! TO.N,Board_14-/SPI1_SCK*
X146265009Y-162995014D03*
G04 #@! TO.N,Board_14-/SPI1_MOSI*
X148265009Y-162995014D03*
G04 #@! TO.N,Board_14-/SPI1_MISO*
X150265009Y-162995014D03*
G04 #@! TO.N,Board_14-/DRV_EN*
X152265009Y-162995014D03*
G04 #@! TO.N,Board_14-/Connectors/FAULT*
X154265009Y-162995014D03*
G04 #@! TD*
G04 #@! TO.N,Board_14-/WL*
G04 #@! TO.C,J3*
G04 #@! TA.AperFunction,ComponentPad*
G36*
G01*
X143665009Y-158540015D02*
X143665009Y-157290013D01*
G75*
G02*
X143915008Y-157040014I249999J0D01*
G01*
X144615010Y-157040014D01*
G75*
G02*
X144865009Y-157290013I0J-249999D01*
G01*
X144865009Y-158540015D01*
G75*
G02*
X144615010Y-158790014I-249999J0D01*
G01*
X143915008Y-158790014D01*
G75*
G02*
X143665009Y-158540015I0J249999D01*
G01*
G37*
G04 #@! TD.AperFunction*
G04 #@! TO.N,Board_14-/WH*
X146265009Y-157915014D03*
G04 #@! TO.N,Board_14-/VL*
X148265009Y-157915014D03*
G04 #@! TO.N,Board_14-/VH*
X150265009Y-157915014D03*
G04 #@! TO.N,Board_14-/UL*
X152265009Y-157915014D03*
G04 #@! TO.N,Board_14-/UH*
X154265009Y-157915014D03*
G04 #@! TD*
D15*
G04 #@! TO.N,Board_14-/+VM*
G04 #@! TO.C,U2*
X182365009Y-159185014D03*
D16*
G04 #@! TO.N,Board_14-GND*
X187445009Y-159185014D03*
G04 #@! TD*
D15*
G04 #@! TO.N,Board_14-/U*
G04 #@! TO.C,U3*
X196335009Y-175695014D03*
G04 #@! TO.N,Board_14-/V*
X196335009Y-180775014D03*
D16*
G04 #@! TO.N,Board_14-/W*
X196335009Y-185855014D03*
G04 #@! TD*
D11*
G04 #@! TO.N,Board_14-GND*
G04 #@! TO.C,H201*
X145535009Y-190935014D03*
D10*
X147935009Y-190935014D03*
X147232065Y-192632070D03*
X145535009Y-193335014D03*
X143837953Y-192632070D03*
X143135009Y-190935014D03*
X143837953Y-189237958D03*
X145535009Y-188535014D03*
X147232065Y-189237958D03*
G04 #@! TD*
G04 #@! TO.N,Board_13-GND*
G04 #@! TO.C,H202*
X87282060Y-170187958D03*
X85585004Y-169485014D03*
X83887948Y-170187958D03*
X83185004Y-171885014D03*
X83887948Y-173582070D03*
X85585004Y-174285014D03*
X87282060Y-173582070D03*
X87985004Y-171885014D03*
D11*
X85585004Y-171885014D03*
G04 #@! TD*
G04 #@! TO.N,Board_13-/ADC_I_u*
G04 #@! TO.C,J6*
G04 #@! TA.AperFunction,ComponentPad*
G36*
G01*
X135760003Y-166205014D02*
X137010005Y-166205014D01*
G75*
G02*
X137260004Y-166455013I0J-249999D01*
G01*
X137260004Y-167155015D01*
G75*
G02*
X137010005Y-167405014I-249999J0D01*
G01*
X135760003Y-167405014D01*
G75*
G02*
X135510004Y-167155015I0J249999D01*
G01*
X135510004Y-166455013D01*
G75*
G02*
X135760003Y-166205014I249999J0D01*
G01*
G37*
G04 #@! TD.AperFunction*
D12*
G04 #@! TO.N,Board_13-/ADC_I_v*
X136385004Y-168805014D03*
G04 #@! TO.N,Board_13-/ADC_I_w*
X136385004Y-170805014D03*
G04 #@! TD*
G04 #@! TO.N,Board_13-Net-(C17-Pad1)*
G04 #@! TO.C,J5*
G04 #@! TA.AperFunction,ComponentPad*
G36*
G01*
X135760003Y-190335014D02*
X137010005Y-190335014D01*
G75*
G02*
X137260004Y-190585013I0J-249999D01*
G01*
X137260004Y-191285015D01*
G75*
G02*
X137010005Y-191535014I-249999J0D01*
G01*
X135760003Y-191535014D01*
G75*
G02*
X135510004Y-191285015I0J249999D01*
G01*
X135510004Y-190585013D01*
G75*
G02*
X135760003Y-190335014I249999J0D01*
G01*
G37*
G04 #@! TD.AperFunction*
G04 #@! TO.N,Board_13-GND*
X136385004Y-192935014D03*
G04 #@! TD*
G04 #@! TO.N,Board_13-/Connectors/+VCC_IO*
G04 #@! TO.C,J2*
G04 #@! TA.AperFunction,ComponentPad*
G36*
G01*
X135760003Y-158585014D02*
X137010005Y-158585014D01*
G75*
G02*
X137260004Y-158835013I0J-249999D01*
G01*
X137260004Y-159535015D01*
G75*
G02*
X137010005Y-159785014I-249999J0D01*
G01*
X135760003Y-159785014D01*
G75*
G02*
X135510004Y-159535015I0J249999D01*
G01*
X135510004Y-158835013D01*
G75*
G02*
X135760003Y-158585014I249999J0D01*
G01*
G37*
G04 #@! TD.AperFunction*
G04 #@! TO.N,Board_13-GND*
X136385004Y-161185014D03*
G04 #@! TD*
D13*
G04 #@! TO.N,Board_13-/+VM*
G04 #@! TO.C,C15*
X113525004Y-162995014D03*
G04 #@! TO.N,Board_13-GND*
X113525004Y-157995014D03*
G04 #@! TD*
G04 #@! TO.N,Board_13-/+VM*
G04 #@! TO.C,C16*
X102095004Y-162995014D03*
G04 #@! TO.N,Board_13-GND*
X102095004Y-157995014D03*
G04 #@! TD*
G04 #@! TO.N,Board_13-/~CS_DRIVER*
G04 #@! TO.C,J1*
G04 #@! TA.AperFunction,ComponentPad*
G36*
G01*
X83715004Y-163620015D02*
X83715004Y-162370013D01*
G75*
G02*
X83965003Y-162120014I249999J0D01*
G01*
X84665005Y-162120014D01*
G75*
G02*
X84915004Y-162370013I0J-249999D01*
G01*
X84915004Y-163620015D01*
G75*
G02*
X84665005Y-163870014I-249999J0D01*
G01*
X83965003Y-163870014D01*
G75*
G02*
X83715004Y-163620015I0J249999D01*
G01*
G37*
G04 #@! TD.AperFunction*
D14*
G04 #@! TO.N,Board_13-/SPI1_SCK*
X86315004Y-162995014D03*
G04 #@! TO.N,Board_13-/SPI1_MOSI*
X88315004Y-162995014D03*
G04 #@! TO.N,Board_13-/SPI1_MISO*
X90315004Y-162995014D03*
G04 #@! TO.N,Board_13-/DRV_EN*
X92315004Y-162995014D03*
G04 #@! TO.N,Board_13-/Connectors/FAULT*
X94315004Y-162995014D03*
G04 #@! TD*
G04 #@! TO.N,Board_13-/WL*
G04 #@! TO.C,J3*
G04 #@! TA.AperFunction,ComponentPad*
G36*
G01*
X83715004Y-158540015D02*
X83715004Y-157290013D01*
G75*
G02*
X83965003Y-157040014I249999J0D01*
G01*
X84665005Y-157040014D01*
G75*
G02*
X84915004Y-157290013I0J-249999D01*
G01*
X84915004Y-158540015D01*
G75*
G02*
X84665005Y-158790014I-249999J0D01*
G01*
X83965003Y-158790014D01*
G75*
G02*
X83715004Y-158540015I0J249999D01*
G01*
G37*
G04 #@! TD.AperFunction*
G04 #@! TO.N,Board_13-/WH*
X86315004Y-157915014D03*
G04 #@! TO.N,Board_13-/VL*
X88315004Y-157915014D03*
G04 #@! TO.N,Board_13-/VH*
X90315004Y-157915014D03*
G04 #@! TO.N,Board_13-/UL*
X92315004Y-157915014D03*
G04 #@! TO.N,Board_13-/UH*
X94315004Y-157915014D03*
G04 #@! TD*
D15*
G04 #@! TO.N,Board_13-/+VM*
G04 #@! TO.C,U2*
X122415004Y-159185014D03*
D16*
G04 #@! TO.N,Board_13-GND*
X127495004Y-159185014D03*
G04 #@! TD*
D15*
G04 #@! TO.N,Board_13-/U*
G04 #@! TO.C,U3*
X136385004Y-175695014D03*
G04 #@! TO.N,Board_13-/V*
X136385004Y-180775014D03*
D16*
G04 #@! TO.N,Board_13-/W*
X136385004Y-185855014D03*
G04 #@! TD*
D11*
G04 #@! TO.N,Board_13-GND*
G04 #@! TO.C,H201*
X85585004Y-190935014D03*
D10*
X87985004Y-190935014D03*
X87282060Y-192632070D03*
X85585004Y-193335014D03*
X83887948Y-192632070D03*
X83185004Y-190935014D03*
X83887948Y-189237958D03*
X85585004Y-188535014D03*
X87282060Y-189237958D03*
G04 #@! TD*
G04 #@! TO.N,Board_12-GND*
G04 #@! TO.C,H202*
X27332055Y-170187958D03*
X25634999Y-169485014D03*
X23937943Y-170187958D03*
X23234999Y-171885014D03*
X23937943Y-173582070D03*
X25634999Y-174285014D03*
X27332055Y-173582070D03*
X28034999Y-171885014D03*
D11*
X25634999Y-171885014D03*
G04 #@! TD*
G04 #@! TO.N,Board_12-/ADC_I_u*
G04 #@! TO.C,J6*
G04 #@! TA.AperFunction,ComponentPad*
G36*
G01*
X75809998Y-166205014D02*
X77060000Y-166205014D01*
G75*
G02*
X77309999Y-166455013I0J-249999D01*
G01*
X77309999Y-167155015D01*
G75*
G02*
X77060000Y-167405014I-249999J0D01*
G01*
X75809998Y-167405014D01*
G75*
G02*
X75559999Y-167155015I0J249999D01*
G01*
X75559999Y-166455013D01*
G75*
G02*
X75809998Y-166205014I249999J0D01*
G01*
G37*
G04 #@! TD.AperFunction*
D12*
G04 #@! TO.N,Board_12-/ADC_I_v*
X76434999Y-168805014D03*
G04 #@! TO.N,Board_12-/ADC_I_w*
X76434999Y-170805014D03*
G04 #@! TD*
G04 #@! TO.N,Board_12-Net-(C17-Pad1)*
G04 #@! TO.C,J5*
G04 #@! TA.AperFunction,ComponentPad*
G36*
G01*
X75809998Y-190335014D02*
X77060000Y-190335014D01*
G75*
G02*
X77309999Y-190585013I0J-249999D01*
G01*
X77309999Y-191285015D01*
G75*
G02*
X77060000Y-191535014I-249999J0D01*
G01*
X75809998Y-191535014D01*
G75*
G02*
X75559999Y-191285015I0J249999D01*
G01*
X75559999Y-190585013D01*
G75*
G02*
X75809998Y-190335014I249999J0D01*
G01*
G37*
G04 #@! TD.AperFunction*
G04 #@! TO.N,Board_12-GND*
X76434999Y-192935014D03*
G04 #@! TD*
G04 #@! TO.N,Board_12-/Connectors/+VCC_IO*
G04 #@! TO.C,J2*
G04 #@! TA.AperFunction,ComponentPad*
G36*
G01*
X75809998Y-158585014D02*
X77060000Y-158585014D01*
G75*
G02*
X77309999Y-158835013I0J-249999D01*
G01*
X77309999Y-159535015D01*
G75*
G02*
X77060000Y-159785014I-249999J0D01*
G01*
X75809998Y-159785014D01*
G75*
G02*
X75559999Y-159535015I0J249999D01*
G01*
X75559999Y-158835013D01*
G75*
G02*
X75809998Y-158585014I249999J0D01*
G01*
G37*
G04 #@! TD.AperFunction*
G04 #@! TO.N,Board_12-GND*
X76434999Y-161185014D03*
G04 #@! TD*
D13*
G04 #@! TO.N,Board_12-/+VM*
G04 #@! TO.C,C15*
X53574999Y-162995014D03*
G04 #@! TO.N,Board_12-GND*
X53574999Y-157995014D03*
G04 #@! TD*
G04 #@! TO.N,Board_12-/+VM*
G04 #@! TO.C,C16*
X42144999Y-162995014D03*
G04 #@! TO.N,Board_12-GND*
X42144999Y-157995014D03*
G04 #@! TD*
G04 #@! TO.N,Board_12-/~CS_DRIVER*
G04 #@! TO.C,J1*
G04 #@! TA.AperFunction,ComponentPad*
G36*
G01*
X23764999Y-163620015D02*
X23764999Y-162370013D01*
G75*
G02*
X24014998Y-162120014I249999J0D01*
G01*
X24715000Y-162120014D01*
G75*
G02*
X24964999Y-162370013I0J-249999D01*
G01*
X24964999Y-163620015D01*
G75*
G02*
X24715000Y-163870014I-249999J0D01*
G01*
X24014998Y-163870014D01*
G75*
G02*
X23764999Y-163620015I0J249999D01*
G01*
G37*
G04 #@! TD.AperFunction*
D14*
G04 #@! TO.N,Board_12-/SPI1_SCK*
X26364999Y-162995014D03*
G04 #@! TO.N,Board_12-/SPI1_MOSI*
X28364999Y-162995014D03*
G04 #@! TO.N,Board_12-/SPI1_MISO*
X30364999Y-162995014D03*
G04 #@! TO.N,Board_12-/DRV_EN*
X32364999Y-162995014D03*
G04 #@! TO.N,Board_12-/Connectors/FAULT*
X34364999Y-162995014D03*
G04 #@! TD*
G04 #@! TO.N,Board_12-/WL*
G04 #@! TO.C,J3*
G04 #@! TA.AperFunction,ComponentPad*
G36*
G01*
X23764999Y-158540015D02*
X23764999Y-157290013D01*
G75*
G02*
X24014998Y-157040014I249999J0D01*
G01*
X24715000Y-157040014D01*
G75*
G02*
X24964999Y-157290013I0J-249999D01*
G01*
X24964999Y-158540015D01*
G75*
G02*
X24715000Y-158790014I-249999J0D01*
G01*
X24014998Y-158790014D01*
G75*
G02*
X23764999Y-158540015I0J249999D01*
G01*
G37*
G04 #@! TD.AperFunction*
G04 #@! TO.N,Board_12-/WH*
X26364999Y-157915014D03*
G04 #@! TO.N,Board_12-/VL*
X28364999Y-157915014D03*
G04 #@! TO.N,Board_12-/VH*
X30364999Y-157915014D03*
G04 #@! TO.N,Board_12-/UL*
X32364999Y-157915014D03*
G04 #@! TO.N,Board_12-/UH*
X34364999Y-157915014D03*
G04 #@! TD*
D15*
G04 #@! TO.N,Board_12-/+VM*
G04 #@! TO.C,U2*
X62464999Y-159185014D03*
D16*
G04 #@! TO.N,Board_12-GND*
X67544999Y-159185014D03*
G04 #@! TD*
D15*
G04 #@! TO.N,Board_12-/U*
G04 #@! TO.C,U3*
X76434999Y-175695014D03*
G04 #@! TO.N,Board_12-/V*
X76434999Y-180775014D03*
D16*
G04 #@! TO.N,Board_12-/W*
X76434999Y-185855014D03*
G04 #@! TD*
D11*
G04 #@! TO.N,Board_12-GND*
G04 #@! TO.C,H201*
X25634999Y-190935014D03*
D10*
X28034999Y-190935014D03*
X27332055Y-192632070D03*
X25634999Y-193335014D03*
X23937943Y-192632070D03*
X23234999Y-190935014D03*
X23937943Y-189237958D03*
X25634999Y-188535014D03*
X27332055Y-189237958D03*
G04 #@! TD*
G04 #@! TO.N,Board_11-GND*
G04 #@! TO.C,H202*
X207182070Y-128197953D03*
X205485014Y-127495009D03*
X203787958Y-128197953D03*
X203085014Y-129895009D03*
X203787958Y-131592065D03*
X205485014Y-132295009D03*
X207182070Y-131592065D03*
X207885014Y-129895009D03*
D11*
X205485014Y-129895009D03*
G04 #@! TD*
G04 #@! TO.N,Board_11-/ADC_I_u*
G04 #@! TO.C,J6*
G04 #@! TA.AperFunction,ComponentPad*
G36*
G01*
X255660013Y-124215009D02*
X256910015Y-124215009D01*
G75*
G02*
X257160014Y-124465008I0J-249999D01*
G01*
X257160014Y-125165010D01*
G75*
G02*
X256910015Y-125415009I-249999J0D01*
G01*
X255660013Y-125415009D01*
G75*
G02*
X255410014Y-125165010I0J249999D01*
G01*
X255410014Y-124465008D01*
G75*
G02*
X255660013Y-124215009I249999J0D01*
G01*
G37*
G04 #@! TD.AperFunction*
D12*
G04 #@! TO.N,Board_11-/ADC_I_v*
X256285014Y-126815009D03*
G04 #@! TO.N,Board_11-/ADC_I_w*
X256285014Y-128815009D03*
G04 #@! TD*
G04 #@! TO.N,Board_11-Net-(C17-Pad1)*
G04 #@! TO.C,J5*
G04 #@! TA.AperFunction,ComponentPad*
G36*
G01*
X255660013Y-148345009D02*
X256910015Y-148345009D01*
G75*
G02*
X257160014Y-148595008I0J-249999D01*
G01*
X257160014Y-149295010D01*
G75*
G02*
X256910015Y-149545009I-249999J0D01*
G01*
X255660013Y-149545009D01*
G75*
G02*
X255410014Y-149295010I0J249999D01*
G01*
X255410014Y-148595008D01*
G75*
G02*
X255660013Y-148345009I249999J0D01*
G01*
G37*
G04 #@! TD.AperFunction*
G04 #@! TO.N,Board_11-GND*
X256285014Y-150945009D03*
G04 #@! TD*
G04 #@! TO.N,Board_11-/Connectors/+VCC_IO*
G04 #@! TO.C,J2*
G04 #@! TA.AperFunction,ComponentPad*
G36*
G01*
X255660013Y-116595009D02*
X256910015Y-116595009D01*
G75*
G02*
X257160014Y-116845008I0J-249999D01*
G01*
X257160014Y-117545010D01*
G75*
G02*
X256910015Y-117795009I-249999J0D01*
G01*
X255660013Y-117795009D01*
G75*
G02*
X255410014Y-117545010I0J249999D01*
G01*
X255410014Y-116845008D01*
G75*
G02*
X255660013Y-116595009I249999J0D01*
G01*
G37*
G04 #@! TD.AperFunction*
G04 #@! TO.N,Board_11-GND*
X256285014Y-119195009D03*
G04 #@! TD*
D13*
G04 #@! TO.N,Board_11-/+VM*
G04 #@! TO.C,C15*
X233425014Y-121005009D03*
G04 #@! TO.N,Board_11-GND*
X233425014Y-116005009D03*
G04 #@! TD*
G04 #@! TO.N,Board_11-/+VM*
G04 #@! TO.C,C16*
X221995014Y-121005009D03*
G04 #@! TO.N,Board_11-GND*
X221995014Y-116005009D03*
G04 #@! TD*
G04 #@! TO.N,Board_11-/~CS_DRIVER*
G04 #@! TO.C,J1*
G04 #@! TA.AperFunction,ComponentPad*
G36*
G01*
X203615014Y-121630010D02*
X203615014Y-120380008D01*
G75*
G02*
X203865013Y-120130009I249999J0D01*
G01*
X204565015Y-120130009D01*
G75*
G02*
X204815014Y-120380008I0J-249999D01*
G01*
X204815014Y-121630010D01*
G75*
G02*
X204565015Y-121880009I-249999J0D01*
G01*
X203865013Y-121880009D01*
G75*
G02*
X203615014Y-121630010I0J249999D01*
G01*
G37*
G04 #@! TD.AperFunction*
D14*
G04 #@! TO.N,Board_11-/SPI1_SCK*
X206215014Y-121005009D03*
G04 #@! TO.N,Board_11-/SPI1_MOSI*
X208215014Y-121005009D03*
G04 #@! TO.N,Board_11-/SPI1_MISO*
X210215014Y-121005009D03*
G04 #@! TO.N,Board_11-/DRV_EN*
X212215014Y-121005009D03*
G04 #@! TO.N,Board_11-/Connectors/FAULT*
X214215014Y-121005009D03*
G04 #@! TD*
G04 #@! TO.N,Board_11-/WL*
G04 #@! TO.C,J3*
G04 #@! TA.AperFunction,ComponentPad*
G36*
G01*
X203615014Y-116550010D02*
X203615014Y-115300008D01*
G75*
G02*
X203865013Y-115050009I249999J0D01*
G01*
X204565015Y-115050009D01*
G75*
G02*
X204815014Y-115300008I0J-249999D01*
G01*
X204815014Y-116550010D01*
G75*
G02*
X204565015Y-116800009I-249999J0D01*
G01*
X203865013Y-116800009D01*
G75*
G02*
X203615014Y-116550010I0J249999D01*
G01*
G37*
G04 #@! TD.AperFunction*
G04 #@! TO.N,Board_11-/WH*
X206215014Y-115925009D03*
G04 #@! TO.N,Board_11-/VL*
X208215014Y-115925009D03*
G04 #@! TO.N,Board_11-/VH*
X210215014Y-115925009D03*
G04 #@! TO.N,Board_11-/UL*
X212215014Y-115925009D03*
G04 #@! TO.N,Board_11-/UH*
X214215014Y-115925009D03*
G04 #@! TD*
D15*
G04 #@! TO.N,Board_11-/+VM*
G04 #@! TO.C,U2*
X242315014Y-117195009D03*
D16*
G04 #@! TO.N,Board_11-GND*
X247395014Y-117195009D03*
G04 #@! TD*
D15*
G04 #@! TO.N,Board_11-/U*
G04 #@! TO.C,U3*
X256285014Y-133705009D03*
G04 #@! TO.N,Board_11-/V*
X256285014Y-138785009D03*
D16*
G04 #@! TO.N,Board_11-/W*
X256285014Y-143865009D03*
G04 #@! TD*
D11*
G04 #@! TO.N,Board_11-GND*
G04 #@! TO.C,H201*
X205485014Y-148945009D03*
D10*
X207885014Y-148945009D03*
X207182070Y-150642065D03*
X205485014Y-151345009D03*
X203787958Y-150642065D03*
X203085014Y-148945009D03*
X203787958Y-147247953D03*
X205485014Y-146545009D03*
X207182070Y-147247953D03*
G04 #@! TD*
G04 #@! TO.N,Board_10-GND*
G04 #@! TO.C,H202*
X147232065Y-128197953D03*
X145535009Y-127495009D03*
X143837953Y-128197953D03*
X143135009Y-129895009D03*
X143837953Y-131592065D03*
X145535009Y-132295009D03*
X147232065Y-131592065D03*
X147935009Y-129895009D03*
D11*
X145535009Y-129895009D03*
G04 #@! TD*
G04 #@! TO.N,Board_10-/ADC_I_u*
G04 #@! TO.C,J6*
G04 #@! TA.AperFunction,ComponentPad*
G36*
G01*
X195710008Y-124215009D02*
X196960010Y-124215009D01*
G75*
G02*
X197210009Y-124465008I0J-249999D01*
G01*
X197210009Y-125165010D01*
G75*
G02*
X196960010Y-125415009I-249999J0D01*
G01*
X195710008Y-125415009D01*
G75*
G02*
X195460009Y-125165010I0J249999D01*
G01*
X195460009Y-124465008D01*
G75*
G02*
X195710008Y-124215009I249999J0D01*
G01*
G37*
G04 #@! TD.AperFunction*
D12*
G04 #@! TO.N,Board_10-/ADC_I_v*
X196335009Y-126815009D03*
G04 #@! TO.N,Board_10-/ADC_I_w*
X196335009Y-128815009D03*
G04 #@! TD*
G04 #@! TO.N,Board_10-Net-(C17-Pad1)*
G04 #@! TO.C,J5*
G04 #@! TA.AperFunction,ComponentPad*
G36*
G01*
X195710008Y-148345009D02*
X196960010Y-148345009D01*
G75*
G02*
X197210009Y-148595008I0J-249999D01*
G01*
X197210009Y-149295010D01*
G75*
G02*
X196960010Y-149545009I-249999J0D01*
G01*
X195710008Y-149545009D01*
G75*
G02*
X195460009Y-149295010I0J249999D01*
G01*
X195460009Y-148595008D01*
G75*
G02*
X195710008Y-148345009I249999J0D01*
G01*
G37*
G04 #@! TD.AperFunction*
G04 #@! TO.N,Board_10-GND*
X196335009Y-150945009D03*
G04 #@! TD*
G04 #@! TO.N,Board_10-/Connectors/+VCC_IO*
G04 #@! TO.C,J2*
G04 #@! TA.AperFunction,ComponentPad*
G36*
G01*
X195710008Y-116595009D02*
X196960010Y-116595009D01*
G75*
G02*
X197210009Y-116845008I0J-249999D01*
G01*
X197210009Y-117545010D01*
G75*
G02*
X196960010Y-117795009I-249999J0D01*
G01*
X195710008Y-117795009D01*
G75*
G02*
X195460009Y-117545010I0J249999D01*
G01*
X195460009Y-116845008D01*
G75*
G02*
X195710008Y-116595009I249999J0D01*
G01*
G37*
G04 #@! TD.AperFunction*
G04 #@! TO.N,Board_10-GND*
X196335009Y-119195009D03*
G04 #@! TD*
D13*
G04 #@! TO.N,Board_10-/+VM*
G04 #@! TO.C,C15*
X173475009Y-121005009D03*
G04 #@! TO.N,Board_10-GND*
X173475009Y-116005009D03*
G04 #@! TD*
G04 #@! TO.N,Board_10-/+VM*
G04 #@! TO.C,C16*
X162045009Y-121005009D03*
G04 #@! TO.N,Board_10-GND*
X162045009Y-116005009D03*
G04 #@! TD*
G04 #@! TO.N,Board_10-/~CS_DRIVER*
G04 #@! TO.C,J1*
G04 #@! TA.AperFunction,ComponentPad*
G36*
G01*
X143665009Y-121630010D02*
X143665009Y-120380008D01*
G75*
G02*
X143915008Y-120130009I249999J0D01*
G01*
X144615010Y-120130009D01*
G75*
G02*
X144865009Y-120380008I0J-249999D01*
G01*
X144865009Y-121630010D01*
G75*
G02*
X144615010Y-121880009I-249999J0D01*
G01*
X143915008Y-121880009D01*
G75*
G02*
X143665009Y-121630010I0J249999D01*
G01*
G37*
G04 #@! TD.AperFunction*
D14*
G04 #@! TO.N,Board_10-/SPI1_SCK*
X146265009Y-121005009D03*
G04 #@! TO.N,Board_10-/SPI1_MOSI*
X148265009Y-121005009D03*
G04 #@! TO.N,Board_10-/SPI1_MISO*
X150265009Y-121005009D03*
G04 #@! TO.N,Board_10-/DRV_EN*
X152265009Y-121005009D03*
G04 #@! TO.N,Board_10-/Connectors/FAULT*
X154265009Y-121005009D03*
G04 #@! TD*
G04 #@! TO.N,Board_10-/WL*
G04 #@! TO.C,J3*
G04 #@! TA.AperFunction,ComponentPad*
G36*
G01*
X143665009Y-116550010D02*
X143665009Y-115300008D01*
G75*
G02*
X143915008Y-115050009I249999J0D01*
G01*
X144615010Y-115050009D01*
G75*
G02*
X144865009Y-115300008I0J-249999D01*
G01*
X144865009Y-116550010D01*
G75*
G02*
X144615010Y-116800009I-249999J0D01*
G01*
X143915008Y-116800009D01*
G75*
G02*
X143665009Y-116550010I0J249999D01*
G01*
G37*
G04 #@! TD.AperFunction*
G04 #@! TO.N,Board_10-/WH*
X146265009Y-115925009D03*
G04 #@! TO.N,Board_10-/VL*
X148265009Y-115925009D03*
G04 #@! TO.N,Board_10-/VH*
X150265009Y-115925009D03*
G04 #@! TO.N,Board_10-/UL*
X152265009Y-115925009D03*
G04 #@! TO.N,Board_10-/UH*
X154265009Y-115925009D03*
G04 #@! TD*
D15*
G04 #@! TO.N,Board_10-/+VM*
G04 #@! TO.C,U2*
X182365009Y-117195009D03*
D16*
G04 #@! TO.N,Board_10-GND*
X187445009Y-117195009D03*
G04 #@! TD*
D15*
G04 #@! TO.N,Board_10-/U*
G04 #@! TO.C,U3*
X196335009Y-133705009D03*
G04 #@! TO.N,Board_10-/V*
X196335009Y-138785009D03*
D16*
G04 #@! TO.N,Board_10-/W*
X196335009Y-143865009D03*
G04 #@! TD*
D11*
G04 #@! TO.N,Board_10-GND*
G04 #@! TO.C,H201*
X145535009Y-148945009D03*
D10*
X147935009Y-148945009D03*
X147232065Y-150642065D03*
X145535009Y-151345009D03*
X143837953Y-150642065D03*
X143135009Y-148945009D03*
X143837953Y-147247953D03*
X145535009Y-146545009D03*
X147232065Y-147247953D03*
G04 #@! TD*
G04 #@! TO.N,Board_9-GND*
G04 #@! TO.C,H202*
X87282060Y-128197953D03*
X85585004Y-127495009D03*
X83887948Y-128197953D03*
X83185004Y-129895009D03*
X83887948Y-131592065D03*
X85585004Y-132295009D03*
X87282060Y-131592065D03*
X87985004Y-129895009D03*
D11*
X85585004Y-129895009D03*
G04 #@! TD*
G04 #@! TO.N,Board_9-/ADC_I_u*
G04 #@! TO.C,J6*
G04 #@! TA.AperFunction,ComponentPad*
G36*
G01*
X135760003Y-124215009D02*
X137010005Y-124215009D01*
G75*
G02*
X137260004Y-124465008I0J-249999D01*
G01*
X137260004Y-125165010D01*
G75*
G02*
X137010005Y-125415009I-249999J0D01*
G01*
X135760003Y-125415009D01*
G75*
G02*
X135510004Y-125165010I0J249999D01*
G01*
X135510004Y-124465008D01*
G75*
G02*
X135760003Y-124215009I249999J0D01*
G01*
G37*
G04 #@! TD.AperFunction*
D12*
G04 #@! TO.N,Board_9-/ADC_I_v*
X136385004Y-126815009D03*
G04 #@! TO.N,Board_9-/ADC_I_w*
X136385004Y-128815009D03*
G04 #@! TD*
G04 #@! TO.N,Board_9-Net-(C17-Pad1)*
G04 #@! TO.C,J5*
G04 #@! TA.AperFunction,ComponentPad*
G36*
G01*
X135760003Y-148345009D02*
X137010005Y-148345009D01*
G75*
G02*
X137260004Y-148595008I0J-249999D01*
G01*
X137260004Y-149295010D01*
G75*
G02*
X137010005Y-149545009I-249999J0D01*
G01*
X135760003Y-149545009D01*
G75*
G02*
X135510004Y-149295010I0J249999D01*
G01*
X135510004Y-148595008D01*
G75*
G02*
X135760003Y-148345009I249999J0D01*
G01*
G37*
G04 #@! TD.AperFunction*
G04 #@! TO.N,Board_9-GND*
X136385004Y-150945009D03*
G04 #@! TD*
G04 #@! TO.N,Board_9-/Connectors/+VCC_IO*
G04 #@! TO.C,J2*
G04 #@! TA.AperFunction,ComponentPad*
G36*
G01*
X135760003Y-116595009D02*
X137010005Y-116595009D01*
G75*
G02*
X137260004Y-116845008I0J-249999D01*
G01*
X137260004Y-117545010D01*
G75*
G02*
X137010005Y-117795009I-249999J0D01*
G01*
X135760003Y-117795009D01*
G75*
G02*
X135510004Y-117545010I0J249999D01*
G01*
X135510004Y-116845008D01*
G75*
G02*
X135760003Y-116595009I249999J0D01*
G01*
G37*
G04 #@! TD.AperFunction*
G04 #@! TO.N,Board_9-GND*
X136385004Y-119195009D03*
G04 #@! TD*
D13*
G04 #@! TO.N,Board_9-/+VM*
G04 #@! TO.C,C15*
X113525004Y-121005009D03*
G04 #@! TO.N,Board_9-GND*
X113525004Y-116005009D03*
G04 #@! TD*
G04 #@! TO.N,Board_9-/+VM*
G04 #@! TO.C,C16*
X102095004Y-121005009D03*
G04 #@! TO.N,Board_9-GND*
X102095004Y-116005009D03*
G04 #@! TD*
G04 #@! TO.N,Board_9-/~CS_DRIVER*
G04 #@! TO.C,J1*
G04 #@! TA.AperFunction,ComponentPad*
G36*
G01*
X83715004Y-121630010D02*
X83715004Y-120380008D01*
G75*
G02*
X83965003Y-120130009I249999J0D01*
G01*
X84665005Y-120130009D01*
G75*
G02*
X84915004Y-120380008I0J-249999D01*
G01*
X84915004Y-121630010D01*
G75*
G02*
X84665005Y-121880009I-249999J0D01*
G01*
X83965003Y-121880009D01*
G75*
G02*
X83715004Y-121630010I0J249999D01*
G01*
G37*
G04 #@! TD.AperFunction*
D14*
G04 #@! TO.N,Board_9-/SPI1_SCK*
X86315004Y-121005009D03*
G04 #@! TO.N,Board_9-/SPI1_MOSI*
X88315004Y-121005009D03*
G04 #@! TO.N,Board_9-/SPI1_MISO*
X90315004Y-121005009D03*
G04 #@! TO.N,Board_9-/DRV_EN*
X92315004Y-121005009D03*
G04 #@! TO.N,Board_9-/Connectors/FAULT*
X94315004Y-121005009D03*
G04 #@! TD*
G04 #@! TO.N,Board_9-/WL*
G04 #@! TO.C,J3*
G04 #@! TA.AperFunction,ComponentPad*
G36*
G01*
X83715004Y-116550010D02*
X83715004Y-115300008D01*
G75*
G02*
X83965003Y-115050009I249999J0D01*
G01*
X84665005Y-115050009D01*
G75*
G02*
X84915004Y-115300008I0J-249999D01*
G01*
X84915004Y-116550010D01*
G75*
G02*
X84665005Y-116800009I-249999J0D01*
G01*
X83965003Y-116800009D01*
G75*
G02*
X83715004Y-116550010I0J249999D01*
G01*
G37*
G04 #@! TD.AperFunction*
G04 #@! TO.N,Board_9-/WH*
X86315004Y-115925009D03*
G04 #@! TO.N,Board_9-/VL*
X88315004Y-115925009D03*
G04 #@! TO.N,Board_9-/VH*
X90315004Y-115925009D03*
G04 #@! TO.N,Board_9-/UL*
X92315004Y-115925009D03*
G04 #@! TO.N,Board_9-/UH*
X94315004Y-115925009D03*
G04 #@! TD*
D15*
G04 #@! TO.N,Board_9-/+VM*
G04 #@! TO.C,U2*
X122415004Y-117195009D03*
D16*
G04 #@! TO.N,Board_9-GND*
X127495004Y-117195009D03*
G04 #@! TD*
D15*
G04 #@! TO.N,Board_9-/U*
G04 #@! TO.C,U3*
X136385004Y-133705009D03*
G04 #@! TO.N,Board_9-/V*
X136385004Y-138785009D03*
D16*
G04 #@! TO.N,Board_9-/W*
X136385004Y-143865009D03*
G04 #@! TD*
D11*
G04 #@! TO.N,Board_9-GND*
G04 #@! TO.C,H201*
X85585004Y-148945009D03*
D10*
X87985004Y-148945009D03*
X87282060Y-150642065D03*
X85585004Y-151345009D03*
X83887948Y-150642065D03*
X83185004Y-148945009D03*
X83887948Y-147247953D03*
X85585004Y-146545009D03*
X87282060Y-147247953D03*
G04 #@! TD*
G04 #@! TO.N,Board_8-GND*
G04 #@! TO.C,H202*
X27332055Y-128197953D03*
X25634999Y-127495009D03*
X23937943Y-128197953D03*
X23234999Y-129895009D03*
X23937943Y-131592065D03*
X25634999Y-132295009D03*
X27332055Y-131592065D03*
X28034999Y-129895009D03*
D11*
X25634999Y-129895009D03*
G04 #@! TD*
G04 #@! TO.N,Board_8-/ADC_I_u*
G04 #@! TO.C,J6*
G04 #@! TA.AperFunction,ComponentPad*
G36*
G01*
X75809998Y-124215009D02*
X77060000Y-124215009D01*
G75*
G02*
X77309999Y-124465008I0J-249999D01*
G01*
X77309999Y-125165010D01*
G75*
G02*
X77060000Y-125415009I-249999J0D01*
G01*
X75809998Y-125415009D01*
G75*
G02*
X75559999Y-125165010I0J249999D01*
G01*
X75559999Y-124465008D01*
G75*
G02*
X75809998Y-124215009I249999J0D01*
G01*
G37*
G04 #@! TD.AperFunction*
D12*
G04 #@! TO.N,Board_8-/ADC_I_v*
X76434999Y-126815009D03*
G04 #@! TO.N,Board_8-/ADC_I_w*
X76434999Y-128815009D03*
G04 #@! TD*
G04 #@! TO.N,Board_8-Net-(C17-Pad1)*
G04 #@! TO.C,J5*
G04 #@! TA.AperFunction,ComponentPad*
G36*
G01*
X75809998Y-148345009D02*
X77060000Y-148345009D01*
G75*
G02*
X77309999Y-148595008I0J-249999D01*
G01*
X77309999Y-149295010D01*
G75*
G02*
X77060000Y-149545009I-249999J0D01*
G01*
X75809998Y-149545009D01*
G75*
G02*
X75559999Y-149295010I0J249999D01*
G01*
X75559999Y-148595008D01*
G75*
G02*
X75809998Y-148345009I249999J0D01*
G01*
G37*
G04 #@! TD.AperFunction*
G04 #@! TO.N,Board_8-GND*
X76434999Y-150945009D03*
G04 #@! TD*
G04 #@! TO.N,Board_8-/Connectors/+VCC_IO*
G04 #@! TO.C,J2*
G04 #@! TA.AperFunction,ComponentPad*
G36*
G01*
X75809998Y-116595009D02*
X77060000Y-116595009D01*
G75*
G02*
X77309999Y-116845008I0J-249999D01*
G01*
X77309999Y-117545010D01*
G75*
G02*
X77060000Y-117795009I-249999J0D01*
G01*
X75809998Y-117795009D01*
G75*
G02*
X75559999Y-117545010I0J249999D01*
G01*
X75559999Y-116845008D01*
G75*
G02*
X75809998Y-116595009I249999J0D01*
G01*
G37*
G04 #@! TD.AperFunction*
G04 #@! TO.N,Board_8-GND*
X76434999Y-119195009D03*
G04 #@! TD*
D13*
G04 #@! TO.N,Board_8-/+VM*
G04 #@! TO.C,C15*
X53574999Y-121005009D03*
G04 #@! TO.N,Board_8-GND*
X53574999Y-116005009D03*
G04 #@! TD*
G04 #@! TO.N,Board_8-/+VM*
G04 #@! TO.C,C16*
X42144999Y-121005009D03*
G04 #@! TO.N,Board_8-GND*
X42144999Y-116005009D03*
G04 #@! TD*
G04 #@! TO.N,Board_8-/~CS_DRIVER*
G04 #@! TO.C,J1*
G04 #@! TA.AperFunction,ComponentPad*
G36*
G01*
X23764999Y-121630010D02*
X23764999Y-120380008D01*
G75*
G02*
X24014998Y-120130009I249999J0D01*
G01*
X24715000Y-120130009D01*
G75*
G02*
X24964999Y-120380008I0J-249999D01*
G01*
X24964999Y-121630010D01*
G75*
G02*
X24715000Y-121880009I-249999J0D01*
G01*
X24014998Y-121880009D01*
G75*
G02*
X23764999Y-121630010I0J249999D01*
G01*
G37*
G04 #@! TD.AperFunction*
D14*
G04 #@! TO.N,Board_8-/SPI1_SCK*
X26364999Y-121005009D03*
G04 #@! TO.N,Board_8-/SPI1_MOSI*
X28364999Y-121005009D03*
G04 #@! TO.N,Board_8-/SPI1_MISO*
X30364999Y-121005009D03*
G04 #@! TO.N,Board_8-/DRV_EN*
X32364999Y-121005009D03*
G04 #@! TO.N,Board_8-/Connectors/FAULT*
X34364999Y-121005009D03*
G04 #@! TD*
G04 #@! TO.N,Board_8-/WL*
G04 #@! TO.C,J3*
G04 #@! TA.AperFunction,ComponentPad*
G36*
G01*
X23764999Y-116550010D02*
X23764999Y-115300008D01*
G75*
G02*
X24014998Y-115050009I249999J0D01*
G01*
X24715000Y-115050009D01*
G75*
G02*
X24964999Y-115300008I0J-249999D01*
G01*
X24964999Y-116550010D01*
G75*
G02*
X24715000Y-116800009I-249999J0D01*
G01*
X24014998Y-116800009D01*
G75*
G02*
X23764999Y-116550010I0J249999D01*
G01*
G37*
G04 #@! TD.AperFunction*
G04 #@! TO.N,Board_8-/WH*
X26364999Y-115925009D03*
G04 #@! TO.N,Board_8-/VL*
X28364999Y-115925009D03*
G04 #@! TO.N,Board_8-/VH*
X30364999Y-115925009D03*
G04 #@! TO.N,Board_8-/UL*
X32364999Y-115925009D03*
G04 #@! TO.N,Board_8-/UH*
X34364999Y-115925009D03*
G04 #@! TD*
D15*
G04 #@! TO.N,Board_8-/+VM*
G04 #@! TO.C,U2*
X62464999Y-117195009D03*
D16*
G04 #@! TO.N,Board_8-GND*
X67544999Y-117195009D03*
G04 #@! TD*
D15*
G04 #@! TO.N,Board_8-/U*
G04 #@! TO.C,U3*
X76434999Y-133705009D03*
G04 #@! TO.N,Board_8-/V*
X76434999Y-138785009D03*
D16*
G04 #@! TO.N,Board_8-/W*
X76434999Y-143865009D03*
G04 #@! TD*
D11*
G04 #@! TO.N,Board_8-GND*
G04 #@! TO.C,H201*
X25634999Y-148945009D03*
D10*
X28034999Y-148945009D03*
X27332055Y-150642065D03*
X25634999Y-151345009D03*
X23937943Y-150642065D03*
X23234999Y-148945009D03*
X23937943Y-147247953D03*
X25634999Y-146545009D03*
X27332055Y-147247953D03*
G04 #@! TD*
G04 #@! TO.N,Board_7-GND*
G04 #@! TO.C,H202*
X207182070Y-86207948D03*
X205485014Y-85505004D03*
X203787958Y-86207948D03*
X203085014Y-87905004D03*
X203787958Y-89602060D03*
X205485014Y-90305004D03*
X207182070Y-89602060D03*
X207885014Y-87905004D03*
D11*
X205485014Y-87905004D03*
G04 #@! TD*
G04 #@! TO.N,Board_7-/ADC_I_u*
G04 #@! TO.C,J6*
G04 #@! TA.AperFunction,ComponentPad*
G36*
G01*
X255660013Y-82225004D02*
X256910015Y-82225004D01*
G75*
G02*
X257160014Y-82475003I0J-249999D01*
G01*
X257160014Y-83175005D01*
G75*
G02*
X256910015Y-83425004I-249999J0D01*
G01*
X255660013Y-83425004D01*
G75*
G02*
X255410014Y-83175005I0J249999D01*
G01*
X255410014Y-82475003D01*
G75*
G02*
X255660013Y-82225004I249999J0D01*
G01*
G37*
G04 #@! TD.AperFunction*
D12*
G04 #@! TO.N,Board_7-/ADC_I_v*
X256285014Y-84825004D03*
G04 #@! TO.N,Board_7-/ADC_I_w*
X256285014Y-86825004D03*
G04 #@! TD*
G04 #@! TO.N,Board_7-Net-(C17-Pad1)*
G04 #@! TO.C,J5*
G04 #@! TA.AperFunction,ComponentPad*
G36*
G01*
X255660013Y-106355004D02*
X256910015Y-106355004D01*
G75*
G02*
X257160014Y-106605003I0J-249999D01*
G01*
X257160014Y-107305005D01*
G75*
G02*
X256910015Y-107555004I-249999J0D01*
G01*
X255660013Y-107555004D01*
G75*
G02*
X255410014Y-107305005I0J249999D01*
G01*
X255410014Y-106605003D01*
G75*
G02*
X255660013Y-106355004I249999J0D01*
G01*
G37*
G04 #@! TD.AperFunction*
G04 #@! TO.N,Board_7-GND*
X256285014Y-108955004D03*
G04 #@! TD*
G04 #@! TO.N,Board_7-/Connectors/+VCC_IO*
G04 #@! TO.C,J2*
G04 #@! TA.AperFunction,ComponentPad*
G36*
G01*
X255660013Y-74605004D02*
X256910015Y-74605004D01*
G75*
G02*
X257160014Y-74855003I0J-249999D01*
G01*
X257160014Y-75555005D01*
G75*
G02*
X256910015Y-75805004I-249999J0D01*
G01*
X255660013Y-75805004D01*
G75*
G02*
X255410014Y-75555005I0J249999D01*
G01*
X255410014Y-74855003D01*
G75*
G02*
X255660013Y-74605004I249999J0D01*
G01*
G37*
G04 #@! TD.AperFunction*
G04 #@! TO.N,Board_7-GND*
X256285014Y-77205004D03*
G04 #@! TD*
D13*
G04 #@! TO.N,Board_7-/+VM*
G04 #@! TO.C,C15*
X233425014Y-79015004D03*
G04 #@! TO.N,Board_7-GND*
X233425014Y-74015004D03*
G04 #@! TD*
G04 #@! TO.N,Board_7-/+VM*
G04 #@! TO.C,C16*
X221995014Y-79015004D03*
G04 #@! TO.N,Board_7-GND*
X221995014Y-74015004D03*
G04 #@! TD*
G04 #@! TO.N,Board_7-/~CS_DRIVER*
G04 #@! TO.C,J1*
G04 #@! TA.AperFunction,ComponentPad*
G36*
G01*
X203615014Y-79640005D02*
X203615014Y-78390003D01*
G75*
G02*
X203865013Y-78140004I249999J0D01*
G01*
X204565015Y-78140004D01*
G75*
G02*
X204815014Y-78390003I0J-249999D01*
G01*
X204815014Y-79640005D01*
G75*
G02*
X204565015Y-79890004I-249999J0D01*
G01*
X203865013Y-79890004D01*
G75*
G02*
X203615014Y-79640005I0J249999D01*
G01*
G37*
G04 #@! TD.AperFunction*
D14*
G04 #@! TO.N,Board_7-/SPI1_SCK*
X206215014Y-79015004D03*
G04 #@! TO.N,Board_7-/SPI1_MOSI*
X208215014Y-79015004D03*
G04 #@! TO.N,Board_7-/SPI1_MISO*
X210215014Y-79015004D03*
G04 #@! TO.N,Board_7-/DRV_EN*
X212215014Y-79015004D03*
G04 #@! TO.N,Board_7-/Connectors/FAULT*
X214215014Y-79015004D03*
G04 #@! TD*
G04 #@! TO.N,Board_7-/WL*
G04 #@! TO.C,J3*
G04 #@! TA.AperFunction,ComponentPad*
G36*
G01*
X203615014Y-74560005D02*
X203615014Y-73310003D01*
G75*
G02*
X203865013Y-73060004I249999J0D01*
G01*
X204565015Y-73060004D01*
G75*
G02*
X204815014Y-73310003I0J-249999D01*
G01*
X204815014Y-74560005D01*
G75*
G02*
X204565015Y-74810004I-249999J0D01*
G01*
X203865013Y-74810004D01*
G75*
G02*
X203615014Y-74560005I0J249999D01*
G01*
G37*
G04 #@! TD.AperFunction*
G04 #@! TO.N,Board_7-/WH*
X206215014Y-73935004D03*
G04 #@! TO.N,Board_7-/VL*
X208215014Y-73935004D03*
G04 #@! TO.N,Board_7-/VH*
X210215014Y-73935004D03*
G04 #@! TO.N,Board_7-/UL*
X212215014Y-73935004D03*
G04 #@! TO.N,Board_7-/UH*
X214215014Y-73935004D03*
G04 #@! TD*
D15*
G04 #@! TO.N,Board_7-/+VM*
G04 #@! TO.C,U2*
X242315014Y-75205004D03*
D16*
G04 #@! TO.N,Board_7-GND*
X247395014Y-75205004D03*
G04 #@! TD*
D15*
G04 #@! TO.N,Board_7-/U*
G04 #@! TO.C,U3*
X256285014Y-91715004D03*
G04 #@! TO.N,Board_7-/V*
X256285014Y-96795004D03*
D16*
G04 #@! TO.N,Board_7-/W*
X256285014Y-101875004D03*
G04 #@! TD*
D11*
G04 #@! TO.N,Board_7-GND*
G04 #@! TO.C,H201*
X205485014Y-106955004D03*
D10*
X207885014Y-106955004D03*
X207182070Y-108652060D03*
X205485014Y-109355004D03*
X203787958Y-108652060D03*
X203085014Y-106955004D03*
X203787958Y-105257948D03*
X205485014Y-104555004D03*
X207182070Y-105257948D03*
G04 #@! TD*
G04 #@! TO.N,Board_6-GND*
G04 #@! TO.C,H202*
X147232065Y-86207948D03*
X145535009Y-85505004D03*
X143837953Y-86207948D03*
X143135009Y-87905004D03*
X143837953Y-89602060D03*
X145535009Y-90305004D03*
X147232065Y-89602060D03*
X147935009Y-87905004D03*
D11*
X145535009Y-87905004D03*
G04 #@! TD*
G04 #@! TO.N,Board_6-/ADC_I_u*
G04 #@! TO.C,J6*
G04 #@! TA.AperFunction,ComponentPad*
G36*
G01*
X195710008Y-82225004D02*
X196960010Y-82225004D01*
G75*
G02*
X197210009Y-82475003I0J-249999D01*
G01*
X197210009Y-83175005D01*
G75*
G02*
X196960010Y-83425004I-249999J0D01*
G01*
X195710008Y-83425004D01*
G75*
G02*
X195460009Y-83175005I0J249999D01*
G01*
X195460009Y-82475003D01*
G75*
G02*
X195710008Y-82225004I249999J0D01*
G01*
G37*
G04 #@! TD.AperFunction*
D12*
G04 #@! TO.N,Board_6-/ADC_I_v*
X196335009Y-84825004D03*
G04 #@! TO.N,Board_6-/ADC_I_w*
X196335009Y-86825004D03*
G04 #@! TD*
G04 #@! TO.N,Board_6-Net-(C17-Pad1)*
G04 #@! TO.C,J5*
G04 #@! TA.AperFunction,ComponentPad*
G36*
G01*
X195710008Y-106355004D02*
X196960010Y-106355004D01*
G75*
G02*
X197210009Y-106605003I0J-249999D01*
G01*
X197210009Y-107305005D01*
G75*
G02*
X196960010Y-107555004I-249999J0D01*
G01*
X195710008Y-107555004D01*
G75*
G02*
X195460009Y-107305005I0J249999D01*
G01*
X195460009Y-106605003D01*
G75*
G02*
X195710008Y-106355004I249999J0D01*
G01*
G37*
G04 #@! TD.AperFunction*
G04 #@! TO.N,Board_6-GND*
X196335009Y-108955004D03*
G04 #@! TD*
G04 #@! TO.N,Board_6-/Connectors/+VCC_IO*
G04 #@! TO.C,J2*
G04 #@! TA.AperFunction,ComponentPad*
G36*
G01*
X195710008Y-74605004D02*
X196960010Y-74605004D01*
G75*
G02*
X197210009Y-74855003I0J-249999D01*
G01*
X197210009Y-75555005D01*
G75*
G02*
X196960010Y-75805004I-249999J0D01*
G01*
X195710008Y-75805004D01*
G75*
G02*
X195460009Y-75555005I0J249999D01*
G01*
X195460009Y-74855003D01*
G75*
G02*
X195710008Y-74605004I249999J0D01*
G01*
G37*
G04 #@! TD.AperFunction*
G04 #@! TO.N,Board_6-GND*
X196335009Y-77205004D03*
G04 #@! TD*
D13*
G04 #@! TO.N,Board_6-/+VM*
G04 #@! TO.C,C15*
X173475009Y-79015004D03*
G04 #@! TO.N,Board_6-GND*
X173475009Y-74015004D03*
G04 #@! TD*
G04 #@! TO.N,Board_6-/+VM*
G04 #@! TO.C,C16*
X162045009Y-79015004D03*
G04 #@! TO.N,Board_6-GND*
X162045009Y-74015004D03*
G04 #@! TD*
G04 #@! TO.N,Board_6-/~CS_DRIVER*
G04 #@! TO.C,J1*
G04 #@! TA.AperFunction,ComponentPad*
G36*
G01*
X143665009Y-79640005D02*
X143665009Y-78390003D01*
G75*
G02*
X143915008Y-78140004I249999J0D01*
G01*
X144615010Y-78140004D01*
G75*
G02*
X144865009Y-78390003I0J-249999D01*
G01*
X144865009Y-79640005D01*
G75*
G02*
X144615010Y-79890004I-249999J0D01*
G01*
X143915008Y-79890004D01*
G75*
G02*
X143665009Y-79640005I0J249999D01*
G01*
G37*
G04 #@! TD.AperFunction*
D14*
G04 #@! TO.N,Board_6-/SPI1_SCK*
X146265009Y-79015004D03*
G04 #@! TO.N,Board_6-/SPI1_MOSI*
X148265009Y-79015004D03*
G04 #@! TO.N,Board_6-/SPI1_MISO*
X150265009Y-79015004D03*
G04 #@! TO.N,Board_6-/DRV_EN*
X152265009Y-79015004D03*
G04 #@! TO.N,Board_6-/Connectors/FAULT*
X154265009Y-79015004D03*
G04 #@! TD*
G04 #@! TO.N,Board_6-/WL*
G04 #@! TO.C,J3*
G04 #@! TA.AperFunction,ComponentPad*
G36*
G01*
X143665009Y-74560005D02*
X143665009Y-73310003D01*
G75*
G02*
X143915008Y-73060004I249999J0D01*
G01*
X144615010Y-73060004D01*
G75*
G02*
X144865009Y-73310003I0J-249999D01*
G01*
X144865009Y-74560005D01*
G75*
G02*
X144615010Y-74810004I-249999J0D01*
G01*
X143915008Y-74810004D01*
G75*
G02*
X143665009Y-74560005I0J249999D01*
G01*
G37*
G04 #@! TD.AperFunction*
G04 #@! TO.N,Board_6-/WH*
X146265009Y-73935004D03*
G04 #@! TO.N,Board_6-/VL*
X148265009Y-73935004D03*
G04 #@! TO.N,Board_6-/VH*
X150265009Y-73935004D03*
G04 #@! TO.N,Board_6-/UL*
X152265009Y-73935004D03*
G04 #@! TO.N,Board_6-/UH*
X154265009Y-73935004D03*
G04 #@! TD*
D15*
G04 #@! TO.N,Board_6-/+VM*
G04 #@! TO.C,U2*
X182365009Y-75205004D03*
D16*
G04 #@! TO.N,Board_6-GND*
X187445009Y-75205004D03*
G04 #@! TD*
D15*
G04 #@! TO.N,Board_6-/U*
G04 #@! TO.C,U3*
X196335009Y-91715004D03*
G04 #@! TO.N,Board_6-/V*
X196335009Y-96795004D03*
D16*
G04 #@! TO.N,Board_6-/W*
X196335009Y-101875004D03*
G04 #@! TD*
D11*
G04 #@! TO.N,Board_6-GND*
G04 #@! TO.C,H201*
X145535009Y-106955004D03*
D10*
X147935009Y-106955004D03*
X147232065Y-108652060D03*
X145535009Y-109355004D03*
X143837953Y-108652060D03*
X143135009Y-106955004D03*
X143837953Y-105257948D03*
X145535009Y-104555004D03*
X147232065Y-105257948D03*
G04 #@! TD*
G04 #@! TO.N,Board_5-GND*
G04 #@! TO.C,H202*
X87282060Y-86207948D03*
X85585004Y-85505004D03*
X83887948Y-86207948D03*
X83185004Y-87905004D03*
X83887948Y-89602060D03*
X85585004Y-90305004D03*
X87282060Y-89602060D03*
X87985004Y-87905004D03*
D11*
X85585004Y-87905004D03*
G04 #@! TD*
G04 #@! TO.N,Board_5-/ADC_I_u*
G04 #@! TO.C,J6*
G04 #@! TA.AperFunction,ComponentPad*
G36*
G01*
X135760003Y-82225004D02*
X137010005Y-82225004D01*
G75*
G02*
X137260004Y-82475003I0J-249999D01*
G01*
X137260004Y-83175005D01*
G75*
G02*
X137010005Y-83425004I-249999J0D01*
G01*
X135760003Y-83425004D01*
G75*
G02*
X135510004Y-83175005I0J249999D01*
G01*
X135510004Y-82475003D01*
G75*
G02*
X135760003Y-82225004I249999J0D01*
G01*
G37*
G04 #@! TD.AperFunction*
D12*
G04 #@! TO.N,Board_5-/ADC_I_v*
X136385004Y-84825004D03*
G04 #@! TO.N,Board_5-/ADC_I_w*
X136385004Y-86825004D03*
G04 #@! TD*
G04 #@! TO.N,Board_5-Net-(C17-Pad1)*
G04 #@! TO.C,J5*
G04 #@! TA.AperFunction,ComponentPad*
G36*
G01*
X135760003Y-106355004D02*
X137010005Y-106355004D01*
G75*
G02*
X137260004Y-106605003I0J-249999D01*
G01*
X137260004Y-107305005D01*
G75*
G02*
X137010005Y-107555004I-249999J0D01*
G01*
X135760003Y-107555004D01*
G75*
G02*
X135510004Y-107305005I0J249999D01*
G01*
X135510004Y-106605003D01*
G75*
G02*
X135760003Y-106355004I249999J0D01*
G01*
G37*
G04 #@! TD.AperFunction*
G04 #@! TO.N,Board_5-GND*
X136385004Y-108955004D03*
G04 #@! TD*
G04 #@! TO.N,Board_5-/Connectors/+VCC_IO*
G04 #@! TO.C,J2*
G04 #@! TA.AperFunction,ComponentPad*
G36*
G01*
X135760003Y-74605004D02*
X137010005Y-74605004D01*
G75*
G02*
X137260004Y-74855003I0J-249999D01*
G01*
X137260004Y-75555005D01*
G75*
G02*
X137010005Y-75805004I-249999J0D01*
G01*
X135760003Y-75805004D01*
G75*
G02*
X135510004Y-75555005I0J249999D01*
G01*
X135510004Y-74855003D01*
G75*
G02*
X135760003Y-74605004I249999J0D01*
G01*
G37*
G04 #@! TD.AperFunction*
G04 #@! TO.N,Board_5-GND*
X136385004Y-77205004D03*
G04 #@! TD*
D13*
G04 #@! TO.N,Board_5-/+VM*
G04 #@! TO.C,C15*
X113525004Y-79015004D03*
G04 #@! TO.N,Board_5-GND*
X113525004Y-74015004D03*
G04 #@! TD*
G04 #@! TO.N,Board_5-/+VM*
G04 #@! TO.C,C16*
X102095004Y-79015004D03*
G04 #@! TO.N,Board_5-GND*
X102095004Y-74015004D03*
G04 #@! TD*
G04 #@! TO.N,Board_5-/~CS_DRIVER*
G04 #@! TO.C,J1*
G04 #@! TA.AperFunction,ComponentPad*
G36*
G01*
X83715004Y-79640005D02*
X83715004Y-78390003D01*
G75*
G02*
X83965003Y-78140004I249999J0D01*
G01*
X84665005Y-78140004D01*
G75*
G02*
X84915004Y-78390003I0J-249999D01*
G01*
X84915004Y-79640005D01*
G75*
G02*
X84665005Y-79890004I-249999J0D01*
G01*
X83965003Y-79890004D01*
G75*
G02*
X83715004Y-79640005I0J249999D01*
G01*
G37*
G04 #@! TD.AperFunction*
D14*
G04 #@! TO.N,Board_5-/SPI1_SCK*
X86315004Y-79015004D03*
G04 #@! TO.N,Board_5-/SPI1_MOSI*
X88315004Y-79015004D03*
G04 #@! TO.N,Board_5-/SPI1_MISO*
X90315004Y-79015004D03*
G04 #@! TO.N,Board_5-/DRV_EN*
X92315004Y-79015004D03*
G04 #@! TO.N,Board_5-/Connectors/FAULT*
X94315004Y-79015004D03*
G04 #@! TD*
G04 #@! TO.N,Board_5-/WL*
G04 #@! TO.C,J3*
G04 #@! TA.AperFunction,ComponentPad*
G36*
G01*
X83715004Y-74560005D02*
X83715004Y-73310003D01*
G75*
G02*
X83965003Y-73060004I249999J0D01*
G01*
X84665005Y-73060004D01*
G75*
G02*
X84915004Y-73310003I0J-249999D01*
G01*
X84915004Y-74560005D01*
G75*
G02*
X84665005Y-74810004I-249999J0D01*
G01*
X83965003Y-74810004D01*
G75*
G02*
X83715004Y-74560005I0J249999D01*
G01*
G37*
G04 #@! TD.AperFunction*
G04 #@! TO.N,Board_5-/WH*
X86315004Y-73935004D03*
G04 #@! TO.N,Board_5-/VL*
X88315004Y-73935004D03*
G04 #@! TO.N,Board_5-/VH*
X90315004Y-73935004D03*
G04 #@! TO.N,Board_5-/UL*
X92315004Y-73935004D03*
G04 #@! TO.N,Board_5-/UH*
X94315004Y-73935004D03*
G04 #@! TD*
D15*
G04 #@! TO.N,Board_5-/+VM*
G04 #@! TO.C,U2*
X122415004Y-75205004D03*
D16*
G04 #@! TO.N,Board_5-GND*
X127495004Y-75205004D03*
G04 #@! TD*
D15*
G04 #@! TO.N,Board_5-/U*
G04 #@! TO.C,U3*
X136385004Y-91715004D03*
G04 #@! TO.N,Board_5-/V*
X136385004Y-96795004D03*
D16*
G04 #@! TO.N,Board_5-/W*
X136385004Y-101875004D03*
G04 #@! TD*
D11*
G04 #@! TO.N,Board_5-GND*
G04 #@! TO.C,H201*
X85585004Y-106955004D03*
D10*
X87985004Y-106955004D03*
X87282060Y-108652060D03*
X85585004Y-109355004D03*
X83887948Y-108652060D03*
X83185004Y-106955004D03*
X83887948Y-105257948D03*
X85585004Y-104555004D03*
X87282060Y-105257948D03*
G04 #@! TD*
G04 #@! TO.N,Board_4-GND*
G04 #@! TO.C,H202*
X27332055Y-86207948D03*
X25634999Y-85505004D03*
X23937943Y-86207948D03*
X23234999Y-87905004D03*
X23937943Y-89602060D03*
X25634999Y-90305004D03*
X27332055Y-89602060D03*
X28034999Y-87905004D03*
D11*
X25634999Y-87905004D03*
G04 #@! TD*
G04 #@! TO.N,Board_4-/ADC_I_u*
G04 #@! TO.C,J6*
G04 #@! TA.AperFunction,ComponentPad*
G36*
G01*
X75809998Y-82225004D02*
X77060000Y-82225004D01*
G75*
G02*
X77309999Y-82475003I0J-249999D01*
G01*
X77309999Y-83175005D01*
G75*
G02*
X77060000Y-83425004I-249999J0D01*
G01*
X75809998Y-83425004D01*
G75*
G02*
X75559999Y-83175005I0J249999D01*
G01*
X75559999Y-82475003D01*
G75*
G02*
X75809998Y-82225004I249999J0D01*
G01*
G37*
G04 #@! TD.AperFunction*
D12*
G04 #@! TO.N,Board_4-/ADC_I_v*
X76434999Y-84825004D03*
G04 #@! TO.N,Board_4-/ADC_I_w*
X76434999Y-86825004D03*
G04 #@! TD*
G04 #@! TO.N,Board_4-Net-(C17-Pad1)*
G04 #@! TO.C,J5*
G04 #@! TA.AperFunction,ComponentPad*
G36*
G01*
X75809998Y-106355004D02*
X77060000Y-106355004D01*
G75*
G02*
X77309999Y-106605003I0J-249999D01*
G01*
X77309999Y-107305005D01*
G75*
G02*
X77060000Y-107555004I-249999J0D01*
G01*
X75809998Y-107555004D01*
G75*
G02*
X75559999Y-107305005I0J249999D01*
G01*
X75559999Y-106605003D01*
G75*
G02*
X75809998Y-106355004I249999J0D01*
G01*
G37*
G04 #@! TD.AperFunction*
G04 #@! TO.N,Board_4-GND*
X76434999Y-108955004D03*
G04 #@! TD*
G04 #@! TO.N,Board_4-/Connectors/+VCC_IO*
G04 #@! TO.C,J2*
G04 #@! TA.AperFunction,ComponentPad*
G36*
G01*
X75809998Y-74605004D02*
X77060000Y-74605004D01*
G75*
G02*
X77309999Y-74855003I0J-249999D01*
G01*
X77309999Y-75555005D01*
G75*
G02*
X77060000Y-75805004I-249999J0D01*
G01*
X75809998Y-75805004D01*
G75*
G02*
X75559999Y-75555005I0J249999D01*
G01*
X75559999Y-74855003D01*
G75*
G02*
X75809998Y-74605004I249999J0D01*
G01*
G37*
G04 #@! TD.AperFunction*
G04 #@! TO.N,Board_4-GND*
X76434999Y-77205004D03*
G04 #@! TD*
D13*
G04 #@! TO.N,Board_4-/+VM*
G04 #@! TO.C,C15*
X53574999Y-79015004D03*
G04 #@! TO.N,Board_4-GND*
X53574999Y-74015004D03*
G04 #@! TD*
G04 #@! TO.N,Board_4-/+VM*
G04 #@! TO.C,C16*
X42144999Y-79015004D03*
G04 #@! TO.N,Board_4-GND*
X42144999Y-74015004D03*
G04 #@! TD*
G04 #@! TO.N,Board_4-/~CS_DRIVER*
G04 #@! TO.C,J1*
G04 #@! TA.AperFunction,ComponentPad*
G36*
G01*
X23764999Y-79640005D02*
X23764999Y-78390003D01*
G75*
G02*
X24014998Y-78140004I249999J0D01*
G01*
X24715000Y-78140004D01*
G75*
G02*
X24964999Y-78390003I0J-249999D01*
G01*
X24964999Y-79640005D01*
G75*
G02*
X24715000Y-79890004I-249999J0D01*
G01*
X24014998Y-79890004D01*
G75*
G02*
X23764999Y-79640005I0J249999D01*
G01*
G37*
G04 #@! TD.AperFunction*
D14*
G04 #@! TO.N,Board_4-/SPI1_SCK*
X26364999Y-79015004D03*
G04 #@! TO.N,Board_4-/SPI1_MOSI*
X28364999Y-79015004D03*
G04 #@! TO.N,Board_4-/SPI1_MISO*
X30364999Y-79015004D03*
G04 #@! TO.N,Board_4-/DRV_EN*
X32364999Y-79015004D03*
G04 #@! TO.N,Board_4-/Connectors/FAULT*
X34364999Y-79015004D03*
G04 #@! TD*
G04 #@! TO.N,Board_4-/WL*
G04 #@! TO.C,J3*
G04 #@! TA.AperFunction,ComponentPad*
G36*
G01*
X23764999Y-74560005D02*
X23764999Y-73310003D01*
G75*
G02*
X24014998Y-73060004I249999J0D01*
G01*
X24715000Y-73060004D01*
G75*
G02*
X24964999Y-73310003I0J-249999D01*
G01*
X24964999Y-74560005D01*
G75*
G02*
X24715000Y-74810004I-249999J0D01*
G01*
X24014998Y-74810004D01*
G75*
G02*
X23764999Y-74560005I0J249999D01*
G01*
G37*
G04 #@! TD.AperFunction*
G04 #@! TO.N,Board_4-/WH*
X26364999Y-73935004D03*
G04 #@! TO.N,Board_4-/VL*
X28364999Y-73935004D03*
G04 #@! TO.N,Board_4-/VH*
X30364999Y-73935004D03*
G04 #@! TO.N,Board_4-/UL*
X32364999Y-73935004D03*
G04 #@! TO.N,Board_4-/UH*
X34364999Y-73935004D03*
G04 #@! TD*
D15*
G04 #@! TO.N,Board_4-/+VM*
G04 #@! TO.C,U2*
X62464999Y-75205004D03*
D16*
G04 #@! TO.N,Board_4-GND*
X67544999Y-75205004D03*
G04 #@! TD*
D15*
G04 #@! TO.N,Board_4-/U*
G04 #@! TO.C,U3*
X76434999Y-91715004D03*
G04 #@! TO.N,Board_4-/V*
X76434999Y-96795004D03*
D16*
G04 #@! TO.N,Board_4-/W*
X76434999Y-101875004D03*
G04 #@! TD*
D11*
G04 #@! TO.N,Board_4-GND*
G04 #@! TO.C,H201*
X25634999Y-106955004D03*
D10*
X28034999Y-106955004D03*
X27332055Y-108652060D03*
X25634999Y-109355004D03*
X23937943Y-108652060D03*
X23234999Y-106955004D03*
X23937943Y-105257948D03*
X25634999Y-104555004D03*
X27332055Y-105257948D03*
G04 #@! TD*
G04 #@! TO.N,Board_3-GND*
G04 #@! TO.C,H202*
X207182070Y-44217943D03*
X205485014Y-43514999D03*
X203787958Y-44217943D03*
X203085014Y-45914999D03*
X203787958Y-47612055D03*
X205485014Y-48314999D03*
X207182070Y-47612055D03*
X207885014Y-45914999D03*
D11*
X205485014Y-45914999D03*
G04 #@! TD*
G04 #@! TO.N,Board_3-/ADC_I_u*
G04 #@! TO.C,J6*
G04 #@! TA.AperFunction,ComponentPad*
G36*
G01*
X255660013Y-40234999D02*
X256910015Y-40234999D01*
G75*
G02*
X257160014Y-40484998I0J-249999D01*
G01*
X257160014Y-41185000D01*
G75*
G02*
X256910015Y-41434999I-249999J0D01*
G01*
X255660013Y-41434999D01*
G75*
G02*
X255410014Y-41185000I0J249999D01*
G01*
X255410014Y-40484998D01*
G75*
G02*
X255660013Y-40234999I249999J0D01*
G01*
G37*
G04 #@! TD.AperFunction*
D12*
G04 #@! TO.N,Board_3-/ADC_I_v*
X256285014Y-42834999D03*
G04 #@! TO.N,Board_3-/ADC_I_w*
X256285014Y-44834999D03*
G04 #@! TD*
G04 #@! TO.N,Board_3-Net-(C17-Pad1)*
G04 #@! TO.C,J5*
G04 #@! TA.AperFunction,ComponentPad*
G36*
G01*
X255660013Y-64364999D02*
X256910015Y-64364999D01*
G75*
G02*
X257160014Y-64614998I0J-249999D01*
G01*
X257160014Y-65315000D01*
G75*
G02*
X256910015Y-65564999I-249999J0D01*
G01*
X255660013Y-65564999D01*
G75*
G02*
X255410014Y-65315000I0J249999D01*
G01*
X255410014Y-64614998D01*
G75*
G02*
X255660013Y-64364999I249999J0D01*
G01*
G37*
G04 #@! TD.AperFunction*
G04 #@! TO.N,Board_3-GND*
X256285014Y-66964999D03*
G04 #@! TD*
G04 #@! TO.N,Board_3-/Connectors/+VCC_IO*
G04 #@! TO.C,J2*
G04 #@! TA.AperFunction,ComponentPad*
G36*
G01*
X255660013Y-32614999D02*
X256910015Y-32614999D01*
G75*
G02*
X257160014Y-32864998I0J-249999D01*
G01*
X257160014Y-33565000D01*
G75*
G02*
X256910015Y-33814999I-249999J0D01*
G01*
X255660013Y-33814999D01*
G75*
G02*
X255410014Y-33565000I0J249999D01*
G01*
X255410014Y-32864998D01*
G75*
G02*
X255660013Y-32614999I249999J0D01*
G01*
G37*
G04 #@! TD.AperFunction*
G04 #@! TO.N,Board_3-GND*
X256285014Y-35214999D03*
G04 #@! TD*
D13*
G04 #@! TO.N,Board_3-/+VM*
G04 #@! TO.C,C15*
X233425014Y-37024999D03*
G04 #@! TO.N,Board_3-GND*
X233425014Y-32024999D03*
G04 #@! TD*
G04 #@! TO.N,Board_3-/+VM*
G04 #@! TO.C,C16*
X221995014Y-37024999D03*
G04 #@! TO.N,Board_3-GND*
X221995014Y-32024999D03*
G04 #@! TD*
G04 #@! TO.N,Board_3-/~CS_DRIVER*
G04 #@! TO.C,J1*
G04 #@! TA.AperFunction,ComponentPad*
G36*
G01*
X203615014Y-37650000D02*
X203615014Y-36399998D01*
G75*
G02*
X203865013Y-36149999I249999J0D01*
G01*
X204565015Y-36149999D01*
G75*
G02*
X204815014Y-36399998I0J-249999D01*
G01*
X204815014Y-37650000D01*
G75*
G02*
X204565015Y-37899999I-249999J0D01*
G01*
X203865013Y-37899999D01*
G75*
G02*
X203615014Y-37650000I0J249999D01*
G01*
G37*
G04 #@! TD.AperFunction*
D14*
G04 #@! TO.N,Board_3-/SPI1_SCK*
X206215014Y-37024999D03*
G04 #@! TO.N,Board_3-/SPI1_MOSI*
X208215014Y-37024999D03*
G04 #@! TO.N,Board_3-/SPI1_MISO*
X210215014Y-37024999D03*
G04 #@! TO.N,Board_3-/DRV_EN*
X212215014Y-37024999D03*
G04 #@! TO.N,Board_3-/Connectors/FAULT*
X214215014Y-37024999D03*
G04 #@! TD*
G04 #@! TO.N,Board_3-/WL*
G04 #@! TO.C,J3*
G04 #@! TA.AperFunction,ComponentPad*
G36*
G01*
X203615014Y-32570000D02*
X203615014Y-31319998D01*
G75*
G02*
X203865013Y-31069999I249999J0D01*
G01*
X204565015Y-31069999D01*
G75*
G02*
X204815014Y-31319998I0J-249999D01*
G01*
X204815014Y-32570000D01*
G75*
G02*
X204565015Y-32819999I-249999J0D01*
G01*
X203865013Y-32819999D01*
G75*
G02*
X203615014Y-32570000I0J249999D01*
G01*
G37*
G04 #@! TD.AperFunction*
G04 #@! TO.N,Board_3-/WH*
X206215014Y-31944999D03*
G04 #@! TO.N,Board_3-/VL*
X208215014Y-31944999D03*
G04 #@! TO.N,Board_3-/VH*
X210215014Y-31944999D03*
G04 #@! TO.N,Board_3-/UL*
X212215014Y-31944999D03*
G04 #@! TO.N,Board_3-/UH*
X214215014Y-31944999D03*
G04 #@! TD*
D15*
G04 #@! TO.N,Board_3-/+VM*
G04 #@! TO.C,U2*
X242315014Y-33214999D03*
D16*
G04 #@! TO.N,Board_3-GND*
X247395014Y-33214999D03*
G04 #@! TD*
D15*
G04 #@! TO.N,Board_3-/U*
G04 #@! TO.C,U3*
X256285014Y-49724999D03*
G04 #@! TO.N,Board_3-/V*
X256285014Y-54804999D03*
D16*
G04 #@! TO.N,Board_3-/W*
X256285014Y-59884999D03*
G04 #@! TD*
D11*
G04 #@! TO.N,Board_3-GND*
G04 #@! TO.C,H201*
X205485014Y-64964999D03*
D10*
X207885014Y-64964999D03*
X207182070Y-66662055D03*
X205485014Y-67364999D03*
X203787958Y-66662055D03*
X203085014Y-64964999D03*
X203787958Y-63267943D03*
X205485014Y-62564999D03*
X207182070Y-63267943D03*
G04 #@! TD*
G04 #@! TO.N,Board_2-GND*
G04 #@! TO.C,H202*
X147232065Y-44217943D03*
X145535009Y-43514999D03*
X143837953Y-44217943D03*
X143135009Y-45914999D03*
X143837953Y-47612055D03*
X145535009Y-48314999D03*
X147232065Y-47612055D03*
X147935009Y-45914999D03*
D11*
X145535009Y-45914999D03*
G04 #@! TD*
G04 #@! TO.N,Board_2-/ADC_I_u*
G04 #@! TO.C,J6*
G04 #@! TA.AperFunction,ComponentPad*
G36*
G01*
X195710008Y-40234999D02*
X196960010Y-40234999D01*
G75*
G02*
X197210009Y-40484998I0J-249999D01*
G01*
X197210009Y-41185000D01*
G75*
G02*
X196960010Y-41434999I-249999J0D01*
G01*
X195710008Y-41434999D01*
G75*
G02*
X195460009Y-41185000I0J249999D01*
G01*
X195460009Y-40484998D01*
G75*
G02*
X195710008Y-40234999I249999J0D01*
G01*
G37*
G04 #@! TD.AperFunction*
D12*
G04 #@! TO.N,Board_2-/ADC_I_v*
X196335009Y-42834999D03*
G04 #@! TO.N,Board_2-/ADC_I_w*
X196335009Y-44834999D03*
G04 #@! TD*
G04 #@! TO.N,Board_2-Net-(C17-Pad1)*
G04 #@! TO.C,J5*
G04 #@! TA.AperFunction,ComponentPad*
G36*
G01*
X195710008Y-64364999D02*
X196960010Y-64364999D01*
G75*
G02*
X197210009Y-64614998I0J-249999D01*
G01*
X197210009Y-65315000D01*
G75*
G02*
X196960010Y-65564999I-249999J0D01*
G01*
X195710008Y-65564999D01*
G75*
G02*
X195460009Y-65315000I0J249999D01*
G01*
X195460009Y-64614998D01*
G75*
G02*
X195710008Y-64364999I249999J0D01*
G01*
G37*
G04 #@! TD.AperFunction*
G04 #@! TO.N,Board_2-GND*
X196335009Y-66964999D03*
G04 #@! TD*
G04 #@! TO.N,Board_2-/Connectors/+VCC_IO*
G04 #@! TO.C,J2*
G04 #@! TA.AperFunction,ComponentPad*
G36*
G01*
X195710008Y-32614999D02*
X196960010Y-32614999D01*
G75*
G02*
X197210009Y-32864998I0J-249999D01*
G01*
X197210009Y-33565000D01*
G75*
G02*
X196960010Y-33814999I-249999J0D01*
G01*
X195710008Y-33814999D01*
G75*
G02*
X195460009Y-33565000I0J249999D01*
G01*
X195460009Y-32864998D01*
G75*
G02*
X195710008Y-32614999I249999J0D01*
G01*
G37*
G04 #@! TD.AperFunction*
G04 #@! TO.N,Board_2-GND*
X196335009Y-35214999D03*
G04 #@! TD*
D13*
G04 #@! TO.N,Board_2-/+VM*
G04 #@! TO.C,C15*
X173475009Y-37024999D03*
G04 #@! TO.N,Board_2-GND*
X173475009Y-32024999D03*
G04 #@! TD*
G04 #@! TO.N,Board_2-/+VM*
G04 #@! TO.C,C16*
X162045009Y-37024999D03*
G04 #@! TO.N,Board_2-GND*
X162045009Y-32024999D03*
G04 #@! TD*
G04 #@! TO.N,Board_2-/~CS_DRIVER*
G04 #@! TO.C,J1*
G04 #@! TA.AperFunction,ComponentPad*
G36*
G01*
X143665009Y-37650000D02*
X143665009Y-36399998D01*
G75*
G02*
X143915008Y-36149999I249999J0D01*
G01*
X144615010Y-36149999D01*
G75*
G02*
X144865009Y-36399998I0J-249999D01*
G01*
X144865009Y-37650000D01*
G75*
G02*
X144615010Y-37899999I-249999J0D01*
G01*
X143915008Y-37899999D01*
G75*
G02*
X143665009Y-37650000I0J249999D01*
G01*
G37*
G04 #@! TD.AperFunction*
D14*
G04 #@! TO.N,Board_2-/SPI1_SCK*
X146265009Y-37024999D03*
G04 #@! TO.N,Board_2-/SPI1_MOSI*
X148265009Y-37024999D03*
G04 #@! TO.N,Board_2-/SPI1_MISO*
X150265009Y-37024999D03*
G04 #@! TO.N,Board_2-/DRV_EN*
X152265009Y-37024999D03*
G04 #@! TO.N,Board_2-/Connectors/FAULT*
X154265009Y-37024999D03*
G04 #@! TD*
G04 #@! TO.N,Board_2-/WL*
G04 #@! TO.C,J3*
G04 #@! TA.AperFunction,ComponentPad*
G36*
G01*
X143665009Y-32570000D02*
X143665009Y-31319998D01*
G75*
G02*
X143915008Y-31069999I249999J0D01*
G01*
X144615010Y-31069999D01*
G75*
G02*
X144865009Y-31319998I0J-249999D01*
G01*
X144865009Y-32570000D01*
G75*
G02*
X144615010Y-32819999I-249999J0D01*
G01*
X143915008Y-32819999D01*
G75*
G02*
X143665009Y-32570000I0J249999D01*
G01*
G37*
G04 #@! TD.AperFunction*
G04 #@! TO.N,Board_2-/WH*
X146265009Y-31944999D03*
G04 #@! TO.N,Board_2-/VL*
X148265009Y-31944999D03*
G04 #@! TO.N,Board_2-/VH*
X150265009Y-31944999D03*
G04 #@! TO.N,Board_2-/UL*
X152265009Y-31944999D03*
G04 #@! TO.N,Board_2-/UH*
X154265009Y-31944999D03*
G04 #@! TD*
D15*
G04 #@! TO.N,Board_2-/+VM*
G04 #@! TO.C,U2*
X182365009Y-33214999D03*
D16*
G04 #@! TO.N,Board_2-GND*
X187445009Y-33214999D03*
G04 #@! TD*
D15*
G04 #@! TO.N,Board_2-/U*
G04 #@! TO.C,U3*
X196335009Y-49724999D03*
G04 #@! TO.N,Board_2-/V*
X196335009Y-54804999D03*
D16*
G04 #@! TO.N,Board_2-/W*
X196335009Y-59884999D03*
G04 #@! TD*
D11*
G04 #@! TO.N,Board_2-GND*
G04 #@! TO.C,H201*
X145535009Y-64964999D03*
D10*
X147935009Y-64964999D03*
X147232065Y-66662055D03*
X145535009Y-67364999D03*
X143837953Y-66662055D03*
X143135009Y-64964999D03*
X143837953Y-63267943D03*
X145535009Y-62564999D03*
X147232065Y-63267943D03*
G04 #@! TD*
G04 #@! TO.N,Board_1-GND*
G04 #@! TO.C,H202*
X87282060Y-44217943D03*
X85585004Y-43514999D03*
X83887948Y-44217943D03*
X83185004Y-45914999D03*
X83887948Y-47612055D03*
X85585004Y-48314999D03*
X87282060Y-47612055D03*
X87985004Y-45914999D03*
D11*
X85585004Y-45914999D03*
G04 #@! TD*
G04 #@! TO.N,Board_1-/ADC_I_u*
G04 #@! TO.C,J6*
G04 #@! TA.AperFunction,ComponentPad*
G36*
G01*
X135760003Y-40234999D02*
X137010005Y-40234999D01*
G75*
G02*
X137260004Y-40484998I0J-249999D01*
G01*
X137260004Y-41185000D01*
G75*
G02*
X137010005Y-41434999I-249999J0D01*
G01*
X135760003Y-41434999D01*
G75*
G02*
X135510004Y-41185000I0J249999D01*
G01*
X135510004Y-40484998D01*
G75*
G02*
X135760003Y-40234999I249999J0D01*
G01*
G37*
G04 #@! TD.AperFunction*
D12*
G04 #@! TO.N,Board_1-/ADC_I_v*
X136385004Y-42834999D03*
G04 #@! TO.N,Board_1-/ADC_I_w*
X136385004Y-44834999D03*
G04 #@! TD*
G04 #@! TO.N,Board_1-Net-(C17-Pad1)*
G04 #@! TO.C,J5*
G04 #@! TA.AperFunction,ComponentPad*
G36*
G01*
X135760003Y-64364999D02*
X137010005Y-64364999D01*
G75*
G02*
X137260004Y-64614998I0J-249999D01*
G01*
X137260004Y-65315000D01*
G75*
G02*
X137010005Y-65564999I-249999J0D01*
G01*
X135760003Y-65564999D01*
G75*
G02*
X135510004Y-65315000I0J249999D01*
G01*
X135510004Y-64614998D01*
G75*
G02*
X135760003Y-64364999I249999J0D01*
G01*
G37*
G04 #@! TD.AperFunction*
G04 #@! TO.N,Board_1-GND*
X136385004Y-66964999D03*
G04 #@! TD*
G04 #@! TO.N,Board_1-/Connectors/+VCC_IO*
G04 #@! TO.C,J2*
G04 #@! TA.AperFunction,ComponentPad*
G36*
G01*
X135760003Y-32614999D02*
X137010005Y-32614999D01*
G75*
G02*
X137260004Y-32864998I0J-249999D01*
G01*
X137260004Y-33565000D01*
G75*
G02*
X137010005Y-33814999I-249999J0D01*
G01*
X135760003Y-33814999D01*
G75*
G02*
X135510004Y-33565000I0J249999D01*
G01*
X135510004Y-32864998D01*
G75*
G02*
X135760003Y-32614999I249999J0D01*
G01*
G37*
G04 #@! TD.AperFunction*
G04 #@! TO.N,Board_1-GND*
X136385004Y-35214999D03*
G04 #@! TD*
D13*
G04 #@! TO.N,Board_1-/+VM*
G04 #@! TO.C,C15*
X113525004Y-37024999D03*
G04 #@! TO.N,Board_1-GND*
X113525004Y-32024999D03*
G04 #@! TD*
G04 #@! TO.N,Board_1-/+VM*
G04 #@! TO.C,C16*
X102095004Y-37024999D03*
G04 #@! TO.N,Board_1-GND*
X102095004Y-32024999D03*
G04 #@! TD*
G04 #@! TO.N,Board_1-/~CS_DRIVER*
G04 #@! TO.C,J1*
G04 #@! TA.AperFunction,ComponentPad*
G36*
G01*
X83715004Y-37650000D02*
X83715004Y-36399998D01*
G75*
G02*
X83965003Y-36149999I249999J0D01*
G01*
X84665005Y-36149999D01*
G75*
G02*
X84915004Y-36399998I0J-249999D01*
G01*
X84915004Y-37650000D01*
G75*
G02*
X84665005Y-37899999I-249999J0D01*
G01*
X83965003Y-37899999D01*
G75*
G02*
X83715004Y-37650000I0J249999D01*
G01*
G37*
G04 #@! TD.AperFunction*
D14*
G04 #@! TO.N,Board_1-/SPI1_SCK*
X86315004Y-37024999D03*
G04 #@! TO.N,Board_1-/SPI1_MOSI*
X88315004Y-37024999D03*
G04 #@! TO.N,Board_1-/SPI1_MISO*
X90315004Y-37024999D03*
G04 #@! TO.N,Board_1-/DRV_EN*
X92315004Y-37024999D03*
G04 #@! TO.N,Board_1-/Connectors/FAULT*
X94315004Y-37024999D03*
G04 #@! TD*
G04 #@! TO.N,Board_1-/WL*
G04 #@! TO.C,J3*
G04 #@! TA.AperFunction,ComponentPad*
G36*
G01*
X83715004Y-32570000D02*
X83715004Y-31319998D01*
G75*
G02*
X83965003Y-31069999I249999J0D01*
G01*
X84665005Y-31069999D01*
G75*
G02*
X84915004Y-31319998I0J-249999D01*
G01*
X84915004Y-32570000D01*
G75*
G02*
X84665005Y-32819999I-249999J0D01*
G01*
X83965003Y-32819999D01*
G75*
G02*
X83715004Y-32570000I0J249999D01*
G01*
G37*
G04 #@! TD.AperFunction*
G04 #@! TO.N,Board_1-/WH*
X86315004Y-31944999D03*
G04 #@! TO.N,Board_1-/VL*
X88315004Y-31944999D03*
G04 #@! TO.N,Board_1-/VH*
X90315004Y-31944999D03*
G04 #@! TO.N,Board_1-/UL*
X92315004Y-31944999D03*
G04 #@! TO.N,Board_1-/UH*
X94315004Y-31944999D03*
G04 #@! TD*
D15*
G04 #@! TO.N,Board_1-/+VM*
G04 #@! TO.C,U2*
X122415004Y-33214999D03*
D16*
G04 #@! TO.N,Board_1-GND*
X127495004Y-33214999D03*
G04 #@! TD*
D15*
G04 #@! TO.N,Board_1-/U*
G04 #@! TO.C,U3*
X136385004Y-49724999D03*
G04 #@! TO.N,Board_1-/V*
X136385004Y-54804999D03*
D16*
G04 #@! TO.N,Board_1-/W*
X136385004Y-59884999D03*
G04 #@! TD*
D11*
G04 #@! TO.N,Board_1-GND*
G04 #@! TO.C,H201*
X85585004Y-64964999D03*
D10*
X87985004Y-64964999D03*
X87282060Y-66662055D03*
X85585004Y-67364999D03*
X83887948Y-66662055D03*
X83185004Y-64964999D03*
X83887948Y-63267943D03*
X85585004Y-62564999D03*
X87282060Y-63267943D03*
G04 #@! TD*
G04 #@! TO.N,Board_0-GND*
G04 #@! TO.C,H202*
X27332055Y-44217943D03*
X25634999Y-43514999D03*
X23937943Y-44217943D03*
X23234999Y-45914999D03*
X23937943Y-47612055D03*
X25634999Y-48314999D03*
X27332055Y-47612055D03*
X28034999Y-45914999D03*
D11*
X25634999Y-45914999D03*
G04 #@! TD*
G04 #@! TO.N,Board_0-/ADC_I_u*
G04 #@! TO.C,J6*
G04 #@! TA.AperFunction,ComponentPad*
G36*
G01*
X75809998Y-40234999D02*
X77060000Y-40234999D01*
G75*
G02*
X77309999Y-40484998I0J-249999D01*
G01*
X77309999Y-41185000D01*
G75*
G02*
X77060000Y-41434999I-249999J0D01*
G01*
X75809998Y-41434999D01*
G75*
G02*
X75559999Y-41185000I0J249999D01*
G01*
X75559999Y-40484998D01*
G75*
G02*
X75809998Y-40234999I249999J0D01*
G01*
G37*
G04 #@! TD.AperFunction*
D12*
G04 #@! TO.N,Board_0-/ADC_I_v*
X76434999Y-42834999D03*
G04 #@! TO.N,Board_0-/ADC_I_w*
X76434999Y-44834999D03*
G04 #@! TD*
G04 #@! TO.N,Board_0-Net-(C17-Pad1)*
G04 #@! TO.C,J5*
G04 #@! TA.AperFunction,ComponentPad*
G36*
G01*
X75809998Y-64364999D02*
X77060000Y-64364999D01*
G75*
G02*
X77309999Y-64614998I0J-249999D01*
G01*
X77309999Y-65315000D01*
G75*
G02*
X77060000Y-65564999I-249999J0D01*
G01*
X75809998Y-65564999D01*
G75*
G02*
X75559999Y-65315000I0J249999D01*
G01*
X75559999Y-64614998D01*
G75*
G02*
X75809998Y-64364999I249999J0D01*
G01*
G37*
G04 #@! TD.AperFunction*
G04 #@! TO.N,Board_0-GND*
X76434999Y-66964999D03*
G04 #@! TD*
G04 #@! TO.N,Board_0-/Connectors/+VCC_IO*
G04 #@! TO.C,J2*
G04 #@! TA.AperFunction,ComponentPad*
G36*
G01*
X75809998Y-32614999D02*
X77060000Y-32614999D01*
G75*
G02*
X77309999Y-32864998I0J-249999D01*
G01*
X77309999Y-33565000D01*
G75*
G02*
X77060000Y-33814999I-249999J0D01*
G01*
X75809998Y-33814999D01*
G75*
G02*
X75559999Y-33565000I0J249999D01*
G01*
X75559999Y-32864998D01*
G75*
G02*
X75809998Y-32614999I249999J0D01*
G01*
G37*
G04 #@! TD.AperFunction*
G04 #@! TO.N,Board_0-GND*
X76434999Y-35214999D03*
G04 #@! TD*
D13*
G04 #@! TO.N,Board_0-/+VM*
G04 #@! TO.C,C15*
X53574999Y-37024999D03*
G04 #@! TO.N,Board_0-GND*
X53574999Y-32024999D03*
G04 #@! TD*
G04 #@! TO.N,Board_0-/+VM*
G04 #@! TO.C,C16*
X42144999Y-37024999D03*
G04 #@! TO.N,Board_0-GND*
X42144999Y-32024999D03*
G04 #@! TD*
G04 #@! TO.N,Board_0-/~CS_DRIVER*
G04 #@! TO.C,J1*
G04 #@! TA.AperFunction,ComponentPad*
G36*
G01*
X23764999Y-37650000D02*
X23764999Y-36399998D01*
G75*
G02*
X24014998Y-36149999I249999J0D01*
G01*
X24715000Y-36149999D01*
G75*
G02*
X24964999Y-36399998I0J-249999D01*
G01*
X24964999Y-37650000D01*
G75*
G02*
X24715000Y-37899999I-249999J0D01*
G01*
X24014998Y-37899999D01*
G75*
G02*
X23764999Y-37650000I0J249999D01*
G01*
G37*
G04 #@! TD.AperFunction*
D14*
G04 #@! TO.N,Board_0-/SPI1_SCK*
X26364999Y-37024999D03*
G04 #@! TO.N,Board_0-/SPI1_MOSI*
X28364999Y-37024999D03*
G04 #@! TO.N,Board_0-/SPI1_MISO*
X30364999Y-37024999D03*
G04 #@! TO.N,Board_0-/DRV_EN*
X32364999Y-37024999D03*
G04 #@! TO.N,Board_0-/Connectors/FAULT*
X34364999Y-37024999D03*
G04 #@! TD*
G04 #@! TO.N,Board_0-/WL*
G04 #@! TO.C,J3*
G04 #@! TA.AperFunction,ComponentPad*
G36*
G01*
X23764999Y-32570000D02*
X23764999Y-31319998D01*
G75*
G02*
X24014998Y-31069999I249999J0D01*
G01*
X24715000Y-31069999D01*
G75*
G02*
X24964999Y-31319998I0J-249999D01*
G01*
X24964999Y-32570000D01*
G75*
G02*
X24715000Y-32819999I-249999J0D01*
G01*
X24014998Y-32819999D01*
G75*
G02*
X23764999Y-32570000I0J249999D01*
G01*
G37*
G04 #@! TD.AperFunction*
G04 #@! TO.N,Board_0-/WH*
X26364999Y-31944999D03*
G04 #@! TO.N,Board_0-/VL*
X28364999Y-31944999D03*
G04 #@! TO.N,Board_0-/VH*
X30364999Y-31944999D03*
G04 #@! TO.N,Board_0-/UL*
X32364999Y-31944999D03*
G04 #@! TO.N,Board_0-/UH*
X34364999Y-31944999D03*
G04 #@! TD*
D15*
G04 #@! TO.N,Board_0-/+VM*
G04 #@! TO.C,U2*
X62464999Y-33214999D03*
D16*
G04 #@! TO.N,Board_0-GND*
X67544999Y-33214999D03*
G04 #@! TD*
D15*
G04 #@! TO.N,Board_0-/U*
G04 #@! TO.C,U3*
X76434999Y-49724999D03*
G04 #@! TO.N,Board_0-/V*
X76434999Y-54804999D03*
D16*
G04 #@! TO.N,Board_0-/W*
X76434999Y-59884999D03*
G04 #@! TD*
D11*
G04 #@! TO.N,Board_0-GND*
G04 #@! TO.C,H201*
X25634999Y-64964999D03*
D10*
X28034999Y-64964999D03*
X27332055Y-66662055D03*
X25634999Y-67364999D03*
X23937943Y-66662055D03*
X23234999Y-64964999D03*
X23937943Y-63267943D03*
X25634999Y-62564999D03*
X27332055Y-63267943D03*
G04 #@! TD*
D17*
G04 #@! TO.N,Board_0-/+VM*
X58654999Y-40064999D03*
X59924999Y-40064999D03*
X61194999Y-40064999D03*
X62464999Y-40064999D03*
X63734999Y-40064999D03*
X58654999Y-41334999D03*
X58654999Y-42604999D03*
X58654999Y-43874999D03*
X58654999Y-45144999D03*
X50634999Y-52764999D03*
X50634999Y-47684999D03*
X54444999Y-47684999D03*
X50634999Y-48954999D03*
X50634999Y-50224999D03*
X50634999Y-51494999D03*
X55714999Y-47684999D03*
X51904999Y-47684999D03*
X53174999Y-47684999D03*
X59924999Y-57844999D03*
X58654999Y-60384999D03*
X63734999Y-57844999D03*
X58654999Y-59114999D03*
X58654999Y-57844999D03*
X58654999Y-61654999D03*
X58654999Y-62924999D03*
X61194999Y-57844999D03*
X62464999Y-57844999D03*
G04 #@! TO.N,Board_0-Net-(C4-Pad1)*
X68044999Y-45914999D03*
X68044999Y-44644999D03*
X68044999Y-43374999D03*
X68044999Y-42104999D03*
X68044999Y-40834999D03*
X66774999Y-43374999D03*
X66774999Y-44644999D03*
X66774999Y-45914999D03*
X66814999Y-42104999D03*
X66814999Y-40834999D03*
G04 #@! TO.N,Board_0-Net-(C5-Pad2)*
X66674999Y-68774999D03*
X67944999Y-63694999D03*
X67944999Y-64964999D03*
X67944999Y-66234999D03*
X67944999Y-67504999D03*
X67944999Y-68774999D03*
X66674999Y-67504999D03*
X66674999Y-66234999D03*
X66674999Y-64964999D03*
X66674999Y-63694999D03*
G04 #@! TO.N,Board_0-Net-(C6-Pad1)*
X58454999Y-52264999D03*
X58454999Y-53534999D03*
X58454999Y-54804999D03*
X58454999Y-56074999D03*
X56114999Y-54434999D03*
X57384999Y-54434999D03*
X54844999Y-54434999D03*
X53574999Y-54434999D03*
G04 #@! TO.N,Board_1-/+VM*
X118605004Y-40064999D03*
X119875004Y-40064999D03*
X121145004Y-40064999D03*
X122415004Y-40064999D03*
X123685004Y-40064999D03*
X118605004Y-41334999D03*
X118605004Y-42604999D03*
X118605004Y-43874999D03*
X118605004Y-45144999D03*
X110585004Y-52764999D03*
X110585004Y-47684999D03*
X114395004Y-47684999D03*
X110585004Y-48954999D03*
X110585004Y-50224999D03*
X110585004Y-51494999D03*
X115665004Y-47684999D03*
X111855004Y-47684999D03*
X113125004Y-47684999D03*
X119875004Y-57844999D03*
X118605004Y-60384999D03*
X123685004Y-57844999D03*
X118605004Y-59114999D03*
X118605004Y-57844999D03*
X118605004Y-61654999D03*
X118605004Y-62924999D03*
X121145004Y-57844999D03*
X122415004Y-57844999D03*
G04 #@! TO.N,Board_1-Net-(C4-Pad1)*
X127995004Y-45914999D03*
X127995004Y-44644999D03*
X127995004Y-43374999D03*
X127995004Y-42104999D03*
X127995004Y-40834999D03*
X126725004Y-43374999D03*
X126725004Y-44644999D03*
X126725004Y-45914999D03*
X126765004Y-42104999D03*
X126765004Y-40834999D03*
G04 #@! TO.N,Board_1-Net-(C5-Pad2)*
X126625004Y-68774999D03*
X127895004Y-63694999D03*
X127895004Y-64964999D03*
X127895004Y-66234999D03*
X127895004Y-67504999D03*
X127895004Y-68774999D03*
X126625004Y-67504999D03*
X126625004Y-66234999D03*
X126625004Y-64964999D03*
X126625004Y-63694999D03*
G04 #@! TO.N,Board_1-Net-(C6-Pad1)*
X118405004Y-52264999D03*
X118405004Y-53534999D03*
X118405004Y-54804999D03*
X118405004Y-56074999D03*
X116065004Y-54434999D03*
X117335004Y-54434999D03*
X114795004Y-54434999D03*
X113525004Y-54434999D03*
G04 #@! TO.N,Board_2-/+VM*
X178555009Y-40064999D03*
X179825009Y-40064999D03*
X181095009Y-40064999D03*
X182365009Y-40064999D03*
X183635009Y-40064999D03*
X178555009Y-41334999D03*
X178555009Y-42604999D03*
X178555009Y-43874999D03*
X178555009Y-45144999D03*
X170535009Y-52764999D03*
X170535009Y-47684999D03*
X174345009Y-47684999D03*
X170535009Y-48954999D03*
X170535009Y-50224999D03*
X170535009Y-51494999D03*
X175615009Y-47684999D03*
X171805009Y-47684999D03*
X173075009Y-47684999D03*
X179825009Y-57844999D03*
X178555009Y-60384999D03*
X183635009Y-57844999D03*
X178555009Y-59114999D03*
X178555009Y-57844999D03*
X178555009Y-61654999D03*
X178555009Y-62924999D03*
X181095009Y-57844999D03*
X182365009Y-57844999D03*
G04 #@! TO.N,Board_2-Net-(C4-Pad1)*
X187945009Y-45914999D03*
X187945009Y-44644999D03*
X187945009Y-43374999D03*
X187945009Y-42104999D03*
X187945009Y-40834999D03*
X186675009Y-43374999D03*
X186675009Y-44644999D03*
X186675009Y-45914999D03*
X186715009Y-42104999D03*
X186715009Y-40834999D03*
G04 #@! TO.N,Board_2-Net-(C5-Pad2)*
X186575009Y-68774999D03*
X187845009Y-63694999D03*
X187845009Y-64964999D03*
X187845009Y-66234999D03*
X187845009Y-67504999D03*
X187845009Y-68774999D03*
X186575009Y-67504999D03*
X186575009Y-66234999D03*
X186575009Y-64964999D03*
X186575009Y-63694999D03*
G04 #@! TO.N,Board_2-Net-(C6-Pad1)*
X178355009Y-52264999D03*
X178355009Y-53534999D03*
X178355009Y-54804999D03*
X178355009Y-56074999D03*
X176015009Y-54434999D03*
X177285009Y-54434999D03*
X174745009Y-54434999D03*
X173475009Y-54434999D03*
G04 #@! TO.N,Board_3-/+VM*
X238505014Y-40064999D03*
X239775014Y-40064999D03*
X241045014Y-40064999D03*
X242315014Y-40064999D03*
X243585014Y-40064999D03*
X238505014Y-41334999D03*
X238505014Y-42604999D03*
X238505014Y-43874999D03*
X238505014Y-45144999D03*
X230485014Y-52764999D03*
X230485014Y-47684999D03*
X234295014Y-47684999D03*
X230485014Y-48954999D03*
X230485014Y-50224999D03*
X230485014Y-51494999D03*
X235565014Y-47684999D03*
X231755014Y-47684999D03*
X233025014Y-47684999D03*
X239775014Y-57844999D03*
X238505014Y-60384999D03*
X243585014Y-57844999D03*
X238505014Y-59114999D03*
X238505014Y-57844999D03*
X238505014Y-61654999D03*
X238505014Y-62924999D03*
X241045014Y-57844999D03*
X242315014Y-57844999D03*
G04 #@! TO.N,Board_3-Net-(C4-Pad1)*
X247895014Y-45914999D03*
X247895014Y-44644999D03*
X247895014Y-43374999D03*
X247895014Y-42104999D03*
X247895014Y-40834999D03*
X246625014Y-43374999D03*
X246625014Y-44644999D03*
X246625014Y-45914999D03*
X246665014Y-42104999D03*
X246665014Y-40834999D03*
G04 #@! TO.N,Board_3-Net-(C5-Pad2)*
X246525014Y-68774999D03*
X247795014Y-63694999D03*
X247795014Y-64964999D03*
X247795014Y-66234999D03*
X247795014Y-67504999D03*
X247795014Y-68774999D03*
X246525014Y-67504999D03*
X246525014Y-66234999D03*
X246525014Y-64964999D03*
X246525014Y-63694999D03*
G04 #@! TO.N,Board_3-Net-(C6-Pad1)*
X238305014Y-52264999D03*
X238305014Y-53534999D03*
X238305014Y-54804999D03*
X238305014Y-56074999D03*
X235965014Y-54434999D03*
X237235014Y-54434999D03*
X234695014Y-54434999D03*
X233425014Y-54434999D03*
G04 #@! TO.N,Board_4-/+VM*
X58654999Y-82055004D03*
X59924999Y-82055004D03*
X61194999Y-82055004D03*
X62464999Y-82055004D03*
X63734999Y-82055004D03*
X58654999Y-83325004D03*
X58654999Y-84595004D03*
X58654999Y-85865004D03*
X58654999Y-87135004D03*
X50634999Y-94755004D03*
X50634999Y-89675004D03*
X54444999Y-89675004D03*
X50634999Y-90945004D03*
X50634999Y-92215004D03*
X50634999Y-93485004D03*
X55714999Y-89675004D03*
X51904999Y-89675004D03*
X53174999Y-89675004D03*
X59924999Y-99835004D03*
X58654999Y-102375004D03*
X63734999Y-99835004D03*
X58654999Y-101105004D03*
X58654999Y-99835004D03*
X58654999Y-103645004D03*
X58654999Y-104915004D03*
X61194999Y-99835004D03*
X62464999Y-99835004D03*
G04 #@! TO.N,Board_4-Net-(C4-Pad1)*
X68044999Y-87905004D03*
X68044999Y-86635004D03*
X68044999Y-85365004D03*
X68044999Y-84095004D03*
X68044999Y-82825004D03*
X66774999Y-85365004D03*
X66774999Y-86635004D03*
X66774999Y-87905004D03*
X66814999Y-84095004D03*
X66814999Y-82825004D03*
G04 #@! TO.N,Board_4-Net-(C5-Pad2)*
X66674999Y-110765004D03*
X67944999Y-105685004D03*
X67944999Y-106955004D03*
X67944999Y-108225004D03*
X67944999Y-109495004D03*
X67944999Y-110765004D03*
X66674999Y-109495004D03*
X66674999Y-108225004D03*
X66674999Y-106955004D03*
X66674999Y-105685004D03*
G04 #@! TO.N,Board_4-Net-(C6-Pad1)*
X58454999Y-94255004D03*
X58454999Y-95525004D03*
X58454999Y-96795004D03*
X58454999Y-98065004D03*
X56114999Y-96425004D03*
X57384999Y-96425004D03*
X54844999Y-96425004D03*
X53574999Y-96425004D03*
G04 #@! TO.N,Board_5-/+VM*
X118605004Y-82055004D03*
X119875004Y-82055004D03*
X121145004Y-82055004D03*
X122415004Y-82055004D03*
X123685004Y-82055004D03*
X118605004Y-83325004D03*
X118605004Y-84595004D03*
X118605004Y-85865004D03*
X118605004Y-87135004D03*
X110585004Y-94755004D03*
X110585004Y-89675004D03*
X114395004Y-89675004D03*
X110585004Y-90945004D03*
X110585004Y-92215004D03*
X110585004Y-93485004D03*
X115665004Y-89675004D03*
X111855004Y-89675004D03*
X113125004Y-89675004D03*
X119875004Y-99835004D03*
X118605004Y-102375004D03*
X123685004Y-99835004D03*
X118605004Y-101105004D03*
X118605004Y-99835004D03*
X118605004Y-103645004D03*
X118605004Y-104915004D03*
X121145004Y-99835004D03*
X122415004Y-99835004D03*
G04 #@! TO.N,Board_5-Net-(C4-Pad1)*
X127995004Y-87905004D03*
X127995004Y-86635004D03*
X127995004Y-85365004D03*
X127995004Y-84095004D03*
X127995004Y-82825004D03*
X126725004Y-85365004D03*
X126725004Y-86635004D03*
X126725004Y-87905004D03*
X126765004Y-84095004D03*
X126765004Y-82825004D03*
G04 #@! TO.N,Board_5-Net-(C5-Pad2)*
X126625004Y-110765004D03*
X127895004Y-105685004D03*
X127895004Y-106955004D03*
X127895004Y-108225004D03*
X127895004Y-109495004D03*
X127895004Y-110765004D03*
X126625004Y-109495004D03*
X126625004Y-108225004D03*
X126625004Y-106955004D03*
X126625004Y-105685004D03*
G04 #@! TO.N,Board_5-Net-(C6-Pad1)*
X118405004Y-94255004D03*
X118405004Y-95525004D03*
X118405004Y-96795004D03*
X118405004Y-98065004D03*
X116065004Y-96425004D03*
X117335004Y-96425004D03*
X114795004Y-96425004D03*
X113525004Y-96425004D03*
G04 #@! TO.N,Board_6-/+VM*
X178555009Y-82055004D03*
X179825009Y-82055004D03*
X181095009Y-82055004D03*
X182365009Y-82055004D03*
X183635009Y-82055004D03*
X178555009Y-83325004D03*
X178555009Y-84595004D03*
X178555009Y-85865004D03*
X178555009Y-87135004D03*
X170535009Y-94755004D03*
X170535009Y-89675004D03*
X174345009Y-89675004D03*
X170535009Y-90945004D03*
X170535009Y-92215004D03*
X170535009Y-93485004D03*
X175615009Y-89675004D03*
X171805009Y-89675004D03*
X173075009Y-89675004D03*
X179825009Y-99835004D03*
X178555009Y-102375004D03*
X183635009Y-99835004D03*
X178555009Y-101105004D03*
X178555009Y-99835004D03*
X178555009Y-103645004D03*
X178555009Y-104915004D03*
X181095009Y-99835004D03*
X182365009Y-99835004D03*
G04 #@! TO.N,Board_6-Net-(C4-Pad1)*
X187945009Y-87905004D03*
X187945009Y-86635004D03*
X187945009Y-85365004D03*
X187945009Y-84095004D03*
X187945009Y-82825004D03*
X186675009Y-85365004D03*
X186675009Y-86635004D03*
X186675009Y-87905004D03*
X186715009Y-84095004D03*
X186715009Y-82825004D03*
G04 #@! TO.N,Board_6-Net-(C5-Pad2)*
X186575009Y-110765004D03*
X187845009Y-105685004D03*
X187845009Y-106955004D03*
X187845009Y-108225004D03*
X187845009Y-109495004D03*
X187845009Y-110765004D03*
X186575009Y-109495004D03*
X186575009Y-108225004D03*
X186575009Y-106955004D03*
X186575009Y-105685004D03*
G04 #@! TO.N,Board_6-Net-(C6-Pad1)*
X178355009Y-94255004D03*
X178355009Y-95525004D03*
X178355009Y-96795004D03*
X178355009Y-98065004D03*
X176015009Y-96425004D03*
X177285009Y-96425004D03*
X174745009Y-96425004D03*
X173475009Y-96425004D03*
G04 #@! TO.N,Board_7-/+VM*
X238505014Y-82055004D03*
X239775014Y-82055004D03*
X241045014Y-82055004D03*
X242315014Y-82055004D03*
X243585014Y-82055004D03*
X238505014Y-83325004D03*
X238505014Y-84595004D03*
X238505014Y-85865004D03*
X238505014Y-87135004D03*
X230485014Y-94755004D03*
X230485014Y-89675004D03*
X234295014Y-89675004D03*
X230485014Y-90945004D03*
X230485014Y-92215004D03*
X230485014Y-93485004D03*
X235565014Y-89675004D03*
X231755014Y-89675004D03*
X233025014Y-89675004D03*
X239775014Y-99835004D03*
X238505014Y-102375004D03*
X243585014Y-99835004D03*
X238505014Y-101105004D03*
X238505014Y-99835004D03*
X238505014Y-103645004D03*
X238505014Y-104915004D03*
X241045014Y-99835004D03*
X242315014Y-99835004D03*
G04 #@! TO.N,Board_7-Net-(C4-Pad1)*
X247895014Y-87905004D03*
X247895014Y-86635004D03*
X247895014Y-85365004D03*
X247895014Y-84095004D03*
X247895014Y-82825004D03*
X246625014Y-85365004D03*
X246625014Y-86635004D03*
X246625014Y-87905004D03*
X246665014Y-84095004D03*
X246665014Y-82825004D03*
G04 #@! TO.N,Board_7-Net-(C5-Pad2)*
X246525014Y-110765004D03*
X247795014Y-105685004D03*
X247795014Y-106955004D03*
X247795014Y-108225004D03*
X247795014Y-109495004D03*
X247795014Y-110765004D03*
X246525014Y-109495004D03*
X246525014Y-108225004D03*
X246525014Y-106955004D03*
X246525014Y-105685004D03*
G04 #@! TO.N,Board_7-Net-(C6-Pad1)*
X238305014Y-94255004D03*
X238305014Y-95525004D03*
X238305014Y-96795004D03*
X238305014Y-98065004D03*
X235965014Y-96425004D03*
X237235014Y-96425004D03*
X234695014Y-96425004D03*
X233425014Y-96425004D03*
G04 #@! TO.N,Board_8-/+VM*
X58654999Y-124045009D03*
X59924999Y-124045009D03*
X61194999Y-124045009D03*
X62464999Y-124045009D03*
X63734999Y-124045009D03*
X58654999Y-125315009D03*
X58654999Y-126585009D03*
X58654999Y-127855009D03*
X58654999Y-129125009D03*
X50634999Y-136745009D03*
X50634999Y-131665009D03*
X54444999Y-131665009D03*
X50634999Y-132935009D03*
X50634999Y-134205009D03*
X50634999Y-135475009D03*
X55714999Y-131665009D03*
X51904999Y-131665009D03*
X53174999Y-131665009D03*
X59924999Y-141825009D03*
X58654999Y-144365009D03*
X63734999Y-141825009D03*
X58654999Y-143095009D03*
X58654999Y-141825009D03*
X58654999Y-145635009D03*
X58654999Y-146905009D03*
X61194999Y-141825009D03*
X62464999Y-141825009D03*
G04 #@! TO.N,Board_8-Net-(C4-Pad1)*
X68044999Y-129895009D03*
X68044999Y-128625009D03*
X68044999Y-127355009D03*
X68044999Y-126085009D03*
X68044999Y-124815009D03*
X66774999Y-127355009D03*
X66774999Y-128625009D03*
X66774999Y-129895009D03*
X66814999Y-126085009D03*
X66814999Y-124815009D03*
G04 #@! TO.N,Board_8-Net-(C5-Pad2)*
X66674999Y-152755009D03*
X67944999Y-147675009D03*
X67944999Y-148945009D03*
X67944999Y-150215009D03*
X67944999Y-151485009D03*
X67944999Y-152755009D03*
X66674999Y-151485009D03*
X66674999Y-150215009D03*
X66674999Y-148945009D03*
X66674999Y-147675009D03*
G04 #@! TO.N,Board_8-Net-(C6-Pad1)*
X58454999Y-136245009D03*
X58454999Y-137515009D03*
X58454999Y-138785009D03*
X58454999Y-140055009D03*
X56114999Y-138415009D03*
X57384999Y-138415009D03*
X54844999Y-138415009D03*
X53574999Y-138415009D03*
G04 #@! TO.N,Board_9-/+VM*
X118605004Y-124045009D03*
X119875004Y-124045009D03*
X121145004Y-124045009D03*
X122415004Y-124045009D03*
X123685004Y-124045009D03*
X118605004Y-125315009D03*
X118605004Y-126585009D03*
X118605004Y-127855009D03*
X118605004Y-129125009D03*
X110585004Y-136745009D03*
X110585004Y-131665009D03*
X114395004Y-131665009D03*
X110585004Y-132935009D03*
X110585004Y-134205009D03*
X110585004Y-135475009D03*
X115665004Y-131665009D03*
X111855004Y-131665009D03*
X113125004Y-131665009D03*
X119875004Y-141825009D03*
X118605004Y-144365009D03*
X123685004Y-141825009D03*
X118605004Y-143095009D03*
X118605004Y-141825009D03*
X118605004Y-145635009D03*
X118605004Y-146905009D03*
X121145004Y-141825009D03*
X122415004Y-141825009D03*
G04 #@! TO.N,Board_9-Net-(C4-Pad1)*
X127995004Y-129895009D03*
X127995004Y-128625009D03*
X127995004Y-127355009D03*
X127995004Y-126085009D03*
X127995004Y-124815009D03*
X126725004Y-127355009D03*
X126725004Y-128625009D03*
X126725004Y-129895009D03*
X126765004Y-126085009D03*
X126765004Y-124815009D03*
G04 #@! TO.N,Board_9-Net-(C5-Pad2)*
X126625004Y-152755009D03*
X127895004Y-147675009D03*
X127895004Y-148945009D03*
X127895004Y-150215009D03*
X127895004Y-151485009D03*
X127895004Y-152755009D03*
X126625004Y-151485009D03*
X126625004Y-150215009D03*
X126625004Y-148945009D03*
X126625004Y-147675009D03*
G04 #@! TO.N,Board_9-Net-(C6-Pad1)*
X118405004Y-136245009D03*
X118405004Y-137515009D03*
X118405004Y-138785009D03*
X118405004Y-140055009D03*
X116065004Y-138415009D03*
X117335004Y-138415009D03*
X114795004Y-138415009D03*
X113525004Y-138415009D03*
G04 #@! TO.N,Board_10-/+VM*
X178555009Y-124045009D03*
X179825009Y-124045009D03*
X181095009Y-124045009D03*
X182365009Y-124045009D03*
X183635009Y-124045009D03*
X178555009Y-125315009D03*
X178555009Y-126585009D03*
X178555009Y-127855009D03*
X178555009Y-129125009D03*
X170535009Y-136745009D03*
X170535009Y-131665009D03*
X174345009Y-131665009D03*
X170535009Y-132935009D03*
X170535009Y-134205009D03*
X170535009Y-135475009D03*
X175615009Y-131665009D03*
X171805009Y-131665009D03*
X173075009Y-131665009D03*
X179825009Y-141825009D03*
X178555009Y-144365009D03*
X183635009Y-141825009D03*
X178555009Y-143095009D03*
X178555009Y-141825009D03*
X178555009Y-145635009D03*
X178555009Y-146905009D03*
X181095009Y-141825009D03*
X182365009Y-141825009D03*
G04 #@! TO.N,Board_10-Net-(C4-Pad1)*
X187945009Y-129895009D03*
X187945009Y-128625009D03*
X187945009Y-127355009D03*
X187945009Y-126085009D03*
X187945009Y-124815009D03*
X186675009Y-127355009D03*
X186675009Y-128625009D03*
X186675009Y-129895009D03*
X186715009Y-126085009D03*
X186715009Y-124815009D03*
G04 #@! TO.N,Board_10-Net-(C5-Pad2)*
X186575009Y-152755009D03*
X187845009Y-147675009D03*
X187845009Y-148945009D03*
X187845009Y-150215009D03*
X187845009Y-151485009D03*
X187845009Y-152755009D03*
X186575009Y-151485009D03*
X186575009Y-150215009D03*
X186575009Y-148945009D03*
X186575009Y-147675009D03*
G04 #@! TO.N,Board_10-Net-(C6-Pad1)*
X178355009Y-136245009D03*
X178355009Y-137515009D03*
X178355009Y-138785009D03*
X178355009Y-140055009D03*
X176015009Y-138415009D03*
X177285009Y-138415009D03*
X174745009Y-138415009D03*
X173475009Y-138415009D03*
G04 #@! TO.N,Board_11-/+VM*
X238505014Y-124045009D03*
X239775014Y-124045009D03*
X241045014Y-124045009D03*
X242315014Y-124045009D03*
X243585014Y-124045009D03*
X238505014Y-125315009D03*
X238505014Y-126585009D03*
X238505014Y-127855009D03*
X238505014Y-129125009D03*
X230485014Y-136745009D03*
X230485014Y-131665009D03*
X234295014Y-131665009D03*
X230485014Y-132935009D03*
X230485014Y-134205009D03*
X230485014Y-135475009D03*
X235565014Y-131665009D03*
X231755014Y-131665009D03*
X233025014Y-131665009D03*
X239775014Y-141825009D03*
X238505014Y-144365009D03*
X243585014Y-141825009D03*
X238505014Y-143095009D03*
X238505014Y-141825009D03*
X238505014Y-145635009D03*
X238505014Y-146905009D03*
X241045014Y-141825009D03*
X242315014Y-141825009D03*
G04 #@! TO.N,Board_11-Net-(C4-Pad1)*
X247895014Y-129895009D03*
X247895014Y-128625009D03*
X247895014Y-127355009D03*
X247895014Y-126085009D03*
X247895014Y-124815009D03*
X246625014Y-127355009D03*
X246625014Y-128625009D03*
X246625014Y-129895009D03*
X246665014Y-126085009D03*
X246665014Y-124815009D03*
G04 #@! TO.N,Board_11-Net-(C5-Pad2)*
X246525014Y-152755009D03*
X247795014Y-147675009D03*
X247795014Y-148945009D03*
X247795014Y-150215009D03*
X247795014Y-151485009D03*
X247795014Y-152755009D03*
X246525014Y-151485009D03*
X246525014Y-150215009D03*
X246525014Y-148945009D03*
X246525014Y-147675009D03*
G04 #@! TO.N,Board_11-Net-(C6-Pad1)*
X238305014Y-136245009D03*
X238305014Y-137515009D03*
X238305014Y-138785009D03*
X238305014Y-140055009D03*
X235965014Y-138415009D03*
X237235014Y-138415009D03*
X234695014Y-138415009D03*
X233425014Y-138415009D03*
G04 #@! TO.N,Board_12-/+VM*
X58654999Y-166035014D03*
X59924999Y-166035014D03*
X61194999Y-166035014D03*
X62464999Y-166035014D03*
X63734999Y-166035014D03*
X58654999Y-167305014D03*
X58654999Y-168575014D03*
X58654999Y-169845014D03*
X58654999Y-171115014D03*
X50634999Y-178735014D03*
X50634999Y-173655014D03*
X54444999Y-173655014D03*
X50634999Y-174925014D03*
X50634999Y-176195014D03*
X50634999Y-177465014D03*
X55714999Y-173655014D03*
X51904999Y-173655014D03*
X53174999Y-173655014D03*
X59924999Y-183815014D03*
X58654999Y-186355014D03*
X63734999Y-183815014D03*
X58654999Y-185085014D03*
X58654999Y-183815014D03*
X58654999Y-187625014D03*
X58654999Y-188895014D03*
X61194999Y-183815014D03*
X62464999Y-183815014D03*
G04 #@! TO.N,Board_12-Net-(C4-Pad1)*
X68044999Y-171885014D03*
X68044999Y-170615014D03*
X68044999Y-169345014D03*
X68044999Y-168075014D03*
X68044999Y-166805014D03*
X66774999Y-169345014D03*
X66774999Y-170615014D03*
X66774999Y-171885014D03*
X66814999Y-168075014D03*
X66814999Y-166805014D03*
G04 #@! TO.N,Board_12-Net-(C5-Pad2)*
X66674999Y-194745014D03*
X67944999Y-189665014D03*
X67944999Y-190935014D03*
X67944999Y-192205014D03*
X67944999Y-193475014D03*
X67944999Y-194745014D03*
X66674999Y-193475014D03*
X66674999Y-192205014D03*
X66674999Y-190935014D03*
X66674999Y-189665014D03*
G04 #@! TO.N,Board_12-Net-(C6-Pad1)*
X58454999Y-178235014D03*
X58454999Y-179505014D03*
X58454999Y-180775014D03*
X58454999Y-182045014D03*
X56114999Y-180405014D03*
X57384999Y-180405014D03*
X54844999Y-180405014D03*
X53574999Y-180405014D03*
G04 #@! TO.N,Board_13-/+VM*
X118605004Y-166035014D03*
X119875004Y-166035014D03*
X121145004Y-166035014D03*
X122415004Y-166035014D03*
X123685004Y-166035014D03*
X118605004Y-167305014D03*
X118605004Y-168575014D03*
X118605004Y-169845014D03*
X118605004Y-171115014D03*
X110585004Y-178735014D03*
X110585004Y-173655014D03*
X114395004Y-173655014D03*
X110585004Y-174925014D03*
X110585004Y-176195014D03*
X110585004Y-177465014D03*
X115665004Y-173655014D03*
X111855004Y-173655014D03*
X113125004Y-173655014D03*
X119875004Y-183815014D03*
X118605004Y-186355014D03*
X123685004Y-183815014D03*
X118605004Y-185085014D03*
X118605004Y-183815014D03*
X118605004Y-187625014D03*
X118605004Y-188895014D03*
X121145004Y-183815014D03*
X122415004Y-183815014D03*
G04 #@! TO.N,Board_13-Net-(C4-Pad1)*
X127995004Y-171885014D03*
X127995004Y-170615014D03*
X127995004Y-169345014D03*
X127995004Y-168075014D03*
X127995004Y-166805014D03*
X126725004Y-169345014D03*
X126725004Y-170615014D03*
X126725004Y-171885014D03*
X126765004Y-168075014D03*
X126765004Y-166805014D03*
G04 #@! TO.N,Board_13-Net-(C5-Pad2)*
X126625004Y-194745014D03*
X127895004Y-189665014D03*
X127895004Y-190935014D03*
X127895004Y-192205014D03*
X127895004Y-193475014D03*
X127895004Y-194745014D03*
X126625004Y-193475014D03*
X126625004Y-192205014D03*
X126625004Y-190935014D03*
X126625004Y-189665014D03*
G04 #@! TO.N,Board_13-Net-(C6-Pad1)*
X118405004Y-178235014D03*
X118405004Y-179505014D03*
X118405004Y-180775014D03*
X118405004Y-182045014D03*
X116065004Y-180405014D03*
X117335004Y-180405014D03*
X114795004Y-180405014D03*
X113525004Y-180405014D03*
G04 #@! TO.N,Board_14-/+VM*
X178555009Y-166035014D03*
X179825009Y-166035014D03*
X181095009Y-166035014D03*
X182365009Y-166035014D03*
X183635009Y-166035014D03*
X178555009Y-167305014D03*
X178555009Y-168575014D03*
X178555009Y-169845014D03*
X178555009Y-171115014D03*
X170535009Y-178735014D03*
X170535009Y-173655014D03*
X174345009Y-173655014D03*
X170535009Y-174925014D03*
X170535009Y-176195014D03*
X170535009Y-177465014D03*
X175615009Y-173655014D03*
X171805009Y-173655014D03*
X173075009Y-173655014D03*
X179825009Y-183815014D03*
X178555009Y-186355014D03*
X183635009Y-183815014D03*
X178555009Y-185085014D03*
X178555009Y-183815014D03*
X178555009Y-187625014D03*
X178555009Y-188895014D03*
X181095009Y-183815014D03*
X182365009Y-183815014D03*
G04 #@! TO.N,Board_14-Net-(C4-Pad1)*
X187945009Y-171885014D03*
X187945009Y-170615014D03*
X187945009Y-169345014D03*
X187945009Y-168075014D03*
X187945009Y-166805014D03*
X186675009Y-169345014D03*
X186675009Y-170615014D03*
X186675009Y-171885014D03*
X186715009Y-168075014D03*
X186715009Y-166805014D03*
G04 #@! TO.N,Board_14-Net-(C5-Pad2)*
X186575009Y-194745014D03*
X187845009Y-189665014D03*
X187845009Y-190935014D03*
X187845009Y-192205014D03*
X187845009Y-193475014D03*
X187845009Y-194745014D03*
X186575009Y-193475014D03*
X186575009Y-192205014D03*
X186575009Y-190935014D03*
X186575009Y-189665014D03*
G04 #@! TO.N,Board_14-Net-(C6-Pad1)*
X178355009Y-178235014D03*
X178355009Y-179505014D03*
X178355009Y-180775014D03*
X178355009Y-182045014D03*
X176015009Y-180405014D03*
X177285009Y-180405014D03*
X174745009Y-180405014D03*
X173475009Y-180405014D03*
G04 #@! TO.N,Board_15-/+VM*
X238505014Y-166035014D03*
X239775014Y-166035014D03*
X241045014Y-166035014D03*
X242315014Y-166035014D03*
X243585014Y-166035014D03*
X238505014Y-167305014D03*
X238505014Y-168575014D03*
X238505014Y-169845014D03*
X238505014Y-171115014D03*
X230485014Y-178735014D03*
X230485014Y-173655014D03*
X234295014Y-173655014D03*
X230485014Y-174925014D03*
X230485014Y-176195014D03*
X230485014Y-177465014D03*
X235565014Y-173655014D03*
X231755014Y-173655014D03*
X233025014Y-173655014D03*
X239775014Y-183815014D03*
X238505014Y-186355014D03*
X243585014Y-183815014D03*
X238505014Y-185085014D03*
X238505014Y-183815014D03*
X238505014Y-187625014D03*
X238505014Y-188895014D03*
X241045014Y-183815014D03*
X242315014Y-183815014D03*
G04 #@! TO.N,Board_15-Net-(C4-Pad1)*
X247895014Y-171885014D03*
X247895014Y-170615014D03*
X247895014Y-169345014D03*
X247895014Y-168075014D03*
X247895014Y-166805014D03*
X246625014Y-169345014D03*
X246625014Y-170615014D03*
X246625014Y-171885014D03*
X246665014Y-168075014D03*
X246665014Y-166805014D03*
G04 #@! TO.N,Board_15-Net-(C5-Pad2)*
X246525014Y-194745014D03*
X247795014Y-189665014D03*
X247795014Y-190935014D03*
X247795014Y-192205014D03*
X247795014Y-193475014D03*
X247795014Y-194745014D03*
X246525014Y-193475014D03*
X246525014Y-192205014D03*
X246525014Y-190935014D03*
X246525014Y-189665014D03*
G04 #@! TO.N,Board_15-Net-(C6-Pad1)*
X238305014Y-178235014D03*
X238305014Y-179505014D03*
X238305014Y-180775014D03*
X238305014Y-182045014D03*
X235965014Y-180405014D03*
X237235014Y-180405014D03*
X234695014Y-180405014D03*
X233425014Y-180405014D03*
G04 #@! TO.N,Board_16-/+VM*
X58654999Y-208025019D03*
X59924999Y-208025019D03*
X61194999Y-208025019D03*
X62464999Y-208025019D03*
X63734999Y-208025019D03*
X58654999Y-209295019D03*
X58654999Y-210565019D03*
X58654999Y-211835019D03*
X58654999Y-213105019D03*
X50634999Y-220725019D03*
X50634999Y-215645019D03*
X54444999Y-215645019D03*
X50634999Y-216915019D03*
X50634999Y-218185019D03*
X50634999Y-219455019D03*
X55714999Y-215645019D03*
X51904999Y-215645019D03*
X53174999Y-215645019D03*
X59924999Y-225805019D03*
X58654999Y-228345019D03*
X63734999Y-225805019D03*
X58654999Y-227075019D03*
X58654999Y-225805019D03*
X58654999Y-229615019D03*
X58654999Y-230885019D03*
X61194999Y-225805019D03*
X62464999Y-225805019D03*
G04 #@! TO.N,Board_16-Net-(C4-Pad1)*
X68044999Y-213875019D03*
X68044999Y-212605019D03*
X68044999Y-211335019D03*
X68044999Y-210065019D03*
X68044999Y-208795019D03*
X66774999Y-211335019D03*
X66774999Y-212605019D03*
X66774999Y-213875019D03*
X66814999Y-210065019D03*
X66814999Y-208795019D03*
G04 #@! TO.N,Board_16-Net-(C5-Pad2)*
X66674999Y-236735019D03*
X67944999Y-231655019D03*
X67944999Y-232925019D03*
X67944999Y-234195019D03*
X67944999Y-235465019D03*
X67944999Y-236735019D03*
X66674999Y-235465019D03*
X66674999Y-234195019D03*
X66674999Y-232925019D03*
X66674999Y-231655019D03*
G04 #@! TO.N,Board_16-Net-(C6-Pad1)*
X58454999Y-220225019D03*
X58454999Y-221495019D03*
X58454999Y-222765019D03*
X58454999Y-224035019D03*
X56114999Y-222395019D03*
X57384999Y-222395019D03*
X54844999Y-222395019D03*
X53574999Y-222395019D03*
G04 #@! TO.N,Board_17-/+VM*
X118605004Y-208025019D03*
X119875004Y-208025019D03*
X121145004Y-208025019D03*
X122415004Y-208025019D03*
X123685004Y-208025019D03*
X118605004Y-209295019D03*
X118605004Y-210565019D03*
X118605004Y-211835019D03*
X118605004Y-213105019D03*
X110585004Y-220725019D03*
X110585004Y-215645019D03*
X114395004Y-215645019D03*
X110585004Y-216915019D03*
X110585004Y-218185019D03*
X110585004Y-219455019D03*
X115665004Y-215645019D03*
X111855004Y-215645019D03*
X113125004Y-215645019D03*
X119875004Y-225805019D03*
X118605004Y-228345019D03*
X123685004Y-225805019D03*
X118605004Y-227075019D03*
X118605004Y-225805019D03*
X118605004Y-229615019D03*
X118605004Y-230885019D03*
X121145004Y-225805019D03*
X122415004Y-225805019D03*
G04 #@! TO.N,Board_17-Net-(C4-Pad1)*
X127995004Y-213875019D03*
X127995004Y-212605019D03*
X127995004Y-211335019D03*
X127995004Y-210065019D03*
X127995004Y-208795019D03*
X126725004Y-211335019D03*
X126725004Y-212605019D03*
X126725004Y-213875019D03*
X126765004Y-210065019D03*
X126765004Y-208795019D03*
G04 #@! TO.N,Board_17-Net-(C5-Pad2)*
X126625004Y-236735019D03*
X127895004Y-231655019D03*
X127895004Y-232925019D03*
X127895004Y-234195019D03*
X127895004Y-235465019D03*
X127895004Y-236735019D03*
X126625004Y-235465019D03*
X126625004Y-234195019D03*
X126625004Y-232925019D03*
X126625004Y-231655019D03*
G04 #@! TO.N,Board_17-Net-(C6-Pad1)*
X118405004Y-220225019D03*
X118405004Y-221495019D03*
X118405004Y-222765019D03*
X118405004Y-224035019D03*
X116065004Y-222395019D03*
X117335004Y-222395019D03*
X114795004Y-222395019D03*
X113525004Y-222395019D03*
G04 #@! TO.N,Board_18-/+VM*
X178555009Y-208025019D03*
X179825009Y-208025019D03*
X181095009Y-208025019D03*
X182365009Y-208025019D03*
X183635009Y-208025019D03*
X178555009Y-209295019D03*
X178555009Y-210565019D03*
X178555009Y-211835019D03*
X178555009Y-213105019D03*
X170535009Y-220725019D03*
X170535009Y-215645019D03*
X174345009Y-215645019D03*
X170535009Y-216915019D03*
X170535009Y-218185019D03*
X170535009Y-219455019D03*
X175615009Y-215645019D03*
X171805009Y-215645019D03*
X173075009Y-215645019D03*
X179825009Y-225805019D03*
X178555009Y-228345019D03*
X183635009Y-225805019D03*
X178555009Y-227075019D03*
X178555009Y-225805019D03*
X178555009Y-229615019D03*
X178555009Y-230885019D03*
X181095009Y-225805019D03*
X182365009Y-225805019D03*
G04 #@! TO.N,Board_18-Net-(C4-Pad1)*
X187945009Y-213875019D03*
X187945009Y-212605019D03*
X187945009Y-211335019D03*
X187945009Y-210065019D03*
X187945009Y-208795019D03*
X186675009Y-211335019D03*
X186675009Y-212605019D03*
X186675009Y-213875019D03*
X186715009Y-210065019D03*
X186715009Y-208795019D03*
G04 #@! TO.N,Board_18-Net-(C5-Pad2)*
X186575009Y-236735019D03*
X187845009Y-231655019D03*
X187845009Y-232925019D03*
X187845009Y-234195019D03*
X187845009Y-235465019D03*
X187845009Y-236735019D03*
X186575009Y-235465019D03*
X186575009Y-234195019D03*
X186575009Y-232925019D03*
X186575009Y-231655019D03*
G04 #@! TO.N,Board_18-Net-(C6-Pad1)*
X178355009Y-220225019D03*
X178355009Y-221495019D03*
X178355009Y-222765019D03*
X178355009Y-224035019D03*
X176015009Y-222395019D03*
X177285009Y-222395019D03*
X174745009Y-222395019D03*
X173475009Y-222395019D03*
G04 #@! TO.N,Board_19-/+VM*
X238505014Y-208025019D03*
X239775014Y-208025019D03*
X241045014Y-208025019D03*
X242315014Y-208025019D03*
X243585014Y-208025019D03*
X238505014Y-209295019D03*
X238505014Y-210565019D03*
X238505014Y-211835019D03*
X238505014Y-213105019D03*
X230485014Y-220725019D03*
X230485014Y-215645019D03*
X234295014Y-215645019D03*
X230485014Y-216915019D03*
X230485014Y-218185019D03*
X230485014Y-219455019D03*
X235565014Y-215645019D03*
X231755014Y-215645019D03*
X233025014Y-215645019D03*
X239775014Y-225805019D03*
X238505014Y-228345019D03*
X243585014Y-225805019D03*
X238505014Y-227075019D03*
X238505014Y-225805019D03*
X238505014Y-229615019D03*
X238505014Y-230885019D03*
X241045014Y-225805019D03*
X242315014Y-225805019D03*
G04 #@! TO.N,Board_19-Net-(C4-Pad1)*
X247895014Y-213875019D03*
X247895014Y-212605019D03*
X247895014Y-211335019D03*
X247895014Y-210065019D03*
X247895014Y-208795019D03*
X246625014Y-211335019D03*
X246625014Y-212605019D03*
X246625014Y-213875019D03*
X246665014Y-210065019D03*
X246665014Y-208795019D03*
G04 #@! TO.N,Board_19-Net-(C5-Pad2)*
X246525014Y-236735019D03*
X247795014Y-231655019D03*
X247795014Y-232925019D03*
X247795014Y-234195019D03*
X247795014Y-235465019D03*
X247795014Y-236735019D03*
X246525014Y-235465019D03*
X246525014Y-234195019D03*
X246525014Y-232925019D03*
X246525014Y-231655019D03*
G04 #@! TO.N,Board_19-Net-(C6-Pad1)*
X238305014Y-220225019D03*
X238305014Y-221495019D03*
X238305014Y-222765019D03*
X238305014Y-224035019D03*
X235965014Y-222395019D03*
X237235014Y-222395019D03*
X234695014Y-222395019D03*
X233425014Y-222395019D03*
G04 #@! TO.N,Board_20-/+VM*
X58654999Y-250015024D03*
X59924999Y-250015024D03*
X61194999Y-250015024D03*
X62464999Y-250015024D03*
X63734999Y-250015024D03*
X58654999Y-251285024D03*
X58654999Y-252555024D03*
X58654999Y-253825024D03*
X58654999Y-255095024D03*
X50634999Y-262715024D03*
X50634999Y-257635024D03*
X54444999Y-257635024D03*
X50634999Y-258905024D03*
X50634999Y-260175024D03*
X50634999Y-261445024D03*
X55714999Y-257635024D03*
X51904999Y-257635024D03*
X53174999Y-257635024D03*
X59924999Y-267795024D03*
X58654999Y-270335024D03*
X63734999Y-267795024D03*
X58654999Y-269065024D03*
X58654999Y-267795024D03*
X58654999Y-271605024D03*
X58654999Y-272875024D03*
X61194999Y-267795024D03*
X62464999Y-267795024D03*
G04 #@! TO.N,Board_20-Net-(C4-Pad1)*
X68044999Y-255865024D03*
X68044999Y-254595024D03*
X68044999Y-253325024D03*
X68044999Y-252055024D03*
X68044999Y-250785024D03*
X66774999Y-253325024D03*
X66774999Y-254595024D03*
X66774999Y-255865024D03*
X66814999Y-252055024D03*
X66814999Y-250785024D03*
G04 #@! TO.N,Board_20-Net-(C5-Pad2)*
X66674999Y-278725024D03*
X67944999Y-273645024D03*
X67944999Y-274915024D03*
X67944999Y-276185024D03*
X67944999Y-277455024D03*
X67944999Y-278725024D03*
X66674999Y-277455024D03*
X66674999Y-276185024D03*
X66674999Y-274915024D03*
X66674999Y-273645024D03*
G04 #@! TO.N,Board_20-Net-(C6-Pad1)*
X58454999Y-262215024D03*
X58454999Y-263485024D03*
X58454999Y-264755024D03*
X58454999Y-266025024D03*
X56114999Y-264385024D03*
X57384999Y-264385024D03*
X54844999Y-264385024D03*
X53574999Y-264385024D03*
G04 #@! TO.N,Board_21-/+VM*
X118605004Y-250015024D03*
X119875004Y-250015024D03*
X121145004Y-250015024D03*
X122415004Y-250015024D03*
X123685004Y-250015024D03*
X118605004Y-251285024D03*
X118605004Y-252555024D03*
X118605004Y-253825024D03*
X118605004Y-255095024D03*
X110585004Y-262715024D03*
X110585004Y-257635024D03*
X114395004Y-257635024D03*
X110585004Y-258905024D03*
X110585004Y-260175024D03*
X110585004Y-261445024D03*
X115665004Y-257635024D03*
X111855004Y-257635024D03*
X113125004Y-257635024D03*
X119875004Y-267795024D03*
X118605004Y-270335024D03*
X123685004Y-267795024D03*
X118605004Y-269065024D03*
X118605004Y-267795024D03*
X118605004Y-271605024D03*
X118605004Y-272875024D03*
X121145004Y-267795024D03*
X122415004Y-267795024D03*
G04 #@! TO.N,Board_21-Net-(C4-Pad1)*
X127995004Y-255865024D03*
X127995004Y-254595024D03*
X127995004Y-253325024D03*
X127995004Y-252055024D03*
X127995004Y-250785024D03*
X126725004Y-253325024D03*
X126725004Y-254595024D03*
X126725004Y-255865024D03*
X126765004Y-252055024D03*
X126765004Y-250785024D03*
G04 #@! TO.N,Board_21-Net-(C5-Pad2)*
X126625004Y-278725024D03*
X127895004Y-273645024D03*
X127895004Y-274915024D03*
X127895004Y-276185024D03*
X127895004Y-277455024D03*
X127895004Y-278725024D03*
X126625004Y-277455024D03*
X126625004Y-276185024D03*
X126625004Y-274915024D03*
X126625004Y-273645024D03*
G04 #@! TO.N,Board_21-Net-(C6-Pad1)*
X118405004Y-262215024D03*
X118405004Y-263485024D03*
X118405004Y-264755024D03*
X118405004Y-266025024D03*
X116065004Y-264385024D03*
X117335004Y-264385024D03*
X114795004Y-264385024D03*
X113525004Y-264385024D03*
G04 #@! TO.N,Board_22-/+VM*
X178555009Y-250015024D03*
X179825009Y-250015024D03*
X181095009Y-250015024D03*
X182365009Y-250015024D03*
X183635009Y-250015024D03*
X178555009Y-251285024D03*
X178555009Y-252555024D03*
X178555009Y-253825024D03*
X178555009Y-255095024D03*
X170535009Y-262715024D03*
X170535009Y-257635024D03*
X174345009Y-257635024D03*
X170535009Y-258905024D03*
X170535009Y-260175024D03*
X170535009Y-261445024D03*
X175615009Y-257635024D03*
X171805009Y-257635024D03*
X173075009Y-257635024D03*
X179825009Y-267795024D03*
X178555009Y-270335024D03*
X183635009Y-267795024D03*
X178555009Y-269065024D03*
X178555009Y-267795024D03*
X178555009Y-271605024D03*
X178555009Y-272875024D03*
X181095009Y-267795024D03*
X182365009Y-267795024D03*
G04 #@! TO.N,Board_22-Net-(C4-Pad1)*
X187945009Y-255865024D03*
X187945009Y-254595024D03*
X187945009Y-253325024D03*
X187945009Y-252055024D03*
X187945009Y-250785024D03*
X186675009Y-253325024D03*
X186675009Y-254595024D03*
X186675009Y-255865024D03*
X186715009Y-252055024D03*
X186715009Y-250785024D03*
G04 #@! TO.N,Board_22-Net-(C5-Pad2)*
X186575009Y-278725024D03*
X187845009Y-273645024D03*
X187845009Y-274915024D03*
X187845009Y-276185024D03*
X187845009Y-277455024D03*
X187845009Y-278725024D03*
X186575009Y-277455024D03*
X186575009Y-276185024D03*
X186575009Y-274915024D03*
X186575009Y-273645024D03*
G04 #@! TO.N,Board_22-Net-(C6-Pad1)*
X178355009Y-262215024D03*
X178355009Y-263485024D03*
X178355009Y-264755024D03*
X178355009Y-266025024D03*
X176015009Y-264385024D03*
X177285009Y-264385024D03*
X174745009Y-264385024D03*
X173475009Y-264385024D03*
G04 #@! TO.N,Board_23-/+VM*
X238505014Y-250015024D03*
X239775014Y-250015024D03*
X241045014Y-250015024D03*
X242315014Y-250015024D03*
X243585014Y-250015024D03*
X238505014Y-251285024D03*
X238505014Y-252555024D03*
X238505014Y-253825024D03*
X238505014Y-255095024D03*
X230485014Y-262715024D03*
X230485014Y-257635024D03*
X234295014Y-257635024D03*
X230485014Y-258905024D03*
X230485014Y-260175024D03*
X230485014Y-261445024D03*
X235565014Y-257635024D03*
X231755014Y-257635024D03*
X233025014Y-257635024D03*
X239775014Y-267795024D03*
X238505014Y-270335024D03*
X243585014Y-267795024D03*
X238505014Y-269065024D03*
X238505014Y-267795024D03*
X238505014Y-271605024D03*
X238505014Y-272875024D03*
X241045014Y-267795024D03*
X242315014Y-267795024D03*
G04 #@! TO.N,Board_23-Net-(C4-Pad1)*
X247895014Y-255865024D03*
X247895014Y-254595024D03*
X247895014Y-253325024D03*
X247895014Y-252055024D03*
X247895014Y-250785024D03*
X246625014Y-253325024D03*
X246625014Y-254595024D03*
X246625014Y-255865024D03*
X246665014Y-252055024D03*
X246665014Y-250785024D03*
G04 #@! TO.N,Board_23-Net-(C5-Pad2)*
X246525014Y-278725024D03*
X247795014Y-273645024D03*
X247795014Y-274915024D03*
X247795014Y-276185024D03*
X247795014Y-277455024D03*
X247795014Y-278725024D03*
X246525014Y-277455024D03*
X246525014Y-276185024D03*
X246525014Y-274915024D03*
X246525014Y-273645024D03*
G04 #@! TO.N,Board_23-Net-(C6-Pad1)*
X238305014Y-262215024D03*
X238305014Y-263485024D03*
X238305014Y-264755024D03*
X238305014Y-266025024D03*
X235965014Y-264385024D03*
X237235014Y-264385024D03*
X234695014Y-264385024D03*
X233425014Y-264385024D03*
G04 #@! TD*
D18*
G04 #@! TO.N,Board_0-/+VM*
X53574999Y-37024999D02*
X58654999Y-37024999D01*
X58654999Y-37024999D02*
X62464999Y-33214999D01*
X42144999Y-37024999D02*
X53574999Y-37024999D01*
G04 #@! TO.N,Board_1-/+VM*
X113525004Y-37024999D02*
X118605004Y-37024999D01*
X118605004Y-37024999D02*
X122415004Y-33214999D01*
X102095004Y-37024999D02*
X113525004Y-37024999D01*
G04 #@! TO.N,Board_2-/+VM*
X173475009Y-37024999D02*
X178555009Y-37024999D01*
X178555009Y-37024999D02*
X182365009Y-33214999D01*
X162045009Y-37024999D02*
X173475009Y-37024999D01*
G04 #@! TO.N,Board_3-/+VM*
X233425014Y-37024999D02*
X238505014Y-37024999D01*
X238505014Y-37024999D02*
X242315014Y-33214999D01*
X221995014Y-37024999D02*
X233425014Y-37024999D01*
G04 #@! TO.N,Board_4-/+VM*
X53574999Y-79015004D02*
X58654999Y-79015004D01*
X58654999Y-79015004D02*
X62464999Y-75205004D01*
X42144999Y-79015004D02*
X53574999Y-79015004D01*
G04 #@! TO.N,Board_5-/+VM*
X113525004Y-79015004D02*
X118605004Y-79015004D01*
X118605004Y-79015004D02*
X122415004Y-75205004D01*
X102095004Y-79015004D02*
X113525004Y-79015004D01*
G04 #@! TO.N,Board_6-/+VM*
X173475009Y-79015004D02*
X178555009Y-79015004D01*
X178555009Y-79015004D02*
X182365009Y-75205004D01*
X162045009Y-79015004D02*
X173475009Y-79015004D01*
G04 #@! TO.N,Board_7-/+VM*
X233425014Y-79015004D02*
X238505014Y-79015004D01*
X238505014Y-79015004D02*
X242315014Y-75205004D01*
X221995014Y-79015004D02*
X233425014Y-79015004D01*
G04 #@! TO.N,Board_8-/+VM*
X53574999Y-121005009D02*
X58654999Y-121005009D01*
X58654999Y-121005009D02*
X62464999Y-117195009D01*
X42144999Y-121005009D02*
X53574999Y-121005009D01*
G04 #@! TO.N,Board_9-/+VM*
X113525004Y-121005009D02*
X118605004Y-121005009D01*
X118605004Y-121005009D02*
X122415004Y-117195009D01*
X102095004Y-121005009D02*
X113525004Y-121005009D01*
G04 #@! TO.N,Board_10-/+VM*
X173475009Y-121005009D02*
X178555009Y-121005009D01*
X178555009Y-121005009D02*
X182365009Y-117195009D01*
X162045009Y-121005009D02*
X173475009Y-121005009D01*
G04 #@! TO.N,Board_11-/+VM*
X233425014Y-121005009D02*
X238505014Y-121005009D01*
X238505014Y-121005009D02*
X242315014Y-117195009D01*
X221995014Y-121005009D02*
X233425014Y-121005009D01*
G04 #@! TO.N,Board_12-/+VM*
X53574999Y-162995014D02*
X58654999Y-162995014D01*
X58654999Y-162995014D02*
X62464999Y-159185014D01*
X42144999Y-162995014D02*
X53574999Y-162995014D01*
G04 #@! TO.N,Board_13-/+VM*
X113525004Y-162995014D02*
X118605004Y-162995014D01*
X118605004Y-162995014D02*
X122415004Y-159185014D01*
X102095004Y-162995014D02*
X113525004Y-162995014D01*
G04 #@! TO.N,Board_14-/+VM*
X173475009Y-162995014D02*
X178555009Y-162995014D01*
X178555009Y-162995014D02*
X182365009Y-159185014D01*
X162045009Y-162995014D02*
X173475009Y-162995014D01*
G04 #@! TO.N,Board_15-/+VM*
X233425014Y-162995014D02*
X238505014Y-162995014D01*
X238505014Y-162995014D02*
X242315014Y-159185014D01*
X221995014Y-162995014D02*
X233425014Y-162995014D01*
G04 #@! TO.N,Board_16-/+VM*
X53574999Y-204985019D02*
X58654999Y-204985019D01*
X58654999Y-204985019D02*
X62464999Y-201175019D01*
X42144999Y-204985019D02*
X53574999Y-204985019D01*
G04 #@! TO.N,Board_17-/+VM*
X113525004Y-204985019D02*
X118605004Y-204985019D01*
X118605004Y-204985019D02*
X122415004Y-201175019D01*
X102095004Y-204985019D02*
X113525004Y-204985019D01*
G04 #@! TO.N,Board_18-/+VM*
X173475009Y-204985019D02*
X178555009Y-204985019D01*
X178555009Y-204985019D02*
X182365009Y-201175019D01*
X162045009Y-204985019D02*
X173475009Y-204985019D01*
G04 #@! TO.N,Board_19-/+VM*
X233425014Y-204985019D02*
X238505014Y-204985019D01*
X238505014Y-204985019D02*
X242315014Y-201175019D01*
X221995014Y-204985019D02*
X233425014Y-204985019D01*
G04 #@! TO.N,Board_20-/+VM*
X53574999Y-246975024D02*
X58654999Y-246975024D01*
X58654999Y-246975024D02*
X62464999Y-243165024D01*
X42144999Y-246975024D02*
X53574999Y-246975024D01*
G04 #@! TO.N,Board_21-/+VM*
X113525004Y-246975024D02*
X118605004Y-246975024D01*
X118605004Y-246975024D02*
X122415004Y-243165024D01*
X102095004Y-246975024D02*
X113525004Y-246975024D01*
G04 #@! TO.N,Board_22-/+VM*
X173475009Y-246975024D02*
X178555009Y-246975024D01*
X178555009Y-246975024D02*
X182365009Y-243165024D01*
X162045009Y-246975024D02*
X173475009Y-246975024D01*
G04 #@! TO.N,Board_23-/+VM*
X233425014Y-246975024D02*
X238505014Y-246975024D01*
X238505014Y-246975024D02*
X242315014Y-243165024D01*
X221995014Y-246975024D02*
X233425014Y-246975024D01*
G04 #@! TD*
M02*
