M48
; DRILL file {KiCad 5.1.12-84ad8e8a86~92~ubuntu20.04.1} date Sun Jan  2 11:27:23 2022
; FORMAT={-:-/ absolute / metric / decimal}
; #@! TF.CreationDate,2022-01-02T11:27:23+02:00
; #@! TF.GenerationSoftware,Kicad,Pcbnew,5.1.12-84ad8e8a86~92~ubuntu20.04.1
FMAT,2
METRIC
T1C0.300
T2C0.500
T3C0.750
T4C0.800
T5C1.520
T6C3.200
T7C0.500
T8C1.500
%
G90
G05
T1
X50.635Y-47.685
X50.635Y-48.955
X50.635Y-50.225
X50.635Y-51.495
X50.635Y-52.765
X50.635Y-89.675
X50.635Y-90.945
X50.635Y-92.215
X50.635Y-93.485
X50.635Y-94.755
X50.635Y-131.665
X50.635Y-132.935
X50.635Y-134.205
X50.635Y-135.475
X50.635Y-136.745
X50.635Y-173.655
X50.635Y-174.925
X50.635Y-176.195
X50.635Y-177.465
X50.635Y-178.735
X50.635Y-215.645
X50.635Y-216.915
X50.635Y-218.185
X50.635Y-219.455
X50.635Y-220.725
X50.635Y-257.635
X50.635Y-258.905
X50.635Y-260.175
X50.635Y-261.445
X50.635Y-262.715
X51.905Y-47.685
X51.905Y-89.675
X51.905Y-131.665
X51.905Y-173.655
X51.905Y-215.645
X51.905Y-257.635
X53.175Y-47.685
X53.175Y-89.675
X53.175Y-131.665
X53.175Y-173.655
X53.175Y-215.645
X53.175Y-257.635
X53.575Y-54.435
X53.575Y-96.425
X53.575Y-138.415
X53.575Y-180.405
X53.575Y-222.395
X53.575Y-264.385
X54.445Y-47.685
X54.445Y-89.675
X54.445Y-131.665
X54.445Y-173.655
X54.445Y-215.645
X54.445Y-257.635
X54.845Y-54.435
X54.845Y-96.425
X54.845Y-138.415
X54.845Y-180.405
X54.845Y-222.395
X54.845Y-264.385
X55.715Y-47.685
X55.715Y-89.675
X55.715Y-131.665
X55.715Y-173.655
X55.715Y-215.645
X55.715Y-257.635
X56.115Y-54.435
X56.115Y-96.425
X56.115Y-138.415
X56.115Y-180.405
X56.115Y-222.395
X56.115Y-264.385
X57.385Y-54.435
X57.385Y-96.425
X57.385Y-138.415
X57.385Y-180.405
X57.385Y-222.395
X57.385Y-264.385
X58.455Y-52.265
X58.455Y-53.535
X58.455Y-54.805
X58.455Y-56.075
X58.455Y-94.255
X58.455Y-95.525
X58.455Y-96.795
X58.455Y-98.065
X58.455Y-136.245
X58.455Y-137.515
X58.455Y-138.785
X58.455Y-140.055
X58.455Y-178.235
X58.455Y-179.505
X58.455Y-180.775
X58.455Y-182.045
X58.455Y-220.225
X58.455Y-221.495
X58.455Y-222.765
X58.455Y-224.035
X58.455Y-262.215
X58.455Y-263.485
X58.455Y-264.755
X58.455Y-266.025
X58.655Y-40.065
X58.655Y-41.335
X58.655Y-42.605
X58.655Y-43.875
X58.655Y-45.145
X58.655Y-57.845
X58.655Y-59.115
X58.655Y-60.385
X58.655Y-61.655
X58.655Y-62.925
X58.655Y-82.055
X58.655Y-83.325
X58.655Y-84.595
X58.655Y-85.865
X58.655Y-87.135
X58.655Y-99.835
X58.655Y-101.105
X58.655Y-102.375
X58.655Y-103.645
X58.655Y-104.915
X58.655Y-124.045
X58.655Y-125.315
X58.655Y-126.585
X58.655Y-127.855
X58.655Y-129.125
X58.655Y-141.825
X58.655Y-143.095
X58.655Y-144.365
X58.655Y-145.635
X58.655Y-146.905
X58.655Y-166.035
X58.655Y-167.305
X58.655Y-168.575
X58.655Y-169.845
X58.655Y-171.115
X58.655Y-183.815
X58.655Y-185.085
X58.655Y-186.355
X58.655Y-187.625
X58.655Y-188.895
X58.655Y-208.025
X58.655Y-209.295
X58.655Y-210.565
X58.655Y-211.835
X58.655Y-213.105
X58.655Y-225.805
X58.655Y-227.075
X58.655Y-228.345
X58.655Y-229.615
X58.655Y-230.885
X58.655Y-250.015
X58.655Y-251.285
X58.655Y-252.555
X58.655Y-253.825
X58.655Y-255.095
X58.655Y-267.795
X58.655Y-269.065
X58.655Y-270.335
X58.655Y-271.605
X58.655Y-272.875
X59.925Y-40.065
X59.925Y-57.845
X59.925Y-82.055
X59.925Y-99.835
X59.925Y-124.045
X59.925Y-141.825
X59.925Y-166.035
X59.925Y-183.815
X59.925Y-208.025
X59.925Y-225.805
X59.925Y-250.015
X59.925Y-267.795
X61.195Y-40.065
X61.195Y-57.845
X61.195Y-82.055
X61.195Y-99.835
X61.195Y-124.045
X61.195Y-141.825
X61.195Y-166.035
X61.195Y-183.815
X61.195Y-208.025
X61.195Y-225.805
X61.195Y-250.015
X61.195Y-267.795
X62.465Y-40.065
X62.465Y-57.845
X62.465Y-82.055
X62.465Y-99.835
X62.465Y-124.045
X62.465Y-141.825
X62.465Y-166.035
X62.465Y-183.815
X62.465Y-208.025
X62.465Y-225.805
X62.465Y-250.015
X62.465Y-267.795
X63.735Y-40.065
X63.735Y-57.845
X63.735Y-82.055
X63.735Y-99.835
X63.735Y-124.045
X63.735Y-141.825
X63.735Y-166.035
X63.735Y-183.815
X63.735Y-208.025
X63.735Y-225.805
X63.735Y-250.015
X63.735Y-267.795
X66.675Y-63.695
X66.675Y-64.965
X66.675Y-66.235
X66.675Y-67.505
X66.675Y-68.775
X66.675Y-105.685
X66.675Y-106.955
X66.675Y-108.225
X66.675Y-109.495
X66.675Y-110.765
X66.675Y-147.675
X66.675Y-148.945
X66.675Y-150.215
X66.675Y-151.485
X66.675Y-152.755
X66.675Y-189.665
X66.675Y-190.935
X66.675Y-192.205
X66.675Y-193.475
X66.675Y-194.745
X66.675Y-231.655
X66.675Y-232.925
X66.675Y-234.195
X66.675Y-235.465
X66.675Y-236.735
X66.675Y-273.645
X66.675Y-274.915
X66.675Y-276.185
X66.675Y-277.455
X66.675Y-278.725
X66.775Y-43.375
X66.775Y-44.645
X66.775Y-45.915
X66.775Y-85.365
X66.775Y-86.635
X66.775Y-87.905
X66.775Y-127.355
X66.775Y-128.625
X66.775Y-129.895
X66.775Y-169.345
X66.775Y-170.615
X66.775Y-171.885
X66.775Y-211.335
X66.775Y-212.605
X66.775Y-213.875
X66.775Y-253.325
X66.775Y-254.595
X66.775Y-255.865
X66.815Y-40.835
X66.815Y-42.105
X66.815Y-82.825
X66.815Y-84.095
X66.815Y-124.815
X66.815Y-126.085
X66.815Y-166.805
X66.815Y-168.075
X66.815Y-208.795
X66.815Y-210.065
X66.815Y-250.785
X66.815Y-252.055
X67.945Y-63.695
X67.945Y-64.965
X67.945Y-66.235
X67.945Y-67.505
X67.945Y-68.775
X67.945Y-105.685
X67.945Y-106.955
X67.945Y-108.225
X67.945Y-109.495
X67.945Y-110.765
X67.945Y-147.675
X67.945Y-148.945
X67.945Y-150.215
X67.945Y-151.485
X67.945Y-152.755
X67.945Y-189.665
X67.945Y-190.935
X67.945Y-192.205
X67.945Y-193.475
X67.945Y-194.745
X67.945Y-231.655
X67.945Y-232.925
X67.945Y-234.195
X67.945Y-235.465
X67.945Y-236.735
X67.945Y-273.645
X67.945Y-274.915
X67.945Y-276.185
X67.945Y-277.455
X67.945Y-278.725
X68.045Y-40.835
X68.045Y-42.105
X68.045Y-43.375
X68.045Y-44.645
X68.045Y-45.915
X68.045Y-82.825
X68.045Y-84.095
X68.045Y-85.365
X68.045Y-86.635
X68.045Y-87.905
X68.045Y-124.815
X68.045Y-126.085
X68.045Y-127.355
X68.045Y-128.625
X68.045Y-129.895
X68.045Y-166.805
X68.045Y-168.075
X68.045Y-169.345
X68.045Y-170.615
X68.045Y-171.885
X68.045Y-208.795
X68.045Y-210.065
X68.045Y-211.335
X68.045Y-212.605
X68.045Y-213.875
X68.045Y-250.785
X68.045Y-252.055
X68.045Y-253.325
X68.045Y-254.595
X68.045Y-255.865
X110.585Y-47.685
X110.585Y-48.955
X110.585Y-50.225
X110.585Y-51.495
X110.585Y-52.765
X110.585Y-89.675
X110.585Y-90.945
X110.585Y-92.215
X110.585Y-93.485
X110.585Y-94.755
X110.585Y-131.665
X110.585Y-132.935
X110.585Y-134.205
X110.585Y-135.475
X110.585Y-136.745
X110.585Y-173.655
X110.585Y-174.925
X110.585Y-176.195
X110.585Y-177.465
X110.585Y-178.735
X110.585Y-215.645
X110.585Y-216.915
X110.585Y-218.185
X110.585Y-219.455
X110.585Y-220.725
X110.585Y-257.635
X110.585Y-258.905
X110.585Y-260.175
X110.585Y-261.445
X110.585Y-262.715
X111.855Y-47.685
X111.855Y-89.675
X111.855Y-131.665
X111.855Y-173.655
X111.855Y-215.645
X111.855Y-257.635
X113.125Y-47.685
X113.125Y-89.675
X113.125Y-131.665
X113.125Y-173.655
X113.125Y-215.645
X113.125Y-257.635
X113.525Y-54.435
X113.525Y-96.425
X113.525Y-138.415
X113.525Y-180.405
X113.525Y-222.395
X113.525Y-264.385
X114.395Y-47.685
X114.395Y-89.675
X114.395Y-131.665
X114.395Y-173.655
X114.395Y-215.645
X114.395Y-257.635
X114.795Y-54.435
X114.795Y-96.425
X114.795Y-138.415
X114.795Y-180.405
X114.795Y-222.395
X114.795Y-264.385
X115.665Y-47.685
X115.665Y-89.675
X115.665Y-131.665
X115.665Y-173.655
X115.665Y-215.645
X115.665Y-257.635
X116.065Y-54.435
X116.065Y-96.425
X116.065Y-138.415
X116.065Y-180.405
X116.065Y-222.395
X116.065Y-264.385
X117.335Y-54.435
X117.335Y-96.425
X117.335Y-138.415
X117.335Y-180.405
X117.335Y-222.395
X117.335Y-264.385
X118.405Y-52.265
X118.405Y-53.535
X118.405Y-54.805
X118.405Y-56.075
X118.405Y-94.255
X118.405Y-95.525
X118.405Y-96.795
X118.405Y-98.065
X118.405Y-136.245
X118.405Y-137.515
X118.405Y-138.785
X118.405Y-140.055
X118.405Y-178.235
X118.405Y-179.505
X118.405Y-180.775
X118.405Y-182.045
X118.405Y-220.225
X118.405Y-221.495
X118.405Y-222.765
X118.405Y-224.035
X118.405Y-262.215
X118.405Y-263.485
X118.405Y-264.755
X118.405Y-266.025
X118.605Y-40.065
X118.605Y-41.335
X118.605Y-42.605
X118.605Y-43.875
X118.605Y-45.145
X118.605Y-57.845
X118.605Y-59.115
X118.605Y-60.385
X118.605Y-61.655
X118.605Y-62.925
X118.605Y-82.055
X118.605Y-83.325
X118.605Y-84.595
X118.605Y-85.865
X118.605Y-87.135
X118.605Y-99.835
X118.605Y-101.105
X118.605Y-102.375
X118.605Y-103.645
X118.605Y-104.915
X118.605Y-124.045
X118.605Y-125.315
X118.605Y-126.585
X118.605Y-127.855
X118.605Y-129.125
X118.605Y-141.825
X118.605Y-143.095
X118.605Y-144.365
X118.605Y-145.635
X118.605Y-146.905
X118.605Y-166.035
X118.605Y-167.305
X118.605Y-168.575
X118.605Y-169.845
X118.605Y-171.115
X118.605Y-183.815
X118.605Y-185.085
X118.605Y-186.355
X118.605Y-187.625
X118.605Y-188.895
X118.605Y-208.025
X118.605Y-209.295
X118.605Y-210.565
X118.605Y-211.835
X118.605Y-213.105
X118.605Y-225.805
X118.605Y-227.075
X118.605Y-228.345
X118.605Y-229.615
X118.605Y-230.885
X118.605Y-250.015
X118.605Y-251.285
X118.605Y-252.555
X118.605Y-253.825
X118.605Y-255.095
X118.605Y-267.795
X118.605Y-269.065
X118.605Y-270.335
X118.605Y-271.605
X118.605Y-272.875
X119.875Y-40.065
X119.875Y-57.845
X119.875Y-82.055
X119.875Y-99.835
X119.875Y-124.045
X119.875Y-141.825
X119.875Y-166.035
X119.875Y-183.815
X119.875Y-208.025
X119.875Y-225.805
X119.875Y-250.015
X119.875Y-267.795
X121.145Y-40.065
X121.145Y-57.845
X121.145Y-82.055
X121.145Y-99.835
X121.145Y-124.045
X121.145Y-141.825
X121.145Y-166.035
X121.145Y-183.815
X121.145Y-208.025
X121.145Y-225.805
X121.145Y-250.015
X121.145Y-267.795
X122.415Y-40.065
X122.415Y-57.845
X122.415Y-82.055
X122.415Y-99.835
X122.415Y-124.045
X122.415Y-141.825
X122.415Y-166.035
X122.415Y-183.815
X122.415Y-208.025
X122.415Y-225.805
X122.415Y-250.015
X122.415Y-267.795
X123.685Y-40.065
X123.685Y-57.845
X123.685Y-82.055
X123.685Y-99.835
X123.685Y-124.045
X123.685Y-141.825
X123.685Y-166.035
X123.685Y-183.815
X123.685Y-208.025
X123.685Y-225.805
X123.685Y-250.015
X123.685Y-267.795
X126.625Y-63.695
X126.625Y-64.965
X126.625Y-66.235
X126.625Y-67.505
X126.625Y-68.775
X126.625Y-105.685
X126.625Y-106.955
X126.625Y-108.225
X126.625Y-109.495
X126.625Y-110.765
X126.625Y-147.675
X126.625Y-148.945
X126.625Y-150.215
X126.625Y-151.485
X126.625Y-152.755
X126.625Y-189.665
X126.625Y-190.935
X126.625Y-192.205
X126.625Y-193.475
X126.625Y-194.745
X126.625Y-231.655
X126.625Y-232.925
X126.625Y-234.195
X126.625Y-235.465
X126.625Y-236.735
X126.625Y-273.645
X126.625Y-274.915
X126.625Y-276.185
X126.625Y-277.455
X126.625Y-278.725
X126.725Y-43.375
X126.725Y-44.645
X126.725Y-45.915
X126.725Y-85.365
X126.725Y-86.635
X126.725Y-87.905
X126.725Y-127.355
X126.725Y-128.625
X126.725Y-129.895
X126.725Y-169.345
X126.725Y-170.615
X126.725Y-171.885
X126.725Y-211.335
X126.725Y-212.605
X126.725Y-213.875
X126.725Y-253.325
X126.725Y-254.595
X126.725Y-255.865
X126.765Y-40.835
X126.765Y-42.105
X126.765Y-82.825
X126.765Y-84.095
X126.765Y-124.815
X126.765Y-126.085
X126.765Y-166.805
X126.765Y-168.075
X126.765Y-208.795
X126.765Y-210.065
X126.765Y-250.785
X126.765Y-252.055
X127.895Y-63.695
X127.895Y-64.965
X127.895Y-66.235
X127.895Y-67.505
X127.895Y-68.775
X127.895Y-105.685
X127.895Y-106.955
X127.895Y-108.225
X127.895Y-109.495
X127.895Y-110.765
X127.895Y-147.675
X127.895Y-148.945
X127.895Y-150.215
X127.895Y-151.485
X127.895Y-152.755
X127.895Y-189.665
X127.895Y-190.935
X127.895Y-192.205
X127.895Y-193.475
X127.895Y-194.745
X127.895Y-231.655
X127.895Y-232.925
X127.895Y-234.195
X127.895Y-235.465
X127.895Y-236.735
X127.895Y-273.645
X127.895Y-274.915
X127.895Y-276.185
X127.895Y-277.455
X127.895Y-278.725
X127.995Y-40.835
X127.995Y-42.105
X127.995Y-43.375
X127.995Y-44.645
X127.995Y-45.915
X127.995Y-82.825
X127.995Y-84.095
X127.995Y-85.365
X127.995Y-86.635
X127.995Y-87.905
X127.995Y-124.815
X127.995Y-126.085
X127.995Y-127.355
X127.995Y-128.625
X127.995Y-129.895
X127.995Y-166.805
X127.995Y-168.075
X127.995Y-169.345
X127.995Y-170.615
X127.995Y-171.885
X127.995Y-208.795
X127.995Y-210.065
X127.995Y-211.335
X127.995Y-212.605
X127.995Y-213.875
X127.995Y-250.785
X127.995Y-252.055
X127.995Y-253.325
X127.995Y-254.595
X127.995Y-255.865
X170.535Y-47.685
X170.535Y-48.955
X170.535Y-50.225
X170.535Y-51.495
X170.535Y-52.765
X170.535Y-89.675
X170.535Y-90.945
X170.535Y-92.215
X170.535Y-93.485
X170.535Y-94.755
X170.535Y-131.665
X170.535Y-132.935
X170.535Y-134.205
X170.535Y-135.475
X170.535Y-136.745
X170.535Y-173.655
X170.535Y-174.925
X170.535Y-176.195
X170.535Y-177.465
X170.535Y-178.735
X170.535Y-215.645
X170.535Y-216.915
X170.535Y-218.185
X170.535Y-219.455
X170.535Y-220.725
X170.535Y-257.635
X170.535Y-258.905
X170.535Y-260.175
X170.535Y-261.445
X170.535Y-262.715
X171.805Y-47.685
X171.805Y-89.675
X171.805Y-131.665
X171.805Y-173.655
X171.805Y-215.645
X171.805Y-257.635
X173.075Y-47.685
X173.075Y-89.675
X173.075Y-131.665
X173.075Y-173.655
X173.075Y-215.645
X173.075Y-257.635
X173.475Y-54.435
X173.475Y-96.425
X173.475Y-138.415
X173.475Y-180.405
X173.475Y-222.395
X173.475Y-264.385
X174.345Y-47.685
X174.345Y-89.675
X174.345Y-131.665
X174.345Y-173.655
X174.345Y-215.645
X174.345Y-257.635
X174.745Y-54.435
X174.745Y-96.425
X174.745Y-138.415
X174.745Y-180.405
X174.745Y-222.395
X174.745Y-264.385
X175.615Y-47.685
X175.615Y-89.675
X175.615Y-131.665
X175.615Y-173.655
X175.615Y-215.645
X175.615Y-257.635
X176.015Y-54.435
X176.015Y-96.425
X176.015Y-138.415
X176.015Y-180.405
X176.015Y-222.395
X176.015Y-264.385
X177.285Y-54.435
X177.285Y-96.425
X177.285Y-138.415
X177.285Y-180.405
X177.285Y-222.395
X177.285Y-264.385
X178.355Y-52.265
X178.355Y-53.535
X178.355Y-54.805
X178.355Y-56.075
X178.355Y-94.255
X178.355Y-95.525
X178.355Y-96.795
X178.355Y-98.065
X178.355Y-136.245
X178.355Y-137.515
X178.355Y-138.785
X178.355Y-140.055
X178.355Y-178.235
X178.355Y-179.505
X178.355Y-180.775
X178.355Y-182.045
X178.355Y-220.225
X178.355Y-221.495
X178.355Y-222.765
X178.355Y-224.035
X178.355Y-262.215
X178.355Y-263.485
X178.355Y-264.755
X178.355Y-266.025
X178.555Y-40.065
X178.555Y-41.335
X178.555Y-42.605
X178.555Y-43.875
X178.555Y-45.145
X178.555Y-57.845
X178.555Y-59.115
X178.555Y-60.385
X178.555Y-61.655
X178.555Y-62.925
X178.555Y-82.055
X178.555Y-83.325
X178.555Y-84.595
X178.555Y-85.865
X178.555Y-87.135
X178.555Y-99.835
X178.555Y-101.105
X178.555Y-102.375
X178.555Y-103.645
X178.555Y-104.915
X178.555Y-124.045
X178.555Y-125.315
X178.555Y-126.585
X178.555Y-127.855
X178.555Y-129.125
X178.555Y-141.825
X178.555Y-143.095
X178.555Y-144.365
X178.555Y-145.635
X178.555Y-146.905
X178.555Y-166.035
X178.555Y-167.305
X178.555Y-168.575
X178.555Y-169.845
X178.555Y-171.115
X178.555Y-183.815
X178.555Y-185.085
X178.555Y-186.355
X178.555Y-187.625
X178.555Y-188.895
X178.555Y-208.025
X178.555Y-209.295
X178.555Y-210.565
X178.555Y-211.835
X178.555Y-213.105
X178.555Y-225.805
X178.555Y-227.075
X178.555Y-228.345
X178.555Y-229.615
X178.555Y-230.885
X178.555Y-250.015
X178.555Y-251.285
X178.555Y-252.555
X178.555Y-253.825
X178.555Y-255.095
X178.555Y-267.795
X178.555Y-269.065
X178.555Y-270.335
X178.555Y-271.605
X178.555Y-272.875
X179.825Y-40.065
X179.825Y-57.845
X179.825Y-82.055
X179.825Y-99.835
X179.825Y-124.045
X179.825Y-141.825
X179.825Y-166.035
X179.825Y-183.815
X179.825Y-208.025
X179.825Y-225.805
X179.825Y-250.015
X179.825Y-267.795
X181.095Y-40.065
X181.095Y-57.845
X181.095Y-82.055
X181.095Y-99.835
X181.095Y-124.045
X181.095Y-141.825
X181.095Y-166.035
X181.095Y-183.815
X181.095Y-208.025
X181.095Y-225.805
X181.095Y-250.015
X181.095Y-267.795
X182.365Y-40.065
X182.365Y-57.845
X182.365Y-82.055
X182.365Y-99.835
X182.365Y-124.045
X182.365Y-141.825
X182.365Y-166.035
X182.365Y-183.815
X182.365Y-208.025
X182.365Y-225.805
X182.365Y-250.015
X182.365Y-267.795
X183.635Y-40.065
X183.635Y-57.845
X183.635Y-82.055
X183.635Y-99.835
X183.635Y-124.045
X183.635Y-141.825
X183.635Y-166.035
X183.635Y-183.815
X183.635Y-208.025
X183.635Y-225.805
X183.635Y-250.015
X183.635Y-267.795
X186.575Y-63.695
X186.575Y-64.965
X186.575Y-66.235
X186.575Y-67.505
X186.575Y-68.775
X186.575Y-105.685
X186.575Y-106.955
X186.575Y-108.225
X186.575Y-109.495
X186.575Y-110.765
X186.575Y-147.675
X186.575Y-148.945
X186.575Y-150.215
X186.575Y-151.485
X186.575Y-152.755
X186.575Y-189.665
X186.575Y-190.935
X186.575Y-192.205
X186.575Y-193.475
X186.575Y-194.745
X186.575Y-231.655
X186.575Y-232.925
X186.575Y-234.195
X186.575Y-235.465
X186.575Y-236.735
X186.575Y-273.645
X186.575Y-274.915
X186.575Y-276.185
X186.575Y-277.455
X186.575Y-278.725
X186.675Y-43.375
X186.675Y-44.645
X186.675Y-45.915
X186.675Y-85.365
X186.675Y-86.635
X186.675Y-87.905
X186.675Y-127.355
X186.675Y-128.625
X186.675Y-129.895
X186.675Y-169.345
X186.675Y-170.615
X186.675Y-171.885
X186.675Y-211.335
X186.675Y-212.605
X186.675Y-213.875
X186.675Y-253.325
X186.675Y-254.595
X186.675Y-255.865
X186.715Y-40.835
X186.715Y-42.105
X186.715Y-82.825
X186.715Y-84.095
X186.715Y-124.815
X186.715Y-126.085
X186.715Y-166.805
X186.715Y-168.075
X186.715Y-208.795
X186.715Y-210.065
X186.715Y-250.785
X186.715Y-252.055
X187.845Y-63.695
X187.845Y-64.965
X187.845Y-66.235
X187.845Y-67.505
X187.845Y-68.775
X187.845Y-105.685
X187.845Y-106.955
X187.845Y-108.225
X187.845Y-109.495
X187.845Y-110.765
X187.845Y-147.675
X187.845Y-148.945
X187.845Y-150.215
X187.845Y-151.485
X187.845Y-152.755
X187.845Y-189.665
X187.845Y-190.935
X187.845Y-192.205
X187.845Y-193.475
X187.845Y-194.745
X187.845Y-231.655
X187.845Y-232.925
X187.845Y-234.195
X187.845Y-235.465
X187.845Y-236.735
X187.845Y-273.645
X187.845Y-274.915
X187.845Y-276.185
X187.845Y-277.455
X187.845Y-278.725
X187.945Y-40.835
X187.945Y-42.105
X187.945Y-43.375
X187.945Y-44.645
X187.945Y-45.915
X187.945Y-82.825
X187.945Y-84.095
X187.945Y-85.365
X187.945Y-86.635
X187.945Y-87.905
X187.945Y-124.815
X187.945Y-126.085
X187.945Y-127.355
X187.945Y-128.625
X187.945Y-129.895
X187.945Y-166.805
X187.945Y-168.075
X187.945Y-169.345
X187.945Y-170.615
X187.945Y-171.885
X187.945Y-208.795
X187.945Y-210.065
X187.945Y-211.335
X187.945Y-212.605
X187.945Y-213.875
X187.945Y-250.785
X187.945Y-252.055
X187.945Y-253.325
X187.945Y-254.595
X187.945Y-255.865
X230.485Y-47.685
X230.485Y-48.955
X230.485Y-50.225
X230.485Y-51.495
X230.485Y-52.765
X230.485Y-89.675
X230.485Y-90.945
X230.485Y-92.215
X230.485Y-93.485
X230.485Y-94.755
X230.485Y-131.665
X230.485Y-132.935
X230.485Y-134.205
X230.485Y-135.475
X230.485Y-136.745
X230.485Y-173.655
X230.485Y-174.925
X230.485Y-176.195
X230.485Y-177.465
X230.485Y-178.735
X230.485Y-215.645
X230.485Y-216.915
X230.485Y-218.185
X230.485Y-219.455
X230.485Y-220.725
X230.485Y-257.635
X230.485Y-258.905
X230.485Y-260.175
X230.485Y-261.445
X230.485Y-262.715
X231.755Y-47.685
X231.755Y-89.675
X231.755Y-131.665
X231.755Y-173.655
X231.755Y-215.645
X231.755Y-257.635
X233.025Y-47.685
X233.025Y-89.675
X233.025Y-131.665
X233.025Y-173.655
X233.025Y-215.645
X233.025Y-257.635
X233.425Y-54.435
X233.425Y-96.425
X233.425Y-138.415
X233.425Y-180.405
X233.425Y-222.395
X233.425Y-264.385
X234.295Y-47.685
X234.295Y-89.675
X234.295Y-131.665
X234.295Y-173.655
X234.295Y-215.645
X234.295Y-257.635
X234.695Y-54.435
X234.695Y-96.425
X234.695Y-138.415
X234.695Y-180.405
X234.695Y-222.395
X234.695Y-264.385
X235.565Y-47.685
X235.565Y-89.675
X235.565Y-131.665
X235.565Y-173.655
X235.565Y-215.645
X235.565Y-257.635
X235.965Y-54.435
X235.965Y-96.425
X235.965Y-138.415
X235.965Y-180.405
X235.965Y-222.395
X235.965Y-264.385
X237.235Y-54.435
X237.235Y-96.425
X237.235Y-138.415
X237.235Y-180.405
X237.235Y-222.395
X237.235Y-264.385
X238.305Y-52.265
X238.305Y-53.535
X238.305Y-54.805
X238.305Y-56.075
X238.305Y-94.255
X238.305Y-95.525
X238.305Y-96.795
X238.305Y-98.065
X238.305Y-136.245
X238.305Y-137.515
X238.305Y-138.785
X238.305Y-140.055
X238.305Y-178.235
X238.305Y-179.505
X238.305Y-180.775
X238.305Y-182.045
X238.305Y-220.225
X238.305Y-221.495
X238.305Y-222.765
X238.305Y-224.035
X238.305Y-262.215
X238.305Y-263.485
X238.305Y-264.755
X238.305Y-266.025
X238.505Y-40.065
X238.505Y-41.335
X238.505Y-42.605
X238.505Y-43.875
X238.505Y-45.145
X238.505Y-57.845
X238.505Y-59.115
X238.505Y-60.385
X238.505Y-61.655
X238.505Y-62.925
X238.505Y-82.055
X238.505Y-83.325
X238.505Y-84.595
X238.505Y-85.865
X238.505Y-87.135
X238.505Y-99.835
X238.505Y-101.105
X238.505Y-102.375
X238.505Y-103.645
X238.505Y-104.915
X238.505Y-124.045
X238.505Y-125.315
X238.505Y-126.585
X238.505Y-127.855
X238.505Y-129.125
X238.505Y-141.825
X238.505Y-143.095
X238.505Y-144.365
X238.505Y-145.635
X238.505Y-146.905
X238.505Y-166.035
X238.505Y-167.305
X238.505Y-168.575
X238.505Y-169.845
X238.505Y-171.115
X238.505Y-183.815
X238.505Y-185.085
X238.505Y-186.355
X238.505Y-187.625
X238.505Y-188.895
X238.505Y-208.025
X238.505Y-209.295
X238.505Y-210.565
X238.505Y-211.835
X238.505Y-213.105
X238.505Y-225.805
X238.505Y-227.075
X238.505Y-228.345
X238.505Y-229.615
X238.505Y-230.885
X238.505Y-250.015
X238.505Y-251.285
X238.505Y-252.555
X238.505Y-253.825
X238.505Y-255.095
X238.505Y-267.795
X238.505Y-269.065
X238.505Y-270.335
X238.505Y-271.605
X238.505Y-272.875
X239.775Y-40.065
X239.775Y-57.845
X239.775Y-82.055
X239.775Y-99.835
X239.775Y-124.045
X239.775Y-141.825
X239.775Y-166.035
X239.775Y-183.815
X239.775Y-208.025
X239.775Y-225.805
X239.775Y-250.015
X239.775Y-267.795
X241.045Y-40.065
X241.045Y-57.845
X241.045Y-82.055
X241.045Y-99.835
X241.045Y-124.045
X241.045Y-141.825
X241.045Y-166.035
X241.045Y-183.815
X241.045Y-208.025
X241.045Y-225.805
X241.045Y-250.015
X241.045Y-267.795
X242.315Y-40.065
X242.315Y-57.845
X242.315Y-82.055
X242.315Y-99.835
X242.315Y-124.045
X242.315Y-141.825
X242.315Y-166.035
X242.315Y-183.815
X242.315Y-208.025
X242.315Y-225.805
X242.315Y-250.015
X242.315Y-267.795
X243.585Y-40.065
X243.585Y-57.845
X243.585Y-82.055
X243.585Y-99.835
X243.585Y-124.045
X243.585Y-141.825
X243.585Y-166.035
X243.585Y-183.815
X243.585Y-208.025
X243.585Y-225.805
X243.585Y-250.015
X243.585Y-267.795
X246.525Y-63.695
X246.525Y-64.965
X246.525Y-66.235
X246.525Y-67.505
X246.525Y-68.775
X246.525Y-105.685
X246.525Y-106.955
X246.525Y-108.225
X246.525Y-109.495
X246.525Y-110.765
X246.525Y-147.675
X246.525Y-148.945
X246.525Y-150.215
X246.525Y-151.485
X246.525Y-152.755
X246.525Y-189.665
X246.525Y-190.935
X246.525Y-192.205
X246.525Y-193.475
X246.525Y-194.745
X246.525Y-231.655
X246.525Y-232.925
X246.525Y-234.195
X246.525Y-235.465
X246.525Y-236.735
X246.525Y-273.645
X246.525Y-274.915
X246.525Y-276.185
X246.525Y-277.455
X246.525Y-278.725
X246.625Y-43.375
X246.625Y-44.645
X246.625Y-45.915
X246.625Y-85.365
X246.625Y-86.635
X246.625Y-87.905
X246.625Y-127.355
X246.625Y-128.625
X246.625Y-129.895
X246.625Y-169.345
X246.625Y-170.615
X246.625Y-171.885
X246.625Y-211.335
X246.625Y-212.605
X246.625Y-213.875
X246.625Y-253.325
X246.625Y-254.595
X246.625Y-255.865
X246.665Y-40.835
X246.665Y-42.105
X246.665Y-82.825
X246.665Y-84.095
X246.665Y-124.815
X246.665Y-126.085
X246.665Y-166.805
X246.665Y-168.075
X246.665Y-208.795
X246.665Y-210.065
X246.665Y-250.785
X246.665Y-252.055
X247.795Y-63.695
X247.795Y-64.965
X247.795Y-66.235
X247.795Y-67.505
X247.795Y-68.775
X247.795Y-105.685
X247.795Y-106.955
X247.795Y-108.225
X247.795Y-109.495
X247.795Y-110.765
X247.795Y-147.675
X247.795Y-148.945
X247.795Y-150.215
X247.795Y-151.485
X247.795Y-152.755
X247.795Y-189.665
X247.795Y-190.935
X247.795Y-192.205
X247.795Y-193.475
X247.795Y-194.745
X247.795Y-231.655
X247.795Y-232.925
X247.795Y-234.195
X247.795Y-235.465
X247.795Y-236.735
X247.795Y-273.645
X247.795Y-274.915
X247.795Y-276.185
X247.795Y-277.455
X247.795Y-278.725
X247.895Y-40.835
X247.895Y-42.105
X247.895Y-43.375
X247.895Y-44.645
X247.895Y-45.915
X247.895Y-82.825
X247.895Y-84.095
X247.895Y-85.365
X247.895Y-86.635
X247.895Y-87.905
X247.895Y-124.815
X247.895Y-126.085
X247.895Y-127.355
X247.895Y-128.625
X247.895Y-129.895
X247.895Y-166.805
X247.895Y-168.075
X247.895Y-169.345
X247.895Y-170.615
X247.895Y-171.885
X247.895Y-208.795
X247.895Y-210.065
X247.895Y-211.335
X247.895Y-212.605
X247.895Y-213.875
X247.895Y-250.785
X247.895Y-252.055
X247.895Y-253.325
X247.895Y-254.595
X247.895Y-255.865
T2
X23.235Y-45.915
X23.235Y-64.965
X23.235Y-87.905
X23.235Y-106.955
X23.235Y-129.895
X23.235Y-148.945
X23.235Y-171.885
X23.235Y-190.935
X23.235Y-213.875
X23.235Y-232.925
X23.235Y-255.865
X23.235Y-274.915
X23.938Y-44.218
X23.938Y-47.612
X23.938Y-63.268
X23.938Y-66.662
X23.938Y-86.208
X23.938Y-89.602
X23.938Y-105.258
X23.938Y-108.652
X23.938Y-128.198
X23.938Y-131.592
X23.938Y-147.248
X23.938Y-150.642
X23.938Y-170.188
X23.938Y-173.582
X23.938Y-189.238
X23.938Y-192.632
X23.938Y-212.178
X23.938Y-215.572
X23.938Y-231.228
X23.938Y-234.622
X23.938Y-254.168
X23.938Y-257.562
X23.938Y-273.218
X23.938Y-276.612
X25.635Y-43.515
X25.635Y-48.315
X25.635Y-62.565
X25.635Y-67.365
X25.635Y-85.505
X25.635Y-90.305
X25.635Y-104.555
X25.635Y-109.355
X25.635Y-127.495
X25.635Y-132.295
X25.635Y-146.545
X25.635Y-151.345
X25.635Y-169.485
X25.635Y-174.285
X25.635Y-188.535
X25.635Y-193.335
X25.635Y-211.475
X25.635Y-216.275
X25.635Y-230.525
X25.635Y-235.325
X25.635Y-253.465
X25.635Y-258.265
X25.635Y-272.515
X25.635Y-277.315
X27.332Y-44.218
X27.332Y-47.612
X27.332Y-63.268
X27.332Y-66.662
X27.332Y-86.208
X27.332Y-89.602
X27.332Y-105.258
X27.332Y-108.652
X27.332Y-128.198
X27.332Y-131.592
X27.332Y-147.248
X27.332Y-150.642
X27.332Y-170.188
X27.332Y-173.582
X27.332Y-189.238
X27.332Y-192.632
X27.332Y-212.178
X27.332Y-215.572
X27.332Y-231.228
X27.332Y-234.622
X27.332Y-254.168
X27.332Y-257.562
X27.332Y-273.218
X27.332Y-276.612
X28.035Y-45.915
X28.035Y-64.965
X28.035Y-87.905
X28.035Y-106.955
X28.035Y-129.895
X28.035Y-148.945
X28.035Y-171.885
X28.035Y-190.935
X28.035Y-213.875
X28.035Y-232.925
X28.035Y-255.865
X28.035Y-274.915
X83.185Y-45.915
X83.185Y-64.965
X83.185Y-87.905
X83.185Y-106.955
X83.185Y-129.895
X83.185Y-148.945
X83.185Y-171.885
X83.185Y-190.935
X83.185Y-213.875
X83.185Y-232.925
X83.185Y-255.865
X83.185Y-274.915
X83.888Y-44.218
X83.888Y-47.612
X83.888Y-63.268
X83.888Y-66.662
X83.888Y-86.208
X83.888Y-89.602
X83.888Y-105.258
X83.888Y-108.652
X83.888Y-128.198
X83.888Y-131.592
X83.888Y-147.248
X83.888Y-150.642
X83.888Y-170.188
X83.888Y-173.582
X83.888Y-189.238
X83.888Y-192.632
X83.888Y-212.178
X83.888Y-215.572
X83.888Y-231.228
X83.888Y-234.622
X83.888Y-254.168
X83.888Y-257.562
X83.888Y-273.218
X83.888Y-276.612
X85.585Y-43.515
X85.585Y-48.315
X85.585Y-62.565
X85.585Y-67.365
X85.585Y-85.505
X85.585Y-90.305
X85.585Y-104.555
X85.585Y-109.355
X85.585Y-127.495
X85.585Y-132.295
X85.585Y-146.545
X85.585Y-151.345
X85.585Y-169.485
X85.585Y-174.285
X85.585Y-188.535
X85.585Y-193.335
X85.585Y-211.475
X85.585Y-216.275
X85.585Y-230.525
X85.585Y-235.325
X85.585Y-253.465
X85.585Y-258.265
X85.585Y-272.515
X85.585Y-277.315
X87.282Y-44.218
X87.282Y-47.612
X87.282Y-63.268
X87.282Y-66.662
X87.282Y-86.208
X87.282Y-89.602
X87.282Y-105.258
X87.282Y-108.652
X87.282Y-128.198
X87.282Y-131.592
X87.282Y-147.248
X87.282Y-150.642
X87.282Y-170.188
X87.282Y-173.582
X87.282Y-189.238
X87.282Y-192.632
X87.282Y-212.178
X87.282Y-215.572
X87.282Y-231.228
X87.282Y-234.622
X87.282Y-254.168
X87.282Y-257.562
X87.282Y-273.218
X87.282Y-276.612
X87.985Y-45.915
X87.985Y-64.965
X87.985Y-87.905
X87.985Y-106.955
X87.985Y-129.895
X87.985Y-148.945
X87.985Y-171.885
X87.985Y-190.935
X87.985Y-213.875
X87.985Y-232.925
X87.985Y-255.865
X87.985Y-274.915
X143.135Y-45.915
X143.135Y-64.965
X143.135Y-87.905
X143.135Y-106.955
X143.135Y-129.895
X143.135Y-148.945
X143.135Y-171.885
X143.135Y-190.935
X143.135Y-213.875
X143.135Y-232.925
X143.135Y-255.865
X143.135Y-274.915
X143.838Y-44.218
X143.838Y-47.612
X143.838Y-63.268
X143.838Y-66.662
X143.838Y-86.208
X143.838Y-89.602
X143.838Y-105.258
X143.838Y-108.652
X143.838Y-128.198
X143.838Y-131.592
X143.838Y-147.248
X143.838Y-150.642
X143.838Y-170.188
X143.838Y-173.582
X143.838Y-189.238
X143.838Y-192.632
X143.838Y-212.178
X143.838Y-215.572
X143.838Y-231.228
X143.838Y-234.622
X143.838Y-254.168
X143.838Y-257.562
X143.838Y-273.218
X143.838Y-276.612
X145.535Y-43.515
X145.535Y-48.315
X145.535Y-62.565
X145.535Y-67.365
X145.535Y-85.505
X145.535Y-90.305
X145.535Y-104.555
X145.535Y-109.355
X145.535Y-127.495
X145.535Y-132.295
X145.535Y-146.545
X145.535Y-151.345
X145.535Y-169.485
X145.535Y-174.285
X145.535Y-188.535
X145.535Y-193.335
X145.535Y-211.475
X145.535Y-216.275
X145.535Y-230.525
X145.535Y-235.325
X145.535Y-253.465
X145.535Y-258.265
X145.535Y-272.515
X145.535Y-277.315
X147.232Y-44.218
X147.232Y-47.612
X147.232Y-63.268
X147.232Y-66.662
X147.232Y-86.208
X147.232Y-89.602
X147.232Y-105.258
X147.232Y-108.652
X147.232Y-128.198
X147.232Y-131.592
X147.232Y-147.248
X147.232Y-150.642
X147.232Y-170.188
X147.232Y-173.582
X147.232Y-189.238
X147.232Y-192.632
X147.232Y-212.178
X147.232Y-215.572
X147.232Y-231.228
X147.232Y-234.622
X147.232Y-254.168
X147.232Y-257.562
X147.232Y-273.218
X147.232Y-276.612
X147.935Y-45.915
X147.935Y-64.965
X147.935Y-87.905
X147.935Y-106.955
X147.935Y-129.895
X147.935Y-148.945
X147.935Y-171.885
X147.935Y-190.935
X147.935Y-213.875
X147.935Y-232.925
X147.935Y-255.865
X147.935Y-274.915
X203.085Y-45.915
X203.085Y-64.965
X203.085Y-87.905
X203.085Y-106.955
X203.085Y-129.895
X203.085Y-148.945
X203.085Y-171.885
X203.085Y-190.935
X203.085Y-213.875
X203.085Y-232.925
X203.085Y-255.865
X203.085Y-274.915
X203.788Y-44.218
X203.788Y-47.612
X203.788Y-63.268
X203.788Y-66.662
X203.788Y-86.208
X203.788Y-89.602
X203.788Y-105.258
X203.788Y-108.652
X203.788Y-128.198
X203.788Y-131.592
X203.788Y-147.248
X203.788Y-150.642
X203.788Y-170.188
X203.788Y-173.582
X203.788Y-189.238
X203.788Y-192.632
X203.788Y-212.178
X203.788Y-215.572
X203.788Y-231.228
X203.788Y-234.622
X203.788Y-254.168
X203.788Y-257.562
X203.788Y-273.218
X203.788Y-276.612
X205.485Y-43.515
X205.485Y-48.315
X205.485Y-62.565
X205.485Y-67.365
X205.485Y-85.505
X205.485Y-90.305
X205.485Y-104.555
X205.485Y-109.355
X205.485Y-127.495
X205.485Y-132.295
X205.485Y-146.545
X205.485Y-151.345
X205.485Y-169.485
X205.485Y-174.285
X205.485Y-188.535
X205.485Y-193.335
X205.485Y-211.475
X205.485Y-216.275
X205.485Y-230.525
X205.485Y-235.325
X205.485Y-253.465
X205.485Y-258.265
X205.485Y-272.515
X205.485Y-277.315
X207.182Y-44.218
X207.182Y-47.612
X207.182Y-63.268
X207.182Y-66.662
X207.182Y-86.208
X207.182Y-89.602
X207.182Y-105.258
X207.182Y-108.652
X207.182Y-128.198
X207.182Y-131.592
X207.182Y-147.248
X207.182Y-150.642
X207.182Y-170.188
X207.182Y-173.582
X207.182Y-189.238
X207.182Y-192.632
X207.182Y-212.178
X207.182Y-215.572
X207.182Y-231.228
X207.182Y-234.622
X207.182Y-254.168
X207.182Y-257.562
X207.182Y-273.218
X207.182Y-276.612
X207.885Y-45.915
X207.885Y-64.965
X207.885Y-87.905
X207.885Y-106.955
X207.885Y-129.895
X207.885Y-148.945
X207.885Y-171.885
X207.885Y-190.935
X207.885Y-213.875
X207.885Y-232.925
X207.885Y-255.865
X207.885Y-274.915
T3
X24.365Y-31.945
X24.365Y-37.025
X24.365Y-73.935
X24.365Y-79.015
X24.365Y-115.925
X24.365Y-121.005
X24.365Y-157.915
X24.365Y-162.995
X24.365Y-199.905
X24.365Y-204.985
X24.365Y-241.895
X24.365Y-246.975
X26.365Y-31.945
X26.365Y-37.025
X26.365Y-73.935
X26.365Y-79.015
X26.365Y-115.925
X26.365Y-121.005
X26.365Y-157.915
X26.365Y-162.995
X26.365Y-199.905
X26.365Y-204.985
X26.365Y-241.895
X26.365Y-246.975
X28.365Y-31.945
X28.365Y-37.025
X28.365Y-73.935
X28.365Y-79.015
X28.365Y-115.925
X28.365Y-121.005
X28.365Y-157.915
X28.365Y-162.995
X28.365Y-199.905
X28.365Y-204.985
X28.365Y-241.895
X28.365Y-246.975
X30.365Y-31.945
X30.365Y-37.025
X30.365Y-73.935
X30.365Y-79.015
X30.365Y-115.925
X30.365Y-121.005
X30.365Y-157.915
X30.365Y-162.995
X30.365Y-199.905
X30.365Y-204.985
X30.365Y-241.895
X30.365Y-246.975
X32.365Y-31.945
X32.365Y-37.025
X32.365Y-73.935
X32.365Y-79.015
X32.365Y-115.925
X32.365Y-121.005
X32.365Y-157.915
X32.365Y-162.995
X32.365Y-199.905
X32.365Y-204.985
X32.365Y-241.895
X32.365Y-246.975
X34.365Y-31.945
X34.365Y-37.025
X34.365Y-73.935
X34.365Y-79.015
X34.365Y-115.925
X34.365Y-121.005
X34.365Y-157.915
X34.365Y-162.995
X34.365Y-199.905
X34.365Y-204.985
X34.365Y-241.895
X34.365Y-246.975
X76.435Y-33.215
X76.435Y-35.215
X76.435Y-40.835
X76.435Y-42.835
X76.435Y-44.835
X76.435Y-64.965
X76.435Y-66.965
X76.435Y-75.205
X76.435Y-77.205
X76.435Y-82.825
X76.435Y-84.825
X76.435Y-86.825
X76.435Y-106.955
X76.435Y-108.955
X76.435Y-117.195
X76.435Y-119.195
X76.435Y-124.815
X76.435Y-126.815
X76.435Y-128.815
X76.435Y-148.945
X76.435Y-150.945
X76.435Y-159.185
X76.435Y-161.185
X76.435Y-166.805
X76.435Y-168.805
X76.435Y-170.805
X76.435Y-190.935
X76.435Y-192.935
X76.435Y-201.175
X76.435Y-203.175
X76.435Y-208.795
X76.435Y-210.795
X76.435Y-212.795
X76.435Y-232.925
X76.435Y-234.925
X76.435Y-243.165
X76.435Y-245.165
X76.435Y-250.785
X76.435Y-252.785
X76.435Y-254.785
X76.435Y-274.915
X76.435Y-276.915
X84.315Y-31.945
X84.315Y-37.025
X84.315Y-73.935
X84.315Y-79.015
X84.315Y-115.925
X84.315Y-121.005
X84.315Y-157.915
X84.315Y-162.995
X84.315Y-199.905
X84.315Y-204.985
X84.315Y-241.895
X84.315Y-246.975
X86.315Y-31.945
X86.315Y-37.025
X86.315Y-73.935
X86.315Y-79.015
X86.315Y-115.925
X86.315Y-121.005
X86.315Y-157.915
X86.315Y-162.995
X86.315Y-199.905
X86.315Y-204.985
X86.315Y-241.895
X86.315Y-246.975
X88.315Y-31.945
X88.315Y-37.025
X88.315Y-73.935
X88.315Y-79.015
X88.315Y-115.925
X88.315Y-121.005
X88.315Y-157.915
X88.315Y-162.995
X88.315Y-199.905
X88.315Y-204.985
X88.315Y-241.895
X88.315Y-246.975
X90.315Y-31.945
X90.315Y-37.025
X90.315Y-73.935
X90.315Y-79.015
X90.315Y-115.925
X90.315Y-121.005
X90.315Y-157.915
X90.315Y-162.995
X90.315Y-199.905
X90.315Y-204.985
X90.315Y-241.895
X90.315Y-246.975
X92.315Y-31.945
X92.315Y-37.025
X92.315Y-73.935
X92.315Y-79.015
X92.315Y-115.925
X92.315Y-121.005
X92.315Y-157.915
X92.315Y-162.995
X92.315Y-199.905
X92.315Y-204.985
X92.315Y-241.895
X92.315Y-246.975
X94.315Y-31.945
X94.315Y-37.025
X94.315Y-73.935
X94.315Y-79.015
X94.315Y-115.925
X94.315Y-121.005
X94.315Y-157.915
X94.315Y-162.995
X94.315Y-199.905
X94.315Y-204.985
X94.315Y-241.895
X94.315Y-246.975
X136.385Y-33.215
X136.385Y-35.215
X136.385Y-40.835
X136.385Y-42.835
X136.385Y-44.835
X136.385Y-64.965
X136.385Y-66.965
X136.385Y-75.205
X136.385Y-77.205
X136.385Y-82.825
X136.385Y-84.825
X136.385Y-86.825
X136.385Y-106.955
X136.385Y-108.955
X136.385Y-117.195
X136.385Y-119.195
X136.385Y-124.815
X136.385Y-126.815
X136.385Y-128.815
X136.385Y-148.945
X136.385Y-150.945
X136.385Y-159.185
X136.385Y-161.185
X136.385Y-166.805
X136.385Y-168.805
X136.385Y-170.805
X136.385Y-190.935
X136.385Y-192.935
X136.385Y-201.175
X136.385Y-203.175
X136.385Y-208.795
X136.385Y-210.795
X136.385Y-212.795
X136.385Y-232.925
X136.385Y-234.925
X136.385Y-243.165
X136.385Y-245.165
X136.385Y-250.785
X136.385Y-252.785
X136.385Y-254.785
X136.385Y-274.915
X136.385Y-276.915
X144.265Y-31.945
X144.265Y-37.025
X144.265Y-73.935
X144.265Y-79.015
X144.265Y-115.925
X144.265Y-121.005
X144.265Y-157.915
X144.265Y-162.995
X144.265Y-199.905
X144.265Y-204.985
X144.265Y-241.895
X144.265Y-246.975
X146.265Y-31.945
X146.265Y-37.025
X146.265Y-73.935
X146.265Y-79.015
X146.265Y-115.925
X146.265Y-121.005
X146.265Y-157.915
X146.265Y-162.995
X146.265Y-199.905
X146.265Y-204.985
X146.265Y-241.895
X146.265Y-246.975
X148.265Y-31.945
X148.265Y-37.025
X148.265Y-73.935
X148.265Y-79.015
X148.265Y-115.925
X148.265Y-121.005
X148.265Y-157.915
X148.265Y-162.995
X148.265Y-199.905
X148.265Y-204.985
X148.265Y-241.895
X148.265Y-246.975
X150.265Y-31.945
X150.265Y-37.025
X150.265Y-73.935
X150.265Y-79.015
X150.265Y-115.925
X150.265Y-121.005
X150.265Y-157.915
X150.265Y-162.995
X150.265Y-199.905
X150.265Y-204.985
X150.265Y-241.895
X150.265Y-246.975
X152.265Y-31.945
X152.265Y-37.025
X152.265Y-73.935
X152.265Y-79.015
X152.265Y-115.925
X152.265Y-121.005
X152.265Y-157.915
X152.265Y-162.995
X152.265Y-199.905
X152.265Y-204.985
X152.265Y-241.895
X152.265Y-246.975
X154.265Y-31.945
X154.265Y-37.025
X154.265Y-73.935
X154.265Y-79.015
X154.265Y-115.925
X154.265Y-121.005
X154.265Y-157.915
X154.265Y-162.995
X154.265Y-199.905
X154.265Y-204.985
X154.265Y-241.895
X154.265Y-246.975
X196.335Y-33.215
X196.335Y-35.215
X196.335Y-40.835
X196.335Y-42.835
X196.335Y-44.835
X196.335Y-64.965
X196.335Y-66.965
X196.335Y-75.205
X196.335Y-77.205
X196.335Y-82.825
X196.335Y-84.825
X196.335Y-86.825
X196.335Y-106.955
X196.335Y-108.955
X196.335Y-117.195
X196.335Y-119.195
X196.335Y-124.815
X196.335Y-126.815
X196.335Y-128.815
X196.335Y-148.945
X196.335Y-150.945
X196.335Y-159.185
X196.335Y-161.185
X196.335Y-166.805
X196.335Y-168.805
X196.335Y-170.805
X196.335Y-190.935
X196.335Y-192.935
X196.335Y-201.175
X196.335Y-203.175
X196.335Y-208.795
X196.335Y-210.795
X196.335Y-212.795
X196.335Y-232.925
X196.335Y-234.925
X196.335Y-243.165
X196.335Y-245.165
X196.335Y-250.785
X196.335Y-252.785
X196.335Y-254.785
X196.335Y-274.915
X196.335Y-276.915
X204.215Y-31.945
X204.215Y-37.025
X204.215Y-73.935
X204.215Y-79.015
X204.215Y-115.925
X204.215Y-121.005
X204.215Y-157.915
X204.215Y-162.995
X204.215Y-199.905
X204.215Y-204.985
X204.215Y-241.895
X204.215Y-246.975
X206.215Y-31.945
X206.215Y-37.025
X206.215Y-73.935
X206.215Y-79.015
X206.215Y-115.925
X206.215Y-121.005
X206.215Y-157.915
X206.215Y-162.995
X206.215Y-199.905
X206.215Y-204.985
X206.215Y-241.895
X206.215Y-246.975
X208.215Y-31.945
X208.215Y-37.025
X208.215Y-73.935
X208.215Y-79.015
X208.215Y-115.925
X208.215Y-121.005
X208.215Y-157.915
X208.215Y-162.995
X208.215Y-199.905
X208.215Y-204.985
X208.215Y-241.895
X208.215Y-246.975
X210.215Y-31.945
X210.215Y-37.025
X210.215Y-73.935
X210.215Y-79.015
X210.215Y-115.925
X210.215Y-121.005
X210.215Y-157.915
X210.215Y-162.995
X210.215Y-199.905
X210.215Y-204.985
X210.215Y-241.895
X210.215Y-246.975
X212.215Y-31.945
X212.215Y-37.025
X212.215Y-73.935
X212.215Y-79.015
X212.215Y-115.925
X212.215Y-121.005
X212.215Y-157.915
X212.215Y-162.995
X212.215Y-199.905
X212.215Y-204.985
X212.215Y-241.895
X212.215Y-246.975
X214.215Y-31.945
X214.215Y-37.025
X214.215Y-73.935
X214.215Y-79.015
X214.215Y-115.925
X214.215Y-121.005
X214.215Y-157.915
X214.215Y-162.995
X214.215Y-199.905
X214.215Y-204.985
X214.215Y-241.895
X214.215Y-246.975
X256.285Y-33.215
X256.285Y-35.215
X256.285Y-40.835
X256.285Y-42.835
X256.285Y-44.835
X256.285Y-64.965
X256.285Y-66.965
X256.285Y-75.205
X256.285Y-77.205
X256.285Y-82.825
X256.285Y-84.825
X256.285Y-86.825
X256.285Y-106.955
X256.285Y-108.955
X256.285Y-117.195
X256.285Y-119.195
X256.285Y-124.815
X256.285Y-126.815
X256.285Y-128.815
X256.285Y-148.945
X256.285Y-150.945
X256.285Y-159.185
X256.285Y-161.185
X256.285Y-166.805
X256.285Y-168.805
X256.285Y-170.805
X256.285Y-190.935
X256.285Y-192.935
X256.285Y-201.175
X256.285Y-203.175
X256.285Y-208.795
X256.285Y-210.795
X256.285Y-212.795
X256.285Y-232.925
X256.285Y-234.925
X256.285Y-243.165
X256.285Y-245.165
X256.285Y-250.785
X256.285Y-252.785
X256.285Y-254.785
X256.285Y-274.915
X256.285Y-276.915
T4
X42.145Y-32.025
X42.145Y-37.025
X42.145Y-74.015
X42.145Y-79.015
X42.145Y-116.005
X42.145Y-121.005
X42.145Y-157.995
X42.145Y-162.995
X42.145Y-199.985
X42.145Y-204.985
X42.145Y-241.975
X42.145Y-246.975
X53.575Y-32.025
X53.575Y-37.025
X53.575Y-74.015
X53.575Y-79.015
X53.575Y-116.005
X53.575Y-121.005
X53.575Y-157.995
X53.575Y-162.995
X53.575Y-199.985
X53.575Y-204.985
X53.575Y-241.975
X53.575Y-246.975
X102.095Y-32.025
X102.095Y-37.025
X102.095Y-74.015
X102.095Y-79.015
X102.095Y-116.005
X102.095Y-121.005
X102.095Y-157.995
X102.095Y-162.995
X102.095Y-199.985
X102.095Y-204.985
X102.095Y-241.975
X102.095Y-246.975
X113.525Y-32.025
X113.525Y-37.025
X113.525Y-74.015
X113.525Y-79.015
X113.525Y-116.005
X113.525Y-121.005
X113.525Y-157.995
X113.525Y-162.995
X113.525Y-199.985
X113.525Y-204.985
X113.525Y-241.975
X113.525Y-246.975
X162.045Y-32.025
X162.045Y-37.025
X162.045Y-74.015
X162.045Y-79.015
X162.045Y-116.005
X162.045Y-121.005
X162.045Y-157.995
X162.045Y-162.995
X162.045Y-199.985
X162.045Y-204.985
X162.045Y-241.975
X162.045Y-246.975
X173.475Y-32.025
X173.475Y-37.025
X173.475Y-74.015
X173.475Y-79.015
X173.475Y-116.005
X173.475Y-121.005
X173.475Y-157.995
X173.475Y-162.995
X173.475Y-199.985
X173.475Y-204.985
X173.475Y-241.975
X173.475Y-246.975
X221.995Y-32.025
X221.995Y-37.025
X221.995Y-74.015
X221.995Y-79.015
X221.995Y-116.005
X221.995Y-121.005
X221.995Y-157.995
X221.995Y-162.995
X221.995Y-199.985
X221.995Y-204.985
X221.995Y-241.975
X221.995Y-246.975
X233.425Y-32.025
X233.425Y-37.025
X233.425Y-74.015
X233.425Y-79.015
X233.425Y-116.005
X233.425Y-121.005
X233.425Y-157.995
X233.425Y-162.995
X233.425Y-199.985
X233.425Y-204.985
X233.425Y-241.975
X233.425Y-246.975
T5
X62.465Y-33.215
X62.465Y-75.205
X62.465Y-117.195
X62.465Y-159.185
X62.465Y-201.175
X62.465Y-243.165
X67.545Y-33.215
X67.545Y-75.205
X67.545Y-117.195
X67.545Y-159.185
X67.545Y-201.175
X67.545Y-243.165
X76.435Y-49.725
X76.435Y-54.805
X76.435Y-59.885
X76.435Y-91.715
X76.435Y-96.795
X76.435Y-101.875
X76.435Y-133.705
X76.435Y-138.785
X76.435Y-143.865
X76.435Y-175.695
X76.435Y-180.775
X76.435Y-185.855
X76.435Y-217.685
X76.435Y-222.765
X76.435Y-227.845
X76.435Y-259.675
X76.435Y-264.755
X76.435Y-269.835
X122.415Y-33.215
X122.415Y-75.205
X122.415Y-117.195
X122.415Y-159.185
X122.415Y-201.175
X122.415Y-243.165
X127.495Y-33.215
X127.495Y-75.205
X127.495Y-117.195
X127.495Y-159.185
X127.495Y-201.175
X127.495Y-243.165
X136.385Y-49.725
X136.385Y-54.805
X136.385Y-59.885
X136.385Y-91.715
X136.385Y-96.795
X136.385Y-101.875
X136.385Y-133.705
X136.385Y-138.785
X136.385Y-143.865
X136.385Y-175.695
X136.385Y-180.775
X136.385Y-185.855
X136.385Y-217.685
X136.385Y-222.765
X136.385Y-227.845
X136.385Y-259.675
X136.385Y-264.755
X136.385Y-269.835
X182.365Y-33.215
X182.365Y-75.205
X182.365Y-117.195
X182.365Y-159.185
X182.365Y-201.175
X182.365Y-243.165
X187.445Y-33.215
X187.445Y-75.205
X187.445Y-117.195
X187.445Y-159.185
X187.445Y-201.175
X187.445Y-243.165
X196.335Y-49.725
X196.335Y-54.805
X196.335Y-59.885
X196.335Y-91.715
X196.335Y-96.795
X196.335Y-101.875
X196.335Y-133.705
X196.335Y-138.785
X196.335Y-143.865
X196.335Y-175.695
X196.335Y-180.775
X196.335Y-185.855
X196.335Y-217.685
X196.335Y-222.765
X196.335Y-227.845
X196.335Y-259.675
X196.335Y-264.755
X196.335Y-269.835
X242.315Y-33.215
X242.315Y-75.205
X242.315Y-117.195
X242.315Y-159.185
X242.315Y-201.175
X242.315Y-243.165
X247.395Y-33.215
X247.395Y-75.205
X247.395Y-117.195
X247.395Y-159.185
X247.395Y-201.175
X247.395Y-243.165
X256.285Y-49.725
X256.285Y-54.805
X256.285Y-59.885
X256.285Y-91.715
X256.285Y-96.795
X256.285Y-101.875
X256.285Y-133.705
X256.285Y-138.785
X256.285Y-143.865
X256.285Y-175.695
X256.285Y-180.775
X256.285Y-185.855
X256.285Y-217.685
X256.285Y-222.765
X256.285Y-227.845
X256.285Y-259.675
X256.285Y-264.755
X256.285Y-269.835
T6
X25.635Y-45.915
X25.635Y-64.965
X25.635Y-87.905
X25.635Y-106.955
X25.635Y-129.895
X25.635Y-148.945
X25.635Y-171.885
X25.635Y-190.935
X25.635Y-213.875
X25.635Y-232.925
X25.635Y-255.865
X25.635Y-274.915
X85.585Y-45.915
X85.585Y-64.965
X85.585Y-87.905
X85.585Y-106.955
X85.585Y-129.895
X85.585Y-148.945
X85.585Y-171.885
X85.585Y-190.935
X85.585Y-213.875
X85.585Y-232.925
X85.585Y-255.865
X85.585Y-274.915
X145.535Y-45.915
X145.535Y-64.965
X145.535Y-87.905
X145.535Y-106.955
X145.535Y-129.895
X145.535Y-148.945
X145.535Y-171.885
X145.535Y-190.935
X145.535Y-213.875
X145.535Y-232.925
X145.535Y-255.865
X145.535Y-274.915
X205.485Y-45.915
X205.485Y-64.965
X205.485Y-87.905
X205.485Y-106.955
X205.485Y-129.895
X205.485Y-148.945
X205.485Y-171.885
X205.485Y-190.935
X205.485Y-213.875
X205.485Y-232.925
X205.485Y-255.865
X205.485Y-274.915
T7
X21.221Y-47.995
X21.221Y-48.995
X21.221Y-49.995
X21.221Y-50.995
X21.221Y-51.995
X21.221Y-89.995
X21.221Y-90.995
X21.221Y-91.995
X21.221Y-92.995
X21.221Y-93.995
X21.221Y-131.985
X21.221Y-132.985
X21.221Y-133.985
X21.221Y-134.985
X21.221Y-135.985
X21.221Y-173.975
X21.221Y-174.975
X21.221Y-175.975
X21.221Y-176.975
X21.221Y-177.975
X21.221Y-215.965
X21.221Y-216.965
X21.221Y-217.965
X21.221Y-218.965
X21.221Y-219.965
X21.221Y-257.955
X21.221Y-258.955
X21.221Y-259.955
X21.221Y-260.955
X21.221Y-261.955
X38.337Y-69.789
X38.337Y-72.201
X38.337Y-111.789
X38.337Y-114.191
X38.337Y-153.779
X38.337Y-156.181
X38.337Y-195.769
X38.337Y-198.171
X38.337Y-237.759
X38.337Y-240.161
X39.337Y-69.789
X39.337Y-72.201
X39.337Y-111.789
X39.337Y-114.191
X39.337Y-153.779
X39.337Y-156.181
X39.337Y-195.769
X39.337Y-198.171
X39.337Y-237.759
X39.337Y-240.161
X40.337Y-69.789
X40.337Y-72.201
X40.337Y-111.789
X40.337Y-114.191
X40.337Y-153.779
X40.337Y-156.181
X40.337Y-195.769
X40.337Y-198.171
X40.337Y-237.759
X40.337Y-240.161
X41.337Y-69.789
X41.337Y-72.201
X41.337Y-111.789
X41.337Y-114.191
X41.337Y-153.779
X41.337Y-156.181
X41.337Y-195.769
X41.337Y-198.171
X41.337Y-237.759
X41.337Y-240.161
X42.337Y-69.789
X42.337Y-72.201
X42.337Y-111.789
X42.337Y-114.191
X42.337Y-153.779
X42.337Y-156.181
X42.337Y-195.769
X42.337Y-198.171
X42.337Y-237.759
X42.337Y-240.161
X57.653Y-69.789
X57.653Y-72.201
X57.653Y-111.789
X57.653Y-114.191
X57.653Y-153.779
X57.653Y-156.181
X57.653Y-195.769
X57.653Y-198.171
X57.653Y-237.759
X57.653Y-240.161
X58.653Y-69.789
X58.653Y-72.201
X58.653Y-111.789
X58.653Y-114.191
X58.653Y-153.779
X58.653Y-156.181
X58.653Y-195.769
X58.653Y-198.171
X58.653Y-237.759
X58.653Y-240.161
X59.653Y-69.789
X59.653Y-72.201
X59.653Y-111.789
X59.653Y-114.191
X59.653Y-153.779
X59.653Y-156.181
X59.653Y-195.769
X59.653Y-198.171
X59.653Y-237.759
X59.653Y-240.161
X60.653Y-69.789
X60.653Y-72.201
X60.653Y-111.789
X60.653Y-114.191
X60.653Y-153.779
X60.653Y-156.181
X60.653Y-195.769
X60.653Y-198.171
X60.653Y-237.759
X60.653Y-240.161
X61.653Y-69.789
X61.653Y-72.201
X61.653Y-111.789
X61.653Y-114.191
X61.653Y-153.779
X61.653Y-156.181
X61.653Y-195.769
X61.653Y-198.171
X61.653Y-237.759
X61.653Y-240.161
X78.769Y-47.995
X78.769Y-48.995
X78.769Y-49.995
X78.769Y-50.995
X78.769Y-51.995
X78.769Y-89.995
X78.769Y-90.995
X78.769Y-91.995
X78.769Y-92.995
X78.769Y-93.995
X78.769Y-131.985
X78.769Y-132.985
X78.769Y-133.985
X78.769Y-134.985
X78.769Y-135.985
X78.769Y-173.975
X78.769Y-174.975
X78.769Y-175.975
X78.769Y-176.975
X78.769Y-177.975
X78.769Y-215.965
X78.769Y-216.965
X78.769Y-217.965
X78.769Y-218.965
X78.769Y-219.965
X78.769Y-257.955
X78.769Y-258.955
X78.769Y-259.955
X78.769Y-260.955
X78.769Y-261.955
X81.181Y-47.995
X81.181Y-48.995
X81.181Y-49.995
X81.181Y-50.995
X81.181Y-51.995
X81.181Y-89.995
X81.181Y-90.995
X81.181Y-91.995
X81.181Y-92.995
X81.181Y-93.995
X81.181Y-131.985
X81.181Y-132.985
X81.181Y-133.985
X81.181Y-134.985
X81.181Y-135.985
X81.181Y-173.975
X81.181Y-174.975
X81.181Y-175.975
X81.181Y-176.975
X81.181Y-177.975
X81.181Y-215.965
X81.181Y-216.965
X81.181Y-217.965
X81.181Y-218.965
X81.181Y-219.965
X81.181Y-257.955
X81.181Y-258.955
X81.181Y-259.955
X81.181Y-260.955
X81.181Y-261.955
X98.297Y-69.789
X98.297Y-72.201
X98.297Y-111.789
X98.297Y-114.191
X98.297Y-153.779
X98.297Y-156.181
X98.297Y-195.769
X98.297Y-198.171
X98.297Y-237.759
X98.297Y-240.161
X99.297Y-69.789
X99.297Y-72.201
X99.297Y-111.789
X99.297Y-114.191
X99.297Y-153.779
X99.297Y-156.181
X99.297Y-195.769
X99.297Y-198.171
X99.297Y-237.759
X99.297Y-240.161
X100.297Y-69.789
X100.297Y-72.201
X100.297Y-111.789
X100.297Y-114.191
X100.297Y-153.779
X100.297Y-156.181
X100.297Y-195.769
X100.297Y-198.171
X100.297Y-237.759
X100.297Y-240.161
X101.297Y-69.789
X101.297Y-72.201
X101.297Y-111.789
X101.297Y-114.191
X101.297Y-153.779
X101.297Y-156.181
X101.297Y-195.769
X101.297Y-198.171
X101.297Y-237.759
X101.297Y-240.161
X102.297Y-69.789
X102.297Y-72.201
X102.297Y-111.789
X102.297Y-114.191
X102.297Y-153.779
X102.297Y-156.181
X102.297Y-195.769
X102.297Y-198.171
X102.297Y-237.759
X102.297Y-240.161
X117.613Y-69.789
X117.613Y-72.201
X117.613Y-111.789
X117.613Y-114.191
X117.613Y-153.779
X117.613Y-156.181
X117.613Y-195.769
X117.613Y-198.171
X117.613Y-237.759
X117.613Y-240.161
X118.613Y-69.789
X118.613Y-72.201
X118.613Y-111.789
X118.613Y-114.191
X118.613Y-153.779
X118.613Y-156.181
X118.613Y-195.769
X118.613Y-198.171
X118.613Y-237.759
X118.613Y-240.161
X119.613Y-69.789
X119.613Y-72.201
X119.613Y-111.789
X119.613Y-114.191
X119.613Y-153.779
X119.613Y-156.181
X119.613Y-195.769
X119.613Y-198.171
X119.613Y-237.759
X119.613Y-240.161
X120.613Y-69.789
X120.613Y-72.201
X120.613Y-111.789
X120.613Y-114.191
X120.613Y-153.779
X120.613Y-156.181
X120.613Y-195.769
X120.613Y-198.171
X120.613Y-237.759
X120.613Y-240.161
X121.613Y-69.789
X121.613Y-72.201
X121.613Y-111.789
X121.613Y-114.191
X121.613Y-153.779
X121.613Y-156.181
X121.613Y-195.769
X121.613Y-198.171
X121.613Y-237.759
X121.613Y-240.161
X138.729Y-47.995
X138.729Y-48.995
X138.729Y-49.995
X138.729Y-50.995
X138.729Y-51.995
X138.729Y-89.995
X138.729Y-90.995
X138.729Y-91.995
X138.729Y-92.995
X138.729Y-93.995
X138.729Y-131.985
X138.729Y-132.985
X138.729Y-133.985
X138.729Y-134.985
X138.729Y-135.985
X138.729Y-173.975
X138.729Y-174.975
X138.729Y-175.975
X138.729Y-176.975
X138.729Y-177.975
X138.729Y-215.965
X138.729Y-216.965
X138.729Y-217.965
X138.729Y-218.965
X138.729Y-219.965
X138.729Y-257.955
X138.729Y-258.955
X138.729Y-259.955
X138.729Y-260.955
X138.729Y-261.955
X141.131Y-47.995
X141.131Y-48.995
X141.131Y-49.995
X141.131Y-50.995
X141.131Y-51.995
X141.131Y-89.995
X141.131Y-90.995
X141.131Y-91.995
X141.131Y-92.995
X141.131Y-93.995
X141.131Y-131.985
X141.131Y-132.985
X141.131Y-133.985
X141.131Y-134.985
X141.131Y-135.985
X141.131Y-173.975
X141.131Y-174.975
X141.131Y-175.975
X141.131Y-176.975
X141.131Y-177.975
X141.131Y-215.965
X141.131Y-216.965
X141.131Y-217.965
X141.131Y-218.965
X141.131Y-219.965
X141.131Y-257.955
X141.131Y-258.955
X141.131Y-259.955
X141.131Y-260.955
X141.131Y-261.955
X158.247Y-69.789
X158.247Y-72.201
X158.247Y-111.789
X158.247Y-114.191
X158.247Y-153.779
X158.247Y-156.181
X158.247Y-195.769
X158.247Y-198.171
X158.247Y-237.759
X158.247Y-240.161
X159.247Y-69.789
X159.247Y-72.201
X159.247Y-111.789
X159.247Y-114.191
X159.247Y-153.779
X159.247Y-156.181
X159.247Y-195.769
X159.247Y-198.171
X159.247Y-237.759
X159.247Y-240.161
X160.247Y-69.789
X160.247Y-72.201
X160.247Y-111.789
X160.247Y-114.191
X160.247Y-153.779
X160.247Y-156.181
X160.247Y-195.769
X160.247Y-198.171
X160.247Y-237.759
X160.247Y-240.161
X161.247Y-69.789
X161.247Y-72.201
X161.247Y-111.789
X161.247Y-114.191
X161.247Y-153.779
X161.247Y-156.181
X161.247Y-195.769
X161.247Y-198.171
X161.247Y-237.759
X161.247Y-240.161
X162.247Y-69.789
X162.247Y-72.201
X162.247Y-111.789
X162.247Y-114.191
X162.247Y-153.779
X162.247Y-156.181
X162.247Y-195.769
X162.247Y-198.171
X162.247Y-237.759
X162.247Y-240.161
X177.563Y-69.789
X177.563Y-72.201
X177.563Y-111.789
X177.563Y-114.191
X177.563Y-153.779
X177.563Y-156.181
X177.563Y-195.769
X177.563Y-198.171
X177.563Y-237.759
X177.563Y-240.161
X178.563Y-69.789
X178.563Y-72.201
X178.563Y-111.789
X178.563Y-114.191
X178.563Y-153.779
X178.563Y-156.181
X178.563Y-195.769
X178.563Y-198.171
X178.563Y-237.759
X178.563Y-240.161
X179.563Y-69.789
X179.563Y-72.201
X179.563Y-111.789
X179.563Y-114.191
X179.563Y-153.779
X179.563Y-156.181
X179.563Y-195.769
X179.563Y-198.171
X179.563Y-237.759
X179.563Y-240.161
X180.563Y-69.789
X180.563Y-72.201
X180.563Y-111.789
X180.563Y-114.191
X180.563Y-153.779
X180.563Y-156.181
X180.563Y-195.769
X180.563Y-198.171
X180.563Y-237.759
X180.563Y-240.161
X181.563Y-69.789
X181.563Y-72.201
X181.563Y-111.789
X181.563Y-114.191
X181.563Y-153.779
X181.563Y-156.181
X181.563Y-195.769
X181.563Y-198.171
X181.563Y-237.759
X181.563Y-240.161
X198.679Y-47.995
X198.679Y-48.995
X198.679Y-49.995
X198.679Y-50.995
X198.679Y-51.995
X198.679Y-89.995
X198.679Y-90.995
X198.679Y-91.995
X198.679Y-92.995
X198.679Y-93.995
X198.679Y-131.985
X198.679Y-132.985
X198.679Y-133.985
X198.679Y-134.985
X198.679Y-135.985
X198.679Y-173.975
X198.679Y-174.975
X198.679Y-175.975
X198.679Y-176.975
X198.679Y-177.975
X198.679Y-215.965
X198.679Y-216.965
X198.679Y-217.965
X198.679Y-218.965
X198.679Y-219.965
X198.679Y-257.955
X198.679Y-258.955
X198.679Y-259.955
X198.679Y-260.955
X198.679Y-261.955
X201.081Y-47.995
X201.081Y-48.995
X201.081Y-49.995
X201.081Y-50.995
X201.081Y-51.995
X201.081Y-89.995
X201.081Y-90.995
X201.081Y-91.995
X201.081Y-92.995
X201.081Y-93.995
X201.081Y-131.985
X201.081Y-132.985
X201.081Y-133.985
X201.081Y-134.985
X201.081Y-135.985
X201.081Y-173.975
X201.081Y-174.975
X201.081Y-175.975
X201.081Y-176.975
X201.081Y-177.975
X201.081Y-215.965
X201.081Y-216.965
X201.081Y-217.965
X201.081Y-218.965
X201.081Y-219.965
X201.081Y-257.955
X201.081Y-258.955
X201.081Y-259.955
X201.081Y-260.955
X201.081Y-261.955
X218.197Y-69.789
X218.197Y-72.201
X218.197Y-111.789
X218.197Y-114.191
X218.197Y-153.779
X218.197Y-156.181
X218.197Y-195.769
X218.197Y-198.171
X218.197Y-237.759
X218.197Y-240.161
X219.197Y-69.789
X219.197Y-72.201
X219.197Y-111.789
X219.197Y-114.191
X219.197Y-153.779
X219.197Y-156.181
X219.197Y-195.769
X219.197Y-198.171
X219.197Y-237.759
X219.197Y-240.161
X220.197Y-69.789
X220.197Y-72.201
X220.197Y-111.789
X220.197Y-114.191
X220.197Y-153.779
X220.197Y-156.181
X220.197Y-195.769
X220.197Y-198.171
X220.197Y-237.759
X220.197Y-240.161
X221.197Y-69.789
X221.197Y-72.201
X221.197Y-111.789
X221.197Y-114.191
X221.197Y-153.779
X221.197Y-156.181
X221.197Y-195.769
X221.197Y-198.171
X221.197Y-237.759
X221.197Y-240.161
X222.197Y-69.789
X222.197Y-72.201
X222.197Y-111.789
X222.197Y-114.191
X222.197Y-153.779
X222.197Y-156.181
X222.197Y-195.769
X222.197Y-198.171
X222.197Y-237.759
X222.197Y-240.161
X237.513Y-69.789
X237.513Y-72.201
X237.513Y-111.789
X237.513Y-114.191
X237.513Y-153.779
X237.513Y-156.181
X237.513Y-195.769
X237.513Y-198.171
X237.513Y-237.759
X237.513Y-240.161
X238.513Y-69.789
X238.513Y-72.201
X238.513Y-111.789
X238.513Y-114.191
X238.513Y-153.779
X238.513Y-156.181
X238.513Y-195.769
X238.513Y-198.171
X238.513Y-237.759
X238.513Y-240.161
X239.513Y-69.789
X239.513Y-72.201
X239.513Y-111.789
X239.513Y-114.191
X239.513Y-153.779
X239.513Y-156.181
X239.513Y-195.769
X239.513Y-198.171
X239.513Y-237.759
X239.513Y-240.161
X240.513Y-69.789
X240.513Y-72.201
X240.513Y-111.789
X240.513Y-114.191
X240.513Y-153.779
X240.513Y-156.181
X240.513Y-195.769
X240.513Y-198.171
X240.513Y-237.759
X240.513Y-240.161
X241.513Y-69.789
X241.513Y-72.201
X241.513Y-111.789
X241.513Y-114.191
X241.513Y-153.779
X241.513Y-156.181
X241.513Y-195.769
X241.513Y-198.171
X241.513Y-237.759
X241.513Y-240.161
X258.629Y-47.995
X258.629Y-48.995
X258.629Y-49.995
X258.629Y-50.995
X258.629Y-51.995
X258.629Y-89.995
X258.629Y-90.995
X258.629Y-91.995
X258.629Y-92.995
X258.629Y-93.995
X258.629Y-131.985
X258.629Y-132.985
X258.629Y-133.985
X258.629Y-134.985
X258.629Y-135.985
X258.629Y-173.975
X258.629Y-174.975
X258.629Y-175.975
X258.629Y-176.975
X258.629Y-177.975
X258.629Y-215.965
X258.629Y-216.965
X258.629Y-217.965
X258.629Y-218.965
X258.629Y-219.965
X258.629Y-257.955
X258.629Y-258.955
X258.629Y-259.955
X258.629Y-260.955
X258.629Y-261.955
T8
X17.023Y-31.999
X17.023Y-277.951
X262.828Y-31.999
T0
M30
