M48
; DRILL file {KiCad 5.1.12-84ad8e8a86~92~ubuntu20.04.1} date Sun Dec 26 16:55:45 2021
; FORMAT={-:-/ absolute / metric / decimal}
; #@! TF.CreationDate,2021-12-26T16:55:45+02:00
; #@! TF.GenerationSoftware,Kicad,Pcbnew,5.1.12-84ad8e8a86~92~ubuntu20.04.1
FMAT,2
METRIC
T1C0.750
T2C0.800
T3C1.520
T4C3.200
T5C0.500
T6C1.500
%
G90
G05
T1
X45.955Y-31.945
X45.955Y-37.025
X45.955Y-73.935
X45.955Y-79.015
X45.955Y-115.925
X45.955Y-121.005
X45.955Y-157.915
X45.955Y-162.995
X45.955Y-199.905
X45.955Y-204.985
X45.955Y-241.895
X45.955Y-246.975
X47.955Y-31.945
X47.955Y-37.025
X47.955Y-73.935
X47.955Y-79.015
X47.955Y-115.925
X47.955Y-121.005
X47.955Y-157.915
X47.955Y-162.995
X47.955Y-199.905
X47.955Y-204.985
X47.955Y-241.895
X47.955Y-246.975
X49.955Y-31.945
X49.955Y-37.025
X49.955Y-73.935
X49.955Y-79.015
X49.955Y-115.925
X49.955Y-121.005
X49.955Y-157.915
X49.955Y-162.995
X49.955Y-199.905
X49.955Y-204.985
X49.955Y-241.895
X49.955Y-246.975
X51.955Y-31.945
X51.955Y-37.025
X51.955Y-73.935
X51.955Y-79.015
X51.955Y-115.925
X51.955Y-121.005
X51.955Y-157.915
X51.955Y-162.995
X51.955Y-199.905
X51.955Y-204.985
X51.955Y-241.895
X51.955Y-246.975
X53.955Y-31.945
X53.955Y-37.025
X53.955Y-73.935
X53.955Y-79.015
X53.955Y-115.925
X53.955Y-121.005
X53.955Y-157.915
X53.955Y-162.995
X53.955Y-199.905
X53.955Y-204.985
X53.955Y-241.895
X53.955Y-246.975
X55.955Y-31.945
X55.955Y-37.025
X55.955Y-73.935
X55.955Y-79.015
X55.955Y-115.925
X55.955Y-121.005
X55.955Y-157.915
X55.955Y-162.995
X55.955Y-199.905
X55.955Y-204.985
X55.955Y-241.895
X55.955Y-246.975
X76.435Y-33.215
X76.435Y-35.215
X76.435Y-40.835
X76.435Y-42.835
X76.435Y-44.835
X76.435Y-64.965
X76.435Y-66.965
X76.435Y-75.205
X76.435Y-77.205
X76.435Y-82.825
X76.435Y-84.825
X76.435Y-86.825
X76.435Y-106.955
X76.435Y-108.955
X76.435Y-117.195
X76.435Y-119.195
X76.435Y-124.815
X76.435Y-126.815
X76.435Y-128.815
X76.435Y-148.945
X76.435Y-150.945
X76.435Y-159.185
X76.435Y-161.185
X76.435Y-166.805
X76.435Y-168.805
X76.435Y-170.805
X76.435Y-190.935
X76.435Y-192.935
X76.435Y-201.175
X76.435Y-203.175
X76.435Y-208.795
X76.435Y-210.795
X76.435Y-212.795
X76.435Y-232.925
X76.435Y-234.925
X76.435Y-243.165
X76.435Y-245.165
X76.435Y-250.785
X76.435Y-252.785
X76.435Y-254.785
X76.435Y-274.915
X76.435Y-276.915
X105.905Y-31.945
X105.905Y-37.025
X105.905Y-73.935
X105.905Y-79.015
X105.905Y-115.925
X105.905Y-121.005
X105.905Y-157.915
X105.905Y-162.995
X105.905Y-199.905
X105.905Y-204.985
X105.905Y-241.895
X105.905Y-246.975
X107.905Y-31.945
X107.905Y-37.025
X107.905Y-73.935
X107.905Y-79.015
X107.905Y-115.925
X107.905Y-121.005
X107.905Y-157.915
X107.905Y-162.995
X107.905Y-199.905
X107.905Y-204.985
X107.905Y-241.895
X107.905Y-246.975
X109.905Y-31.945
X109.905Y-37.025
X109.905Y-73.935
X109.905Y-79.015
X109.905Y-115.925
X109.905Y-121.005
X109.905Y-157.915
X109.905Y-162.995
X109.905Y-199.905
X109.905Y-204.985
X109.905Y-241.895
X109.905Y-246.975
X111.905Y-31.945
X111.905Y-37.025
X111.905Y-73.935
X111.905Y-79.015
X111.905Y-115.925
X111.905Y-121.005
X111.905Y-157.915
X111.905Y-162.995
X111.905Y-199.905
X111.905Y-204.985
X111.905Y-241.895
X111.905Y-246.975
X113.905Y-31.945
X113.905Y-37.025
X113.905Y-73.935
X113.905Y-79.015
X113.905Y-115.925
X113.905Y-121.005
X113.905Y-157.915
X113.905Y-162.995
X113.905Y-199.905
X113.905Y-204.985
X113.905Y-241.895
X113.905Y-246.975
X115.905Y-31.945
X115.905Y-37.025
X115.905Y-73.935
X115.905Y-79.015
X115.905Y-115.925
X115.905Y-121.005
X115.905Y-157.915
X115.905Y-162.995
X115.905Y-199.905
X115.905Y-204.985
X115.905Y-241.895
X115.905Y-246.975
X136.385Y-33.215
X136.385Y-35.215
X136.385Y-40.835
X136.385Y-42.835
X136.385Y-44.835
X136.385Y-64.965
X136.385Y-66.965
X136.385Y-75.205
X136.385Y-77.205
X136.385Y-82.825
X136.385Y-84.825
X136.385Y-86.825
X136.385Y-106.955
X136.385Y-108.955
X136.385Y-117.195
X136.385Y-119.195
X136.385Y-124.815
X136.385Y-126.815
X136.385Y-128.815
X136.385Y-148.945
X136.385Y-150.945
X136.385Y-159.185
X136.385Y-161.185
X136.385Y-166.805
X136.385Y-168.805
X136.385Y-170.805
X136.385Y-190.935
X136.385Y-192.935
X136.385Y-201.175
X136.385Y-203.175
X136.385Y-208.795
X136.385Y-210.795
X136.385Y-212.795
X136.385Y-232.925
X136.385Y-234.925
X136.385Y-243.165
X136.385Y-245.165
X136.385Y-250.785
X136.385Y-252.785
X136.385Y-254.785
X136.385Y-274.915
X136.385Y-276.915
X165.855Y-31.945
X165.855Y-37.025
X165.855Y-73.935
X165.855Y-79.015
X165.855Y-115.925
X165.855Y-121.005
X165.855Y-157.915
X165.855Y-162.995
X165.855Y-199.905
X165.855Y-204.985
X165.855Y-241.895
X165.855Y-246.975
X167.855Y-31.945
X167.855Y-37.025
X167.855Y-73.935
X167.855Y-79.015
X167.855Y-115.925
X167.855Y-121.005
X167.855Y-157.915
X167.855Y-162.995
X167.855Y-199.905
X167.855Y-204.985
X167.855Y-241.895
X167.855Y-246.975
X169.855Y-31.945
X169.855Y-37.025
X169.855Y-73.935
X169.855Y-79.015
X169.855Y-115.925
X169.855Y-121.005
X169.855Y-157.915
X169.855Y-162.995
X169.855Y-199.905
X169.855Y-204.985
X169.855Y-241.895
X169.855Y-246.975
X171.855Y-31.945
X171.855Y-37.025
X171.855Y-73.935
X171.855Y-79.015
X171.855Y-115.925
X171.855Y-121.005
X171.855Y-157.915
X171.855Y-162.995
X171.855Y-199.905
X171.855Y-204.985
X171.855Y-241.895
X171.855Y-246.975
X173.855Y-31.945
X173.855Y-37.025
X173.855Y-73.935
X173.855Y-79.015
X173.855Y-115.925
X173.855Y-121.005
X173.855Y-157.915
X173.855Y-162.995
X173.855Y-199.905
X173.855Y-204.985
X173.855Y-241.895
X173.855Y-246.975
X175.855Y-31.945
X175.855Y-37.025
X175.855Y-73.935
X175.855Y-79.015
X175.855Y-115.925
X175.855Y-121.005
X175.855Y-157.915
X175.855Y-162.995
X175.855Y-199.905
X175.855Y-204.985
X175.855Y-241.895
X175.855Y-246.975
X196.335Y-33.215
X196.335Y-35.215
X196.335Y-40.835
X196.335Y-42.835
X196.335Y-44.835
X196.335Y-64.965
X196.335Y-66.965
X196.335Y-75.205
X196.335Y-77.205
X196.335Y-82.825
X196.335Y-84.825
X196.335Y-86.825
X196.335Y-106.955
X196.335Y-108.955
X196.335Y-117.195
X196.335Y-119.195
X196.335Y-124.815
X196.335Y-126.815
X196.335Y-128.815
X196.335Y-148.945
X196.335Y-150.945
X196.335Y-159.185
X196.335Y-161.185
X196.335Y-166.805
X196.335Y-168.805
X196.335Y-170.805
X196.335Y-190.935
X196.335Y-192.935
X196.335Y-201.175
X196.335Y-203.175
X196.335Y-208.795
X196.335Y-210.795
X196.335Y-212.795
X196.335Y-232.925
X196.335Y-234.925
X196.335Y-243.165
X196.335Y-245.165
X196.335Y-250.785
X196.335Y-252.785
X196.335Y-254.785
X196.335Y-274.915
X196.335Y-276.915
X225.805Y-31.945
X225.805Y-37.025
X225.805Y-73.935
X225.805Y-79.015
X225.805Y-115.925
X225.805Y-121.005
X225.805Y-157.915
X225.805Y-162.995
X225.805Y-199.905
X225.805Y-204.985
X225.805Y-241.895
X225.805Y-246.975
X227.805Y-31.945
X227.805Y-37.025
X227.805Y-73.935
X227.805Y-79.015
X227.805Y-115.925
X227.805Y-121.005
X227.805Y-157.915
X227.805Y-162.995
X227.805Y-199.905
X227.805Y-204.985
X227.805Y-241.895
X227.805Y-246.975
X229.805Y-31.945
X229.805Y-37.025
X229.805Y-73.935
X229.805Y-79.015
X229.805Y-115.925
X229.805Y-121.005
X229.805Y-157.915
X229.805Y-162.995
X229.805Y-199.905
X229.805Y-204.985
X229.805Y-241.895
X229.805Y-246.975
X231.805Y-31.945
X231.805Y-37.025
X231.805Y-73.935
X231.805Y-79.015
X231.805Y-115.925
X231.805Y-121.005
X231.805Y-157.915
X231.805Y-162.995
X231.805Y-199.905
X231.805Y-204.985
X231.805Y-241.895
X231.805Y-246.975
X233.805Y-31.945
X233.805Y-37.025
X233.805Y-73.935
X233.805Y-79.015
X233.805Y-115.925
X233.805Y-121.005
X233.805Y-157.915
X233.805Y-162.995
X233.805Y-199.905
X233.805Y-204.985
X233.805Y-241.895
X233.805Y-246.975
X235.805Y-31.945
X235.805Y-37.025
X235.805Y-73.935
X235.805Y-79.015
X235.805Y-115.925
X235.805Y-121.005
X235.805Y-157.915
X235.805Y-162.995
X235.805Y-199.905
X235.805Y-204.985
X235.805Y-241.895
X235.805Y-246.975
X256.285Y-33.215
X256.285Y-35.215
X256.285Y-40.835
X256.285Y-42.835
X256.285Y-44.835
X256.285Y-64.965
X256.285Y-66.965
X256.285Y-75.205
X256.285Y-77.205
X256.285Y-82.825
X256.285Y-84.825
X256.285Y-86.825
X256.285Y-106.955
X256.285Y-108.955
X256.285Y-117.195
X256.285Y-119.195
X256.285Y-124.815
X256.285Y-126.815
X256.285Y-128.815
X256.285Y-148.945
X256.285Y-150.945
X256.285Y-159.185
X256.285Y-161.185
X256.285Y-166.805
X256.285Y-168.805
X256.285Y-170.805
X256.285Y-190.935
X256.285Y-192.935
X256.285Y-201.175
X256.285Y-203.175
X256.285Y-208.795
X256.285Y-210.795
X256.285Y-212.795
X256.285Y-232.925
X256.285Y-234.925
X256.285Y-243.165
X256.285Y-245.165
X256.285Y-250.785
X256.285Y-252.785
X256.285Y-254.785
X256.285Y-274.915
X256.285Y-276.915
T2
X24.365Y-35.255
X24.365Y-77.245
X24.365Y-119.235
X24.365Y-161.225
X24.365Y-203.215
X24.365Y-245.205
X29.365Y-35.255
X29.365Y-77.245
X29.365Y-119.235
X29.365Y-161.225
X29.365Y-203.215
X29.365Y-245.205
X35.795Y-35.255
X35.795Y-77.245
X35.795Y-119.235
X35.795Y-161.225
X35.795Y-203.215
X35.795Y-245.205
X40.795Y-35.255
X40.795Y-77.245
X40.795Y-119.235
X40.795Y-161.225
X40.795Y-203.215
X40.795Y-245.205
X84.315Y-35.255
X84.315Y-77.245
X84.315Y-119.235
X84.315Y-161.225
X84.315Y-203.215
X84.315Y-245.205
X89.315Y-35.255
X89.315Y-77.245
X89.315Y-119.235
X89.315Y-161.225
X89.315Y-203.215
X89.315Y-245.205
X95.745Y-35.255
X95.745Y-77.245
X95.745Y-119.235
X95.745Y-161.225
X95.745Y-203.215
X95.745Y-245.205
X100.745Y-35.255
X100.745Y-77.245
X100.745Y-119.235
X100.745Y-161.225
X100.745Y-203.215
X100.745Y-245.205
X144.265Y-35.255
X144.265Y-77.245
X144.265Y-119.235
X144.265Y-161.225
X144.265Y-203.215
X144.265Y-245.205
X149.265Y-35.255
X149.265Y-77.245
X149.265Y-119.235
X149.265Y-161.225
X149.265Y-203.215
X149.265Y-245.205
X155.695Y-35.255
X155.695Y-77.245
X155.695Y-119.235
X155.695Y-161.225
X155.695Y-203.215
X155.695Y-245.205
X160.695Y-35.255
X160.695Y-77.245
X160.695Y-119.235
X160.695Y-161.225
X160.695Y-203.215
X160.695Y-245.205
X204.215Y-35.255
X204.215Y-77.245
X204.215Y-119.235
X204.215Y-161.225
X204.215Y-203.215
X204.215Y-245.205
X209.215Y-35.255
X209.215Y-77.245
X209.215Y-119.235
X209.215Y-161.225
X209.215Y-203.215
X209.215Y-245.205
X215.645Y-35.255
X215.645Y-77.245
X215.645Y-119.235
X215.645Y-161.225
X215.645Y-203.215
X215.645Y-245.205
X220.645Y-35.255
X220.645Y-77.245
X220.645Y-119.235
X220.645Y-161.225
X220.645Y-203.215
X220.645Y-245.205
T3
X62.465Y-34.485
X62.465Y-76.475
X62.465Y-118.465
X62.465Y-160.455
X62.465Y-202.445
X62.465Y-244.435
X67.545Y-34.485
X67.545Y-76.475
X67.545Y-118.465
X67.545Y-160.455
X67.545Y-202.445
X67.545Y-244.435
X76.435Y-49.725
X76.435Y-54.805
X76.435Y-59.885
X76.435Y-91.715
X76.435Y-96.795
X76.435Y-101.875
X76.435Y-133.705
X76.435Y-138.785
X76.435Y-143.865
X76.435Y-175.695
X76.435Y-180.775
X76.435Y-185.855
X76.435Y-217.685
X76.435Y-222.765
X76.435Y-227.845
X76.435Y-259.675
X76.435Y-264.755
X76.435Y-269.835
X122.415Y-34.485
X122.415Y-76.475
X122.415Y-118.465
X122.415Y-160.455
X122.415Y-202.445
X122.415Y-244.435
X127.495Y-34.485
X127.495Y-76.475
X127.495Y-118.465
X127.495Y-160.455
X127.495Y-202.445
X127.495Y-244.435
X136.385Y-49.725
X136.385Y-54.805
X136.385Y-59.885
X136.385Y-91.715
X136.385Y-96.795
X136.385Y-101.875
X136.385Y-133.705
X136.385Y-138.785
X136.385Y-143.865
X136.385Y-175.695
X136.385Y-180.775
X136.385Y-185.855
X136.385Y-217.685
X136.385Y-222.765
X136.385Y-227.845
X136.385Y-259.675
X136.385Y-264.755
X136.385Y-269.835
X182.365Y-34.485
X182.365Y-76.475
X182.365Y-118.465
X182.365Y-160.455
X182.365Y-202.445
X182.365Y-244.435
X187.445Y-34.485
X187.445Y-76.475
X187.445Y-118.465
X187.445Y-160.455
X187.445Y-202.445
X187.445Y-244.435
X196.335Y-49.725
X196.335Y-54.805
X196.335Y-59.885
X196.335Y-91.715
X196.335Y-96.795
X196.335Y-101.875
X196.335Y-133.705
X196.335Y-138.785
X196.335Y-143.865
X196.335Y-175.695
X196.335Y-180.775
X196.335Y-185.855
X196.335Y-217.685
X196.335Y-222.765
X196.335Y-227.845
X196.335Y-259.675
X196.335Y-264.755
X196.335Y-269.835
X242.315Y-34.485
X242.315Y-76.475
X242.315Y-118.465
X242.315Y-160.455
X242.315Y-202.445
X242.315Y-244.435
X247.395Y-34.485
X247.395Y-76.475
X247.395Y-118.465
X247.395Y-160.455
X247.395Y-202.445
X247.395Y-244.435
X256.285Y-49.725
X256.285Y-54.805
X256.285Y-59.885
X256.285Y-91.715
X256.285Y-96.795
X256.285Y-101.875
X256.285Y-133.705
X256.285Y-138.785
X256.285Y-143.865
X256.285Y-175.695
X256.285Y-180.775
X256.285Y-185.855
X256.285Y-217.685
X256.285Y-222.765
X256.285Y-227.845
X256.285Y-259.675
X256.285Y-264.755
X256.285Y-269.835
T4
X25.635Y-45.915
X25.635Y-64.965
X25.635Y-87.905
X25.635Y-106.955
X25.635Y-129.895
X25.635Y-148.945
X25.635Y-171.885
X25.635Y-190.935
X25.635Y-213.875
X25.635Y-232.925
X25.635Y-255.865
X25.635Y-274.915
X85.585Y-45.915
X85.585Y-64.965
X85.585Y-87.905
X85.585Y-106.955
X85.585Y-129.895
X85.585Y-148.945
X85.585Y-171.885
X85.585Y-190.935
X85.585Y-213.875
X85.585Y-232.925
X85.585Y-255.865
X85.585Y-274.915
X145.535Y-45.915
X145.535Y-64.965
X145.535Y-87.905
X145.535Y-106.955
X145.535Y-129.895
X145.535Y-148.945
X145.535Y-171.885
X145.535Y-190.935
X145.535Y-213.875
X145.535Y-232.925
X145.535Y-255.865
X145.535Y-274.915
X205.485Y-45.915
X205.485Y-64.965
X205.485Y-87.905
X205.485Y-106.955
X205.485Y-129.895
X205.485Y-148.945
X205.485Y-171.885
X205.485Y-190.935
X205.485Y-213.875
X205.485Y-232.925
X205.485Y-255.865
X205.485Y-274.915
T5
X21.221Y-47.995
X21.221Y-48.995
X21.221Y-49.995
X21.221Y-50.995
X21.221Y-51.995
X21.221Y-89.995
X21.221Y-90.995
X21.221Y-91.995
X21.221Y-92.995
X21.221Y-93.995
X21.221Y-131.985
X21.221Y-132.985
X21.221Y-133.985
X21.221Y-134.985
X21.221Y-135.985
X21.221Y-173.975
X21.221Y-174.975
X21.221Y-175.975
X21.221Y-176.975
X21.221Y-177.975
X21.221Y-215.965
X21.221Y-216.965
X21.221Y-217.965
X21.221Y-218.965
X21.221Y-219.965
X21.221Y-257.955
X21.221Y-258.955
X21.221Y-259.955
X21.221Y-260.955
X21.221Y-261.955
X38.337Y-69.789
X38.337Y-72.201
X38.337Y-111.789
X38.337Y-114.191
X38.337Y-153.779
X38.337Y-156.181
X38.337Y-195.769
X38.337Y-198.171
X38.337Y-237.759
X38.337Y-240.161
X39.337Y-69.789
X39.337Y-72.201
X39.337Y-111.789
X39.337Y-114.191
X39.337Y-153.779
X39.337Y-156.181
X39.337Y-195.769
X39.337Y-198.171
X39.337Y-237.759
X39.337Y-240.161
X40.337Y-69.789
X40.337Y-72.201
X40.337Y-111.789
X40.337Y-114.191
X40.337Y-153.779
X40.337Y-156.181
X40.337Y-195.769
X40.337Y-198.171
X40.337Y-237.759
X40.337Y-240.161
X41.337Y-69.789
X41.337Y-72.201
X41.337Y-111.789
X41.337Y-114.191
X41.337Y-153.779
X41.337Y-156.181
X41.337Y-195.769
X41.337Y-198.171
X41.337Y-237.759
X41.337Y-240.161
X42.337Y-69.789
X42.337Y-72.201
X42.337Y-111.789
X42.337Y-114.191
X42.337Y-153.779
X42.337Y-156.181
X42.337Y-195.769
X42.337Y-198.171
X42.337Y-237.759
X42.337Y-240.161
X57.653Y-69.789
X57.653Y-72.201
X57.653Y-111.789
X57.653Y-114.191
X57.653Y-153.779
X57.653Y-156.181
X57.653Y-195.769
X57.653Y-198.171
X57.653Y-237.759
X57.653Y-240.161
X58.653Y-69.789
X58.653Y-72.201
X58.653Y-111.789
X58.653Y-114.191
X58.653Y-153.779
X58.653Y-156.181
X58.653Y-195.769
X58.653Y-198.171
X58.653Y-237.759
X58.653Y-240.161
X59.653Y-69.789
X59.653Y-72.201
X59.653Y-111.789
X59.653Y-114.191
X59.653Y-153.779
X59.653Y-156.181
X59.653Y-195.769
X59.653Y-198.171
X59.653Y-237.759
X59.653Y-240.161
X60.653Y-69.789
X60.653Y-72.201
X60.653Y-111.789
X60.653Y-114.191
X60.653Y-153.779
X60.653Y-156.181
X60.653Y-195.769
X60.653Y-198.171
X60.653Y-237.759
X60.653Y-240.161
X61.653Y-69.789
X61.653Y-72.201
X61.653Y-111.789
X61.653Y-114.191
X61.653Y-153.779
X61.653Y-156.181
X61.653Y-195.769
X61.653Y-198.171
X61.653Y-237.759
X61.653Y-240.161
X78.769Y-47.995
X78.769Y-48.995
X78.769Y-49.995
X78.769Y-50.995
X78.769Y-51.995
X78.769Y-89.995
X78.769Y-90.995
X78.769Y-91.995
X78.769Y-92.995
X78.769Y-93.995
X78.769Y-131.985
X78.769Y-132.985
X78.769Y-133.985
X78.769Y-134.985
X78.769Y-135.985
X78.769Y-173.975
X78.769Y-174.975
X78.769Y-175.975
X78.769Y-176.975
X78.769Y-177.975
X78.769Y-215.965
X78.769Y-216.965
X78.769Y-217.965
X78.769Y-218.965
X78.769Y-219.965
X78.769Y-257.955
X78.769Y-258.955
X78.769Y-259.955
X78.769Y-260.955
X78.769Y-261.955
X81.181Y-47.995
X81.181Y-48.995
X81.181Y-49.995
X81.181Y-50.995
X81.181Y-51.995
X81.181Y-89.995
X81.181Y-90.995
X81.181Y-91.995
X81.181Y-92.995
X81.181Y-93.995
X81.181Y-131.985
X81.181Y-132.985
X81.181Y-133.985
X81.181Y-134.985
X81.181Y-135.985
X81.181Y-173.975
X81.181Y-174.975
X81.181Y-175.975
X81.181Y-176.975
X81.181Y-177.975
X81.181Y-215.965
X81.181Y-216.965
X81.181Y-217.965
X81.181Y-218.965
X81.181Y-219.965
X81.181Y-257.955
X81.181Y-258.955
X81.181Y-259.955
X81.181Y-260.955
X81.181Y-261.955
X98.297Y-69.789
X98.297Y-72.201
X98.297Y-111.789
X98.297Y-114.191
X98.297Y-153.779
X98.297Y-156.181
X98.297Y-195.769
X98.297Y-198.171
X98.297Y-237.759
X98.297Y-240.161
X99.297Y-69.789
X99.297Y-72.201
X99.297Y-111.789
X99.297Y-114.191
X99.297Y-153.779
X99.297Y-156.181
X99.297Y-195.769
X99.297Y-198.171
X99.297Y-237.759
X99.297Y-240.161
X100.297Y-69.789
X100.297Y-72.201
X100.297Y-111.789
X100.297Y-114.191
X100.297Y-153.779
X100.297Y-156.181
X100.297Y-195.769
X100.297Y-198.171
X100.297Y-237.759
X100.297Y-240.161
X101.297Y-69.789
X101.297Y-72.201
X101.297Y-111.789
X101.297Y-114.191
X101.297Y-153.779
X101.297Y-156.181
X101.297Y-195.769
X101.297Y-198.171
X101.297Y-237.759
X101.297Y-240.161
X102.297Y-69.789
X102.297Y-72.201
X102.297Y-111.789
X102.297Y-114.191
X102.297Y-153.779
X102.297Y-156.181
X102.297Y-195.769
X102.297Y-198.171
X102.297Y-237.759
X102.297Y-240.161
X117.613Y-69.789
X117.613Y-72.201
X117.613Y-111.789
X117.613Y-114.191
X117.613Y-153.779
X117.613Y-156.181
X117.613Y-195.769
X117.613Y-198.171
X117.613Y-237.759
X117.613Y-240.161
X118.613Y-69.789
X118.613Y-72.201
X118.613Y-111.789
X118.613Y-114.191
X118.613Y-153.779
X118.613Y-156.181
X118.613Y-195.769
X118.613Y-198.171
X118.613Y-237.759
X118.613Y-240.161
X119.613Y-69.789
X119.613Y-72.201
X119.613Y-111.789
X119.613Y-114.191
X119.613Y-153.779
X119.613Y-156.181
X119.613Y-195.769
X119.613Y-198.171
X119.613Y-237.759
X119.613Y-240.161
X120.613Y-69.789
X120.613Y-72.201
X120.613Y-111.789
X120.613Y-114.191
X120.613Y-153.779
X120.613Y-156.181
X120.613Y-195.769
X120.613Y-198.171
X120.613Y-237.759
X120.613Y-240.161
X121.613Y-69.789
X121.613Y-72.201
X121.613Y-111.789
X121.613Y-114.191
X121.613Y-153.779
X121.613Y-156.181
X121.613Y-195.769
X121.613Y-198.171
X121.613Y-237.759
X121.613Y-240.161
X138.729Y-47.995
X138.729Y-48.995
X138.729Y-49.995
X138.729Y-50.995
X138.729Y-51.995
X138.729Y-89.995
X138.729Y-90.995
X138.729Y-91.995
X138.729Y-92.995
X138.729Y-93.995
X138.729Y-131.985
X138.729Y-132.985
X138.729Y-133.985
X138.729Y-134.985
X138.729Y-135.985
X138.729Y-173.975
X138.729Y-174.975
X138.729Y-175.975
X138.729Y-176.975
X138.729Y-177.975
X138.729Y-215.965
X138.729Y-216.965
X138.729Y-217.965
X138.729Y-218.965
X138.729Y-219.965
X138.729Y-257.955
X138.729Y-258.955
X138.729Y-259.955
X138.729Y-260.955
X138.729Y-261.955
X141.131Y-47.995
X141.131Y-48.995
X141.131Y-49.995
X141.131Y-50.995
X141.131Y-51.995
X141.131Y-89.995
X141.131Y-90.995
X141.131Y-91.995
X141.131Y-92.995
X141.131Y-93.995
X141.131Y-131.985
X141.131Y-132.985
X141.131Y-133.985
X141.131Y-134.985
X141.131Y-135.985
X141.131Y-173.975
X141.131Y-174.975
X141.131Y-175.975
X141.131Y-176.975
X141.131Y-177.975
X141.131Y-215.965
X141.131Y-216.965
X141.131Y-217.965
X141.131Y-218.965
X141.131Y-219.965
X141.131Y-257.955
X141.131Y-258.955
X141.131Y-259.955
X141.131Y-260.955
X141.131Y-261.955
X158.247Y-69.789
X158.247Y-72.201
X158.247Y-111.789
X158.247Y-114.191
X158.247Y-153.779
X158.247Y-156.181
X158.247Y-195.769
X158.247Y-198.171
X158.247Y-237.759
X158.247Y-240.161
X159.247Y-69.789
X159.247Y-72.201
X159.247Y-111.789
X159.247Y-114.191
X159.247Y-153.779
X159.247Y-156.181
X159.247Y-195.769
X159.247Y-198.171
X159.247Y-237.759
X159.247Y-240.161
X160.247Y-69.789
X160.247Y-72.201
X160.247Y-111.789
X160.247Y-114.191
X160.247Y-153.779
X160.247Y-156.181
X160.247Y-195.769
X160.247Y-198.171
X160.247Y-237.759
X160.247Y-240.161
X161.247Y-69.789
X161.247Y-72.201
X161.247Y-111.789
X161.247Y-114.191
X161.247Y-153.779
X161.247Y-156.181
X161.247Y-195.769
X161.247Y-198.171
X161.247Y-237.759
X161.247Y-240.161
X162.247Y-69.789
X162.247Y-72.201
X162.247Y-111.789
X162.247Y-114.191
X162.247Y-153.779
X162.247Y-156.181
X162.247Y-195.769
X162.247Y-198.171
X162.247Y-237.759
X162.247Y-240.161
X177.563Y-69.789
X177.563Y-72.201
X177.563Y-111.789
X177.563Y-114.191
X177.563Y-153.779
X177.563Y-156.181
X177.563Y-195.769
X177.563Y-198.171
X177.563Y-237.759
X177.563Y-240.161
X178.563Y-69.789
X178.563Y-72.201
X178.563Y-111.789
X178.563Y-114.191
X178.563Y-153.779
X178.563Y-156.181
X178.563Y-195.769
X178.563Y-198.171
X178.563Y-237.759
X178.563Y-240.161
X179.563Y-69.789
X179.563Y-72.201
X179.563Y-111.789
X179.563Y-114.191
X179.563Y-153.779
X179.563Y-156.181
X179.563Y-195.769
X179.563Y-198.171
X179.563Y-237.759
X179.563Y-240.161
X180.563Y-69.789
X180.563Y-72.201
X180.563Y-111.789
X180.563Y-114.191
X180.563Y-153.779
X180.563Y-156.181
X180.563Y-195.769
X180.563Y-198.171
X180.563Y-237.759
X180.563Y-240.161
X181.563Y-69.789
X181.563Y-72.201
X181.563Y-111.789
X181.563Y-114.191
X181.563Y-153.779
X181.563Y-156.181
X181.563Y-195.769
X181.563Y-198.171
X181.563Y-237.759
X181.563Y-240.161
X198.679Y-47.995
X198.679Y-48.995
X198.679Y-49.995
X198.679Y-50.995
X198.679Y-51.995
X198.679Y-89.995
X198.679Y-90.995
X198.679Y-91.995
X198.679Y-92.995
X198.679Y-93.995
X198.679Y-131.985
X198.679Y-132.985
X198.679Y-133.985
X198.679Y-134.985
X198.679Y-135.985
X198.679Y-173.975
X198.679Y-174.975
X198.679Y-175.975
X198.679Y-176.975
X198.679Y-177.975
X198.679Y-215.965
X198.679Y-216.965
X198.679Y-217.965
X198.679Y-218.965
X198.679Y-219.965
X198.679Y-257.955
X198.679Y-258.955
X198.679Y-259.955
X198.679Y-260.955
X198.679Y-261.955
X201.081Y-47.995
X201.081Y-48.995
X201.081Y-49.995
X201.081Y-50.995
X201.081Y-51.995
X201.081Y-89.995
X201.081Y-90.995
X201.081Y-91.995
X201.081Y-92.995
X201.081Y-93.995
X201.081Y-131.985
X201.081Y-132.985
X201.081Y-133.985
X201.081Y-134.985
X201.081Y-135.985
X201.081Y-173.975
X201.081Y-174.975
X201.081Y-175.975
X201.081Y-176.975
X201.081Y-177.975
X201.081Y-215.965
X201.081Y-216.965
X201.081Y-217.965
X201.081Y-218.965
X201.081Y-219.965
X201.081Y-257.955
X201.081Y-258.955
X201.081Y-259.955
X201.081Y-260.955
X201.081Y-261.955
X218.197Y-69.789
X218.197Y-72.201
X218.197Y-111.789
X218.197Y-114.191
X218.197Y-153.779
X218.197Y-156.181
X218.197Y-195.769
X218.197Y-198.171
X218.197Y-237.759
X218.197Y-240.161
X219.197Y-69.789
X219.197Y-72.201
X219.197Y-111.789
X219.197Y-114.191
X219.197Y-153.779
X219.197Y-156.181
X219.197Y-195.769
X219.197Y-198.171
X219.197Y-237.759
X219.197Y-240.161
X220.197Y-69.789
X220.197Y-72.201
X220.197Y-111.789
X220.197Y-114.191
X220.197Y-153.779
X220.197Y-156.181
X220.197Y-195.769
X220.197Y-198.171
X220.197Y-237.759
X220.197Y-240.161
X221.197Y-69.789
X221.197Y-72.201
X221.197Y-111.789
X221.197Y-114.191
X221.197Y-153.779
X221.197Y-156.181
X221.197Y-195.769
X221.197Y-198.171
X221.197Y-237.759
X221.197Y-240.161
X222.197Y-69.789
X222.197Y-72.201
X222.197Y-111.789
X222.197Y-114.191
X222.197Y-153.779
X222.197Y-156.181
X222.197Y-195.769
X222.197Y-198.171
X222.197Y-237.759
X222.197Y-240.161
X237.513Y-69.789
X237.513Y-72.201
X237.513Y-111.789
X237.513Y-114.191
X237.513Y-153.779
X237.513Y-156.181
X237.513Y-195.769
X237.513Y-198.171
X237.513Y-237.759
X237.513Y-240.161
X238.513Y-69.789
X238.513Y-72.201
X238.513Y-111.789
X238.513Y-114.191
X238.513Y-153.779
X238.513Y-156.181
X238.513Y-195.769
X238.513Y-198.171
X238.513Y-237.759
X238.513Y-240.161
X239.513Y-69.789
X239.513Y-72.201
X239.513Y-111.789
X239.513Y-114.191
X239.513Y-153.779
X239.513Y-156.181
X239.513Y-195.769
X239.513Y-198.171
X239.513Y-237.759
X239.513Y-240.161
X240.513Y-69.789
X240.513Y-72.201
X240.513Y-111.789
X240.513Y-114.191
X240.513Y-153.779
X240.513Y-156.181
X240.513Y-195.769
X240.513Y-198.171
X240.513Y-237.759
X240.513Y-240.161
X241.513Y-69.789
X241.513Y-72.201
X241.513Y-111.789
X241.513Y-114.191
X241.513Y-153.779
X241.513Y-156.181
X241.513Y-195.769
X241.513Y-198.171
X241.513Y-237.759
X241.513Y-240.161
X258.629Y-47.995
X258.629Y-48.995
X258.629Y-49.995
X258.629Y-50.995
X258.629Y-51.995
X258.629Y-89.995
X258.629Y-90.995
X258.629Y-91.995
X258.629Y-92.995
X258.629Y-93.995
X258.629Y-131.985
X258.629Y-132.985
X258.629Y-133.985
X258.629Y-134.985
X258.629Y-135.985
X258.629Y-173.975
X258.629Y-174.975
X258.629Y-175.975
X258.629Y-176.975
X258.629Y-177.975
X258.629Y-215.965
X258.629Y-216.965
X258.629Y-217.965
X258.629Y-218.965
X258.629Y-219.965
X258.629Y-257.955
X258.629Y-258.955
X258.629Y-259.955
X258.629Y-260.955
X258.629Y-261.955
T6
X17.023Y-31.999
X17.023Y-277.951
X262.828Y-31.999
T0
M30
