G04 #@! TF.GenerationSoftware,KiCad,Pcbnew,5.1.12-84ad8e8a86~92~ubuntu20.04.1*
G04 #@! TF.CreationDate,2021-12-26T16:55:44+02:00*
G04 #@! TF.ProjectId,panel.opm-inline,70616e65-6c2e-46f7-906d-2d696e6c696e,rev?*
G04 #@! TF.SameCoordinates,Original*
G04 #@! TF.FileFunction,Copper,L2,Bot*
G04 #@! TF.FilePolarity,Positive*
%FSLAX46Y46*%
G04 Gerber Fmt 4.6, Leading zero omitted, Abs format (unit mm)*
G04 Created by KiCad (PCBNEW 5.1.12-84ad8e8a86~92~ubuntu20.04.1) date 2021-12-26 16:55:44*
%MOMM*%
%LPD*%
G01*
G04 APERTURE LIST*
G04 #@! TA.AperFunction,SMDPad,CuDef*
%ADD10C,2.000000*%
G04 #@! TD*
G04 #@! TA.AperFunction,ComponentPad*
%ADD11R,3.000000X3.000000*%
G04 #@! TD*
G04 #@! TA.AperFunction,ComponentPad*
%ADD12C,3.000000*%
G04 #@! TD*
G04 #@! TA.AperFunction,ComponentPad*
%ADD13O,1.200000X1.750000*%
G04 #@! TD*
G04 #@! TA.AperFunction,ComponentPad*
%ADD14C,1.600000*%
G04 #@! TD*
G04 #@! TA.AperFunction,ComponentPad*
%ADD15C,6.400000*%
G04 #@! TD*
G04 #@! TA.AperFunction,ComponentPad*
%ADD16O,1.750000X1.200000*%
G04 #@! TD*
G04 APERTURE END LIST*
D10*
G04 #@! TO.P,REF\u002A\u002A,*
G04 #@! TO.N,*
X17023000Y-274951000D03*
G04 #@! TD*
G04 #@! TO.P,REF\u002A\u002A,*
G04 #@! TO.N,*
X262828000Y-34999000D03*
G04 #@! TD*
G04 #@! TO.P,REF\u002A\u002A,*
G04 #@! TO.N,*
X17023000Y-34999000D03*
G04 #@! TD*
D11*
G04 #@! TO.P,U3,1*
G04 #@! TO.N,Board_23-/W*
X256285014Y-269835024D03*
D12*
G04 #@! TO.P,U3,2*
G04 #@! TO.N,Board_23-/V*
X256285014Y-264755024D03*
G04 #@! TO.P,U3,3*
G04 #@! TO.N,Board_23-/U*
X256285014Y-259675024D03*
G04 #@! TD*
D11*
G04 #@! TO.P,U2,1*
G04 #@! TO.N,Board_23-GND*
X247395014Y-244435024D03*
D12*
G04 #@! TO.P,U2,2*
G04 #@! TO.N,Board_23-/+VM*
X242315014Y-244435024D03*
G04 #@! TD*
G04 #@! TO.P,J3,1*
G04 #@! TO.N,Board_23-/WL*
G04 #@! TA.AperFunction,ComponentPad*
G36*
G01*
X225205014Y-242520025D02*
X225205014Y-241270023D01*
G75*
G02*
X225455013Y-241020024I249999J0D01*
G01*
X226155015Y-241020024D01*
G75*
G02*
X226405014Y-241270023I0J-249999D01*
G01*
X226405014Y-242520025D01*
G75*
G02*
X226155015Y-242770024I-249999J0D01*
G01*
X225455013Y-242770024D01*
G75*
G02*
X225205014Y-242520025I0J249999D01*
G01*
G37*
G04 #@! TD.AperFunction*
D13*
G04 #@! TO.P,J3,2*
G04 #@! TO.N,Board_23-/WH*
X227805014Y-241895024D03*
G04 #@! TO.P,J3,3*
G04 #@! TO.N,Board_23-/VL*
X229805014Y-241895024D03*
G04 #@! TO.P,J3,4*
G04 #@! TO.N,Board_23-/VH*
X231805014Y-241895024D03*
G04 #@! TO.P,J3,5*
G04 #@! TO.N,Board_23-/UL*
X233805014Y-241895024D03*
G04 #@! TO.P,J3,6*
G04 #@! TO.N,Board_23-/UH*
X235805014Y-241895024D03*
G04 #@! TD*
G04 #@! TO.P,J1,1*
G04 #@! TO.N,Board_23-/~CS_DRIVER*
G04 #@! TA.AperFunction,ComponentPad*
G36*
G01*
X225205014Y-247600025D02*
X225205014Y-246350023D01*
G75*
G02*
X225455013Y-246100024I249999J0D01*
G01*
X226155015Y-246100024D01*
G75*
G02*
X226405014Y-246350023I0J-249999D01*
G01*
X226405014Y-247600025D01*
G75*
G02*
X226155015Y-247850024I-249999J0D01*
G01*
X225455013Y-247850024D01*
G75*
G02*
X225205014Y-247600025I0J249999D01*
G01*
G37*
G04 #@! TD.AperFunction*
G04 #@! TO.P,J1,2*
G04 #@! TO.N,Board_23-/SPI1_SCK*
X227805014Y-246975024D03*
G04 #@! TO.P,J1,3*
G04 #@! TO.N,Board_23-/SPI1_MOSI*
X229805014Y-246975024D03*
G04 #@! TO.P,J1,4*
G04 #@! TO.N,Board_23-/SPI1_MISO*
X231805014Y-246975024D03*
G04 #@! TO.P,J1,5*
G04 #@! TO.N,Board_23-/DRV_EN*
X233805014Y-246975024D03*
G04 #@! TO.P,J1,6*
G04 #@! TO.N,Board_23-/Connectors/FAULT*
X235805014Y-246975024D03*
G04 #@! TD*
D14*
G04 #@! TO.P,C16,1*
G04 #@! TO.N,Board_23-/+VM*
X204215014Y-245205024D03*
G04 #@! TO.P,C16,2*
G04 #@! TO.N,Board_23-GND*
X209215014Y-245205024D03*
G04 #@! TD*
G04 #@! TO.P,C15,1*
G04 #@! TO.N,Board_23-/+VM*
X215645014Y-245205024D03*
G04 #@! TO.P,C15,2*
G04 #@! TO.N,Board_23-GND*
X220645014Y-245205024D03*
G04 #@! TD*
D15*
G04 #@! TO.P,H202,1*
G04 #@! TO.N,Board_23-GND*
X205485014Y-255865024D03*
G04 #@! TD*
G04 #@! TO.P,H201,1*
G04 #@! TO.N,Board_23-GND*
X205485014Y-274915024D03*
G04 #@! TD*
G04 #@! TO.P,J2,1*
G04 #@! TO.N,Board_23-/Connectors/VCC_IO*
G04 #@! TA.AperFunction,ComponentPad*
G36*
G01*
X255660013Y-242565024D02*
X256910015Y-242565024D01*
G75*
G02*
X257160014Y-242815023I0J-249999D01*
G01*
X257160014Y-243515025D01*
G75*
G02*
X256910015Y-243765024I-249999J0D01*
G01*
X255660013Y-243765024D01*
G75*
G02*
X255410014Y-243515025I0J249999D01*
G01*
X255410014Y-242815023D01*
G75*
G02*
X255660013Y-242565024I249999J0D01*
G01*
G37*
G04 #@! TD.AperFunction*
D16*
G04 #@! TO.P,J2,2*
G04 #@! TO.N,Board_23-GND*
X256285014Y-245165024D03*
G04 #@! TD*
G04 #@! TO.P,J5,1*
G04 #@! TO.N,Board_23-Net-(C17-Pad1)*
G04 #@! TA.AperFunction,ComponentPad*
G36*
G01*
X255660013Y-274315024D02*
X256910015Y-274315024D01*
G75*
G02*
X257160014Y-274565023I0J-249999D01*
G01*
X257160014Y-275265025D01*
G75*
G02*
X256910015Y-275515024I-249999J0D01*
G01*
X255660013Y-275515024D01*
G75*
G02*
X255410014Y-275265025I0J249999D01*
G01*
X255410014Y-274565023D01*
G75*
G02*
X255660013Y-274315024I249999J0D01*
G01*
G37*
G04 #@! TD.AperFunction*
G04 #@! TO.P,J5,2*
G04 #@! TO.N,Board_23-GND*
X256285014Y-276915024D03*
G04 #@! TD*
G04 #@! TO.P,J6,1*
G04 #@! TO.N,Board_23-/ADC_I_u*
G04 #@! TA.AperFunction,ComponentPad*
G36*
G01*
X255660013Y-250185024D02*
X256910015Y-250185024D01*
G75*
G02*
X257160014Y-250435023I0J-249999D01*
G01*
X257160014Y-251135025D01*
G75*
G02*
X256910015Y-251385024I-249999J0D01*
G01*
X255660013Y-251385024D01*
G75*
G02*
X255410014Y-251135025I0J249999D01*
G01*
X255410014Y-250435023D01*
G75*
G02*
X255660013Y-250185024I249999J0D01*
G01*
G37*
G04 #@! TD.AperFunction*
G04 #@! TO.P,J6,2*
G04 #@! TO.N,Board_23-/ADC_I_v*
X256285014Y-252785024D03*
G04 #@! TO.P,J6,3*
G04 #@! TO.N,Board_23-/ADC_I_w*
X256285014Y-254785024D03*
G04 #@! TD*
D11*
G04 #@! TO.P,U3,1*
G04 #@! TO.N,Board_22-/W*
X196335009Y-269835024D03*
D12*
G04 #@! TO.P,U3,2*
G04 #@! TO.N,Board_22-/V*
X196335009Y-264755024D03*
G04 #@! TO.P,U3,3*
G04 #@! TO.N,Board_22-/U*
X196335009Y-259675024D03*
G04 #@! TD*
D11*
G04 #@! TO.P,U2,1*
G04 #@! TO.N,Board_22-GND*
X187445009Y-244435024D03*
D12*
G04 #@! TO.P,U2,2*
G04 #@! TO.N,Board_22-/+VM*
X182365009Y-244435024D03*
G04 #@! TD*
G04 #@! TO.P,J3,1*
G04 #@! TO.N,Board_22-/WL*
G04 #@! TA.AperFunction,ComponentPad*
G36*
G01*
X165255009Y-242520025D02*
X165255009Y-241270023D01*
G75*
G02*
X165505008Y-241020024I249999J0D01*
G01*
X166205010Y-241020024D01*
G75*
G02*
X166455009Y-241270023I0J-249999D01*
G01*
X166455009Y-242520025D01*
G75*
G02*
X166205010Y-242770024I-249999J0D01*
G01*
X165505008Y-242770024D01*
G75*
G02*
X165255009Y-242520025I0J249999D01*
G01*
G37*
G04 #@! TD.AperFunction*
D13*
G04 #@! TO.P,J3,2*
G04 #@! TO.N,Board_22-/WH*
X167855009Y-241895024D03*
G04 #@! TO.P,J3,3*
G04 #@! TO.N,Board_22-/VL*
X169855009Y-241895024D03*
G04 #@! TO.P,J3,4*
G04 #@! TO.N,Board_22-/VH*
X171855009Y-241895024D03*
G04 #@! TO.P,J3,5*
G04 #@! TO.N,Board_22-/UL*
X173855009Y-241895024D03*
G04 #@! TO.P,J3,6*
G04 #@! TO.N,Board_22-/UH*
X175855009Y-241895024D03*
G04 #@! TD*
G04 #@! TO.P,J1,1*
G04 #@! TO.N,Board_22-/~CS_DRIVER*
G04 #@! TA.AperFunction,ComponentPad*
G36*
G01*
X165255009Y-247600025D02*
X165255009Y-246350023D01*
G75*
G02*
X165505008Y-246100024I249999J0D01*
G01*
X166205010Y-246100024D01*
G75*
G02*
X166455009Y-246350023I0J-249999D01*
G01*
X166455009Y-247600025D01*
G75*
G02*
X166205010Y-247850024I-249999J0D01*
G01*
X165505008Y-247850024D01*
G75*
G02*
X165255009Y-247600025I0J249999D01*
G01*
G37*
G04 #@! TD.AperFunction*
G04 #@! TO.P,J1,2*
G04 #@! TO.N,Board_22-/SPI1_SCK*
X167855009Y-246975024D03*
G04 #@! TO.P,J1,3*
G04 #@! TO.N,Board_22-/SPI1_MOSI*
X169855009Y-246975024D03*
G04 #@! TO.P,J1,4*
G04 #@! TO.N,Board_22-/SPI1_MISO*
X171855009Y-246975024D03*
G04 #@! TO.P,J1,5*
G04 #@! TO.N,Board_22-/DRV_EN*
X173855009Y-246975024D03*
G04 #@! TO.P,J1,6*
G04 #@! TO.N,Board_22-/Connectors/FAULT*
X175855009Y-246975024D03*
G04 #@! TD*
D14*
G04 #@! TO.P,C16,1*
G04 #@! TO.N,Board_22-/+VM*
X144265009Y-245205024D03*
G04 #@! TO.P,C16,2*
G04 #@! TO.N,Board_22-GND*
X149265009Y-245205024D03*
G04 #@! TD*
G04 #@! TO.P,C15,1*
G04 #@! TO.N,Board_22-/+VM*
X155695009Y-245205024D03*
G04 #@! TO.P,C15,2*
G04 #@! TO.N,Board_22-GND*
X160695009Y-245205024D03*
G04 #@! TD*
D15*
G04 #@! TO.P,H202,1*
G04 #@! TO.N,Board_22-GND*
X145535009Y-255865024D03*
G04 #@! TD*
G04 #@! TO.P,H201,1*
G04 #@! TO.N,Board_22-GND*
X145535009Y-274915024D03*
G04 #@! TD*
G04 #@! TO.P,J2,1*
G04 #@! TO.N,Board_22-/Connectors/VCC_IO*
G04 #@! TA.AperFunction,ComponentPad*
G36*
G01*
X195710008Y-242565024D02*
X196960010Y-242565024D01*
G75*
G02*
X197210009Y-242815023I0J-249999D01*
G01*
X197210009Y-243515025D01*
G75*
G02*
X196960010Y-243765024I-249999J0D01*
G01*
X195710008Y-243765024D01*
G75*
G02*
X195460009Y-243515025I0J249999D01*
G01*
X195460009Y-242815023D01*
G75*
G02*
X195710008Y-242565024I249999J0D01*
G01*
G37*
G04 #@! TD.AperFunction*
D16*
G04 #@! TO.P,J2,2*
G04 #@! TO.N,Board_22-GND*
X196335009Y-245165024D03*
G04 #@! TD*
G04 #@! TO.P,J5,1*
G04 #@! TO.N,Board_22-Net-(C17-Pad1)*
G04 #@! TA.AperFunction,ComponentPad*
G36*
G01*
X195710008Y-274315024D02*
X196960010Y-274315024D01*
G75*
G02*
X197210009Y-274565023I0J-249999D01*
G01*
X197210009Y-275265025D01*
G75*
G02*
X196960010Y-275515024I-249999J0D01*
G01*
X195710008Y-275515024D01*
G75*
G02*
X195460009Y-275265025I0J249999D01*
G01*
X195460009Y-274565023D01*
G75*
G02*
X195710008Y-274315024I249999J0D01*
G01*
G37*
G04 #@! TD.AperFunction*
G04 #@! TO.P,J5,2*
G04 #@! TO.N,Board_22-GND*
X196335009Y-276915024D03*
G04 #@! TD*
G04 #@! TO.P,J6,1*
G04 #@! TO.N,Board_22-/ADC_I_u*
G04 #@! TA.AperFunction,ComponentPad*
G36*
G01*
X195710008Y-250185024D02*
X196960010Y-250185024D01*
G75*
G02*
X197210009Y-250435023I0J-249999D01*
G01*
X197210009Y-251135025D01*
G75*
G02*
X196960010Y-251385024I-249999J0D01*
G01*
X195710008Y-251385024D01*
G75*
G02*
X195460009Y-251135025I0J249999D01*
G01*
X195460009Y-250435023D01*
G75*
G02*
X195710008Y-250185024I249999J0D01*
G01*
G37*
G04 #@! TD.AperFunction*
G04 #@! TO.P,J6,2*
G04 #@! TO.N,Board_22-/ADC_I_v*
X196335009Y-252785024D03*
G04 #@! TO.P,J6,3*
G04 #@! TO.N,Board_22-/ADC_I_w*
X196335009Y-254785024D03*
G04 #@! TD*
D11*
G04 #@! TO.P,U3,1*
G04 #@! TO.N,Board_21-/W*
X136385004Y-269835024D03*
D12*
G04 #@! TO.P,U3,2*
G04 #@! TO.N,Board_21-/V*
X136385004Y-264755024D03*
G04 #@! TO.P,U3,3*
G04 #@! TO.N,Board_21-/U*
X136385004Y-259675024D03*
G04 #@! TD*
D11*
G04 #@! TO.P,U2,1*
G04 #@! TO.N,Board_21-GND*
X127495004Y-244435024D03*
D12*
G04 #@! TO.P,U2,2*
G04 #@! TO.N,Board_21-/+VM*
X122415004Y-244435024D03*
G04 #@! TD*
G04 #@! TO.P,J3,1*
G04 #@! TO.N,Board_21-/WL*
G04 #@! TA.AperFunction,ComponentPad*
G36*
G01*
X105305004Y-242520025D02*
X105305004Y-241270023D01*
G75*
G02*
X105555003Y-241020024I249999J0D01*
G01*
X106255005Y-241020024D01*
G75*
G02*
X106505004Y-241270023I0J-249999D01*
G01*
X106505004Y-242520025D01*
G75*
G02*
X106255005Y-242770024I-249999J0D01*
G01*
X105555003Y-242770024D01*
G75*
G02*
X105305004Y-242520025I0J249999D01*
G01*
G37*
G04 #@! TD.AperFunction*
D13*
G04 #@! TO.P,J3,2*
G04 #@! TO.N,Board_21-/WH*
X107905004Y-241895024D03*
G04 #@! TO.P,J3,3*
G04 #@! TO.N,Board_21-/VL*
X109905004Y-241895024D03*
G04 #@! TO.P,J3,4*
G04 #@! TO.N,Board_21-/VH*
X111905004Y-241895024D03*
G04 #@! TO.P,J3,5*
G04 #@! TO.N,Board_21-/UL*
X113905004Y-241895024D03*
G04 #@! TO.P,J3,6*
G04 #@! TO.N,Board_21-/UH*
X115905004Y-241895024D03*
G04 #@! TD*
G04 #@! TO.P,J1,1*
G04 #@! TO.N,Board_21-/~CS_DRIVER*
G04 #@! TA.AperFunction,ComponentPad*
G36*
G01*
X105305004Y-247600025D02*
X105305004Y-246350023D01*
G75*
G02*
X105555003Y-246100024I249999J0D01*
G01*
X106255005Y-246100024D01*
G75*
G02*
X106505004Y-246350023I0J-249999D01*
G01*
X106505004Y-247600025D01*
G75*
G02*
X106255005Y-247850024I-249999J0D01*
G01*
X105555003Y-247850024D01*
G75*
G02*
X105305004Y-247600025I0J249999D01*
G01*
G37*
G04 #@! TD.AperFunction*
G04 #@! TO.P,J1,2*
G04 #@! TO.N,Board_21-/SPI1_SCK*
X107905004Y-246975024D03*
G04 #@! TO.P,J1,3*
G04 #@! TO.N,Board_21-/SPI1_MOSI*
X109905004Y-246975024D03*
G04 #@! TO.P,J1,4*
G04 #@! TO.N,Board_21-/SPI1_MISO*
X111905004Y-246975024D03*
G04 #@! TO.P,J1,5*
G04 #@! TO.N,Board_21-/DRV_EN*
X113905004Y-246975024D03*
G04 #@! TO.P,J1,6*
G04 #@! TO.N,Board_21-/Connectors/FAULT*
X115905004Y-246975024D03*
G04 #@! TD*
D14*
G04 #@! TO.P,C16,1*
G04 #@! TO.N,Board_21-/+VM*
X84315004Y-245205024D03*
G04 #@! TO.P,C16,2*
G04 #@! TO.N,Board_21-GND*
X89315004Y-245205024D03*
G04 #@! TD*
G04 #@! TO.P,C15,1*
G04 #@! TO.N,Board_21-/+VM*
X95745004Y-245205024D03*
G04 #@! TO.P,C15,2*
G04 #@! TO.N,Board_21-GND*
X100745004Y-245205024D03*
G04 #@! TD*
D15*
G04 #@! TO.P,H202,1*
G04 #@! TO.N,Board_21-GND*
X85585004Y-255865024D03*
G04 #@! TD*
G04 #@! TO.P,H201,1*
G04 #@! TO.N,Board_21-GND*
X85585004Y-274915024D03*
G04 #@! TD*
G04 #@! TO.P,J2,1*
G04 #@! TO.N,Board_21-/Connectors/VCC_IO*
G04 #@! TA.AperFunction,ComponentPad*
G36*
G01*
X135760003Y-242565024D02*
X137010005Y-242565024D01*
G75*
G02*
X137260004Y-242815023I0J-249999D01*
G01*
X137260004Y-243515025D01*
G75*
G02*
X137010005Y-243765024I-249999J0D01*
G01*
X135760003Y-243765024D01*
G75*
G02*
X135510004Y-243515025I0J249999D01*
G01*
X135510004Y-242815023D01*
G75*
G02*
X135760003Y-242565024I249999J0D01*
G01*
G37*
G04 #@! TD.AperFunction*
D16*
G04 #@! TO.P,J2,2*
G04 #@! TO.N,Board_21-GND*
X136385004Y-245165024D03*
G04 #@! TD*
G04 #@! TO.P,J5,1*
G04 #@! TO.N,Board_21-Net-(C17-Pad1)*
G04 #@! TA.AperFunction,ComponentPad*
G36*
G01*
X135760003Y-274315024D02*
X137010005Y-274315024D01*
G75*
G02*
X137260004Y-274565023I0J-249999D01*
G01*
X137260004Y-275265025D01*
G75*
G02*
X137010005Y-275515024I-249999J0D01*
G01*
X135760003Y-275515024D01*
G75*
G02*
X135510004Y-275265025I0J249999D01*
G01*
X135510004Y-274565023D01*
G75*
G02*
X135760003Y-274315024I249999J0D01*
G01*
G37*
G04 #@! TD.AperFunction*
G04 #@! TO.P,J5,2*
G04 #@! TO.N,Board_21-GND*
X136385004Y-276915024D03*
G04 #@! TD*
G04 #@! TO.P,J6,1*
G04 #@! TO.N,Board_21-/ADC_I_u*
G04 #@! TA.AperFunction,ComponentPad*
G36*
G01*
X135760003Y-250185024D02*
X137010005Y-250185024D01*
G75*
G02*
X137260004Y-250435023I0J-249999D01*
G01*
X137260004Y-251135025D01*
G75*
G02*
X137010005Y-251385024I-249999J0D01*
G01*
X135760003Y-251385024D01*
G75*
G02*
X135510004Y-251135025I0J249999D01*
G01*
X135510004Y-250435023D01*
G75*
G02*
X135760003Y-250185024I249999J0D01*
G01*
G37*
G04 #@! TD.AperFunction*
G04 #@! TO.P,J6,2*
G04 #@! TO.N,Board_21-/ADC_I_v*
X136385004Y-252785024D03*
G04 #@! TO.P,J6,3*
G04 #@! TO.N,Board_21-/ADC_I_w*
X136385004Y-254785024D03*
G04 #@! TD*
D11*
G04 #@! TO.P,U3,1*
G04 #@! TO.N,Board_20-/W*
X76434999Y-269835024D03*
D12*
G04 #@! TO.P,U3,2*
G04 #@! TO.N,Board_20-/V*
X76434999Y-264755024D03*
G04 #@! TO.P,U3,3*
G04 #@! TO.N,Board_20-/U*
X76434999Y-259675024D03*
G04 #@! TD*
D11*
G04 #@! TO.P,U2,1*
G04 #@! TO.N,Board_20-GND*
X67544999Y-244435024D03*
D12*
G04 #@! TO.P,U2,2*
G04 #@! TO.N,Board_20-/+VM*
X62464999Y-244435024D03*
G04 #@! TD*
G04 #@! TO.P,J3,1*
G04 #@! TO.N,Board_20-/WL*
G04 #@! TA.AperFunction,ComponentPad*
G36*
G01*
X45354999Y-242520025D02*
X45354999Y-241270023D01*
G75*
G02*
X45604998Y-241020024I249999J0D01*
G01*
X46305000Y-241020024D01*
G75*
G02*
X46554999Y-241270023I0J-249999D01*
G01*
X46554999Y-242520025D01*
G75*
G02*
X46305000Y-242770024I-249999J0D01*
G01*
X45604998Y-242770024D01*
G75*
G02*
X45354999Y-242520025I0J249999D01*
G01*
G37*
G04 #@! TD.AperFunction*
D13*
G04 #@! TO.P,J3,2*
G04 #@! TO.N,Board_20-/WH*
X47954999Y-241895024D03*
G04 #@! TO.P,J3,3*
G04 #@! TO.N,Board_20-/VL*
X49954999Y-241895024D03*
G04 #@! TO.P,J3,4*
G04 #@! TO.N,Board_20-/VH*
X51954999Y-241895024D03*
G04 #@! TO.P,J3,5*
G04 #@! TO.N,Board_20-/UL*
X53954999Y-241895024D03*
G04 #@! TO.P,J3,6*
G04 #@! TO.N,Board_20-/UH*
X55954999Y-241895024D03*
G04 #@! TD*
G04 #@! TO.P,J1,1*
G04 #@! TO.N,Board_20-/~CS_DRIVER*
G04 #@! TA.AperFunction,ComponentPad*
G36*
G01*
X45354999Y-247600025D02*
X45354999Y-246350023D01*
G75*
G02*
X45604998Y-246100024I249999J0D01*
G01*
X46305000Y-246100024D01*
G75*
G02*
X46554999Y-246350023I0J-249999D01*
G01*
X46554999Y-247600025D01*
G75*
G02*
X46305000Y-247850024I-249999J0D01*
G01*
X45604998Y-247850024D01*
G75*
G02*
X45354999Y-247600025I0J249999D01*
G01*
G37*
G04 #@! TD.AperFunction*
G04 #@! TO.P,J1,2*
G04 #@! TO.N,Board_20-/SPI1_SCK*
X47954999Y-246975024D03*
G04 #@! TO.P,J1,3*
G04 #@! TO.N,Board_20-/SPI1_MOSI*
X49954999Y-246975024D03*
G04 #@! TO.P,J1,4*
G04 #@! TO.N,Board_20-/SPI1_MISO*
X51954999Y-246975024D03*
G04 #@! TO.P,J1,5*
G04 #@! TO.N,Board_20-/DRV_EN*
X53954999Y-246975024D03*
G04 #@! TO.P,J1,6*
G04 #@! TO.N,Board_20-/Connectors/FAULT*
X55954999Y-246975024D03*
G04 #@! TD*
D14*
G04 #@! TO.P,C16,1*
G04 #@! TO.N,Board_20-/+VM*
X24364999Y-245205024D03*
G04 #@! TO.P,C16,2*
G04 #@! TO.N,Board_20-GND*
X29364999Y-245205024D03*
G04 #@! TD*
G04 #@! TO.P,C15,1*
G04 #@! TO.N,Board_20-/+VM*
X35794999Y-245205024D03*
G04 #@! TO.P,C15,2*
G04 #@! TO.N,Board_20-GND*
X40794999Y-245205024D03*
G04 #@! TD*
D15*
G04 #@! TO.P,H202,1*
G04 #@! TO.N,Board_20-GND*
X25634999Y-255865024D03*
G04 #@! TD*
G04 #@! TO.P,H201,1*
G04 #@! TO.N,Board_20-GND*
X25634999Y-274915024D03*
G04 #@! TD*
G04 #@! TO.P,J2,1*
G04 #@! TO.N,Board_20-/Connectors/VCC_IO*
G04 #@! TA.AperFunction,ComponentPad*
G36*
G01*
X75809998Y-242565024D02*
X77060000Y-242565024D01*
G75*
G02*
X77309999Y-242815023I0J-249999D01*
G01*
X77309999Y-243515025D01*
G75*
G02*
X77060000Y-243765024I-249999J0D01*
G01*
X75809998Y-243765024D01*
G75*
G02*
X75559999Y-243515025I0J249999D01*
G01*
X75559999Y-242815023D01*
G75*
G02*
X75809998Y-242565024I249999J0D01*
G01*
G37*
G04 #@! TD.AperFunction*
D16*
G04 #@! TO.P,J2,2*
G04 #@! TO.N,Board_20-GND*
X76434999Y-245165024D03*
G04 #@! TD*
G04 #@! TO.P,J5,1*
G04 #@! TO.N,Board_20-Net-(C17-Pad1)*
G04 #@! TA.AperFunction,ComponentPad*
G36*
G01*
X75809998Y-274315024D02*
X77060000Y-274315024D01*
G75*
G02*
X77309999Y-274565023I0J-249999D01*
G01*
X77309999Y-275265025D01*
G75*
G02*
X77060000Y-275515024I-249999J0D01*
G01*
X75809998Y-275515024D01*
G75*
G02*
X75559999Y-275265025I0J249999D01*
G01*
X75559999Y-274565023D01*
G75*
G02*
X75809998Y-274315024I249999J0D01*
G01*
G37*
G04 #@! TD.AperFunction*
G04 #@! TO.P,J5,2*
G04 #@! TO.N,Board_20-GND*
X76434999Y-276915024D03*
G04 #@! TD*
G04 #@! TO.P,J6,1*
G04 #@! TO.N,Board_20-/ADC_I_u*
G04 #@! TA.AperFunction,ComponentPad*
G36*
G01*
X75809998Y-250185024D02*
X77060000Y-250185024D01*
G75*
G02*
X77309999Y-250435023I0J-249999D01*
G01*
X77309999Y-251135025D01*
G75*
G02*
X77060000Y-251385024I-249999J0D01*
G01*
X75809998Y-251385024D01*
G75*
G02*
X75559999Y-251135025I0J249999D01*
G01*
X75559999Y-250435023D01*
G75*
G02*
X75809998Y-250185024I249999J0D01*
G01*
G37*
G04 #@! TD.AperFunction*
G04 #@! TO.P,J6,2*
G04 #@! TO.N,Board_20-/ADC_I_v*
X76434999Y-252785024D03*
G04 #@! TO.P,J6,3*
G04 #@! TO.N,Board_20-/ADC_I_w*
X76434999Y-254785024D03*
G04 #@! TD*
D11*
G04 #@! TO.P,U3,1*
G04 #@! TO.N,Board_19-/W*
X256285014Y-227845019D03*
D12*
G04 #@! TO.P,U3,2*
G04 #@! TO.N,Board_19-/V*
X256285014Y-222765019D03*
G04 #@! TO.P,U3,3*
G04 #@! TO.N,Board_19-/U*
X256285014Y-217685019D03*
G04 #@! TD*
D11*
G04 #@! TO.P,U2,1*
G04 #@! TO.N,Board_19-GND*
X247395014Y-202445019D03*
D12*
G04 #@! TO.P,U2,2*
G04 #@! TO.N,Board_19-/+VM*
X242315014Y-202445019D03*
G04 #@! TD*
G04 #@! TO.P,J3,1*
G04 #@! TO.N,Board_19-/WL*
G04 #@! TA.AperFunction,ComponentPad*
G36*
G01*
X225205014Y-200530020D02*
X225205014Y-199280018D01*
G75*
G02*
X225455013Y-199030019I249999J0D01*
G01*
X226155015Y-199030019D01*
G75*
G02*
X226405014Y-199280018I0J-249999D01*
G01*
X226405014Y-200530020D01*
G75*
G02*
X226155015Y-200780019I-249999J0D01*
G01*
X225455013Y-200780019D01*
G75*
G02*
X225205014Y-200530020I0J249999D01*
G01*
G37*
G04 #@! TD.AperFunction*
D13*
G04 #@! TO.P,J3,2*
G04 #@! TO.N,Board_19-/WH*
X227805014Y-199905019D03*
G04 #@! TO.P,J3,3*
G04 #@! TO.N,Board_19-/VL*
X229805014Y-199905019D03*
G04 #@! TO.P,J3,4*
G04 #@! TO.N,Board_19-/VH*
X231805014Y-199905019D03*
G04 #@! TO.P,J3,5*
G04 #@! TO.N,Board_19-/UL*
X233805014Y-199905019D03*
G04 #@! TO.P,J3,6*
G04 #@! TO.N,Board_19-/UH*
X235805014Y-199905019D03*
G04 #@! TD*
G04 #@! TO.P,J1,1*
G04 #@! TO.N,Board_19-/~CS_DRIVER*
G04 #@! TA.AperFunction,ComponentPad*
G36*
G01*
X225205014Y-205610020D02*
X225205014Y-204360018D01*
G75*
G02*
X225455013Y-204110019I249999J0D01*
G01*
X226155015Y-204110019D01*
G75*
G02*
X226405014Y-204360018I0J-249999D01*
G01*
X226405014Y-205610020D01*
G75*
G02*
X226155015Y-205860019I-249999J0D01*
G01*
X225455013Y-205860019D01*
G75*
G02*
X225205014Y-205610020I0J249999D01*
G01*
G37*
G04 #@! TD.AperFunction*
G04 #@! TO.P,J1,2*
G04 #@! TO.N,Board_19-/SPI1_SCK*
X227805014Y-204985019D03*
G04 #@! TO.P,J1,3*
G04 #@! TO.N,Board_19-/SPI1_MOSI*
X229805014Y-204985019D03*
G04 #@! TO.P,J1,4*
G04 #@! TO.N,Board_19-/SPI1_MISO*
X231805014Y-204985019D03*
G04 #@! TO.P,J1,5*
G04 #@! TO.N,Board_19-/DRV_EN*
X233805014Y-204985019D03*
G04 #@! TO.P,J1,6*
G04 #@! TO.N,Board_19-/Connectors/FAULT*
X235805014Y-204985019D03*
G04 #@! TD*
D14*
G04 #@! TO.P,C16,1*
G04 #@! TO.N,Board_19-/+VM*
X204215014Y-203215019D03*
G04 #@! TO.P,C16,2*
G04 #@! TO.N,Board_19-GND*
X209215014Y-203215019D03*
G04 #@! TD*
G04 #@! TO.P,C15,1*
G04 #@! TO.N,Board_19-/+VM*
X215645014Y-203215019D03*
G04 #@! TO.P,C15,2*
G04 #@! TO.N,Board_19-GND*
X220645014Y-203215019D03*
G04 #@! TD*
D15*
G04 #@! TO.P,H202,1*
G04 #@! TO.N,Board_19-GND*
X205485014Y-213875019D03*
G04 #@! TD*
G04 #@! TO.P,H201,1*
G04 #@! TO.N,Board_19-GND*
X205485014Y-232925019D03*
G04 #@! TD*
G04 #@! TO.P,J2,1*
G04 #@! TO.N,Board_19-/Connectors/VCC_IO*
G04 #@! TA.AperFunction,ComponentPad*
G36*
G01*
X255660013Y-200575019D02*
X256910015Y-200575019D01*
G75*
G02*
X257160014Y-200825018I0J-249999D01*
G01*
X257160014Y-201525020D01*
G75*
G02*
X256910015Y-201775019I-249999J0D01*
G01*
X255660013Y-201775019D01*
G75*
G02*
X255410014Y-201525020I0J249999D01*
G01*
X255410014Y-200825018D01*
G75*
G02*
X255660013Y-200575019I249999J0D01*
G01*
G37*
G04 #@! TD.AperFunction*
D16*
G04 #@! TO.P,J2,2*
G04 #@! TO.N,Board_19-GND*
X256285014Y-203175019D03*
G04 #@! TD*
G04 #@! TO.P,J5,1*
G04 #@! TO.N,Board_19-Net-(C17-Pad1)*
G04 #@! TA.AperFunction,ComponentPad*
G36*
G01*
X255660013Y-232325019D02*
X256910015Y-232325019D01*
G75*
G02*
X257160014Y-232575018I0J-249999D01*
G01*
X257160014Y-233275020D01*
G75*
G02*
X256910015Y-233525019I-249999J0D01*
G01*
X255660013Y-233525019D01*
G75*
G02*
X255410014Y-233275020I0J249999D01*
G01*
X255410014Y-232575018D01*
G75*
G02*
X255660013Y-232325019I249999J0D01*
G01*
G37*
G04 #@! TD.AperFunction*
G04 #@! TO.P,J5,2*
G04 #@! TO.N,Board_19-GND*
X256285014Y-234925019D03*
G04 #@! TD*
G04 #@! TO.P,J6,1*
G04 #@! TO.N,Board_19-/ADC_I_u*
G04 #@! TA.AperFunction,ComponentPad*
G36*
G01*
X255660013Y-208195019D02*
X256910015Y-208195019D01*
G75*
G02*
X257160014Y-208445018I0J-249999D01*
G01*
X257160014Y-209145020D01*
G75*
G02*
X256910015Y-209395019I-249999J0D01*
G01*
X255660013Y-209395019D01*
G75*
G02*
X255410014Y-209145020I0J249999D01*
G01*
X255410014Y-208445018D01*
G75*
G02*
X255660013Y-208195019I249999J0D01*
G01*
G37*
G04 #@! TD.AperFunction*
G04 #@! TO.P,J6,2*
G04 #@! TO.N,Board_19-/ADC_I_v*
X256285014Y-210795019D03*
G04 #@! TO.P,J6,3*
G04 #@! TO.N,Board_19-/ADC_I_w*
X256285014Y-212795019D03*
G04 #@! TD*
D11*
G04 #@! TO.P,U3,1*
G04 #@! TO.N,Board_18-/W*
X196335009Y-227845019D03*
D12*
G04 #@! TO.P,U3,2*
G04 #@! TO.N,Board_18-/V*
X196335009Y-222765019D03*
G04 #@! TO.P,U3,3*
G04 #@! TO.N,Board_18-/U*
X196335009Y-217685019D03*
G04 #@! TD*
D11*
G04 #@! TO.P,U2,1*
G04 #@! TO.N,Board_18-GND*
X187445009Y-202445019D03*
D12*
G04 #@! TO.P,U2,2*
G04 #@! TO.N,Board_18-/+VM*
X182365009Y-202445019D03*
G04 #@! TD*
G04 #@! TO.P,J3,1*
G04 #@! TO.N,Board_18-/WL*
G04 #@! TA.AperFunction,ComponentPad*
G36*
G01*
X165255009Y-200530020D02*
X165255009Y-199280018D01*
G75*
G02*
X165505008Y-199030019I249999J0D01*
G01*
X166205010Y-199030019D01*
G75*
G02*
X166455009Y-199280018I0J-249999D01*
G01*
X166455009Y-200530020D01*
G75*
G02*
X166205010Y-200780019I-249999J0D01*
G01*
X165505008Y-200780019D01*
G75*
G02*
X165255009Y-200530020I0J249999D01*
G01*
G37*
G04 #@! TD.AperFunction*
D13*
G04 #@! TO.P,J3,2*
G04 #@! TO.N,Board_18-/WH*
X167855009Y-199905019D03*
G04 #@! TO.P,J3,3*
G04 #@! TO.N,Board_18-/VL*
X169855009Y-199905019D03*
G04 #@! TO.P,J3,4*
G04 #@! TO.N,Board_18-/VH*
X171855009Y-199905019D03*
G04 #@! TO.P,J3,5*
G04 #@! TO.N,Board_18-/UL*
X173855009Y-199905019D03*
G04 #@! TO.P,J3,6*
G04 #@! TO.N,Board_18-/UH*
X175855009Y-199905019D03*
G04 #@! TD*
G04 #@! TO.P,J1,1*
G04 #@! TO.N,Board_18-/~CS_DRIVER*
G04 #@! TA.AperFunction,ComponentPad*
G36*
G01*
X165255009Y-205610020D02*
X165255009Y-204360018D01*
G75*
G02*
X165505008Y-204110019I249999J0D01*
G01*
X166205010Y-204110019D01*
G75*
G02*
X166455009Y-204360018I0J-249999D01*
G01*
X166455009Y-205610020D01*
G75*
G02*
X166205010Y-205860019I-249999J0D01*
G01*
X165505008Y-205860019D01*
G75*
G02*
X165255009Y-205610020I0J249999D01*
G01*
G37*
G04 #@! TD.AperFunction*
G04 #@! TO.P,J1,2*
G04 #@! TO.N,Board_18-/SPI1_SCK*
X167855009Y-204985019D03*
G04 #@! TO.P,J1,3*
G04 #@! TO.N,Board_18-/SPI1_MOSI*
X169855009Y-204985019D03*
G04 #@! TO.P,J1,4*
G04 #@! TO.N,Board_18-/SPI1_MISO*
X171855009Y-204985019D03*
G04 #@! TO.P,J1,5*
G04 #@! TO.N,Board_18-/DRV_EN*
X173855009Y-204985019D03*
G04 #@! TO.P,J1,6*
G04 #@! TO.N,Board_18-/Connectors/FAULT*
X175855009Y-204985019D03*
G04 #@! TD*
D14*
G04 #@! TO.P,C16,1*
G04 #@! TO.N,Board_18-/+VM*
X144265009Y-203215019D03*
G04 #@! TO.P,C16,2*
G04 #@! TO.N,Board_18-GND*
X149265009Y-203215019D03*
G04 #@! TD*
G04 #@! TO.P,C15,1*
G04 #@! TO.N,Board_18-/+VM*
X155695009Y-203215019D03*
G04 #@! TO.P,C15,2*
G04 #@! TO.N,Board_18-GND*
X160695009Y-203215019D03*
G04 #@! TD*
D15*
G04 #@! TO.P,H202,1*
G04 #@! TO.N,Board_18-GND*
X145535009Y-213875019D03*
G04 #@! TD*
G04 #@! TO.P,H201,1*
G04 #@! TO.N,Board_18-GND*
X145535009Y-232925019D03*
G04 #@! TD*
G04 #@! TO.P,J2,1*
G04 #@! TO.N,Board_18-/Connectors/VCC_IO*
G04 #@! TA.AperFunction,ComponentPad*
G36*
G01*
X195710008Y-200575019D02*
X196960010Y-200575019D01*
G75*
G02*
X197210009Y-200825018I0J-249999D01*
G01*
X197210009Y-201525020D01*
G75*
G02*
X196960010Y-201775019I-249999J0D01*
G01*
X195710008Y-201775019D01*
G75*
G02*
X195460009Y-201525020I0J249999D01*
G01*
X195460009Y-200825018D01*
G75*
G02*
X195710008Y-200575019I249999J0D01*
G01*
G37*
G04 #@! TD.AperFunction*
D16*
G04 #@! TO.P,J2,2*
G04 #@! TO.N,Board_18-GND*
X196335009Y-203175019D03*
G04 #@! TD*
G04 #@! TO.P,J5,1*
G04 #@! TO.N,Board_18-Net-(C17-Pad1)*
G04 #@! TA.AperFunction,ComponentPad*
G36*
G01*
X195710008Y-232325019D02*
X196960010Y-232325019D01*
G75*
G02*
X197210009Y-232575018I0J-249999D01*
G01*
X197210009Y-233275020D01*
G75*
G02*
X196960010Y-233525019I-249999J0D01*
G01*
X195710008Y-233525019D01*
G75*
G02*
X195460009Y-233275020I0J249999D01*
G01*
X195460009Y-232575018D01*
G75*
G02*
X195710008Y-232325019I249999J0D01*
G01*
G37*
G04 #@! TD.AperFunction*
G04 #@! TO.P,J5,2*
G04 #@! TO.N,Board_18-GND*
X196335009Y-234925019D03*
G04 #@! TD*
G04 #@! TO.P,J6,1*
G04 #@! TO.N,Board_18-/ADC_I_u*
G04 #@! TA.AperFunction,ComponentPad*
G36*
G01*
X195710008Y-208195019D02*
X196960010Y-208195019D01*
G75*
G02*
X197210009Y-208445018I0J-249999D01*
G01*
X197210009Y-209145020D01*
G75*
G02*
X196960010Y-209395019I-249999J0D01*
G01*
X195710008Y-209395019D01*
G75*
G02*
X195460009Y-209145020I0J249999D01*
G01*
X195460009Y-208445018D01*
G75*
G02*
X195710008Y-208195019I249999J0D01*
G01*
G37*
G04 #@! TD.AperFunction*
G04 #@! TO.P,J6,2*
G04 #@! TO.N,Board_18-/ADC_I_v*
X196335009Y-210795019D03*
G04 #@! TO.P,J6,3*
G04 #@! TO.N,Board_18-/ADC_I_w*
X196335009Y-212795019D03*
G04 #@! TD*
D11*
G04 #@! TO.P,U3,1*
G04 #@! TO.N,Board_17-/W*
X136385004Y-227845019D03*
D12*
G04 #@! TO.P,U3,2*
G04 #@! TO.N,Board_17-/V*
X136385004Y-222765019D03*
G04 #@! TO.P,U3,3*
G04 #@! TO.N,Board_17-/U*
X136385004Y-217685019D03*
G04 #@! TD*
D11*
G04 #@! TO.P,U2,1*
G04 #@! TO.N,Board_17-GND*
X127495004Y-202445019D03*
D12*
G04 #@! TO.P,U2,2*
G04 #@! TO.N,Board_17-/+VM*
X122415004Y-202445019D03*
G04 #@! TD*
G04 #@! TO.P,J3,1*
G04 #@! TO.N,Board_17-/WL*
G04 #@! TA.AperFunction,ComponentPad*
G36*
G01*
X105305004Y-200530020D02*
X105305004Y-199280018D01*
G75*
G02*
X105555003Y-199030019I249999J0D01*
G01*
X106255005Y-199030019D01*
G75*
G02*
X106505004Y-199280018I0J-249999D01*
G01*
X106505004Y-200530020D01*
G75*
G02*
X106255005Y-200780019I-249999J0D01*
G01*
X105555003Y-200780019D01*
G75*
G02*
X105305004Y-200530020I0J249999D01*
G01*
G37*
G04 #@! TD.AperFunction*
D13*
G04 #@! TO.P,J3,2*
G04 #@! TO.N,Board_17-/WH*
X107905004Y-199905019D03*
G04 #@! TO.P,J3,3*
G04 #@! TO.N,Board_17-/VL*
X109905004Y-199905019D03*
G04 #@! TO.P,J3,4*
G04 #@! TO.N,Board_17-/VH*
X111905004Y-199905019D03*
G04 #@! TO.P,J3,5*
G04 #@! TO.N,Board_17-/UL*
X113905004Y-199905019D03*
G04 #@! TO.P,J3,6*
G04 #@! TO.N,Board_17-/UH*
X115905004Y-199905019D03*
G04 #@! TD*
G04 #@! TO.P,J1,1*
G04 #@! TO.N,Board_17-/~CS_DRIVER*
G04 #@! TA.AperFunction,ComponentPad*
G36*
G01*
X105305004Y-205610020D02*
X105305004Y-204360018D01*
G75*
G02*
X105555003Y-204110019I249999J0D01*
G01*
X106255005Y-204110019D01*
G75*
G02*
X106505004Y-204360018I0J-249999D01*
G01*
X106505004Y-205610020D01*
G75*
G02*
X106255005Y-205860019I-249999J0D01*
G01*
X105555003Y-205860019D01*
G75*
G02*
X105305004Y-205610020I0J249999D01*
G01*
G37*
G04 #@! TD.AperFunction*
G04 #@! TO.P,J1,2*
G04 #@! TO.N,Board_17-/SPI1_SCK*
X107905004Y-204985019D03*
G04 #@! TO.P,J1,3*
G04 #@! TO.N,Board_17-/SPI1_MOSI*
X109905004Y-204985019D03*
G04 #@! TO.P,J1,4*
G04 #@! TO.N,Board_17-/SPI1_MISO*
X111905004Y-204985019D03*
G04 #@! TO.P,J1,5*
G04 #@! TO.N,Board_17-/DRV_EN*
X113905004Y-204985019D03*
G04 #@! TO.P,J1,6*
G04 #@! TO.N,Board_17-/Connectors/FAULT*
X115905004Y-204985019D03*
G04 #@! TD*
D14*
G04 #@! TO.P,C16,1*
G04 #@! TO.N,Board_17-/+VM*
X84315004Y-203215019D03*
G04 #@! TO.P,C16,2*
G04 #@! TO.N,Board_17-GND*
X89315004Y-203215019D03*
G04 #@! TD*
G04 #@! TO.P,C15,1*
G04 #@! TO.N,Board_17-/+VM*
X95745004Y-203215019D03*
G04 #@! TO.P,C15,2*
G04 #@! TO.N,Board_17-GND*
X100745004Y-203215019D03*
G04 #@! TD*
D15*
G04 #@! TO.P,H202,1*
G04 #@! TO.N,Board_17-GND*
X85585004Y-213875019D03*
G04 #@! TD*
G04 #@! TO.P,H201,1*
G04 #@! TO.N,Board_17-GND*
X85585004Y-232925019D03*
G04 #@! TD*
G04 #@! TO.P,J2,1*
G04 #@! TO.N,Board_17-/Connectors/VCC_IO*
G04 #@! TA.AperFunction,ComponentPad*
G36*
G01*
X135760003Y-200575019D02*
X137010005Y-200575019D01*
G75*
G02*
X137260004Y-200825018I0J-249999D01*
G01*
X137260004Y-201525020D01*
G75*
G02*
X137010005Y-201775019I-249999J0D01*
G01*
X135760003Y-201775019D01*
G75*
G02*
X135510004Y-201525020I0J249999D01*
G01*
X135510004Y-200825018D01*
G75*
G02*
X135760003Y-200575019I249999J0D01*
G01*
G37*
G04 #@! TD.AperFunction*
D16*
G04 #@! TO.P,J2,2*
G04 #@! TO.N,Board_17-GND*
X136385004Y-203175019D03*
G04 #@! TD*
G04 #@! TO.P,J5,1*
G04 #@! TO.N,Board_17-Net-(C17-Pad1)*
G04 #@! TA.AperFunction,ComponentPad*
G36*
G01*
X135760003Y-232325019D02*
X137010005Y-232325019D01*
G75*
G02*
X137260004Y-232575018I0J-249999D01*
G01*
X137260004Y-233275020D01*
G75*
G02*
X137010005Y-233525019I-249999J0D01*
G01*
X135760003Y-233525019D01*
G75*
G02*
X135510004Y-233275020I0J249999D01*
G01*
X135510004Y-232575018D01*
G75*
G02*
X135760003Y-232325019I249999J0D01*
G01*
G37*
G04 #@! TD.AperFunction*
G04 #@! TO.P,J5,2*
G04 #@! TO.N,Board_17-GND*
X136385004Y-234925019D03*
G04 #@! TD*
G04 #@! TO.P,J6,1*
G04 #@! TO.N,Board_17-/ADC_I_u*
G04 #@! TA.AperFunction,ComponentPad*
G36*
G01*
X135760003Y-208195019D02*
X137010005Y-208195019D01*
G75*
G02*
X137260004Y-208445018I0J-249999D01*
G01*
X137260004Y-209145020D01*
G75*
G02*
X137010005Y-209395019I-249999J0D01*
G01*
X135760003Y-209395019D01*
G75*
G02*
X135510004Y-209145020I0J249999D01*
G01*
X135510004Y-208445018D01*
G75*
G02*
X135760003Y-208195019I249999J0D01*
G01*
G37*
G04 #@! TD.AperFunction*
G04 #@! TO.P,J6,2*
G04 #@! TO.N,Board_17-/ADC_I_v*
X136385004Y-210795019D03*
G04 #@! TO.P,J6,3*
G04 #@! TO.N,Board_17-/ADC_I_w*
X136385004Y-212795019D03*
G04 #@! TD*
D11*
G04 #@! TO.P,U3,1*
G04 #@! TO.N,Board_16-/W*
X76434999Y-227845019D03*
D12*
G04 #@! TO.P,U3,2*
G04 #@! TO.N,Board_16-/V*
X76434999Y-222765019D03*
G04 #@! TO.P,U3,3*
G04 #@! TO.N,Board_16-/U*
X76434999Y-217685019D03*
G04 #@! TD*
D11*
G04 #@! TO.P,U2,1*
G04 #@! TO.N,Board_16-GND*
X67544999Y-202445019D03*
D12*
G04 #@! TO.P,U2,2*
G04 #@! TO.N,Board_16-/+VM*
X62464999Y-202445019D03*
G04 #@! TD*
G04 #@! TO.P,J3,1*
G04 #@! TO.N,Board_16-/WL*
G04 #@! TA.AperFunction,ComponentPad*
G36*
G01*
X45354999Y-200530020D02*
X45354999Y-199280018D01*
G75*
G02*
X45604998Y-199030019I249999J0D01*
G01*
X46305000Y-199030019D01*
G75*
G02*
X46554999Y-199280018I0J-249999D01*
G01*
X46554999Y-200530020D01*
G75*
G02*
X46305000Y-200780019I-249999J0D01*
G01*
X45604998Y-200780019D01*
G75*
G02*
X45354999Y-200530020I0J249999D01*
G01*
G37*
G04 #@! TD.AperFunction*
D13*
G04 #@! TO.P,J3,2*
G04 #@! TO.N,Board_16-/WH*
X47954999Y-199905019D03*
G04 #@! TO.P,J3,3*
G04 #@! TO.N,Board_16-/VL*
X49954999Y-199905019D03*
G04 #@! TO.P,J3,4*
G04 #@! TO.N,Board_16-/VH*
X51954999Y-199905019D03*
G04 #@! TO.P,J3,5*
G04 #@! TO.N,Board_16-/UL*
X53954999Y-199905019D03*
G04 #@! TO.P,J3,6*
G04 #@! TO.N,Board_16-/UH*
X55954999Y-199905019D03*
G04 #@! TD*
G04 #@! TO.P,J1,1*
G04 #@! TO.N,Board_16-/~CS_DRIVER*
G04 #@! TA.AperFunction,ComponentPad*
G36*
G01*
X45354999Y-205610020D02*
X45354999Y-204360018D01*
G75*
G02*
X45604998Y-204110019I249999J0D01*
G01*
X46305000Y-204110019D01*
G75*
G02*
X46554999Y-204360018I0J-249999D01*
G01*
X46554999Y-205610020D01*
G75*
G02*
X46305000Y-205860019I-249999J0D01*
G01*
X45604998Y-205860019D01*
G75*
G02*
X45354999Y-205610020I0J249999D01*
G01*
G37*
G04 #@! TD.AperFunction*
G04 #@! TO.P,J1,2*
G04 #@! TO.N,Board_16-/SPI1_SCK*
X47954999Y-204985019D03*
G04 #@! TO.P,J1,3*
G04 #@! TO.N,Board_16-/SPI1_MOSI*
X49954999Y-204985019D03*
G04 #@! TO.P,J1,4*
G04 #@! TO.N,Board_16-/SPI1_MISO*
X51954999Y-204985019D03*
G04 #@! TO.P,J1,5*
G04 #@! TO.N,Board_16-/DRV_EN*
X53954999Y-204985019D03*
G04 #@! TO.P,J1,6*
G04 #@! TO.N,Board_16-/Connectors/FAULT*
X55954999Y-204985019D03*
G04 #@! TD*
D14*
G04 #@! TO.P,C16,1*
G04 #@! TO.N,Board_16-/+VM*
X24364999Y-203215019D03*
G04 #@! TO.P,C16,2*
G04 #@! TO.N,Board_16-GND*
X29364999Y-203215019D03*
G04 #@! TD*
G04 #@! TO.P,C15,1*
G04 #@! TO.N,Board_16-/+VM*
X35794999Y-203215019D03*
G04 #@! TO.P,C15,2*
G04 #@! TO.N,Board_16-GND*
X40794999Y-203215019D03*
G04 #@! TD*
D15*
G04 #@! TO.P,H202,1*
G04 #@! TO.N,Board_16-GND*
X25634999Y-213875019D03*
G04 #@! TD*
G04 #@! TO.P,H201,1*
G04 #@! TO.N,Board_16-GND*
X25634999Y-232925019D03*
G04 #@! TD*
G04 #@! TO.P,J2,1*
G04 #@! TO.N,Board_16-/Connectors/VCC_IO*
G04 #@! TA.AperFunction,ComponentPad*
G36*
G01*
X75809998Y-200575019D02*
X77060000Y-200575019D01*
G75*
G02*
X77309999Y-200825018I0J-249999D01*
G01*
X77309999Y-201525020D01*
G75*
G02*
X77060000Y-201775019I-249999J0D01*
G01*
X75809998Y-201775019D01*
G75*
G02*
X75559999Y-201525020I0J249999D01*
G01*
X75559999Y-200825018D01*
G75*
G02*
X75809998Y-200575019I249999J0D01*
G01*
G37*
G04 #@! TD.AperFunction*
D16*
G04 #@! TO.P,J2,2*
G04 #@! TO.N,Board_16-GND*
X76434999Y-203175019D03*
G04 #@! TD*
G04 #@! TO.P,J5,1*
G04 #@! TO.N,Board_16-Net-(C17-Pad1)*
G04 #@! TA.AperFunction,ComponentPad*
G36*
G01*
X75809998Y-232325019D02*
X77060000Y-232325019D01*
G75*
G02*
X77309999Y-232575018I0J-249999D01*
G01*
X77309999Y-233275020D01*
G75*
G02*
X77060000Y-233525019I-249999J0D01*
G01*
X75809998Y-233525019D01*
G75*
G02*
X75559999Y-233275020I0J249999D01*
G01*
X75559999Y-232575018D01*
G75*
G02*
X75809998Y-232325019I249999J0D01*
G01*
G37*
G04 #@! TD.AperFunction*
G04 #@! TO.P,J5,2*
G04 #@! TO.N,Board_16-GND*
X76434999Y-234925019D03*
G04 #@! TD*
G04 #@! TO.P,J6,1*
G04 #@! TO.N,Board_16-/ADC_I_u*
G04 #@! TA.AperFunction,ComponentPad*
G36*
G01*
X75809998Y-208195019D02*
X77060000Y-208195019D01*
G75*
G02*
X77309999Y-208445018I0J-249999D01*
G01*
X77309999Y-209145020D01*
G75*
G02*
X77060000Y-209395019I-249999J0D01*
G01*
X75809998Y-209395019D01*
G75*
G02*
X75559999Y-209145020I0J249999D01*
G01*
X75559999Y-208445018D01*
G75*
G02*
X75809998Y-208195019I249999J0D01*
G01*
G37*
G04 #@! TD.AperFunction*
G04 #@! TO.P,J6,2*
G04 #@! TO.N,Board_16-/ADC_I_v*
X76434999Y-210795019D03*
G04 #@! TO.P,J6,3*
G04 #@! TO.N,Board_16-/ADC_I_w*
X76434999Y-212795019D03*
G04 #@! TD*
D11*
G04 #@! TO.P,U3,1*
G04 #@! TO.N,Board_15-/W*
X256285014Y-185855014D03*
D12*
G04 #@! TO.P,U3,2*
G04 #@! TO.N,Board_15-/V*
X256285014Y-180775014D03*
G04 #@! TO.P,U3,3*
G04 #@! TO.N,Board_15-/U*
X256285014Y-175695014D03*
G04 #@! TD*
D11*
G04 #@! TO.P,U2,1*
G04 #@! TO.N,Board_15-GND*
X247395014Y-160455014D03*
D12*
G04 #@! TO.P,U2,2*
G04 #@! TO.N,Board_15-/+VM*
X242315014Y-160455014D03*
G04 #@! TD*
G04 #@! TO.P,J3,1*
G04 #@! TO.N,Board_15-/WL*
G04 #@! TA.AperFunction,ComponentPad*
G36*
G01*
X225205014Y-158540015D02*
X225205014Y-157290013D01*
G75*
G02*
X225455013Y-157040014I249999J0D01*
G01*
X226155015Y-157040014D01*
G75*
G02*
X226405014Y-157290013I0J-249999D01*
G01*
X226405014Y-158540015D01*
G75*
G02*
X226155015Y-158790014I-249999J0D01*
G01*
X225455013Y-158790014D01*
G75*
G02*
X225205014Y-158540015I0J249999D01*
G01*
G37*
G04 #@! TD.AperFunction*
D13*
G04 #@! TO.P,J3,2*
G04 #@! TO.N,Board_15-/WH*
X227805014Y-157915014D03*
G04 #@! TO.P,J3,3*
G04 #@! TO.N,Board_15-/VL*
X229805014Y-157915014D03*
G04 #@! TO.P,J3,4*
G04 #@! TO.N,Board_15-/VH*
X231805014Y-157915014D03*
G04 #@! TO.P,J3,5*
G04 #@! TO.N,Board_15-/UL*
X233805014Y-157915014D03*
G04 #@! TO.P,J3,6*
G04 #@! TO.N,Board_15-/UH*
X235805014Y-157915014D03*
G04 #@! TD*
G04 #@! TO.P,J1,1*
G04 #@! TO.N,Board_15-/~CS_DRIVER*
G04 #@! TA.AperFunction,ComponentPad*
G36*
G01*
X225205014Y-163620015D02*
X225205014Y-162370013D01*
G75*
G02*
X225455013Y-162120014I249999J0D01*
G01*
X226155015Y-162120014D01*
G75*
G02*
X226405014Y-162370013I0J-249999D01*
G01*
X226405014Y-163620015D01*
G75*
G02*
X226155015Y-163870014I-249999J0D01*
G01*
X225455013Y-163870014D01*
G75*
G02*
X225205014Y-163620015I0J249999D01*
G01*
G37*
G04 #@! TD.AperFunction*
G04 #@! TO.P,J1,2*
G04 #@! TO.N,Board_15-/SPI1_SCK*
X227805014Y-162995014D03*
G04 #@! TO.P,J1,3*
G04 #@! TO.N,Board_15-/SPI1_MOSI*
X229805014Y-162995014D03*
G04 #@! TO.P,J1,4*
G04 #@! TO.N,Board_15-/SPI1_MISO*
X231805014Y-162995014D03*
G04 #@! TO.P,J1,5*
G04 #@! TO.N,Board_15-/DRV_EN*
X233805014Y-162995014D03*
G04 #@! TO.P,J1,6*
G04 #@! TO.N,Board_15-/Connectors/FAULT*
X235805014Y-162995014D03*
G04 #@! TD*
D14*
G04 #@! TO.P,C16,1*
G04 #@! TO.N,Board_15-/+VM*
X204215014Y-161225014D03*
G04 #@! TO.P,C16,2*
G04 #@! TO.N,Board_15-GND*
X209215014Y-161225014D03*
G04 #@! TD*
G04 #@! TO.P,C15,1*
G04 #@! TO.N,Board_15-/+VM*
X215645014Y-161225014D03*
G04 #@! TO.P,C15,2*
G04 #@! TO.N,Board_15-GND*
X220645014Y-161225014D03*
G04 #@! TD*
D15*
G04 #@! TO.P,H202,1*
G04 #@! TO.N,Board_15-GND*
X205485014Y-171885014D03*
G04 #@! TD*
G04 #@! TO.P,H201,1*
G04 #@! TO.N,Board_15-GND*
X205485014Y-190935014D03*
G04 #@! TD*
G04 #@! TO.P,J2,1*
G04 #@! TO.N,Board_15-/Connectors/VCC_IO*
G04 #@! TA.AperFunction,ComponentPad*
G36*
G01*
X255660013Y-158585014D02*
X256910015Y-158585014D01*
G75*
G02*
X257160014Y-158835013I0J-249999D01*
G01*
X257160014Y-159535015D01*
G75*
G02*
X256910015Y-159785014I-249999J0D01*
G01*
X255660013Y-159785014D01*
G75*
G02*
X255410014Y-159535015I0J249999D01*
G01*
X255410014Y-158835013D01*
G75*
G02*
X255660013Y-158585014I249999J0D01*
G01*
G37*
G04 #@! TD.AperFunction*
D16*
G04 #@! TO.P,J2,2*
G04 #@! TO.N,Board_15-GND*
X256285014Y-161185014D03*
G04 #@! TD*
G04 #@! TO.P,J5,1*
G04 #@! TO.N,Board_15-Net-(C17-Pad1)*
G04 #@! TA.AperFunction,ComponentPad*
G36*
G01*
X255660013Y-190335014D02*
X256910015Y-190335014D01*
G75*
G02*
X257160014Y-190585013I0J-249999D01*
G01*
X257160014Y-191285015D01*
G75*
G02*
X256910015Y-191535014I-249999J0D01*
G01*
X255660013Y-191535014D01*
G75*
G02*
X255410014Y-191285015I0J249999D01*
G01*
X255410014Y-190585013D01*
G75*
G02*
X255660013Y-190335014I249999J0D01*
G01*
G37*
G04 #@! TD.AperFunction*
G04 #@! TO.P,J5,2*
G04 #@! TO.N,Board_15-GND*
X256285014Y-192935014D03*
G04 #@! TD*
G04 #@! TO.P,J6,1*
G04 #@! TO.N,Board_15-/ADC_I_u*
G04 #@! TA.AperFunction,ComponentPad*
G36*
G01*
X255660013Y-166205014D02*
X256910015Y-166205014D01*
G75*
G02*
X257160014Y-166455013I0J-249999D01*
G01*
X257160014Y-167155015D01*
G75*
G02*
X256910015Y-167405014I-249999J0D01*
G01*
X255660013Y-167405014D01*
G75*
G02*
X255410014Y-167155015I0J249999D01*
G01*
X255410014Y-166455013D01*
G75*
G02*
X255660013Y-166205014I249999J0D01*
G01*
G37*
G04 #@! TD.AperFunction*
G04 #@! TO.P,J6,2*
G04 #@! TO.N,Board_15-/ADC_I_v*
X256285014Y-168805014D03*
G04 #@! TO.P,J6,3*
G04 #@! TO.N,Board_15-/ADC_I_w*
X256285014Y-170805014D03*
G04 #@! TD*
D11*
G04 #@! TO.P,U3,1*
G04 #@! TO.N,Board_14-/W*
X196335009Y-185855014D03*
D12*
G04 #@! TO.P,U3,2*
G04 #@! TO.N,Board_14-/V*
X196335009Y-180775014D03*
G04 #@! TO.P,U3,3*
G04 #@! TO.N,Board_14-/U*
X196335009Y-175695014D03*
G04 #@! TD*
D11*
G04 #@! TO.P,U2,1*
G04 #@! TO.N,Board_14-GND*
X187445009Y-160455014D03*
D12*
G04 #@! TO.P,U2,2*
G04 #@! TO.N,Board_14-/+VM*
X182365009Y-160455014D03*
G04 #@! TD*
G04 #@! TO.P,J3,1*
G04 #@! TO.N,Board_14-/WL*
G04 #@! TA.AperFunction,ComponentPad*
G36*
G01*
X165255009Y-158540015D02*
X165255009Y-157290013D01*
G75*
G02*
X165505008Y-157040014I249999J0D01*
G01*
X166205010Y-157040014D01*
G75*
G02*
X166455009Y-157290013I0J-249999D01*
G01*
X166455009Y-158540015D01*
G75*
G02*
X166205010Y-158790014I-249999J0D01*
G01*
X165505008Y-158790014D01*
G75*
G02*
X165255009Y-158540015I0J249999D01*
G01*
G37*
G04 #@! TD.AperFunction*
D13*
G04 #@! TO.P,J3,2*
G04 #@! TO.N,Board_14-/WH*
X167855009Y-157915014D03*
G04 #@! TO.P,J3,3*
G04 #@! TO.N,Board_14-/VL*
X169855009Y-157915014D03*
G04 #@! TO.P,J3,4*
G04 #@! TO.N,Board_14-/VH*
X171855009Y-157915014D03*
G04 #@! TO.P,J3,5*
G04 #@! TO.N,Board_14-/UL*
X173855009Y-157915014D03*
G04 #@! TO.P,J3,6*
G04 #@! TO.N,Board_14-/UH*
X175855009Y-157915014D03*
G04 #@! TD*
G04 #@! TO.P,J1,1*
G04 #@! TO.N,Board_14-/~CS_DRIVER*
G04 #@! TA.AperFunction,ComponentPad*
G36*
G01*
X165255009Y-163620015D02*
X165255009Y-162370013D01*
G75*
G02*
X165505008Y-162120014I249999J0D01*
G01*
X166205010Y-162120014D01*
G75*
G02*
X166455009Y-162370013I0J-249999D01*
G01*
X166455009Y-163620015D01*
G75*
G02*
X166205010Y-163870014I-249999J0D01*
G01*
X165505008Y-163870014D01*
G75*
G02*
X165255009Y-163620015I0J249999D01*
G01*
G37*
G04 #@! TD.AperFunction*
G04 #@! TO.P,J1,2*
G04 #@! TO.N,Board_14-/SPI1_SCK*
X167855009Y-162995014D03*
G04 #@! TO.P,J1,3*
G04 #@! TO.N,Board_14-/SPI1_MOSI*
X169855009Y-162995014D03*
G04 #@! TO.P,J1,4*
G04 #@! TO.N,Board_14-/SPI1_MISO*
X171855009Y-162995014D03*
G04 #@! TO.P,J1,5*
G04 #@! TO.N,Board_14-/DRV_EN*
X173855009Y-162995014D03*
G04 #@! TO.P,J1,6*
G04 #@! TO.N,Board_14-/Connectors/FAULT*
X175855009Y-162995014D03*
G04 #@! TD*
D14*
G04 #@! TO.P,C16,1*
G04 #@! TO.N,Board_14-/+VM*
X144265009Y-161225014D03*
G04 #@! TO.P,C16,2*
G04 #@! TO.N,Board_14-GND*
X149265009Y-161225014D03*
G04 #@! TD*
G04 #@! TO.P,C15,1*
G04 #@! TO.N,Board_14-/+VM*
X155695009Y-161225014D03*
G04 #@! TO.P,C15,2*
G04 #@! TO.N,Board_14-GND*
X160695009Y-161225014D03*
G04 #@! TD*
D15*
G04 #@! TO.P,H202,1*
G04 #@! TO.N,Board_14-GND*
X145535009Y-171885014D03*
G04 #@! TD*
G04 #@! TO.P,H201,1*
G04 #@! TO.N,Board_14-GND*
X145535009Y-190935014D03*
G04 #@! TD*
G04 #@! TO.P,J2,1*
G04 #@! TO.N,Board_14-/Connectors/VCC_IO*
G04 #@! TA.AperFunction,ComponentPad*
G36*
G01*
X195710008Y-158585014D02*
X196960010Y-158585014D01*
G75*
G02*
X197210009Y-158835013I0J-249999D01*
G01*
X197210009Y-159535015D01*
G75*
G02*
X196960010Y-159785014I-249999J0D01*
G01*
X195710008Y-159785014D01*
G75*
G02*
X195460009Y-159535015I0J249999D01*
G01*
X195460009Y-158835013D01*
G75*
G02*
X195710008Y-158585014I249999J0D01*
G01*
G37*
G04 #@! TD.AperFunction*
D16*
G04 #@! TO.P,J2,2*
G04 #@! TO.N,Board_14-GND*
X196335009Y-161185014D03*
G04 #@! TD*
G04 #@! TO.P,J5,1*
G04 #@! TO.N,Board_14-Net-(C17-Pad1)*
G04 #@! TA.AperFunction,ComponentPad*
G36*
G01*
X195710008Y-190335014D02*
X196960010Y-190335014D01*
G75*
G02*
X197210009Y-190585013I0J-249999D01*
G01*
X197210009Y-191285015D01*
G75*
G02*
X196960010Y-191535014I-249999J0D01*
G01*
X195710008Y-191535014D01*
G75*
G02*
X195460009Y-191285015I0J249999D01*
G01*
X195460009Y-190585013D01*
G75*
G02*
X195710008Y-190335014I249999J0D01*
G01*
G37*
G04 #@! TD.AperFunction*
G04 #@! TO.P,J5,2*
G04 #@! TO.N,Board_14-GND*
X196335009Y-192935014D03*
G04 #@! TD*
G04 #@! TO.P,J6,1*
G04 #@! TO.N,Board_14-/ADC_I_u*
G04 #@! TA.AperFunction,ComponentPad*
G36*
G01*
X195710008Y-166205014D02*
X196960010Y-166205014D01*
G75*
G02*
X197210009Y-166455013I0J-249999D01*
G01*
X197210009Y-167155015D01*
G75*
G02*
X196960010Y-167405014I-249999J0D01*
G01*
X195710008Y-167405014D01*
G75*
G02*
X195460009Y-167155015I0J249999D01*
G01*
X195460009Y-166455013D01*
G75*
G02*
X195710008Y-166205014I249999J0D01*
G01*
G37*
G04 #@! TD.AperFunction*
G04 #@! TO.P,J6,2*
G04 #@! TO.N,Board_14-/ADC_I_v*
X196335009Y-168805014D03*
G04 #@! TO.P,J6,3*
G04 #@! TO.N,Board_14-/ADC_I_w*
X196335009Y-170805014D03*
G04 #@! TD*
D11*
G04 #@! TO.P,U3,1*
G04 #@! TO.N,Board_13-/W*
X136385004Y-185855014D03*
D12*
G04 #@! TO.P,U3,2*
G04 #@! TO.N,Board_13-/V*
X136385004Y-180775014D03*
G04 #@! TO.P,U3,3*
G04 #@! TO.N,Board_13-/U*
X136385004Y-175695014D03*
G04 #@! TD*
D11*
G04 #@! TO.P,U2,1*
G04 #@! TO.N,Board_13-GND*
X127495004Y-160455014D03*
D12*
G04 #@! TO.P,U2,2*
G04 #@! TO.N,Board_13-/+VM*
X122415004Y-160455014D03*
G04 #@! TD*
G04 #@! TO.P,J3,1*
G04 #@! TO.N,Board_13-/WL*
G04 #@! TA.AperFunction,ComponentPad*
G36*
G01*
X105305004Y-158540015D02*
X105305004Y-157290013D01*
G75*
G02*
X105555003Y-157040014I249999J0D01*
G01*
X106255005Y-157040014D01*
G75*
G02*
X106505004Y-157290013I0J-249999D01*
G01*
X106505004Y-158540015D01*
G75*
G02*
X106255005Y-158790014I-249999J0D01*
G01*
X105555003Y-158790014D01*
G75*
G02*
X105305004Y-158540015I0J249999D01*
G01*
G37*
G04 #@! TD.AperFunction*
D13*
G04 #@! TO.P,J3,2*
G04 #@! TO.N,Board_13-/WH*
X107905004Y-157915014D03*
G04 #@! TO.P,J3,3*
G04 #@! TO.N,Board_13-/VL*
X109905004Y-157915014D03*
G04 #@! TO.P,J3,4*
G04 #@! TO.N,Board_13-/VH*
X111905004Y-157915014D03*
G04 #@! TO.P,J3,5*
G04 #@! TO.N,Board_13-/UL*
X113905004Y-157915014D03*
G04 #@! TO.P,J3,6*
G04 #@! TO.N,Board_13-/UH*
X115905004Y-157915014D03*
G04 #@! TD*
G04 #@! TO.P,J1,1*
G04 #@! TO.N,Board_13-/~CS_DRIVER*
G04 #@! TA.AperFunction,ComponentPad*
G36*
G01*
X105305004Y-163620015D02*
X105305004Y-162370013D01*
G75*
G02*
X105555003Y-162120014I249999J0D01*
G01*
X106255005Y-162120014D01*
G75*
G02*
X106505004Y-162370013I0J-249999D01*
G01*
X106505004Y-163620015D01*
G75*
G02*
X106255005Y-163870014I-249999J0D01*
G01*
X105555003Y-163870014D01*
G75*
G02*
X105305004Y-163620015I0J249999D01*
G01*
G37*
G04 #@! TD.AperFunction*
G04 #@! TO.P,J1,2*
G04 #@! TO.N,Board_13-/SPI1_SCK*
X107905004Y-162995014D03*
G04 #@! TO.P,J1,3*
G04 #@! TO.N,Board_13-/SPI1_MOSI*
X109905004Y-162995014D03*
G04 #@! TO.P,J1,4*
G04 #@! TO.N,Board_13-/SPI1_MISO*
X111905004Y-162995014D03*
G04 #@! TO.P,J1,5*
G04 #@! TO.N,Board_13-/DRV_EN*
X113905004Y-162995014D03*
G04 #@! TO.P,J1,6*
G04 #@! TO.N,Board_13-/Connectors/FAULT*
X115905004Y-162995014D03*
G04 #@! TD*
D14*
G04 #@! TO.P,C16,1*
G04 #@! TO.N,Board_13-/+VM*
X84315004Y-161225014D03*
G04 #@! TO.P,C16,2*
G04 #@! TO.N,Board_13-GND*
X89315004Y-161225014D03*
G04 #@! TD*
G04 #@! TO.P,C15,1*
G04 #@! TO.N,Board_13-/+VM*
X95745004Y-161225014D03*
G04 #@! TO.P,C15,2*
G04 #@! TO.N,Board_13-GND*
X100745004Y-161225014D03*
G04 #@! TD*
D15*
G04 #@! TO.P,H202,1*
G04 #@! TO.N,Board_13-GND*
X85585004Y-171885014D03*
G04 #@! TD*
G04 #@! TO.P,H201,1*
G04 #@! TO.N,Board_13-GND*
X85585004Y-190935014D03*
G04 #@! TD*
G04 #@! TO.P,J2,1*
G04 #@! TO.N,Board_13-/Connectors/VCC_IO*
G04 #@! TA.AperFunction,ComponentPad*
G36*
G01*
X135760003Y-158585014D02*
X137010005Y-158585014D01*
G75*
G02*
X137260004Y-158835013I0J-249999D01*
G01*
X137260004Y-159535015D01*
G75*
G02*
X137010005Y-159785014I-249999J0D01*
G01*
X135760003Y-159785014D01*
G75*
G02*
X135510004Y-159535015I0J249999D01*
G01*
X135510004Y-158835013D01*
G75*
G02*
X135760003Y-158585014I249999J0D01*
G01*
G37*
G04 #@! TD.AperFunction*
D16*
G04 #@! TO.P,J2,2*
G04 #@! TO.N,Board_13-GND*
X136385004Y-161185014D03*
G04 #@! TD*
G04 #@! TO.P,J5,1*
G04 #@! TO.N,Board_13-Net-(C17-Pad1)*
G04 #@! TA.AperFunction,ComponentPad*
G36*
G01*
X135760003Y-190335014D02*
X137010005Y-190335014D01*
G75*
G02*
X137260004Y-190585013I0J-249999D01*
G01*
X137260004Y-191285015D01*
G75*
G02*
X137010005Y-191535014I-249999J0D01*
G01*
X135760003Y-191535014D01*
G75*
G02*
X135510004Y-191285015I0J249999D01*
G01*
X135510004Y-190585013D01*
G75*
G02*
X135760003Y-190335014I249999J0D01*
G01*
G37*
G04 #@! TD.AperFunction*
G04 #@! TO.P,J5,2*
G04 #@! TO.N,Board_13-GND*
X136385004Y-192935014D03*
G04 #@! TD*
G04 #@! TO.P,J6,1*
G04 #@! TO.N,Board_13-/ADC_I_u*
G04 #@! TA.AperFunction,ComponentPad*
G36*
G01*
X135760003Y-166205014D02*
X137010005Y-166205014D01*
G75*
G02*
X137260004Y-166455013I0J-249999D01*
G01*
X137260004Y-167155015D01*
G75*
G02*
X137010005Y-167405014I-249999J0D01*
G01*
X135760003Y-167405014D01*
G75*
G02*
X135510004Y-167155015I0J249999D01*
G01*
X135510004Y-166455013D01*
G75*
G02*
X135760003Y-166205014I249999J0D01*
G01*
G37*
G04 #@! TD.AperFunction*
G04 #@! TO.P,J6,2*
G04 #@! TO.N,Board_13-/ADC_I_v*
X136385004Y-168805014D03*
G04 #@! TO.P,J6,3*
G04 #@! TO.N,Board_13-/ADC_I_w*
X136385004Y-170805014D03*
G04 #@! TD*
D11*
G04 #@! TO.P,U3,1*
G04 #@! TO.N,Board_12-/W*
X76434999Y-185855014D03*
D12*
G04 #@! TO.P,U3,2*
G04 #@! TO.N,Board_12-/V*
X76434999Y-180775014D03*
G04 #@! TO.P,U3,3*
G04 #@! TO.N,Board_12-/U*
X76434999Y-175695014D03*
G04 #@! TD*
D11*
G04 #@! TO.P,U2,1*
G04 #@! TO.N,Board_12-GND*
X67544999Y-160455014D03*
D12*
G04 #@! TO.P,U2,2*
G04 #@! TO.N,Board_12-/+VM*
X62464999Y-160455014D03*
G04 #@! TD*
G04 #@! TO.P,J3,1*
G04 #@! TO.N,Board_12-/WL*
G04 #@! TA.AperFunction,ComponentPad*
G36*
G01*
X45354999Y-158540015D02*
X45354999Y-157290013D01*
G75*
G02*
X45604998Y-157040014I249999J0D01*
G01*
X46305000Y-157040014D01*
G75*
G02*
X46554999Y-157290013I0J-249999D01*
G01*
X46554999Y-158540015D01*
G75*
G02*
X46305000Y-158790014I-249999J0D01*
G01*
X45604998Y-158790014D01*
G75*
G02*
X45354999Y-158540015I0J249999D01*
G01*
G37*
G04 #@! TD.AperFunction*
D13*
G04 #@! TO.P,J3,2*
G04 #@! TO.N,Board_12-/WH*
X47954999Y-157915014D03*
G04 #@! TO.P,J3,3*
G04 #@! TO.N,Board_12-/VL*
X49954999Y-157915014D03*
G04 #@! TO.P,J3,4*
G04 #@! TO.N,Board_12-/VH*
X51954999Y-157915014D03*
G04 #@! TO.P,J3,5*
G04 #@! TO.N,Board_12-/UL*
X53954999Y-157915014D03*
G04 #@! TO.P,J3,6*
G04 #@! TO.N,Board_12-/UH*
X55954999Y-157915014D03*
G04 #@! TD*
G04 #@! TO.P,J1,1*
G04 #@! TO.N,Board_12-/~CS_DRIVER*
G04 #@! TA.AperFunction,ComponentPad*
G36*
G01*
X45354999Y-163620015D02*
X45354999Y-162370013D01*
G75*
G02*
X45604998Y-162120014I249999J0D01*
G01*
X46305000Y-162120014D01*
G75*
G02*
X46554999Y-162370013I0J-249999D01*
G01*
X46554999Y-163620015D01*
G75*
G02*
X46305000Y-163870014I-249999J0D01*
G01*
X45604998Y-163870014D01*
G75*
G02*
X45354999Y-163620015I0J249999D01*
G01*
G37*
G04 #@! TD.AperFunction*
G04 #@! TO.P,J1,2*
G04 #@! TO.N,Board_12-/SPI1_SCK*
X47954999Y-162995014D03*
G04 #@! TO.P,J1,3*
G04 #@! TO.N,Board_12-/SPI1_MOSI*
X49954999Y-162995014D03*
G04 #@! TO.P,J1,4*
G04 #@! TO.N,Board_12-/SPI1_MISO*
X51954999Y-162995014D03*
G04 #@! TO.P,J1,5*
G04 #@! TO.N,Board_12-/DRV_EN*
X53954999Y-162995014D03*
G04 #@! TO.P,J1,6*
G04 #@! TO.N,Board_12-/Connectors/FAULT*
X55954999Y-162995014D03*
G04 #@! TD*
D14*
G04 #@! TO.P,C16,1*
G04 #@! TO.N,Board_12-/+VM*
X24364999Y-161225014D03*
G04 #@! TO.P,C16,2*
G04 #@! TO.N,Board_12-GND*
X29364999Y-161225014D03*
G04 #@! TD*
G04 #@! TO.P,C15,1*
G04 #@! TO.N,Board_12-/+VM*
X35794999Y-161225014D03*
G04 #@! TO.P,C15,2*
G04 #@! TO.N,Board_12-GND*
X40794999Y-161225014D03*
G04 #@! TD*
D15*
G04 #@! TO.P,H202,1*
G04 #@! TO.N,Board_12-GND*
X25634999Y-171885014D03*
G04 #@! TD*
G04 #@! TO.P,H201,1*
G04 #@! TO.N,Board_12-GND*
X25634999Y-190935014D03*
G04 #@! TD*
G04 #@! TO.P,J2,1*
G04 #@! TO.N,Board_12-/Connectors/VCC_IO*
G04 #@! TA.AperFunction,ComponentPad*
G36*
G01*
X75809998Y-158585014D02*
X77060000Y-158585014D01*
G75*
G02*
X77309999Y-158835013I0J-249999D01*
G01*
X77309999Y-159535015D01*
G75*
G02*
X77060000Y-159785014I-249999J0D01*
G01*
X75809998Y-159785014D01*
G75*
G02*
X75559999Y-159535015I0J249999D01*
G01*
X75559999Y-158835013D01*
G75*
G02*
X75809998Y-158585014I249999J0D01*
G01*
G37*
G04 #@! TD.AperFunction*
D16*
G04 #@! TO.P,J2,2*
G04 #@! TO.N,Board_12-GND*
X76434999Y-161185014D03*
G04 #@! TD*
G04 #@! TO.P,J5,1*
G04 #@! TO.N,Board_12-Net-(C17-Pad1)*
G04 #@! TA.AperFunction,ComponentPad*
G36*
G01*
X75809998Y-190335014D02*
X77060000Y-190335014D01*
G75*
G02*
X77309999Y-190585013I0J-249999D01*
G01*
X77309999Y-191285015D01*
G75*
G02*
X77060000Y-191535014I-249999J0D01*
G01*
X75809998Y-191535014D01*
G75*
G02*
X75559999Y-191285015I0J249999D01*
G01*
X75559999Y-190585013D01*
G75*
G02*
X75809998Y-190335014I249999J0D01*
G01*
G37*
G04 #@! TD.AperFunction*
G04 #@! TO.P,J5,2*
G04 #@! TO.N,Board_12-GND*
X76434999Y-192935014D03*
G04 #@! TD*
G04 #@! TO.P,J6,1*
G04 #@! TO.N,Board_12-/ADC_I_u*
G04 #@! TA.AperFunction,ComponentPad*
G36*
G01*
X75809998Y-166205014D02*
X77060000Y-166205014D01*
G75*
G02*
X77309999Y-166455013I0J-249999D01*
G01*
X77309999Y-167155015D01*
G75*
G02*
X77060000Y-167405014I-249999J0D01*
G01*
X75809998Y-167405014D01*
G75*
G02*
X75559999Y-167155015I0J249999D01*
G01*
X75559999Y-166455013D01*
G75*
G02*
X75809998Y-166205014I249999J0D01*
G01*
G37*
G04 #@! TD.AperFunction*
G04 #@! TO.P,J6,2*
G04 #@! TO.N,Board_12-/ADC_I_v*
X76434999Y-168805014D03*
G04 #@! TO.P,J6,3*
G04 #@! TO.N,Board_12-/ADC_I_w*
X76434999Y-170805014D03*
G04 #@! TD*
D11*
G04 #@! TO.P,U3,1*
G04 #@! TO.N,Board_11-/W*
X256285014Y-143865009D03*
D12*
G04 #@! TO.P,U3,2*
G04 #@! TO.N,Board_11-/V*
X256285014Y-138785009D03*
G04 #@! TO.P,U3,3*
G04 #@! TO.N,Board_11-/U*
X256285014Y-133705009D03*
G04 #@! TD*
D11*
G04 #@! TO.P,U2,1*
G04 #@! TO.N,Board_11-GND*
X247395014Y-118465009D03*
D12*
G04 #@! TO.P,U2,2*
G04 #@! TO.N,Board_11-/+VM*
X242315014Y-118465009D03*
G04 #@! TD*
G04 #@! TO.P,J3,1*
G04 #@! TO.N,Board_11-/WL*
G04 #@! TA.AperFunction,ComponentPad*
G36*
G01*
X225205014Y-116550010D02*
X225205014Y-115300008D01*
G75*
G02*
X225455013Y-115050009I249999J0D01*
G01*
X226155015Y-115050009D01*
G75*
G02*
X226405014Y-115300008I0J-249999D01*
G01*
X226405014Y-116550010D01*
G75*
G02*
X226155015Y-116800009I-249999J0D01*
G01*
X225455013Y-116800009D01*
G75*
G02*
X225205014Y-116550010I0J249999D01*
G01*
G37*
G04 #@! TD.AperFunction*
D13*
G04 #@! TO.P,J3,2*
G04 #@! TO.N,Board_11-/WH*
X227805014Y-115925009D03*
G04 #@! TO.P,J3,3*
G04 #@! TO.N,Board_11-/VL*
X229805014Y-115925009D03*
G04 #@! TO.P,J3,4*
G04 #@! TO.N,Board_11-/VH*
X231805014Y-115925009D03*
G04 #@! TO.P,J3,5*
G04 #@! TO.N,Board_11-/UL*
X233805014Y-115925009D03*
G04 #@! TO.P,J3,6*
G04 #@! TO.N,Board_11-/UH*
X235805014Y-115925009D03*
G04 #@! TD*
G04 #@! TO.P,J1,1*
G04 #@! TO.N,Board_11-/~CS_DRIVER*
G04 #@! TA.AperFunction,ComponentPad*
G36*
G01*
X225205014Y-121630010D02*
X225205014Y-120380008D01*
G75*
G02*
X225455013Y-120130009I249999J0D01*
G01*
X226155015Y-120130009D01*
G75*
G02*
X226405014Y-120380008I0J-249999D01*
G01*
X226405014Y-121630010D01*
G75*
G02*
X226155015Y-121880009I-249999J0D01*
G01*
X225455013Y-121880009D01*
G75*
G02*
X225205014Y-121630010I0J249999D01*
G01*
G37*
G04 #@! TD.AperFunction*
G04 #@! TO.P,J1,2*
G04 #@! TO.N,Board_11-/SPI1_SCK*
X227805014Y-121005009D03*
G04 #@! TO.P,J1,3*
G04 #@! TO.N,Board_11-/SPI1_MOSI*
X229805014Y-121005009D03*
G04 #@! TO.P,J1,4*
G04 #@! TO.N,Board_11-/SPI1_MISO*
X231805014Y-121005009D03*
G04 #@! TO.P,J1,5*
G04 #@! TO.N,Board_11-/DRV_EN*
X233805014Y-121005009D03*
G04 #@! TO.P,J1,6*
G04 #@! TO.N,Board_11-/Connectors/FAULT*
X235805014Y-121005009D03*
G04 #@! TD*
D14*
G04 #@! TO.P,C16,1*
G04 #@! TO.N,Board_11-/+VM*
X204215014Y-119235009D03*
G04 #@! TO.P,C16,2*
G04 #@! TO.N,Board_11-GND*
X209215014Y-119235009D03*
G04 #@! TD*
G04 #@! TO.P,C15,1*
G04 #@! TO.N,Board_11-/+VM*
X215645014Y-119235009D03*
G04 #@! TO.P,C15,2*
G04 #@! TO.N,Board_11-GND*
X220645014Y-119235009D03*
G04 #@! TD*
D15*
G04 #@! TO.P,H202,1*
G04 #@! TO.N,Board_11-GND*
X205485014Y-129895009D03*
G04 #@! TD*
G04 #@! TO.P,H201,1*
G04 #@! TO.N,Board_11-GND*
X205485014Y-148945009D03*
G04 #@! TD*
G04 #@! TO.P,J2,1*
G04 #@! TO.N,Board_11-/Connectors/VCC_IO*
G04 #@! TA.AperFunction,ComponentPad*
G36*
G01*
X255660013Y-116595009D02*
X256910015Y-116595009D01*
G75*
G02*
X257160014Y-116845008I0J-249999D01*
G01*
X257160014Y-117545010D01*
G75*
G02*
X256910015Y-117795009I-249999J0D01*
G01*
X255660013Y-117795009D01*
G75*
G02*
X255410014Y-117545010I0J249999D01*
G01*
X255410014Y-116845008D01*
G75*
G02*
X255660013Y-116595009I249999J0D01*
G01*
G37*
G04 #@! TD.AperFunction*
D16*
G04 #@! TO.P,J2,2*
G04 #@! TO.N,Board_11-GND*
X256285014Y-119195009D03*
G04 #@! TD*
G04 #@! TO.P,J5,1*
G04 #@! TO.N,Board_11-Net-(C17-Pad1)*
G04 #@! TA.AperFunction,ComponentPad*
G36*
G01*
X255660013Y-148345009D02*
X256910015Y-148345009D01*
G75*
G02*
X257160014Y-148595008I0J-249999D01*
G01*
X257160014Y-149295010D01*
G75*
G02*
X256910015Y-149545009I-249999J0D01*
G01*
X255660013Y-149545009D01*
G75*
G02*
X255410014Y-149295010I0J249999D01*
G01*
X255410014Y-148595008D01*
G75*
G02*
X255660013Y-148345009I249999J0D01*
G01*
G37*
G04 #@! TD.AperFunction*
G04 #@! TO.P,J5,2*
G04 #@! TO.N,Board_11-GND*
X256285014Y-150945009D03*
G04 #@! TD*
G04 #@! TO.P,J6,1*
G04 #@! TO.N,Board_11-/ADC_I_u*
G04 #@! TA.AperFunction,ComponentPad*
G36*
G01*
X255660013Y-124215009D02*
X256910015Y-124215009D01*
G75*
G02*
X257160014Y-124465008I0J-249999D01*
G01*
X257160014Y-125165010D01*
G75*
G02*
X256910015Y-125415009I-249999J0D01*
G01*
X255660013Y-125415009D01*
G75*
G02*
X255410014Y-125165010I0J249999D01*
G01*
X255410014Y-124465008D01*
G75*
G02*
X255660013Y-124215009I249999J0D01*
G01*
G37*
G04 #@! TD.AperFunction*
G04 #@! TO.P,J6,2*
G04 #@! TO.N,Board_11-/ADC_I_v*
X256285014Y-126815009D03*
G04 #@! TO.P,J6,3*
G04 #@! TO.N,Board_11-/ADC_I_w*
X256285014Y-128815009D03*
G04 #@! TD*
D11*
G04 #@! TO.P,U3,1*
G04 #@! TO.N,Board_10-/W*
X196335009Y-143865009D03*
D12*
G04 #@! TO.P,U3,2*
G04 #@! TO.N,Board_10-/V*
X196335009Y-138785009D03*
G04 #@! TO.P,U3,3*
G04 #@! TO.N,Board_10-/U*
X196335009Y-133705009D03*
G04 #@! TD*
D11*
G04 #@! TO.P,U2,1*
G04 #@! TO.N,Board_10-GND*
X187445009Y-118465009D03*
D12*
G04 #@! TO.P,U2,2*
G04 #@! TO.N,Board_10-/+VM*
X182365009Y-118465009D03*
G04 #@! TD*
G04 #@! TO.P,J3,1*
G04 #@! TO.N,Board_10-/WL*
G04 #@! TA.AperFunction,ComponentPad*
G36*
G01*
X165255009Y-116550010D02*
X165255009Y-115300008D01*
G75*
G02*
X165505008Y-115050009I249999J0D01*
G01*
X166205010Y-115050009D01*
G75*
G02*
X166455009Y-115300008I0J-249999D01*
G01*
X166455009Y-116550010D01*
G75*
G02*
X166205010Y-116800009I-249999J0D01*
G01*
X165505008Y-116800009D01*
G75*
G02*
X165255009Y-116550010I0J249999D01*
G01*
G37*
G04 #@! TD.AperFunction*
D13*
G04 #@! TO.P,J3,2*
G04 #@! TO.N,Board_10-/WH*
X167855009Y-115925009D03*
G04 #@! TO.P,J3,3*
G04 #@! TO.N,Board_10-/VL*
X169855009Y-115925009D03*
G04 #@! TO.P,J3,4*
G04 #@! TO.N,Board_10-/VH*
X171855009Y-115925009D03*
G04 #@! TO.P,J3,5*
G04 #@! TO.N,Board_10-/UL*
X173855009Y-115925009D03*
G04 #@! TO.P,J3,6*
G04 #@! TO.N,Board_10-/UH*
X175855009Y-115925009D03*
G04 #@! TD*
G04 #@! TO.P,J1,1*
G04 #@! TO.N,Board_10-/~CS_DRIVER*
G04 #@! TA.AperFunction,ComponentPad*
G36*
G01*
X165255009Y-121630010D02*
X165255009Y-120380008D01*
G75*
G02*
X165505008Y-120130009I249999J0D01*
G01*
X166205010Y-120130009D01*
G75*
G02*
X166455009Y-120380008I0J-249999D01*
G01*
X166455009Y-121630010D01*
G75*
G02*
X166205010Y-121880009I-249999J0D01*
G01*
X165505008Y-121880009D01*
G75*
G02*
X165255009Y-121630010I0J249999D01*
G01*
G37*
G04 #@! TD.AperFunction*
G04 #@! TO.P,J1,2*
G04 #@! TO.N,Board_10-/SPI1_SCK*
X167855009Y-121005009D03*
G04 #@! TO.P,J1,3*
G04 #@! TO.N,Board_10-/SPI1_MOSI*
X169855009Y-121005009D03*
G04 #@! TO.P,J1,4*
G04 #@! TO.N,Board_10-/SPI1_MISO*
X171855009Y-121005009D03*
G04 #@! TO.P,J1,5*
G04 #@! TO.N,Board_10-/DRV_EN*
X173855009Y-121005009D03*
G04 #@! TO.P,J1,6*
G04 #@! TO.N,Board_10-/Connectors/FAULT*
X175855009Y-121005009D03*
G04 #@! TD*
D14*
G04 #@! TO.P,C16,1*
G04 #@! TO.N,Board_10-/+VM*
X144265009Y-119235009D03*
G04 #@! TO.P,C16,2*
G04 #@! TO.N,Board_10-GND*
X149265009Y-119235009D03*
G04 #@! TD*
G04 #@! TO.P,C15,1*
G04 #@! TO.N,Board_10-/+VM*
X155695009Y-119235009D03*
G04 #@! TO.P,C15,2*
G04 #@! TO.N,Board_10-GND*
X160695009Y-119235009D03*
G04 #@! TD*
D15*
G04 #@! TO.P,H202,1*
G04 #@! TO.N,Board_10-GND*
X145535009Y-129895009D03*
G04 #@! TD*
G04 #@! TO.P,H201,1*
G04 #@! TO.N,Board_10-GND*
X145535009Y-148945009D03*
G04 #@! TD*
G04 #@! TO.P,J2,1*
G04 #@! TO.N,Board_10-/Connectors/VCC_IO*
G04 #@! TA.AperFunction,ComponentPad*
G36*
G01*
X195710008Y-116595009D02*
X196960010Y-116595009D01*
G75*
G02*
X197210009Y-116845008I0J-249999D01*
G01*
X197210009Y-117545010D01*
G75*
G02*
X196960010Y-117795009I-249999J0D01*
G01*
X195710008Y-117795009D01*
G75*
G02*
X195460009Y-117545010I0J249999D01*
G01*
X195460009Y-116845008D01*
G75*
G02*
X195710008Y-116595009I249999J0D01*
G01*
G37*
G04 #@! TD.AperFunction*
D16*
G04 #@! TO.P,J2,2*
G04 #@! TO.N,Board_10-GND*
X196335009Y-119195009D03*
G04 #@! TD*
G04 #@! TO.P,J5,1*
G04 #@! TO.N,Board_10-Net-(C17-Pad1)*
G04 #@! TA.AperFunction,ComponentPad*
G36*
G01*
X195710008Y-148345009D02*
X196960010Y-148345009D01*
G75*
G02*
X197210009Y-148595008I0J-249999D01*
G01*
X197210009Y-149295010D01*
G75*
G02*
X196960010Y-149545009I-249999J0D01*
G01*
X195710008Y-149545009D01*
G75*
G02*
X195460009Y-149295010I0J249999D01*
G01*
X195460009Y-148595008D01*
G75*
G02*
X195710008Y-148345009I249999J0D01*
G01*
G37*
G04 #@! TD.AperFunction*
G04 #@! TO.P,J5,2*
G04 #@! TO.N,Board_10-GND*
X196335009Y-150945009D03*
G04 #@! TD*
G04 #@! TO.P,J6,1*
G04 #@! TO.N,Board_10-/ADC_I_u*
G04 #@! TA.AperFunction,ComponentPad*
G36*
G01*
X195710008Y-124215009D02*
X196960010Y-124215009D01*
G75*
G02*
X197210009Y-124465008I0J-249999D01*
G01*
X197210009Y-125165010D01*
G75*
G02*
X196960010Y-125415009I-249999J0D01*
G01*
X195710008Y-125415009D01*
G75*
G02*
X195460009Y-125165010I0J249999D01*
G01*
X195460009Y-124465008D01*
G75*
G02*
X195710008Y-124215009I249999J0D01*
G01*
G37*
G04 #@! TD.AperFunction*
G04 #@! TO.P,J6,2*
G04 #@! TO.N,Board_10-/ADC_I_v*
X196335009Y-126815009D03*
G04 #@! TO.P,J6,3*
G04 #@! TO.N,Board_10-/ADC_I_w*
X196335009Y-128815009D03*
G04 #@! TD*
D11*
G04 #@! TO.P,U3,1*
G04 #@! TO.N,Board_9-/W*
X136385004Y-143865009D03*
D12*
G04 #@! TO.P,U3,2*
G04 #@! TO.N,Board_9-/V*
X136385004Y-138785009D03*
G04 #@! TO.P,U3,3*
G04 #@! TO.N,Board_9-/U*
X136385004Y-133705009D03*
G04 #@! TD*
D11*
G04 #@! TO.P,U2,1*
G04 #@! TO.N,Board_9-GND*
X127495004Y-118465009D03*
D12*
G04 #@! TO.P,U2,2*
G04 #@! TO.N,Board_9-/+VM*
X122415004Y-118465009D03*
G04 #@! TD*
G04 #@! TO.P,J3,1*
G04 #@! TO.N,Board_9-/WL*
G04 #@! TA.AperFunction,ComponentPad*
G36*
G01*
X105305004Y-116550010D02*
X105305004Y-115300008D01*
G75*
G02*
X105555003Y-115050009I249999J0D01*
G01*
X106255005Y-115050009D01*
G75*
G02*
X106505004Y-115300008I0J-249999D01*
G01*
X106505004Y-116550010D01*
G75*
G02*
X106255005Y-116800009I-249999J0D01*
G01*
X105555003Y-116800009D01*
G75*
G02*
X105305004Y-116550010I0J249999D01*
G01*
G37*
G04 #@! TD.AperFunction*
D13*
G04 #@! TO.P,J3,2*
G04 #@! TO.N,Board_9-/WH*
X107905004Y-115925009D03*
G04 #@! TO.P,J3,3*
G04 #@! TO.N,Board_9-/VL*
X109905004Y-115925009D03*
G04 #@! TO.P,J3,4*
G04 #@! TO.N,Board_9-/VH*
X111905004Y-115925009D03*
G04 #@! TO.P,J3,5*
G04 #@! TO.N,Board_9-/UL*
X113905004Y-115925009D03*
G04 #@! TO.P,J3,6*
G04 #@! TO.N,Board_9-/UH*
X115905004Y-115925009D03*
G04 #@! TD*
G04 #@! TO.P,J1,1*
G04 #@! TO.N,Board_9-/~CS_DRIVER*
G04 #@! TA.AperFunction,ComponentPad*
G36*
G01*
X105305004Y-121630010D02*
X105305004Y-120380008D01*
G75*
G02*
X105555003Y-120130009I249999J0D01*
G01*
X106255005Y-120130009D01*
G75*
G02*
X106505004Y-120380008I0J-249999D01*
G01*
X106505004Y-121630010D01*
G75*
G02*
X106255005Y-121880009I-249999J0D01*
G01*
X105555003Y-121880009D01*
G75*
G02*
X105305004Y-121630010I0J249999D01*
G01*
G37*
G04 #@! TD.AperFunction*
G04 #@! TO.P,J1,2*
G04 #@! TO.N,Board_9-/SPI1_SCK*
X107905004Y-121005009D03*
G04 #@! TO.P,J1,3*
G04 #@! TO.N,Board_9-/SPI1_MOSI*
X109905004Y-121005009D03*
G04 #@! TO.P,J1,4*
G04 #@! TO.N,Board_9-/SPI1_MISO*
X111905004Y-121005009D03*
G04 #@! TO.P,J1,5*
G04 #@! TO.N,Board_9-/DRV_EN*
X113905004Y-121005009D03*
G04 #@! TO.P,J1,6*
G04 #@! TO.N,Board_9-/Connectors/FAULT*
X115905004Y-121005009D03*
G04 #@! TD*
D14*
G04 #@! TO.P,C16,1*
G04 #@! TO.N,Board_9-/+VM*
X84315004Y-119235009D03*
G04 #@! TO.P,C16,2*
G04 #@! TO.N,Board_9-GND*
X89315004Y-119235009D03*
G04 #@! TD*
G04 #@! TO.P,C15,1*
G04 #@! TO.N,Board_9-/+VM*
X95745004Y-119235009D03*
G04 #@! TO.P,C15,2*
G04 #@! TO.N,Board_9-GND*
X100745004Y-119235009D03*
G04 #@! TD*
D15*
G04 #@! TO.P,H202,1*
G04 #@! TO.N,Board_9-GND*
X85585004Y-129895009D03*
G04 #@! TD*
G04 #@! TO.P,H201,1*
G04 #@! TO.N,Board_9-GND*
X85585004Y-148945009D03*
G04 #@! TD*
G04 #@! TO.P,J2,1*
G04 #@! TO.N,Board_9-/Connectors/VCC_IO*
G04 #@! TA.AperFunction,ComponentPad*
G36*
G01*
X135760003Y-116595009D02*
X137010005Y-116595009D01*
G75*
G02*
X137260004Y-116845008I0J-249999D01*
G01*
X137260004Y-117545010D01*
G75*
G02*
X137010005Y-117795009I-249999J0D01*
G01*
X135760003Y-117795009D01*
G75*
G02*
X135510004Y-117545010I0J249999D01*
G01*
X135510004Y-116845008D01*
G75*
G02*
X135760003Y-116595009I249999J0D01*
G01*
G37*
G04 #@! TD.AperFunction*
D16*
G04 #@! TO.P,J2,2*
G04 #@! TO.N,Board_9-GND*
X136385004Y-119195009D03*
G04 #@! TD*
G04 #@! TO.P,J5,1*
G04 #@! TO.N,Board_9-Net-(C17-Pad1)*
G04 #@! TA.AperFunction,ComponentPad*
G36*
G01*
X135760003Y-148345009D02*
X137010005Y-148345009D01*
G75*
G02*
X137260004Y-148595008I0J-249999D01*
G01*
X137260004Y-149295010D01*
G75*
G02*
X137010005Y-149545009I-249999J0D01*
G01*
X135760003Y-149545009D01*
G75*
G02*
X135510004Y-149295010I0J249999D01*
G01*
X135510004Y-148595008D01*
G75*
G02*
X135760003Y-148345009I249999J0D01*
G01*
G37*
G04 #@! TD.AperFunction*
G04 #@! TO.P,J5,2*
G04 #@! TO.N,Board_9-GND*
X136385004Y-150945009D03*
G04 #@! TD*
G04 #@! TO.P,J6,1*
G04 #@! TO.N,Board_9-/ADC_I_u*
G04 #@! TA.AperFunction,ComponentPad*
G36*
G01*
X135760003Y-124215009D02*
X137010005Y-124215009D01*
G75*
G02*
X137260004Y-124465008I0J-249999D01*
G01*
X137260004Y-125165010D01*
G75*
G02*
X137010005Y-125415009I-249999J0D01*
G01*
X135760003Y-125415009D01*
G75*
G02*
X135510004Y-125165010I0J249999D01*
G01*
X135510004Y-124465008D01*
G75*
G02*
X135760003Y-124215009I249999J0D01*
G01*
G37*
G04 #@! TD.AperFunction*
G04 #@! TO.P,J6,2*
G04 #@! TO.N,Board_9-/ADC_I_v*
X136385004Y-126815009D03*
G04 #@! TO.P,J6,3*
G04 #@! TO.N,Board_9-/ADC_I_w*
X136385004Y-128815009D03*
G04 #@! TD*
D11*
G04 #@! TO.P,U3,1*
G04 #@! TO.N,Board_8-/W*
X76434999Y-143865009D03*
D12*
G04 #@! TO.P,U3,2*
G04 #@! TO.N,Board_8-/V*
X76434999Y-138785009D03*
G04 #@! TO.P,U3,3*
G04 #@! TO.N,Board_8-/U*
X76434999Y-133705009D03*
G04 #@! TD*
D11*
G04 #@! TO.P,U2,1*
G04 #@! TO.N,Board_8-GND*
X67544999Y-118465009D03*
D12*
G04 #@! TO.P,U2,2*
G04 #@! TO.N,Board_8-/+VM*
X62464999Y-118465009D03*
G04 #@! TD*
G04 #@! TO.P,J3,1*
G04 #@! TO.N,Board_8-/WL*
G04 #@! TA.AperFunction,ComponentPad*
G36*
G01*
X45354999Y-116550010D02*
X45354999Y-115300008D01*
G75*
G02*
X45604998Y-115050009I249999J0D01*
G01*
X46305000Y-115050009D01*
G75*
G02*
X46554999Y-115300008I0J-249999D01*
G01*
X46554999Y-116550010D01*
G75*
G02*
X46305000Y-116800009I-249999J0D01*
G01*
X45604998Y-116800009D01*
G75*
G02*
X45354999Y-116550010I0J249999D01*
G01*
G37*
G04 #@! TD.AperFunction*
D13*
G04 #@! TO.P,J3,2*
G04 #@! TO.N,Board_8-/WH*
X47954999Y-115925009D03*
G04 #@! TO.P,J3,3*
G04 #@! TO.N,Board_8-/VL*
X49954999Y-115925009D03*
G04 #@! TO.P,J3,4*
G04 #@! TO.N,Board_8-/VH*
X51954999Y-115925009D03*
G04 #@! TO.P,J3,5*
G04 #@! TO.N,Board_8-/UL*
X53954999Y-115925009D03*
G04 #@! TO.P,J3,6*
G04 #@! TO.N,Board_8-/UH*
X55954999Y-115925009D03*
G04 #@! TD*
G04 #@! TO.P,J1,1*
G04 #@! TO.N,Board_8-/~CS_DRIVER*
G04 #@! TA.AperFunction,ComponentPad*
G36*
G01*
X45354999Y-121630010D02*
X45354999Y-120380008D01*
G75*
G02*
X45604998Y-120130009I249999J0D01*
G01*
X46305000Y-120130009D01*
G75*
G02*
X46554999Y-120380008I0J-249999D01*
G01*
X46554999Y-121630010D01*
G75*
G02*
X46305000Y-121880009I-249999J0D01*
G01*
X45604998Y-121880009D01*
G75*
G02*
X45354999Y-121630010I0J249999D01*
G01*
G37*
G04 #@! TD.AperFunction*
G04 #@! TO.P,J1,2*
G04 #@! TO.N,Board_8-/SPI1_SCK*
X47954999Y-121005009D03*
G04 #@! TO.P,J1,3*
G04 #@! TO.N,Board_8-/SPI1_MOSI*
X49954999Y-121005009D03*
G04 #@! TO.P,J1,4*
G04 #@! TO.N,Board_8-/SPI1_MISO*
X51954999Y-121005009D03*
G04 #@! TO.P,J1,5*
G04 #@! TO.N,Board_8-/DRV_EN*
X53954999Y-121005009D03*
G04 #@! TO.P,J1,6*
G04 #@! TO.N,Board_8-/Connectors/FAULT*
X55954999Y-121005009D03*
G04 #@! TD*
D14*
G04 #@! TO.P,C16,1*
G04 #@! TO.N,Board_8-/+VM*
X24364999Y-119235009D03*
G04 #@! TO.P,C16,2*
G04 #@! TO.N,Board_8-GND*
X29364999Y-119235009D03*
G04 #@! TD*
G04 #@! TO.P,C15,1*
G04 #@! TO.N,Board_8-/+VM*
X35794999Y-119235009D03*
G04 #@! TO.P,C15,2*
G04 #@! TO.N,Board_8-GND*
X40794999Y-119235009D03*
G04 #@! TD*
D15*
G04 #@! TO.P,H202,1*
G04 #@! TO.N,Board_8-GND*
X25634999Y-129895009D03*
G04 #@! TD*
G04 #@! TO.P,H201,1*
G04 #@! TO.N,Board_8-GND*
X25634999Y-148945009D03*
G04 #@! TD*
G04 #@! TO.P,J2,1*
G04 #@! TO.N,Board_8-/Connectors/VCC_IO*
G04 #@! TA.AperFunction,ComponentPad*
G36*
G01*
X75809998Y-116595009D02*
X77060000Y-116595009D01*
G75*
G02*
X77309999Y-116845008I0J-249999D01*
G01*
X77309999Y-117545010D01*
G75*
G02*
X77060000Y-117795009I-249999J0D01*
G01*
X75809998Y-117795009D01*
G75*
G02*
X75559999Y-117545010I0J249999D01*
G01*
X75559999Y-116845008D01*
G75*
G02*
X75809998Y-116595009I249999J0D01*
G01*
G37*
G04 #@! TD.AperFunction*
D16*
G04 #@! TO.P,J2,2*
G04 #@! TO.N,Board_8-GND*
X76434999Y-119195009D03*
G04 #@! TD*
G04 #@! TO.P,J5,1*
G04 #@! TO.N,Board_8-Net-(C17-Pad1)*
G04 #@! TA.AperFunction,ComponentPad*
G36*
G01*
X75809998Y-148345009D02*
X77060000Y-148345009D01*
G75*
G02*
X77309999Y-148595008I0J-249999D01*
G01*
X77309999Y-149295010D01*
G75*
G02*
X77060000Y-149545009I-249999J0D01*
G01*
X75809998Y-149545009D01*
G75*
G02*
X75559999Y-149295010I0J249999D01*
G01*
X75559999Y-148595008D01*
G75*
G02*
X75809998Y-148345009I249999J0D01*
G01*
G37*
G04 #@! TD.AperFunction*
G04 #@! TO.P,J5,2*
G04 #@! TO.N,Board_8-GND*
X76434999Y-150945009D03*
G04 #@! TD*
G04 #@! TO.P,J6,1*
G04 #@! TO.N,Board_8-/ADC_I_u*
G04 #@! TA.AperFunction,ComponentPad*
G36*
G01*
X75809998Y-124215009D02*
X77060000Y-124215009D01*
G75*
G02*
X77309999Y-124465008I0J-249999D01*
G01*
X77309999Y-125165010D01*
G75*
G02*
X77060000Y-125415009I-249999J0D01*
G01*
X75809998Y-125415009D01*
G75*
G02*
X75559999Y-125165010I0J249999D01*
G01*
X75559999Y-124465008D01*
G75*
G02*
X75809998Y-124215009I249999J0D01*
G01*
G37*
G04 #@! TD.AperFunction*
G04 #@! TO.P,J6,2*
G04 #@! TO.N,Board_8-/ADC_I_v*
X76434999Y-126815009D03*
G04 #@! TO.P,J6,3*
G04 #@! TO.N,Board_8-/ADC_I_w*
X76434999Y-128815009D03*
G04 #@! TD*
D11*
G04 #@! TO.P,U3,1*
G04 #@! TO.N,Board_7-/W*
X256285014Y-101875004D03*
D12*
G04 #@! TO.P,U3,2*
G04 #@! TO.N,Board_7-/V*
X256285014Y-96795004D03*
G04 #@! TO.P,U3,3*
G04 #@! TO.N,Board_7-/U*
X256285014Y-91715004D03*
G04 #@! TD*
D11*
G04 #@! TO.P,U2,1*
G04 #@! TO.N,Board_7-GND*
X247395014Y-76475004D03*
D12*
G04 #@! TO.P,U2,2*
G04 #@! TO.N,Board_7-/+VM*
X242315014Y-76475004D03*
G04 #@! TD*
G04 #@! TO.P,J3,1*
G04 #@! TO.N,Board_7-/WL*
G04 #@! TA.AperFunction,ComponentPad*
G36*
G01*
X225205014Y-74560005D02*
X225205014Y-73310003D01*
G75*
G02*
X225455013Y-73060004I249999J0D01*
G01*
X226155015Y-73060004D01*
G75*
G02*
X226405014Y-73310003I0J-249999D01*
G01*
X226405014Y-74560005D01*
G75*
G02*
X226155015Y-74810004I-249999J0D01*
G01*
X225455013Y-74810004D01*
G75*
G02*
X225205014Y-74560005I0J249999D01*
G01*
G37*
G04 #@! TD.AperFunction*
D13*
G04 #@! TO.P,J3,2*
G04 #@! TO.N,Board_7-/WH*
X227805014Y-73935004D03*
G04 #@! TO.P,J3,3*
G04 #@! TO.N,Board_7-/VL*
X229805014Y-73935004D03*
G04 #@! TO.P,J3,4*
G04 #@! TO.N,Board_7-/VH*
X231805014Y-73935004D03*
G04 #@! TO.P,J3,5*
G04 #@! TO.N,Board_7-/UL*
X233805014Y-73935004D03*
G04 #@! TO.P,J3,6*
G04 #@! TO.N,Board_7-/UH*
X235805014Y-73935004D03*
G04 #@! TD*
G04 #@! TO.P,J1,1*
G04 #@! TO.N,Board_7-/~CS_DRIVER*
G04 #@! TA.AperFunction,ComponentPad*
G36*
G01*
X225205014Y-79640005D02*
X225205014Y-78390003D01*
G75*
G02*
X225455013Y-78140004I249999J0D01*
G01*
X226155015Y-78140004D01*
G75*
G02*
X226405014Y-78390003I0J-249999D01*
G01*
X226405014Y-79640005D01*
G75*
G02*
X226155015Y-79890004I-249999J0D01*
G01*
X225455013Y-79890004D01*
G75*
G02*
X225205014Y-79640005I0J249999D01*
G01*
G37*
G04 #@! TD.AperFunction*
G04 #@! TO.P,J1,2*
G04 #@! TO.N,Board_7-/SPI1_SCK*
X227805014Y-79015004D03*
G04 #@! TO.P,J1,3*
G04 #@! TO.N,Board_7-/SPI1_MOSI*
X229805014Y-79015004D03*
G04 #@! TO.P,J1,4*
G04 #@! TO.N,Board_7-/SPI1_MISO*
X231805014Y-79015004D03*
G04 #@! TO.P,J1,5*
G04 #@! TO.N,Board_7-/DRV_EN*
X233805014Y-79015004D03*
G04 #@! TO.P,J1,6*
G04 #@! TO.N,Board_7-/Connectors/FAULT*
X235805014Y-79015004D03*
G04 #@! TD*
D14*
G04 #@! TO.P,C16,1*
G04 #@! TO.N,Board_7-/+VM*
X204215014Y-77245004D03*
G04 #@! TO.P,C16,2*
G04 #@! TO.N,Board_7-GND*
X209215014Y-77245004D03*
G04 #@! TD*
G04 #@! TO.P,C15,1*
G04 #@! TO.N,Board_7-/+VM*
X215645014Y-77245004D03*
G04 #@! TO.P,C15,2*
G04 #@! TO.N,Board_7-GND*
X220645014Y-77245004D03*
G04 #@! TD*
D15*
G04 #@! TO.P,H202,1*
G04 #@! TO.N,Board_7-GND*
X205485014Y-87905004D03*
G04 #@! TD*
G04 #@! TO.P,H201,1*
G04 #@! TO.N,Board_7-GND*
X205485014Y-106955004D03*
G04 #@! TD*
G04 #@! TO.P,J2,1*
G04 #@! TO.N,Board_7-/Connectors/VCC_IO*
G04 #@! TA.AperFunction,ComponentPad*
G36*
G01*
X255660013Y-74605004D02*
X256910015Y-74605004D01*
G75*
G02*
X257160014Y-74855003I0J-249999D01*
G01*
X257160014Y-75555005D01*
G75*
G02*
X256910015Y-75805004I-249999J0D01*
G01*
X255660013Y-75805004D01*
G75*
G02*
X255410014Y-75555005I0J249999D01*
G01*
X255410014Y-74855003D01*
G75*
G02*
X255660013Y-74605004I249999J0D01*
G01*
G37*
G04 #@! TD.AperFunction*
D16*
G04 #@! TO.P,J2,2*
G04 #@! TO.N,Board_7-GND*
X256285014Y-77205004D03*
G04 #@! TD*
G04 #@! TO.P,J5,1*
G04 #@! TO.N,Board_7-Net-(C17-Pad1)*
G04 #@! TA.AperFunction,ComponentPad*
G36*
G01*
X255660013Y-106355004D02*
X256910015Y-106355004D01*
G75*
G02*
X257160014Y-106605003I0J-249999D01*
G01*
X257160014Y-107305005D01*
G75*
G02*
X256910015Y-107555004I-249999J0D01*
G01*
X255660013Y-107555004D01*
G75*
G02*
X255410014Y-107305005I0J249999D01*
G01*
X255410014Y-106605003D01*
G75*
G02*
X255660013Y-106355004I249999J0D01*
G01*
G37*
G04 #@! TD.AperFunction*
G04 #@! TO.P,J5,2*
G04 #@! TO.N,Board_7-GND*
X256285014Y-108955004D03*
G04 #@! TD*
G04 #@! TO.P,J6,1*
G04 #@! TO.N,Board_7-/ADC_I_u*
G04 #@! TA.AperFunction,ComponentPad*
G36*
G01*
X255660013Y-82225004D02*
X256910015Y-82225004D01*
G75*
G02*
X257160014Y-82475003I0J-249999D01*
G01*
X257160014Y-83175005D01*
G75*
G02*
X256910015Y-83425004I-249999J0D01*
G01*
X255660013Y-83425004D01*
G75*
G02*
X255410014Y-83175005I0J249999D01*
G01*
X255410014Y-82475003D01*
G75*
G02*
X255660013Y-82225004I249999J0D01*
G01*
G37*
G04 #@! TD.AperFunction*
G04 #@! TO.P,J6,2*
G04 #@! TO.N,Board_7-/ADC_I_v*
X256285014Y-84825004D03*
G04 #@! TO.P,J6,3*
G04 #@! TO.N,Board_7-/ADC_I_w*
X256285014Y-86825004D03*
G04 #@! TD*
D11*
G04 #@! TO.P,U3,1*
G04 #@! TO.N,Board_6-/W*
X196335009Y-101875004D03*
D12*
G04 #@! TO.P,U3,2*
G04 #@! TO.N,Board_6-/V*
X196335009Y-96795004D03*
G04 #@! TO.P,U3,3*
G04 #@! TO.N,Board_6-/U*
X196335009Y-91715004D03*
G04 #@! TD*
D11*
G04 #@! TO.P,U2,1*
G04 #@! TO.N,Board_6-GND*
X187445009Y-76475004D03*
D12*
G04 #@! TO.P,U2,2*
G04 #@! TO.N,Board_6-/+VM*
X182365009Y-76475004D03*
G04 #@! TD*
G04 #@! TO.P,J3,1*
G04 #@! TO.N,Board_6-/WL*
G04 #@! TA.AperFunction,ComponentPad*
G36*
G01*
X165255009Y-74560005D02*
X165255009Y-73310003D01*
G75*
G02*
X165505008Y-73060004I249999J0D01*
G01*
X166205010Y-73060004D01*
G75*
G02*
X166455009Y-73310003I0J-249999D01*
G01*
X166455009Y-74560005D01*
G75*
G02*
X166205010Y-74810004I-249999J0D01*
G01*
X165505008Y-74810004D01*
G75*
G02*
X165255009Y-74560005I0J249999D01*
G01*
G37*
G04 #@! TD.AperFunction*
D13*
G04 #@! TO.P,J3,2*
G04 #@! TO.N,Board_6-/WH*
X167855009Y-73935004D03*
G04 #@! TO.P,J3,3*
G04 #@! TO.N,Board_6-/VL*
X169855009Y-73935004D03*
G04 #@! TO.P,J3,4*
G04 #@! TO.N,Board_6-/VH*
X171855009Y-73935004D03*
G04 #@! TO.P,J3,5*
G04 #@! TO.N,Board_6-/UL*
X173855009Y-73935004D03*
G04 #@! TO.P,J3,6*
G04 #@! TO.N,Board_6-/UH*
X175855009Y-73935004D03*
G04 #@! TD*
G04 #@! TO.P,J1,1*
G04 #@! TO.N,Board_6-/~CS_DRIVER*
G04 #@! TA.AperFunction,ComponentPad*
G36*
G01*
X165255009Y-79640005D02*
X165255009Y-78390003D01*
G75*
G02*
X165505008Y-78140004I249999J0D01*
G01*
X166205010Y-78140004D01*
G75*
G02*
X166455009Y-78390003I0J-249999D01*
G01*
X166455009Y-79640005D01*
G75*
G02*
X166205010Y-79890004I-249999J0D01*
G01*
X165505008Y-79890004D01*
G75*
G02*
X165255009Y-79640005I0J249999D01*
G01*
G37*
G04 #@! TD.AperFunction*
G04 #@! TO.P,J1,2*
G04 #@! TO.N,Board_6-/SPI1_SCK*
X167855009Y-79015004D03*
G04 #@! TO.P,J1,3*
G04 #@! TO.N,Board_6-/SPI1_MOSI*
X169855009Y-79015004D03*
G04 #@! TO.P,J1,4*
G04 #@! TO.N,Board_6-/SPI1_MISO*
X171855009Y-79015004D03*
G04 #@! TO.P,J1,5*
G04 #@! TO.N,Board_6-/DRV_EN*
X173855009Y-79015004D03*
G04 #@! TO.P,J1,6*
G04 #@! TO.N,Board_6-/Connectors/FAULT*
X175855009Y-79015004D03*
G04 #@! TD*
D14*
G04 #@! TO.P,C16,1*
G04 #@! TO.N,Board_6-/+VM*
X144265009Y-77245004D03*
G04 #@! TO.P,C16,2*
G04 #@! TO.N,Board_6-GND*
X149265009Y-77245004D03*
G04 #@! TD*
G04 #@! TO.P,C15,1*
G04 #@! TO.N,Board_6-/+VM*
X155695009Y-77245004D03*
G04 #@! TO.P,C15,2*
G04 #@! TO.N,Board_6-GND*
X160695009Y-77245004D03*
G04 #@! TD*
D15*
G04 #@! TO.P,H202,1*
G04 #@! TO.N,Board_6-GND*
X145535009Y-87905004D03*
G04 #@! TD*
G04 #@! TO.P,H201,1*
G04 #@! TO.N,Board_6-GND*
X145535009Y-106955004D03*
G04 #@! TD*
G04 #@! TO.P,J2,1*
G04 #@! TO.N,Board_6-/Connectors/VCC_IO*
G04 #@! TA.AperFunction,ComponentPad*
G36*
G01*
X195710008Y-74605004D02*
X196960010Y-74605004D01*
G75*
G02*
X197210009Y-74855003I0J-249999D01*
G01*
X197210009Y-75555005D01*
G75*
G02*
X196960010Y-75805004I-249999J0D01*
G01*
X195710008Y-75805004D01*
G75*
G02*
X195460009Y-75555005I0J249999D01*
G01*
X195460009Y-74855003D01*
G75*
G02*
X195710008Y-74605004I249999J0D01*
G01*
G37*
G04 #@! TD.AperFunction*
D16*
G04 #@! TO.P,J2,2*
G04 #@! TO.N,Board_6-GND*
X196335009Y-77205004D03*
G04 #@! TD*
G04 #@! TO.P,J5,1*
G04 #@! TO.N,Board_6-Net-(C17-Pad1)*
G04 #@! TA.AperFunction,ComponentPad*
G36*
G01*
X195710008Y-106355004D02*
X196960010Y-106355004D01*
G75*
G02*
X197210009Y-106605003I0J-249999D01*
G01*
X197210009Y-107305005D01*
G75*
G02*
X196960010Y-107555004I-249999J0D01*
G01*
X195710008Y-107555004D01*
G75*
G02*
X195460009Y-107305005I0J249999D01*
G01*
X195460009Y-106605003D01*
G75*
G02*
X195710008Y-106355004I249999J0D01*
G01*
G37*
G04 #@! TD.AperFunction*
G04 #@! TO.P,J5,2*
G04 #@! TO.N,Board_6-GND*
X196335009Y-108955004D03*
G04 #@! TD*
G04 #@! TO.P,J6,1*
G04 #@! TO.N,Board_6-/ADC_I_u*
G04 #@! TA.AperFunction,ComponentPad*
G36*
G01*
X195710008Y-82225004D02*
X196960010Y-82225004D01*
G75*
G02*
X197210009Y-82475003I0J-249999D01*
G01*
X197210009Y-83175005D01*
G75*
G02*
X196960010Y-83425004I-249999J0D01*
G01*
X195710008Y-83425004D01*
G75*
G02*
X195460009Y-83175005I0J249999D01*
G01*
X195460009Y-82475003D01*
G75*
G02*
X195710008Y-82225004I249999J0D01*
G01*
G37*
G04 #@! TD.AperFunction*
G04 #@! TO.P,J6,2*
G04 #@! TO.N,Board_6-/ADC_I_v*
X196335009Y-84825004D03*
G04 #@! TO.P,J6,3*
G04 #@! TO.N,Board_6-/ADC_I_w*
X196335009Y-86825004D03*
G04 #@! TD*
D11*
G04 #@! TO.P,U3,1*
G04 #@! TO.N,Board_5-/W*
X136385004Y-101875004D03*
D12*
G04 #@! TO.P,U3,2*
G04 #@! TO.N,Board_5-/V*
X136385004Y-96795004D03*
G04 #@! TO.P,U3,3*
G04 #@! TO.N,Board_5-/U*
X136385004Y-91715004D03*
G04 #@! TD*
D11*
G04 #@! TO.P,U2,1*
G04 #@! TO.N,Board_5-GND*
X127495004Y-76475004D03*
D12*
G04 #@! TO.P,U2,2*
G04 #@! TO.N,Board_5-/+VM*
X122415004Y-76475004D03*
G04 #@! TD*
G04 #@! TO.P,J3,1*
G04 #@! TO.N,Board_5-/WL*
G04 #@! TA.AperFunction,ComponentPad*
G36*
G01*
X105305004Y-74560005D02*
X105305004Y-73310003D01*
G75*
G02*
X105555003Y-73060004I249999J0D01*
G01*
X106255005Y-73060004D01*
G75*
G02*
X106505004Y-73310003I0J-249999D01*
G01*
X106505004Y-74560005D01*
G75*
G02*
X106255005Y-74810004I-249999J0D01*
G01*
X105555003Y-74810004D01*
G75*
G02*
X105305004Y-74560005I0J249999D01*
G01*
G37*
G04 #@! TD.AperFunction*
D13*
G04 #@! TO.P,J3,2*
G04 #@! TO.N,Board_5-/WH*
X107905004Y-73935004D03*
G04 #@! TO.P,J3,3*
G04 #@! TO.N,Board_5-/VL*
X109905004Y-73935004D03*
G04 #@! TO.P,J3,4*
G04 #@! TO.N,Board_5-/VH*
X111905004Y-73935004D03*
G04 #@! TO.P,J3,5*
G04 #@! TO.N,Board_5-/UL*
X113905004Y-73935004D03*
G04 #@! TO.P,J3,6*
G04 #@! TO.N,Board_5-/UH*
X115905004Y-73935004D03*
G04 #@! TD*
G04 #@! TO.P,J1,1*
G04 #@! TO.N,Board_5-/~CS_DRIVER*
G04 #@! TA.AperFunction,ComponentPad*
G36*
G01*
X105305004Y-79640005D02*
X105305004Y-78390003D01*
G75*
G02*
X105555003Y-78140004I249999J0D01*
G01*
X106255005Y-78140004D01*
G75*
G02*
X106505004Y-78390003I0J-249999D01*
G01*
X106505004Y-79640005D01*
G75*
G02*
X106255005Y-79890004I-249999J0D01*
G01*
X105555003Y-79890004D01*
G75*
G02*
X105305004Y-79640005I0J249999D01*
G01*
G37*
G04 #@! TD.AperFunction*
G04 #@! TO.P,J1,2*
G04 #@! TO.N,Board_5-/SPI1_SCK*
X107905004Y-79015004D03*
G04 #@! TO.P,J1,3*
G04 #@! TO.N,Board_5-/SPI1_MOSI*
X109905004Y-79015004D03*
G04 #@! TO.P,J1,4*
G04 #@! TO.N,Board_5-/SPI1_MISO*
X111905004Y-79015004D03*
G04 #@! TO.P,J1,5*
G04 #@! TO.N,Board_5-/DRV_EN*
X113905004Y-79015004D03*
G04 #@! TO.P,J1,6*
G04 #@! TO.N,Board_5-/Connectors/FAULT*
X115905004Y-79015004D03*
G04 #@! TD*
D14*
G04 #@! TO.P,C16,1*
G04 #@! TO.N,Board_5-/+VM*
X84315004Y-77245004D03*
G04 #@! TO.P,C16,2*
G04 #@! TO.N,Board_5-GND*
X89315004Y-77245004D03*
G04 #@! TD*
G04 #@! TO.P,C15,1*
G04 #@! TO.N,Board_5-/+VM*
X95745004Y-77245004D03*
G04 #@! TO.P,C15,2*
G04 #@! TO.N,Board_5-GND*
X100745004Y-77245004D03*
G04 #@! TD*
D15*
G04 #@! TO.P,H202,1*
G04 #@! TO.N,Board_5-GND*
X85585004Y-87905004D03*
G04 #@! TD*
G04 #@! TO.P,H201,1*
G04 #@! TO.N,Board_5-GND*
X85585004Y-106955004D03*
G04 #@! TD*
G04 #@! TO.P,J2,1*
G04 #@! TO.N,Board_5-/Connectors/VCC_IO*
G04 #@! TA.AperFunction,ComponentPad*
G36*
G01*
X135760003Y-74605004D02*
X137010005Y-74605004D01*
G75*
G02*
X137260004Y-74855003I0J-249999D01*
G01*
X137260004Y-75555005D01*
G75*
G02*
X137010005Y-75805004I-249999J0D01*
G01*
X135760003Y-75805004D01*
G75*
G02*
X135510004Y-75555005I0J249999D01*
G01*
X135510004Y-74855003D01*
G75*
G02*
X135760003Y-74605004I249999J0D01*
G01*
G37*
G04 #@! TD.AperFunction*
D16*
G04 #@! TO.P,J2,2*
G04 #@! TO.N,Board_5-GND*
X136385004Y-77205004D03*
G04 #@! TD*
G04 #@! TO.P,J5,1*
G04 #@! TO.N,Board_5-Net-(C17-Pad1)*
G04 #@! TA.AperFunction,ComponentPad*
G36*
G01*
X135760003Y-106355004D02*
X137010005Y-106355004D01*
G75*
G02*
X137260004Y-106605003I0J-249999D01*
G01*
X137260004Y-107305005D01*
G75*
G02*
X137010005Y-107555004I-249999J0D01*
G01*
X135760003Y-107555004D01*
G75*
G02*
X135510004Y-107305005I0J249999D01*
G01*
X135510004Y-106605003D01*
G75*
G02*
X135760003Y-106355004I249999J0D01*
G01*
G37*
G04 #@! TD.AperFunction*
G04 #@! TO.P,J5,2*
G04 #@! TO.N,Board_5-GND*
X136385004Y-108955004D03*
G04 #@! TD*
G04 #@! TO.P,J6,1*
G04 #@! TO.N,Board_5-/ADC_I_u*
G04 #@! TA.AperFunction,ComponentPad*
G36*
G01*
X135760003Y-82225004D02*
X137010005Y-82225004D01*
G75*
G02*
X137260004Y-82475003I0J-249999D01*
G01*
X137260004Y-83175005D01*
G75*
G02*
X137010005Y-83425004I-249999J0D01*
G01*
X135760003Y-83425004D01*
G75*
G02*
X135510004Y-83175005I0J249999D01*
G01*
X135510004Y-82475003D01*
G75*
G02*
X135760003Y-82225004I249999J0D01*
G01*
G37*
G04 #@! TD.AperFunction*
G04 #@! TO.P,J6,2*
G04 #@! TO.N,Board_5-/ADC_I_v*
X136385004Y-84825004D03*
G04 #@! TO.P,J6,3*
G04 #@! TO.N,Board_5-/ADC_I_w*
X136385004Y-86825004D03*
G04 #@! TD*
D11*
G04 #@! TO.P,U3,1*
G04 #@! TO.N,Board_4-/W*
X76434999Y-101875004D03*
D12*
G04 #@! TO.P,U3,2*
G04 #@! TO.N,Board_4-/V*
X76434999Y-96795004D03*
G04 #@! TO.P,U3,3*
G04 #@! TO.N,Board_4-/U*
X76434999Y-91715004D03*
G04 #@! TD*
D11*
G04 #@! TO.P,U2,1*
G04 #@! TO.N,Board_4-GND*
X67544999Y-76475004D03*
D12*
G04 #@! TO.P,U2,2*
G04 #@! TO.N,Board_4-/+VM*
X62464999Y-76475004D03*
G04 #@! TD*
G04 #@! TO.P,J3,1*
G04 #@! TO.N,Board_4-/WL*
G04 #@! TA.AperFunction,ComponentPad*
G36*
G01*
X45354999Y-74560005D02*
X45354999Y-73310003D01*
G75*
G02*
X45604998Y-73060004I249999J0D01*
G01*
X46305000Y-73060004D01*
G75*
G02*
X46554999Y-73310003I0J-249999D01*
G01*
X46554999Y-74560005D01*
G75*
G02*
X46305000Y-74810004I-249999J0D01*
G01*
X45604998Y-74810004D01*
G75*
G02*
X45354999Y-74560005I0J249999D01*
G01*
G37*
G04 #@! TD.AperFunction*
D13*
G04 #@! TO.P,J3,2*
G04 #@! TO.N,Board_4-/WH*
X47954999Y-73935004D03*
G04 #@! TO.P,J3,3*
G04 #@! TO.N,Board_4-/VL*
X49954999Y-73935004D03*
G04 #@! TO.P,J3,4*
G04 #@! TO.N,Board_4-/VH*
X51954999Y-73935004D03*
G04 #@! TO.P,J3,5*
G04 #@! TO.N,Board_4-/UL*
X53954999Y-73935004D03*
G04 #@! TO.P,J3,6*
G04 #@! TO.N,Board_4-/UH*
X55954999Y-73935004D03*
G04 #@! TD*
G04 #@! TO.P,J1,1*
G04 #@! TO.N,Board_4-/~CS_DRIVER*
G04 #@! TA.AperFunction,ComponentPad*
G36*
G01*
X45354999Y-79640005D02*
X45354999Y-78390003D01*
G75*
G02*
X45604998Y-78140004I249999J0D01*
G01*
X46305000Y-78140004D01*
G75*
G02*
X46554999Y-78390003I0J-249999D01*
G01*
X46554999Y-79640005D01*
G75*
G02*
X46305000Y-79890004I-249999J0D01*
G01*
X45604998Y-79890004D01*
G75*
G02*
X45354999Y-79640005I0J249999D01*
G01*
G37*
G04 #@! TD.AperFunction*
G04 #@! TO.P,J1,2*
G04 #@! TO.N,Board_4-/SPI1_SCK*
X47954999Y-79015004D03*
G04 #@! TO.P,J1,3*
G04 #@! TO.N,Board_4-/SPI1_MOSI*
X49954999Y-79015004D03*
G04 #@! TO.P,J1,4*
G04 #@! TO.N,Board_4-/SPI1_MISO*
X51954999Y-79015004D03*
G04 #@! TO.P,J1,5*
G04 #@! TO.N,Board_4-/DRV_EN*
X53954999Y-79015004D03*
G04 #@! TO.P,J1,6*
G04 #@! TO.N,Board_4-/Connectors/FAULT*
X55954999Y-79015004D03*
G04 #@! TD*
D14*
G04 #@! TO.P,C16,1*
G04 #@! TO.N,Board_4-/+VM*
X24364999Y-77245004D03*
G04 #@! TO.P,C16,2*
G04 #@! TO.N,Board_4-GND*
X29364999Y-77245004D03*
G04 #@! TD*
G04 #@! TO.P,C15,1*
G04 #@! TO.N,Board_4-/+VM*
X35794999Y-77245004D03*
G04 #@! TO.P,C15,2*
G04 #@! TO.N,Board_4-GND*
X40794999Y-77245004D03*
G04 #@! TD*
D15*
G04 #@! TO.P,H202,1*
G04 #@! TO.N,Board_4-GND*
X25634999Y-87905004D03*
G04 #@! TD*
G04 #@! TO.P,H201,1*
G04 #@! TO.N,Board_4-GND*
X25634999Y-106955004D03*
G04 #@! TD*
G04 #@! TO.P,J2,1*
G04 #@! TO.N,Board_4-/Connectors/VCC_IO*
G04 #@! TA.AperFunction,ComponentPad*
G36*
G01*
X75809998Y-74605004D02*
X77060000Y-74605004D01*
G75*
G02*
X77309999Y-74855003I0J-249999D01*
G01*
X77309999Y-75555005D01*
G75*
G02*
X77060000Y-75805004I-249999J0D01*
G01*
X75809998Y-75805004D01*
G75*
G02*
X75559999Y-75555005I0J249999D01*
G01*
X75559999Y-74855003D01*
G75*
G02*
X75809998Y-74605004I249999J0D01*
G01*
G37*
G04 #@! TD.AperFunction*
D16*
G04 #@! TO.P,J2,2*
G04 #@! TO.N,Board_4-GND*
X76434999Y-77205004D03*
G04 #@! TD*
G04 #@! TO.P,J5,1*
G04 #@! TO.N,Board_4-Net-(C17-Pad1)*
G04 #@! TA.AperFunction,ComponentPad*
G36*
G01*
X75809998Y-106355004D02*
X77060000Y-106355004D01*
G75*
G02*
X77309999Y-106605003I0J-249999D01*
G01*
X77309999Y-107305005D01*
G75*
G02*
X77060000Y-107555004I-249999J0D01*
G01*
X75809998Y-107555004D01*
G75*
G02*
X75559999Y-107305005I0J249999D01*
G01*
X75559999Y-106605003D01*
G75*
G02*
X75809998Y-106355004I249999J0D01*
G01*
G37*
G04 #@! TD.AperFunction*
G04 #@! TO.P,J5,2*
G04 #@! TO.N,Board_4-GND*
X76434999Y-108955004D03*
G04 #@! TD*
G04 #@! TO.P,J6,1*
G04 #@! TO.N,Board_4-/ADC_I_u*
G04 #@! TA.AperFunction,ComponentPad*
G36*
G01*
X75809998Y-82225004D02*
X77060000Y-82225004D01*
G75*
G02*
X77309999Y-82475003I0J-249999D01*
G01*
X77309999Y-83175005D01*
G75*
G02*
X77060000Y-83425004I-249999J0D01*
G01*
X75809998Y-83425004D01*
G75*
G02*
X75559999Y-83175005I0J249999D01*
G01*
X75559999Y-82475003D01*
G75*
G02*
X75809998Y-82225004I249999J0D01*
G01*
G37*
G04 #@! TD.AperFunction*
G04 #@! TO.P,J6,2*
G04 #@! TO.N,Board_4-/ADC_I_v*
X76434999Y-84825004D03*
G04 #@! TO.P,J6,3*
G04 #@! TO.N,Board_4-/ADC_I_w*
X76434999Y-86825004D03*
G04 #@! TD*
D11*
G04 #@! TO.P,U3,1*
G04 #@! TO.N,Board_3-/W*
X256285014Y-59884999D03*
D12*
G04 #@! TO.P,U3,2*
G04 #@! TO.N,Board_3-/V*
X256285014Y-54804999D03*
G04 #@! TO.P,U3,3*
G04 #@! TO.N,Board_3-/U*
X256285014Y-49724999D03*
G04 #@! TD*
D11*
G04 #@! TO.P,U2,1*
G04 #@! TO.N,Board_3-GND*
X247395014Y-34484999D03*
D12*
G04 #@! TO.P,U2,2*
G04 #@! TO.N,Board_3-/+VM*
X242315014Y-34484999D03*
G04 #@! TD*
G04 #@! TO.P,J3,1*
G04 #@! TO.N,Board_3-/WL*
G04 #@! TA.AperFunction,ComponentPad*
G36*
G01*
X225205014Y-32570000D02*
X225205014Y-31319998D01*
G75*
G02*
X225455013Y-31069999I249999J0D01*
G01*
X226155015Y-31069999D01*
G75*
G02*
X226405014Y-31319998I0J-249999D01*
G01*
X226405014Y-32570000D01*
G75*
G02*
X226155015Y-32819999I-249999J0D01*
G01*
X225455013Y-32819999D01*
G75*
G02*
X225205014Y-32570000I0J249999D01*
G01*
G37*
G04 #@! TD.AperFunction*
D13*
G04 #@! TO.P,J3,2*
G04 #@! TO.N,Board_3-/WH*
X227805014Y-31944999D03*
G04 #@! TO.P,J3,3*
G04 #@! TO.N,Board_3-/VL*
X229805014Y-31944999D03*
G04 #@! TO.P,J3,4*
G04 #@! TO.N,Board_3-/VH*
X231805014Y-31944999D03*
G04 #@! TO.P,J3,5*
G04 #@! TO.N,Board_3-/UL*
X233805014Y-31944999D03*
G04 #@! TO.P,J3,6*
G04 #@! TO.N,Board_3-/UH*
X235805014Y-31944999D03*
G04 #@! TD*
G04 #@! TO.P,J1,1*
G04 #@! TO.N,Board_3-/~CS_DRIVER*
G04 #@! TA.AperFunction,ComponentPad*
G36*
G01*
X225205014Y-37650000D02*
X225205014Y-36399998D01*
G75*
G02*
X225455013Y-36149999I249999J0D01*
G01*
X226155015Y-36149999D01*
G75*
G02*
X226405014Y-36399998I0J-249999D01*
G01*
X226405014Y-37650000D01*
G75*
G02*
X226155015Y-37899999I-249999J0D01*
G01*
X225455013Y-37899999D01*
G75*
G02*
X225205014Y-37650000I0J249999D01*
G01*
G37*
G04 #@! TD.AperFunction*
G04 #@! TO.P,J1,2*
G04 #@! TO.N,Board_3-/SPI1_SCK*
X227805014Y-37024999D03*
G04 #@! TO.P,J1,3*
G04 #@! TO.N,Board_3-/SPI1_MOSI*
X229805014Y-37024999D03*
G04 #@! TO.P,J1,4*
G04 #@! TO.N,Board_3-/SPI1_MISO*
X231805014Y-37024999D03*
G04 #@! TO.P,J1,5*
G04 #@! TO.N,Board_3-/DRV_EN*
X233805014Y-37024999D03*
G04 #@! TO.P,J1,6*
G04 #@! TO.N,Board_3-/Connectors/FAULT*
X235805014Y-37024999D03*
G04 #@! TD*
D14*
G04 #@! TO.P,C16,1*
G04 #@! TO.N,Board_3-/+VM*
X204215014Y-35254999D03*
G04 #@! TO.P,C16,2*
G04 #@! TO.N,Board_3-GND*
X209215014Y-35254999D03*
G04 #@! TD*
G04 #@! TO.P,C15,1*
G04 #@! TO.N,Board_3-/+VM*
X215645014Y-35254999D03*
G04 #@! TO.P,C15,2*
G04 #@! TO.N,Board_3-GND*
X220645014Y-35254999D03*
G04 #@! TD*
D15*
G04 #@! TO.P,H202,1*
G04 #@! TO.N,Board_3-GND*
X205485014Y-45914999D03*
G04 #@! TD*
G04 #@! TO.P,H201,1*
G04 #@! TO.N,Board_3-GND*
X205485014Y-64964999D03*
G04 #@! TD*
G04 #@! TO.P,J2,1*
G04 #@! TO.N,Board_3-/Connectors/VCC_IO*
G04 #@! TA.AperFunction,ComponentPad*
G36*
G01*
X255660013Y-32614999D02*
X256910015Y-32614999D01*
G75*
G02*
X257160014Y-32864998I0J-249999D01*
G01*
X257160014Y-33565000D01*
G75*
G02*
X256910015Y-33814999I-249999J0D01*
G01*
X255660013Y-33814999D01*
G75*
G02*
X255410014Y-33565000I0J249999D01*
G01*
X255410014Y-32864998D01*
G75*
G02*
X255660013Y-32614999I249999J0D01*
G01*
G37*
G04 #@! TD.AperFunction*
D16*
G04 #@! TO.P,J2,2*
G04 #@! TO.N,Board_3-GND*
X256285014Y-35214999D03*
G04 #@! TD*
G04 #@! TO.P,J5,1*
G04 #@! TO.N,Board_3-Net-(C17-Pad1)*
G04 #@! TA.AperFunction,ComponentPad*
G36*
G01*
X255660013Y-64364999D02*
X256910015Y-64364999D01*
G75*
G02*
X257160014Y-64614998I0J-249999D01*
G01*
X257160014Y-65315000D01*
G75*
G02*
X256910015Y-65564999I-249999J0D01*
G01*
X255660013Y-65564999D01*
G75*
G02*
X255410014Y-65315000I0J249999D01*
G01*
X255410014Y-64614998D01*
G75*
G02*
X255660013Y-64364999I249999J0D01*
G01*
G37*
G04 #@! TD.AperFunction*
G04 #@! TO.P,J5,2*
G04 #@! TO.N,Board_3-GND*
X256285014Y-66964999D03*
G04 #@! TD*
G04 #@! TO.P,J6,1*
G04 #@! TO.N,Board_3-/ADC_I_u*
G04 #@! TA.AperFunction,ComponentPad*
G36*
G01*
X255660013Y-40234999D02*
X256910015Y-40234999D01*
G75*
G02*
X257160014Y-40484998I0J-249999D01*
G01*
X257160014Y-41185000D01*
G75*
G02*
X256910015Y-41434999I-249999J0D01*
G01*
X255660013Y-41434999D01*
G75*
G02*
X255410014Y-41185000I0J249999D01*
G01*
X255410014Y-40484998D01*
G75*
G02*
X255660013Y-40234999I249999J0D01*
G01*
G37*
G04 #@! TD.AperFunction*
G04 #@! TO.P,J6,2*
G04 #@! TO.N,Board_3-/ADC_I_v*
X256285014Y-42834999D03*
G04 #@! TO.P,J6,3*
G04 #@! TO.N,Board_3-/ADC_I_w*
X256285014Y-44834999D03*
G04 #@! TD*
D11*
G04 #@! TO.P,U3,1*
G04 #@! TO.N,Board_2-/W*
X196335009Y-59884999D03*
D12*
G04 #@! TO.P,U3,2*
G04 #@! TO.N,Board_2-/V*
X196335009Y-54804999D03*
G04 #@! TO.P,U3,3*
G04 #@! TO.N,Board_2-/U*
X196335009Y-49724999D03*
G04 #@! TD*
D11*
G04 #@! TO.P,U2,1*
G04 #@! TO.N,Board_2-GND*
X187445009Y-34484999D03*
D12*
G04 #@! TO.P,U2,2*
G04 #@! TO.N,Board_2-/+VM*
X182365009Y-34484999D03*
G04 #@! TD*
G04 #@! TO.P,J3,1*
G04 #@! TO.N,Board_2-/WL*
G04 #@! TA.AperFunction,ComponentPad*
G36*
G01*
X165255009Y-32570000D02*
X165255009Y-31319998D01*
G75*
G02*
X165505008Y-31069999I249999J0D01*
G01*
X166205010Y-31069999D01*
G75*
G02*
X166455009Y-31319998I0J-249999D01*
G01*
X166455009Y-32570000D01*
G75*
G02*
X166205010Y-32819999I-249999J0D01*
G01*
X165505008Y-32819999D01*
G75*
G02*
X165255009Y-32570000I0J249999D01*
G01*
G37*
G04 #@! TD.AperFunction*
D13*
G04 #@! TO.P,J3,2*
G04 #@! TO.N,Board_2-/WH*
X167855009Y-31944999D03*
G04 #@! TO.P,J3,3*
G04 #@! TO.N,Board_2-/VL*
X169855009Y-31944999D03*
G04 #@! TO.P,J3,4*
G04 #@! TO.N,Board_2-/VH*
X171855009Y-31944999D03*
G04 #@! TO.P,J3,5*
G04 #@! TO.N,Board_2-/UL*
X173855009Y-31944999D03*
G04 #@! TO.P,J3,6*
G04 #@! TO.N,Board_2-/UH*
X175855009Y-31944999D03*
G04 #@! TD*
G04 #@! TO.P,J1,1*
G04 #@! TO.N,Board_2-/~CS_DRIVER*
G04 #@! TA.AperFunction,ComponentPad*
G36*
G01*
X165255009Y-37650000D02*
X165255009Y-36399998D01*
G75*
G02*
X165505008Y-36149999I249999J0D01*
G01*
X166205010Y-36149999D01*
G75*
G02*
X166455009Y-36399998I0J-249999D01*
G01*
X166455009Y-37650000D01*
G75*
G02*
X166205010Y-37899999I-249999J0D01*
G01*
X165505008Y-37899999D01*
G75*
G02*
X165255009Y-37650000I0J249999D01*
G01*
G37*
G04 #@! TD.AperFunction*
G04 #@! TO.P,J1,2*
G04 #@! TO.N,Board_2-/SPI1_SCK*
X167855009Y-37024999D03*
G04 #@! TO.P,J1,3*
G04 #@! TO.N,Board_2-/SPI1_MOSI*
X169855009Y-37024999D03*
G04 #@! TO.P,J1,4*
G04 #@! TO.N,Board_2-/SPI1_MISO*
X171855009Y-37024999D03*
G04 #@! TO.P,J1,5*
G04 #@! TO.N,Board_2-/DRV_EN*
X173855009Y-37024999D03*
G04 #@! TO.P,J1,6*
G04 #@! TO.N,Board_2-/Connectors/FAULT*
X175855009Y-37024999D03*
G04 #@! TD*
D14*
G04 #@! TO.P,C16,1*
G04 #@! TO.N,Board_2-/+VM*
X144265009Y-35254999D03*
G04 #@! TO.P,C16,2*
G04 #@! TO.N,Board_2-GND*
X149265009Y-35254999D03*
G04 #@! TD*
G04 #@! TO.P,C15,1*
G04 #@! TO.N,Board_2-/+VM*
X155695009Y-35254999D03*
G04 #@! TO.P,C15,2*
G04 #@! TO.N,Board_2-GND*
X160695009Y-35254999D03*
G04 #@! TD*
D15*
G04 #@! TO.P,H202,1*
G04 #@! TO.N,Board_2-GND*
X145535009Y-45914999D03*
G04 #@! TD*
G04 #@! TO.P,H201,1*
G04 #@! TO.N,Board_2-GND*
X145535009Y-64964999D03*
G04 #@! TD*
G04 #@! TO.P,J2,1*
G04 #@! TO.N,Board_2-/Connectors/VCC_IO*
G04 #@! TA.AperFunction,ComponentPad*
G36*
G01*
X195710008Y-32614999D02*
X196960010Y-32614999D01*
G75*
G02*
X197210009Y-32864998I0J-249999D01*
G01*
X197210009Y-33565000D01*
G75*
G02*
X196960010Y-33814999I-249999J0D01*
G01*
X195710008Y-33814999D01*
G75*
G02*
X195460009Y-33565000I0J249999D01*
G01*
X195460009Y-32864998D01*
G75*
G02*
X195710008Y-32614999I249999J0D01*
G01*
G37*
G04 #@! TD.AperFunction*
D16*
G04 #@! TO.P,J2,2*
G04 #@! TO.N,Board_2-GND*
X196335009Y-35214999D03*
G04 #@! TD*
G04 #@! TO.P,J5,1*
G04 #@! TO.N,Board_2-Net-(C17-Pad1)*
G04 #@! TA.AperFunction,ComponentPad*
G36*
G01*
X195710008Y-64364999D02*
X196960010Y-64364999D01*
G75*
G02*
X197210009Y-64614998I0J-249999D01*
G01*
X197210009Y-65315000D01*
G75*
G02*
X196960010Y-65564999I-249999J0D01*
G01*
X195710008Y-65564999D01*
G75*
G02*
X195460009Y-65315000I0J249999D01*
G01*
X195460009Y-64614998D01*
G75*
G02*
X195710008Y-64364999I249999J0D01*
G01*
G37*
G04 #@! TD.AperFunction*
G04 #@! TO.P,J5,2*
G04 #@! TO.N,Board_2-GND*
X196335009Y-66964999D03*
G04 #@! TD*
G04 #@! TO.P,J6,1*
G04 #@! TO.N,Board_2-/ADC_I_u*
G04 #@! TA.AperFunction,ComponentPad*
G36*
G01*
X195710008Y-40234999D02*
X196960010Y-40234999D01*
G75*
G02*
X197210009Y-40484998I0J-249999D01*
G01*
X197210009Y-41185000D01*
G75*
G02*
X196960010Y-41434999I-249999J0D01*
G01*
X195710008Y-41434999D01*
G75*
G02*
X195460009Y-41185000I0J249999D01*
G01*
X195460009Y-40484998D01*
G75*
G02*
X195710008Y-40234999I249999J0D01*
G01*
G37*
G04 #@! TD.AperFunction*
G04 #@! TO.P,J6,2*
G04 #@! TO.N,Board_2-/ADC_I_v*
X196335009Y-42834999D03*
G04 #@! TO.P,J6,3*
G04 #@! TO.N,Board_2-/ADC_I_w*
X196335009Y-44834999D03*
G04 #@! TD*
D11*
G04 #@! TO.P,U3,1*
G04 #@! TO.N,Board_1-/W*
X136385004Y-59884999D03*
D12*
G04 #@! TO.P,U3,2*
G04 #@! TO.N,Board_1-/V*
X136385004Y-54804999D03*
G04 #@! TO.P,U3,3*
G04 #@! TO.N,Board_1-/U*
X136385004Y-49724999D03*
G04 #@! TD*
D11*
G04 #@! TO.P,U2,1*
G04 #@! TO.N,Board_1-GND*
X127495004Y-34484999D03*
D12*
G04 #@! TO.P,U2,2*
G04 #@! TO.N,Board_1-/+VM*
X122415004Y-34484999D03*
G04 #@! TD*
G04 #@! TO.P,J3,1*
G04 #@! TO.N,Board_1-/WL*
G04 #@! TA.AperFunction,ComponentPad*
G36*
G01*
X105305004Y-32570000D02*
X105305004Y-31319998D01*
G75*
G02*
X105555003Y-31069999I249999J0D01*
G01*
X106255005Y-31069999D01*
G75*
G02*
X106505004Y-31319998I0J-249999D01*
G01*
X106505004Y-32570000D01*
G75*
G02*
X106255005Y-32819999I-249999J0D01*
G01*
X105555003Y-32819999D01*
G75*
G02*
X105305004Y-32570000I0J249999D01*
G01*
G37*
G04 #@! TD.AperFunction*
D13*
G04 #@! TO.P,J3,2*
G04 #@! TO.N,Board_1-/WH*
X107905004Y-31944999D03*
G04 #@! TO.P,J3,3*
G04 #@! TO.N,Board_1-/VL*
X109905004Y-31944999D03*
G04 #@! TO.P,J3,4*
G04 #@! TO.N,Board_1-/VH*
X111905004Y-31944999D03*
G04 #@! TO.P,J3,5*
G04 #@! TO.N,Board_1-/UL*
X113905004Y-31944999D03*
G04 #@! TO.P,J3,6*
G04 #@! TO.N,Board_1-/UH*
X115905004Y-31944999D03*
G04 #@! TD*
G04 #@! TO.P,J1,1*
G04 #@! TO.N,Board_1-/~CS_DRIVER*
G04 #@! TA.AperFunction,ComponentPad*
G36*
G01*
X105305004Y-37650000D02*
X105305004Y-36399998D01*
G75*
G02*
X105555003Y-36149999I249999J0D01*
G01*
X106255005Y-36149999D01*
G75*
G02*
X106505004Y-36399998I0J-249999D01*
G01*
X106505004Y-37650000D01*
G75*
G02*
X106255005Y-37899999I-249999J0D01*
G01*
X105555003Y-37899999D01*
G75*
G02*
X105305004Y-37650000I0J249999D01*
G01*
G37*
G04 #@! TD.AperFunction*
G04 #@! TO.P,J1,2*
G04 #@! TO.N,Board_1-/SPI1_SCK*
X107905004Y-37024999D03*
G04 #@! TO.P,J1,3*
G04 #@! TO.N,Board_1-/SPI1_MOSI*
X109905004Y-37024999D03*
G04 #@! TO.P,J1,4*
G04 #@! TO.N,Board_1-/SPI1_MISO*
X111905004Y-37024999D03*
G04 #@! TO.P,J1,5*
G04 #@! TO.N,Board_1-/DRV_EN*
X113905004Y-37024999D03*
G04 #@! TO.P,J1,6*
G04 #@! TO.N,Board_1-/Connectors/FAULT*
X115905004Y-37024999D03*
G04 #@! TD*
D14*
G04 #@! TO.P,C16,1*
G04 #@! TO.N,Board_1-/+VM*
X84315004Y-35254999D03*
G04 #@! TO.P,C16,2*
G04 #@! TO.N,Board_1-GND*
X89315004Y-35254999D03*
G04 #@! TD*
G04 #@! TO.P,C15,1*
G04 #@! TO.N,Board_1-/+VM*
X95745004Y-35254999D03*
G04 #@! TO.P,C15,2*
G04 #@! TO.N,Board_1-GND*
X100745004Y-35254999D03*
G04 #@! TD*
D15*
G04 #@! TO.P,H202,1*
G04 #@! TO.N,Board_1-GND*
X85585004Y-45914999D03*
G04 #@! TD*
G04 #@! TO.P,H201,1*
G04 #@! TO.N,Board_1-GND*
X85585004Y-64964999D03*
G04 #@! TD*
G04 #@! TO.P,J2,1*
G04 #@! TO.N,Board_1-/Connectors/VCC_IO*
G04 #@! TA.AperFunction,ComponentPad*
G36*
G01*
X135760003Y-32614999D02*
X137010005Y-32614999D01*
G75*
G02*
X137260004Y-32864998I0J-249999D01*
G01*
X137260004Y-33565000D01*
G75*
G02*
X137010005Y-33814999I-249999J0D01*
G01*
X135760003Y-33814999D01*
G75*
G02*
X135510004Y-33565000I0J249999D01*
G01*
X135510004Y-32864998D01*
G75*
G02*
X135760003Y-32614999I249999J0D01*
G01*
G37*
G04 #@! TD.AperFunction*
D16*
G04 #@! TO.P,J2,2*
G04 #@! TO.N,Board_1-GND*
X136385004Y-35214999D03*
G04 #@! TD*
G04 #@! TO.P,J5,1*
G04 #@! TO.N,Board_1-Net-(C17-Pad1)*
G04 #@! TA.AperFunction,ComponentPad*
G36*
G01*
X135760003Y-64364999D02*
X137010005Y-64364999D01*
G75*
G02*
X137260004Y-64614998I0J-249999D01*
G01*
X137260004Y-65315000D01*
G75*
G02*
X137010005Y-65564999I-249999J0D01*
G01*
X135760003Y-65564999D01*
G75*
G02*
X135510004Y-65315000I0J249999D01*
G01*
X135510004Y-64614998D01*
G75*
G02*
X135760003Y-64364999I249999J0D01*
G01*
G37*
G04 #@! TD.AperFunction*
G04 #@! TO.P,J5,2*
G04 #@! TO.N,Board_1-GND*
X136385004Y-66964999D03*
G04 #@! TD*
G04 #@! TO.P,J6,1*
G04 #@! TO.N,Board_1-/ADC_I_u*
G04 #@! TA.AperFunction,ComponentPad*
G36*
G01*
X135760003Y-40234999D02*
X137010005Y-40234999D01*
G75*
G02*
X137260004Y-40484998I0J-249999D01*
G01*
X137260004Y-41185000D01*
G75*
G02*
X137010005Y-41434999I-249999J0D01*
G01*
X135760003Y-41434999D01*
G75*
G02*
X135510004Y-41185000I0J249999D01*
G01*
X135510004Y-40484998D01*
G75*
G02*
X135760003Y-40234999I249999J0D01*
G01*
G37*
G04 #@! TD.AperFunction*
G04 #@! TO.P,J6,2*
G04 #@! TO.N,Board_1-/ADC_I_v*
X136385004Y-42834999D03*
G04 #@! TO.P,J6,3*
G04 #@! TO.N,Board_1-/ADC_I_w*
X136385004Y-44834999D03*
G04 #@! TD*
D11*
G04 #@! TO.P,U3,1*
G04 #@! TO.N,Board_0-/W*
X76434999Y-59884999D03*
D12*
G04 #@! TO.P,U3,2*
G04 #@! TO.N,Board_0-/V*
X76434999Y-54804999D03*
G04 #@! TO.P,U3,3*
G04 #@! TO.N,Board_0-/U*
X76434999Y-49724999D03*
G04 #@! TD*
D11*
G04 #@! TO.P,U2,1*
G04 #@! TO.N,Board_0-GND*
X67544999Y-34484999D03*
D12*
G04 #@! TO.P,U2,2*
G04 #@! TO.N,Board_0-/+VM*
X62464999Y-34484999D03*
G04 #@! TD*
G04 #@! TO.P,J3,1*
G04 #@! TO.N,Board_0-/WL*
G04 #@! TA.AperFunction,ComponentPad*
G36*
G01*
X45354999Y-32570000D02*
X45354999Y-31319998D01*
G75*
G02*
X45604998Y-31069999I249999J0D01*
G01*
X46305000Y-31069999D01*
G75*
G02*
X46554999Y-31319998I0J-249999D01*
G01*
X46554999Y-32570000D01*
G75*
G02*
X46305000Y-32819999I-249999J0D01*
G01*
X45604998Y-32819999D01*
G75*
G02*
X45354999Y-32570000I0J249999D01*
G01*
G37*
G04 #@! TD.AperFunction*
D13*
G04 #@! TO.P,J3,2*
G04 #@! TO.N,Board_0-/WH*
X47954999Y-31944999D03*
G04 #@! TO.P,J3,3*
G04 #@! TO.N,Board_0-/VL*
X49954999Y-31944999D03*
G04 #@! TO.P,J3,4*
G04 #@! TO.N,Board_0-/VH*
X51954999Y-31944999D03*
G04 #@! TO.P,J3,5*
G04 #@! TO.N,Board_0-/UL*
X53954999Y-31944999D03*
G04 #@! TO.P,J3,6*
G04 #@! TO.N,Board_0-/UH*
X55954999Y-31944999D03*
G04 #@! TD*
G04 #@! TO.P,J1,1*
G04 #@! TO.N,Board_0-/~CS_DRIVER*
G04 #@! TA.AperFunction,ComponentPad*
G36*
G01*
X45354999Y-37650000D02*
X45354999Y-36399998D01*
G75*
G02*
X45604998Y-36149999I249999J0D01*
G01*
X46305000Y-36149999D01*
G75*
G02*
X46554999Y-36399998I0J-249999D01*
G01*
X46554999Y-37650000D01*
G75*
G02*
X46305000Y-37899999I-249999J0D01*
G01*
X45604998Y-37899999D01*
G75*
G02*
X45354999Y-37650000I0J249999D01*
G01*
G37*
G04 #@! TD.AperFunction*
G04 #@! TO.P,J1,2*
G04 #@! TO.N,Board_0-/SPI1_SCK*
X47954999Y-37024999D03*
G04 #@! TO.P,J1,3*
G04 #@! TO.N,Board_0-/SPI1_MOSI*
X49954999Y-37024999D03*
G04 #@! TO.P,J1,4*
G04 #@! TO.N,Board_0-/SPI1_MISO*
X51954999Y-37024999D03*
G04 #@! TO.P,J1,5*
G04 #@! TO.N,Board_0-/DRV_EN*
X53954999Y-37024999D03*
G04 #@! TO.P,J1,6*
G04 #@! TO.N,Board_0-/Connectors/FAULT*
X55954999Y-37024999D03*
G04 #@! TD*
D14*
G04 #@! TO.P,C16,1*
G04 #@! TO.N,Board_0-/+VM*
X24364999Y-35254999D03*
G04 #@! TO.P,C16,2*
G04 #@! TO.N,Board_0-GND*
X29364999Y-35254999D03*
G04 #@! TD*
G04 #@! TO.P,C15,1*
G04 #@! TO.N,Board_0-/+VM*
X35794999Y-35254999D03*
G04 #@! TO.P,C15,2*
G04 #@! TO.N,Board_0-GND*
X40794999Y-35254999D03*
G04 #@! TD*
D15*
G04 #@! TO.P,H202,1*
G04 #@! TO.N,Board_0-GND*
X25634999Y-45914999D03*
G04 #@! TD*
G04 #@! TO.P,H201,1*
G04 #@! TO.N,Board_0-GND*
X25634999Y-64964999D03*
G04 #@! TD*
G04 #@! TO.P,J2,1*
G04 #@! TO.N,Board_0-/Connectors/VCC_IO*
G04 #@! TA.AperFunction,ComponentPad*
G36*
G01*
X75809998Y-32614999D02*
X77060000Y-32614999D01*
G75*
G02*
X77309999Y-32864998I0J-249999D01*
G01*
X77309999Y-33565000D01*
G75*
G02*
X77060000Y-33814999I-249999J0D01*
G01*
X75809998Y-33814999D01*
G75*
G02*
X75559999Y-33565000I0J249999D01*
G01*
X75559999Y-32864998D01*
G75*
G02*
X75809998Y-32614999I249999J0D01*
G01*
G37*
G04 #@! TD.AperFunction*
D16*
G04 #@! TO.P,J2,2*
G04 #@! TO.N,Board_0-GND*
X76434999Y-35214999D03*
G04 #@! TD*
G04 #@! TO.P,J5,1*
G04 #@! TO.N,Board_0-Net-(C17-Pad1)*
G04 #@! TA.AperFunction,ComponentPad*
G36*
G01*
X75809998Y-64364999D02*
X77060000Y-64364999D01*
G75*
G02*
X77309999Y-64614998I0J-249999D01*
G01*
X77309999Y-65315000D01*
G75*
G02*
X77060000Y-65564999I-249999J0D01*
G01*
X75809998Y-65564999D01*
G75*
G02*
X75559999Y-65315000I0J249999D01*
G01*
X75559999Y-64614998D01*
G75*
G02*
X75809998Y-64364999I249999J0D01*
G01*
G37*
G04 #@! TD.AperFunction*
G04 #@! TO.P,J5,2*
G04 #@! TO.N,Board_0-GND*
X76434999Y-66964999D03*
G04 #@! TD*
G04 #@! TO.P,J6,1*
G04 #@! TO.N,Board_0-/ADC_I_u*
G04 #@! TA.AperFunction,ComponentPad*
G36*
G01*
X75809998Y-40234999D02*
X77060000Y-40234999D01*
G75*
G02*
X77309999Y-40484998I0J-249999D01*
G01*
X77309999Y-41185000D01*
G75*
G02*
X77060000Y-41434999I-249999J0D01*
G01*
X75809998Y-41434999D01*
G75*
G02*
X75559999Y-41185000I0J249999D01*
G01*
X75559999Y-40484998D01*
G75*
G02*
X75809998Y-40234999I249999J0D01*
G01*
G37*
G04 #@! TD.AperFunction*
G04 #@! TO.P,J6,2*
G04 #@! TO.N,Board_0-/ADC_I_v*
X76434999Y-42834999D03*
G04 #@! TO.P,J6,3*
G04 #@! TO.N,Board_0-/ADC_I_w*
X76434999Y-44834999D03*
G04 #@! TD*
M02*
